<?xml version="1.0" encoding="utf-8"?>
<!-- Generator: Adobe Illustrator 27.2.0, SVG Export Plug-In . SVG Version: 6.00 Build 0)  -->
<svg version="1.1" id="Layer_1" xmlns="http://www.w3.org/2000/svg" xmlns:xlink="http://www.w3.org/1999/xlink" x="0px" y="0px"
	 viewBox="0 0 16 16" style="enable-background:new 0 0 16 16;" xml:space="preserve">
<style type="text/css">
	.st0{fill-rule:evenodd;clip-rule:evenodd;fill:#E24C1C;}
	.st1{opacity:0.3;fill:#E24C1C;enable-background:new    ;}
</style>
<path class="st0" d="M0,10.2c0-0.6,0.4-1,1-1h1c0.6,0,1,0.4,1,1V15c0,0.6-0.4,1-1,1H1c-0.6,0-1-0.4-1-1V10.2z M2,10.2H1V15h1V10.2z"
	/>
<path class="st0" d="M4,7.8c0-0.6,0.4-1,1-1h1c0.6,0,1,0.4,1,1V15c0,0.6-0.4,1-1,1H5c-0.6,0-1-0.4-1-1V7.8z M6,7.8H5V15h1V7.8z"/>
<path class="st0" d="M8,8.4c0-0.6,0.4-1,1-1h1c0.6,0,1,0.4,1,1V15c0,0.6-0.4,1-1,1H9c-0.6,0-1-0.4-1-1V8.4z M10,8.4H9V15h1V8.4z"/>
<path class="st0" d="M12,6.8c0-0.6,0.4-1,1-1h1c0.6,0,1,0.4,1,1V15c0,0.6-0.4,1-1,1h-1c-0.6,0-1-0.4-1-1V6.8z M14,6.8h-1V15h1V6.8z"
	/>
<path class="st1" d="M5.5,2.3l-5,4.6c0,0-0.1,0.1-0.1,0.2c0,1.8,1.4,3.2,3.2,3.2h4.6c3.9,0,7-3.1,7-7V1.5c0-0.4-0.5-0.7-0.8-0.4
	L10.3,5c-0.2,0.2-0.5,0.2-0.7,0L6.2,2.2C6,2.1,5.7,2.1,5.5,2.3z"/>
<path class="st0" d="M15.7,0.2c0.2,0.2,0.2,0.5,0,0.7l-5,4.7c-0.4,0.3-0.9,0.4-1.3,0L5.9,2.8l-5,4.7c-0.2,0.2-0.5,0.2-0.7,0
	c-0.2-0.2-0.2-0.5,0-0.7l5-4.7c0.4-0.3,0.9-0.4,1.3,0l3.4,2.8l5-4.7C15.2-0.1,15.5,0,15.7,0.2z"/>
</svg>
