<?xml version="1.0" encoding="utf-8"?>
<!-- Generator: Adobe Illustrator 27.2.0, SVG Export Plug-In . SVG Version: 6.00 Build 0)  -->
<svg version="1.1" id="Layer_1" xmlns="http://www.w3.org/2000/svg" xmlns:xlink="http://www.w3.org/1999/xlink" x="0px" y="0px"
	 viewBox="0 0 16 16" style="enable-background:new 0 0 16 16;" xml:space="preserve">
<style type="text/css">
	.st0{clip-path:url(#SVGID_00000048488946005295138520000014443521463739257499_);}
	.st1{fill:#FFFFFF;}
	.st2{fill:#FBB4AE;}
	.st3{fill-rule:evenodd;clip-rule:evenodd;fill:#E24C1C;}
</style>
<g>
	<defs>
		<rect id="SVGID_1_" y="0" width="16" height="16"/>
	</defs>
	<clipPath id="SVGID_00000149376131042672071430000013636265415484756648_">
		<use xlink:href="#SVGID_1_"  style="overflow:visible;"/>
	</clipPath>
	<g style="clip-path:url(#SVGID_00000149376131042672071430000013636265415484756648_);">
		<rect y="0" class="st1" width="16" height="16"/>
		<path class="st2" d="M1.9,1.7h1.9h1.9c0.6,0,1,0.4,1,1v3.5c0,0.6-0.4,1-1,1H1.9c-0.6,0-1-0.4-1-1V2.7C0.9,2.1,1.3,1.7,1.9,1.7z"/>
		<path class="st3" d="M0,2c0-1.1,0.9-2,2-2h3.6c1.1,0,2,0.9,2,2v3.7c0,1.1-0.9,2-2,2H2c-1.1,0-2-0.9-2-2V2z M2,1C1.4,1,1,1.4,1,2
			v3.7c0,0.6,0.4,1,1,1h3.6c0.6,0,1-0.4,1-1V2c0-0.6-0.4-1-1-1H2z"/>
		<path class="st3" d="M8.4,2c0-1.1,0.9-2,2-2H14c1.1,0,2,0.9,2,2v3.7c0,1.1-0.9,2-2,2h-3.6c-1.1,0-2-0.9-2-2V2z M10.4,1
			c-0.6,0-1,0.4-1,1v3.7c0,0.6,0.4,1,1,1H14c0.6,0,1-0.4,1-1V2c0-0.6-0.4-1-1-1H10.4z"/>
		<path class="st3" d="M8.8,12c0-0.3,0.2-0.5,0.5-0.5h4.8c0.3,0,0.5,0.2,0.5,0.5c0,0.3-0.2,0.5-0.5,0.5H9.3C9,12.5,8.8,12.3,8.8,12z
			"/>
		<path class="st3" d="M11.7,9.1c0.3,0,0.5,0.2,0.5,0.5v4.8c0,0.3-0.2,0.5-0.5,0.5c-0.3,0-0.5-0.2-0.5-0.5V9.6
			C11.2,9.4,11.4,9.1,11.7,9.1z"/>
		<path class="st3" d="M0,10.3c0-1.1,0.9-2,2-2h3.6c1.1,0,2,0.9,2,2V14c0,1.1-0.9,2-2,2H2c-1.1,0-2-0.9-2-2V10.3z M2,9.3
			c-0.6,0-1,0.4-1,1V14c0,0.6,0.4,1,1,1h3.6c0.6,0,1-0.4,1-1v-3.7c0-0.6-0.4-1-1-1H2z"/>
	</g>
</g>
</svg>
