<svg width="41" height="40" viewBox="0 0 41 40" fill="none" xmlns="http://www.w3.org/2000/svg">
<rect x="0.5" width="40" height="40" rx="8" fill="#E7DAFD"/>
<path d="M22.0522 13.2031C23.8672 13.2031 25.3438 14.6797 25.3438 16.4946C25.3438 17.6943 24.6978 18.8018 23.6519 19.3555L20.668 21.0474C20.5142 21.1396 20.4219 21.2935 20.4219 21.478V22.5547C20.4219 22.8315 20.1758 23.0776 19.9297 23.0776C19.6528 23.0776 19.4375 22.8315 19.4375 22.5547V21.478C19.4375 20.9551 19.7144 20.4629 20.1758 20.186L23.1597 18.5249C23.8979 18.0942 24.3594 17.3252 24.3594 16.4946C24.3594 15.2334 23.3135 14.1875 22.0522 14.1875H18.7607C17.4995 14.1875 16.4844 15.2334 16.4844 16.4946V17.1406C16.4844 17.4175 16.2383 17.6328 15.9922 17.6328C15.7153 17.6328 15.5 17.4175 15.5 17.1406V16.4946C15.5 14.6797 16.9458 13.2031 18.7607 13.2031H22.0522ZM19.9297 24.5234C20.4526 24.5234 20.9141 24.9849 20.9141 25.5078C20.9141 26.0615 20.4526 26.4922 19.9297 26.4922C19.376 26.4922 18.9453 26.0615 18.9453 25.5078C18.9453 24.9849 19.376 24.5234 19.9297 24.5234Z" fill="#7B40DC"/>
</svg>
