<svg width="16" height="16" viewBox="0 0 16 16" fill="none" xmlns="http://www.w3.org/2000/svg">
<g clip-path="url(#clip0_5956_42005)">
<path fill-rule="evenodd" clip-rule="evenodd" d="M8 15C11.866 15 15 11.866 15 8C15 4.13401 11.866 1 8 1C4.13401 1 1 4.13401 1 8C1 11.866 4.13401 15 8 15ZM8 16C12.4183 16 16 12.4183 16 8C16 3.58172 12.4183 0 8 0C3.58172 0 0 3.58172 0 8C0 12.4183 3.58172 16 8 16Z" fill="#DC3C30"/>
<path fill-rule="evenodd" clip-rule="evenodd" d="M7.64535 10.2048C6.80173 10.3102 6.05478 10.8767 5.79762 11.52C5.69512 11.7765 5.40416 11.9012 5.14775 11.7987C4.89133 11.6962 4.76655 11.4053 4.86905 11.1489C5.27855 10.1244 6.36493 9.35702 7.52132 9.21248C8.73019 9.06137 10.0185 9.58602 10.7806 11.1109C10.904 11.3579 10.8039 11.6583 10.5569 11.7817C10.3099 11.9052 10.0095 11.805 9.88608 11.558C9.31488 10.4151 8.43647 10.1059 7.64535 10.2048Z" fill="#DC3C30"/>
<path fill-rule="evenodd" clip-rule="evenodd" d="M11.7805 5.10973C11.904 5.35672 11.8039 5.65705 11.5569 5.78055L11.118 6L11.5569 6.21945C11.8039 6.34295 11.904 6.64328 11.7805 6.89027C11.6571 7.13726 11.3567 7.23737 11.1097 7.11388L9.77639 6.44721C9.607 6.36252 9.5 6.18939 9.5 6C9.5 5.81061 9.607 5.63748 9.77639 5.55279L11.1097 4.88612C11.3567 4.76263 11.6571 4.86274 11.7805 5.10973Z" fill="#DC3C30"/>
<path fill-rule="evenodd" clip-rule="evenodd" d="M4.21945 6.89027C4.09596 6.64328 4.19607 6.34295 4.44306 6.21945L4.88197 6L4.44306 5.78055C4.19607 5.65705 4.09596 5.35672 4.21945 5.10973C4.34295 4.86274 4.64328 4.76263 4.89027 4.88612L6.22361 5.55279C6.393 5.63748 6.5 5.81061 6.5 6C6.5 6.18939 6.393 6.36252 6.22361 6.44721L4.89027 7.11388C4.64328 7.23737 4.34295 7.13726 4.21945 6.89027Z" fill="#DC3C30"/>
</g>
<defs>
<clipPath id="clip0_5956_42005">
<rect width="16" height="16" fill="white"/>
</clipPath>
</defs>
</svg>
