<svg width="16" height="16" viewBox="0 0 16 16" fill="none" xmlns="http://www.w3.org/2000/svg">
<g clip-path="url(#clip0_5956_41916)">
<path fill-rule="evenodd" clip-rule="evenodd" d="M8 15C11.866 15 15 11.866 15 8C15 4.13401 11.866 1 8 1C4.13401 1 1 4.13401 1 8C1 11.866 4.13401 15 8 15ZM8 16C12.4183 16 16 12.4183 16 8C16 3.58172 12.4183 0 8 0C3.58172 0 0 3.58172 0 8C0 12.4183 3.58172 16 8 16Z" fill="#DC3C30"/>
<path d="M14 8C14 11.3137 11.3137 14 8 14C4.68629 14 2 11.3137 2 8C2 4.68629 4.68629 2 8 2C11.3137 2 14 4.68629 14 8Z" fill="#FEECEB"/>
<path fill-rule="evenodd" clip-rule="evenodd" d="M7.64516 10.2047C6.80154 10.3101 6.05459 10.8766 5.79742 11.52C5.69493 11.7764 5.40397 11.9012 5.14755 11.7987C4.89114 11.6962 4.76636 11.4052 4.86886 11.1488C5.27836 10.1244 6.36474 9.35695 7.52112 9.21241C8.73 9.0613 10.0183 9.58595 10.7804 11.1109C10.9038 11.3579 10.8037 11.6582 10.5567 11.7816C10.3097 11.9051 10.0093 11.8049 9.88589 11.5579C9.31469 10.415 8.43628 10.1058 7.64516 10.2047Z" fill="#DC3C30"/>
<path fill-rule="evenodd" clip-rule="evenodd" d="M11.7805 5.10951C11.904 5.3565 11.8039 5.65684 11.5569 5.78033L11.118 5.99978L11.5569 6.21924C11.8039 6.34273 11.904 6.64307 11.7805 6.89006C11.6571 7.13705 11.3567 7.23716 11.1097 7.11366L9.77639 6.447C9.607 6.3623 9.5 6.18917 9.5 5.99978C9.5 5.8104 9.607 5.63727 9.77639 5.55257L11.1097 4.8859C11.3567 4.76241 11.6571 4.86252 11.7805 5.10951Z" fill="#DC3C30"/>
<path fill-rule="evenodd" clip-rule="evenodd" d="M4.21945 6.89049C4.09596 6.6435 4.19607 6.34316 4.44306 6.21967L4.88197 6.00022L4.44306 5.78076C4.19607 5.65727 4.09596 5.35693 4.21945 5.10994C4.34295 4.86295 4.64328 4.76284 4.89027 4.88634L6.22361 5.553C6.393 5.6377 6.5 5.81083 6.5 6.00022C6.5 6.1896 6.393 6.36273 6.22361 6.44743L4.89027 7.1141C4.64328 7.23759 4.34295 7.13748 4.21945 6.89049Z" fill="#DC3C30"/>
</g>
<defs>
<clipPath id="clip0_5956_41916">
<rect width="16" height="16" fill="white"/>
</clipPath>
</defs>
</svg>
