<svg width="48" height="48" viewBox="0 0 48 48" fill="none" xmlns="http://www.w3.org/2000/svg">
<rect width="48" height="48" rx="24" fill="#CB62CF"/>
<path d="M21.8367 20.6725V23.1348H26.1636V18.7833C26.1636 18.0193 25.3416 17.5375 24.675 17.9108L22.8595 18.9275C22.2278 19.2812 21.8367 19.9486 21.8367 20.6725Z" stroke="white" stroke-width="2" stroke-linecap="round"/>
<path d="M24 17.9423C23.0204 17.0104 21.649 14.6672 24 12.75C24.9795 13.5488 26.3509 15.7056 24 17.9423Z" stroke="white" stroke-width="2" stroke-linecap="round" stroke-linejoin="round"/>
<path d="M33.0867 28.3271V33.2502C33.0867 34.3548 32.1912 35.2502 31.0867 35.2502H16.9136C15.809 35.2502 14.9136 34.3548 14.9136 33.2502V28.3271" stroke="white" stroke-width="2" stroke-linecap="round"/>
<path d="M31.769 23.1348H16.231C15.0254 23.1348 14.0481 24.1121 14.0481 25.3177V26.1288C14.0481 26.9842 14.3785 27.8065 14.9703 28.424L15.7067 29.1925C16.6112 30.1362 18.1196 30.1362 19.0241 29.1925C19.9285 28.2487 21.437 28.2487 22.3414 29.1925C23.2458 30.1362 24.7543 30.1362 25.6587 29.1925C26.5631 28.2487 28.0716 28.2487 28.976 29.1925C29.8804 30.1362 31.3889 30.1362 32.2933 29.1925L33.0297 28.424C33.6215 27.8065 33.9519 26.9841 33.9519 26.1288V25.3177C33.9519 24.1121 32.9746 23.1348 31.769 23.1348Z" stroke="white" stroke-width="2" stroke-linecap="round"/>
</svg>
