<svg width="13" height="11" viewBox="0 0 13 11" fill="none" xmlns="http://www.w3.org/2000/svg">
<path d="M2.29407 7.125C2.13782 7.125 1.98157 6.98828 1.98157 6.8125V5.875H1.0636C0.887817 5.875 0.751099 5.71875 0.751099 5.5625L0.751099 4.9375C0.751099 4.78125 0.887817 4.625 1.0636 4.625H1.98157L2.0011 3.72656C2.0011 3.57031 2.11829 3.43359 2.29407 3.43359L2.91907 3.43359C3.07532 3.43359 3.23157 3.55078 3.23157 3.72656V4.64453L4.14954 4.64453C4.32532 4.64453 4.46204 4.78125 4.46204 4.9375V5.5625C4.46204 5.73828 4.32532 5.875 4.14954 5.875L3.23157 5.875L3.21204 6.8125C3.21204 6.98828 3.07532 7.125 2.89954 7.125H2.29407ZM11.962 8.76562C12.0988 9.25391 11.7863 9.78125 11.298 9.89844L10.087 10.2305C10.0089 10.25 9.93079 10.25 9.85266 10.25C9.42297 10.25 9.05188 9.97656 8.93469 9.56641L7.3136 3.49219V9.3125C7.3136 9.83984 6.88391 10.25 6.3761 10.25H5.1261C4.95032 10.25 4.79407 10.2109 4.65735 10.1328C4.5011 10.2109 4.34485 10.25 4.1886 10.25H2.9386C2.41125 10.25 2.0011 9.83984 2.0011 9.3125L2.0011 8.21875C2.0011 7.96484 2.19641 7.75 2.46985 7.75C2.72375 7.75 2.9386 7.96484 2.9386 8.21875V9.3125H4.1886L4.1886 6.96875C4.1886 6.71484 4.38391 6.5 4.65735 6.5C4.91125 6.5 5.1261 6.71484 5.1261 6.96875V7.4375H6.3761L6.3761 3.0625L5.1261 3.0625L5.1261 3.53125C5.1261 3.80469 4.91125 4 4.65735 4C4.38391 4 4.1886 3.80469 4.1886 3.53125V1.1875L2.9386 1.1875L2.9386 2.28125C2.9386 2.55469 2.72375 2.75 2.46985 2.75C2.19641 2.75 2.0011 2.55469 2.0011 2.28125V1.1875C2.0011 0.679687 2.41125 0.25 2.9386 0.25L4.1886 0.25C4.34485 0.25 4.5011 0.308594 4.65735 0.386719C4.79407 0.308594 4.95032 0.25 5.1261 0.25L6.3761 0.25C6.72766 0.25 7.04016 0.464844 7.19641 0.757812C7.27454 0.699219 7.39172 0.640625 7.50891 0.621094L8.70032 0.289062C8.79797 0.269531 8.8761 0.25 8.95422 0.25C9.36438 0.25 9.73547 0.542969 9.85266 0.953125L11.962 8.76562ZM6.3761 9.3125V8.375H5.1261V9.3125H6.3761ZM6.3761 2.125V1.1875L5.1261 1.1875V2.125L6.3761 2.125ZM7.74329 1.51953L7.97766 2.41797L9.1886 2.08594L8.95422 1.20703L7.74329 1.51953ZM8.23157 3.31641L9.36438 7.51562L10.5753 7.20312L9.4425 3.00391L8.23157 3.31641ZM9.85266 9.33203L11.0636 9L10.8097 8.10156L9.59875 8.43359L9.85266 9.33203Z" fill="#10295E"/>
</svg>
