<svg width="16" height="16" viewBox="0 0 16 16" fill="none" xmlns="http://www.w3.org/2000/svg">
<g id="Group 1000002331">
<path id="Union" fill-rule="evenodd" clip-rule="evenodd" d="M3.5 0.5C3.5 0.223858 3.27614 0 3 0C2.72386 0 2.5 0.223858 2.5 0.5V1C1.11929 1 0 2.11929 0 3.5V13.5C0 14.8807 1.11929 16 2.5 16H13.5C14.8807 16 16 14.8807 16 13.5V3.5C16 2.11929 14.8807 1 13.5 1V0.5C13.5 0.223858 13.2761 0 13 0C12.7239 0 12.5 0.223858 12.5 0.5V1H3.5V0.5ZM12.5 2H3.5V3.5C3.5 3.77614 3.27614 4 3 4C2.72386 4 2.5 3.77614 2.5 3.5L2.5 2C1.67157 2 1 2.67157 1 3.5V5.5H15V3.5C15 2.67157 14.3284 2 13.5 2V3.5C13.5 3.77614 13.2761 4 13 4C12.7239 4 12.5 3.77614 12.5 3.5V2ZM1 6.5H15V13.5C15 14.3284 14.3284 15 13.5 15H2.5C1.67157 15 1 14.3284 1 13.5V6.5ZM5 9.5C5.27614 9.5 5.5 9.27614 5.5 9C5.5 8.72386 5.27614 8.5 5 8.5H3C2.72386 8.5 2.5 8.72386 2.5 9C2.5 9.27614 2.72386 9.5 3 9.5H5ZM9.5 9C9.5 9.27614 9.27614 9.5 9 9.5H7C6.72386 9.5 6.5 9.27614 6.5 9C6.5 8.72386 6.72386 8.5 7 8.5H9C9.27614 8.5 9.5 8.72386 9.5 9ZM13 9.5C13.2761 9.5 13.5 9.27614 13.5 9C13.5 8.72386 13.2761 8.5 13 8.5H11C10.7239 8.5 10.5 8.72386 10.5 9C10.5 9.27614 10.7239 9.5 11 9.5H13ZM5.5 12C5.5 12.2761 5.27614 12.5 5 12.5H3C2.72386 12.5 2.5 12.2761 2.5 12C2.5 11.7239 2.72386 11.5 3 11.5H5C5.27614 11.5 5.5 11.7239 5.5 12ZM9 12.5C9.27614 12.5 9.5 12.2761 9.5 12C9.5 11.7239 9.27614 11.5 9 11.5H7C6.72386 11.5 6.5 11.7239 6.5 12C6.5 12.2761 6.72386 12.5 7 12.5H9ZM13.5 12C13.5 12.2761 13.2761 12.5 13 12.5H11C10.7239 12.5 10.5 12.2761 10.5 12C10.5 11.7239 10.7239 11.5 11 11.5H13C13.2761 11.5 13.5 11.7239 13.5 12Z" fill="#000A16" fill-opacity="0.6"/>
</g>
</svg>
