<svg width="200" height="200" viewBox="0 0 200 200" fill="none" xmlns="http://www.w3.org/2000/svg">
<rect width="200" height="200" fill="white"/>
<rect x="12" y="11" width="175" height="175" rx="35" fill="#E5F6E5"/>
<rect x="58.25" y="39.25" width="93.5" height="64.5" rx="5.75" fill="white" stroke="#4D545C" stroke-width="0.5"/>
<path d="M62 46C62 44.3431 63.3431 43 65 43H145C146.657 43 148 44.3431 148 46V67C148 68.6569 146.657 70 145 70H65C63.3431 70 62 68.6569 62 67V46Z" fill="#E5F6E5"/>
<path d="M62 76C62 74.3431 63.3431 73 65 73H145C146.657 73 148 74.3431 148 76V97C148 98.6569 146.657 100 145 100H65C63.3431 100 62 98.6569 62 97V76Z" fill="#E5F6E5"/>
<rect x="71.8086" y="69.9141" width="3.80816" height="22.9149" rx="1" transform="rotate(-180 71.8086 69.9141)" fill="white"/>
<rect x="75" y="100" width="4" height="21" rx="1" transform="rotate(-180 75 100)" fill="white"/>
<rect x="129.809" y="99.9141" width="3.80816" height="18.9149" rx="1" transform="rotate(-180 129.809 99.9141)" fill="white"/>
<rect x="79.8086" y="69.9141" width="3.80816" height="22.9149" rx="1" transform="rotate(-180 79.8086 69.9141)" fill="white"/>
<rect x="85" y="100" width="4" height="21" rx="1" transform="rotate(-180 85 100)" fill="white"/>
<rect x="140" y="99.9141" width="5.79168" height="22.9149" rx="1" transform="rotate(-180 140 99.9141)" fill="white"/>
<rect x="68.8086" y="69.9141" width="3.80816" height="20.9149" rx="1" transform="rotate(-180 68.8086 69.9141)" fill="white"/>
<rect x="70.8086" y="99.9141" width="5.80811" height="22.9149" rx="1" transform="rotate(-180 70.8086 99.9141)" fill="white"/>
<rect x="125.809" y="99.9141" width="3.80816" height="22.9149" rx="1" transform="rotate(-180 125.809 99.9141)" fill="white"/>
<rect x="75.8086" y="69.9141" width="3.80816" height="19.9149" rx="1" transform="rotate(-180 75.8086 69.9141)" fill="white"/>
<rect x="78.8086" y="99.9141" width="3.80816" height="22.9149" rx="1" transform="rotate(-180 78.8086 99.9141)" fill="white"/>
<rect x="133.809" y="99.9141" width="3.80816" height="22.9149" rx="1" transform="rotate(-180 133.809 99.9141)" fill="white"/>
<rect x="83.8086" y="69.9141" width="3.80816" height="22.9149" rx="1" transform="rotate(-180 83.8086 69.9141)" fill="white"/>
<rect x="99.5059" y="68" width="3.80816" height="22.9149" rx="1" transform="rotate(150.792 99.5059 68)" fill="white"/>
<rect x="88.8086" y="99.9141" width="3.80816" height="22.9149" rx="1" transform="rotate(-180 88.8086 99.9141)" fill="white"/>
<rect x="144.809" y="99.9141" width="3.80816" height="22.9149" rx="1" transform="rotate(-180 144.809 99.9141)" fill="white"/>
<path d="M168.622 194.472H99.6153C40.8805 194.472 81.6766 132.193 97.4453 120.692C113.214 109.191 170.719 88.9377 188.658 141.235C203.009 183.073 181.28 194.159 168.622 194.472Z" fill="white"/>
<path d="M168.622 194.472H99.6153C40.8805 194.472 81.6766 132.193 97.4453 120.692C113.214 109.191 170.719 88.9377 188.658 141.235C203.009 183.073 181.28 194.159 168.622 194.472Z" stroke="#4D545C" stroke-width="0.5"/>
<path d="M164.9 192.226H100.657C45.9763 192.226 83.9565 134.194 98.6367 123.477C113.317 112.76 143.018 106.501 176.638 142.891C204.603 173.161 176.685 191.934 164.9 192.226Z" fill="#EBF0FF"/>
<path d="M142.849 157.695C147.455 157.48 159.339 158.175 170.035 162.682" stroke="#4D545C" stroke-width="0.5"/>
<path d="M162.767 147.75C157.921 148.015 147.664 150.325 145.407 157.443" stroke="#4D545C" stroke-width="0.5"/>
<path d="M136.144 159.32L137.012 159.899L134.191 169.736L121.895 168.434L124.209 157.512L136.144 159.32Z" fill="white" stroke="#4D545C" stroke-width="0.5"/>
<path d="M69.959 176.174L74.1543 171.906L82.111 179.284L74.5883 186.662L70.1037 184.131L69.959 176.174Z" fill="white" stroke="#4D545C" stroke-width="0.5"/>
<path d="M60.7001 190.638L50.3564 180.511C50.7555 179.946 51.1404 179.475 51.5138 179.087C55.2014 175.255 57.7585 179.466 61.5681 179.86C64.9244 180.207 68.8015 176.822 70.3205 175.086C73.0402 178.211 72.1288 181.162 71.3332 182.247L75.3839 186.659L69.7516 192.166L69.2035 192.702C67.2291 194.633 64.0592 194.583 62.1468 192.591L62.4361 190.638C61.6839 191.101 60.9654 190.831 60.7001 190.638Z" fill="white"/>
<path d="M61.7851 186.37L63.5935 186.008L69.7516 192.166M69.7516 192.166L69.2035 192.702C67.2291 194.633 64.0592 194.583 62.1468 192.591V192.591L62.4361 190.638C61.6839 191.101 60.9654 190.831 60.7001 190.638L50.3564 180.511C50.7555 179.946 51.1404 179.475 51.5138 179.087M69.7516 192.166L75.3839 186.659L71.3332 182.247C72.1288 181.162 73.0402 178.211 70.3205 175.086C68.8015 176.822 64.9244 180.207 61.5681 179.86C57.7585 179.466 55.2014 175.255 51.5138 179.087M51.5138 179.087L55.8538 183.427M64.3168 179.498L65.1125 181.885M65.9805 178.703L66.7762 181.09M67.5718 177.69L68.3675 180.077" stroke="#4D545C" stroke-width="0.5"/>
<path d="M147.926 167.862L146.586 182.275C145.896 182.322 145.288 182.32 144.751 182.274C139.451 181.828 141.108 177.188 139.012 173.983C137.166 171.159 132.094 170.283 129.789 170.199C130.5 166.117 133.365 164.964 134.709 164.898L135.58 158.972L143.406 159.872L144.167 159.959C146.911 160.275 148.87 162.767 148.53 165.507L146.831 166.514C147.665 166.806 147.908 167.534 147.926 167.862Z" fill="white"/>
<path d="M143.929 169.71L142.508 168.534L143.406 159.872M143.406 159.872L144.167 159.959C146.911 160.275 148.87 162.767 148.53 165.507V165.507L146.831 166.514C147.665 166.806 147.908 167.534 147.926 167.862L146.586 182.275C145.896 182.322 145.288 182.32 144.751 182.274M143.406 159.872L135.58 158.972L134.709 164.898C133.365 164.964 130.5 166.117 129.789 170.199C132.094 170.283 137.166 171.159 139.012 173.983C141.108 177.188 139.451 181.828 144.751 182.274M144.751 182.274L145.384 176.169M136.999 172.077L138.35 169.955M135.332 171.287L136.684 169.165M133.543 170.69L134.894 168.568" stroke="#4D545C" stroke-width="0.5"/>
<path d="M122.617 130.894L102.942 135.885L103.593 141.093L124.498 138.923L127.102 124.962L120.881 119.465L122.617 130.894Z" fill="white" stroke="#4D545C" stroke-width="0.5"/>
<path d="M78.7835 156.717C78.8993 152.203 86.1616 145.192 89.7782 142.25H100.339L127.247 154.619L123.63 177.693C108.633 172.582 78.6678 161.23 78.7835 156.717Z" fill="white" stroke="#4D545C" stroke-width="0.5"/>
<path d="M143.45 157.943C149.005 156.381 149.911 143.356 149.67 137.039L96.5051 141.307L71.2607 170.674L85.5828 183.55L90.2845 175.448L86.7401 184.345L91.1525 187.239L108.296 157.148L143.45 157.943Z" fill="white" stroke="#4D545C" stroke-width="0.5"/>
<path d="M129.326 82.4327L129.345 82.4286C130.281 80.862 133.861 78.6109 138.011 80.2711C143.321 82.8956 146.343 89.5896 146.922 97.257C146.97 101.067 145.794 108.512 140.701 107.818L136.94 100.44L133.323 103.188L130.358 104.273C126.085 101.161 125.967 89.0894 126.018 88.7216C126.81 82.9566 127.603 82.7914 129.326 82.4327Z" fill="white"/>
<path d="M140.701 107.818L136.94 100.44L133.323 103.188L130.358 104.273C126.085 101.161 125.967 89.0894 126.018 88.7216C126.813 82.9349 127.609 82.7903 129.345 82.4286C130.281 80.862 133.861 78.6109 138.011 80.2711C143.321 82.8956 146.343 89.5896 146.922 97.257C146.97 101.067 145.794 108.512 140.701 107.818ZM140.701 107.818L152.202 121.706" stroke="#4D545C" stroke-width="0.5"/>
<path d="M132.251 98.4773C128.765 97.3118 127.607 92.4475 127.464 90.1611C127.525 89.3517 128.213 87.3809 130.471 85.9727C132.271 87.0248 137.591 91.6786 137.591 91.6786C137.795 91.0312 138.597 89.8212 140.168 90.1611C142.132 90.586 141.135 93.7425 140.168 93.7425C140.168 93.7425 140.05 100.729 140.556 101.597C141.063 102.465 142.509 103.631 142.509 103.631C141.241 106.403 136.783 113.696 133.395 114.327C132.025 113.457 128.709 108.827 129.2 103.631C129.2 103.631 131.515 103.631 132.435 103.024C133.356 102.417 132.251 98.4773 132.251 98.4773Z" fill="white"/>
<path d="M132.251 98.4773C128.765 97.3118 127.607 92.4475 127.464 90.1611C127.525 89.3517 128.213 87.3809 130.471 85.9727C132.271 87.0248 137.591 91.6786 137.591 91.6786C137.795 91.0312 138.597 89.8212 140.168 90.1611C142.132 90.586 141.135 93.7425 140.168 93.7425C140.168 93.7425 140.05 100.729 140.556 101.597C141.063 102.465 142.509 103.631 142.509 103.631C141.241 106.403 136.783 113.696 133.395 114.327C132.025 113.457 128.709 108.827 129.2 103.631C129.2 103.631 131.515 103.631 132.435 103.024C133.356 102.417 132.251 98.4773 132.251 98.4773ZM132.251 98.4773C133.151 98.4773 135.393 98.0645 137.161 96.4134" stroke="#4D545C" stroke-width="0.5"/>
<path d="M141.295 95.6827L138.15 94.5202L140.097 91.7773L141.295 95.6827Z" fill="white" stroke="#4D545C" stroke-width="0.5" stroke-linecap="round" stroke-linejoin="round"/>
<path d="M128.766 89.936C129.094 89.8776 129.842 89.8134 130.212 90.0236" stroke="#4D545C" stroke-width="0.5"/>
<path d="M134.275 89.4215C133.921 89.4128 133.132 89.4868 132.81 89.8527" stroke="#4D545C" stroke-width="0.5"/>
<path d="M123.558 132.41L126.017 130.746L142.943 135.231L125.438 139.715L122.4 137.256L123.558 132.41Z" fill="white" stroke="#4D545C" stroke-width="0.5"/>
<path d="M131.151 92.4844C131.065 92.8395 130.902 93.5733 130.943 93.668C130.985 93.7627 131.342 93.7864 131.515 93.7864" stroke="#4D545C" stroke-width="0.5"/>
<path d="M135.121 134.653L121.522 132.483L122.752 124.671L121.884 123.586C119.627 122.313 120.22 117.317 120.799 114.978C120.365 112.977 119.569 108.598 119.859 107.094C120.148 105.589 126.393 103.959 129.479 103.332C129.826 109.293 132.18 112.567 133.313 113.459C135.859 112.302 140.257 106.033 142.137 103.043C145.489 104.2 152.394 106.79 153.204 107.889C154.015 108.989 157.207 118.281 158.702 122.79L149.66 125.9V131.181L135.121 134.653Z" fill="white"/>
<path d="M135.121 134.653L121.522 132.483L122.752 124.671L121.884 123.586C119.627 122.313 120.22 117.317 120.799 114.978C120.365 112.977 119.569 108.598 119.859 107.094C120.148 105.589 126.393 103.959 129.479 103.332C129.826 109.293 132.18 112.567 133.313 113.459C135.859 112.302 140.257 106.033 142.137 103.043C145.489 104.2 152.394 106.79 153.204 107.889C154.015 108.989 157.207 118.281 158.702 122.79L149.66 125.9V131.181L135.121 134.653Z" stroke="#4D545C" stroke-width="0.5"/>
<path d="M158.278 122.934L152.419 124.597L148.296 125.61L149.634 131.107C148.404 131.614 126.198 136.532 125.258 136.749C124.505 136.923 120.411 136.677 118.458 136.532C117.397 137.207 115.247 138.616 115.131 138.847C114.986 139.136 114.986 139.209 115.131 139.281C115.247 139.339 116.529 139.016 117.156 138.847C116.771 139.064 115.927 139.556 115.637 139.787C115.276 140.077 115.203 140.655 115.42 140.655C115.594 140.655 117.132 140.221 117.88 140.004C117.373 140.535 116.332 141.697 116.216 142.102C116.071 142.608 116.505 142.464 117.156 142.102C117.677 141.813 119.302 141.21 120.05 140.945C120.749 141.258 122.321 141.957 123.015 142.247C123.71 142.536 126.198 141.74 127.355 141.306C149.46 140.091 158.7 137.376 160.556 136.171C161.019 133.277 159.194 126.164 158.278 122.934Z" fill="white" stroke="#4D545C" stroke-width="0.5"/>
<path d="M149.742 131.18C150.562 131.132 152.679 131.267 154.589 132.193" stroke="#4D545C" stroke-width="0.5"/>
<path d="M102.075 122.355L106.704 142.103H125.366V143.839H105.981H84.0641L79.29 122.355H100.918H102.075Z" fill="white"/>
<path d="M105.981 143.839H125.366V142.103H106.704L102.075 122.355H100.918M105.981 143.839H84.0641L79.29 122.355H100.918M105.981 143.839L100.918 122.355" stroke="#4D545C" stroke-width="0.5"/>
<ellipse cx="129.748" cy="91.3603" rx="0.388933" ry="0.426228" transform="rotate(-13.3244 129.748 91.3603)" fill="#4D545C"/>
<ellipse cx="133.488" cy="91.0634" rx="0.388933" ry="0.426228" transform="rotate(-13.3244 133.488 91.0634)" fill="#4D545C"/>
<path d="M131.226 95.0228C131.603 95.2136 133.186 96.6018 133.251 94.5078C132.913 94.6413 132.036 94.9313 131.226 95.0228Z" fill="#4D545C"/>
<path d="M148.296 125.612L146.198 116.57" stroke="#4D545C" stroke-width="0.5"/>
<path d="M120.81 114.98C121.147 113.581 121.88 110.538 122.112 109.555" stroke="#4D545C" stroke-width="0.5"/>
<path d="M132.962 126.117C133.926 127.347 137.418 129.806 143.667 129.806" stroke="#4D545C" stroke-width="0.5"/>
<path d="M117.844 140.007L119.363 138.922" stroke="#4D545C" stroke-width="0.5"/>
<g style="mix-blend-mode:multiply">
<path d="M128.404 105.069C127.941 103.738 122.81 106.492 120.303 108.035L120.809 114.328C120.64 116.161 120.404 120.129 120.809 121.344C121.214 122.56 122.521 123.828 123.124 124.31L122.256 131.688L135.782 134.292L149.164 131.109L147.789 125.54L157.989 122.357C156.132 118.017 152.375 109.077 152.202 108.035C152.028 106.993 145.137 104.901 141.713 103.984C139.254 107.48 134.133 114.531 133.323 114.762C132.31 115.051 128.983 106.733 128.404 105.069Z" fill="#F6E6F7"/>
</g>
<path d="M93.6272 132.549C93.8488 133.487 93.4024 134.296 92.7612 134.448C92.12 134.6 91.3586 134.076 91.137 133.138C90.9153 132.2 91.3618 131.391 92.0029 131.239C92.6441 131.088 93.4056 131.612 93.6272 132.549Z" stroke="#4D545C" stroke-width="0.5"/>
<path d="M117.048 138.849L118.929 137.836" stroke="#4D545C" stroke-width="0.5"/>
<path d="M71.6984 74.4321C71.9772 74.5342 68.8698 78.8939 64.8953 81.1708C64.8953 81.1708 46.6123 98.0582 43.2675 96.8227C39.9227 95.5873 24.8814 63.1296 33.1299 61.6389C33.1299 61.6389 35.2772 60.1074 36.7844 62.0371C38.2916 63.9668 42.803 66.3968 49.8436 82.4572L61.1994 76.6375C61.1994 76.6375 63.5532 71.073 63.9455 71.9715C64.3378 72.87 63.419 75.3408 63.419 75.3408C63.419 75.3408 69.3137 70.9403 70.0983 71.3283C70.8829 71.7162 71.6984 74.4321 71.6984 74.4321Z" fill="white" stroke="#4D545C" stroke-width="0.5" stroke-linecap="round" stroke-linejoin="round"/>
<path d="M46.292 76.6569C43.7073 71.3877 40.4664 66.4745 36.648 62.0371C35.1737 60.1075 33.0732 61.6389 33.0732 61.6389C27.6706 62.6598 32.4976 77.5349 37.2539 87.6422C40.0655 83.816 43.0828 80.1487 46.292 76.6569Z" fill="white" stroke="#4D545C" stroke-width="0.5" stroke-linecap="round" stroke-linejoin="round"/>
<path d="M42.3841 64.0527C42.3841 64.0527 36.2492 56.1197 30.0154 59.9298C23.7815 63.7398 31.4451 80.9305 34.8584 84.7509L48.6035 77.0684L42.3841 64.0527Z" fill="white" stroke="#4D545C" stroke-width="0.5" stroke-linecap="round" stroke-linejoin="round"/>
<path d="M35.0569 84.1726C32.7763 83.7415 29.0455 69.514 30.4012 66.9991C30.4012 66.9991 37.4215 62.9546 37.8734 63.4063C42.424 68.0051 35.0569 84.1726 35.0569 84.1726Z" fill="white" stroke="#4D545C" stroke-width="0.5" stroke-linecap="round" stroke-linejoin="round"/>
<path d="M43.0835 189.084L42.9585 182.402L36.4684 182.898L36.6351 189.311L39.6666 194.537L45.1357 190.364L43.0835 189.084Z" fill="white" stroke="#4D545C" stroke-width="0.5" stroke-linecap="round" stroke-linejoin="round"/>
<path d="M44.1948 188.419C42.9952 189.793 41.6838 191.055 40.2756 192.192C38.9622 193.227 37.0027 188.779 36.3981 188.223C36.273 188.114 36.1062 188.223 36.0854 188.419L35.3141 195.691H54.5453C54.6079 195.688 54.669 195.67 54.7246 195.64C54.7801 195.61 54.8288 195.567 54.8674 195.516C54.9059 195.464 54.9334 195.404 54.948 195.341C54.9625 195.277 54.9639 195.211 54.9518 195.146C53.9303 189.738 44.1948 188.419 44.1948 188.419Z" fill="white" stroke="#4D545C" stroke-width="0.5" stroke-linecap="round" stroke-linejoin="round"/>
<path d="M46.4486 194.661C46.4486 194.661 47.2083 190.771 49.7725 190.098M54.7529 194.81H35.4573" stroke="#4D545C" stroke-width="0.5" stroke-linecap="round" stroke-linejoin="round"/>
<path d="M35.9044 190.688L40.0273 194.81" stroke="#4D545C" stroke-width="0.5" stroke-linecap="round" stroke-linejoin="round"/>
<path d="M13.048 189.834L15.0898 183.235L7.95391 182.98L6.42254 189.961L9.07058 194.537L14.6432 190.258L13.048 189.834Z" fill="white" stroke="#4D545C" stroke-width="0.5" stroke-linecap="round" stroke-linejoin="round"/>
<path d="M13.3084 188.986C12.147 190.363 10.874 191.626 9.50442 192.759C8.22969 193.849 6.3277 189.357 5.7308 188.801C5.61952 188.692 5.44754 188.801 5.42731 188.997L4.68876 196.269H23.3544C23.4156 196.265 23.4751 196.246 23.5291 196.214C23.583 196.183 23.6301 196.139 23.6674 196.087C23.7046 196.034 23.7312 195.974 23.7452 195.909C23.7593 195.845 23.7606 195.778 23.749 195.713C22.7373 190.317 13.3084 188.986 13.3084 188.986Z" fill="white" stroke="#4D545C" stroke-width="0.5" stroke-linecap="round" stroke-linejoin="round"/>
<path d="M15.8677 194.989C15.8677 194.989 16.9749 191.558 19.4142 190.98M23.5371 195.116H4.98405" stroke="#4D545C" stroke-width="0.5" stroke-linecap="round" stroke-linejoin="round"/>
<path d="M5.26678 191.07L9.31152 195.115" stroke="#4D545C" stroke-width="0.5" stroke-linecap="round" stroke-linejoin="round"/>
<path d="M43.0644 106.133C43.0644 106.133 45.4837 135.326 45.6981 143.421C45.9125 151.517 43.8708 182.983 43.8708 182.983H35.7756C35.7756 182.983 27.2108 127.323 17.4007 107.892L43.0644 106.133Z" fill="white" stroke="#4D545C" stroke-width="0.5" stroke-linecap="round" stroke-linejoin="round"/>
<path d="M34.4987 183.616L44.1692 183.42L44.7393 177.727H33.5485L34.4987 183.616Z" fill="white" stroke="#4D545C" stroke-width="0.5" stroke-linecap="round" stroke-linejoin="round"/>
<path d="M43.4023 106.133C43.4023 106.133 37.6818 130.468 31.8778 147.675C27.1889 161.591 14.7578 183.561 14.7578 183.561L6.42184 183.201L15.258 148.087C15.8036 146.011 16.1524 143.89 16.3 141.751C16.821 133.667 15.1329 117.334 14.4348 106.863L43.4023 106.133Z" fill="white" stroke="#4D545C" stroke-width="0.5" stroke-linecap="round" stroke-linejoin="round"/>
<path d="M5.86762 183.616L15.2914 184.205L18.2363 178.299L6.6185 177.727L5.86762 183.616Z" fill="white" stroke="#4D545C" stroke-width="0.5" stroke-linecap="round" stroke-linejoin="round"/>
<path d="M21.1885 54.9702C21.1885 54.9702 8.4612 56.2661 7.65997 66.8291C6.85873 77.392 12.149 121.156 12.149 121.156L46.8691 118.934L43.5923 69.3181C43.4675 66.6354 42.6423 64.0323 41.1989 61.7687C39.8635 59.7117 38.3021 57.3358 37.4187 57.2226L23.1402 53.5508L21.1885 54.9702Z" fill="white" stroke="#4D545C" stroke-width="0.5" stroke-linecap="round" stroke-linejoin="round"/>
<g style="mix-blend-mode:multiply">
<path d="M45.623 118.34L44.1506 96.5476L36.7883 95.9587L21.4746 105.382C17.2339 104.204 14.0141 94.8788 12.9343 90.3633L9.10591 92.4247L12.0508 120.696L45.623 118.34Z" fill="#FDE8EC"/>
</g>
<path d="M25.1874 46.0752L21.4455 56.005L24.2675 57.3927C28.5468 58.9552 32.4024 57.9684 33.002 56.2106L32.4334 50.2794L26.4382 44.8828C26.0598 45.1399 25.7129 45.4401 25.4045 45.7771C25.3475 45.8867 25.2744 45.9872 25.1874 46.0752Z" fill="white" stroke="#4D545C" stroke-width="0.5" stroke-linecap="round" stroke-linejoin="round"/>
<path d="M36.5482 95.478L48.175 74.308C48.4752 73.7499 48.8909 73.2628 49.394 72.8795C49.8972 72.4962 50.4761 72.2257 51.092 72.0861L77.4161 70.3168C77.5204 70.2943 77.629 70.3032 77.7282 70.3425C77.8275 70.3817 77.913 70.4494 77.9742 70.5372C78.0354 70.6251 78.0694 70.7291 78.0721 70.8362C78.0748 70.9434 78.046 71.0489 77.9893 71.1397L66.823 91.209C66.5312 91.7388 66.1346 92.2028 65.6576 92.5725C65.1806 92.9423 64.6332 93.2099 64.0493 93.359L37.1418 96.2907C37.0375 96.3166 36.9279 96.3108 36.8269 96.274C36.7258 96.2372 36.638 96.1711 36.5744 96.0841C36.5108 95.997 36.4743 95.8929 36.4697 95.785C36.465 95.6771 36.4924 95.5703 36.5482 95.478Z" fill="white" stroke="#4D545C" stroke-width="0.5" stroke-linecap="round" stroke-linejoin="round"/>
<path d="M37.7008 97.2035L48.3571 76.8901C49.2262 75.6406 50.5274 74.752 52.0131 74.3935L80.2951 72.6293C80.4009 72.6068 80.5111 72.6157 80.6118 72.6551C80.7125 72.6944 80.7994 72.7623 80.8614 72.8504C80.9235 72.9385 80.958 73.0428 80.9608 73.1502C80.9635 73.2577 80.9342 73.3636 80.8767 73.4547L69.5452 93.5824C69.2491 94.1136 68.8467 94.579 68.3626 94.9498C67.8785 95.3207 67.3231 95.5891 66.7305 95.7385L38.3032 98.0288C38.1969 98.0515 38.0862 98.0431 37.9846 98.0044C37.8831 97.9658 37.795 97.8986 37.7312 97.8112C37.6673 97.7237 37.6305 97.6197 37.6251 97.5118C37.6197 97.4039 37.646 97.2968 37.7008 97.2035Z" fill="white" stroke="#4D545C" stroke-width="0.5" stroke-linecap="round" stroke-linejoin="round"/>
<path d="M43.9778 82.4414L49.1807 84.0988L42.2468 85.3305L43.9778 82.4414Z" fill="white" stroke="#4D545C" stroke-width="0.5" stroke-linecap="round" stroke-linejoin="round"/>
<path d="M43.5368 90.3774C42.6363 90.9224 32.2086 99.9608 23.8173 104.125C21.5046 105.267 18.4858 102.603 17.6773 100.187L9.88979 79.6219L22.5586 73.1953C22.6098 73.3393 24.8406 86.141 26.6519 90.5522C27.2966 92.1357 26.8975 91.9095 28.3711 91.3646L39.8017 85.5035C40.293 85.0571 40.7293 84.5531 41.1013 84.0023C41.9356 82.9821 42.9613 82.1366 44.1201 81.5139L42.7284 84.0331C42.4828 84.4547 42.7284 84.5472 43.6187 84.177L49.2982 81.7812C49.2982 81.7812 50.5876 81.5036 49.9122 82.028C49.2368 82.5524 46.9854 83.9611 46.9036 84.0125C45.4607 84.7837 50.6285 82.3262 50.6183 82.8198C50.608 83.3133 47.6097 85.01 47.6608 85.0717C47.712 85.1333 50.9048 83.6424 50.915 84.1051C50.9252 84.5678 48.0804 85.9662 47.9883 85.9765C47.8962 85.9868 50.2601 84.7015 50.2806 84.9482C50.301 85.195 44.0792 90.0689 43.5368 90.3774Z" fill="white" stroke="#4D545C" stroke-width="0.5" stroke-linecap="round" stroke-linejoin="round"/>
<path d="M21.5297 64.0472C21.5297 64.0472 20.4031 55.7666 13.1844 57.1774C3.24301 59.1198 6.45596 87.9077 9.13689 92.2627L28.957 82.9393L21.5297 64.0472Z" fill="white"/>
<path d="M21.5297 64.0472C21.5297 64.0472 20.4031 55.7666 13.1844 57.1774C3.24302 59.1198 6.45596 87.9077 9.13689 92.2627L28.957 82.9393L21.5297 64.0472Z" stroke="#4D545C" stroke-width="0.5" stroke-linecap="round" stroke-linejoin="round"/>
<path d="M36.6363 35.763C36.7409 37.7197 35.0775 36.9536 35.0775 36.9536C31.7368 39.2107 28.5368 41.6653 25.4949 44.304C25.4949 44.304 23.5386 43.952 23.5177 43.4654C23.4235 39.7488 23.6537 35.2557 23.6537 35.2557C23.3048 35.0231 23.0242 34.7034 22.8405 34.3288C22.6567 33.9543 22.5764 33.5383 22.6076 33.1231C22.6076 33.1231 23.0051 31.5495 24.3651 31.7772C24.2867 31.5215 24.2825 31.2491 24.3527 30.9911C24.423 30.733 24.565 30.4997 24.7626 30.3175C24.9655 30.1722 25.2144 30.1038 25.4639 30.1247C25.7135 30.1456 25.9472 30.2544 26.1226 30.4314C26.1578 29.9022 26.3639 29.3983 26.7105 28.9938C27.057 28.5893 27.5257 28.3057 28.0475 28.1849C28.5747 28.0642 29.1278 28.1271 29.6137 28.3628C30.0996 28.5985 30.4886 28.9927 30.7151 29.4789C30.7151 29.4789 31.0604 28.5265 31.6253 28.5782C32.1902 28.63 32.4204 29.5307 32.4204 29.5307C32.4385 29.3237 32.5026 29.1232 32.6083 28.9436C32.714 28.764 32.8585 28.6098 33.0315 28.4921C33.2045 28.3743 33.4017 28.2959 33.6089 28.2625C33.8162 28.229 34.0283 28.2414 34.2302 28.2987C35.9354 28.5265 36.04 30.4831 36.04 30.4831C36.0578 30.3914 36.095 30.3045 36.1491 30.228C36.2032 30.1515 36.2731 30.0872 36.3541 30.0393C36.4351 29.9914 36.5254 29.961 36.6191 29.9501C36.7128 29.9391 36.8078 29.9479 36.8978 29.9759C37.944 30.1519 38.4775 31.3838 37.5151 32.564C37.7505 32.7483 37.936 32.9877 38.0547 33.2606C38.1734 33.5335 38.2216 33.8313 38.195 34.1273C38.1637 35.1936 36.6363 35.763 36.6363 35.763Z" fill="white"/>
<path d="M36.6363 35.763C36.7409 37.7197 35.0775 36.9536 35.0775 36.9536C31.7368 39.2107 28.5368 41.6653 25.4949 44.304C25.4949 44.304 23.5386 43.952 23.5177 43.4654C23.4235 39.7488 23.6537 35.2557 23.6537 35.2557C23.3048 35.0231 23.0242 34.7034 22.8405 34.3288C22.6567 33.9543 22.5764 33.5383 22.6076 33.1231C22.6076 33.1231 23.0051 31.5495 24.3651 31.7772C24.2867 31.5215 24.2825 31.2491 24.3527 30.9911C24.423 30.733 24.565 30.4997 24.7626 30.3175C24.9655 30.1722 25.2144 30.1038 25.4639 30.1247C25.7135 30.1456 25.9472 30.2544 26.1226 30.4314C26.1578 29.9022 26.3639 29.3983 26.7105 28.9938C27.057 28.5893 27.5257 28.3057 28.0475 28.1849C28.5747 28.0642 29.1278 28.1271 29.6137 28.3628C30.0996 28.5985 30.4886 28.9927 30.7151 29.4789C30.7151 29.4789 31.0604 28.5265 31.6253 28.5782C32.1902 28.63 32.4204 29.5307 32.4204 29.5307C32.4385 29.3237 32.5026 29.1232 32.6083 28.9436C32.714 28.764 32.8585 28.6098 33.0315 28.4921C33.2045 28.3743 33.4017 28.2959 33.6089 28.2625C33.8162 28.229 34.0283 28.2414 34.2302 28.2987C35.9354 28.5265 36.04 30.4831 36.04 30.4831C36.0578 30.3914 36.095 30.3045 36.1491 30.228C36.2032 30.1515 36.2731 30.0872 36.3541 30.0393C36.4351 29.9914 36.5254 29.961 36.6191 29.9501C36.7128 29.9391 36.8078 29.9479 36.8978 29.9759C37.944 30.1519 38.4775 31.3838 37.5151 32.564C37.7505 32.7483 37.936 32.9877 38.0547 33.2606C38.1734 33.5335 38.2216 33.8313 38.195 34.1273C38.1637 35.1936 36.6363 35.763 36.6363 35.763Z" stroke="#4D545C" stroke-width="0.5" stroke-linecap="round" stroke-linejoin="round"/>
<g style="mix-blend-mode:multiply">
<path d="M19.4135 57.084C23.8898 59.6756 30.506 58.7528 33.2546 57.9675C34.3345 57.9675 36.8475 58.262 38.261 59.44C39.6746 60.6179 44.3472 70.5325 46.5068 75.3426L42.9729 78.582V80.938L39.439 84.7664L26.7758 90.9507L24.4199 83.8829L9.10622 90.9507C5.33671 79.4066 6.55395 68.6674 7.63375 64.7409C7.63375 62.9739 13.8181 53.8446 19.4135 57.084Z" fill="#FDE8EC"/>
</g>
<path d="M25.49 42.3807C25.4738 42.4237 25.4472 42.462 25.4124 42.4922C25.3777 42.5224 25.336 42.5435 25.291 42.5537C25.246 42.5638 25.1992 42.5627 25.1547 42.5504C25.1103 42.5381 25.0696 42.5151 25.0364 42.4833C24.5518 42.0115 23.5828 41.3552 23.2322 43.2524C22.7683 45.8162 25.4591 45.3752 25.6756 45.7239C26.1086 46.4212 27.5107 48.8004 29.5932 49.6926C30.3304 50.037 31.1537 50.1565 31.9591 50.036C32.7646 49.9156 33.5161 49.5606 34.119 49.0157C35.5107 47.6928 36.2736 49.2516 35.6963 35.0996C35.585 35.4386 35.3446 35.7208 35.0266 35.8857C34.7087 36.0506 34.3384 36.085 33.9953 35.9815C33.0571 35.7867 32.3045 34.956 31.2736 34.7099C30.8621 34.5423 30.4192 34.4649 29.975 34.483C29.5308 34.5012 29.0957 34.6143 28.6995 34.8148C28.3032 35.0153 27.955 35.2984 27.6787 35.6449C27.4024 35.9914 27.2044 36.393 27.0983 36.8224C26.6446 38.1966 25.9127 41.3552 25.49 42.3807Z" fill="white" stroke="#4D545C" stroke-width="0.5" stroke-linecap="round" stroke-linejoin="round"/>
<path d="M35.3135 44.8828C34.3853 45.2581 33.3911 45.3502 32.4244 45.1503C32.4244 45.1503 33.5324 46.913 34.3401 46.5726C35.1478 46.2322 35.3135 44.8828 35.3135 44.8828Z" fill="#4D545C"/>
<path d="M33.5801 41.4085C33.5801 41.7265 33.4492 41.9916 33.2966 41.9916C33.144 41.9916 33.0023 41.7265 33.0023 41.4085C33.0023 41.0904 33.1331 40.8359 33.2966 40.8359C33.4601 40.8359 33.5801 41.0904 33.5801 41.4085Z" fill="#4D545C"/>
<path d="M35.3135 41.4085C35.3135 41.7371 35.1827 41.9916 35.0191 41.9916C34.8556 41.9916 34.7357 41.7371 34.7357 41.4085C34.7357 41.0798 34.8665 40.8359 35.0191 40.8359C35.1718 40.8359 35.3135 41.0904 35.3135 41.4085Z" fill="#4D545C"/>
<path d="M34.2965 42.5724L35.0246 44.169V44.242L34.1578 44.3059M33.8689 39.3944C33.4837 39.2981 32.6555 39.1055 32.4244 39.1055M34.7357 39.3944L35.3135 39.1055" stroke="#4D545C" stroke-width="0.5" stroke-linecap="round" stroke-linejoin="round"/>
</svg>
