<svg width="60" height="60" viewBox="0 0 60 60" fill="none" xmlns="http://www.w3.org/2000/svg">
<path d="M60 30C60 37.7913 59.3296 45.2661 58.1084 52.1551C57.5693 55.1965 55.1965 57.5693 52.1551 58.1084C45.2661 59.3296 37.7913 60 30 60C22.2087 60 14.7339 59.3296 7.84494 58.1084C4.80346 57.5693 2.43074 55.1965 1.89159 52.1551C0.670412 45.2661 0 37.7913 0 30C0 22.2062 0.670829 14.7479 1.89273 7.84952C2.43186 4.80582 4.80544 2.43028 7.84909 1.89086C14.7369 0.670144 22.2102 0 30 0C37.7898 0 45.2631 0.670144 52.1509 1.89086C55.1946 2.43028 57.5681 4.80581 58.1073 7.84951C59.3292 14.7479 60 22.2062 60 30Z" fill="white"/>
<path d="M19 23L19 37.0002C19 39.2094 20.7909 41.0002 23 41.0002L37 41.0002C39.2091 41.0002 41 39.2094 41 37.0002L41 23C41 20.7908 39.2091 19 37 19L23 19C20.7909 19 19 20.7908 19 23Z" stroke="#10295E" stroke-width="1.5"/>
<path d="M34.6315 30C34.6315 32.558 32.5578 34.6317 29.9999 34.6317C27.4419 34.6317 25.3682 32.558 25.3682 30C25.3682 27.4421 27.4419 25.3684 29.9999 25.3684C30.7522 25.3684 31.4627 25.5478 32.0909 25.8662" stroke="#10295E" stroke-width="1.5" stroke-linecap="round"/>
<path d="M27.684 29.4211L29.6463 31.3834C29.8416 31.5787 30.1581 31.5787 30.3534 31.3834L35.2104 26.5264" stroke="#10295E" stroke-width="1.5" stroke-linecap="round"/>
</svg>
