<svg width="16" height="16" viewBox="0 0 16 16" fill="none" xmlns="http://www.w3.org/2000/svg">
<path fill-rule="evenodd" clip-rule="evenodd" d="M2 0C0.895431 0 0 0.895431 0 2V14C0 15.1046 0.895431 16 2 16H14C15.1046 16 16 15.1046 16 14V2C16 0.895431 15.1046 0 14 0H2ZM13.1585 6.0321C13.5451 5.63773 13.5389 5.0046 13.1445 4.61796C12.7501 4.23132 12.117 4.23759 11.7303 4.63196L7.20862 9.24411L4.81166 6.84715C4.42113 6.45662 3.78797 6.45662 3.39744 6.84715C3.00692 7.23767 3.00692 7.87084 3.39744 8.26136L6.50855 11.3725C6.6973 11.5612 6.95368 11.6667 7.22061 11.6654C7.48754 11.664 7.74286 11.556 7.92973 11.3654L13.1585 6.0321Z" fill="#0067DD"/>
</svg>
