<?xml version="1.0" encoding="utf-8"?>
<!-- Generator: Adobe Illustrator 27.2.0, SVG Export Plug-In . SVG Version: 6.00 Build 0)  -->
<svg version="1.1" id="Layer_1" xmlns="http://www.w3.org/2000/svg" xmlns:xlink="http://www.w3.org/1999/xlink" x="0px" y="0px"
	 viewBox="0 0 16 16" style="enable-background:new 0 0 16 16;" xml:space="preserve">
<style type="text/css">
	.st0{clip-path:url(#SVGID_00000000189587860804127110000006685872186993944506_);}
	.st1{fill:#FFFFFF;}
	.st2{fill:#86BEFF;}
	.st3{fill-rule:evenodd;clip-rule:evenodd;fill:#0067DD;}
</style>
<g>
	<defs>
		<rect id="SVGID_1_" width="16" height="16"/>
	</defs>
	<clipPath id="SVGID_00000006687189030833160860000013464121835060685496_">
		<use xlink:href="#SVGID_1_"  style="overflow:visible;"/>
	</clipPath>
	<g style="clip-path:url(#SVGID_00000006687189030833160860000013464121835060685496_);">
		<rect class="st1" width="16" height="16"/>
		<path class="st2" d="M0.5,4v6.7c0,1.1,0.9,2.5,2,2.5h3.8L8,15l1.7-1.8h3.8c1.1,0,2-1.4,2-2.5V4c0-1.1-0.9-2-2-2h-11
			C1.4,2,0.5,2.9,0.5,4z"/>
		<path class="st3" d="M2.5,1C1.7,1,1,1.7,1,2.5v8.8c0,0.8,0.7,1.5,1.5,1.5h3.4c0.1,0,0.3,0.1,0.4,0.1L8,14.8L9.8,13
			c0.1-0.1,0.2-0.1,0.4-0.1h3.4c0.8,0,1.5-0.7,1.5-1.5V2.5C15,1.7,14.3,1,13.5,1H2.5z M0,2.5C0,1.1,1.1,0,2.5,0h11
			C14.9,0,16,1.1,16,2.5v8.8c0,1.4-1.1,2.5-2.5,2.5h-3.1l-2,2C8.3,15.9,8.1,16,8,16c-0.1,0-0.3-0.1-0.4-0.1l-2-2H2.5
			c-1.4,0-2.5-1.1-2.5-2.5V2.5z"/>
	</g>
</g>
</svg>
