<svg width="57" height="37" viewBox="0 0 57 37" fill="none" xmlns="http://www.w3.org/2000/svg">
<path d="M53 0H4C1.79086 0 0 1.79086 0 4V33C0 35.2091 1.79086 37 4 37H53C55.2091 37 57 35.2091 57 33V4C57 1.79086 55.2091 0 53 0Z" fill="#ACB6F2"/>
<path opacity="0.1" d="M14.328 12.7578H1.6582V13.3507H14.328V12.7578Z" fill="white"/>
<path opacity="0.1" d="M4.00398 9.61719H2.78418V12.7529H4.00398V9.61719Z" fill="white"/>
<path opacity="0.1" d="M5.79207 9.61719H4.57227V12.7529H5.79207V9.61719Z" fill="white"/>
<path opacity="0.1" d="M7.57235 9.61719H6.35254V12.7529H7.57235V9.61719Z" fill="white"/>
<path opacity="0.1" d="M9.35213 9.61719H8.13232V12.7529H9.35213V9.61719Z" fill="white"/>
<path opacity="0.1" d="M11.1378 9.61719H9.91797V12.7529H11.1378V9.61719Z" fill="white"/>
<path opacity="0.1" d="M12.9278 9.61719H11.708V12.7529H12.9278V9.61719Z" fill="white"/>
<path opacity="0.1" d="M4.00398 10.207H2.78418V10.547H4.00398V10.207Z" fill="white"/>
<path opacity="0.1" d="M5.79207 10.207H4.57227V10.547H5.79207V10.207Z" fill="white"/>
<path opacity="0.1" d="M7.57329 10.207H6.35352V10.547H7.57329V10.207Z" fill="white"/>
<path opacity="0.1" d="M9.35213 10.207H8.13232V10.547H9.35213V10.207Z" fill="white"/>
<path opacity="0.1" d="M11.1378 10.207H9.91797V10.547H11.1378V10.207Z" fill="white"/>
<path opacity="0.1" d="M12.9278 10.207H11.708V10.547H12.9278V10.207Z" fill="white"/>
<path opacity="0.1" d="M4.00398 11.7383H2.78418V12.0777H4.00398V11.7383Z" fill="white"/>
<path opacity="0.1" d="M5.79207 11.7383H4.57227V12.0777H5.79207V11.7383Z" fill="white"/>
<path opacity="0.1" d="M7.57329 11.7383H6.35352V12.0777H7.57329V11.7383Z" fill="white"/>
<path opacity="0.1" d="M9.35213 11.7383H8.13232V12.0777H9.35213V11.7383Z" fill="white"/>
<path opacity="0.1" d="M11.1378 11.7383H9.91797V12.0777H11.1378V11.7383Z" fill="white"/>
<path opacity="0.1" d="M12.9278 11.7383H11.708V12.0777H12.9278V11.7383Z" fill="white"/>
<path d="M51.7266 33.9776H51.898V33.7227L45.4043 33.7316C45.1892 33.7316 44.994 33.8184 44.8528 33.9587C44.7117 34.099 44.6255 34.2928 44.6255 34.5066C44.6267 34.9341 44.975 35.2804 45.4065 35.2804L51.9002 35.2715V35.051H51.7287L51.7266 33.9776Z" fill="#545586"/>
<path d="M51.7697 33.9766L51.7709 35.05L45.8129 35.0578C45.5214 35.0578 45.2861 34.8184 45.2861 34.5222C45.2861 34.3741 45.3445 34.2394 45.4395 34.1425C45.5349 34.0456 45.6659 33.9855 45.8117 33.9844L51.7697 33.9766Z" fill="white"/>
<path d="M51.7712 34.25V34.377L45.9666 34.383C45.922 34.383 45.8838 34.3547 45.8838 34.3204C45.8838 34.286 45.9208 34.2569 45.9657 34.2569L51.7712 34.25Z" fill="#EBE2DE"/>
<path d="M51.7712 34.6523V34.7793L45.9666 34.7853C45.922 34.7853 45.8838 34.7568 45.8838 34.7223C45.8838 34.6877 45.9208 34.6584 45.9657 34.6584L51.7712 34.6523Z" fill="#EBE2DE"/>
<path d="M51.146 32.4269H51.3175V32.1719L44.8238 32.1808C44.6087 32.1808 44.4137 32.2676 44.2726 32.4079C44.1314 32.5482 44.0449 32.742 44.0449 32.9558C44.0449 33.3834 44.3948 33.7297 44.8262 33.7297L51.3199 33.7218V33.5014H51.1485L51.146 32.4269Z" fill="#F2732B"/>
<path d="M51.1896 32.4297L51.1906 33.5031L45.2325 33.5109C44.9413 33.5109 44.7061 33.2715 44.7061 32.9753C44.7061 32.8272 44.7641 32.6925 44.8594 32.5956C44.9548 32.4987 45.0859 32.4386 45.2316 32.4375L51.1896 32.4297Z" fill="white"/>
<path d="M51.1912 32.6992V32.8261L45.3865 32.8322C45.3416 32.8322 45.3037 32.8037 45.3037 32.7692C45.3037 32.7346 45.3407 32.7053 45.3853 32.7053L51.1912 32.6992Z" fill="#EBE2DE"/>
<path d="M51.1912 33.1055V33.2324L45.3865 33.2384C45.3416 33.2384 45.3037 33.2101 45.3037 33.1758C45.3037 33.1415 45.3407 33.1123 45.3853 33.1123L51.1912 33.1055Z" fill="#EBE2DE"/>
<path d="M52.2771 30.8761H52.4488V30.6211L45.9548 30.63C45.7397 30.63 45.5448 30.7169 45.4036 30.8572C45.2624 30.9975 45.1763 31.1912 45.1763 31.405C45.1772 31.8326 45.5258 32.1789 45.9573 32.1789L52.4509 32.17V31.9495H52.2795L52.2771 30.8761Z" fill="#FFE666"/>
<path d="M52.3224 30.8789L52.3234 31.9523L46.3653 31.9601C46.0741 31.9601 45.8389 31.7207 45.8389 31.4245C45.8389 31.2764 45.8969 31.1417 45.9923 31.0448C46.0876 30.9479 46.2187 30.8878 46.3644 30.8867L52.3224 30.8789Z" fill="white"/>
<path d="M52.322 31.1484V31.2754L46.5174 31.2814C46.4725 31.2814 46.4346 31.2531 46.4346 31.2188C46.4346 31.1845 46.4715 31.1553 46.5165 31.1553L52.322 31.1484Z" fill="#EBE2DE"/>
<path d="M52.322 31.5547V31.6816L46.5174 31.6877C46.4725 31.6877 46.4346 31.6592 46.4346 31.6246C46.4346 31.5901 46.4715 31.5607 46.5165 31.5607L52.322 31.5547Z" fill="#EBE2DE"/>
<path d="M42.3132 31.2695L42.7752 31.3398L42.2411 34.802L41.7788 34.7318L42.3132 31.2695Z" fill="#545586"/>
<path d="M42.3125 31.2671L42.7754 31.3373L42.6734 30.9863L42.6208 30.8047L42.5154 30.9629L42.3125 31.2671Z" fill="#FFD0C7"/>
<path d="M41.8194 34.4766L42.2814 34.5468L42.2426 34.799L41.7803 34.7288L41.8194 34.4766Z" fill="#1B3431"/>
<path d="M41.7796 34.9316L42.1808 34.9929C42.1976 34.9951 42.2135 34.9839 42.2169 34.9672L42.2425 34.7968L41.7805 34.7266L41.7549 34.897C41.7503 34.9126 41.7628 34.9293 41.7796 34.9316Z" fill="#DF615C"/>
<path d="M42.5156 30.9629L42.6736 30.9863L42.621 30.8047L42.5156 30.9629Z" fill="#1B3431"/>
<path d="M41.8452 34.2969L42.3075 34.3671L42.2797 34.5477L41.8174 34.4775L41.8452 34.2969Z" fill="#BA4131"/>
<path d="M41.4776 31.2812L41.9451 31.2828L41.9338 34.7853L41.4663 34.7838L41.4776 31.2812Z" fill="#F2732B"/>
<path d="M41.4766 31.2837L41.945 31.2848L41.7916 30.9528L41.7131 30.7812L41.6324 30.9517L41.4766 31.2837Z" fill="#FFD0C7"/>
<path d="M41.4667 34.5312L41.9342 34.5328L41.9333 34.7879L41.4658 34.7864L41.4667 34.5312Z" fill="#1B3431"/>
<path d="M41.4951 34.9879L41.9012 34.9891C41.918 34.9891 41.9323 34.9757 41.9323 34.9578V34.7863L41.4648 34.7852V34.9567C41.4648 34.9735 41.4783 34.9868 41.4951 34.9879Z" fill="#DF615C"/>
<path d="M41.6318 30.9517L41.791 30.9528L41.7128 30.7812L41.6318 30.9517Z" fill="#1B3431"/>
<path d="M41.4664 34.3477L41.9339 34.3492L41.9333 34.5319L41.4658 34.5304L41.4664 34.3477Z" fill="#285B5C"/>
<path d="M41.1309 31.2656L41.6271 34.7335L41.1645 34.7988L40.668 31.3309L41.1309 31.2656Z" fill="#FFE666"/>
<path d="M40.6709 31.3322L41.1338 31.2665L40.9343 30.9601L40.831 30.8008L40.7763 30.9824L40.6709 31.3322Z" fill="#FFD0C7"/>
<path d="M41.1309 34.5497L41.5938 34.4844L41.6298 34.737L41.1669 34.8023L41.1309 34.5497Z" fill="#1B3431"/>
<path d="M41.2256 34.9962L41.6268 34.9394C41.6436 34.9372 41.6561 34.9216 41.6537 34.9048L41.6292 34.7344L41.166 34.8001L41.1908 34.9706C41.1929 34.9862 41.2088 34.9984 41.2256 34.9962Z" fill="#DF615C"/>
<path d="M40.7759 30.9824L40.9339 30.9601L40.8306 30.8008L40.7759 30.9824Z" fill="#1B3431"/>
<path d="M41.5655 34.3008L41.5911 34.4817L41.1282 34.547L41.1025 34.3662L41.5655 34.3008Z" fill="#C67022"/>
<path d="M40.4434 32.7031L40.4816 33.0416L40.4962 33.1774L40.7315 35.2783H42.7161L42.9257 33.4112L42.9669 33.0416L43.0039 32.7031H40.4434Z" fill="#EBDBDB"/>
<path d="M40.4814 33.043L40.4961 33.1789L42.9253 33.4129L42.9668 33.043H40.4814Z" fill="#CAAA8A"/>
<path d="M40.3605 33.0415H43.0824L43.1349 32.5469H40.3076L40.3605 33.0415Z" fill="#EBDBDB"/>
<path d="M54.4269 37H10.5732C10.2566 37 10 36.5526 10 36C10 35.4474 10.2566 35 10.5732 35H54.4269C54.7433 35 55 35.4474 55 36C55 36.5526 54.7433 37 54.4269 37Z" fill="#242021"/>
<path d="M35.4362 35.2272H28.5029L31.3549 29.0871C31.438 28.9081 31.6204 28.793 31.8218 28.793H38.1138C38.2596 28.793 38.3564 28.9402 38.2962 29.0701L35.4362 35.2272Z" fill="#3F3D56"/>
<path d="M35.4218 35.2274H22.6313C22.6313 34.7914 22.9925 34.4375 23.4384 34.4375H35.4221L35.4218 35.2274Z" fill="#3F3D56"/>
<path d="M38.1147 28.793H32.5698C32.3687 28.793 32.186 28.9081 32.1029 29.0871L29.251 35.2272H35.4371L38.2968 29.0701C38.357 28.9402 38.2604 28.793 38.1147 28.793Z" fill="#3F3D56"/>
<g style="mix-blend-mode:overlay">
<path d="M0 30.5953C5.54763e-05 30.6703 6.57181e-05 31.7486 5.83881e-05 32.9998C4.54455e-05 35.209 1.79091 37 4.00009 37H8.69255C11.0182 37 12.2706 35.1856 10.5812 33.5874C10.2948 33.3164 9.99889 33.0195 9.70281 32.68C8.76825 31.6119 7.78761 29.4241 7.38943 27.711C7.07352 26.3592 7.01758 24.2333 6.44171 22.7215C5.72104 20.8278 4.32417 20.8683 3.12168 21.1305C2.6664 21.2298 2.27563 21.3531 1.87823 21.5261C0.639297 22.0655 0 23.4146 0 24.7659V30.5953Z" fill="#E9E3FC"/>
</g>
<path d="M33.9975 32.0079C33.9975 32.1913 33.8408 32.3399 33.6473 32.3399C33.4536 32.3399 33.2969 32.1913 33.2969 32.0079C33.2969 31.8245 33.4536 31.6758 33.6473 31.6758C33.8408 31.6758 33.9975 31.8245 33.9975 32.0079Z" fill="#D8D8D8"/>
<path d="M21.4186 19.3133C21.5418 22.2093 21.5113 23.778 20.4323 24.9844C19.3536 26.1912 16.3326 25.8893 16.3326 25.8893C16.3326 25.8893 16.0348 30.1529 11.8116 30.3339C7.58884 30.5149 6.98255 25.0247 10.291 23.6168C13.4403 22.2767 14.4422 21.8873 15.5311 18.5688C16.5262 15.5375 19.6308 16.1153 20.3705 17.3822C21.1106 18.6494 21.4186 19.3133 21.4186 19.3133Z" fill="#3F3D56"/>
<path d="M20.0312 34.0942C20.0312 34.0942 22.0247 34.4764 22.1272 34.4562C22.2298 34.4361 24.4081 33.4907 24.6342 33.6315C24.8603 33.7721 26.1754 34.3152 26.4633 34.4361C26.7512 34.5566 26.299 34.5969 26.0728 34.5969C25.8467 34.5969 24.5522 34.0741 24.4081 34.1745C24.2644 34.2752 25.5382 34.476 25.5382 34.5566C25.5382 34.6372 22.1268 35.4014 21.9213 35.4014C21.7158 35.4014 20.1334 35.2609 20.1334 35.2609L20.0312 34.0942Z" fill="#D2ACA4"/>
<path d="M18.377 23.4414C19.4509 23.6476 20.0825 24.7598 20.288 25.7337C20.4935 26.7075 18.377 23.4414 18.377 23.4414Z" fill="#3F3D56"/>
<path d="M16.5791 22.6911C16.5791 22.6911 14.5141 24.0486 13.4041 24.7121C12.2946 25.3755 13.8049 32.5251 14.1747 35.1797C15.0027 36.5215 19.5957 35.3202 20.7566 35.3202C20.7566 35.3202 20.5244 33.189 21.0792 29.5989C21.4767 27.0276 20.0207 25.4158 19.1887 24.2998C17.0884 21.4832 16.5791 22.6911 16.5791 22.6911Z" fill="white"/>
<path d="M14.5339 24.7891C16.9074 27.6098 17.7097 28.1372 17.1232 30.0405C16.6607 31.5409 16.5067 32.081 16.4144 32.5914C16.3218 33.1014 20.8225 32.2614 20.8225 32.2614L20.7916 33.9118C20.7916 33.9118 17.7102 35.6612 15.9841 35.9915C14.686 35.9915 12.9184 36.0119 12.2122 35.9915C12.0067 35.9857 11.9414 35.9174 11.9414 35.9174L12.0092 35.6077L14.5339 24.7891Z" fill="#3D3335"/>
<path d="M17.3393 19.8359L16.2705 22.9331C16.2705 22.9331 17.4419 26.0403 18.4282 25.3462C18.7648 25.1095 18.3051 23.2346 18.3051 23.2346L19.0242 20.7207L17.3393 19.8359Z" fill="#FFCBC0"/>
<path d="M13.927 24.6194C12.4515 24.7798 12.324 26.731 11.6461 29.989C10.9678 33.247 11.1717 35.3974 11.4921 35.8113C12.2626 36.8069 20.9245 33.3377 22.0031 33.3679C22.7476 33.3888 22.1263 32.1611 22.1263 32.1611L13.8652 33.3981C13.8652 33.3981 15.0365 29.6274 15.0365 27.6967C15.0369 25.7657 14.4821 24.5589 13.927 24.6194Z" fill="#FFCBC0"/>
<path d="M21.6025 32.2225C22.4658 32.0113 23.7294 31.5289 23.9761 31.7397C24.2228 31.9509 25.2401 33.4591 25.579 33.8815C25.918 34.304 25.425 33.9722 25.0551 33.6401C24.6853 33.3084 24.3768 33.1274 24.3768 33.1274C24.3768 33.1274 23.9143 33.5498 23.4831 33.7912C23.0514 34.0327 22.8974 33.5498 22.1577 33.4293C21.418 33.3088 19.5684 33.942 19.5684 33.942L21.6025 32.2225Z" fill="#FFCBC0"/>
<path d="M14.0926 24.3786C13.1886 24.4189 12.4897 25.163 12.243 26.3093C11.9963 27.4557 11.2772 31.0958 11.2772 31.0958C11.2772 31.0958 11.1334 31.1961 12.6334 31.4577C14.1334 31.7193 15.3665 31.4174 15.3665 31.4174C15.3665 31.4174 15.6746 29.346 15.5926 27.918C15.5103 26.4899 15.1816 25.1425 14.6474 24.6801C14.1128 24.2178 14.0926 24.3786 14.0926 24.3786Z" fill="white"/>
<path d="M18.3047 23.2346L19.0238 20.7207L17.3389 19.8359L17.0815 20.5819C17.0256 23.0796 17.679 23.9147 18.1198 24.2201C18.2572 24.3154 18.3756 24.2418 18.4749 24.086C18.4025 23.6333 18.3047 23.2346 18.3047 23.2346Z" fill="#D2ACA4"/>
<path d="M21.7268 20.1282C21.7268 21.4737 21.5628 23.1234 20.3705 23.0847C18.5209 23.0242 17.3555 21.6175 17.3555 20.272C17.3555 18.9264 18.3225 17.8359 19.5152 17.8359C20.7083 17.8355 21.7268 18.7827 21.7268 20.1282Z" fill="#FFCBC0"/>
<path d="M19.6923 17.3682C21.0022 17.2776 21.778 18.4491 22.0041 19.4749C22.1672 20.2151 22.0865 20.3596 22.0865 20.3596C22.0865 20.3596 21.9427 20.5607 20.9151 20.6212C19.8875 20.6816 19.7644 20.6615 19.7644 20.6615L19.7026 19.495L19.3945 20.6212C19.3945 20.6212 19.2302 20.8425 18.593 20.5406C17.9559 20.2391 17.6684 19.2334 17.6684 19.2334C17.6684 19.2334 17.5247 18.5696 18.0177 18.1274C18.5107 17.6849 19.6923 17.3682 19.6923 17.3682Z" fill="#3F3D56"/>
<path d="M18.7173 20.3931C18.5918 21.2069 17.9277 21.7836 17.2348 21.6813C16.5418 21.5786 16.0816 20.8361 16.2072 20.0222C16.3327 19.2084 16.9968 18.6318 17.6897 18.7345C18.3827 18.8364 18.8428 19.5793 18.7173 20.3931Z" fill="#EA7D4D"/>
<path d="M18.2159 20.3731C18.0995 21.1264 17.5546 21.6709 16.9986 21.5888C16.4427 21.5066 16.0863 20.8292 16.2027 20.0755C16.3191 19.3217 16.864 18.7776 17.42 18.8598C17.9759 18.9419 18.3323 19.6193 18.2159 20.3731Z" fill="#ECA485"/>
<path d="M17.3673 20.2019C17.3036 20.6158 17.0731 20.9251 16.8525 20.8925C16.632 20.86 16.5053 20.498 16.5694 20.0836C16.6332 19.6697 16.8636 19.3604 17.0842 19.393C17.3043 19.4255 17.4311 19.7875 17.3673 20.2019Z" fill="#F2E5DE"/>
<path d="M17.334 18.7537C17.9351 16.5661 20.0101 16.8851 20.5347 17.1898C20.9767 17.4463 21.0381 17.8083 21.0381 17.8083C21.0381 17.8083 20.4678 17.3556 19.4969 17.5219C18.5754 17.6793 18.0274 18.2107 17.9505 18.799C17.9113 19.0986 17.334 18.7537 17.334 18.7537Z" fill="#EA7D4D"/>
<path d="M8.11216 25.8143C8.11061 25.8143 8.10902 25.8143 8.10743 25.814C8.0813 25.8116 8.0623 25.7888 8.06465 25.7632C8.11852 25.2102 8.40125 24.6417 8.8598 24.1623C9.37854 23.6205 10.1171 23.1935 10.9954 22.9276C12.9519 22.3354 14.659 21.5825 15.7317 18.3524C15.7401 18.328 15.7666 18.3148 15.7915 18.3225C15.8165 18.3307 15.8303 18.3566 15.822 18.3811C15.329 19.8657 14.6582 20.9465 13.7708 21.6851C12.988 22.337 12.1065 22.6889 11.0235 23.0163C10.161 23.2775 9.43675 23.6957 8.92949 24.2258C8.48479 24.6901 8.21156 25.2392 8.15931 25.7721C8.15732 25.7965 8.13633 25.8143 8.11216 25.8143Z" fill="#3F3D56"/>
<path d="M8.99589 23.5812C8.98165 23.5812 8.96778 23.575 8.95827 23.5629C8.94205 23.5428 8.94599 23.5133 8.96659 23.4978C8.9749 23.4916 9.81084 22.865 11.0198 22.6042C13.3406 22.1039 14.8989 20.7378 15.5257 18.6545C15.5332 18.6297 15.5594 18.6157 15.5847 18.6231C15.6101 18.6304 15.6243 18.656 15.6168 18.6808C15.2295 19.9678 14.5009 20.9835 13.4507 21.6997C12.7748 22.1609 11.9634 22.4957 11.0396 22.6949C9.85242 22.951 9.03231 23.5649 9.024 23.5711C9.01609 23.5781 9.00579 23.5812 8.99589 23.5812Z" fill="#3F3D56"/>
<path d="M40 0L40 13" stroke="black" stroke-width="0.5"/>
<path d="M39.9693 21.1015C40.5385 21.1015 41 20.6424 41 20.0761C41 19.5098 40.5385 19.0508 39.9693 19.0508C39.4 19.0508 38.9385 19.5098 38.9385 20.0761C38.9385 20.6424 39.4 21.1015 39.9693 21.1015Z" fill="#FFE666"/>
<path d="M41.0499 12.8125H38.8877V15.731H41.0499V12.8125Z" fill="#545586"/>
<path d="M44.6264 20.076C44.6264 18.8064 44.1357 17.5888 43.2624 16.6911C42.3889 15.7934 41.2045 15.2891 39.9695 15.2891C38.7344 15.2891 37.5498 15.7934 36.6765 16.6911C35.8032 17.5888 35.3125 18.8064 35.3125 20.076H39.9695H44.6264Z" fill="#545586"/>
</svg>
