<svg width="201" height="200" viewBox="0 0 201 200" fill="none" xmlns="http://www.w3.org/2000/svg">
<rect x="0.5" width="200" height="200" fill="white"/>
<path d="M165.057 197.021H69.7691C-11.3352 197.021 44.9983 111.022 66.7726 95.141C88.5469 79.2597 167.953 51.2928 192.724 123.507C212.54 181.279 182.536 196.588 165.057 197.021Z" fill="white"/>
<path d="M165.057 197.021H69.7691C-11.3352 197.021 44.9983 111.022 66.7726 95.141C88.5469 79.2597 167.953 51.2928 192.724 123.507C212.54 181.279 182.536 196.588 165.057 197.021Z" stroke="#4D545C" stroke-width="0.5"/>
<path d="M159.917 193.917H71.2064C-4.29956 193.917 48.1455 113.783 68.4168 98.9843C88.6881 84.186 129.701 75.5423 176.125 125.792C214.741 167.59 176.19 193.514 159.917 193.917Z" fill="#EBF0FF"/>
<path d="M129.469 146.236C135.829 145.938 152.239 146.898 167.008 153.122" stroke="#4D545C" stroke-width="0.5"/>
<path d="M156.972 132.5C150.28 132.866 136.116 136.056 133 145.884" stroke="#4D545C" stroke-width="0.5"/>
<path d="M120.21 148.478L121.409 149.277L117.513 162.861L100.533 161.063L103.729 145.981L120.21 148.478Z" fill="white" stroke="#4D545C" stroke-width="0.5"/>
<path d="M28.8174 171.75L34.6105 165.857L45.5976 176.045L35.2098 186.233L29.0171 182.737L28.8174 171.75Z" fill="white" stroke="#4D545C" stroke-width="0.5"/>
<path d="M16.0326 191.727L1.74951 177.743C2.3005 176.963 2.83206 176.313 3.34762 175.777C8.43971 170.485 11.9707 176.3 17.2312 176.844C21.8658 177.324 27.2194 172.649 29.317 170.252C33.0725 174.567 31.814 178.642 30.7153 180.14L36.3087 186.233L28.5314 193.838L27.7745 194.578C25.0482 197.243 20.671 197.174 18.0303 194.423L18.4298 191.727C17.391 192.366 16.3989 191.993 16.0326 191.727Z" fill="white"/>
<path d="M17.5309 185.834L20.0279 185.334L28.5314 193.838M28.5314 193.838L27.7745 194.578C25.0482 197.243 20.671 197.174 18.0303 194.423V194.423L18.4298 191.727C17.391 192.366 16.3989 191.993 16.0326 191.727L1.74951 177.743C2.3005 176.963 2.83206 176.313 3.34762 175.777M28.5314 193.838L36.3087 186.233L30.7153 180.14C31.814 178.642 33.0725 174.567 29.317 170.252C27.2194 172.649 21.8658 177.324 17.2312 176.844C11.9707 176.3 8.43971 170.485 3.34762 175.777M3.34762 175.777L9.34055 181.77M21.0267 176.345L22.1254 179.641M23.324 175.246L24.4227 178.542M25.5214 173.848L26.6201 177.144" stroke="#4D545C" stroke-width="0.5"/>
<path d="M136.478 160.276L134.628 180.179C133.675 180.243 132.835 180.24 132.094 180.178C124.776 179.562 127.064 173.155 124.17 168.728C121.62 164.828 114.616 163.62 111.433 163.503C112.415 157.867 116.372 156.275 118.227 156.183L119.43 148L130.237 149.243L131.288 149.364C135.076 149.8 137.782 153.241 137.312 157.025L134.966 158.415C136.117 158.819 136.453 159.824 136.478 160.276Z" fill="white"/>
<path d="M130.959 162.828L128.997 161.205L130.237 149.243M130.237 149.243L131.288 149.364C135.076 149.8 137.782 153.241 137.312 157.025V157.025L134.966 158.415C136.117 158.819 136.453 159.824 136.478 160.276L134.628 180.179C133.675 180.243 132.835 180.24 132.094 180.178M130.237 149.243L119.43 148L118.227 156.183C116.372 156.275 112.415 157.867 111.433 163.503C114.616 163.62 121.62 164.828 124.17 168.728C127.064 173.155 124.776 179.562 132.094 180.178M132.094 180.178L132.968 171.748M121.389 166.097L123.255 163.166M119.088 165.006L120.954 162.075M116.617 164.182L118.483 161.251" stroke="#4D545C" stroke-width="0.5"/>
<path d="M101.532 109.224L74.3638 116.116L75.2627 123.308L104.129 120.311L107.724 101.034L99.1345 93.4429L101.532 109.224Z" fill="white" stroke="#4D545C" stroke-width="0.5"/>
<path d="M41.0029 144.882C41.1627 138.649 51.1909 128.967 56.185 124.906H70.7678L107.924 141.985L102.93 173.848C82.2209 166.789 40.8431 151.115 41.0029 144.882Z" fill="white" stroke="#4D545C" stroke-width="0.5"/>
<path d="M130.298 146.58C137.969 144.423 139.221 126.437 138.888 117.714L65.4746 123.607L30.6157 164.16L50.3924 181.938L56.8847 170.752L51.9905 183.037L58.0833 187.032L81.7553 145.482L130.298 146.58Z" fill="white" stroke="#4D545C" stroke-width="0.5"/>
<path d="M110.795 42.309L110.821 42.3034C112.114 40.1402 117.058 37.0317 122.788 39.3241C130.12 42.9483 134.294 52.1917 135.093 62.7792C135.159 68.0396 133.535 78.3207 126.503 77.3619L121.309 67.1739L116.315 70.9695L112.22 72.4677C106.32 68.1695 106.157 51.501 106.227 50.9931C107.321 43.0324 108.416 42.8044 110.795 42.309Z" fill="white"/>
<path d="M126.503 77.3619L121.309 67.1739L116.315 70.9695L112.22 72.4677C106.32 68.1695 106.157 51.501 106.227 50.9931C107.325 43.0025 108.424 42.8028 110.821 42.3034C112.114 40.1402 117.058 37.0317 122.788 39.3241C130.12 42.9483 134.294 52.1917 135.093 62.7792C135.159 68.0396 133.535 78.3207 126.503 77.3619ZM126.503 77.3619L142.384 96.5393" stroke="#4D545C" stroke-width="0.5"/>
<path d="M114.834 64.4646C110.021 62.8552 108.422 56.1384 108.224 52.9811C108.309 51.8635 109.258 49.1421 112.377 47.1975C114.863 48.6504 122.208 55.0766 122.208 55.0766C122.49 54.1826 123.597 52.5117 125.767 52.9811C128.479 53.5679 127.102 57.9265 125.767 57.9265C125.767 57.9265 125.604 67.5734 126.303 68.772C127.002 69.9706 129 71.5808 129 71.5808C127.248 75.4086 121.093 85.4795 116.414 86.3513C114.522 85.1498 109.943 78.7558 110.621 71.5808C110.621 71.5808 113.818 71.5808 115.089 70.7426C116.36 69.9044 114.834 64.4646 114.834 64.4646Z" fill="white"/>
<path d="M114.834 64.4646C110.021 62.8552 108.422 56.1384 108.224 52.9811C108.309 51.8635 109.258 49.1421 112.377 47.1975C114.863 48.6504 122.208 55.0766 122.208 55.0766C122.49 54.1826 123.597 52.5117 125.767 52.9811C128.479 53.5679 127.102 57.9265 125.767 57.9265C125.767 57.9265 125.604 67.5734 126.303 68.772C127.002 69.9706 129 71.5808 129 71.5808C127.248 75.4086 121.093 85.4795 116.414 86.3513C114.522 85.1498 109.943 78.7558 110.621 71.5808C110.621 71.5808 113.818 71.5808 115.089 70.7426C116.36 69.9044 114.834 64.4646 114.834 64.4646ZM114.834 64.4646C116.077 64.4646 119.174 63.8946 121.614 61.6147" stroke="#4D545C" stroke-width="0.5"/>
<path d="M127.323 60.6061L122.98 59.0008L125.668 55.2134L127.323 60.6061Z" fill="white" stroke="#4D545C" stroke-width="0.5" stroke-linecap="round" stroke-linejoin="round"/>
<path d="M110.021 52.6699C110.474 52.5893 111.508 52.5007 112.019 52.7908" stroke="#4D545C" stroke-width="0.5"/>
<path d="M117.628 51.9574C117.139 51.9454 116.05 52.0476 115.606 52.5529" stroke="#4D545C" stroke-width="0.5"/>
<path d="M102.83 111.322L106.226 109.025L129.598 115.217L105.427 121.41L101.232 118.014L102.83 111.322Z" fill="white" stroke="#4D545C" stroke-width="0.5"/>
<path d="M113.315 56.187C113.195 56.6773 112.97 57.6907 113.028 57.8214C113.085 57.9522 113.578 57.9849 113.818 57.9849" stroke="#4D545C" stroke-width="0.5"/>
<path d="M118.797 114.418L100.019 111.421L101.717 100.634L100.519 99.1358C97.4025 97.3779 98.2216 90.4793 99.0206 87.2498C98.4213 84.4864 97.3226 78.4402 97.7221 76.3627C98.1217 74.2851 106.745 72.0345 111.006 71.1688C111.486 79.3991 114.735 83.9204 116.3 85.1523C119.816 83.5542 125.889 74.8977 128.486 70.7693C133.114 72.3674 142.649 75.9432 143.768 77.4614C144.886 78.9796 149.295 91.8111 151.359 98.0371L138.874 102.332V109.623L118.797 114.418Z" fill="white"/>
<path d="M118.797 114.418L100.019 111.421L101.717 100.634L100.519 99.1358C97.4025 97.3779 98.2216 90.4793 99.0206 87.2498C98.4213 84.4864 97.3226 78.4402 97.7221 76.3627C98.1217 74.2851 106.745 72.0345 111.006 71.1688C111.486 79.3991 114.735 83.9204 116.3 85.1523C119.816 83.5542 125.889 74.8977 128.486 70.7693C133.114 72.3674 142.649 75.9432 143.768 77.4614C144.886 78.9796 149.295 91.8111 151.359 98.0371L138.874 102.332V109.623L118.797 114.418Z" stroke="#4D545C" stroke-width="0.5"/>
<path d="M150.774 98.2371L142.683 100.534L136.99 101.933L138.838 109.524C137.14 110.223 106.476 117.015 105.178 117.315C104.139 117.554 98.4856 117.215 95.7888 117.015C94.3239 117.947 91.3541 119.891 91.1943 120.211C90.9945 120.611 90.9945 120.711 91.1943 120.81C91.3541 120.89 93.1253 120.444 93.9909 120.211C93.4582 120.511 92.293 121.19 91.8934 121.51C91.394 121.909 91.2941 122.708 91.5938 122.708C91.8335 122.708 93.9577 122.109 94.9898 121.809C94.2906 122.542 92.8523 124.146 92.6925 124.706C92.4927 125.405 93.092 125.205 93.9909 124.706C94.7101 124.306 96.9541 123.474 97.9862 123.108C98.9517 123.541 101.122 124.506 102.081 124.906C103.04 125.305 106.476 124.206 108.074 123.607C138.598 121.929 151.357 118.18 153.92 116.515C154.559 112.52 152.039 102.698 150.774 98.2371Z" fill="white" stroke="#4D545C" stroke-width="0.5"/>
<path d="M138.987 109.623C140.119 109.557 143.042 109.743 145.679 111.022" stroke="#4D545C" stroke-width="0.5"/>
<path d="M73.1655 97.438L79.5579 124.706H105.327V127.103H78.5591H48.2949L41.7026 97.438H71.5674H73.1655Z" fill="white"/>
<path d="M78.5591 127.103H105.327V124.706H79.5579L73.1655 97.438H71.5674M78.5591 127.103H48.2949L41.7026 97.438H71.5674M78.5591 127.103L71.5674 97.438" stroke="#4D545C" stroke-width="0.5"/>
<ellipse cx="111.378" cy="54.6364" rx="0.53706" ry="0.588559" transform="rotate(-13.3244 111.378 54.6364)" fill="#4D545C"/>
<ellipse cx="116.543" cy="54.2285" rx="0.53706" ry="0.588559" transform="rotate(-13.3244 116.543 54.2285)" fill="#4D545C"/>
<path d="M113.417 59.6948C113.938 59.9582 116.125 61.8752 116.214 58.9836C115.748 59.168 114.536 59.5684 113.417 59.6948Z" fill="#4D545C"/>
<path d="M136.99 101.933L134.093 89.4475" stroke="#4D545C" stroke-width="0.5"/>
<path d="M99.0352 87.2499C99.5013 85.3189 100.513 81.1172 100.833 79.7588" stroke="#4D545C" stroke-width="0.5"/>
<path d="M115.815 102.632C117.147 104.33 121.968 107.726 130.598 107.726" stroke="#4D545C" stroke-width="0.5"/>
<path d="M94.9395 121.809L97.037 120.311" stroke="#4D545C" stroke-width="0.5"/>
<g style="mix-blend-mode:multiply">
<path d="M109.522 73.5663C108.883 71.7285 101.798 75.5307 98.3354 77.6615L99.0346 86.3512C98.8016 88.8816 98.4753 94.3618 99.0346 96.0398C99.594 97.7178 101.398 99.4691 102.231 100.135L101.032 110.323L119.71 113.919L138.188 109.524L136.291 101.833L150.374 97.4382C147.81 91.4452 142.623 79.0998 142.383 77.6615C142.144 76.2232 132.628 73.3333 127.901 72.0681C124.505 76.8957 117.433 86.6309 116.314 86.9505C114.916 87.3501 110.321 75.8636 109.522 73.5663Z" fill="#F6E6F7"/>
</g>
<path d="M61.5928 111.493C61.9062 112.819 61.2805 114.004 60.3262 114.229C59.372 114.455 58.2823 113.676 57.9688 112.349C57.6553 111.023 58.2811 109.838 59.2353 109.613C60.1896 109.387 61.2793 110.166 61.5928 111.493Z" stroke="#4D545C" stroke-width="0.5"/>
<path d="M93.8408 120.211L96.4378 118.813" stroke="#4D545C" stroke-width="0.5"/>
<path fill-rule="evenodd" clip-rule="evenodd" d="M20.7402 46.25C18.5311 46.25 16.7402 48.0409 16.7402 50.25V79.4766C16.7402 81.6857 18.5311 83.4766 20.7402 83.4766H53.9668L60.1932 89.7031C60.8232 90.333 61.9004 89.8869 61.9004 88.9959V83.4766H66.4441C68.6533 83.4766 70.4441 81.6857 70.4441 79.4766V50.25C70.4441 48.0409 68.6533 46.25 66.4441 46.25H20.7402Z" fill="white"/>
<path d="M53.9668 83.4766L54.1435 83.2998L54.0703 83.2266H53.9668V83.4766ZM61.9004 83.4766V83.2266H61.6504V83.4766H61.9004ZM16.9902 50.25C16.9902 48.1789 18.6692 46.5 20.7402 46.5V46C18.393 46 16.4902 47.9028 16.4902 50.25H16.9902ZM16.9902 79.4766V50.25H16.4902V79.4766H16.9902ZM20.7402 83.2266C18.6692 83.2266 16.9902 81.5476 16.9902 79.4766H16.4902C16.4902 81.8238 18.393 83.7266 20.7402 83.7266V83.2266ZM53.9668 83.2266H20.7402V83.7266H53.9668V83.2266ZM60.37 89.5263L54.1435 83.2998L53.79 83.6533L60.0165 89.8798L60.37 89.5263ZM61.6504 88.9959C61.6504 89.6641 60.8425 89.9988 60.37 89.5263L60.0165 89.8798C60.8039 90.6673 62.1504 90.1096 62.1504 88.9959H61.6504ZM61.6504 83.4766V88.9959H62.1504V83.4766H61.6504ZM66.4441 83.2266H61.9004V83.7266H66.4441V83.2266ZM70.1941 79.4766C70.1941 81.5476 68.5152 83.2266 66.4441 83.2266V83.7266C68.7913 83.7266 70.6941 81.8238 70.6941 79.4766H70.1941ZM70.1941 50.25V79.4766H70.6941V50.25H70.1941ZM66.4441 46.5C68.5152 46.5 70.1941 48.1789 70.1941 50.25H70.6941C70.6941 47.9028 68.7913 46 66.4441 46V46.5ZM20.7402 46.5H66.4441V46H20.7402V46.5Z" fill="#4D545C"/>
<rect x="11.75" y="47.9204" width="56.1297" height="32.4082" rx="4" fill="#FFEBC2"/>
<path d="M56.4709 87.566L49.1699 79.9946H58.1908V86.8719C58.1908 87.7716 57.0954 88.2137 56.4709 87.566Z" fill="#FFEBC2"/>
<path d="M19.7915 57.8745H57.6283" stroke="#4D545C" stroke-width="0.5" stroke-linecap="round"/>
<path d="M19.7915 61.5361H57.6283" stroke="#4D545C" stroke-width="0.5" stroke-linecap="round"/>
<path d="M19.7915 65.7786H57.6283" stroke="#4D545C" stroke-width="0.5" stroke-linecap="round"/>
<path d="M19.7915 69.4402H38.7099" stroke="#4D545C" stroke-width="0.5" stroke-linecap="round"/>
<path fill-rule="evenodd" clip-rule="evenodd" d="M186.454 15C188.663 15 190.454 16.7909 190.454 19V48.2266C190.454 50.4357 188.663 52.2266 186.454 52.2266H153.228L147.001 58.4531C146.371 59.083 145.294 58.6369 145.294 57.7459V52.2266H140.75C138.541 52.2266 136.75 50.4357 136.75 48.2266V19C136.75 16.7909 138.541 15 140.75 15H186.454Z" fill="white"/>
<path d="M153.228 52.2266L153.051 52.0498L153.124 51.9766H153.228V52.2266ZM145.294 52.2266V51.9766H145.544V52.2266H145.294ZM190.204 19C190.204 16.9289 188.525 15.25 186.454 15.25V14.75C188.801 14.75 190.704 16.6528 190.704 19H190.204ZM190.204 48.2266V19H190.704V48.2266H190.204ZM186.454 51.9766C188.525 51.9766 190.204 50.2976 190.204 48.2266H190.704C190.704 50.5738 188.801 52.4766 186.454 52.4766V51.9766ZM153.228 51.9766H186.454V52.4766H153.228V51.9766ZM146.824 58.2763L153.051 52.0498L153.404 52.4033L147.178 58.6298L146.824 58.2763ZM145.544 57.7459C145.544 58.4141 146.352 58.7488 146.824 58.2763L147.178 58.6298C146.39 59.4173 145.044 58.8596 145.044 57.7459H145.544ZM145.544 52.2266V57.7459H145.044V52.2266H145.544ZM140.75 51.9766H145.294V52.4766H140.75V51.9766ZM137 48.2266C137 50.2976 138.679 51.9766 140.75 51.9766V52.4766C138.403 52.4766 136.5 50.5738 136.5 48.2266H137ZM137 19V48.2266H136.5V19H137ZM140.75 15.25C138.679 15.25 137 16.9289 137 19H136.5C136.5 16.6528 138.403 14.75 140.75 14.75V15.25ZM186.454 15.25H140.75V14.75H186.454V15.25Z" fill="#4D545C"/>
<rect width="56.1297" height="32.4082" rx="4" transform="matrix(-1 0 0 1 195.444 16.6704)" fill="#FFCDD6"/>
<path d="M150.723 56.316L158.024 48.7446H149.004V55.6219C149.004 56.5216 150.099 56.9637 150.723 56.316Z" fill="#FFCDD6"/>
<path d="M187.403 26.6245H149.566" stroke="#4D545C" stroke-width="0.5" stroke-linecap="round"/>
<path d="M187.403 30.2861H149.566" stroke="#4D545C" stroke-width="0.5" stroke-linecap="round"/>
<path d="M187.403 34.5286H149.566" stroke="#4D545C" stroke-width="0.5" stroke-linecap="round"/>
<path d="M168.169 38.1902H149.251" stroke="#4D545C" stroke-width="0.5" stroke-linecap="round"/>
</svg>
