<svg width="16" height="17" viewBox="0 0 16 17" fill="none" xmlns="http://www.w3.org/2000/svg">
<g id="Group 1000002097">
<path id="Star 26" d="M7.47692 4.10988C7.64156 3.60316 8.35844 3.60316 8.52308 4.10988L9.2236 6.26586C9.29723 6.49247 9.50841 6.6459 9.74668 6.6459H12.0136C12.5464 6.6459 12.7679 7.32769 12.3369 7.64086L10.5029 8.97333C10.3101 9.11338 10.2295 9.36163 10.3031 9.58824L11.0036 11.7442C11.1683 12.2509 10.5883 12.6723 10.1573 12.3591L8.32328 11.0267C8.13051 10.8866 7.86949 10.8866 7.67672 11.0267L5.84273 12.3591C5.41169 12.6723 4.83173 12.2509 4.99637 11.7442L5.69689 9.58824C5.77052 9.36163 5.68986 9.11338 5.49709 8.97333L3.66311 7.64086C3.23206 7.32769 3.45359 6.6459 3.98639 6.6459H6.25332C6.49159 6.6459 6.70277 6.49247 6.7764 6.26586L7.47692 4.10988Z" stroke="#000A16"/>
<rect id="Rectangle 3463859" x="0.5" y="1" width="15" height="15" rx="3" stroke="#000A16"/>
</g>
</svg>
