<?xml version="1.0" encoding="utf-8"?>
<!-- Generator: Adobe Illustrator 27.2.0, SVG Export Plug-In . SVG Version: 6.00 Build 0)  -->
<svg version="1.1" id="Layer_1" xmlns="http://www.w3.org/2000/svg" xmlns:xlink="http://www.w3.org/1999/xlink" x="0px" y="0px"
	 viewBox="0 0 16 16" style="enable-background:new 0 0 16 16;" xml:space="preserve">
<style type="text/css">
	.st0{clip-path:url(#SVGID_00000049936081355301266260000013637596129464267692_);}
	.st1{fill:#FFFFFF;}
	.st2{fill-rule:evenodd;clip-rule:evenodd;fill:#E24C1C;}
	.st3{fill:#FBB4AE;}
</style>
<g>
	<defs>
		<rect id="SVGID_1_" y="0" width="16" height="16"/>
	</defs>
	<clipPath id="SVGID_00000011026645207595666650000000223560497306927488_">
		<use xlink:href="#SVGID_1_"  style="overflow:visible;"/>
	</clipPath>
	<g style="clip-path:url(#SVGID_00000011026645207595666650000000223560497306927488_);">
		<rect y="0" class="st1" width="16" height="16"/>
		<path class="st2" d="M2.5,3C1.7,3,1,3.7,1,4.5v9C1,14.3,1.7,15,2.5,15h11c0.8,0,1.5-0.7,1.5-1.5v-9C15,3.7,14.3,3,13.5,3H2.5z
			 M0,4.5C0,3.1,1.1,2,2.5,2h11C14.9,2,16,3.1,16,4.5v9c0,1.4-1.1,2.5-2.5,2.5h-11C1.1,16,0,14.9,0,13.5V4.5z"/>
		<path class="st3" d="M2,13V5c0-0.6,0.4-1,1-1h10c0.6,0,1,0.4,1,1v8c0,0.6-0.4,1-1,1H3C2.4,14,2,13.6,2,13z"/>
		<path class="st2" d="M2.5,1C1.7,1,1,1.7,1,2.5v11C1,13.8,0.8,14,0.5,14S0,13.8,0,13.5v-11C0,1.1,1.1,0,2.5,0H14
			c0.5,0,1.4,0.2,1.8,1.1c0.1,0.2,0,0.5-0.2,0.7c-0.2,0.1-0.5,0-0.7-0.2C14.7,1.1,14.3,1,14,1H2.5z"/>
		<path class="st2" d="M4,13c0-1.7,1.3-3,3-3h2c1.7,0,3,1.3,3,3c0,0.3-0.2,0.5-0.5,0.5S11,13.3,11,13c0-1.1-0.9-2-2-2H7
			c-1.1,0-2,0.9-2,2c0,0.3-0.2,0.5-0.5,0.5S4,13.3,4,13z"/>
		<path class="st2" d="M8,8.5c0.8,0,1.5-0.7,1.5-1.5S8.8,5.5,8,5.5S6.5,6.2,6.5,7S7.2,8.5,8,8.5z M8,9.5c1.4,0,2.5-1.1,2.5-2.5
			S9.4,4.5,8,4.5S5.5,5.6,5.5,7S6.6,9.5,8,9.5z"/>
	</g>
</g>
</svg>
