<svg width="136" height="108" viewBox="0 0 136 108" fill="none" xmlns="http://www.w3.org/2000/svg">
<path opacity="0.3" d="M114.903 57.0682L81.4486 21.6789L80.8904 21.073L69.5468 9.09835C66.2202 5.52381 61.1246 4.14033 56.4206 5.53447C53.1801 6.41204 50.25 8.16423 47.9579 10.5952L4.13191 56.6227C-0.41789 61.2037 -1.31 68.2303 1.95322 73.7828C5.59247 80.4607 13.2626 83.9434 20.7512 82.3183C23.5161 81.6044 26.0159 80.1201 27.9535 78.0417L60.3639 44.0244L95.6191 81.3204C98.7959 85.0871 103.842 86.7677 108.673 85.6684C114.208 83.8574 118.333 79.2439 119.477 73.5868C120.943 67.6964 119.281 61.4723 115.065 57.0682" fill="url(#paint0_linear_10194_41231)"/>
<path d="M64.0594 13.172C64.0594 13.172 89.6259 38.7552 86.3012 45.3137C86.3012 45.3137 95.8016 46.5556 75.6492 46.3576C74.466 46.5052 78.5279 48.8754 77.3644 49.1438C77.3644 49.1438 64.5931 63.5293 61.0391 67.3238C60.6597 67.7367 59.9165 68.9527 59.9257 68.7879C56.0649 59.5669 78.4231 55.2326 81.1945 42.7603C81.3028 42.3004 58.9363 19.904 58.9363 19.904C58.9363 19.904 50.3773 15.7861 51.0277 15.0213C51.956 13.8807 52.4946 13.2718 52.4946 13.2718C52.9069 13.0111 53.2118 12.6126 53.3525 12.1508C53.4561 11.7619 53.6577 11.4036 53.9383 11.1097C54.2188 10.8158 54.569 10.5959 54.956 10.4708C55.8986 10.0804 56.339 9.01471 56.8826 8.74885C57.4263 8.48299 62.2689 11.3658 64.0594 13.172Z" fill="white" stroke="#4D545C" stroke-width="0.5" stroke-linecap="round" stroke-linejoin="round"/>
<path d="M55.7119 10.229C56.6198 10.9653 57.4696 11.8214 58.2377 12.7736C58.4084 12.9963 58.5484 13.2453 58.65 13.5068C58.7052 13.6366 58.7327 13.7723 58.7294 13.8997C58.7261 14.0271 58.6923 14.1415 58.6314 14.2306" stroke="#4D545C" stroke-width="0.5" stroke-linecap="round" stroke-linejoin="round"/>
<path d="M57.499 9.3125C58.4069 10.0488 59.2567 10.9049 60.0248 11.8571C60.1955 12.0798 60.3355 12.3288 60.4371 12.5903C60.4923 12.7201 60.5198 12.8558 60.5165 12.9832C60.5132 13.1106 60.4794 13.225 60.4185 13.3141" stroke="#4D545C" stroke-width="0.5" stroke-linecap="round" stroke-linejoin="round"/>
<path d="M54.001 11.2783C54.9089 12.0146 55.7586 12.8707 56.5267 13.823C56.6974 14.0456 56.8375 14.2946 56.9391 14.5561C56.9943 14.6859 57.0218 14.8216 57.0185 14.9491C57.0152 15.0765 56.9813 15.1908 56.9205 15.2799" stroke="#4D545C" stroke-width="0.5" stroke-linecap="round" stroke-linejoin="round"/>
<path d="M59.646 70.3069C59.646 70.3069 54.2528 57.7527 58.2135 51.6979C61.3596 46.9069 78.6412 44.0368 78.6412 44.0368L61.3764 22.6013L69.7044 15.9496C69.7044 15.9496 97.4705 40.0098 96.5149 46.5902C95.5594 53.1706 66.5966 69.3185 59.646 70.3069Z" fill="white" stroke="#4D545C" stroke-width="0.5" stroke-linecap="round" stroke-linejoin="round"/>
<path d="M58.6679 18.8341C58.6679 18.8341 53.1579 17.3735 53.1442 16.5446C53.1306 15.7156 53.8461 11.9667 55.1181 11.8787C56.3902 11.7908 55.9896 15.0697 55.9896 15.0697C55.9896 15.0697 58.7372 14.1937 59.413 15.717C60.0887 17.2403 58.6679 18.8341 58.6679 18.8341Z" fill="white" stroke="#4D545C" stroke-width="0.5" stroke-linecap="round" stroke-linejoin="round"/>
<path d="M71.2168 39.8485C71.4621 37.8857 64.997 14.5084 64.0684 12.7754C61.6331 8.23082 48.993 6.47189 44.1749 9.56646C36.3607 14.5531 35.238 28.7169 28.2563 44.0218C28.2563 44.0218 36.5147 51.713 49.2816 47.8674C62.0486 44.0218 71.2168 39.8485 71.2168 39.8485Z" fill="white" stroke="#4D545C" stroke-width="0.5" stroke-linecap="round" stroke-linejoin="round"/>
<path d="M47.9112 26.3248C47.9159 26.3855 47.9084 26.4465 47.8892 26.5041C47.87 26.5616 47.8395 26.6144 47.7996 26.659C47.7597 26.7037 47.7113 26.7394 47.6575 26.7636C47.6037 26.7879 47.5456 26.8004 47.4869 26.8002C46.4344 26.8002 44.0919 26.5713 43.6845 29.3885C43.6147 30.5256 43.9833 31.6449 44.7091 32.5001C45.4349 33.3554 46.4585 33.8765 47.5547 33.9489C48.0131 33.9489 49.0655 34.0722 49.3711 34.4243C50.3217 35.4984 49.2799 36.3767 49.2799 41.4835C49.2799 42.7602 48.5945 44.8934 48.0032 46.5903C47.412 48.2871 43.0775 50.7128 41.6198 51.6971C41.6198 51.6971 64.5296 58.4765 64.3768 50.1656C64.3768 50.1656 63.0868 34.8293 63.1716 34.7589C64.4447 33.4383 69.3844 32.8748 66.278 21.9404C64.8521 16.9398 62.3738 14.5804 60.0143 13.5239" fill="white"/>
<path d="M47.9112 26.3248C47.9159 26.3855 47.9084 26.4465 47.8892 26.5041C47.87 26.5616 47.8395 26.6144 47.7996 26.659C47.7597 26.7037 47.7113 26.7394 47.6575 26.7636C47.6037 26.7879 47.5456 26.8004 47.4869 26.8002C46.4344 26.8002 44.0919 26.5713 43.6845 29.3885C43.6147 30.5256 43.9833 31.6449 44.7091 32.5001C45.4349 33.3554 46.4585 33.8765 47.5547 33.9489C48.0131 33.9489 49.0655 34.0722 49.3711 34.4243C50.3217 35.4984 49.2799 36.3767 49.2799 41.4835C49.2799 42.7602 48.5945 44.8934 48.0032 46.5903C47.412 48.2871 43.0775 50.7128 41.6198 51.6971C41.6198 51.6971 64.5296 58.4765 64.3768 50.1656C64.3768 50.1656 63.0868 34.8293 63.1716 34.7589C64.4447 33.4383 69.3844 32.8748 66.278 21.9404C64.8521 16.9398 62.3738 14.5804 60.0143 13.5239" stroke="#4D545C" stroke-width="0.5" stroke-linecap="round" stroke-linejoin="round"/>
<path d="M57.4482 11.5562C57.4482 11.5562 54.4477 26.4415 50.7585 27.9857C46.6757 29.7813 45.2026 25.0488 45.1625 23.8749" fill="white"/>
<path d="M57.4482 11.5562C57.4482 11.5562 54.4477 26.4415 50.7585 27.9857C46.6757 29.7813 45.2026 25.0488 45.1625 23.8749" stroke="#4D545C" stroke-width="0.5" stroke-linecap="round" stroke-linejoin="round"/>
<path d="M62.2601 26.3133L63.3516 25.7065L61.384 22.3782M59.9083 21.3944C59.4164 21.5583 58.4326 21.3944 57.4488 22.3782M62.0306 20.4812C62.1228 20.2395 62.427 19.6811 62.9067 19.3809" stroke="#4D545C" stroke-width="0.5" stroke-linecap="round" stroke-linejoin="round"/>
<path d="M59.3451 24.4686C59.5265 24.7457 59.8398 24.9202 60.0376 24.8689C60.2355 24.8175 60.2849 24.5507 60.0376 24.2839C59.7903 24.017 59.5594 23.8323 59.3451 23.8836C59.1307 23.9349 59.1802 24.2017 59.3451 24.4686Z" fill="#4D545C" stroke="#4D545C" stroke-width="0.5" stroke-linecap="round" stroke-linejoin="round"/>
<path d="M62.7084 28.3064C61.9133 28.7982 61.3982 29.6697 61.5287 30.2318C61.6593 30.7939 62.1359 30.4396 62.9069 29.7609C63.6778 29.0822 64.4887 28.9573 64.3594 28.3487C64.2301 27.7401 63.4734 27.8604 62.7084 28.3064Z" fill="#4D545C" stroke="#4D545C" stroke-width="0.5" stroke-linecap="round" stroke-linejoin="round"/>
<path d="M63.5196 22.7943C63.6892 23.0593 63.9943 23.2394 64.1977 23.1864C64.4012 23.1335 64.4351 22.8791 64.1977 22.6036C63.9604 22.328 63.7231 22.1691 63.5196 22.222C63.3162 22.275 63.3501 22.5294 63.5196 22.7943Z" fill="#4D545C" stroke="#4D545C" stroke-width="0.5" stroke-linecap="round" stroke-linejoin="round"/>
<path d="M48.102 36.1509C46.7437 36.1509 45.6426 35.0498 45.6426 33.6914C45.6426 32.3331 46.7437 31.2319 48.102 31.2319C49.4604 31.2319 50.5615 32.3331 50.5615 33.6914C50.5615 35.0498 49.4604 36.1509 48.102 36.1509Z" fill="white" stroke="#4D545C" stroke-width="0.5" stroke-linecap="round" stroke-linejoin="round"/>
<path d="M64.0841 45.9883C63.8003 46.6493 75.487 69.4706 75.1501 75.9761C74.8131 82.4816 71.1453 104.009 71.5 105C71.5 105 62.534 107.918 34 103.5C25.2394 95.9856 35.8516 61.0344 38.8132 52.8764C38.8132 52.8764 44.7223 50.521 48.0031 46.5899C46.1448 45.3302 62.5412 57.5033 64.0841 45.9883Z" fill="white" stroke="#4D545C" stroke-width="0.5" stroke-linecap="round" stroke-linejoin="round"/>
<path d="M62.7832 35.0714C61.1601 35.6629 58.9877 35.3028 57.2666 35.0714C55.5455 34.84 53.9146 34.1959 52.5277 33.1997" stroke="#4D545C" stroke-width="0.5" stroke-linecap="round" stroke-linejoin="round"/>
<path d="M71.3175 95.3655L76.4971 82.8018" stroke="#000A16" stroke-width="0.5"/>
<circle cx="16.6137" cy="16.6137" r="16.3637" transform="matrix(-0.999942 -0.0107913 -0.0107913 0.999942 100.244 51.6235)" stroke="#000A16" stroke-width="0.5"/>
<path d="M51.7736 101.267C60.0673 99.5923 68.2282 97.3412 76.1939 94.5305C77.101 94.2064 79.7698 92.9956 79.6826 92.6034C79.6826 91.7166 74.2926 94.07 74.4496 93.8483C74.6066 93.6266 81.0605 91.546 81.0605 90.8127C81.0605 89.7383 73.9612 92.1941 73.8391 92.2282C71.9901 92.7569 80.7117 90.1306 80.9036 89.3973C81.0954 88.6639 77.0312 89.5678 76.8742 89.6019C75.7427 89.9786 74.5731 90.2359 73.3856 90.3693C73.2635 90.1476 80.1186 86.1229 79.386 85.6966C78.6534 85.2702 73.4205 87.6748 72.182 88.1353C71.0375 88.5871 69.7853 88.7113 68.5713 88.4934C68.1701 88.2547 70.1229 86.2302 70.9602 85.4627C67.9196 84.4493 66.1806 87.2604 64.8385 88.4934C64.2876 89.1306 63.7806 89.8029 63.3209 90.5057L51.5468 92.7569L51.7736 101.267Z" fill="white" stroke="#4D545C" stroke-width="0.5" stroke-linecap="round" stroke-linejoin="round"/>
<path d="M44.5997 60.8508C44.5997 60.8508 46.3328 50.091 40.7523 50.9574C31.4457 52.4474 20.822 73.6724 24.8947 101.863C26.2118 111.028 63.3516 102.105 63.3516 102.105L60.9599 88.6944L41.5842 91.9172L44.5997 60.8508Z" fill="white" stroke="#4D545C" stroke-width="0.5" stroke-linecap="round" stroke-linejoin="round"/>
<path d="M47.2741 105.75H88.7764V103.25H48.5264C48.091 103.25 47.822 103.33 47.6515 103.444C47.4877 103.553 47.3861 103.713 47.3253 103.942C47.2625 104.179 47.2473 104.474 47.251 104.829C47.2525 104.982 47.2574 105.14 47.2625 105.308C47.2633 105.334 47.2641 105.361 47.2649 105.388C47.2685 105.505 47.2719 105.626 47.2741 105.75Z" fill="white" stroke="black" stroke-width="0.5"/>
<path d="M80.3389 105.75H123.423L134.68 68.25H91.8737L80.3389 105.75Z" fill="white" stroke="black" stroke-width="0.5"/>
<path d="M108.566 86.75C109.517 86.75 110.496 85.9437 110.72 84.9453C110.83 84.455 110.733 84.0319 110.511 83.7358C110.291 83.4414 109.931 83.25 109.465 83.25C108.514 83.25 107.536 84.0561 107.311 85.0549C107.201 85.5451 107.298 85.9681 107.52 86.2642C107.741 86.5586 108.101 86.75 108.566 86.75Z" fill="white" stroke="black" stroke-width="0.5"/>
<path d="M3.71582 105.25H124.284C124.975 105.25 125.534 105.81 125.534 106.5C125.534 107.19 124.975 107.75 124.284 107.75H3.71582C3.02547 107.75 2.46582 107.19 2.46582 106.5C2.46582 105.81 3.02546 105.25 3.71582 105.25Z" fill="white" stroke="black" stroke-width="0.5"/>
<defs>
<linearGradient id="paint0_linear_10194_41231" x1="60" y1="5" x2="60" y2="86" gradientUnits="userSpaceOnUse">
<stop stop-color="#F15B2B"/>
<stop offset="1" stop-color="#F15B2B" stop-opacity="0"/>
</linearGradient>
</defs>
</svg>
