<svg width="33" height="42" viewBox="0 0 33 42" fill="none" xmlns="http://www.w3.org/2000/svg">
<path d="M0.775391 5.376C0.775391 2.40692 3.18231 0 6.15139 0H20.2298L32.225 12.432V36.624C32.225 39.5931 29.8181 42 26.849 42H6.15139C3.18231 42 0.775391 39.5931 0.775391 36.624V5.376Z" fill="#2564CA"/>
<path d="M20.2298 7.056V0L32.225 12.432H25.6058C22.6367 12.432 20.2298 10.0251 20.2298 7.056Z" fill="#5D92D9"/>
<path d="M12.2767 29.3995C12.2767 29.987 12.1745 30.5299 11.97 31.0282C11.7692 31.5227 11.4847 31.9522 11.1166 32.3166C10.7485 32.6773 10.3041 32.9599 9.78354 33.1644C9.26668 33.3652 8.69219 33.4656 8.06006 33.4656H4.90314V25.339H8.06006C8.69219 25.339 9.26668 25.4413 9.78354 25.6458C10.3041 25.8503 10.7485 26.1329 11.1166 26.4936C11.4847 26.8543 11.7692 27.2838 11.97 27.782C12.1745 28.2766 12.2767 28.8157 12.2767 29.3995ZM10.3469 29.3995C10.3469 28.9979 10.2948 28.6354 10.1907 28.3119C10.0866 27.9884 9.936 27.7151 9.73892 27.492C9.54556 27.2652 9.30759 27.0923 9.02499 26.9733C8.74239 26.8506 8.42075 26.7892 8.06006 26.7892H6.79952V32.0154H8.06006C8.42075 32.0154 8.74239 31.9559 9.02499 31.8369C9.30759 31.7142 9.54556 31.5413 9.73892 31.3182C9.936 31.0914 10.0866 30.8162 10.1907 30.4927C10.2948 30.1692 10.3469 29.8048 10.3469 29.3995Z" fill="white"/>
<path d="M21.203 29.3995C21.203 29.987 21.1007 30.5336 20.8962 31.0393C20.6954 31.545 20.411 31.9857 20.0428 32.3612C19.6747 32.7331 19.2304 33.025 18.7098 33.2369C18.1929 33.4489 17.6184 33.5548 16.9863 33.5548C16.3542 33.5548 15.7778 33.4489 15.2573 33.2369C14.7367 33.025 14.2905 32.7331 13.9186 32.3612C13.5505 31.9857 13.2642 31.545 13.0597 31.0393C12.8589 30.5336 12.7585 29.987 12.7585 29.3995C12.7585 28.812 12.8589 28.2654 13.0597 27.7597C13.2642 27.254 13.5505 26.8152 13.9186 26.4434C14.2905 26.0716 14.7367 25.7797 15.2573 25.5677C15.7778 25.3558 16.3542 25.2498 16.9863 25.2498C17.6184 25.2498 18.1929 25.3576 18.7098 25.5733C19.2304 25.7852 19.6747 26.0771 20.0428 26.449C20.411 26.8208 20.6954 27.2596 20.8962 27.7653C21.1007 28.271 21.203 28.8157 21.203 29.3995ZM19.2731 29.3995C19.2731 28.9979 19.2211 28.6373 19.117 28.3175C19.0128 27.994 18.8622 27.7207 18.6652 27.4976C18.4718 27.2745 18.2338 27.1034 17.9512 26.9844C17.6686 26.8654 17.347 26.8059 16.9863 26.8059C16.6219 26.8059 16.2966 26.8654 16.0102 26.9844C15.7276 27.1034 15.4878 27.2745 15.2907 27.4976C15.0974 27.7207 14.9486 27.994 14.8445 28.3175C14.7404 28.6373 14.6883 28.9979 14.6883 29.3995C14.6883 29.8048 14.7404 30.1692 14.8445 30.4927C14.9486 30.8125 15.0974 31.084 15.2907 31.3071C15.4878 31.5302 15.7276 31.7012 16.0102 31.8202C16.2966 31.9355 16.6219 31.9931 16.9863 31.9931C17.347 31.9931 17.6686 31.9355 17.9512 31.8202C18.2338 31.7012 18.4718 31.5302 18.6652 31.3071C18.8622 31.084 19.0128 30.8125 19.117 30.4927C19.2211 30.1692 19.2731 29.8048 19.2731 29.3995Z" fill="white"/>
<path d="M27.5648 31.3628C27.6095 31.3628 27.6541 31.3721 27.6987 31.3907C27.7433 31.4056 27.7861 31.4335 27.827 31.4744L28.5744 32.2608C28.2472 32.6885 27.8363 33.012 27.3417 33.2313C26.8509 33.447 26.269 33.5548 25.596 33.5548C24.9787 33.5548 24.4247 33.4507 23.9338 33.2425C23.4467 33.0305 23.0321 32.7405 22.69 32.3724C22.3516 32.0005 22.0914 31.5618 21.9092 31.0561C21.727 30.5467 21.6359 29.9945 21.6359 29.3995C21.6359 28.7934 21.74 28.2375 21.9482 27.7318C22.1564 27.2224 22.4465 26.7836 22.8183 26.4155C23.1939 26.0474 23.6419 25.7611 24.1625 25.5566C24.6831 25.3521 25.2576 25.2498 25.886 25.2498C26.1909 25.2498 26.4772 25.2777 26.7449 25.3335C27.0164 25.3855 27.2692 25.4599 27.5035 25.5566C27.7378 25.6495 27.9534 25.7629 28.1505 25.8968C28.3476 26.0269 28.5223 26.172 28.6748 26.3318L28.0389 27.1852C27.998 27.2373 27.9497 27.2856 27.8939 27.3302C27.8381 27.3711 27.7601 27.3916 27.6597 27.3916C27.5927 27.3916 27.5295 27.3767 27.47 27.347C27.4105 27.3172 27.3473 27.2819 27.2804 27.241C27.2135 27.1964 27.1391 27.1499 27.0573 27.1016C26.9792 27.0495 26.8844 27.003 26.7728 26.9621C26.665 26.9175 26.5367 26.8803 26.388 26.8506C26.243 26.8208 26.0719 26.8059 25.8748 26.8059C25.5327 26.8059 25.2204 26.8673 24.9378 26.99C24.6552 27.109 24.4116 27.2819 24.2071 27.5087C24.0063 27.7318 23.8483 28.0033 23.733 28.3231C23.6215 28.6428 23.5657 29.0017 23.5657 29.3995C23.5657 29.816 23.6215 30.186 23.733 30.5095C23.8483 30.833 24.0026 31.1063 24.196 31.3294C24.393 31.5488 24.6217 31.7161 24.882 31.8314C25.1423 31.9466 25.4212 32.0043 25.7187 32.0043C25.8897 32.0043 26.0459 31.9968 26.1872 31.982C26.3285 31.9634 26.4586 31.9336 26.5776 31.8927C26.7003 31.8518 26.8156 31.7998 26.9234 31.7365C27.035 31.6696 27.1465 31.5878 27.2581 31.4911C27.3027 31.4539 27.351 31.4242 27.4031 31.4019C27.4552 31.3759 27.5091 31.3628 27.5648 31.3628Z" fill="white"/>
</svg>
