<svg width="17" height="17" viewBox="0 0 17 17" fill="none" xmlns="http://www.w3.org/2000/svg">
<rect x="1.28174" y="0.914062" width="15" height="15" rx="7.5" stroke="#0067DD"/>
<path fill-rule="evenodd" clip-rule="evenodd" d="M9.21315 5.34566C9.21315 5.1073 9.01996 4.91406 8.78164 4.91406C8.54333 4.91406 8.35014 5.1073 8.35014 5.34566V9.28991L7.55261 8.49221C7.3841 8.32366 7.11088 8.32366 6.94237 8.49221C6.77386 8.66076 6.77386 8.93403 6.94237 9.10258L8.45928 10.6198C8.46485 10.6261 8.47064 10.6322 8.47664 10.6382C8.64516 10.8068 8.91837 10.8068 9.08689 10.6382L10.6211 9.10364C10.7896 8.93509 10.7896 8.66182 10.6211 8.49327C10.4526 8.32472 10.1794 8.32472 10.0109 8.49327L9.21315 9.29118L9.21315 5.34566ZM11.8502 11.9141C12.0885 11.9141 12.2817 11.7208 12.2817 11.4825C12.2817 11.2441 12.0885 11.0509 11.8502 11.0509H5.71324C5.47493 11.0509 5.28174 11.2441 5.28174 11.4825C5.28174 11.7208 5.47493 11.9141 5.71324 11.9141H11.8502Z" fill="#0067DD"/>
</svg>
