<svg width="17" height="17" viewBox="0 0 17 17" fill="none" xmlns="http://www.w3.org/2000/svg">
<path opacity="0.5" d="M8.5 16C4.36914 16 1 12.6309 1 8.5C1 4.33984 4.36914 0.999999 8.5 0.999999C12.6602 1 16 4.33984 16 8.5C16 12.6309 12.6602 16 8.5 16ZM4.80859 8.76367C4.7207 8.93945 4.7793 9.14453 4.89648 9.29101L8.17773 12.5723C8.35352 12.748 8.67578 12.748 8.85156 12.5723L12.1328 9.29101C12.25 9.14453 12.3086 8.93945 12.2207 8.76367C12.1621 8.58789 11.9863 8.5 11.7813 8.5L9.90625 8.5L9.90625 5.6875C9.90625 5.16015 9.49609 4.75 8.96875 4.75L8.03125 4.75C7.5332 4.75 7.09375 5.16015 7.09375 5.6875L7.09375 8.5L5.21875 8.5C5.04297 8.5 4.86719 8.58789 4.80859 8.76367Z" fill="#F15B2B" stroke="#F15B2B"/>
<path d="M8.5 16C4.36914 16 1 12.6309 1 8.5C1 4.33984 4.36914 0.999999 8.5 0.999999C12.6602 1 16 4.33984 16 8.5C16 12.6309 12.6602 16 8.5 16ZM4.80859 8.76367C4.7207 8.93945 4.7793 9.14453 4.89648 9.29101L8.17773 12.5723C8.35352 12.748 8.67578 12.748 8.85156 12.5723L12.1328 9.29101C12.25 9.14453 12.3086 8.93945 12.2207 8.76367C12.1621 8.58789 11.9863 8.5 11.7813 8.5L9.90625 8.5L9.90625 5.6875C9.90625 5.16015 9.49609 4.75 8.96875 4.75L8.03125 4.75C7.5332 4.75 7.09375 5.16015 7.09375 5.6875L7.09375 8.5L5.21875 8.5C5.04297 8.5 4.86719 8.58789 4.80859 8.76367Z" stroke="#F15B2B"/>
</svg>
