<svg width="32" height="32" viewBox="0 0 32 32" fill="none" xmlns="http://www.w3.org/2000/svg">
<rect width="32" height="32" rx="16" fill="#000A16" fill-opacity="0.12"/>
<path d="M17.5 17.5H14.5C11.4375 17.5 9 19.9688 9 23C9 23.5625 9.4375 24 10 24H22C22.5312 24 23 23.5625 23 23C23 19.9688 20.5312 17.5 17.5 17.5ZM10.5 22.5C10.75 20.5312 12.4375 19 14.5 19H17.5C19.5312 19 21.2188 20.5312 21.4688 22.5H10.5ZM16 16C18.1875 16 20 14.2188 20 12C20 9.8125 18.1875 8 16 8C13.7812 8 12 9.8125 12 12C12 14.2188 13.7812 16 16 16ZM16 9.5C17.375 9.5 18.5 10.625 18.5 12C18.5 13.4062 17.375 14.5 16 14.5C14.5938 14.5 13.5 13.4062 13.5 12C13.5 10.625 14.5938 9.5 16 9.5Z" fill="#000A16" fill-opacity="0.4"/>
</svg>
