<svg width="107" height="19" viewBox="0 0 107 19" fill="none" xmlns="http://www.w3.org/2000/svg">
<path d="M106.45 5.13135L101.04 18.23H98.8493L100.98 13.0694L97.7163 5.13135H100.024L102.127 10.82L104.259 5.13135H106.45Z" fill="#376BFC"/>
<path d="M96.4184 13.8631H94.3303V2.52808H96.4166C96.4166 7.34223 96.4166 12.3195 96.4166 13.8613L96.4184 13.8631Z" fill="#376BFC"/>
<path d="M82.0216 9.40652C82.0216 9.38819 82.0216 9.37169 82.0216 9.35336C82.0216 9.32586 82.0216 9.29836 82.018 9.27269C81.9006 6.96645 79.994 5.13135 77.6585 5.13135C75.3229 5.13135 73.3576 7.02328 73.2935 9.37902C73.2935 9.41935 73.2935 9.45785 73.2935 9.49818C73.2935 9.54218 73.2935 9.58618 73.2935 9.63018C73.3631 11.9804 75.2899 13.865 77.6585 13.865C79.3671 13.865 80.8465 12.8824 81.5633 11.4524L79.4459 10.9593L79.4184 10.9465C79.0004 11.4543 78.3679 11.7769 77.6585 11.7769C76.8995 11.7769 76.2285 11.4066 75.8124 10.8365C75.6804 10.655 75.574 10.4515 75.5007 10.2333H81.963C81.9978 10.0317 82.018 9.8245 82.0235 9.61368C82.0235 9.57518 82.0235 9.53852 82.0235 9.50368C82.0235 9.47252 82.0235 9.44135 82.0235 9.41019L82.0216 9.40652ZM75.5484 8.63105C75.8894 7.80241 76.7052 7.2176 77.6566 7.2176C78.6081 7.2176 79.4257 7.80241 79.7649 8.63105H75.5465H75.5484Z" fill="white"/>
<path d="M92.0552 2.52991H89.9671V6.26977C89.3108 5.61529 88.4253 5.19364 87.439 5.13864C86.6819 5.18264 85.9761 5.41913 85.3711 5.79862C85.3528 5.80962 85.3363 5.82062 85.318 5.83162C85.296 5.84628 85.274 5.86095 85.252 5.87561C85.2006 5.91045 85.1511 5.94528 85.1016 5.98011C85.0906 5.98744 85.0815 5.99478 85.0705 6.00394C85.0485 6.02044 85.0265 6.03877 85.0026 6.05527C84.8596 6.16894 84.724 6.28993 84.5956 6.42009C84.1978 6.82341 83.8862 7.28906 83.6607 7.81887C83.6094 7.93987 83.5635 8.0627 83.5232 8.18736C83.5232 8.19103 83.5232 8.19286 83.5195 8.19653C83.5067 8.23869 83.4939 8.28269 83.481 8.32486C83.4682 8.36702 83.4572 8.41102 83.4462 8.45502C83.4169 8.57418 83.393 8.69517 83.3729 8.818C83.3509 8.961 83.3362 9.10583 83.327 9.25249V9.25615C83.3234 9.30565 83.3215 9.35515 83.3215 9.40648C83.3215 9.44498 83.3215 9.48165 83.3215 9.52014C83.3215 9.54948 83.3215 9.57881 83.3215 9.60814C83.382 11.9676 85.3125 13.8613 87.6865 13.8613C87.9945 13.8613 88.2952 13.8301 88.5867 13.7678C89.0817 13.6633 89.5473 13.4763 89.9653 13.2197V13.8613H90.0166H92.0534V2.52991H92.0552ZM89.5748 10.8053C89.1641 11.4066 88.4748 11.8007 87.6902 11.8007C86.4711 11.8007 85.4756 10.8438 85.4133 9.63931C85.4133 9.62464 85.4133 9.60997 85.4133 9.59531C85.4133 9.57148 85.4133 9.54764 85.4133 9.52198C85.4133 9.49814 85.4133 9.47615 85.4133 9.45415C85.4481 8.22769 86.4546 7.24323 87.6902 7.24323C88.4638 7.24323 89.1495 7.63005 89.5601 8.22036C89.8076 8.57418 89.9561 9.00133 89.9671 9.46331V9.58247C89.9561 10.0353 89.8131 10.4551 89.573 10.8053H89.5748Z" fill="white"/>
<path d="M71.99 5.13135H69.9038V6.2698C69.2475 5.61533 68.3602 5.19368 67.3739 5.13868C66.6167 5.18268 65.9109 5.41917 65.3059 5.79866C65.2876 5.80966 65.2711 5.82065 65.2528 5.83165C65.2308 5.84632 65.2088 5.86099 65.1868 5.87565C65.1354 5.91048 65.0859 5.94532 65.0364 5.98015C65.0254 5.98748 65.0163 5.99482 65.0053 6.00398C64.9833 6.02048 64.9613 6.03881 64.9375 6.05531C64.7945 6.16897 64.6588 6.28997 64.5305 6.42013C64.1327 6.82345 63.821 7.2891 63.5955 7.81891C63.5442 7.93991 63.4983 8.06274 63.458 8.1874C63.458 8.19107 63.458 8.1929 63.4543 8.19657C63.4415 8.23873 63.4287 8.28273 63.4158 8.32489C63.403 8.36706 63.392 8.41106 63.381 8.45506C63.3517 8.57422 63.3278 8.69521 63.3077 8.81804C63.2857 8.96104 63.271 9.10586 63.2618 9.25436C63.2582 9.30569 63.2563 9.35519 63.2563 9.40652C63.2563 9.44502 63.2563 9.48168 63.2563 9.52018C63.2563 9.54951 63.2563 9.57885 63.2563 9.60818C63.3168 11.9676 65.2473 13.8614 67.6213 13.8614C67.9293 13.8614 68.23 13.8302 68.5215 13.7679C69.0366 13.6597 69.5206 13.4599 69.9514 13.1885V13.8614C69.9514 13.8779 69.9514 13.8944 69.9514 13.909C69.9258 15.174 68.8918 16.1896 67.6232 16.1896C66.6277 16.1896 65.7771 15.5645 65.4453 14.6863C65.4324 14.6662 65.4196 14.646 65.4086 14.6258L63.4323 15.0915C63.4818 15.2601 63.5423 15.4251 63.6102 15.5865C64.2793 17.1411 65.8229 18.2282 67.6232 18.2282C69.9643 18.2282 71.8764 16.3839 71.9845 14.0685C71.9864 14.0337 71.9882 13.9988 71.9882 13.964C71.9882 13.9292 71.9882 13.8962 71.9882 13.8614V5.13135H71.99ZM69.9038 9.55318C69.8983 10.017 69.7534 10.4478 69.5096 10.8053C69.099 11.4066 68.4097 11.8008 67.625 11.8008C66.4059 11.8008 65.4104 10.8438 65.3481 9.63934C65.3481 9.62468 65.3481 9.61001 65.3481 9.59535C65.3481 9.57151 65.3481 9.54768 65.3481 9.52201C65.3481 9.49818 65.3481 9.47618 65.3481 9.45418C65.3829 8.22773 66.3894 7.24327 67.625 7.24327C68.3987 7.24327 69.0843 7.63009 69.4949 8.2204C69.7479 8.58155 69.8964 9.0197 69.9038 9.49268C69.9038 9.50185 69.9038 9.51285 69.9038 9.52385C69.9038 9.53485 69.9038 9.54401 69.9038 9.55318Z" fill="white"/>
<path d="M31.8617 9.41018C31.8617 9.39185 31.8617 9.37535 31.8617 9.35702C31.8617 9.32952 31.8617 9.30202 31.858 9.27635C31.7407 6.97011 29.8341 5.13501 27.4985 5.13501C25.163 5.13501 23.1977 7.02694 23.1335 9.38268C23.1335 9.42302 23.1335 9.46151 23.1335 9.50185C23.1335 9.54584 23.1335 9.58984 23.1335 9.63384C23.2032 11.9841 25.13 13.8687 27.4985 13.8687C29.2071 13.8687 30.6866 12.8861 31.4034 11.4561L29.286 10.963L29.2585 10.9501C28.8405 11.4579 28.208 11.7806 27.4985 11.7806C26.7396 11.7806 26.0686 11.4103 25.6525 10.8401C25.5205 10.6586 25.4141 10.4551 25.3408 10.237H31.8031C31.8379 10.0353 31.8581 9.82817 31.8636 9.61734C31.8636 9.57884 31.8636 9.54218 31.8636 9.50735C31.8636 9.47618 31.8636 9.44501 31.8636 9.41385L31.8617 9.41018ZM25.3885 8.63471C25.7294 7.80608 26.5453 7.22126 27.4967 7.22126C28.4482 7.22126 29.2658 7.80608 29.605 8.63471H25.3866H25.3885Z" fill="white"/>
<path d="M61.9585 5.13135H59.8723V6.2698C59.216 5.61533 58.3287 5.19368 57.3424 5.13868C56.5852 5.18268 55.8794 5.41917 55.2744 5.79866C55.2561 5.80966 55.2396 5.82065 55.2213 5.83165C55.1993 5.84632 55.1773 5.86099 55.1553 5.87565C55.1039 5.91048 55.0544 5.94532 55.005 5.98015C54.994 5.98748 54.9848 5.99482 54.9738 6.00398C54.9518 6.02048 54.9298 6.03881 54.906 6.05531C54.763 6.16897 54.6273 6.28997 54.499 6.42013C54.1012 6.82345 53.7895 7.2891 53.564 7.81891C53.5127 7.93991 53.4668 8.06274 53.4265 8.1874C53.4265 8.19107 53.4265 8.1929 53.4228 8.19657C53.41 8.23873 53.3972 8.28273 53.3843 8.32489C53.3715 8.36706 53.3605 8.41106 53.3495 8.45506C53.3202 8.57422 53.2964 8.69521 53.2762 8.81804C53.2542 8.96104 53.2395 9.10586 53.2304 9.25253V9.25619C53.2267 9.30569 53.2249 9.35519 53.2249 9.40652C53.2249 9.44502 53.2249 9.48168 53.2249 9.52018C53.2249 9.54951 53.2249 9.57885 53.2249 9.60818C53.2854 11.9676 55.2158 13.8614 57.5899 13.8614C57.8978 13.8614 58.1985 13.8302 58.49 13.7679C58.9868 13.6634 59.4506 13.4764 59.8686 13.2197V13.8595H59.9199H61.9567V5.13135H61.9585ZM59.4781 10.8053C59.0675 11.4066 58.3782 11.8008 57.5935 11.8008C56.3744 11.8008 55.3789 10.8438 55.3166 9.63934C55.3166 9.62468 55.3166 9.61001 55.3166 9.59535C55.3166 9.57151 55.3166 9.54768 55.3166 9.52201C55.3166 9.49818 55.3166 9.47618 55.3166 9.45418C55.3514 8.22773 56.3579 7.24327 57.5935 7.24327C58.3672 7.24327 59.0528 7.63009 59.4635 8.2204C59.7164 8.58155 59.8649 9.0197 59.8723 9.49268V9.55318C59.8668 10.017 59.7219 10.4478 59.4781 10.8053Z" fill="white"/>
<path d="M51.9251 5.13135H49.8388V6.2698C49.1825 5.61533 48.2952 5.19368 47.3089 5.13868C46.5518 5.18268 45.846 5.41917 45.241 5.79866C45.2227 5.80966 45.2062 5.82065 45.1878 5.83165C45.1658 5.84632 45.1438 5.86099 45.1218 5.87565C45.0705 5.91048 45.021 5.94532 44.9715 5.98015C44.9605 5.98748 44.9513 5.99482 44.9403 6.00398C44.9183 6.02048 44.8963 6.03881 44.8725 6.05531C44.7295 6.16897 44.5939 6.28997 44.4655 6.42013C44.0677 6.82345 43.7561 7.2891 43.5306 7.81891C43.4792 7.93991 43.4334 8.06274 43.3931 8.1874C43.3931 8.19107 43.3931 8.1929 43.3894 8.19657C43.3766 8.23873 43.3637 8.28273 43.3509 8.32489C43.3381 8.36706 43.3271 8.41106 43.3161 8.45506C43.2867 8.57422 43.2629 8.69521 43.2427 8.81804C43.2207 8.96104 43.2061 9.10586 43.1969 9.25436C43.1932 9.30569 43.1914 9.35519 43.1914 9.40652C43.1914 9.44502 43.1914 9.48168 43.1914 9.52018C43.1914 9.54951 43.1914 9.57885 43.1914 9.60818C43.2519 11.9676 45.1823 13.8614 47.5564 13.8614C47.8644 13.8614 48.165 13.8302 48.4565 13.7679C48.9717 13.6597 49.4557 13.4599 49.8865 13.1885V13.8614C49.8865 13.8779 49.8865 13.8944 49.8865 13.909C49.8608 15.174 48.8269 16.1896 47.5582 16.1896C46.5628 16.1896 45.7121 15.5645 45.3803 14.6863C45.3675 14.6662 45.3547 14.646 45.3437 14.6258L43.3674 15.0915C43.4169 15.2601 43.4774 15.4251 43.5452 15.5865C44.2144 17.1411 45.758 18.2282 47.5582 18.2282C49.8993 18.2282 51.8114 16.3839 51.9196 14.0685C51.9214 14.0337 51.9232 13.9988 51.9232 13.964C51.9232 13.9292 51.9232 13.8962 51.9232 13.8614V5.13135H51.9251ZM49.8388 9.55318C49.8333 10.017 49.6885 10.4478 49.4447 10.8053C49.034 11.4066 48.3447 11.8008 47.5601 11.8008C46.341 11.8008 45.3455 10.8438 45.2832 9.63934C45.2832 9.62468 45.2832 9.61001 45.2832 9.59535C45.2832 9.57151 45.2832 9.54768 45.2832 9.52201C45.2832 9.49818 45.2832 9.47618 45.2832 9.45418C45.318 8.22773 46.3245 7.24327 47.5601 7.24327C48.3337 7.24327 49.0194 7.63009 49.43 8.2204C49.683 8.58155 49.8315 9.0197 49.8388 9.49268C49.8388 9.50185 49.8388 9.51285 49.8388 9.52385C49.8388 9.53485 49.8388 9.54401 49.8388 9.55318Z" fill="white"/>
<path d="M41.8935 9.41201C41.8935 9.37718 41.8935 9.34418 41.8898 9.30935C41.8898 9.29285 41.8898 9.27818 41.8861 9.26169C41.8788 9.11319 41.8641 8.96653 41.8421 8.82354C41.8238 8.70071 41.7981 8.57971 41.7688 8.46055C41.7578 8.41655 41.7468 8.37255 41.734 8.33039C41.7211 8.28822 41.7083 8.24422 41.6955 8.20206C41.6955 8.19839 41.6936 8.19656 41.6918 8.19289C41.6515 8.06823 41.6075 7.9454 41.5543 7.82441C41.3288 7.29643 41.0172 6.82894 40.6193 6.42563C40.491 6.29546 40.3554 6.17264 40.2124 6.06081C40.1904 6.04431 40.1684 6.02597 40.1445 6.00947C40.1335 6.00214 40.1244 5.99298 40.1134 5.98564C40.0639 5.94898 40.0144 5.91415 39.963 5.88115C39.941 5.86648 39.919 5.85181 39.897 5.83715C39.8787 5.82615 39.8622 5.81515 39.8439 5.80415C39.2389 5.42283 38.5331 5.18817 37.776 5.14417C36.7897 5.19917 35.9005 5.62082 35.2442 6.2753V5.77848C35.2442 5.56399 35.2442 5.35133 35.2442 5.13684H33.158V13.8687H35.246C35.246 13.1665 35.246 11.5441 35.246 9.56784V9.56051C35.246 9.55134 35.246 9.54034 35.246 9.53118V9.52567C35.246 9.52567 35.246 9.51101 35.246 9.50368C35.2515 9.02886 35.4 8.58888 35.6549 8.22589C36.0655 7.63558 36.7512 7.24876 37.5248 7.24876C38.7604 7.24876 39.7669 8.23322 39.8017 9.45968C39.8017 9.48168 39.8017 9.50368 39.8017 9.52751V13.8668H41.888V9.52751C41.888 9.48901 41.888 9.45234 41.888 9.41385L41.8935 9.41201Z" fill="white"/>
<path d="M12.1303 13.6689C8.65262 14.4902 5.16942 12.6716 3.78164 9.51284C3.79447 9.53668 3.8073 9.56051 3.8238 9.58434C3.80547 9.55318 3.78714 9.52384 3.77247 9.49268C3.75597 9.45601 3.7413 9.41935 3.7248 9.38085C3.7248 9.38085 3.7248 9.37718 3.7248 9.37535C3.72114 9.36618 3.71747 9.35518 3.7138 9.34602C3.70831 9.32952 3.70464 9.31485 3.69914 9.29835C3.69364 9.27819 3.68997 9.25802 3.68447 9.23969C3.68447 9.23969 3.68447 9.23785 3.68447 9.23602C3.67897 9.21402 3.67531 9.19202 3.67347 9.17002C3.67164 9.15352 3.66981 9.13519 3.66797 9.11869C3.66797 9.10586 3.66431 9.09303 3.66431 9.08019C3.66431 9.06003 3.66431 9.0417 3.66431 9.02153C3.66431 8.99953 3.66431 8.97936 3.66614 8.9592C3.66614 8.95553 3.66614 8.9537 3.66614 8.95003C3.66614 8.92987 3.66981 8.91153 3.67164 8.89137C3.67347 8.86937 3.67714 8.8492 3.68081 8.82904C3.68081 8.8272 3.68081 8.82537 3.68081 8.82354C3.68447 8.80337 3.68997 8.78321 3.69364 8.76121C3.70464 8.71904 3.71747 8.67688 3.73397 8.63471C3.7413 8.61454 3.75047 8.59438 3.75964 8.57421C3.77797 8.53571 3.79814 8.49722 3.82197 8.46055C3.8238 8.45688 3.82563 8.45505 3.82747 8.45138C3.83663 8.43855 3.8458 8.42389 3.85497 8.41105C3.8843 8.36889 3.9173 8.32856 3.95213 8.29189C3.96496 8.27722 3.97963 8.26439 3.99429 8.24973C4.01079 8.23323 4.02913 8.21856 4.04563 8.20389C4.06212 8.18923 4.08046 8.17639 4.09879 8.16356C4.11712 8.1489 4.13729 8.13606 4.15745 8.12323C4.17579 8.1104 4.19595 8.0994 4.21429 8.0884L4.23629 8.0774C4.24912 8.07007 4.26378 8.06457 4.27662 8.05723C4.28578 8.05173 4.29495 8.04807 4.30412 8.0444C4.32612 8.03523 4.34811 8.02607 4.36828 8.01873C4.39028 8.0114 4.41045 8.00407 4.43061 7.99857C4.45444 7.99124 4.47644 7.98574 4.50028 7.98207C4.50211 7.98207 4.50394 7.98207 4.50577 7.98207C4.52777 7.97657 4.54977 7.9729 4.57177 7.97107C4.58827 7.9674 4.6066 7.96557 4.62127 7.96557C4.6341 7.96557 4.64877 7.9619 4.6616 7.9619C4.7056 7.96007 4.75143 7.96007 4.7936 7.9619C4.81193 7.9619 4.83026 7.96557 4.85043 7.9674C4.87059 7.96924 4.89076 7.9729 4.91093 7.97657C4.93476 7.98024 4.95859 7.98574 4.98059 7.99124C4.99892 7.99673 5.01726 8.0004 5.03559 8.0059C5.05209 8.0114 5.07042 8.0169 5.08692 8.02423C5.10159 8.0279 5.11442 8.0334 5.12725 8.0389C5.13275 8.04073 5.13825 8.04257 5.14375 8.04623C5.15658 8.0499 5.16758 8.0554 5.18042 8.06273C5.21158 8.0774 5.24275 8.0939 5.27025 8.11223C5.28491 8.1214 5.29958 8.13056 5.31424 8.13973C5.32891 8.1489 5.34174 8.1599 5.35641 8.16906C5.39674 8.20023 5.43707 8.23323 5.47191 8.26989C5.48291 8.28089 5.4939 8.29189 5.5049 8.30472C5.50857 8.30839 5.5104 8.31022 5.51224 8.31389C5.53424 8.33772 5.55257 8.36155 5.57273 8.38722C5.58007 8.39639 5.58557 8.40555 5.59107 8.41472C5.5984 8.42389 5.60573 8.43305 5.61123 8.44405C5.61673 8.45322 5.62407 8.46238 5.62957 8.47155C5.6424 8.49355 5.65523 8.51555 5.66623 8.53571C5.67356 8.54855 5.67906 8.56321 5.6864 8.57605C5.6864 8.57971 5.69006 8.58155 5.69006 8.58521C5.69373 8.59071 5.69556 8.59805 5.69923 8.60355C5.69923 8.60721 5.70106 8.60904 5.7029 8.61271C6.49303 10.4533 8.32263 11.7421 10.4529 11.7421C13.3054 11.7421 15.619 9.42851 15.619 6.57596C15.619 6.47146 15.6154 6.36513 15.6099 6.26063C15.6099 6.25697 15.6099 6.25147 15.6099 6.2478C15.6099 6.2313 15.6099 6.2148 15.6099 6.1983C15.6099 5.61166 16.0865 5.13501 16.6732 5.13501C17.2231 5.13501 17.6759 5.55299 17.7309 6.08831C17.7328 6.11214 17.7346 6.13597 17.7364 6.1598V6.1653C17.9363 9.63384 15.6264 12.8476 12.1303 13.6744V13.6689Z" fill="#376BFC"/>
<path d="M6.98257 5.04331C7.29423 5.54012 7.1439 6.19643 6.64709 6.50809C6.41426 6.65475 6.14477 6.69875 5.89545 6.65475L5.87528 6.65108L5.81662 6.63825L5.79645 6.63275L3.33071 6.0681L3.17122 6.03144L2.79906 5.94711L2.67623 6.47875L2.10976 8.94449L2.10609 8.96466L2.09326 9.02332L2.08776 9.04349C2.01809 9.28915 1.86227 9.51097 1.62761 9.6558C1.13079 9.96745 0.474484 9.81713 0.162829 9.32031C0.0088351 9.07466 -0.03333 8.78867 0.0253345 8.52651L0.029001 8.50818L0.129831 8.07369L0.965799 4.43466C1.0263 4.16884 1.18762 3.92685 1.43695 3.77102C1.68627 3.61519 1.97409 3.57486 2.23992 3.63536L5.87895 4.4695L6.32993 4.57216C6.59209 4.63449 6.83041 4.79582 6.98441 5.04147L6.98257 5.04331Z" fill="#E84FAB"/>
<path d="M21.1793 4.50433C21.1793 5.09097 20.7027 5.56762 20.116 5.56762C19.8227 5.56762 19.5569 5.44846 19.3644 5.25597L16.6732 2.56474L13.9819 5.25597C13.7894 5.44846 13.5236 5.56762 13.2303 5.56762C12.6436 5.56762 12.167 5.09097 12.167 4.50433C12.167 4.22934 12.2715 3.97818 12.4438 3.78936L12.4585 3.77469L12.497 3.73619L12.5006 3.73253L12.5153 3.71786L15.9215 0.311655C16.114 0.119162 16.3798 0 16.6732 0C16.9665 0 17.2323 0.119162 17.4248 0.311655L20.831 3.71786L20.8457 3.73253L20.886 3.77469L20.9007 3.78936C21.073 3.97818 21.1775 4.22934 21.1775 4.50433H21.1793Z" fill="#E84FAB"/>
</svg>
