<svg width="136" height="90" viewBox="0 0 136 90" fill="none" xmlns="http://www.w3.org/2000/svg">
<path d="M77.8942 87.7712C55.5628 93.045 33.196 81.3672 24.2847 61.0841C24.3671 61.2371 24.4495 61.3902 24.5554 61.5432C24.4377 61.3431 24.32 61.1547 24.2258 60.9546C24.1198 60.7192 24.0257 60.4837 23.9197 60.2365C23.9197 60.2365 23.9197 60.213 23.9197 60.2012C23.8962 60.1424 23.8726 60.0717 23.8491 60.0129C23.8138 59.9069 23.7902 59.8127 23.7549 59.7068C23.7196 59.5773 23.6961 59.4478 23.6607 59.3301C23.6607 59.3301 23.6607 59.3183 23.6607 59.3065C23.6254 59.1653 23.6019 59.024 23.5901 58.8828C23.5783 58.7768 23.5666 58.6591 23.5548 58.5531C23.5548 58.4707 23.5312 58.3883 23.5312 58.3059C23.5312 58.1764 23.5312 58.0587 23.5312 57.9292C23.5312 57.788 23.5313 57.6585 23.543 57.529C23.543 57.5054 23.543 57.4937 23.543 57.4701C23.543 57.3406 23.5666 57.2229 23.5783 57.0934C23.5901 56.9522 23.6137 56.8227 23.6372 56.6932C23.6372 56.6814 23.6372 56.6696 23.6372 56.6579C23.6607 56.5284 23.6961 56.3989 23.7196 56.2576C23.7902 55.9869 23.8726 55.7161 23.9786 55.4453C24.0257 55.3158 24.0845 55.1864 24.1434 55.0569C24.2611 54.8097 24.3906 54.5624 24.5436 54.327C24.5554 54.3035 24.5672 54.2917 24.579 54.2681C24.6378 54.1857 24.6967 54.0916 24.7555 54.0092C24.9439 53.7384 25.1558 53.4794 25.3794 53.244C25.4619 53.1498 25.556 53.0674 25.6502 52.9732C25.7562 52.8673 25.8739 52.7731 25.9798 52.6789C26.0858 52.5848 26.2035 52.5023 26.3212 52.4199C26.4389 52.3258 26.5684 52.2434 26.6979 52.161C26.8156 52.0786 26.9451 52.0079 27.0628 51.9373L27.2041 51.8667C27.2865 51.8196 27.3807 51.7843 27.4631 51.7372C27.5219 51.7019 27.5808 51.6783 27.6397 51.6548C27.7809 51.5959 27.9222 51.537 28.0517 51.49C28.193 51.4429 28.3224 51.3958 28.4519 51.3605C28.605 51.3134 28.7462 51.2781 28.8993 51.2545C28.911 51.2545 28.9228 51.2545 28.9346 51.2545C29.0758 51.2192 29.2171 51.1957 29.3584 51.1839C29.4643 51.1603 29.582 51.1486 29.6762 51.1486C29.7586 51.1486 29.8528 51.125 29.9352 51.125C30.2177 51.1133 30.512 51.1133 30.7828 51.125C30.9005 51.125 31.0182 51.1486 31.1477 51.1603C31.2772 51.1721 31.4067 51.1957 31.5362 51.2192C31.6892 51.2427 31.8423 51.2781 31.9835 51.3134C32.1012 51.3487 32.219 51.3722 32.3367 51.4076C32.4426 51.4429 32.5604 51.4782 32.6663 51.5253C32.7605 51.5488 32.8429 51.5841 32.9253 51.6194C32.9606 51.6312 32.9959 51.643 33.0312 51.6665C33.1136 51.6901 33.1843 51.7254 33.2667 51.7725C33.4668 51.8667 33.6669 51.9726 33.8435 52.0903C33.9377 52.1492 34.0318 52.2081 34.126 52.2669C34.2202 52.3258 34.3026 52.3964 34.3968 52.4553C34.6558 52.6554 34.9147 52.8673 35.1384 53.1027C35.209 53.1734 35.2797 53.244 35.3503 53.3264C35.3739 53.3499 35.3856 53.3617 35.3974 53.3852C35.5387 53.5383 35.6564 53.6913 35.7859 53.8561C35.833 53.915 35.8683 53.9738 35.9036 54.0327C35.9507 54.0916 35.9978 54.1504 36.0331 54.2211C36.0684 54.2799 36.1155 54.3388 36.1508 54.3976C36.2332 54.5389 36.3156 54.6802 36.3862 54.8097C36.4333 54.8921 36.4686 54.9862 36.5157 55.0686C36.5157 55.0922 36.5393 55.104 36.5393 55.1275C36.5628 55.1628 36.5746 55.2099 36.5981 55.2452C36.5981 55.2688 36.6099 55.2805 36.6217 55.3041C41.6954 67.1231 53.4438 75.3988 67.1229 75.3988C85.44 75.3988 100.296 60.5426 100.296 42.2254C100.296 41.5544 100.273 40.8716 100.237 40.2006C100.237 40.1771 100.237 40.1418 100.237 40.1182C100.237 40.0123 100.237 39.9063 100.237 39.8004C100.237 36.0334 103.298 32.9727 107.065 32.9727C110.597 32.9727 113.504 35.6567 113.858 39.0941C113.869 39.2471 113.881 39.4001 113.893 39.5532V39.5885C115.176 61.8611 100.343 82.4973 77.8942 87.8065V87.7712Z" fill="#376BFC"/>
<path d="M44.8373 32.3841C46.8385 35.5743 45.8732 39.7887 42.683 41.7899C41.188 42.7317 39.4575 43.0142 37.8565 42.7317L37.727 42.7081L37.3503 42.6257L37.2208 42.5904L21.3875 38.9646L20.3634 38.7292L17.9737 38.1877L17.1849 41.6016L13.5474 57.4349L13.5239 57.5644L13.4415 57.9411L13.4061 58.0706C12.9588 59.648 11.9582 61.0724 10.4514 62.0024C7.26118 64.0036 3.04681 63.0383 1.04558 59.8481C0.056733 58.2707 -0.214022 56.4342 0.162681 54.7509L0.186225 54.6331L0.833683 51.8432L6.2017 28.4758C6.59018 26.7689 7.62611 25.215 9.2271 24.2144C10.8281 23.2138 12.6763 22.9548 14.3832 23.3432L37.7506 28.6995L40.6465 29.3587C42.3299 29.759 43.8602 30.7949 44.8491 32.3723L44.8373 32.3841Z" fill="#E84FAB"/>
<path d="M136 28.9237C136 32.6907 132.939 35.7515 129.172 35.7515C127.289 35.7515 125.582 34.9863 124.346 33.7502L107.064 16.469L89.7832 33.7502C88.5471 34.9863 86.8402 35.7515 84.9567 35.7515C81.1896 35.7515 78.1289 32.6907 78.1289 28.9237C78.1289 27.1579 78.7999 25.5452 79.9065 24.3327L80.0007 24.2385L80.2479 23.9913L80.2714 23.9677L80.3656 23.8735L102.238 2.00123C103.474 0.765178 105.181 0 107.064 0C108.948 0 110.655 0.765178 111.891 2.00123L133.763 23.8735L133.857 23.9677L134.116 24.2385L134.211 24.3327C135.317 25.5452 135.988 27.1579 135.988 28.9237H136Z" fill="#E84FAB"/>
</svg>
