<svg width="213" height="61" viewBox="0 0 213 61" fill="none" xmlns="http://www.w3.org/2000/svg">
<path d="M33.2504 56.187H36.1091V57.5465H31.5117V48.9922H33.2504V56.187Z" fill="#050B19"/>
<path d="M43.5561 54.6654H38.5275C38.5697 55.1555 38.7431 55.5393 39.0477 55.8167C39.3524 56.0942 39.732 56.2329 40.1772 56.2329C40.8239 56.2329 41.2832 55.9601 41.555 55.4098H43.4296C43.2328 56.0618 42.8485 56.5982 42.2861 57.019C41.7237 57.4398 41.0301 57.6478 40.21 57.6478C39.5492 57.6478 38.954 57.5045 38.4291 57.2132C37.9042 56.9219 37.4918 56.515 37.2013 55.9832C36.906 55.4515 36.7607 54.8411 36.7607 54.1475C36.7607 53.4539 36.906 52.8297 37.1966 52.2979C37.4871 51.7662 37.8902 51.3593 38.4151 51.0726C38.9353 50.7859 39.5351 50.6426 40.2147 50.6426C40.8942 50.6426 41.4566 50.7813 41.9721 51.0587C42.4876 51.3362 42.8906 51.7292 43.1765 52.2425C43.4624 52.7511 43.603 53.3383 43.603 53.9995C43.603 54.2446 43.5842 54.4666 43.5514 54.6608L43.5561 54.6654ZM41.8034 53.514C41.794 53.0748 41.6347 52.7187 41.3207 52.4552C41.0067 52.1916 40.6224 52.0575 40.1678 52.0575C39.7366 52.0575 39.3758 52.187 39.0805 52.4413C38.7853 52.7002 38.6072 53.0563 38.5416 53.514H41.8081H41.8034Z" fill="#050B19"/>
<path d="M47.7408 55.9653L49.4795 50.7588H51.3306L48.7859 57.5467H46.677L44.1416 50.7588H46.0068L47.7455 55.9653H47.7408Z" fill="#050B19"/>
<path d="M58.6557 54.6654H53.6271C53.6693 55.1555 53.8427 55.5393 54.1473 55.8167C54.452 56.0942 54.8316 56.2329 55.2768 56.2329C55.9235 56.2329 56.3828 55.9601 56.6546 55.4098H58.5292C58.3324 56.0618 57.9481 56.5982 57.3857 57.019C56.8233 57.4398 56.1297 57.6478 55.3096 57.6478C54.6488 57.6478 54.0536 57.5045 53.5287 57.2132C53.0038 56.9219 52.5914 56.515 52.3009 55.9832C52.0056 55.4515 51.8604 54.8411 51.8604 54.1475C51.8604 53.4539 52.0056 52.8297 52.2962 52.2979C52.5868 51.7662 52.9898 51.3593 53.5147 51.0726C54.0349 50.7859 54.6347 50.6426 55.3143 50.6426C55.9938 50.6426 56.5562 50.7813 57.0717 51.0587C57.5872 51.3362 57.9903 51.7292 58.2761 52.2425C58.562 52.7511 58.7026 53.3383 58.7026 53.9995C58.7026 54.2446 58.6839 54.4666 58.651 54.6608L58.6557 54.6654ZM56.903 53.514C56.8936 53.0748 56.7343 52.7187 56.4203 52.4552C56.1063 52.1916 55.722 52.0575 55.2674 52.0575C54.8363 52.0575 54.4754 52.187 54.1802 52.4413C53.8849 52.7002 53.7068 53.0563 53.6412 53.514H56.9077H56.903Z" fill="#050B19"/>
<path d="M61.7113 48.4785V57.546H59.9727V48.4785H61.7113Z" fill="#050B19"/>
<path d="M68.0943 48.9922V54.2866C68.0943 54.8646 68.249 55.3085 68.5536 55.6183C68.8582 55.9281 69.2894 56.076 69.8471 56.076C70.4048 56.076 70.8453 55.9235 71.1499 55.6183C71.4545 55.3131 71.6092 54.8692 71.6092 54.2866V48.9922H73.3619V54.2727C73.3619 54.9987 73.2026 55.6137 72.8839 56.1177C72.5652 56.6217 72.1388 56.9962 71.6045 57.2505C71.0702 57.5048 70.4751 57.6297 69.8237 57.6297C69.1722 57.6297 68.5911 57.5048 68.0662 57.2505C67.5413 56.9962 67.1242 56.6217 66.8196 56.1177C66.515 55.6137 66.3604 54.9987 66.3604 54.2727V48.9922H68.099H68.0943Z" fill="#050B19"/>
<path d="M77.702 50.9619C78.0956 50.7538 78.5455 50.6475 79.0517 50.6475C79.6375 50.6475 80.1717 50.7908 80.6497 51.0775C81.1278 51.3642 81.5027 51.7711 81.7792 52.2982C82.0557 52.8253 82.1963 53.4357 82.1963 54.1293C82.1963 54.8229 82.0557 55.4379 81.7792 55.9742C81.5027 56.5106 81.1231 56.9221 80.6497 57.2181C80.1717 57.514 79.6422 57.6573 79.0517 57.6573C78.5455 57.6573 78.1003 57.5556 77.716 57.3521C77.3317 57.1487 77.0177 56.8898 76.7787 56.58V60.7831H75.04V50.7584H76.7787V51.7387C77.0037 51.4289 77.313 51.17 77.702 50.9619ZM80.1624 53.0704C79.9936 52.7698 79.7687 52.5433 79.4922 52.3907C79.2157 52.2381 78.9158 52.1595 78.5924 52.1595C78.269 52.1595 77.9831 52.2381 77.7066 52.3999C77.4301 52.5571 77.2052 52.7883 77.0365 53.0935C76.8678 53.3941 76.7834 53.7501 76.7834 54.1616C76.7834 54.5732 76.8678 54.9246 77.0365 55.2298C77.2052 55.5303 77.4301 55.7615 77.7066 55.9234C77.9831 56.0806 78.2784 56.1638 78.5924 56.1638C78.9064 56.1638 79.2157 56.0806 79.4922 55.9187C79.7687 55.7569 79.9936 55.5211 80.1624 55.2205C80.3311 54.92 80.4154 54.5593 80.4154 54.1431C80.4154 53.727 80.3311 53.3802 80.1624 53.0843V53.0704Z" fill="#050B19"/>
<path d="M93.3076 48.9922L90.3786 54.5686V57.5465H88.6399V54.5686L85.6968 48.9922H87.6604L89.5209 52.8994L91.3721 48.9922H93.3076Z" fill="#050B19"/>
<path d="M94.6431 57.222C94.1135 56.9307 93.6964 56.5238 93.3965 55.992C93.0919 55.4603 92.9419 54.8499 92.9419 54.1563C92.9419 53.4627 93.0965 52.8477 93.4059 52.316C93.7152 51.7842 94.1416 51.3727 94.6806 51.086C95.2195 50.7947 95.8194 50.6514 96.4802 50.6514C97.141 50.6514 97.7408 50.7947 98.2798 51.086C98.8187 51.3773 99.2405 51.7842 99.5545 52.316C99.8638 52.8477 100.018 53.4581 100.018 54.1563C100.018 54.8545 99.8591 55.4649 99.5404 55.992C99.2218 56.5238 98.7906 56.9353 98.247 57.222C97.7033 57.5133 97.0988 57.6566 96.4286 57.6566C95.7585 57.6566 95.168 57.5133 94.6384 57.222H94.6431ZM97.3191 55.9365C97.5956 55.7839 97.8158 55.5574 97.9845 55.2568C98.1486 54.9562 98.2329 54.5863 98.2329 54.1563C98.2329 53.509 98.0595 53.0142 97.7174 52.6674C97.3753 52.3206 96.9535 52.1449 96.4567 52.1449C95.96 52.1449 95.5429 52.3206 95.2101 52.6674C94.8774 53.0142 94.7087 53.509 94.7087 54.1563C94.7087 54.8037 94.8727 55.2984 95.2008 55.6452C95.5288 55.992 95.9412 56.1677 96.438 56.1677C96.752 56.1677 97.0472 56.0937 97.3237 55.9411L97.3191 55.9365Z" fill="#050B19"/>
<path d="M107.794 50.7588V57.5467H106.041V56.6913C105.816 56.9872 105.525 57.2184 105.165 57.3849C104.804 57.5513 104.415 57.6346 103.993 57.6346C103.454 57.6346 102.981 57.5236 102.564 57.297C102.151 57.0704 101.823 56.7421 101.589 56.3029C101.354 55.8682 101.237 55.3457 101.237 54.74V50.7588H102.976V54.4949C102.976 55.0359 103.112 55.4474 103.384 55.7388C103.656 56.0301 104.03 56.1734 104.499 56.1734C104.968 56.1734 105.357 56.0301 105.629 55.7388C105.9 55.4474 106.036 55.0359 106.036 54.4949V50.7588H107.789H107.794Z" fill="#050B19"/>
<path d="M112.124 50.9663C112.485 50.7629 112.897 50.6611 113.361 50.6611V52.4645H112.902C112.353 52.4645 111.941 52.5893 111.665 52.8436C111.388 53.0979 111.247 53.5372 111.247 54.1661V57.5462H109.509V50.7582H111.247V51.8125C111.472 51.4518 111.763 51.1698 112.124 50.9663Z" fill="#050B19"/>
<path d="M129.065 48.9922L126.642 57.5465H124.594L122.968 51.4567L121.267 57.5465L119.228 57.5603L116.895 48.9968H118.755L120.283 55.6368L122.045 48.9968H123.98L125.644 55.5998L127.186 48.9968H129.061L129.065 48.9922Z" fill="#050B19"/>
<path d="M130.996 57.222C130.467 56.9307 130.049 56.5238 129.749 55.992C129.445 55.4603 129.295 54.8499 129.295 54.1563C129.295 53.4627 129.45 52.8477 129.759 52.316C130.068 51.7842 130.495 51.3727 131.034 51.086C131.573 50.7947 132.172 50.6514 132.833 50.6514C133.494 50.6514 134.094 50.7947 134.633 51.086C135.172 51.3773 135.594 51.7842 135.908 52.316C136.217 52.8477 136.371 53.4581 136.371 54.1563C136.371 54.8545 136.212 55.4649 135.893 55.992C135.575 56.5238 135.144 56.9353 134.6 57.222C134.056 57.5133 133.452 57.6566 132.782 57.6566C132.111 57.6566 131.521 57.5133 130.991 57.222H130.996ZM133.672 55.9365C133.949 55.7839 134.169 55.5574 134.338 55.2568C134.502 54.9562 134.586 54.5863 134.586 54.1563C134.586 53.509 134.413 53.0142 134.07 52.6674C133.728 52.3206 133.307 52.1449 132.81 52.1449C132.313 52.1449 131.896 52.3206 131.563 52.6674C131.23 53.0142 131.062 53.509 131.062 54.1563C131.062 54.8037 131.226 55.2984 131.554 55.6452C131.882 55.992 132.294 56.1677 132.791 56.1677C133.105 56.1677 133.4 56.0937 133.677 55.9411L133.672 55.9365Z" fill="#050B19"/>
<path d="M140.266 50.9663C140.627 50.7629 141.04 50.6611 141.504 50.6611V52.4645H141.044C140.496 52.4645 140.084 52.5893 139.807 52.8436C139.531 53.0979 139.39 53.5372 139.39 54.1661V57.5462H137.651V50.7582H139.39V51.8125C139.615 51.4518 139.906 51.1698 140.266 50.9663Z" fill="#050B19"/>
<path d="M146.743 57.546L144.409 54.6561V57.546H142.67V48.4785H144.409V53.6388L146.72 50.7581H148.978L145.946 54.1659L149.002 57.546H146.743Z" fill="#050B19"/>
<path d="M153.543 52.1692H152.338V57.5468H150.576V52.1692H149.793V50.7589H150.576V50.4167C150.576 49.5844 150.815 48.9694 151.298 48.5764C151.781 48.1834 152.502 47.9984 153.472 48.0262V49.4734C153.051 49.4642 152.755 49.5336 152.591 49.6815C152.427 49.8295 152.343 50.093 152.343 50.4768V50.7589H153.547V52.1692H153.543Z" fill="#050B19"/>
<path d="M155.942 57.222C155.413 56.9307 154.996 56.5238 154.696 55.992C154.391 55.4603 154.241 54.8499 154.241 54.1563C154.241 53.4627 154.396 52.8477 154.705 52.316C155.014 51.7842 155.441 51.3727 155.98 51.086C156.519 50.7947 157.119 50.6514 157.78 50.6514C158.44 50.6514 159.04 50.7947 159.579 51.086C160.118 51.3773 160.54 51.7842 160.854 52.316C161.163 52.8477 161.318 53.4581 161.318 54.1563C161.318 54.8545 161.158 55.4649 160.84 55.992C160.521 56.5238 160.09 56.9353 159.546 57.222C159.003 57.5133 158.398 57.6566 157.728 57.6566C157.058 57.6566 156.467 57.5133 155.938 57.222H155.942ZM158.618 55.9365C158.895 55.7839 159.115 55.5574 159.284 55.2568C159.448 54.9562 159.532 54.5863 159.532 54.1563C159.532 53.509 159.359 53.0142 159.017 52.6674C158.675 52.3206 158.253 52.1449 157.756 52.1449C157.259 52.1449 156.842 52.3206 156.509 52.6674C156.177 53.0142 156.008 53.509 156.008 54.1563C156.008 54.8037 156.172 55.2984 156.5 55.6452C156.828 55.992 157.241 56.1677 157.737 56.1677C158.051 56.1677 158.347 56.0937 158.623 55.9411L158.618 55.9365Z" fill="#050B19"/>
<path d="M165.212 50.9663C165.573 50.7629 165.985 50.6611 166.449 50.6611V52.4645H165.99C165.442 52.4645 165.029 52.5893 164.753 52.8436C164.476 53.0979 164.336 53.5372 164.336 54.1661V57.5462H162.597V50.7582H164.336V51.8125C164.561 51.4518 164.851 51.1698 165.212 50.9663Z" fill="#050B19"/>
<path d="M167.602 52.3074C167.893 51.7803 168.296 51.3734 168.806 51.0821C169.322 50.7908 169.908 50.6475 170.569 50.6475C171.422 50.6475 172.129 50.8602 172.687 51.2763C173.245 51.6971 173.619 52.289 173.812 53.0473H171.937C171.839 52.7513 171.67 52.5248 171.436 52.3537C171.201 52.1872 170.906 52.104 170.559 52.104C170.062 52.104 169.669 52.2797 169.378 52.6358C169.088 52.9918 168.942 53.4958 168.942 54.1478C168.942 54.7997 169.088 55.2945 169.378 55.6505C169.669 56.0066 170.062 56.1823 170.559 56.1823C171.262 56.1823 171.721 55.8725 171.937 55.2529H173.812C173.619 55.9881 173.245 56.5707 172.682 57.0054C172.12 57.44 171.417 57.6527 170.573 57.6527C169.912 57.6527 169.322 57.5094 168.811 57.2181C168.3 56.9268 167.897 56.5198 167.607 55.9927C167.316 55.4656 167.171 54.8506 167.171 54.1478C167.171 53.4449 167.316 52.83 167.607 52.3028L167.602 52.3074Z" fill="#050B19"/>
<path d="M181.437 54.6654H176.408C176.451 55.1555 176.624 55.5393 176.929 55.8167C177.233 56.0942 177.613 56.2329 178.058 56.2329C178.705 56.2329 179.164 55.9601 179.436 55.4098H181.31C181.114 56.0618 180.729 56.5982 180.167 57.019C179.605 57.4398 178.911 57.6478 178.091 57.6478C177.43 57.6478 176.835 57.5045 176.31 57.2132C175.785 56.9219 175.373 56.515 175.082 55.9832C174.787 55.4515 174.642 54.8411 174.642 54.1475C174.642 53.4539 174.787 52.8297 175.077 52.2979C175.368 51.7662 175.771 51.3593 176.296 51.0726C176.816 50.7859 177.416 50.6426 178.096 50.6426C178.775 50.6426 179.337 50.7813 179.853 51.0587C180.368 51.3362 180.772 51.7292 181.057 52.2425C181.343 52.7511 181.484 53.3383 181.484 53.9995C181.484 54.2446 181.465 54.4666 181.432 54.6608L181.437 54.6654ZM179.684 53.514C179.675 53.0748 179.516 52.7187 179.202 52.4552C178.888 52.1916 178.503 52.0575 178.049 52.0575C177.618 52.0575 177.257 52.187 176.961 52.4413C176.666 52.7002 176.488 53.0563 176.422 53.514H179.689H179.684Z" fill="#050B19"/>
<path d="M212.995 7.35352L199.166 40.3915H193.565L199.016 27.3751L190.674 7.35352H196.574L201.949 21.7016L207.4 7.35352H213H212.995Z" fill="#376BFC"/>
<path d="M187.351 29.3771H182.013V0.791992H187.346C187.346 12.9344 187.346 25.4884 187.346 29.3771H187.351Z" fill="#376BFC"/>
<path d="M150.548 18.1365C150.548 18.0903 150.548 18.0487 150.548 18.0024C150.548 17.9331 150.548 17.8637 150.539 17.799C150.239 11.9821 145.365 7.35352 139.394 7.35352C133.424 7.35352 128.4 12.1254 128.236 18.0672C128.236 18.1689 128.236 18.266 128.236 18.3677C128.236 18.4787 128.236 18.5897 128.236 18.7006C128.414 24.6285 133.339 29.3819 139.394 29.3819C143.762 29.3819 147.544 26.9035 149.376 23.2968L143.964 22.053L143.893 22.0206C142.825 23.3014 141.208 24.1152 139.394 24.1152C137.454 24.1152 135.739 23.1812 134.675 21.7432C134.338 21.2854 134.066 20.7722 133.878 20.2219H150.398C150.487 19.7133 150.539 19.1908 150.553 18.659C150.553 18.5619 150.553 18.4694 150.553 18.3816C150.553 18.303 150.553 18.2244 150.553 18.1458L150.548 18.1365ZM134 16.1806C134.872 14.0906 136.957 12.6155 139.39 12.6155C141.822 12.6155 143.912 14.0906 144.779 16.1806H133.996H134Z" fill="#050B19"/>
<path d="M176.197 0.787825H170.86V10.2206C169.182 8.56989 166.918 7.50639 164.397 7.36767C162.461 7.47864 160.657 8.07513 159.111 9.03229C159.064 9.06003 159.022 9.08777 158.975 9.11551C158.918 9.15251 158.862 9.1895 158.806 9.22649C158.675 9.31435 158.548 9.4022 158.422 9.49006C158.394 9.50855 158.37 9.52704 158.342 9.55016C158.286 9.59178 158.23 9.63802 158.169 9.67963C157.803 9.96632 157.456 10.2715 157.128 10.5998C156.111 11.6171 155.315 12.7915 154.738 14.1279C154.607 14.433 154.49 14.7428 154.387 15.0573C154.387 15.0665 154.387 15.0711 154.377 15.0804C154.344 15.1867 154.312 15.2977 154.279 15.4041C154.246 15.5104 154.218 15.6214 154.19 15.7324C154.115 16.0329 154.054 16.3381 154.002 16.6479C153.946 17.0086 153.909 17.3738 153.885 17.7438V17.753C153.876 17.8779 153.871 18.0027 153.871 18.1322C153.871 18.2293 153.871 18.3218 153.871 18.4189C153.871 18.4928 153.871 18.5668 153.871 18.6408C154.026 24.5918 158.961 29.3683 165.03 29.3683C165.817 29.3683 166.585 29.2897 167.331 29.1325C168.596 28.8689 169.786 28.3973 170.855 27.7499V29.3683H170.986H176.193V0.783203L176.197 0.787825ZM169.857 21.6602C168.807 23.1769 167.045 24.171 165.039 24.171C161.922 24.171 159.378 21.7573 159.218 18.7194C159.218 18.6824 159.218 18.6454 159.218 18.6084C159.218 18.5483 159.218 18.4882 159.218 18.4235C159.218 18.3634 159.218 18.3079 159.218 18.2524C159.307 15.159 161.88 12.6759 165.044 12.6759C167.021 12.6759 168.774 13.6516 169.824 15.1405C170.457 16.0329 170.836 17.1103 170.864 18.2755V18.5761C170.836 19.7182 170.471 20.7771 169.857 21.6602Z" fill="#050B19"/>
<path d="M124.903 7.35423H119.57V10.2257C117.893 8.57495 115.624 7.51145 113.103 7.37273C111.167 7.4837 109.363 8.08019 107.817 9.03734C107.77 9.06508 107.728 9.09283 107.681 9.12057C107.624 9.15757 107.568 9.19455 107.512 9.23154C107.381 9.3194 107.254 9.40726 107.128 9.49511C107.1 9.51361 107.076 9.5321 107.048 9.55522C106.992 9.59684 106.936 9.64308 106.875 9.68469C106.509 9.97138 106.162 10.2766 105.834 10.6049C104.817 11.6221 104.021 12.7966 103.444 14.1329C103.313 14.4381 103.196 14.7479 103.093 15.0623C103.093 15.0716 103.093 15.0762 103.083 15.0854C103.05 15.1918 103.018 15.3028 102.985 15.4091C102.952 15.5155 102.924 15.6264 102.896 15.7374C102.821 16.038 102.76 16.3431 102.708 16.6529C102.652 17.0136 102.615 17.3789 102.591 17.7534C102.582 17.8829 102.577 18.0078 102.577 18.1372C102.577 18.2343 102.577 18.3268 102.577 18.4239C102.577 18.4979 102.577 18.5719 102.577 18.6459C102.732 24.5969 107.667 29.3734 113.736 29.3734C114.523 29.3734 115.292 29.2948 116.037 29.1375C117.354 28.8647 118.591 28.3607 119.692 27.6764V29.3734C119.692 29.415 119.692 29.4566 119.692 29.4936C119.627 32.6841 116.983 35.2458 113.74 35.2458C111.196 35.2458 109.021 33.669 108.173 31.4541C108.14 31.4033 108.107 31.3524 108.079 31.3015L103.027 32.476C103.154 32.9014 103.308 33.3176 103.482 33.7245C105.192 37.6456 109.138 40.3876 113.74 40.3876C119.725 40.3876 124.613 35.7359 124.889 29.8959C124.894 29.808 124.899 29.7202 124.899 29.6323C124.899 29.5445 124.899 29.4612 124.899 29.3734V7.34961L124.903 7.35423ZM119.57 18.5071C119.556 19.677 119.186 20.7636 118.563 21.6653C117.513 23.1819 115.751 24.1761 113.745 24.1761C110.629 24.1761 108.084 21.7624 107.924 18.7245C107.924 18.6875 107.924 18.6505 107.924 18.6135C107.924 18.5534 107.924 18.4933 107.924 18.4285C107.924 18.3684 107.924 18.3129 107.924 18.2574C108.013 15.164 110.586 12.681 113.745 12.681C115.723 12.681 117.475 13.6566 118.525 15.1455C119.172 16.0565 119.552 17.1616 119.57 18.3546C119.57 18.3777 119.57 18.4054 119.57 18.4332C119.57 18.4609 119.57 18.484 119.57 18.5071Z" fill="#050B19"/>
<path d="M22.317 18.1463C22.317 18.1 22.317 18.0584 22.317 18.0122C22.317 17.9428 22.317 17.8735 22.3076 17.8087C22.0077 11.9918 17.1337 7.36328 11.1632 7.36328C5.19261 7.36328 0.164026 12.1306 0 18.0723C0 18.174 0 18.2711 0 18.3729C0 18.4838 0 18.5948 0 18.7058C0.178086 24.6336 5.10357 29.387 11.1585 29.387C15.5263 29.387 19.3083 26.9086 21.1407 23.302L15.7278 22.0581L15.6575 22.0258C14.589 23.3066 12.9721 24.1204 11.1585 24.1204C9.21829 24.1204 7.50304 23.1864 6.43921 21.7483C6.10178 21.2905 5.82997 20.7773 5.64251 20.227H22.1623C22.2514 19.7184 22.3029 19.1959 22.317 18.6642C22.317 18.5671 22.317 18.4746 22.317 18.3867C22.317 18.3081 22.317 18.2295 22.317 18.1509V18.1463ZM5.76904 16.1904C6.64073 14.1003 8.72621 12.6253 11.1585 12.6253C13.5908 12.6253 15.6809 14.1003 16.5479 16.1904H5.76904Z" fill="#050B19"/>
<path d="M99.2594 7.35299H93.9262V10.2245C92.2485 8.57371 89.9802 7.51021 87.4589 7.37149C85.5234 7.48247 83.7191 8.07895 82.1726 9.0361C82.1257 9.06385 82.0835 9.09159 82.0367 9.11934C81.9804 9.15633 81.9242 9.19331 81.868 9.23031C81.7367 9.31816 81.6102 9.40602 81.4837 9.49387C81.4555 9.51237 81.4321 9.53087 81.404 9.55399C81.3478 9.5956 81.2915 9.64184 81.2306 9.68346C80.8651 9.97014 80.5183 10.2753 80.1902 10.6036C79.1732 11.6209 78.3765 12.7954 77.8001 14.1317C77.6689 14.4368 77.5517 14.7467 77.4486 15.0611C77.4486 15.0703 77.4486 15.075 77.4392 15.0842C77.4064 15.1905 77.3736 15.3015 77.3408 15.4079C77.308 15.5142 77.2799 15.6252 77.2518 15.7362C77.1768 16.0367 77.1159 16.3419 77.0643 16.6517C77.0081 17.0124 76.9706 17.3777 76.9472 17.7476V17.7568C76.9378 17.8817 76.9331 18.0065 76.9331 18.136C76.9331 18.2331 76.9331 18.3256 76.9331 18.4227C76.9331 18.4967 76.9331 18.5706 76.9331 18.6446C77.0878 24.5956 82.0226 29.3721 88.0916 29.3721C88.8789 29.3721 89.6475 29.2935 90.3926 29.1363C91.6627 28.8727 92.8484 28.4011 93.9169 27.7538V29.3675H94.0481H99.2548V7.34375L99.2594 7.35299ZM92.9187 21.664C91.8689 23.1807 90.1068 24.1748 88.101 24.1748C84.9845 24.1748 82.4397 21.7612 82.2804 18.7232C82.2804 18.6862 82.2804 18.6492 82.2804 18.6123C82.2804 18.5521 82.2804 18.492 82.2804 18.4273C82.2804 18.3672 82.2804 18.3117 82.2804 18.2562C82.3694 15.1628 84.9423 12.6798 88.1056 12.6798C90.0833 12.6798 91.8361 13.6554 92.8858 15.1443C93.5326 16.0552 93.9122 17.1603 93.9309 18.3533V18.5059C93.9169 19.6758 93.5466 20.7624 92.9233 21.664H92.9187Z" fill="#050B19"/>
<path d="M73.6105 7.35423H68.2773V10.2257C66.5996 8.57495 64.3313 7.51145 61.81 7.37273C59.8745 7.4837 58.0702 8.08019 56.5237 9.03734C56.4768 9.06508 56.4346 9.09283 56.3877 9.12057C56.3315 9.15757 56.2753 9.19455 56.219 9.23154C56.0878 9.3194 55.9613 9.40726 55.8347 9.49511C55.8066 9.51361 55.7832 9.5321 55.7551 9.55522C55.6988 9.59684 55.6426 9.64308 55.5817 9.68469C55.2161 9.97138 54.8693 10.2766 54.5413 10.6049C53.5243 11.6221 52.7276 12.7966 52.1512 14.1329C52.02 14.4381 51.9028 14.7479 51.7997 15.0623C51.7997 15.0716 51.7997 15.0762 51.7903 15.0854C51.7575 15.1918 51.7247 15.3028 51.6919 15.4091C51.6591 15.5155 51.631 15.6264 51.6029 15.7374C51.5279 16.038 51.467 16.3431 51.4154 16.6529C51.3592 17.0136 51.3217 17.3789 51.2982 17.7534C51.2889 17.8829 51.2842 18.0078 51.2842 18.1372C51.2842 18.2343 51.2842 18.3268 51.2842 18.4239C51.2842 18.4979 51.2842 18.5719 51.2842 18.6459C51.4388 24.5969 56.3737 29.3734 62.4427 29.3734C63.23 29.3734 63.9986 29.2948 64.7437 29.1375C66.0606 28.8647 67.2978 28.3607 68.3992 27.6764V29.3734C68.3992 29.415 68.3992 29.4566 68.3992 29.4936C68.3336 32.6841 65.6904 35.2458 62.4474 35.2458C59.9026 35.2458 57.7281 33.669 56.8798 31.4541C56.847 31.4033 56.8142 31.3524 56.7861 31.3015L51.7341 32.476C51.8606 32.9014 52.0153 33.3176 52.1887 33.7245C53.8992 37.6456 57.8452 40.3876 62.4474 40.3876C68.432 40.3876 73.32 35.7359 73.5965 29.8959C73.6011 29.808 73.6058 29.7202 73.6058 29.6323C73.6058 29.5445 73.6058 29.4612 73.6058 29.3734V7.34961L73.6105 7.35423ZM68.2773 18.5071C68.2633 19.677 67.893 20.7636 67.2697 21.6653C66.22 23.1819 64.4578 24.1761 62.452 24.1761C59.3355 24.1761 56.7908 21.7624 56.6314 18.7245C56.6314 18.6875 56.6314 18.6505 56.6314 18.6135C56.6314 18.5534 56.6314 18.4933 56.6314 18.4285C56.6314 18.3684 56.6314 18.3129 56.6314 18.2574C56.7205 15.164 59.2934 12.681 62.452 12.681C64.4297 12.681 66.1825 13.6566 67.2322 15.1455C67.879 16.0565 68.2586 17.1616 68.2773 18.3546C68.2773 18.3777 68.2773 18.4054 68.2773 18.4332C68.2773 18.4609 68.2773 18.484 68.2773 18.5071Z" fill="#050B19"/>
<path d="M47.9658 18.1463C47.9658 18.0584 47.9658 17.9752 47.9564 17.8873C47.9564 17.8457 47.9564 17.8087 47.947 17.7671C47.9283 17.3926 47.8908 17.0227 47.8346 16.662C47.7877 16.3522 47.7221 16.047 47.6471 15.7465C47.619 15.6355 47.5909 15.5245 47.5581 15.4182C47.5253 15.3118 47.4925 15.2008 47.4597 15.0945C47.4597 15.0852 47.455 15.0806 47.4503 15.0714C47.3472 14.7569 47.2347 14.4471 47.0988 14.142C46.5224 12.8103 45.7257 11.6312 44.7087 10.6139C44.3806 10.2856 44.0338 9.9758 43.6683 9.69374C43.6121 9.65212 43.5558 9.60588 43.4949 9.56427C43.4668 9.54577 43.4434 9.52266 43.4152 9.50416C43.2887 9.41168 43.1622 9.32383 43.0309 9.24059C42.9747 9.2036 42.9185 9.16662 42.8622 9.12962C42.8154 9.10188 42.7732 9.07413 42.7263 9.04639C41.1798 8.08461 39.3755 7.49275 37.44 7.38177C34.9187 7.52049 32.6457 8.584 30.968 10.2347V8.98166C30.968 8.44066 30.968 7.90428 30.968 7.36328H25.6348V29.387H30.9727C30.9727 27.6161 30.9727 23.5239 30.9727 18.5393V18.5208C30.9727 18.4977 30.9727 18.47 30.9727 18.4468V18.433C30.9727 18.433 30.9727 18.396 30.9727 18.3775C30.9867 17.1799 31.3663 16.0701 32.0177 15.1546C33.0675 13.6657 34.8202 12.69 36.7979 12.69C39.9566 12.69 42.5295 15.1731 42.6232 18.2665C42.6232 18.322 42.6232 18.3775 42.6232 18.4376V29.387H47.9564V18.4376C47.9564 18.3405 47.9564 18.248 47.9564 18.1509L47.9658 18.1463Z" fill="#050B19"/>
</svg>
