<svg width="60" height="60" viewBox="0 0 60 60" fill="none" xmlns="http://www.w3.org/2000/svg">
<path d="M60 30C60 37.7913 59.3296 45.2661 58.1084 52.1551C57.5693 55.1965 55.1965 57.5693 52.1551 58.1084C45.2661 59.3296 37.7913 60 30 60C22.2087 60 14.7339 59.3296 7.84494 58.1084C4.80346 57.5693 2.43074 55.1965 1.89159 52.1551C0.670412 45.2661 0 37.7913 0 30C0 22.2062 0.670829 14.7479 1.89273 7.84952C2.43186 4.80582 4.80544 2.43028 7.84909 1.89086C14.7369 0.670144 22.2102 0 30 0C37.7898 0 45.2631 0.670144 52.1509 1.89086C55.1946 2.43028 57.5681 4.80581 58.1073 7.84951C59.3292 14.7479 60 22.2062 60 30Z" fill="white"/>
<path d="M24.1391 25.5596L35.8724 25.5596" stroke="#E68205" stroke-width="1.5" stroke-linecap="round"/>
<path d="M24.1391 29.9326L32.9391 29.9326" stroke="#E68205" stroke-width="1.5" stroke-linecap="round"/>
<path d="M37 19H30H23C20.7909 19 19 20.7909 19 23V32.4926C19 34.7017 20.7909 36.4926 23 36.4926H24.0346C24.2969 36.4926 24.5146 36.6952 24.5334 36.9567L24.7885 40.5075C24.8192 40.934 25.3364 41.1277 25.6397 40.8263L29.7075 36.7833C29.8948 36.5971 30.1483 36.4926 30.4124 36.4926H35.5H37C39.2091 36.4926 41 34.7017 41 32.4926V23C41 20.7909 39.2091 19 37 19Z" stroke="#E68205" stroke-width="1.5"/>
</svg>
