<svg width="48" height="42" viewBox="0 0 48 42" fill="none" xmlns="http://www.w3.org/2000/svg">
<path d="M3.20605 3V37.2852H44.7934V10.3239C44.7934 8.66702 43.4502 7.32388 41.7934 7.32388H23.6267C22.4503 7.32388 21.3825 6.63627 20.8956 5.56529L19.1653 1.75859C18.6785 0.687609 17.6107 0 16.4342 0H6.20605C4.5492 0 3.20605 1.34315 3.20605 3Z" fill="#E3F5D1"/>
<path d="M1.61865 5.35938V38.3519C1.61865 39.4564 2.51408 40.3519 3.61865 40.3519H44.3814C45.4859 40.3519 46.3814 39.4564 46.3814 38.3519V12.6833C46.3814 11.0264 45.0382 9.68325 43.3814 9.68325H22.0393C20.8629 9.68325 19.795 8.99564 19.3082 7.92466L17.5779 4.11797C17.0911 3.04698 16.0233 2.35938 14.8468 2.35938H4.61865C2.9618 2.35938 1.61865 3.70252 1.61865 5.35938Z" fill="#C7EBA3"/>
<path d="M0.0307617 7.71094V38.9961C0.0307617 40.653 1.37391 41.9961 3.03076 41.9961H44.9689C46.6257 41.9961 47.9689 40.653 47.9689 38.9961V15.0348C47.9689 13.378 46.6257 12.0348 44.9689 12.0348H20.4514C19.275 12.0348 18.2072 11.3472 17.7204 10.2762L15.99 6.46953C15.5032 5.39855 14.4354 4.71094 13.2589 4.71094H3.03076C1.37391 4.71094 0.0307617 6.05409 0.0307617 7.71094Z" fill="#66D9FF"/>
</svg>
