<svg width="60" height="60" viewBox="0 0 60 60" fill="none" xmlns="http://www.w3.org/2000/svg">
<path d="M60 30C60 37.7913 59.3296 45.2661 58.1084 52.1551C57.5693 55.1965 55.1965 57.5693 52.1551 58.1084C45.2661 59.3296 37.7913 60 30 60C22.2087 60 14.7339 59.3296 7.84494 58.1084C4.80346 57.5693 2.43074 55.1965 1.89159 52.1551C0.670413 45.2661 0 37.7913 0 30C0 22.2062 0.670829 14.7479 1.89273 7.84952C2.43186 4.80582 4.80544 2.43028 7.84909 1.89086C14.7369 0.670144 22.2102 0 30 0C37.7898 0 45.2631 0.670144 52.1509 1.89086C55.1946 2.43028 57.5681 4.80581 58.1073 7.84951C59.3292 14.7479 60 22.2062 60 30Z" fill="white"/>
<path d="M39.355 24.2105C40.3979 25.8921 41 27.8757 41 30C41 36.0751 36.0751 41 30 41C23.9249 41 19 36.0751 19 30C19 23.9249 23.9249 19 30 19C32.1243 19 34.1079 19.6021 35.7895 20.645" stroke="#10295E" stroke-width="1.5" stroke-linecap="round"/>
<path d="M30 30L40.4211 19.5789" stroke="#10295E" stroke-width="1.5" stroke-linecap="round"/>
<path d="M38.1039 19.5791V21.8949H40.4197" stroke="#10295E" stroke-width="1.5" stroke-linecap="round"/>
<path d="M32.8373 23.6563C31.9712 23.2684 31.0112 23.0527 30.0008 23.0527C26.1638 23.0527 23.0534 26.1632 23.0534 30.0001C23.0534 33.837 26.1638 36.9475 30.0008 36.9475C33.8377 36.9475 36.9481 33.837 36.9481 30.0001C36.9481 29.0113 36.7415 28.0707 36.3692 27.2192" stroke="#10295E" stroke-width="1.5" stroke-linecap="round"/>
</svg>
