<svg width="16" height="16" viewBox="0 0 16 16" fill="none" xmlns="http://www.w3.org/2000/svg">
<g clip-path="url(#clip0_12182_16346)">
<path fill-rule="evenodd" clip-rule="evenodd" d="M8 15C11.866 15 15 11.866 15 8C15 4.13401 11.866 1 8 1C4.13401 1 1 4.13401 1 8C1 11.866 4.13401 15 8 15ZM8 16C12.4183 16 16 12.4183 16 8C16 3.58172 12.4183 0 8 0C3.58172 0 0 3.58172 0 8C0 12.4183 3.58172 16 8 16Z" fill="#68B916"/>
<path d="M14 8C14 11.3137 11.3137 14 8 14C4.68629 14 2 11.3137 2 8C2 4.68629 4.68629 2 8 2C11.3137 2 14 4.68629 14 8Z" fill="#F1FAE8"/>
<path d="M5.15167 3.72658C5.22315 3.57161 5.44341 3.57161 5.51489 3.72658L5.85067 4.45454C5.8798 4.5177 5.93966 4.56118 6.00873 4.56937L6.80481 4.66376C6.97429 4.68386 7.04235 4.89333 6.91705 5.00921L6.32849 5.5535C6.27742 5.60072 6.25456 5.67109 6.26812 5.73931L6.42435 6.5256C6.45761 6.69299 6.27942 6.82246 6.1305 6.7391L5.43097 6.34753C5.37028 6.31356 5.29629 6.31356 5.23559 6.34753L4.53607 6.7391C4.38715 6.82246 4.20896 6.69299 4.24222 6.5256L4.39845 5.73931C4.41201 5.67109 4.38914 5.60072 4.33808 5.5535L3.74951 5.00921C3.62421 4.89333 3.69228 4.68386 3.86175 4.66376L4.65784 4.56937C4.72691 4.56118 4.78677 4.5177 4.8159 4.45453L5.15167 3.72658Z" fill="#68B916"/>
<path d="M10.485 3.72658C10.5565 3.57161 10.7767 3.57161 10.8482 3.72658L11.184 4.45454C11.2131 4.5177 11.273 4.56118 11.3421 4.56937L12.1381 4.66376C12.3076 4.68386 12.3757 4.89333 12.2504 5.00921L11.6618 5.5535C11.6108 5.60072 11.5879 5.67109 11.6014 5.73931L11.7577 6.5256C11.7909 6.69299 11.6128 6.82246 11.4638 6.7391L10.7643 6.34753C10.7036 6.31356 10.6296 6.31356 10.5689 6.34753L9.8694 6.7391C9.72048 6.82246 9.54229 6.69299 9.57555 6.5256L9.73178 5.73931C9.74534 5.67109 9.72248 5.60072 9.67141 5.5535L9.08284 5.00921C8.95754 4.89333 9.02561 4.68386 9.19509 4.66376L9.99117 4.56937C10.0602 4.56118 10.1201 4.5177 10.1492 4.45453L10.485 3.72658Z" fill="#68B916"/>
<path fill-rule="evenodd" clip-rule="evenodd" d="M10.8139 10.4932C10.0139 13.2676 6.0356 13.6264 4.86579 10.5314C4.80772 10.3778 4.8288 10.2055 4.92216 10.0704C5.01552 9.93529 5.16927 9.85465 5.33349 9.85465L10.3335 9.85465C10.4906 9.85465 10.6386 9.9285 10.733 10.054C10.8275 10.1796 10.8574 10.3422 10.8139 10.4932Z" fill="#68B916"/>
</g>
<defs>
<clipPath id="clip0_12182_16346">
<rect width="16" height="16" fill="white"/>
</clipPath>
</defs>
</svg>
