<?xml version="1.0" encoding="utf-8"?>
<!-- Generator: Adobe Illustrator 27.2.0, SVG Export Plug-In . SVG Version: 6.00 Build 0)  -->
<svg version="1.1" id="Layer_1" xmlns="http://www.w3.org/2000/svg" xmlns:xlink="http://www.w3.org/1999/xlink" x="0px" y="0px"
	 viewBox="0 0 16 16" style="enable-background:new 0 0 16 16;" xml:space="preserve">
<style type="text/css">
	.st0{clip-path:url(#SVGID_00000167355392541286805130000009178928540255180177_);}
	.st1{fill:#FFFFFF;}
	.st2{fill-rule:evenodd;clip-rule:evenodd;fill:#E24C1C;}
	.st3{opacity:0.3;fill:#E24C1C;enable-background:new    ;}
</style>
<g>
	<defs>
		<rect id="SVGID_1_" y="0" width="16" height="16"/>
	</defs>
	<clipPath id="SVGID_00000019654282010706589840000012177729353514323098_">
		<use xlink:href="#SVGID_1_"  style="overflow:visible;"/>
	</clipPath>
	<g style="clip-path:url(#SVGID_00000019654282010706589840000012177729353514323098_);">
		<rect y="0" class="st1" width="16" height="16"/>
		<path class="st2" d="M7.9,4C6.7,4,5.7,5,5.7,6.2s1,2.2,2.2,2.2s2.2-1,2.2-2.2S9.1,4,7.9,4z M4.7,6.2C4.7,4.4,6.1,3,7.9,3
			c1.8,0,3.2,1.4,3.2,3.2S9.7,9.5,7.9,9.5C6.1,9.5,4.7,8,4.7,6.2z"/>
		<path class="st2" d="M14,13.5l0,0.2c0.2,1.2-0.7,2.3-2,2.3l-8,0c-1.2,0-2.2-1.1-2-2.3l0-0.2C2.5,11,4.6,9.2,7,9.2l2,0
			C11.5,9.2,13.6,11,14,13.5z M13,13.8l0-0.2c-0.3-1.9-2-3.4-4-3.4l-2,0c-2,0-3.6,1.4-4,3.4l0,0.2C2.9,14.5,3.4,15,4,15l8,0
			C12.6,15,13.1,14.5,13,13.8z"/>
		<path class="st2" d="M5.2,1c0.6,0.1,1.1,0.5,1.4,1c0.1,0.2,0.4,0.4,0.7,0.2c0.2-0.1,0.4-0.4,0.2-0.7C7,0.8,6.3,0.2,5.3,0.1
			C3.8-0.2,2.3,0.8,2,2.4c-0.2,1.2,0.3,2.3,1.3,3c0.2,0.1,0.5,0.1,0.7-0.1C4.1,4.9,4,4.6,3.8,4.5c-0.6-0.4-1-1.2-0.8-1.9
			C3.1,1.5,4.1,0.8,5.2,1z"/>
		<path class="st2" d="M4.3,6.6c0-0.3-0.2-0.5-0.5-0.5C2,6.1,0.4,7.5,0.2,9.3L0,11c-0.1,0.8,0.6,1.6,1.4,1.6c0.3,0,0.5-0.2,0.5-0.5
			c0-0.3-0.2-0.5-0.5-0.5c-0.2,0-0.4-0.2-0.4-0.4l0.2-1.7c0.2-1.3,1.3-2.3,2.6-2.3C4.1,7.1,4.3,6.9,4.3,6.6z"/>
		<path class="st2" d="M10.8,1c-0.6,0.1-1.1,0.5-1.4,1C9.4,2.3,9.1,2.4,8.8,2.3C8.6,2.2,8.5,1.9,8.6,1.6C9,0.8,9.7,0.2,10.7,0.1
			c1.6-0.3,3.1,0.7,3.4,2.3c0.2,1.2-0.3,2.3-1.3,3c-0.2,0.1-0.5,0.1-0.7-0.1c-0.1-0.2-0.1-0.5,0.1-0.7c0.6-0.4,1-1.2,0.8-1.9
			C12.9,1.5,11.9,0.8,10.8,1z"/>
		<path class="st2" d="M11.7,6.6c0-0.3,0.2-0.5,0.5-0.5c1.8,0,3.4,1.4,3.6,3.2L16,11c0.1,0.8-0.6,1.6-1.4,1.6
			c-0.3,0-0.5-0.2-0.5-0.5c0-0.3,0.2-0.5,0.5-0.5c0.2,0,0.4-0.2,0.4-0.4l-0.2-1.7c-0.2-1.3-1.3-2.3-2.6-2.3
			C11.9,7.1,11.7,6.9,11.7,6.6z"/>
		<path class="st3" d="M10,7c0,1.1-0.9,2-2,2S6,8.1,6,7s0.9-2,2-2S10,5.9,10,7z"/>
		<path class="st3" d="M5.9,11h4.2c1.7,0,3.2,1.2,3.6,2.9c0.1,0.6-0.3,1.1-0.9,1.1H3.2c-0.6,0-1-0.6-0.9-1.1C2.7,12.2,4.2,11,5.9,11
			z"/>
	</g>
</g>
</svg>
