<svg width="60" height="60" viewBox="0 0 60 60" fill="none" xmlns="http://www.w3.org/2000/svg">
<path d="M60 30C60 37.7913 59.3296 45.2661 58.1084 52.1551C57.5693 55.1965 55.1965 57.5693 52.1551 58.1084C45.2661 59.3296 37.7913 60 30 60C22.2087 60 14.7339 59.3296 7.84494 58.1084C4.80346 57.5693 2.43074 55.1965 1.89159 52.1551C0.670413 45.2661 0 37.7913 0 30C0 22.2062 0.670829 14.7479 1.89273 7.84952C2.43186 4.80582 4.80544 2.43028 7.84909 1.89086C14.7369 0.670144 22.2102 0 30 0C37.7898 0 45.2631 0.670144 52.1509 1.89086C55.1946 2.43028 57.5681 4.80581 58.1073 7.84951C59.3292 14.7479 60 22.2062 60 30Z" fill="white"/>
<circle cx="30" cy="28" r="4" stroke="#10295E" stroke-width="1.5"/>
<path d="M35.8192 27.7429C37.0984 27.222 38.0001 25.9663 38.0001 24.5C38.0001 22.567 36.4331 21 34.5001 21C33.343 21 32.3171 21.5614 31.6799 22.4267" stroke="#10295E" stroke-width="1.5" stroke-linecap="round"/>
<path d="M24.1808 27.7429C22.9016 27.222 21.9999 25.9663 21.9999 24.5C21.9999 22.567 23.5669 21 25.4999 21C26.657 21 27.6829 21.5614 28.3201 22.4267" stroke="#10295E" stroke-width="1.5" stroke-linecap="round"/>
<path d="M37.56 39.7291L37.1739 37.2647C36.8118 34.9534 34.8206 33.25 32.4812 33.25H27.5188C25.1794 33.25 23.1882 34.9535 22.8261 37.2647L22.44 39.7291C22.2736 40.7907 23.0944 41.75 24.1689 41.75H35.8311C36.9056 41.75 37.7264 40.7907 37.56 39.7291Z" stroke="#10295E" stroke-width="1.5" stroke-linecap="round"/>
<path d="M35 30H36.4061C38.4027 30 40.0935 31.4722 40.3681 33.4498L40.842 36.8624C40.9255 37.4637 40.4585 38 39.8515 38H38.5" stroke="#10295E" stroke-width="1.5" stroke-linecap="round"/>
<path d="M24 30H23.4896C21.4584 30 19.7496 31.5224 19.5161 33.5402L19.129 36.885C19.0603 37.4789 19.5246 38 20.1224 38H21.5" stroke="#10295E" stroke-width="1.5" stroke-linecap="round"/>
</svg>
