<svg width="40" height="40" viewBox="0 0 40 40" fill="none" xmlns="http://www.w3.org/2000/svg">
<circle cx="20" cy="20" r="20" fill="#DFEEFF"/>
<path d="M20.2871 20.625H20.752C21.0072 20.625 21.2533 20.6341 21.4902 20.6523C21.7454 20.6523 21.9915 20.6523 22.2285 20.6523H22.4199C22.7298 20.6706 23.0306 20.6888 23.3223 20.707C23.6322 20.7253 23.9147 20.7435 24.1699 20.7617C24.5345 20.7982 24.8717 20.8802 25.1816 21.0078C25.4915 21.1354 25.7741 21.3177 26.0293 21.5547C26.2845 21.7917 26.4941 22.0651 26.6582 22.375C26.8405 22.6667 26.9681 22.9857 27.041 23.332L27.3691 25.1094C27.4238 25.3099 27.4329 25.5195 27.3965 25.7383C27.36 25.9388 27.2962 26.1302 27.2051 26.3125C27.0957 26.513 26.959 26.6862 26.7949 26.832C26.6491 26.9596 26.4759 27.069 26.2754 27.1602C25.9473 27.2878 25.5736 27.3971 25.1543 27.4883C24.7533 27.5794 24.3066 27.6615 23.8145 27.7344C23.304 27.7891 22.7572 27.8346 22.1738 27.8711C21.5905 27.9076 20.9616 27.9258 20.2871 27.9258C19.6126 27.9258 18.9746 27.9076 18.373 27.8711C17.7897 27.8346 17.252 27.7891 16.7598 27.7344C16.2676 27.6615 15.8118 27.5794 15.3926 27.4883C14.9733 27.3971 14.5996 27.2878 14.2715 27.1602C14.071 27.069 13.8978 26.9596 13.752 26.832C13.6061 26.6862 13.4785 26.513 13.3691 26.3125C13.2598 26.1302 13.1868 25.9388 13.1504 25.7383C13.1322 25.5195 13.1413 25.3099 13.1777 25.1094L13.5332 23.332C13.6061 22.9857 13.7246 22.6667 13.8887 22.375C14.0527 22.0651 14.2715 21.7917 14.5449 21.5547C14.8001 21.3177 15.0827 21.1354 15.3926 21.0078C15.7025 20.8802 16.0397 20.7982 16.4043 20.7617C16.623 20.7435 16.86 20.7253 17.1152 20.707C17.3887 20.6888 17.6621 20.6797 17.9355 20.6797L18.1543 20.6523C18.4642 20.6523 18.7923 20.6523 19.1387 20.6523C19.5033 20.6341 19.8861 20.625 20.2871 20.625ZM27.3691 20.625C27.7155 20.625 28.0618 20.6341 28.4082 20.6523C28.7728 20.6706 29.1374 20.6888 29.502 20.707C29.8665 20.7435 30.222 20.7891 30.5684 20.8438C30.9329 20.8802 31.2884 20.9258 31.6348 20.9805C31.8353 21.0169 32.0176 21.0807 32.1816 21.1719C32.3639 21.2448 32.528 21.3451 32.6738 21.4727C32.8197 21.6185 32.9473 21.7734 33.0566 21.9375C33.166 22.1016 33.248 22.2839 33.3027 22.4844L33.6035 23.6328C33.6217 23.6328 33.6309 23.6419 33.6309 23.6602V23.6875C33.6309 23.7057 33.6309 23.724 33.6309 23.7422C33.6491 23.7422 33.6582 23.7422 33.6582 23.7422C33.7129 24.0339 33.7129 24.3073 33.6582 24.5625C33.6217 24.8177 33.5215 25.0638 33.3574 25.3008C33.2116 25.5378 33.0293 25.7383 32.8105 25.9023C32.61 26.0482 32.373 26.1576 32.0996 26.2305C31.8444 26.3034 31.5801 26.3763 31.3066 26.4492C31.0332 26.5039 30.7598 26.5586 30.4863 26.6133C30.2129 26.668 29.9486 26.7135 29.6934 26.75C29.4382 26.7865 29.1921 26.8229 28.9551 26.8594C28.8822 26.8594 28.8092 26.8503 28.7363 26.832C28.6816 26.8138 28.627 26.7865 28.5723 26.75C28.5176 26.6953 28.472 26.6406 28.4355 26.5859C28.3991 26.5312 28.3809 26.4674 28.3809 26.3945C28.3626 26.3216 28.3626 26.2487 28.3809 26.1758C28.3991 26.1029 28.4355 26.0391 28.4902 25.9844C28.5267 25.9297 28.5723 25.8932 28.627 25.875C28.6999 25.8385 28.7728 25.8203 28.8457 25.8203L29.2832 25.7383C29.4473 25.7201 29.6113 25.7018 29.7754 25.6836C29.9395 25.6471 30.1126 25.6107 30.2949 25.5742C30.5501 25.5195 30.8053 25.4648 31.0605 25.4102C31.3158 25.3555 31.571 25.2917 31.8262 25.2188C31.972 25.1823 32.0996 25.1276 32.209 25.0547C32.3184 24.9635 32.4095 24.8542 32.4824 24.7266C32.5736 24.6172 32.6283 24.4987 32.6465 24.3711C32.6829 24.2435 32.6829 24.1159 32.6465 23.9883V23.9336C32.6465 23.9336 32.6374 23.9336 32.6191 23.9336C32.6191 23.9154 32.6191 23.9062 32.6191 23.9062L32.291 22.7852C32.2728 22.6758 32.2363 22.5846 32.1816 22.5117C32.1452 22.4206 32.0814 22.3385 31.9902 22.2656C31.9173 22.1927 31.8353 22.138 31.7441 22.1016C31.6712 22.0651 31.5801 22.0378 31.4707 22.0195C31.1243 21.9648 30.778 21.9193 30.4316 21.8828C30.1035 21.8464 29.7663 21.8099 29.4199 21.7734C29.0736 21.7552 28.7272 21.737 28.3809 21.7188C28.0527 21.7005 27.7155 21.6914 27.3691 21.6914C27.2962 21.6914 27.2233 21.6823 27.1504 21.6641C27.0957 21.6276 27.041 21.582 26.9863 21.5273C26.9499 21.4727 26.9134 21.418 26.877 21.3633C26.8587 21.2904 26.8496 21.2174 26.8496 21.1445C26.8496 21.0716 26.8587 21.0078 26.877 20.9531C26.9134 20.8802 26.9499 20.8255 26.9863 20.7891C27.041 20.7344 27.0957 20.6979 27.1504 20.6797C27.2233 20.6432 27.2962 20.625 27.3691 20.625ZM13.2051 20.625C13.278 20.625 13.3418 20.6432 13.3965 20.6797C13.4694 20.6979 13.5332 20.7344 13.5879 20.7891C13.6243 20.8255 13.6517 20.8802 13.6699 20.9531C13.7064 21.0078 13.7246 21.0716 13.7246 21.1445C13.7246 21.2174 13.7064 21.2904 13.6699 21.3633C13.6517 21.418 13.6243 21.4727 13.5879 21.5273C13.5332 21.582 13.4694 21.6276 13.3965 21.6641C13.3418 21.6823 13.278 21.6914 13.2051 21.6914C12.8587 21.6914 12.5124 21.7005 12.166 21.7188C11.8379 21.737 11.5007 21.7552 11.1543 21.7734C10.8079 21.8099 10.4616 21.8464 10.1152 21.8828C9.78711 21.9193 9.44987 21.9648 9.10352 22.0195C8.99414 22.0378 8.89388 22.0651 8.80273 22.1016C8.72982 22.138 8.6569 22.1927 8.58398 22.2656C8.49284 22.3385 8.41992 22.4206 8.36523 22.5117C8.32878 22.5846 8.30143 22.6758 8.2832 22.7852L7.95508 23.9062C7.95508 23.9062 7.94596 23.9154 7.92773 23.9336V23.9883C7.89128 24.1159 7.88216 24.2435 7.90039 24.3711C7.93685 24.4987 8.00065 24.6172 8.0918 24.7266C8.16471 24.8542 8.25586 24.9635 8.36523 25.0547C8.47461 25.1276 8.60221 25.1823 8.74805 25.2188C9.00326 25.2917 9.25846 25.3555 9.51367 25.4102C9.76888 25.4648 10.0241 25.5195 10.2793 25.5742C10.4616 25.6107 10.6348 25.6471 10.7988 25.6836C10.9629 25.7018 11.127 25.7201 11.291 25.7383L11.7285 25.8203C11.8014 25.8203 11.8652 25.8385 11.9199 25.875C11.9928 25.8932 12.0475 25.9297 12.084 25.9844C12.1387 26.0391 12.1751 26.1029 12.1934 26.1758C12.2116 26.2487 12.2116 26.3216 12.1934 26.3945C12.1934 26.4674 12.1751 26.5312 12.1387 26.5859C12.1022 26.6406 12.0566 26.6953 12.002 26.75C11.9473 26.7865 11.8835 26.8138 11.8105 26.832C11.7559 26.8503 11.6921 26.8594 11.6191 26.8594C11.3822 26.8229 11.1361 26.7865 10.8809 26.75C10.6257 26.7135 10.3613 26.668 10.0879 26.6133C9.81445 26.5586 9.54102 26.5039 9.26758 26.4492C8.99414 26.3763 8.72982 26.3034 8.47461 26.2305C8.20117 26.1576 7.95508 26.0482 7.73633 25.9023C7.53581 25.7383 7.36263 25.5378 7.2168 25.3008C7.05273 25.0638 6.94336 24.8177 6.88867 24.5625C6.85221 24.3073 6.86133 24.0339 6.91602 23.7422C6.93424 23.724 6.94336 23.7057 6.94336 23.6875V23.6602C6.94336 23.6419 6.95247 23.6328 6.9707 23.6328L7.27148 22.4844C7.32617 22.2839 7.4082 22.1016 7.51758 21.9375C7.62695 21.7734 7.75456 21.6185 7.90039 21.4727C8.04622 21.3451 8.20117 21.2448 8.36523 21.1719C8.54753 21.0807 8.73893 21.0169 8.93945 20.9805C9.28581 20.9258 9.63216 20.8802 9.97852 20.8438C10.3431 20.7891 10.7077 20.7435 11.0723 20.707C11.4368 20.6888 11.7923 20.6706 12.1387 20.6523C12.5033 20.6341 12.8587 20.625 13.2051 20.625ZM20.2871 21.7734C19.9043 21.7734 19.5397 21.7734 19.1934 21.7734C18.8652 21.7734 18.5553 21.7826 18.2637 21.8008H17.9082C17.6712 21.819 17.4434 21.8372 17.2246 21.8555C17.0059 21.8555 16.8053 21.8646 16.623 21.8828C16.3678 21.901 16.1309 21.9557 15.9121 22.0469C15.7116 22.138 15.5202 22.2565 15.3379 22.4023C15.1556 22.5482 15.0007 22.7214 14.873 22.9219C14.7637 23.1042 14.6816 23.3138 14.627 23.5508L14.2988 25.1914C14.2806 25.2826 14.2806 25.3737 14.2988 25.4648C14.3171 25.556 14.3444 25.6471 14.3809 25.7383C14.4355 25.8294 14.4993 25.9115 14.5723 25.9844C14.6452 26.0391 14.7272 26.0846 14.8184 26.1211C15.11 26.2305 15.4382 26.3307 15.8027 26.4219C16.1673 26.4948 16.5775 26.5586 17.0332 26.6133C17.4889 26.668 17.9902 26.7135 18.5371 26.75C19.084 26.7682 19.6673 26.7773 20.2871 26.7773C20.9069 26.7773 21.4811 26.7682 22.0098 26.75C22.5566 26.7135 23.0579 26.668 23.5137 26.6133C23.9694 26.5586 24.3796 26.4948 24.7441 26.4219C25.127 26.3307 25.4551 26.2305 25.7285 26.1211C25.8379 26.0846 25.9199 26.0391 25.9746 25.9844C26.0475 25.9115 26.1113 25.8294 26.166 25.7383C26.2207 25.6471 26.248 25.556 26.248 25.4648C26.2663 25.3737 26.2663 25.2826 26.248 25.1914L25.9199 23.5508C25.8652 23.3138 25.7832 23.1042 25.6738 22.9219C25.5645 22.7214 25.4186 22.5482 25.2363 22.4023C25.054 22.2565 24.8535 22.138 24.6348 22.0469C24.416 21.9557 24.1882 21.901 23.9512 21.8828C23.7142 21.8646 23.459 21.8464 23.1855 21.8281C22.9121 21.8099 22.6204 21.8008 22.3105 21.8008L21.9277 21.7734C21.709 21.7734 21.4811 21.7734 21.2441 21.7734C21.0072 21.7734 20.7611 21.7734 20.5059 21.7734H20.2871ZM27.3145 14.418C27.6973 14.418 28.0436 14.4818 28.3535 14.6094C28.6816 14.737 28.9824 14.9375 29.2559 15.2109C29.5111 15.4661 29.7025 15.7578 29.8301 16.0859C29.9759 16.3958 30.0488 16.7422 30.0488 17.125C30.0488 17.5078 29.9759 17.8633 29.8301 18.1914C29.7025 18.5013 29.5111 18.7839 29.2559 19.0391C28.9824 19.3125 28.6816 19.513 28.3535 19.6406C28.0436 19.7682 27.6973 19.832 27.3145 19.832C26.9316 19.832 26.5762 19.7682 26.248 19.6406C25.9382 19.513 25.6465 19.3125 25.373 19.0391C25.0996 18.7839 24.8991 18.5013 24.7715 18.1914C24.6439 17.8633 24.5801 17.5078 24.5801 17.125C24.5801 16.7422 24.6439 16.3958 24.7715 16.0859C24.8991 15.7578 25.0996 15.4661 25.373 15.2109C25.6465 14.9375 25.9382 14.737 26.248 14.6094C26.5762 14.4818 26.9316 14.418 27.3145 14.418ZM13.041 14.418C13.4238 14.418 13.7702 14.4818 14.0801 14.6094C14.4082 14.737 14.709 14.9375 14.9824 15.2109C15.2376 15.4661 15.429 15.7578 15.5566 16.0859C15.7025 16.3958 15.7754 16.7422 15.7754 17.125C15.7754 17.5078 15.7025 17.8633 15.5566 18.1914C15.429 18.5013 15.2376 18.7839 14.9824 19.0391C14.709 19.3125 14.4082 19.513 14.0801 19.6406C13.7702 19.7682 13.4238 19.832 13.041 19.832C12.6582 19.832 12.3027 19.7682 11.9746 19.6406C11.6647 19.513 11.373 19.3125 11.0996 19.0391C10.8262 18.7839 10.6257 18.5013 10.498 18.1914C10.3704 17.8633 10.3066 17.5078 10.3066 17.125C10.3066 16.7422 10.3704 16.3958 10.498 16.0859C10.6257 15.7578 10.8262 15.4661 11.0996 15.2109C11.373 14.9375 11.6647 14.737 11.9746 14.6094C12.3027 14.4818 12.6582 14.418 13.041 14.418ZM20.2324 11.5742C20.7428 11.5742 21.2077 11.6654 21.627 11.8477C22.0645 12.0299 22.4564 12.2943 22.8027 12.6406C23.1673 12.987 23.4408 13.3789 23.623 13.8164C23.8053 14.2357 23.8965 14.7005 23.8965 15.2109C23.8965 15.7031 23.8053 16.168 23.623 16.6055C23.4408 17.0247 23.1673 17.4076 22.8027 17.7539C22.4564 18.1185 22.0645 18.3919 21.627 18.5742C21.2077 18.7383 20.7428 18.8203 20.2324 18.8203C19.722 18.8203 19.248 18.7383 18.8105 18.5742C18.3913 18.3919 17.9993 18.1185 17.6348 17.7539C17.2884 17.4076 17.0241 17.0247 16.8418 16.6055C16.6595 16.168 16.5684 15.7031 16.5684 15.2109C16.5684 14.7005 16.6595 14.2357 16.8418 13.8164C17.0241 13.3789 17.2884 12.987 17.6348 12.6406C17.9993 12.2943 18.3913 12.0299 18.8105 11.8477C19.248 11.6654 19.722 11.5742 20.2324 11.5742ZM27.2871 15.5391C27.0866 15.5391 26.8861 15.5846 26.6855 15.6758C26.5033 15.7487 26.3301 15.8581 26.166 16.0039C26.0202 16.168 25.9017 16.3411 25.8105 16.5234C25.7376 16.7057 25.7012 16.9062 25.7012 17.125C25.7012 17.3438 25.7376 17.5534 25.8105 17.7539C25.9017 17.9362 26.0202 18.1003 26.166 18.2461C26.3301 18.4102 26.5033 18.5286 26.6855 18.6016C26.8861 18.6745 27.0866 18.7109 27.2871 18.7109C27.5241 18.7109 27.7337 18.6745 27.916 18.6016C28.1165 18.5286 28.2897 18.4102 28.4355 18.2461C28.5996 18.1003 28.7181 17.9362 28.791 17.7539C28.8639 17.5534 28.9004 17.3438 28.9004 17.125C28.9004 16.9062 28.8639 16.7057 28.791 16.5234C28.7181 16.3411 28.5996 16.168 28.4355 16.0039C28.2897 15.8581 28.1165 15.7487 27.916 15.6758C27.7337 15.5846 27.5241 15.5391 27.2871 15.5391ZM13.0137 15.5391C12.8132 15.5391 12.6126 15.5846 12.4121 15.6758C12.2298 15.7487 12.0566 15.8581 11.8926 16.0039C11.7467 16.168 11.6283 16.3411 11.5371 16.5234C11.4642 16.7057 11.4277 16.9062 11.4277 17.125C11.4277 17.3438 11.4642 17.5534 11.5371 17.7539C11.6283 17.9362 11.7467 18.1003 11.8926 18.2461C12.0566 18.4102 12.2298 18.5286 12.4121 18.6016C12.6126 18.6745 12.8132 18.7109 13.0137 18.7109C13.2507 18.7109 13.4603 18.6745 13.6426 18.6016C13.8431 18.5286 14.0163 18.4102 14.1621 18.2461C14.3262 18.1003 14.4447 17.9362 14.5176 17.7539C14.5905 17.5534 14.627 17.3438 14.627 17.125C14.627 16.9062 14.5905 16.7057 14.5176 16.5234C14.4447 16.3411 14.3262 16.168 14.1621 16.0039C14.0163 15.8581 13.8431 15.7487 13.6426 15.6758C13.4603 15.5846 13.2507 15.5391 13.0137 15.5391ZM20.2324 12.7227C19.8861 12.7227 19.5579 12.7865 19.248 12.9141C18.9564 13.0234 18.6921 13.1966 18.4551 13.4336C18.1999 13.6888 18.0085 13.9622 17.8809 14.2539C17.7715 14.5456 17.7168 14.8646 17.7168 15.2109C17.7168 15.5573 17.7715 15.8763 17.8809 16.168C18.0085 16.4596 18.1999 16.724 18.4551 16.9609C18.6921 17.1979 18.9564 17.3802 19.248 17.5078C19.5579 17.6354 19.8861 17.6992 20.2324 17.6992C20.5788 17.6992 20.8978 17.6354 21.1895 17.5078C21.4811 17.3802 21.7546 17.1979 22.0098 16.9609C22.2467 16.724 22.429 16.4596 22.5566 16.168C22.6842 15.8763 22.748 15.5573 22.748 15.2109C22.748 14.8646 22.6842 14.5456 22.5566 14.2539C22.429 13.9622 22.2467 13.6888 22.0098 13.4336C21.7546 13.1966 21.4811 13.0234 21.1895 12.9141C20.8978 12.7865 20.5788 12.7227 20.2324 12.7227Z" fill="#102E5D"/>
</svg>
