<svg width="161" height="125" viewBox="0 0 161 125" fill="none" xmlns="http://www.w3.org/2000/svg">
<path opacity="0.3" d="M114.903 53.0682L81.4486 17.6789L80.8904 17.073L69.5468 5.09835C66.2202 1.52381 61.1246 0.14033 56.4206 1.53447C53.1801 2.41204 50.25 4.16423 47.9579 6.59518L4.13191 52.6227C-0.41789 57.2037 -1.31 64.2303 1.95322 69.7828C5.59247 76.4607 13.2626 79.9434 20.7512 78.3183C23.5161 77.6044 26.0159 76.1201 27.9535 74.0416L60.3639 40.0244L95.6191 77.3204C98.7959 81.0871 103.842 82.7677 108.673 81.6684C114.208 79.8574 118.333 75.2439 119.477 69.5868C120.943 63.6964 119.281 57.4723 115.065 53.0682" fill="url(#paint0_linear_8722_39235)"/>
<path d="M134.797 122.212H63.7309C3.24253 122.212 45.2566 58.0735 61.4961 46.2291C77.7356 34.3848 136.958 13.5267 155.432 67.3852C170.211 110.472 147.834 121.889 134.797 122.212Z" fill="white"/>
<path d="M134.797 122.212H63.7309C3.24253 122.212 45.2566 58.0735 61.4961 46.2291C77.7356 34.3848 136.958 13.5267 155.432 67.3852C170.211 110.472 147.834 121.889 134.797 122.212Z" stroke="#000A16" stroke-width="0.5"/>
<path d="M130.964 119.898H64.803C8.48985 119.898 47.6039 60.1326 62.7225 49.0959C77.841 38.0591 108.429 31.6126 143.052 69.0893C171.853 100.263 143.1 119.597 130.964 119.898Z" fill="#EBF0FF"/>
<path d="M108.254 84.3362C112.997 84.1141 125.236 84.8303 136.251 89.472" stroke="#000A16" stroke-width="0.5"/>
<path d="M128.768 74.0923C123.777 74.3654 113.214 76.7442 110.89 84.0744" stroke="#000A16" stroke-width="0.5"/>
<path d="M101.349 86.0088L102.243 86.6048L99.3376 96.7358L86.6738 95.3949L89.0576 84.1465L101.349 86.0088Z" fill="white" stroke="#000A16" stroke-width="0.5"/>
<path d="M33.1865 103.366L37.5071 98.9707L45.7014 106.569L37.9541 114.167L33.3355 111.56L33.1865 103.366Z" fill="white" stroke="#000A16" stroke-width="0.5"/>
<path d="M23.6525 118.264L13 107.835C13.4109 107.252 13.8074 106.768 14.1919 106.368C17.9896 102.421 20.6231 106.758 24.5464 107.164C28.0029 107.522 31.9957 104.035 33.5601 102.248C36.361 105.466 35.4224 108.505 34.603 109.622L38.7746 114.166L32.9742 119.838L28.718 124L25.1424 120.275L25.4403 118.264C24.6656 118.74 23.9256 118.462 23.6525 118.264Z" fill="white"/>
<path d="M27.3772 106.792L28.1966 109.25M29.0905 105.972L29.9099 108.43M30.7293 104.929L31.5488 107.388M13 107.835L23.6525 118.264C23.9256 118.462 24.6656 118.74 25.4403 118.264L25.1424 120.275L28.718 124L32.9742 119.838L38.7746 114.166L34.603 109.622C35.4224 108.505 36.361 105.466 33.5601 102.248C31.9957 104.035 28.0029 107.522 24.5464 107.164C20.6231 106.758 17.9896 102.421 14.1919 106.368C13.8074 106.768 13.4109 107.252 13 107.835Z" stroke="#000A16" stroke-width="0.5"/>
<path d="M113.482 94.8083L112.102 109.652C111.391 109.7 110.765 109.698 110.213 109.651C104.755 109.192 106.461 104.413 104.303 101.112C102.401 98.2035 97.1777 97.302 94.8036 97.2149C95.5358 93.0119 98.4868 91.8243 99.8707 91.7559L100.768 85.653L108.827 86.5799L114.741 87.26L114.104 92.3838L112.355 93.4205C113.213 93.7213 113.464 94.471 113.482 94.8083Z" fill="white"/>
<path d="M102.229 99.1495L103.62 96.9636M100.513 98.3361L101.904 96.1503M98.6699 97.7215L100.062 95.5356M112.102 109.652L113.482 94.8083C113.464 94.471 113.213 93.7213 112.355 93.4205L114.104 92.3838L114.741 87.26L108.827 86.5799L100.768 85.653L99.8707 91.7559C98.4868 91.8243 95.5358 93.0119 94.8036 97.2149C97.1777 97.302 102.401 98.2035 104.303 101.112C106.461 104.413 104.755 109.192 110.213 109.651C110.765 109.698 111.391 109.7 112.102 109.652Z" stroke="#000A16" stroke-width="0.5"/>
<path d="M53.5992 80C53.7184 75.3516 53.7753 70.0294 57.5 67L94.5 61L92.1869 81.1665L88.4622 104.93C73.0173 99.6656 53.48 84.6484 53.5992 80Z" fill="white" stroke="#000A16" stroke-width="0.5"/>
<path d="M108.872 84.5939C114.593 82.9849 115.527 69.5712 115.279 63.0654L60.5264 67.4605L34.5283 97.7047L49.2779 110.964L54.12 102.621L50.4698 111.784L55.0139 114.764L72.6688 83.7745L108.872 84.5939Z" fill="white" stroke="#000A16" stroke-width="0.5"/>
<path d="M69.4653 44L74.2329 64.3366H93.4521V66.1244H73.4879H50.9165L46 44H68.2734H69.4653Z" fill="white"/>
<path d="M73.4879 66.1244H93.4521V64.3366H74.2329L69.4653 44H68.2734M73.4879 66.1244H50.9165L46 44H68.2734M73.4879 66.1244L68.2734 44" stroke="#000A16" stroke-width="0.5"/>
<path d="M92.5242 5.87147C92.5242 5.87147 76.1992 22.2071 78.3221 26.395C78.3221 26.395 72.2559 27.188 85.1238 27.0615C85.8793 27.1558 83.2857 28.6692 84.0286 28.8406C84.0286 28.8406 92.1834 38.0262 94.4528 40.4491C94.6951 40.7128 95.1696 41.4892 95.1637 41.384C97.629 35.4961 83.3526 32.7285 81.583 24.7645C81.5138 24.4708 95.7955 10.1701 95.7955 10.1701C95.7955 10.1701 101.261 7.54067 100.845 7.0523C100.253 6.32398 99.9087 5.93518 99.9087 5.93518C99.6455 5.76872 99.4508 5.5143 99.3609 5.21944C99.2947 4.97108 99.166 4.74231 98.9869 4.55464C98.8077 4.36697 98.5841 4.22659 98.337 4.1467C97.7352 3.8974 97.454 3.21692 97.1068 3.04716C96.7597 2.8774 93.6675 4.71819 92.5242 5.87147Z" fill="white" stroke="#000A16" stroke-width="0.5" stroke-linecap="round" stroke-linejoin="round"/>
<path d="M97.8545 3.99268C97.2748 4.46283 96.7322 5.00947 96.2417 5.61751C96.1327 5.75966 96.0433 5.91869 95.9784 6.08566C95.9432 6.16851 95.9256 6.2552 95.9277 6.33655C95.9298 6.41791 95.9515 6.49091 95.9903 6.54781" stroke="#000A16" stroke-width="0.5" stroke-linecap="round" stroke-linejoin="round"/>
<path d="M96.7139 3.40674C96.1342 3.87689 95.5916 4.42353 95.1011 5.03157C94.9921 5.17372 94.9027 5.33275 94.8378 5.49972C94.8025 5.58257 94.785 5.66926 94.7871 5.75062C94.7892 5.83197 94.8108 5.90497 94.8497 5.96187" stroke="#000A16" stroke-width="0.5" stroke-linecap="round" stroke-linejoin="round"/>
<path d="M98.9463 4.6626C98.3666 5.13275 97.824 5.67939 97.3335 6.28743C97.2245 6.42958 97.1351 6.58861 97.0702 6.75558C97.035 6.83843 97.0174 6.92512 97.0195 7.00648C97.0216 7.08783 97.0432 7.16083 97.0821 7.21773" stroke="#000A16" stroke-width="0.5" stroke-linecap="round" stroke-linejoin="round"/>
<path d="M95.3433 42.354C95.3433 42.354 98.787 34.3377 96.258 30.4715C94.249 27.4123 83.2142 25.5797 83.2142 25.5797L94.2383 11.8924L88.9207 7.6451C88.9207 7.6451 71.1911 23.0083 71.8013 27.2101C72.4114 31.4119 90.9051 41.7228 95.3433 42.354Z" fill="#F3EDFE" stroke="#000A16" stroke-width="0.5" stroke-linecap="round" stroke-linejoin="round"/>
<path d="M95.9667 9.48712C95.9667 9.48712 99.4851 8.55447 99.4938 8.02517C99.5025 7.49586 99.0456 5.10205 98.2333 5.04589C97.4211 4.98974 97.6769 7.08345 97.6769 7.08345C97.6769 7.08345 95.9224 6.52406 95.491 7.49673C95.0595 8.4694 95.9667 9.48712 95.9667 9.48712Z" fill="white" stroke="#000A16" stroke-width="0.5" stroke-linecap="round" stroke-linejoin="round"/>
<path d="M88.0044 22.2225C87.8446 20.9757 92.0576 6.12664 92.6627 5.02587C94.2498 2.13917 102.487 1.02191 105.627 2.98756C110.719 6.15507 111.45 15.1518 116 24.8734C116 24.8734 110.618 29.7587 102.299 27.316C93.979 24.8734 88.0044 22.2225 88.0044 22.2225Z" fill="white" stroke="#000A16" stroke-width="0.5" stroke-linecap="round" stroke-linejoin="round"/>
<path d="M103.078 14.8477C103.075 14.8849 103.08 14.9223 103.092 14.9576C103.104 14.9929 103.123 15.0252 103.148 15.0526C103.173 15.08 103.203 15.1019 103.236 15.1167C103.27 15.1316 103.306 15.1393 103.343 15.1391C103.999 15.1391 105.459 14.9988 105.713 16.726C105.756 17.4231 105.527 18.1093 105.074 18.6336C104.622 19.1579 103.984 19.4774 103.3 19.5218C103.015 19.5218 102.359 19.5973 102.168 19.8132C101.576 20.4717 102.225 21.0101 102.225 24.1409C102.225 24.9236 102.652 26.2314 103.021 27.2717C103.389 28.3119 106.091 29.799 107 30.4024C107 30.4024 92.7189 34.5586 92.8141 29.4636C92.8141 29.4636 93.6183 20.0615 93.5654 20.0183C92.7718 19.2087 89.6926 18.8633 91.629 12.1598C92.5179 9.09415 94.0628 7.64768 95.5336 7" fill="white"/>
<path d="M103.078 14.8477C103.075 14.8849 103.08 14.9223 103.092 14.9576C103.104 14.9929 103.123 15.0252 103.148 15.0526C103.173 15.08 103.203 15.1019 103.236 15.1167C103.27 15.1316 103.306 15.1393 103.343 15.1391C103.999 15.1391 105.459 14.9988 105.713 16.726C105.756 17.4231 105.527 18.1093 105.074 18.6336C104.622 19.1579 103.984 19.4774 103.3 19.5218C103.015 19.5218 102.359 19.5973 102.168 19.8132C101.576 20.4717 102.225 21.0101 102.225 24.1409C102.225 24.9236 102.652 26.2314 103.021 27.2717C103.389 28.3119 106.091 29.799 107 30.4024C107 30.4024 92.7189 34.5586 92.8141 29.4636C92.8141 29.4636 93.6183 20.0615 93.5654 20.0183C92.7718 19.2087 89.6926 18.8633 91.629 12.1598C92.5179 9.09415 94.0628 7.64768 95.5336 7" stroke="#000A16" stroke-width="0.5" stroke-linecap="round" stroke-linejoin="round"/>
<path d="M97 5C97 5 98.7096 14.7281 100.812 15.7373C103.138 16.9107 103.977 13.8179 104 13.0507" fill="white"/>
<path d="M97 5C97 5 98.7096 14.7281 100.812 15.7373C103.138 16.9107 103.977 13.8179 104 13.0507" stroke="#000A16" stroke-width="0.5" stroke-linecap="round" stroke-linejoin="round"/>
<path d="M93.7397 14L93 13.6499L94.3333 11.7294M95.3333 11.1618C95.6667 11.2564 96.3333 11.1618 97 11.7294M93.8951 10.6349C93.8327 10.4955 93.6265 10.1733 93.3015 10" stroke="#000A16" stroke-width="0.5" stroke-linecap="round" stroke-linejoin="round"/>
<path d="M92.4608 16.7355C92.1433 16.4394 91.9049 15.8946 91.9191 15.5329C91.9332 15.1712 92.1271 15.3867 92.4469 15.8027C92.7666 16.2186 93.0682 16.2802 93.0572 16.6715C93.0463 17.0629 92.7647 17.0031 92.4608 16.7355Z" fill="#4D545C" stroke="#000A16" stroke-width="0.5" stroke-linecap="round" stroke-linejoin="round"/>
<path d="M95 12.408C95 12.6346 95.0932 12.8235 95.202 12.8235C95.3108 12.8235 95.4117 12.6346 95.4117 12.408C95.4117 12.1813 95.3185 12 95.202 12C95.0855 12 95 12.1813 95 12.408Z" fill="#000A16"/>
<path d="M93 11.408C93 11.6422 93.0932 11.8235 93.2097 11.8235C93.3263 11.8235 93.4117 11.6422 93.4117 11.408C93.4117 11.1738 93.3185 11 93.2097 11C93.101 11 93 11.1813 93 11.408Z" fill="#000A16"/>
<path d="M102.5 20C103.328 20 104 19.3284 104 18.5C104 17.6716 103.328 17 102.5 17C101.672 17 101 17.6716 101 18.5C101 19.3284 101.672 20 102.5 20Z" fill="white" stroke="#000A16" stroke-width="0.5" stroke-linecap="round" stroke-linejoin="round"/>
<path d="M93.0675 26C93.2486 26.4347 85.7895 41.4448 86.0046 45.7236C86.2196 50.0024 86.2309 61.8479 86.0046 62.5C86.0046 62.5 93.0675 69.5 114.5 67C120.091 62.0577 111.087 35.8961 109.197 30.5305C109.197 30.5305 105.425 28.9812 103.331 26.3957C104.517 25.5672 94.0522 33.5737 93.0675 26Z" fill="#F3EDFE" stroke="#000A16" stroke-width="0.5" stroke-linecap="round" stroke-linejoin="round"/>
<path d="M99.854 62C94.5148 60.8503 89.2611 59.3046 84.133 57.3747C83.549 57.1522 81.831 56.3208 81.8871 56.0515C81.8871 55.4425 85.357 57.0585 85.2559 56.9062C85.1548 56.754 81 55.3254 81 54.8219C81 54.0842 85.5703 55.7704 85.6489 55.7938C86.8392 56.1568 81.2246 54.3535 81.1011 53.85C80.9775 53.3465 83.594 53.9671 83.695 53.9905C84.4235 54.2492 85.1764 54.4258 85.9409 54.5175C86.0195 54.3652 81.6064 51.6017 82.078 51.309C82.5496 51.0162 85.9184 52.6673 86.7157 52.9835C87.4525 53.2937 88.2587 53.379 89.0402 53.2294C89.2985 53.0655 88.0413 51.6754 87.5023 51.1484C89.4597 50.4525 90.5792 52.3827 91.4433 53.2294C91.7979 53.6669 92.1243 54.1285 92.4202 54.6111L100 56.1568L99.854 62Z" fill="white" stroke="#000A16" stroke-width="0.5" stroke-linecap="round" stroke-linejoin="round"/>
<path d="M104.913 36.3168C104.913 36.3168 103.812 29.4812 107.357 30.0315C113.27 30.9782 120.019 44.4623 117.432 62.3715C116.595 68.1944 93 62.5256 93 62.5256L94.5194 54.0058L106.829 56.0532L104.913 36.3168Z" fill="#F3EDFE" stroke="#000A16" stroke-width="0.5" stroke-linecap="round" stroke-linejoin="round"/>
<path d="M93 19.5435C94.0769 20.0871 95.2515 20.0421 96.5166 19.9274C97.7817 19.8128 98.9805 19.4936 100 19" stroke="#000A16" stroke-width="0.5" stroke-linecap="round" stroke-linejoin="round"/>
<path d="M61.2721 54.9605C61.5009 55.9288 61.0404 56.7675 60.3747 56.9248C59.709 57.0821 58.9218 56.5383 58.693 55.57C58.4641 54.6017 58.9246 53.763 59.5904 53.6057C60.2561 53.4484 61.0433 53.9922 61.2721 54.9605Z" stroke="#000A16" stroke-width="0.5"/>
<defs>
<linearGradient id="paint0_linear_8722_39235" x1="60" y1="1" x2="60" y2="82" gradientUnits="userSpaceOnUse">
<stop stop-color="#F15B2B"/>
<stop offset="1" stop-color="#F15B2B" stop-opacity="0"/>
</linearGradient>
</defs>
</svg>
