<svg width="22" height="19" viewBox="0 0 22 19" fill="none" xmlns="http://www.w3.org/2000/svg">
<mask id="path-1-outside-1_16700_22059" maskUnits="userSpaceOnUse" x="-0.5" y="-0.5" width="23" height="21" fill="black">
<rect fill="white" x="-0.5" y="-0.5" width="23" height="21"/>
<path d="M17.7148 0.75C17.7148 3.49219 15.7812 5.74219 13.1797 6.26953C13.1797 4.72266 12.6172 3.31641 11.7383 2.19141C12.7227 1.3125 14.0234 0.75 15.4648 0.75H17.7148ZM9.83984 6.375C6.74609 6.375 4.21484 3.87891 4.21484 0.75H6.46484C9.55859 0.75 12.0898 3.28125 12.0898 6.375V9.78516C12.0898 10.3828 11.5273 10.875 10.9648 10.875C10.3672 10.875 9.83984 10.3828 9.83984 9.75V6.375ZM20.8438 12.5977C21.3008 13.2305 21.1602 14.1094 20.4922 14.5664L15.7109 18.0469C15.1133 18.5039 14.3398 18.75 13.5664 18.75H1.40234C1.12109 18.75 0.875 18.5039 0.875 18.1875V14.8125C0.875 14.4961 1.08594 14.25 1.40234 14.25L3.33594 14.2852L4.95312 12.9492C5.69141 12.3516 6.67578 12.0352 7.58984 12.0352H13.2148C13.918 12.0352 14.4453 12.6328 14.3398 13.3359C14.2344 13.8984 13.707 14.2852 13.1797 14.2852H10.4023C10.1562 14.2852 9.875 14.5312 9.875 14.8477C9.875 15.1289 10.1211 15.4102 10.4023 15.4102H14.6562L18.875 12.2812C19.5078 11.8242 20.3867 11.9648 20.8438 12.5977Z"/>
</mask>
<path d="M17.7148 0.75H18.7148V-0.25H17.7148V0.75ZM13.1797 6.26953H12.1797V7.49257L13.3783 7.2496L13.1797 6.26953ZM11.7383 2.19141L11.0723 1.44547L10.3738 2.06913L10.9503 2.80705L11.7383 2.19141ZM9.83984 6.375H10.8398V5.375H9.83984V6.375ZM4.21484 0.75V-0.25H3.21484V0.75H4.21484ZM20.4922 14.5664L19.9275 13.7411L19.9155 13.7493L19.9037 13.7579L20.4922 14.5664ZM15.7109 18.0469L15.1224 17.2384L15.1129 17.2453L15.1035 17.2525L15.7109 18.0469ZM1.40234 14.25L1.42052 13.2502L1.41143 13.25H1.40234V14.25ZM3.33594 14.2852L3.31776 15.285L3.68762 15.2917L3.97282 15.0561L3.33594 14.2852ZM4.95312 12.9492L4.3239 12.1719L4.31624 12.1783L4.95312 12.9492ZM14.3398 13.3359L15.3227 13.5202L15.3261 13.5023L15.3288 13.4843L14.3398 13.3359ZM14.6562 15.4102V16.4102H14.9866L15.252 16.2134L14.6562 15.4102ZM18.875 12.2812L18.2895 11.4705L18.2793 11.478L18.875 12.2812ZM16.7148 0.75C16.7148 3.00125 15.1315 4.85357 12.981 5.28946L13.3783 7.2496C16.431 6.63081 18.7148 3.98312 18.7148 0.75H16.7148ZM14.1797 6.26953C14.1797 4.47387 13.5259 2.85522 12.5263 1.57576L10.9503 2.80705C11.7085 3.77759 12.1797 4.97144 12.1797 6.26953H14.1797ZM12.4043 2.93734C13.2216 2.20765 14.2899 1.75 15.4648 1.75V-0.25C13.757 -0.25 12.2238 0.417349 11.0723 1.44547L12.4043 2.93734ZM15.4648 1.75H17.7148V-0.25H15.4648V1.75ZM9.83984 5.375C7.2943 5.375 5.21484 3.32255 5.21484 0.75H3.21484C3.21484 4.43526 6.19789 7.375 9.83984 7.375V5.375ZM4.21484 1.75H6.46484V-0.25H4.21484V1.75ZM6.46484 1.75C9.00631 1.75 11.0898 3.83353 11.0898 6.375H13.0898C13.0898 2.72897 10.1109 -0.25 6.46484 -0.25V1.75ZM11.0898 6.375V9.78516H13.0898V6.375H11.0898ZM11.0898 9.78516C11.0898 9.76194 11.0995 9.7823 11.0543 9.82466C11.034 9.84377 11.0108 9.85831 10.99 9.86705C10.9694 9.87575 10.9602 9.875 10.9648 9.875V11.875C12.0179 11.875 13.0898 10.9949 13.0898 9.78516H11.0898ZM10.9648 9.875C10.9419 9.875 10.9079 9.86467 10.8777 9.83514C10.8506 9.80858 10.8398 9.78007 10.8398 9.75H8.83984C8.83984 10.9553 9.83529 11.875 10.9648 11.875V9.875ZM10.8398 9.75V6.375H8.83984V9.75H10.8398ZM20.0331 13.1831C20.1626 13.3625 20.1291 13.6032 19.9275 13.7411L21.0569 15.3917C22.1912 14.6156 22.439 13.0985 21.6544 12.0122L20.0331 13.1831ZM19.9037 13.7579L15.1224 17.2384L16.2995 18.8554L21.0807 15.3749L19.9037 13.7579ZM15.1035 17.2525C14.6933 17.5662 14.1373 17.75 13.5664 17.75V19.75C14.5423 19.75 15.5332 19.4417 16.3184 18.8412L15.1035 17.2525ZM13.5664 17.75H1.40234V19.75H13.5664V17.75ZM1.40234 17.75C1.71481 17.75 1.875 17.994 1.875 18.1875H-0.125C-0.125 19.0138 0.527382 19.75 1.40234 19.75V17.75ZM1.875 18.1875V14.8125H-0.125V18.1875H1.875ZM1.875 14.8125C1.875 14.8756 1.85257 14.9838 1.75851 15.0869C1.65708 15.198 1.51877 15.25 1.40234 15.25V13.25C0.449976 13.25 -0.125 14.0314 -0.125 14.8125H1.875ZM1.38416 15.2498L3.31776 15.285L3.35412 13.2853L1.42052 13.2502L1.38416 15.2498ZM3.97282 15.0561L5.59001 13.7202L4.31624 12.1783L2.69906 13.5142L3.97282 15.0561ZM5.58232 13.7265C6.12887 13.284 6.88656 13.0352 7.58984 13.0352V11.0352C6.46501 11.0352 5.25395 11.4191 4.32393 12.172L5.58232 13.7265ZM7.58984 13.0352H13.2148V11.0352H7.58984V13.0352ZM13.2148 13.0352C13.2752 13.0352 13.3084 13.0579 13.3263 13.0784C13.343 13.0976 13.3596 13.1295 13.3509 13.1876L15.3288 13.4843C15.5265 12.166 14.5186 11.0352 13.2148 11.0352V13.0352ZM13.357 13.1516C13.3533 13.1714 13.3396 13.2039 13.2973 13.2374C13.2513 13.2738 13.2035 13.2852 13.1797 13.2852V15.2852C14.1477 15.2852 15.1213 14.5945 15.3227 13.5202L13.357 13.1516ZM13.1797 13.2852H10.4023V15.2852H13.1797V13.2852ZM10.4023 13.2852C9.96178 13.2852 9.58735 13.4926 9.33928 13.7406C9.07997 14 8.875 14.3855 8.875 14.8477H10.875C10.875 14.9934 10.8107 15.0977 10.7535 15.1549C10.7076 15.2008 10.5968 15.2852 10.4023 15.2852V13.2852ZM8.875 14.8477C8.875 15.2715 9.05404 15.6461 9.29605 15.9101C9.53864 16.1747 9.92293 16.4102 10.4023 16.4102V14.4102C10.6005 14.4102 10.7211 14.5049 10.7704 14.5587C10.819 14.6117 10.875 14.7051 10.875 14.8477H8.875ZM10.4023 16.4102H14.6562V14.4102H10.4023V16.4102ZM15.252 16.2134L19.4707 13.0845L18.2793 11.478L14.0605 14.607L15.252 16.2134ZM19.4605 13.0919C19.6468 12.9574 19.9003 12.9992 20.0331 13.1831L21.6544 12.0122C20.8732 10.9304 19.3689 10.691 18.2895 11.4706L19.4605 13.0919Z" fill="black" mask="url(#path-1-outside-1_16700_22059)"/>
</svg>
