<?xml version="1.0" encoding="utf-8"?>
<!-- Generator: Adobe Illustrator 27.2.0, SVG Export Plug-In . SVG Version: 6.00 Build 0)  -->
<svg version="1.1" id="Layer_1" xmlns="http://www.w3.org/2000/svg" xmlns:xlink="http://www.w3.org/1999/xlink" x="0px" y="0px"
	 viewBox="0 0 16 16" style="enable-background:new 0 0 16 16;" xml:space="preserve">
<style type="text/css">
	.st0{clip-path:url(#SVGID_00000030460577833453496860000016442922308542198182_);}
	.st1{fill:#FFFFFF;}
	.st2{fill-rule:evenodd;clip-rule:evenodd;fill:#E24C1C;}
	.st3{opacity:0.3;fill:#E24C1C;enable-background:new    ;}
</style>
<g>
	<defs>
		<rect id="SVGID_1_" y="0" width="16" height="16"/>
	</defs>
	<clipPath id="SVGID_00000005265023507106202120000011373114580072098712_">
		<use xlink:href="#SVGID_1_"  style="overflow:visible;"/>
	</clipPath>
	<g style="clip-path:url(#SVGID_00000005265023507106202120000011373114580072098712_);">
		<rect y="0" class="st1" width="16" height="16"/>
		<path class="st2" d="M9.1,6c0-0.3,0.2-0.5,0.5-0.5h2.8c0.3,0,0.5,0.2,0.5,0.5v2.8c0,0.3-0.2,0.5-0.5,0.5c-0.3,0-0.5-0.2-0.5-0.5
			V7.4L8,11.9c-0.2,0.2-0.5,0.2-0.7,0.1l-2-1.6l-4.4,5.5c-0.2,0.2-0.5,0.3-0.7,0.1s-0.3-0.5-0.1-0.7l4.7-5.9
			c0.1-0.1,0.2-0.2,0.3-0.2c0.1,0,0.3,0,0.4,0.1l2,1.7l3.7-4.3H9.6C9.3,6.5,9.1,6.3,9.1,6z"/>
		<path class="st2" d="M8,1C4.1,1,1,4.1,1,8c0,3.9,3.1,7,7,7c3.9,0,7-3.1,7-7C15,4.1,11.9,1,8,1z M0,8c0-4.4,3.6-8,8-8
			c4.4,0,8,3.6,8,8c0,4.4-3.6,8-8,8C3.6,16,0,12.4,0,8z"/>
		<path class="st3" d="M13.9,8c0,3.3-2.7,5.9-5.9,5.9c-3.3,0-5.9-2.7-5.9-5.9c0-3.3,2.7-5.9,5.9-5.9C11.3,2.1,13.9,4.7,13.9,8z"/>
	</g>
</g>
</svg>
