<svg width="16" height="16" viewBox="0 0 16 16" fill="none" xmlns="http://www.w3.org/2000/svg">
<g clip-path="url(#clip0_5956_42069)">
<path fill-rule="evenodd" clip-rule="evenodd" d="M8 15C11.866 15 15 11.866 15 8C15 4.13401 11.866 1 8 1C4.13401 1 1 4.13401 1 8C1 11.866 4.13401 15 8 15ZM8 16C12.4183 16 16 12.4183 16 8C16 3.58172 12.4183 0 8 0C3.58172 0 0 3.58172 0 8C0 12.4183 3.58172 16 8 16Z" fill="#00ADE6"/>
<path d="M6.6665 5.66699C6.6665 6.21928 6.21879 6.66699 5.6665 6.66699C5.11422 6.66699 4.6665 6.21928 4.6665 5.66699C4.6665 5.11471 5.11422 4.66699 5.6665 4.66699C6.21879 4.66699 6.6665 5.11471 6.6665 5.66699Z" fill="#E68205"/>
<path fill-rule="evenodd" clip-rule="evenodd" d="M5.6665 6.66699C6.21879 6.66699 6.6665 6.21928 6.6665 5.66699C6.6665 5.11471 6.21879 4.66699 5.6665 4.66699C5.11422 4.66699 4.6665 5.11471 4.6665 5.66699C4.6665 6.21928 5.11422 6.66699 5.6665 6.66699Z" fill="#00ADE6"/>
<path d="M11.3335 5.66699C11.3335 6.21928 10.8858 6.66699 10.3335 6.66699C9.78121 6.66699 9.3335 6.21928 9.3335 5.66699C9.3335 5.11471 9.78121 4.66699 10.3335 4.66699C10.8858 4.66699 11.3335 5.11471 11.3335 5.66699Z" fill="#E68205"/>
<path fill-rule="evenodd" clip-rule="evenodd" d="M10.3335 6.66699C10.8858 6.66699 11.3335 6.21928 11.3335 5.66699C11.3335 5.11471 10.8858 4.66699 10.3335 4.66699C9.78121 4.66699 9.3335 5.11471 9.3335 5.66699C9.3335 6.21928 9.78121 6.66699 10.3335 6.66699Z" fill="#00ADE6"/>
<path fill-rule="evenodd" clip-rule="evenodd" d="M8.26592 10.7998C9.03018 10.6824 9.65339 10.2753 9.97994 9.94879C10.1752 9.75353 10.4918 9.75353 10.687 9.94879C10.8823 10.144 10.8823 10.4606 10.687 10.6559C10.2358 11.1071 9.4257 11.6334 8.41774 11.7882C7.38523 11.9468 6.18153 11.7088 5.00424 10.6786C4.79643 10.4968 4.77537 10.1809 4.95721 9.97309C5.13905 9.76527 5.45493 9.74421 5.66275 9.92605C6.6188 10.7626 7.5262 10.9134 8.26592 10.7998Z" fill="#00ADE6"/>
</g>
<defs>
<clipPath id="clip0_5956_42069">
<rect width="16" height="16" fill="white"/>
</clipPath>
</defs>
</svg>
