<svg width="201" height="200" viewBox="0 0 201 200" fill="none" xmlns="http://www.w3.org/2000/svg">
<rect x="0.5" width="200" height="200" fill="white"/>
<rect x="12.5" y="11" width="175" height="175" rx="35" fill="#E5F6E5"/>
<rect x="58.75" y="39.25" width="93.5" height="64.5" rx="5.75" fill="white" stroke="#4D545C" stroke-width="0.5"/>
<path d="M62.5 46C62.5 44.3431 63.8431 43 65.5 43H145.5C147.157 43 148.5 44.3431 148.5 46V67C148.5 68.6569 147.157 70 145.5 70H65.5C63.8431 70 62.5 68.6569 62.5 67V46Z" fill="#E5F6E5"/>
<path d="M62.5 76C62.5 74.3431 63.8431 73 65.5 73H145.5C147.157 73 148.5 74.3431 148.5 76V97C148.5 98.6569 147.157 100 145.5 100H65.5C63.8431 100 62.5 98.6569 62.5 97V76Z" fill="#E5F6E5"/>
<rect x="72.3081" y="69.9149" width="3.80816" height="22.9149" rx="1" transform="rotate(-180 72.3081 69.9149)" fill="white"/>
<rect x="75.5" y="100" width="4" height="21" rx="1" transform="rotate(-180 75.5 100)" fill="white"/>
<rect x="130.308" y="99.9149" width="3.80816" height="18.9149" rx="1" transform="rotate(-180 130.308 99.9149)" fill="white"/>
<rect x="80.3081" y="69.9149" width="3.80816" height="22.9149" rx="1" transform="rotate(-180 80.3081 69.9149)" fill="white"/>
<rect x="85.5" y="100" width="4" height="21" rx="1" transform="rotate(-180 85.5 100)" fill="white"/>
<rect x="140.5" y="99.9149" width="5.79168" height="22.9149" rx="1" transform="rotate(-180 140.5 99.9149)" fill="white"/>
<rect x="69.3081" y="69.9149" width="3.80816" height="20.9149" rx="1" transform="rotate(-180 69.3081 69.9149)" fill="white"/>
<rect x="71.3081" y="99.9149" width="5.80811" height="22.9149" rx="1" transform="rotate(-180 71.3081 99.9149)" fill="white"/>
<rect x="126.308" y="99.9149" width="3.80816" height="22.9149" rx="1" transform="rotate(-180 126.308 99.9149)" fill="white"/>
<rect x="76.3081" y="69.9149" width="3.80816" height="19.9149" rx="1" transform="rotate(-180 76.3081 69.9149)" fill="white"/>
<rect x="79.3081" y="99.9149" width="3.80816" height="22.9149" rx="1" transform="rotate(-180 79.3081 99.9149)" fill="white"/>
<rect x="134.308" y="99.9149" width="3.80816" height="22.9149" rx="1" transform="rotate(-180 134.308 99.9149)" fill="white"/>
<rect x="84.3081" y="69.9149" width="3.80816" height="22.9149" rx="1" transform="rotate(-180 84.3081 69.9149)" fill="white"/>
<rect x="100.006" y="68.0015" width="3.80816" height="22.9149" rx="1" transform="rotate(150.792 100.006 68.0015)" fill="white"/>
<rect x="89.3081" y="99.9149" width="3.80816" height="22.9149" rx="1" transform="rotate(-180 89.3081 99.9149)" fill="white"/>
<rect x="145.308" y="99.9149" width="3.80816" height="22.9149" rx="1" transform="rotate(-180 145.308 99.9149)" fill="white"/>
<path d="M169.122 194.473H100.115C41.3805 194.473 82.1766 132.194 97.9453 120.693C113.714 109.192 171.219 88.9386 189.158 141.236C203.509 183.073 181.78 194.16 169.122 194.473Z" fill="white"/>
<path d="M169.122 194.473H100.115C41.3805 194.473 82.1766 132.194 97.9453 120.693C113.714 109.192 171.219 88.9386 189.158 141.236C203.509 183.073 181.78 194.16 169.122 194.473Z" stroke="#4D545C" stroke-width="0.5"/>
<path d="M165.399 192.226H101.156C46.4758 192.226 84.456 134.193 99.1362 123.476C113.817 112.76 143.517 106.5 177.137 142.89C205.103 173.16 177.184 191.934 165.399 192.226Z" fill="#EBF0FF"/>
<path d="M143.35 157.695C147.955 157.479 159.84 158.175 170.535 162.682" stroke="#4D545C" stroke-width="0.5"/>
<path d="M163.267 147.748C158.42 148.014 148.164 150.323 145.907 157.441" stroke="#4D545C" stroke-width="0.5"/>
<path d="M136.644 159.319L137.512 159.898L134.691 169.735L122.395 168.433L124.709 157.511L136.644 159.319Z" fill="white" stroke="#4D545C" stroke-width="0.5"/>
<path d="M70.459 176.173L74.6543 171.905L82.611 179.283L75.0883 186.661L70.6037 184.13L70.459 176.173Z" fill="white" stroke="#4D545C" stroke-width="0.5"/>
<path d="M61.2001 190.639L50.8564 180.513C51.2555 179.947 51.6404 179.477 52.0138 179.089C55.7014 175.256 58.2585 179.467 62.0681 179.862C65.4244 180.209 69.3015 176.824 70.8205 175.088C73.5402 178.212 72.6288 181.164 71.8332 182.249L75.8839 186.661L70.2516 192.168L69.7035 192.704C67.7291 194.635 64.5592 194.584 62.6468 192.592L62.9361 190.639C62.1839 191.102 61.4654 190.832 61.2001 190.639Z" fill="white"/>
<path d="M62.2851 186.372L64.0935 186.01L70.2516 192.168M70.2516 192.168L69.7035 192.704C67.7291 194.635 64.5592 194.584 62.6468 192.592V192.592L62.9361 190.639C62.1839 191.102 61.4654 190.832 61.2001 190.639L50.8564 180.513C51.2555 179.947 51.6404 179.477 52.0138 179.089M70.2516 192.168L75.8839 186.661L71.8332 182.249C72.6288 181.164 73.5402 178.212 70.8205 175.088C69.3015 176.824 65.4244 180.209 62.0681 179.862C58.2585 179.467 55.7014 175.256 52.0138 179.089M52.0138 179.089L56.3538 183.429M64.8168 179.5L65.6125 181.887M66.4805 178.704L67.2762 181.091M68.0718 177.692L68.8675 180.079" stroke="#4D545C" stroke-width="0.5"/>
<path d="M148.425 167.863L147.086 182.277C146.395 182.323 145.787 182.321 145.251 182.276C139.951 181.83 141.608 177.19 139.512 173.984C137.665 171.16 132.593 170.285 130.288 170.2C130.999 166.119 133.865 164.966 135.208 164.899L136.08 158.973L143.905 159.873L144.667 159.961C147.41 160.276 149.37 162.769 149.029 165.509L147.331 166.516C148.164 166.808 148.408 167.536 148.425 167.863Z" fill="white"/>
<path d="M144.428 169.711L143.008 168.536L143.905 159.873M143.905 159.873L144.667 159.961C147.41 160.276 149.37 162.769 149.029 165.509V165.509L147.331 166.516C148.164 166.808 148.408 167.536 148.425 167.863L147.086 182.277C146.395 182.323 145.787 182.321 145.251 182.276M143.905 159.873L136.08 158.973L135.208 164.899C133.865 164.966 130.999 166.119 130.288 170.2C132.593 170.285 137.665 171.16 139.512 173.984C141.608 177.19 139.951 181.83 145.251 182.276M145.251 182.276L145.883 176.171M137.498 172.078L138.85 169.956M135.832 171.289L137.183 169.166M134.042 170.692L135.394 168.569" stroke="#4D545C" stroke-width="0.5"/>
<path d="M123.118 130.892L103.443 135.883L104.094 141.091L124.998 138.921L127.602 124.961L121.382 119.463L123.118 130.892Z" fill="white" stroke="#4D545C" stroke-width="0.5"/>
<path d="M79.2835 156.715C79.3993 152.201 86.6616 145.19 90.2782 142.248H100.839L127.747 154.617L124.13 177.692C109.133 172.58 79.1678 161.229 79.2835 156.715Z" fill="white" stroke="#4D545C" stroke-width="0.5"/>
<path d="M143.95 157.945C149.505 156.382 150.411 143.358 150.17 137.04L97.0051 141.308L71.7607 170.676L86.0828 183.551L90.7845 175.45L87.2401 184.347L91.6525 187.24L108.796 157.149L143.95 157.945Z" fill="white" stroke="#4D545C" stroke-width="0.5"/>
<path d="M129.826 82.4327L129.845 82.4286C130.781 80.862 134.361 78.6109 138.511 80.2711C143.821 82.8956 146.843 89.5896 147.422 97.257C147.47 101.067 146.294 108.512 141.201 107.818L137.44 100.44L133.823 103.188L130.858 104.273C126.585 101.161 126.467 89.0894 126.518 88.7216C127.31 82.9566 128.103 82.7914 129.826 82.4327Z" fill="white"/>
<path d="M141.201 107.818L137.44 100.44L133.823 103.188L130.858 104.273C126.585 101.161 126.467 89.0894 126.518 88.7216C127.313 82.9349 128.109 82.7903 129.845 82.4286C130.781 80.862 134.361 78.6109 138.511 80.2711C143.821 82.8956 146.843 89.5896 147.422 97.257C147.47 101.067 146.294 108.512 141.201 107.818ZM141.201 107.818L152.702 121.706" stroke="#4D545C" stroke-width="0.5"/>
<path d="M132.752 98.4778C129.265 97.3123 128.108 92.4481 127.964 90.1616C128.026 89.3523 128.713 87.3815 130.972 85.9732C132.772 87.0254 138.091 91.6792 138.091 91.6792C138.296 91.0317 139.098 89.8217 140.669 90.1616C142.633 90.5866 141.635 93.7431 140.669 93.7431C140.669 93.7431 140.55 100.729 141.057 101.597C141.563 102.465 143.01 103.631 143.01 103.631C141.741 106.403 137.284 113.697 133.896 114.328C132.525 113.458 129.209 108.827 129.7 103.631C129.7 103.631 132.015 103.631 132.936 103.024C133.856 102.417 132.752 98.4778 132.752 98.4778Z" fill="white"/>
<path d="M132.752 98.4778C129.265 97.3123 128.108 92.4481 127.964 90.1616C128.026 89.3523 128.713 87.3815 130.972 85.9732C132.772 87.0254 138.091 91.6792 138.091 91.6792C138.296 91.0317 139.098 89.8217 140.669 90.1616C142.633 90.5866 141.635 93.7431 140.669 93.7431C140.669 93.7431 140.55 100.729 141.057 101.597C141.563 102.465 143.01 103.631 143.01 103.631C141.741 106.403 137.284 113.697 133.896 114.328C132.525 113.458 129.209 108.827 129.7 103.631C129.7 103.631 132.015 103.631 132.936 103.024C133.856 102.417 132.752 98.4778 132.752 98.4778ZM132.752 98.4778C133.652 98.4778 135.894 98.065 137.661 96.414" stroke="#4D545C" stroke-width="0.5"/>
<path d="M141.795 95.6832L138.651 94.5207L140.597 91.7779L141.795 95.6832Z" fill="white" stroke="#4D545C" stroke-width="0.5" stroke-linecap="round" stroke-linejoin="round"/>
<path d="M129.266 89.936C129.594 89.8776 130.342 89.8134 130.713 90.0236" stroke="#4D545C" stroke-width="0.5"/>
<path d="M134.775 89.4201C134.42 89.4114 133.631 89.4854 133.31 89.8513" stroke="#4D545C" stroke-width="0.5"/>
<path d="M124.058 132.411L126.518 130.747L143.444 135.232L125.939 139.717L122.901 137.258L124.058 132.411Z" fill="white" stroke="#4D545C" stroke-width="0.5"/>
<path d="M131.651 92.483C131.564 92.8381 131.401 93.5719 131.443 93.6666C131.484 93.7613 131.841 93.785 132.015 93.785" stroke="#4D545C" stroke-width="0.5"/>
<path d="M135.621 134.653L122.022 132.483L123.252 124.671L122.384 123.586C120.127 122.313 120.72 117.317 121.299 114.979C120.865 112.977 120.069 108.599 120.359 107.094C120.648 105.59 126.893 103.96 129.979 103.333C130.326 109.293 132.68 112.567 133.813 113.46C136.359 112.302 140.757 106.033 142.637 103.044C145.989 104.201 152.894 106.79 153.704 107.89C154.515 108.989 157.707 118.282 159.202 122.791L150.16 125.901V131.181L135.621 134.653Z" fill="white"/>
<path d="M135.621 134.653L122.022 132.483L123.252 124.671L122.384 123.586C120.127 122.313 120.72 117.317 121.299 114.979C120.865 112.977 120.069 108.599 120.359 107.094C120.648 105.59 126.893 103.96 129.979 103.333C130.326 109.293 132.68 112.567 133.813 113.46C136.359 112.302 140.757 106.033 142.637 103.044C145.989 104.201 152.894 106.79 153.704 107.89C154.515 108.989 157.707 118.282 159.202 122.791L150.16 125.901V131.181L135.621 134.653Z" stroke="#4D545C" stroke-width="0.5"/>
<path d="M158.778 122.935L152.919 124.599L148.796 125.611L150.135 131.109C148.905 131.615 126.698 136.534 125.758 136.751C125.006 136.924 120.912 136.678 118.959 136.534C117.898 137.209 115.747 138.617 115.631 138.848C115.487 139.138 115.487 139.21 115.631 139.282C115.747 139.34 117.03 139.017 117.657 138.848C117.271 139.065 116.427 139.557 116.138 139.789C115.776 140.078 115.704 140.657 115.921 140.657C116.094 140.657 117.633 140.223 118.38 140.006C117.874 140.536 116.832 141.698 116.716 142.103C116.572 142.61 117.006 142.465 117.657 142.103C118.178 141.814 119.803 141.211 120.55 140.946C121.249 141.259 122.821 141.959 123.516 142.248C124.21 142.537 126.698 141.742 127.856 141.308C149.961 140.093 159.2 137.378 161.057 136.172C161.52 133.279 159.695 126.166 158.778 122.935Z" fill="white" stroke="#4D545C" stroke-width="0.5"/>
<path d="M150.243 131.181C151.062 131.133 153.179 131.268 155.089 132.194" stroke="#4D545C" stroke-width="0.5"/>
<path d="M102.575 122.357L107.204 142.104H125.866V143.84H106.481H84.5641L79.79 122.357H101.418H102.575Z" fill="white"/>
<path d="M106.481 143.84H125.866V142.104H107.204L102.575 122.357H101.418M106.481 143.84H84.5641L79.79 122.357H101.418M106.481 143.84L101.418 122.357" stroke="#4D545C" stroke-width="0.5"/>
<ellipse cx="130.248" cy="91.3603" rx="0.388933" ry="0.426228" transform="rotate(-13.3244 130.248 91.3603)" fill="#4D545C"/>
<ellipse cx="133.989" cy="91.0645" rx="0.388933" ry="0.426228" transform="rotate(-13.3244 133.989 91.0645)" fill="#4D545C"/>
<path d="M131.726 95.0234C132.103 95.2141 133.686 96.6024 133.751 94.5084C133.413 94.6419 132.536 94.9318 131.726 95.0234Z" fill="#4D545C"/>
<path d="M148.796 125.612L146.699 116.57" stroke="#4D545C" stroke-width="0.5"/>
<path d="M121.31 114.979C121.648 113.58 122.381 110.538 122.612 109.554" stroke="#4D545C" stroke-width="0.5"/>
<path d="M133.462 126.118C134.426 127.348 137.918 129.807 144.167 129.807" stroke="#4D545C" stroke-width="0.5"/>
<path d="M118.344 140.006L119.863 138.921" stroke="#4D545C" stroke-width="0.5"/>
<g style="mix-blend-mode:multiply">
<path d="M128.904 105.069C128.441 103.738 123.31 106.492 120.803 108.035L121.309 114.328C121.14 116.16 120.904 120.129 121.309 121.344C121.714 122.559 123.021 123.828 123.624 124.31L122.756 131.688L136.282 134.292L149.664 131.109L148.289 125.539L158.489 122.357C156.632 118.017 152.875 109.076 152.702 108.035C152.528 106.993 145.637 104.9 142.213 103.984C139.754 107.48 134.633 114.53 133.823 114.762C132.81 115.051 129.483 106.733 128.904 105.069Z" fill="#F6E6F7"/>
</g>
<path d="M94.1272 132.551C94.3488 133.489 93.9024 134.298 93.2612 134.449C92.62 134.601 91.8586 134.077 91.637 133.139C91.4153 132.201 91.8618 131.392 92.5029 131.241C93.1441 131.089 93.9056 131.613 94.1272 132.551Z" stroke="#4D545C" stroke-width="0.5"/>
<path d="M117.548 138.849L119.429 137.836" stroke="#4D545C" stroke-width="0.5"/>
<path d="M72.1984 74.4305C72.4772 74.5326 69.3698 78.8923 65.3953 81.1691C65.3953 81.1691 47.1123 98.0565 43.7675 96.8211C40.4227 95.5857 25.3814 63.1279 33.6299 61.6373C33.6299 61.6373 35.7772 60.1058 37.2844 62.0355C38.7916 63.9652 43.303 66.3952 50.3436 82.4556L61.6994 76.6359C61.6994 76.6359 64.0532 71.0714 64.4455 71.9699C64.8378 72.8683 63.919 75.3392 63.919 75.3392C63.919 75.3392 69.8137 70.9386 70.5983 71.3266C71.3829 71.7146 72.1984 74.4305 72.1984 74.4305Z" fill="white" stroke="#4D545C" stroke-width="0.5" stroke-linecap="round" stroke-linejoin="round"/>
<path d="M46.7915 76.6553C44.2068 71.3861 40.9659 66.4729 37.1476 62.0354C35.6732 60.1058 33.5727 61.6372 33.5727 61.6372C28.1701 62.6582 32.9971 77.5333 37.7534 87.6406C40.565 83.8144 43.5823 80.1471 46.7915 76.6553Z" fill="white" stroke="#4D545C" stroke-width="0.5" stroke-linecap="round" stroke-linejoin="round"/>
<path d="M42.8841 64.0532C42.8841 64.0532 36.7492 56.1203 30.5154 59.9303C24.2815 63.7404 31.9451 80.931 35.3584 84.7515L49.1035 77.0689L42.8841 64.0532Z" fill="white" stroke="#4D545C" stroke-width="0.5" stroke-linecap="round" stroke-linejoin="round"/>
<path d="M35.5574 84.1735C33.2768 83.7424 29.546 69.5149 30.9017 66.9999C30.9017 66.9999 37.922 62.9555 38.3739 63.4071C42.9245 68.0059 35.5574 84.1735 35.5574 84.1735Z" fill="white" stroke="#4D545C" stroke-width="0.5" stroke-linecap="round" stroke-linejoin="round"/>
<path d="M43.584 189.085L43.459 182.403L36.9689 182.899L37.1356 189.312L40.1671 194.537L45.6362 190.365L43.584 189.085Z" fill="white" stroke="#4D545C" stroke-width="0.5" stroke-linecap="round" stroke-linejoin="round"/>
<path d="M44.6948 188.421C43.4952 189.794 42.1838 191.057 40.7756 192.193C39.4622 193.229 37.5027 188.781 36.8981 188.225C36.773 188.116 36.6062 188.225 36.5854 188.421L35.8141 195.693H55.0453C55.1079 195.69 55.169 195.672 55.2246 195.642C55.2801 195.612 55.3288 195.569 55.3674 195.517C55.4059 195.466 55.4334 195.406 55.448 195.342C55.4625 195.279 55.4639 195.212 55.4518 195.148C54.4303 189.74 44.6948 188.421 44.6948 188.421Z" fill="white" stroke="#4D545C" stroke-width="0.5" stroke-linecap="round" stroke-linejoin="round"/>
<path d="M46.9486 194.66C46.9486 194.66 47.7083 190.769 50.2725 190.096M55.2529 194.808H35.9573" stroke="#4D545C" stroke-width="0.5" stroke-linecap="round" stroke-linejoin="round"/>
<path d="M36.4049 190.686L40.5278 194.808" stroke="#4D545C" stroke-width="0.5" stroke-linecap="round" stroke-linejoin="round"/>
<path d="M13.548 189.834L15.5898 183.235L8.45391 182.981L6.92254 189.961L9.57058 194.537L15.1432 190.258L13.548 189.834Z" fill="white" stroke="#4D545C" stroke-width="0.5" stroke-linecap="round" stroke-linejoin="round"/>
<path d="M13.8079 188.987C12.6465 190.364 11.3735 191.627 10.0039 192.76C8.7292 193.85 6.82721 189.358 6.23031 188.802C6.11903 188.693 5.94705 188.802 5.92682 188.998L5.18827 196.271H23.8539C23.9151 196.266 23.9746 196.247 24.0286 196.215C24.0825 196.184 24.1296 196.14 24.1669 196.088C24.2041 196.035 24.2307 195.975 24.2448 195.911C24.2588 195.846 24.2601 195.779 24.2485 195.715C23.2368 190.318 13.8079 188.987 13.8079 188.987Z" fill="white" stroke="#4D545C" stroke-width="0.5" stroke-linecap="round" stroke-linejoin="round"/>
<path d="M16.3672 194.988C16.3672 194.988 17.4745 191.557 19.9137 190.98M24.0366 195.115H5.48356" stroke="#4D545C" stroke-width="0.5" stroke-linecap="round" stroke-linejoin="round"/>
<path d="M5.76678 191.071L9.81152 195.115" stroke="#4D545C" stroke-width="0.5" stroke-linecap="round" stroke-linejoin="round"/>
<path d="M43.5644 106.131C43.5644 106.131 45.9837 135.324 46.1981 143.419C46.4125 151.515 44.3708 182.981 44.3708 182.981H36.2756C36.2756 182.981 27.7108 127.321 17.9007 107.89L43.5644 106.131Z" fill="white" stroke="#4D545C" stroke-width="0.5" stroke-linecap="round" stroke-linejoin="round"/>
<path d="M34.9987 183.617L44.6692 183.421L45.2393 177.727H34.0485L34.9987 183.617Z" fill="white" stroke="#4D545C" stroke-width="0.5" stroke-linecap="round" stroke-linejoin="round"/>
<path d="M43.9023 106.131C43.9023 106.131 38.1818 130.466 32.3778 147.673C27.6889 161.589 15.2578 183.559 15.2578 183.559L6.92184 183.199L15.758 148.085C16.3036 146.009 16.6524 143.888 16.8 141.749C17.321 133.665 15.6329 117.332 14.9348 106.861L43.9023 106.131Z" fill="white" stroke="#4D545C" stroke-width="0.5" stroke-linecap="round" stroke-linejoin="round"/>
<path d="M6.36713 183.617L15.7909 184.206L18.7358 178.3L7.11802 177.727L6.36713 183.617Z" fill="white" stroke="#4D545C" stroke-width="0.5" stroke-linecap="round" stroke-linejoin="round"/>
<path d="M21.689 54.9685C21.689 54.9685 8.96169 56.2645 8.16045 66.8274C7.35922 77.3904 12.6495 121.154 12.6495 121.154L47.3696 118.933L44.0928 69.3164C43.968 66.6337 43.1428 64.0307 41.6994 61.7671C40.364 59.71 38.8026 57.3341 37.9192 57.221L23.6407 53.5491L21.689 54.9685Z" fill="white" stroke="#4D545C" stroke-width="0.5" stroke-linecap="round" stroke-linejoin="round"/>
<g style="mix-blend-mode:multiply">
<path d="M46.123 118.34L44.6506 96.5476L37.2883 95.9587L21.9746 105.382C17.7339 104.204 14.5141 94.8788 13.4343 90.3633L9.60591 92.4247L12.5508 120.696L46.123 118.34Z" fill="#FDE8EC"/>
</g>
<path d="M25.6879 46.0741L21.946 56.0039L24.768 57.3916C29.0473 58.9541 32.9029 57.9673 33.5024 56.2095L32.9339 50.2783L26.9387 44.8817C26.5603 45.1388 26.2134 45.439 25.905 45.776C25.848 45.8856 25.7749 45.9861 25.6879 46.0741Z" fill="white" stroke="#4D545C" stroke-width="0.5" stroke-linecap="round" stroke-linejoin="round"/>
<path d="M37.0482 95.4791L48.675 74.3091C48.9752 73.7509 49.3909 73.2639 49.894 72.8806C50.3972 72.4973 50.9761 72.2268 51.592 72.0872L77.9161 70.3179C78.0204 70.2954 78.129 70.3043 78.2282 70.3436C78.3275 70.3828 78.413 70.4505 78.4742 70.5383C78.5354 70.6262 78.5694 70.7302 78.5721 70.8373C78.5748 70.9445 78.546 71.05 78.4893 71.1408L67.323 91.2101C67.0312 91.7399 66.6346 92.2039 66.1576 92.5736C65.6806 92.9434 65.1332 93.211 64.5493 93.3601L37.6418 96.2918C37.5375 96.3177 37.4279 96.3119 37.3269 96.2751C37.2258 96.2383 37.138 96.1722 37.0744 96.0852C37.0108 95.9981 36.9743 95.894 36.9697 95.7861C36.965 95.6782 36.9924 95.5714 37.0482 95.4791Z" fill="white" stroke="#4D545C" stroke-width="0.5" stroke-linecap="round" stroke-linejoin="round"/>
<path d="M38.2008 97.2038L48.8571 76.8904C49.7262 75.6409 51.0274 74.7523 52.5131 74.3938L80.7951 72.6296C80.9009 72.6071 81.0111 72.616 81.1118 72.6554C81.2125 72.6947 81.2994 72.7626 81.3614 72.8507C81.4235 72.9388 81.458 73.0431 81.4608 73.1505C81.4635 73.258 81.4342 73.3639 81.3767 73.455L70.0452 93.5827C69.7491 94.1139 69.3467 94.5793 68.8626 94.9501C68.3785 95.321 67.8231 95.5894 67.2305 95.7388L38.8032 98.0291C38.6969 98.0519 38.5862 98.0434 38.4846 98.0047C38.3831 97.9661 38.295 97.8989 38.2312 97.8115C38.1673 97.724 38.1305 97.62 38.1251 97.5121C38.1197 97.4042 38.146 97.2971 38.2008 97.2038Z" fill="white" stroke="#4D545C" stroke-width="0.5" stroke-linecap="round" stroke-linejoin="round"/>
<path d="M44.4778 82.4403L49.6807 84.0977L42.7468 85.3294L44.4778 82.4403Z" fill="white" stroke="#4D545C" stroke-width="0.5" stroke-linecap="round" stroke-linejoin="round"/>
<path d="M44.0363 90.3774C43.1358 90.9224 32.7081 99.9608 24.3168 104.125C22.0041 105.267 18.9853 102.603 18.1768 100.187L10.3893 79.6219L23.0581 73.1953C23.1093 73.3393 25.3401 86.141 27.1514 90.5522C27.7961 92.1357 27.397 91.9095 28.8706 91.3646L40.3012 85.5035C40.7925 85.0571 41.2289 84.5531 41.6008 84.0023C42.4351 82.9821 43.4608 82.1366 44.6196 81.5139L43.2279 84.0331C42.9823 84.4547 43.2279 84.5472 44.1182 84.177L49.7977 81.7812C49.7977 81.7812 51.0871 81.5036 50.4117 82.028C49.7363 82.5524 47.485 83.9611 47.4031 84.0125C45.9602 84.7837 51.128 82.3262 51.1178 82.8198C51.1075 83.3133 48.1092 85.01 48.1603 85.0717C48.2115 85.1333 51.4043 83.6424 51.4145 84.1051C51.4248 84.5678 48.5799 85.9662 48.4878 85.9765C48.3957 85.9868 50.7596 84.7015 50.7801 84.9482C50.8005 85.195 44.5787 90.0689 44.0363 90.3774Z" fill="white" stroke="#4D545C" stroke-width="0.5" stroke-linecap="round" stroke-linejoin="round"/>
<path d="M22.0302 64.0475C22.0302 64.0475 20.9036 55.7669 13.6849 57.1777C3.7435 59.1201 6.95645 87.908 9.63738 92.263L29.4575 82.9396L22.0302 64.0475Z" fill="white"/>
<path d="M22.0302 64.0475C22.0302 64.0475 20.9036 55.7669 13.6849 57.1777C3.7435 59.1201 6.95645 87.908 9.63738 92.263L29.4575 82.9396L22.0302 64.0475Z" stroke="#4D545C" stroke-width="0.5" stroke-linecap="round" stroke-linejoin="round"/>
<path d="M37.1363 35.763C37.2409 37.7197 35.5775 36.9536 35.5775 36.9536C32.2368 39.2107 29.0368 41.6653 25.9949 44.304C25.9949 44.304 24.0386 43.952 24.0177 43.4654C23.9235 39.7488 24.1537 35.2557 24.1537 35.2557C23.8048 35.0231 23.5242 34.7034 23.3405 34.3288C23.1567 33.9543 23.0764 33.5383 23.1076 33.1231C23.1076 33.1231 23.5051 31.5495 24.8651 31.7772C24.7867 31.5215 24.7825 31.2491 24.8527 30.9911C24.923 30.733 25.065 30.4997 25.2626 30.3175C25.4655 30.1722 25.7144 30.1038 25.9639 30.1247C26.2135 30.1456 26.4472 30.2544 26.6226 30.4314C26.6578 29.9022 26.8639 29.3983 27.2105 28.9938C27.557 28.5893 28.0257 28.3057 28.5475 28.1849C29.0747 28.0642 29.6278 28.1271 30.1137 28.3628C30.5996 28.5985 30.9886 28.9927 31.2151 29.4789C31.2151 29.4789 31.5604 28.5265 32.1253 28.5782C32.6902 28.63 32.9204 29.5307 32.9204 29.5307C32.9385 29.3237 33.0026 29.1232 33.1083 28.9436C33.214 28.764 33.3585 28.6098 33.5315 28.4921C33.7045 28.3743 33.9017 28.2959 34.1089 28.2625C34.3162 28.229 34.5283 28.2414 34.7302 28.2987C36.4354 28.5265 36.54 30.4831 36.54 30.4831C36.5578 30.3914 36.595 30.3045 36.6491 30.228C36.7032 30.1515 36.7731 30.0872 36.8541 30.0393C36.9351 29.9914 37.0254 29.961 37.1191 29.9501C37.2128 29.9391 37.3078 29.9479 37.3978 29.9759C38.444 30.1519 38.9775 31.3838 38.0151 32.564C38.2505 32.7483 38.436 32.9877 38.5547 33.2606C38.6734 33.5335 38.7216 33.8313 38.695 34.1273C38.6637 35.1936 37.1363 35.763 37.1363 35.763Z" fill="white"/>
<path d="M37.1363 35.763C37.2409 37.7197 35.5775 36.9536 35.5775 36.9536C32.2368 39.2107 29.0368 41.6653 25.9949 44.304C25.9949 44.304 24.0386 43.952 24.0177 43.4654C23.9235 39.7488 24.1537 35.2557 24.1537 35.2557C23.8048 35.0231 23.5242 34.7034 23.3405 34.3288C23.1567 33.9543 23.0764 33.5383 23.1076 33.1231C23.1076 33.1231 23.5051 31.5495 24.8651 31.7772C24.7867 31.5215 24.7825 31.2491 24.8527 30.9911C24.923 30.733 25.065 30.4997 25.2626 30.3175C25.4655 30.1722 25.7144 30.1038 25.9639 30.1247C26.2135 30.1456 26.4472 30.2544 26.6226 30.4314C26.6578 29.9022 26.8639 29.3983 27.2105 28.9938C27.557 28.5893 28.0257 28.3057 28.5475 28.1849C29.0747 28.0642 29.6278 28.1271 30.1137 28.3628C30.5996 28.5985 30.9886 28.9927 31.2151 29.4789C31.2151 29.4789 31.5604 28.5265 32.1253 28.5782C32.6902 28.63 32.9204 29.5307 32.9204 29.5307C32.9385 29.3237 33.0026 29.1232 33.1083 28.9436C33.214 28.764 33.3585 28.6098 33.5315 28.4921C33.7045 28.3743 33.9017 28.2959 34.1089 28.2625C34.3162 28.229 34.5283 28.2414 34.7302 28.2987C36.4354 28.5265 36.54 30.4831 36.54 30.4831C36.5578 30.3914 36.595 30.3045 36.6491 30.228C36.7032 30.1515 36.7731 30.0872 36.8541 30.0393C36.9351 29.9914 37.0254 29.961 37.1191 29.9501C37.2128 29.9391 37.3078 29.9479 37.3978 29.9759C38.444 30.1519 38.9775 31.3838 38.0151 32.564C38.2505 32.7483 38.436 32.9877 38.5547 33.2606C38.6734 33.5335 38.7216 33.8313 38.695 34.1273C38.6637 35.1936 37.1363 35.763 37.1363 35.763Z" stroke="#4D545C" stroke-width="0.5" stroke-linecap="round" stroke-linejoin="round"/>
<g style="mix-blend-mode:multiply">
<path d="M19.9135 57.0857C24.3898 59.6772 31.006 58.7545 33.7546 57.9692C34.8345 57.9692 37.3475 58.2637 38.761 59.4416C40.1746 60.6196 44.8472 70.5342 47.0068 75.3443L43.4729 78.5837V80.9396L39.939 84.768L27.2758 90.9524L24.9199 83.8846L9.60622 90.9524C5.83671 79.4083 7.05395 68.6691 8.13375 64.7425C8.13375 62.9755 14.3181 53.8463 19.9135 57.0857Z" fill="#FDE8EC"/>
</g>
<path d="M25.9905 42.3816C25.9743 42.4245 25.9477 42.4628 25.9129 42.493C25.8782 42.5232 25.8365 42.5443 25.7915 42.5545C25.7465 42.5647 25.6997 42.5636 25.6552 42.5513C25.6108 42.539 25.5701 42.5159 25.5369 42.4841C25.0523 42.0124 24.0832 41.3561 23.7327 43.2532C23.2688 45.817 25.9596 45.376 26.176 45.7247C26.609 46.4221 28.0111 48.8012 30.0936 49.6934C30.8309 50.0378 31.6542 50.1573 32.4596 50.0369C33.2651 49.9164 34.0166 49.5614 34.6195 49.0166C36.0112 47.6937 36.7741 49.2525 36.1968 35.1004C36.0855 35.4395 35.8451 35.7217 35.5271 35.8866C35.2092 36.0514 34.8389 36.0858 34.4957 35.9824C33.5576 35.7875 32.805 34.9569 31.774 34.7108C31.3626 34.5432 30.9197 34.4658 30.4755 34.4839C30.0313 34.502 29.5962 34.6152 29.1999 34.8157C28.8037 35.0162 28.4555 35.2993 28.1792 35.6458C27.9029 35.9922 27.7049 36.3938 27.5988 36.8233C27.1451 38.1975 26.4132 41.356 25.9905 42.3816Z" fill="white" stroke="#4D545C" stroke-width="0.5" stroke-linecap="round" stroke-linejoin="round"/>
<path d="M35.814 44.8817C34.8858 45.257 33.8916 45.3491 32.9249 45.1492C32.9249 45.1492 34.0329 46.9119 34.8406 46.5715C35.6483 46.2311 35.814 44.8817 35.814 44.8817Z" fill="#4D545C"/>
<path d="M34.0801 41.4093C34.0801 41.7274 33.9492 41.9924 33.7966 41.9924C33.644 41.9924 33.5023 41.7274 33.5023 41.4093C33.5023 41.0912 33.6331 40.8368 33.7966 40.8368C33.9601 40.8368 34.0801 41.0912 34.0801 41.4093Z" fill="#4D545C"/>
<path d="M35.814 41.4093C35.814 41.738 35.6831 41.9924 35.5196 41.9924C35.3561 41.9924 35.2361 41.738 35.2361 41.4093C35.2361 41.0807 35.367 40.8368 35.5196 40.8368C35.6722 40.8368 35.814 41.0913 35.814 41.4093Z" fill="#4D545C"/>
<path d="M34.797 42.5707L35.5251 44.1673V44.2403L34.6583 44.3042M34.3694 39.3927C33.9842 39.2964 33.156 39.1038 32.9249 39.1038M35.2361 39.3927L35.814 39.1038" stroke="#4D545C" stroke-width="0.5" stroke-linecap="round" stroke-linejoin="round"/>
</svg>
