<svg width="199" height="194" viewBox="0 0 199 194" fill="none" xmlns="http://www.w3.org/2000/svg">
<path opacity="0.5" d="M186 22.75H189.75V19H192.25V22.75H196V25.25H192.25V29H189.75V25.25H186V22.75Z" stroke="#4D545C" stroke-width="0.5"/>
<path opacity="0.5" d="M186 4.75H189.75V1H192.25V4.75H196V7.25H192.25V11H189.75V7.25H186V4.75Z" stroke="#4D545C" stroke-width="0.5"/>
<rect x="17.25" y="41.25" width="165.5" height="120.5" rx="3.75" fill="white" stroke="#4D545C" stroke-width="0.5"/>
<path d="M0 156C0 155.448 0.447715 155 1 155H198C198.552 155 199 155.448 199 156V160C199 163.314 196.314 166 193 166H6C2.6863 166 0 163.314 0 160V156Z" fill="white"/>
<path d="M0.25 156C0.25 155.586 0.585786 155.25 1 155.25H198C198.414 155.25 198.75 155.586 198.75 156V160C198.75 163.176 196.176 165.75 193 165.75H6C2.82437 165.75 0.25 163.176 0.25 160V156Z" stroke="#4D545C" stroke-width="0.5"/>
<rect x="28" y="50" width="137" height="98" fill="#EFF3FF"/>
<rect opacity="0.5" x="27.25" y="12.75" width="5.5" height="5.5" transform="rotate(-90 27.25 12.75)" stroke="#4D545C" stroke-width="0.5"/>
<rect opacity="0.5" x="16.25" y="12.75" width="5.5" height="5.5" transform="rotate(-90 16.25 12.75)" stroke="#4D545C" stroke-width="0.5"/>
<rect opacity="0.5" x="5.25" y="12.75" width="5.5" height="5.5" transform="rotate(-90 5.25 12.75)" stroke="#4D545C" stroke-width="0.5"/>
<path d="M78 155.625C78 157.083 78.77 160 81.85 160C84.93 160 101.833 160 117.6 160C119.067 160 122 159 122 155" stroke="#4D545C" stroke-width="0.5"/>
<path d="M58.5282 43.6586C57.832 43.7304 46.0316 31.6555 43.68 30.8873C41.886 30.3012 40.2656 29.8577 39.7404 29.3428C38.1645 27.7984 38.9524 25.4817 38.9524 23.9373C38.9524 22.3928 43.68 23.9373 45.2559 23.9373C46.5166 23.9373 47.8824 27.0262 48.4077 28.5706C53.398 33.7188 67.3637 43.1651 66.7006 44.8225C65.5344 47.7376 50.959 54.7339 46.2948 61.1471L44.5458 50.0697C51.3285 45.2352 58.2307 43.7223 58.5282 43.6586Z" fill="white"/>
<path d="M58.5282 43.6586C57.832 43.7304 46.0316 31.6555 43.68 30.8873C41.886 30.3012 40.2656 29.8577 39.7404 29.3428C38.1645 27.7984 38.9524 25.4817 38.9524 23.9373C38.9524 22.3928 43.68 23.9373 45.2559 23.9373C46.5166 23.9373 47.8824 27.0262 48.4077 28.5706C53.398 33.7188 67.3637 43.1651 66.7006 44.8225C65.5344 47.7376 50.959 54.7339 46.2948 61.1471L44.5458 50.0697C51.3285 45.2352 58.2307 43.7223 58.5282 43.6586Z" stroke="#4D545C" stroke-width="0.5" stroke-linecap="round"/>
<path d="M36.4898 179.325L37.6389 187.24C37.6389 187.24 39.4775 192.483 41.1782 190.449C42.1746 189.266 43.3347 188.224 44.6255 187.352L45.1886 179.112L36.4898 179.325Z" fill="white" stroke="#4D545C" stroke-width="0.5" stroke-linecap="round" stroke-linejoin="round"/>
<path d="M34.5964 194C34.5222 190.925 34.9733 188.626 35.3895 185.577C35.4314 185.455 35.5099 185.348 35.6149 185.27C35.72 185.192 35.8467 185.146 35.9789 185.138C36.1092 185.113 36.2435 185.117 36.3718 185.15C36.5001 185.183 36.6189 185.244 36.7194 185.328C37.6111 186.178 39.0604 188.734 41.4347 187.982C42.4094 187.673 43.8941 186.955 44.7441 186.399C44.9044 186.286 45.0975 186.225 45.2957 186.225C45.494 186.225 45.6871 186.286 45.8473 186.399L53.2675 189.884C53.8127 190.105 54.2716 190.487 54.5784 190.977C54.8853 191.466 55.0242 192.038 54.9752 192.608C54.8846 193.707 54.7408 194 54.3932 194H34.5964Z" fill="white"/>
<path d="M36.0254 185.383C36.0151 185.385 36.0046 185.386 35.994 185.387C35.9098 185.392 35.8299 185.422 35.7644 185.47C35.705 185.515 35.6602 185.573 35.6335 185.638C35.5576 186.193 35.4808 186.722 35.4064 187.235C35.0831 189.462 34.8052 191.377 34.8415 193.75H54.3932C54.4437 193.75 54.4637 193.74 54.4747 193.732C54.4884 193.723 54.5171 193.696 54.551 193.617C54.6235 193.449 54.6805 193.14 54.7261 192.588L54.7261 192.587C54.7704 192.071 54.6449 191.554 54.3666 191.11C54.0883 190.666 53.671 190.317 53.1736 190.115L53.1735 190.116L53.1612 190.11L45.741 186.625C45.7278 186.619 45.7151 186.611 45.7031 186.603C45.5855 186.52 45.4429 186.475 45.2957 186.475C45.1486 186.475 45.0059 186.52 44.8883 186.603L44.8884 186.603L44.881 186.608C44.0132 187.175 42.508 187.904 41.5102 188.22C40.2088 188.633 39.1649 188.127 38.3597 187.447C37.9586 187.108 37.6091 186.719 37.3088 186.37C37.2363 186.285 37.1673 186.204 37.1015 186.126C36.891 185.878 36.7128 185.668 36.5532 185.515C36.4828 185.458 36.3997 185.415 36.3095 185.392C36.2169 185.368 36.1197 185.365 36.0254 185.383Z" stroke="#4D545C" stroke-width="0.5" stroke-linecap="round" stroke-linejoin="round"/>
<path d="M34.9815 192.14H46.3158" stroke="#4D545C" stroke-width="0.5" stroke-linecap="round" stroke-linejoin="round"/>
<path d="M9.77362 179.143L7.39492 186.342C7.39492 186.342 5.59744 187.851 4.94088 187.811C3.75691 187.739 3.11729 186.716 3.11729 186.716L3.13264 179.952L9.77362 179.143Z" fill="white" stroke="#4D545C" stroke-width="0.5" stroke-linecap="round" stroke-linejoin="round"/>
<path d="M1.08134 188.33C1.08169 188.335 1.08186 188.341 1.08186 188.346V190.945H9.88593V188.346C9.88593 188.341 9.88609 188.336 9.88641 188.33C9.96368 187.085 9.6379 185.859 8.98781 184.914C8.34143 183.976 7.43224 183.399 6.46256 183.283H4.50475C3.53404 183.395 2.62308 183.971 1.9761 184.91C1.32551 185.855 1.00089 187.084 1.08134 188.33Z" fill="white" stroke="#4D545C" stroke-width="0.5" stroke-linecap="round" stroke-linejoin="round"/>
<path d="M0.263668 191.373C0.264213 191.379 0.264484 191.386 0.264484 191.393V193.75H10.4432V191.393C10.4432 191.386 10.4434 191.38 10.4439 191.374C10.5311 190.255 10.1649 189.146 9.42257 188.287C8.68252 187.43 7.62732 186.889 6.48227 186.781H4.22503C3.07863 186.885 2.02135 187.425 1.28066 188.283C0.537809 189.143 0.172988 190.253 0.263668 191.373Z" fill="white" stroke="#4D545C" stroke-width="0.5" stroke-linecap="round" stroke-linejoin="round"/>
<path d="M7.4465 191.737H0.659003" stroke="#4D545C" stroke-width="0.5" stroke-linecap="round" stroke-linejoin="round"/>
<path d="M20.642 59.3979C20.642 59.3979 23.5835 50.1055 20.059 50.6526C14.1812 51.5937 9.30644 64.4473 11.8787 82.2516C12.7105 88.0404 36.1672 82.4047 36.1672 82.4047L32.8854 80.9696L18.31 78.0545L20.642 59.3979Z" fill="white" stroke="#4D545C" stroke-width="0.5" stroke-linecap="round" stroke-linejoin="round"/>
<path d="M23.3055 76.0812C20.4188 81.0386 18.2947 86.4025 17.0049 91.9927C15.0111 99.8052 3.87477 165.82 2.93848 180.002C5.48888 180.401 8.07935 180.479 10.6491 180.233C15.5949 166.063 30.2561 120.268 32.3821 111.331C32.4488 111.05 32.6184 110.804 32.8573 110.642C33.0963 110.479 33.3873 110.412 33.6732 110.454C33.9591 110.495 34.2192 110.642 34.4022 110.866C34.5852 111.089 34.678 111.373 34.6622 111.662C33.4505 121.865 35.3341 163.297 36.3035 180.476C37.5922 181.137 43.7607 181.016 45.2478 180.828C46.867 163.341 55.4699 97.0835 42.483 75.6514C36.5238 74.836 29.3419 75.9049 23.3055 76.0812Z" fill="white" stroke="#4D545C" stroke-width="0.5" stroke-linecap="round" stroke-linejoin="round"/>
<path d="M35.8694 175.384H45.8108" stroke="#4D545C" stroke-width="0.5" stroke-linecap="round" stroke-linejoin="round"/>
<path d="M3.43358 175.315H12.3004" stroke="#4D545C" stroke-width="0.5" stroke-linecap="round" stroke-linejoin="round"/>
<g style="mix-blend-mode:multiply">
<path d="M43.4884 79.6798C43.4884 79.6798 53.5802 112.16 44.8332 173.415H36.742C36.742 173.415 35.7306 108.664 35.0304 107.795C34.3302 106.926 10.1677 173.415 10.1677 173.415H4.06601C4.06601 173.415 18.9174 83.5306 22.9741 78.6376C23.1742 78.3957 29.5594 81.8271 36.3835 80.3867L43.4884 79.6798Z" fill="#F1F7FF"/>
</g>
<path d="M19.4762 50.6527C22.7411 50.1863 26.278 49.2923 27.6384 48.9037C29.5042 47.5044 28.4158 40.5471 27.6384 37.2433H37.5496C36.9666 40.1584 36.2669 46.455 38.1326 48.3206C40.4647 50.6527 46.1365 48.5869 46.2948 48.9037C47.4609 51.2357 45.1288 72.2244 43.9628 76.3055C42.7967 80.3867 19.4762 79.2206 20.6422 75.7225C21.8082 72.2244 15.395 51.2357 19.4762 50.6527Z" fill="white"/>
<path d="M19.4762 50.6527C22.7411 50.1863 26.278 49.2923 27.6384 48.9037C29.5042 47.5044 28.4158 40.5471 27.6384 37.2433H37.5496C36.9666 40.1584 36.2669 46.455 38.1326 48.3206C40.4647 50.6527 46.1365 48.5869 46.2948 48.9037C47.4609 51.2357 45.1288 72.2244 43.9628 76.3055C42.7967 80.3867 19.4762 79.2206 20.6422 75.7225C21.8082 72.2244 15.395 51.2357 19.4762 50.6527Z" stroke="#4D545C" stroke-width="0.5" stroke-linecap="round"/>
<path d="M40.406 29.0809C40.406 29.0809 45.28 37.3405 44.1987 39.6232C43.0387 42.1902 40.3489 40.5888 39.8345 40.0543" fill="white"/>
<path d="M40.406 29.0809C40.406 29.0809 45.28 37.3405 44.1987 39.6232C43.0387 42.1902 40.3489 40.5888 39.8345 40.0543" stroke="#4D545C" stroke-width="0.5" stroke-linecap="round" stroke-linejoin="round"/>
<path d="M44.5458 42.4904C41.6307 37.8263 41.5158 25.0219 40.9293 23.9274C39.3912 21.0571 31.408 19.9462 28.3649 21.9007C23.4297 25.0502 22.7206 33.9957 18.3112 43.6619C18.3112 43.6619 19.3469 47.7376 31.1374 47.7376C42.9279 47.7376 44.5458 42.4904 44.5458 42.4904Z" fill="white" stroke="#4D545C" stroke-width="0.5" stroke-linecap="round" stroke-linejoin="round"/>
<path d="M20.059 82.7187C24.3345 84.2734 34.6345 86.6832 41.6307 83.8847" stroke="#4D545C" stroke-width="0.5" stroke-linecap="round" stroke-linejoin="round" stroke-dasharray="2 2"/>
<path d="M20.059 87.3829L18.3099 95.5451L27.0552 97.2942L28.2213 88.5489" stroke="#4D545C" stroke-width="0.5" stroke-linecap="round" stroke-linejoin="round" stroke-dasharray="2 2"/>
<path d="M42.7967 87.3829L44.5458 95.5451L35.8005 97.2942L34.6345 88.5489" stroke="#4D545C" stroke-width="0.5" stroke-linecap="round" stroke-linejoin="round" stroke-dasharray="2 2"/>
<path d="M24.14 50.0697C26.2777 53.5678 32.7687 58.3485 41.6306 49.4866" stroke="#4D545C" stroke-width="0.5" stroke-linecap="round"/>
<path d="M150.758 65.1617C153.536 59.4982 157.019 54.2174 161.123 49.4479C162.708 47.374 164.965 49.02 164.965 49.02C170.772 50.1173 165.584 66.1054 160.472 76.9689C157.45 72.8564 154.207 68.9147 150.758 65.1617Z" fill="white" stroke="#4D545C" stroke-width="0.5" stroke-linecap="round" stroke-linejoin="round"/>
<path d="M162.834 73.2426C165.285 72.7792 169.295 57.4873 167.838 54.7841C167.838 54.7841 160.293 50.4371 159.807 50.9225C154.916 55.8654 162.834 73.2426 162.834 73.2426Z" fill="white" stroke="#4D545C" stroke-width="0.5" stroke-linecap="round" stroke-linejoin="round"/>
<path d="M154.205 186.002L154.34 178.821L161.315 179.354L161.136 186.247L157.878 191.863L152 187.379L154.205 186.002Z" fill="white" stroke="#4D545C" stroke-width="0.5" stroke-linecap="round" stroke-linejoin="round"/>
<path d="M153.013 185.289C154.302 186.766 155.712 188.122 157.225 189.344C158.637 190.457 160.743 185.676 161.393 185.078C161.527 184.961 161.707 185.078 161.729 185.289L162.558 193.105H141.888C141.821 193.102 141.755 193.083 141.695 193.05C141.636 193.018 141.583 192.972 141.542 192.917C141.5 192.861 141.471 192.797 141.455 192.728C141.439 192.66 141.438 192.589 141.451 192.52C142.549 186.707 153.013 185.289 153.013 185.289Z" fill="white" stroke="#4D545C" stroke-width="0.5" stroke-linecap="round" stroke-linejoin="round"/>
<path d="M150.464 191.727C150.464 191.727 149.198 188.028 146.412 187.407M141.664 191.864H162.558" stroke="#4D545C" stroke-width="0.5" stroke-linecap="round" stroke-linejoin="round"/>
<path d="M161.938 187.517L157.59 191.864" stroke="#4D545C" stroke-width="0.5" stroke-linecap="round" stroke-linejoin="round"/>
<path d="M186.489 186.809L184.295 179.716L191.965 179.443L193.61 186.945L190.764 191.864L184.775 187.264L186.489 186.809Z" fill="white" stroke="#4D545C" stroke-width="0.5" stroke-linecap="round" stroke-linejoin="round"/>
<path d="M186.209 185.899C187.457 187.379 188.825 188.736 190.297 189.953C191.667 191.125 193.712 186.297 194.353 185.7C194.473 185.582 194.658 185.7 194.679 185.911L195.473 193.727H175.411C175.345 193.722 175.281 193.701 175.223 193.667C175.165 193.634 175.115 193.587 175.075 193.53C175.035 193.474 175.006 193.409 174.991 193.34C174.976 193.271 174.974 193.199 174.987 193.129C176.074 187.329 186.209 185.899 186.209 185.899Z" fill="white" stroke="#4D545C" stroke-width="0.5" stroke-linecap="round" stroke-linejoin="round"/>
<path d="M183.459 192.348C183.459 192.348 182.269 188.661 179.647 188.04M175.216 192.484H195.157" stroke="#4D545C" stroke-width="0.5" stroke-linecap="round" stroke-linejoin="round"/>
<path d="M194.853 188.137L190.506 192.485" stroke="#4D545C" stroke-width="0.5" stroke-linecap="round" stroke-linejoin="round"/>
<path d="M154.227 96.8426C154.227 96.8426 151.626 128.22 151.396 136.921C151.166 145.622 153.36 179.443 153.36 179.443H162.061C162.061 179.443 171.266 119.618 181.811 98.7332L154.227 96.8426Z" fill="white" stroke="#4D545C" stroke-width="0.5" stroke-linecap="round" stroke-linejoin="round"/>
<path d="M163.433 180.126L153.039 179.915L152.426 173.796H164.454L163.433 180.126Z" fill="white" stroke="#4D545C" stroke-width="0.5" stroke-linecap="round" stroke-linejoin="round"/>
<path d="M153.864 96.8426C153.864 96.8426 160.012 122.998 166.25 141.493C171.29 156.451 184.651 180.064 184.651 180.064L193.611 179.677L184.114 141.935C183.527 139.705 183.152 137.425 182.994 135.126C182.434 126.437 184.248 108.881 184.998 97.6275L153.864 96.8426Z" fill="white" stroke="#4D545C" stroke-width="0.5" stroke-linecap="round" stroke-linejoin="round"/>
<path d="M194.207 180.126L184.078 180.759L180.913 174.411L193.4 173.796L194.207 180.126Z" fill="white" stroke="#4D545C" stroke-width="0.5" stroke-linecap="round" stroke-linejoin="round"/>
<path d="M177.739 41.8516C177.739 41.8516 191.418 43.2445 192.28 54.5978C193.141 65.9511 187.455 112.989 187.455 112.989L150.137 110.601L153.659 57.2731C153.793 54.3896 154.68 51.5918 156.231 49.1589C157.667 46.9479 159.345 44.3942 160.294 44.2726L175.641 40.326L177.739 41.8516Z" fill="white" stroke="#4D545C" stroke-width="0.5" stroke-linecap="round" stroke-linejoin="round"/>
<path d="M175.573 83.8287C174.453 83.6733 159.628 84.1491 149.805 81.9381C147.102 81.3234 146.388 77.0559 147.351 74.492L154.787 52.0569L167.1 57.4159C163.723 61.8505 162.844 67.6262 161.367 72.534C160.832 74.2921 160.652 73.8329 162.251 74.3766L175.759 77.2314C176.472 77.1918 177.177 77.0669 177.861 76.8594C179.248 76.5735 180.677 76.563 182.065 76.8286L179.197 77.9876C178.707 78.1729 178.849 78.4165 179.843 78.7109L186.205 80.5601C186.205 80.5601 187.469 81.2021 186.55 81.182C185.631 81.162 182.798 80.8119 182.695 80.7993C180.968 80.4651 186.945 81.9162 186.602 82.3211C186.259 82.726 182.608 82.11 182.609 82.1961C182.61 82.2823 186.284 83.2016 185.979 83.5946C185.674 83.9876 182.353 83.2268 182.269 83.1729C182.185 83.1191 185.029 83.6484 184.878 83.8682C184.728 84.0879 176.235 83.9388 175.573 83.8287Z" fill="white" stroke="#4D545C" stroke-width="0.5" stroke-linecap="round" stroke-linejoin="round"/>
<path d="M173.442 32.2923L177.464 42.9651L174.431 44.4566C169.831 46.1359 165.687 45.0753 165.043 43.186L165.654 36.8111L172.097 31.0107C172.504 31.287 172.877 31.6096 173.208 31.9719C173.27 32.0897 173.348 32.1977 173.442 32.2923Z" fill="white" stroke="#4D545C" stroke-width="0.5" stroke-linecap="round" stroke-linejoin="round"/>
<path d="M161.136 21.2095C161.024 23.3125 162.811 22.4891 162.811 22.4891C166.402 24.9152 169.842 27.5534 173.111 30.3895C173.111 30.3895 175.214 30.0112 175.236 29.4882C175.337 25.4935 175.09 20.6643 175.09 20.6643C175.465 20.4143 175.767 20.0706 175.964 19.668C176.162 19.2654 176.248 18.8183 176.214 18.372C176.214 18.372 175.787 16.6807 174.325 16.9255C174.41 16.6506 174.414 16.3579 174.339 16.0805C174.263 15.8032 174.111 15.5523 173.898 15.3566C173.68 15.2004 173.413 15.1269 173.144 15.1494C172.876 15.1718 172.625 15.2888 172.436 15.479C172.399 14.9102 172.177 14.3685 171.805 13.9338C171.432 13.4991 170.928 13.1943 170.368 13.0643C169.801 12.9347 169.206 13.0022 168.684 13.2556C168.162 13.5089 167.744 13.9326 167.5 14.4552C167.5 14.4552 167.129 13.4315 166.522 13.4872C165.915 13.5428 165.667 14.5109 165.667 14.5109C165.648 14.2884 165.579 14.0729 165.465 13.8799C165.352 13.6869 165.197 13.5211 165.011 13.3945C164.825 13.2679 164.613 13.1837 164.39 13.1478C164.167 13.1118 163.939 13.1251 163.722 13.1867C161.889 13.4315 161.777 15.5346 161.777 15.5346C161.758 15.436 161.718 15.3426 161.66 15.2604C161.602 15.1782 161.526 15.109 161.439 15.0576C161.352 15.0061 161.255 14.9734 161.155 14.9616C161.054 14.9499 160.952 14.9593 160.855 14.9893C159.731 15.1785 159.157 16.5027 160.192 17.7712C159.938 17.9693 159.739 18.2266 159.612 18.5199C159.484 18.8132 159.432 19.1333 159.461 19.4514C159.494 20.5975 161.136 21.2095 161.136 21.2095Z" fill="white" stroke="#4D545C" stroke-width="0.5" stroke-linecap="round" stroke-linejoin="round"/>
<path d="M173.115 28.3222C173.133 28.3684 173.161 28.4096 173.199 28.442C173.236 28.4745 173.281 28.4972 173.329 28.5081C173.378 28.519 173.428 28.5178 173.476 28.5046C173.523 28.4914 173.567 28.4666 173.603 28.4324C174.124 27.9254 175.165 27.22 175.542 29.2591C176.041 32.0147 173.149 31.5407 172.916 31.9155C172.45 32.665 170.943 35.2222 168.705 36.1812C167.913 36.5513 167.028 36.6798 166.162 36.5503C165.296 36.4209 164.489 36.0393 163.841 35.4537C162.345 34.0318 161.525 35.7072 162.145 20.4963C162.265 20.8607 162.523 21.1641 162.865 21.3413C163.207 21.5184 163.605 21.5554 163.974 21.4442C164.982 21.2348 165.791 20.342 166.899 20.0775C167.341 19.8974 167.817 19.8142 168.295 19.8336C168.772 19.8531 169.24 19.9747 169.666 20.1902C170.092 20.4057 170.466 20.71 170.763 21.0824C171.06 21.4548 171.273 21.8865 171.387 22.3481C171.874 23.8251 172.661 27.22 173.115 28.3222Z" fill="white" stroke="#4D545C" stroke-width="0.5" stroke-linecap="round" stroke-linejoin="round"/>
<path d="M165.467 32.6152C164.399 32.4837 164.196 32.7334 163.248 33.2099C163.248 33.2099 164.036 31.9139 164.969 32.0426C165.902 32.1713 165.467 32.6152 165.467 32.6152Z" fill="#4D545C"/>
<path d="M164.421 27.2782C164.421 27.6201 164.562 27.9049 164.726 27.9049C164.89 27.9049 165.042 27.6201 165.042 27.2782C165.042 26.9363 164.901 26.6628 164.726 26.6628C164.55 26.6628 164.421 26.9363 164.421 27.2782Z" fill="#4D545C"/>
<path d="M162.557 27.2782C162.557 27.6315 162.698 27.9049 162.874 27.9049C163.049 27.9049 163.178 27.6315 163.178 27.2782C163.178 26.9249 163.038 26.6628 162.874 26.6628C162.71 26.6628 162.557 26.9363 162.557 27.2782Z" fill="#4D545C"/>
<path d="M163.65 28.5269L162.868 30.2429V30.3214L163.799 30.39M164.11 25.1111C164.524 25.0076 165.414 24.8005 165.662 24.8005M163.178 25.1111L162.557 24.8005" stroke="#4D545C" stroke-width="0.5" stroke-linecap="round" stroke-linejoin="round"/>
<g style="mix-blend-mode:multiply">
<path d="M151.302 110.184L152.846 86.912L160.564 86.283H172.46C176.906 85.0251 184.439 85.1299 185.571 80.3077L189.584 82.5092L186.497 112.7L151.302 110.184Z" fill="#E8F8EC"/>
</g>
<path d="M154.847 49.7581C154.847 49.7581 158.867 41.0682 165.568 45.1633C167.099 51.2896 166.715 69.7564 163.047 73.8628L148.273 65.6054L154.847 49.7581Z" fill="white" stroke="#4D545C" stroke-width="0.5" stroke-linecap="round" stroke-linejoin="round"/>
<path d="M160.87 45.9743C161.009 47.0971 160.54 74.3641 162.606 84.2186C163.181 86.9304 170.648 83.6119 173.226 82.687L184.381 75.5113L189.331 52.2556C189.175 52.3082 179.686 62.1371 174.757 63.5422C172.991 64.0513 171.448 67.4462 170.928 65.8396L167.47 45.8856C167.52 45.1738 167.655 44.4702 167.873 43.7898C168.179 42.4068 168.21 40.9784 167.965 39.5859L166.764 42.4366C166.572 42.9244 166.33 42.7786 166.051 41.7807L164.295 35.3922C164.295 35.3922 163.672 34.1189 163.678 35.0379C163.685 35.957 163.993 38.7947 164.004 38.898C164.313 40.6292 162.95 34.6316 162.54 34.9685C162.13 35.3055 162.693 38.9654 162.606 38.9633C162.52 38.9611 161.655 35.2738 161.258 35.573C160.86 35.8721 161.572 39.2041 161.625 39.2887C161.677 39.3733 161.19 36.5226 160.968 36.6695C160.746 36.8164 160.77 45.3112 160.87 45.9743Z" fill="white" stroke="#4D545C" stroke-width="0.5" stroke-linecap="round" stroke-linejoin="round"/>
<path d="M179.354 50.524C179.354 50.524 183.181 43.6317 190.073 45.9292C199.864 50.6914 188.541 76.5608 183.181 78.8582L171.695 65.8399L179.354 50.524Z" fill="white" stroke="#4D545C" stroke-width="0.5" stroke-linecap="round" stroke-linejoin="round"/>
<path d="M160.973 70.4344L150.252 65.0738C154.541 49.758 158.676 45.929 160.208 45.929L160.973 70.4344Z" fill="#E8F8EC"/>
<g style="mix-blend-mode:multiply">
<path d="M180.118 42.8658C177.668 45.929 170.929 46.6948 167.866 46.6948L170.929 64.308L172.46 66.6054L183.181 78.0923C190.073 70.4344 192.371 57.4159 192.371 52.0554C192.371 46.6948 187.01 45.929 186.245 45.1632C185.632 44.5506 181.905 43.3764 180.118 42.8658Z" fill="#E8F8EC"/>
</g>
</svg>
