<svg width="11" height="14" viewBox="0 0 11 14" fill="none" xmlns="http://www.w3.org/2000/svg">
<rect x="1" y="5" width="8" height="8" fill="white"/>
<path fill-rule="evenodd" clip-rule="evenodd" d="M1.79 0C0.80141 0 0 0.80141 0 1.79V12.21C0 13.1986 0.80141 14 1.79 14H8.69C9.67859 14 10.48 13.1986 10.48 12.21V4.145V4.14L6.48 0H1.79ZM2.19 6.28C2.19 5.94863 2.45863 5.68 2.79 5.68H7.69C8.02137 5.68 8.29 5.94863 8.29 6.28V11.18C8.29 11.5114 8.02137 11.78 7.69 11.78H2.79C2.45863 11.78 2.19 11.5114 2.19 11.18V6.28ZM5.28506 8.13C5.75174 8.13 6.13006 7.75168 6.13006 7.285C6.13006 6.81832 5.75174 6.44 5.28506 6.44C4.81838 6.44 4.44006 6.81832 4.44006 7.285C4.44006 7.75168 4.81838 8.13 5.28506 8.13ZM3.93058 8.44685C3.74856 8.33398 3.50994 8.38451 3.38929 8.56147L2.69957 9.57305C2.65428 9.63947 2.63006 9.718 2.63006 9.79839V10.97C2.63006 11.1909 2.80914 11.37 3.03006 11.37H7.44006C7.66097 11.37 7.84006 11.1909 7.84006 10.97V7.68719C7.84006 7.29815 7.34094 7.13808 7.11467 7.45455L5.86291 9.2053C5.74035 9.37672 5.50582 9.42366 5.32673 9.3126L3.93058 8.44685Z" fill="#00ADE6"/>
<path d="M10.48 4.145L6.47998 0V2.355C6.47998 3.34359 7.28139 4.145 8.26998 4.145H10.48Z" fill="#66D9FF"/>
</svg>
