<?xml version="1.0" encoding="utf-8"?>
<!-- Generator: Adobe Illustrator 27.2.0, SVG Export Plug-In . SVG Version: 6.00 Build 0)  -->
<svg version="1.1" id="Layer_1" xmlns="http://www.w3.org/2000/svg" xmlns:xlink="http://www.w3.org/1999/xlink" x="0px" y="0px"
	 viewBox="0 0 16 16" style="enable-background:new 0 0 16 16;" xml:space="preserve">
<style type="text/css">
	.st0{clip-path:url(#SVGID_00000111869484241119929170000012562522712705507244_);}
	.st1{fill:#FFFFFF;}
	.st2{opacity:0.3;fill:#E24C1C;enable-background:new    ;}
	.st3{fill-rule:evenodd;clip-rule:evenodd;fill:#E24C1C;}
</style>
<g>
	<defs>
		<rect id="SVGID_1_" y="0" width="16" height="16"/>
	</defs>
	<clipPath id="SVGID_00000119839943759957964520000014364655857006239660_">
		<use xlink:href="#SVGID_1_"  style="overflow:visible;"/>
	</clipPath>
	<g style="clip-path:url(#SVGID_00000119839943759957964520000014364655857006239660_);">
		<rect y="0" class="st1" width="16" height="16"/>
		<path class="st2" d="M2.7,1.7H8h5.3c0.6,0,1,0.4,1,1v10.6c0,0.6-0.4,1-1,1H2.7c-0.6,0-1-0.4-1-1V2.7C1.7,2.1,2.1,1.7,2.7,1.7z"/>
		<path class="st3" d="M0,2.5C0,1.1,1.1,0,2.5,0h11C14.9,0,16,1.1,16,2.5v8c0,1.4-1.1,2.5-2.5,2.5h-11C1.1,13,0,11.9,0,10.5V2.5z
			 M2.5,1C1.7,1,1,1.7,1,2.5v8C1,11.3,1.7,12,2.5,12h11c0.8,0,1.5-0.7,1.5-1.5v-8C15,1.7,14.3,1,13.5,1H2.5z"/>
		<path class="st3" d="M0,13.5V10h1v3.5C1,14.3,1.7,15,2.5,15h11c0.8,0,1.5-0.7,1.5-1.5V10h1v3.5c0,1.4-1.1,2.5-2.5,2.5h-11
			C1.1,16,0,14.9,0,13.5z"/>
		<path class="st3" d="M6.5,6.5L0.2,1.9l0.6-0.8l6.3,4.6c0.5,0.4,1.3,0.4,1.8,0l5.8-4.6l0.6,0.8L9.5,6.5C8.6,7.1,7.4,7.2,6.5,6.5z"
			/>
		<path class="st3" d="M0.2,11.1l6.5-5.5l0.6,0.8l-6.5,5.5L0.2,11.1z"/>
		<path class="st3" d="M15.8,11.1L9.3,5.6L8.7,6.4l6.5,5.5L15.8,11.1z"/>
	</g>
</g>
</svg>
