<svg width="32" height="42" viewBox="0 0 32 42" fill="none" xmlns="http://www.w3.org/2000/svg">
<path d="M0.103027 5.38C0.103027 2.41 2.51303 0 5.48303 0H19.563L31.563 12.43V36.62C31.563 39.59 29.153 42 26.183 42H5.48303C2.51303 42 0.103027 39.59 0.103027 36.62V5.38Z" fill="#ACE274"/>
<path d="M19.5527 7.06V0L31.5527 12.43H24.9327C21.9627 12.43 19.5527 10.02 19.5527 7.05V7.06Z" fill="#E3F5D1"/>
<path d="M9.57311 30.5497C9.57311 30.9997 9.51311 31.3997 9.40311 31.7597C9.29311 32.1197 9.12311 32.4297 8.90311 32.6897C8.68311 32.9497 8.40311 33.1497 8.07311 33.2897C7.74311 33.4297 7.35311 33.4997 6.90311 33.4997C6.70311 33.4997 6.50311 33.4897 6.30311 33.4597C6.10311 33.4397 5.90311 33.3997 5.68311 33.3497C5.69311 33.1897 5.71311 33.0297 5.72311 32.8697L5.76311 32.3897C5.77311 32.2997 5.81311 32.2297 5.86311 32.1797C5.91311 32.1297 6.00311 32.0997 6.11311 32.0997C6.17311 32.0997 6.25311 32.1097 6.35311 32.1297C6.45311 32.1497 6.57311 32.1597 6.71311 32.1597C6.91311 32.1597 7.08311 32.1297 7.23311 32.0797C7.38311 32.0297 7.50311 31.9397 7.60311 31.8097C7.70311 31.6897 7.77311 31.5197 7.82311 31.3197C7.87311 31.1197 7.89311 30.8797 7.89311 30.5897V25.4297H9.54311V30.5497H9.57311Z" fill="white"/>
<path d="M14.0833 25.4297C14.6333 25.4297 15.1033 25.4897 15.5033 25.6197C15.9033 25.7497 16.2333 25.9297 16.4833 26.1597C16.7433 26.3897 16.9333 26.6597 17.0533 26.9797C17.1733 27.2997 17.2333 27.6397 17.2333 28.0097C17.2333 28.3997 17.1733 28.7597 17.0433 29.0897C16.9133 29.4197 16.7233 29.6997 16.4633 29.9297C16.2033 30.1697 15.8733 30.3497 15.4833 30.4797C15.0833 30.6097 14.6233 30.6797 14.0933 30.6797H13.0533V33.4197H11.4033V25.4397H14.0933L14.0833 25.4297ZM14.0833 29.3997C14.6033 29.3997 14.9833 29.2797 15.2233 29.0297C15.4633 28.7797 15.5833 28.4397 15.5833 28.0097C15.5833 27.8097 15.5533 27.6297 15.4933 27.4697C15.4333 27.3097 15.3433 27.1697 15.2233 27.0497C15.1033 26.9297 14.9433 26.8497 14.7633 26.7797C14.5833 26.7097 14.3533 26.6897 14.0933 26.6897H13.0533V29.4097H14.0933L14.0833 29.3997Z" fill="white"/>
<path d="M22.3832 29.3416H25.1232V32.6316C24.7132 32.9316 24.2832 33.1416 23.8232 33.2816C23.3632 33.4216 22.8732 33.4916 22.3632 33.4916C21.7032 33.4916 21.1132 33.3916 20.5832 33.1916C20.0532 32.9916 19.5932 32.7016 19.2132 32.3416C18.8332 31.9816 18.5432 31.5516 18.3432 31.0516C18.1332 30.5516 18.0332 30.0116 18.0332 29.4216C18.0332 28.8316 18.1332 28.2716 18.3232 27.7816C18.5232 27.2816 18.8032 26.8516 19.1632 26.4916C19.5232 26.1316 19.9632 25.8516 20.4832 25.6516C21.0032 25.4516 21.5732 25.3516 22.2132 25.3516C22.5432 25.3516 22.8532 25.3816 23.1332 25.4316C23.4232 25.4816 23.6832 25.5616 23.9232 25.6516C24.1632 25.7416 24.3832 25.8516 24.5832 25.9816C24.7832 26.1116 24.9732 26.2516 25.1332 26.4016L24.6532 27.1416C24.5832 27.2616 24.4832 27.3316 24.3632 27.3516C24.2432 27.3816 24.1132 27.3516 23.9732 27.2616C23.8432 27.1816 23.7132 27.1116 23.5832 27.0416C23.4532 26.9716 23.3232 26.9216 23.1832 26.8716C23.0432 26.8216 22.8832 26.7916 22.7132 26.7616C22.5432 26.7316 22.3532 26.7216 22.1332 26.7216C21.7632 26.7216 21.4232 26.7816 21.1232 26.9116C20.8232 27.0416 20.5632 27.2216 20.3532 27.4516C20.1432 27.6816 19.9832 27.9716 19.8632 28.3016C19.7432 28.6316 19.6932 29.0016 19.6932 29.4116C19.6932 29.8516 19.7532 30.2416 19.8832 30.5916C20.0132 30.9416 20.1832 31.2316 20.4132 31.4716C20.6432 31.7116 20.9132 31.8916 21.2332 32.0116C21.5532 32.1316 21.9032 32.2016 22.2932 32.2016C22.5532 32.2016 22.7932 32.1716 23.0032 32.1216C23.2132 32.0716 23.4132 31.9916 23.6132 31.9016V30.5616H22.7132C22.6032 30.5616 22.5232 30.5316 22.4632 30.4816C22.4032 30.4316 22.3732 30.3516 22.3732 30.2616V29.3416H22.3832Z" fill="white"/>
</svg>
