<svg width="60" height="60" viewBox="0 0 60 60" fill="none" xmlns="http://www.w3.org/2000/svg">
<path d="M60 30C60 37.7913 59.3296 45.2661 58.1084 52.1551C57.5693 55.1965 55.1965 57.5693 52.1551 58.1084C45.2661 59.3296 37.7913 60 30 60C22.2087 60 14.7339 59.3296 7.84494 58.1084C4.80346 57.5693 2.43074 55.1965 1.89159 52.1551C0.670413 45.2661 0 37.7913 0 30C0 22.2062 0.670829 14.7479 1.89273 7.84952C2.43186 4.80582 4.80544 2.43028 7.84909 1.89086C14.7369 0.670144 22.2102 0 30 0C37.7898 0 45.2631 0.670144 52.1509 1.89086C55.1946 2.43028 57.5681 4.80581 58.1073 7.84951C59.3292 14.7479 60 22.2062 60 30Z" fill="white"/>
<path d="M19 21.0002L19 38.0005C19 39.1051 19.8954 40.0005 21 40.0005L27.5279 40.0005C27.8384 40.0005 28.1446 40.0728 28.4223 40.2116L30 41.0005L31.5777 40.2116C31.8554 40.0728 32.1616 40.0005 32.4721 40.0005L39 40.0005C40.1046 40.0005 41 39.1051 41 38.0005L41 21.0002C41 19.8956 40.1046 19.0002 39 19.0002L32.4722 19C32.1617 19 31.8554 19.0723 31.5776 19.2112L30 20.0002L28.4223 19.2114C28.1446 19.0725 27.8384 19.0002 27.5279 19.0002L21 19.0002C19.8954 19.0002 19 19.8956 19 21.0002Z" stroke="#10295E" stroke-width="1.5" stroke-linejoin="bevel"/>
<path d="M30 19V41" stroke="#10295E" stroke-width="1.5"/>
<path d="M27 26H22" stroke="#10295E" stroke-width="1.5" stroke-linecap="round"/>
<path d="M38 26H33" stroke="#10295E" stroke-width="1.5" stroke-linecap="round"/>
<path d="M27 30H22" stroke="#10295E" stroke-width="1.5" stroke-linecap="round"/>
<path d="M38 30H33" stroke="#10295E" stroke-width="1.5" stroke-linecap="round"/>
<path d="M27 34H22" stroke="#10295E" stroke-width="1.5" stroke-linecap="round"/>
<path d="M36 34H33" stroke="#10295E" stroke-width="1.5" stroke-linecap="round"/>
</svg>
