<?xml version="1.0" encoding="utf-8"?>
<!-- Generator: Adobe Illustrator 27.2.0, SVG Export Plug-In . SVG Version: 6.00 Build 0)  -->
<svg version="1.1" id="Layer_1" xmlns="http://www.w3.org/2000/svg" xmlns:xlink="http://www.w3.org/1999/xlink" x="0px" y="0px"
	 viewBox="0 0 16 16" style="enable-background:new 0 0 16 16;" xml:space="preserve">
<style type="text/css">
	.st0{clip-path:url(#SVGID_00000009550674277907775670000004637970542720945837_);}
	.st1{fill:#FFFFFF;}
	.st2{fill:#86BEFF;}
	.st3{fill-rule:evenodd;clip-rule:evenodd;fill:#0067DD;}
</style>
<g>
	<defs>
		<rect id="SVGID_1_" width="16" height="16"/>
	</defs>
	<clipPath id="SVGID_00000176742677341285766430000003630085205280593817_">
		<use xlink:href="#SVGID_1_"  style="overflow:visible;"/>
	</clipPath>
	<g style="clip-path:url(#SVGID_00000176742677341285766430000003630085205280593817_);">
		<rect class="st1" width="16" height="16"/>
		<path class="st2" d="M14.2,7.1c0-0.8-0.6-1.4-1.4-1.4H8.5c0.7-1.1,1-2.3,1-2.8C9.5,2.3,9,1.6,8,1.6C7,2.1,7.3,3.8,4.9,5.7L4.4,6
			C4.1,6.3,3.9,6.7,3.9,7.1l0,4.6c0,0.4,0.2,0.8,0.6,1.1l1,0.7c0.8,0.6,1.8,0.9,2.8,0.9H10c0.8,0,1.4-0.6,1.4-1.4c0-0.1,0-0.2,0-0.3
			c0.6-0.2,1-0.7,1-1.3c0-0.3-0.1-0.5-0.2-0.7c0.7-0.1,1.1-0.7,1.1-1.4c0-0.4-0.1-0.7-0.4-0.9C13.6,8.5,14.2,7.9,14.2,7.1z"/>
		<path class="st2" d="M3.7,14.1V7c0-0.6-0.4-1-1-1H1.5c-0.5,0-1,0.5-1,1v7c0,0.6,0.4,1,1,1h1.2C3.2,15.1,3.7,14.6,3.7,14.1z"/>
		<path class="st3" d="M7.7,1.1C8,0.7,8.4,0.5,9,0.5c1.3,0,2,1,2,2c0,0.3-0.1,0.8-0.3,1.4c-0.1,0.3-0.3,0.7-0.4,1.1H14
			c1.1,0,2,0.9,2,2c0,0.8-0.5,1.5-1.1,1.8C15,9.1,15,9.3,15,9.6c0,0.8-0.4,1.4-1,1.8c0,0.2,0.1,0.3,0.1,0.5c0,0.7-0.4,1.4-1,1.7
			c0,0,0,0,0,0c0,1.1-0.9,2-2,2H9.2c-1.2,0-2.3-0.4-3.3-1.1c0,0,0,0,0,0l-1.1-0.8c-0.1-0.1-0.3-0.2-0.6-0.2c-0.1,0-0.1,0-0.2,0v0.6
			c0,0.8-0.7,1.5-1.5,1.4H1.5C0.7,15.5,0,14.9,0,14V7c0-0.8,0.7-1.5,1.5-1.5h1.2c0.8,0,1.5,0.6,1.5,1.5v5.4c0.1,0,0.3,0,0.4,0.1
			c0.3,0.1,0.7,0.2,1,0.4l1.1,0.8c0.8,0.6,1.7,0.9,2.7,0.9h1.8c0.5,0,1-0.4,1-1c0-0.1,0-0.1,0-0.2c-0.1-0.3,0.1-0.5,0.3-0.6
			c0.4-0.1,0.7-0.5,0.7-1c0-0.2-0.1-0.4-0.1-0.5c-0.1-0.1-0.1-0.3,0-0.5c0.1-0.1,0.2-0.3,0.4-0.3c0.4-0.1,0.8-0.5,0.8-1
			c0-0.3-0.1-0.5-0.3-0.7c-0.1-0.1-0.2-0.3-0.1-0.5c0.1-0.2,0.2-0.3,0.4-0.3C14.6,8,15,7.6,15,7c0-0.6-0.4-1-1-1H9.5
			C9.3,6,9.2,5.9,9.1,5.8C9,5.6,9,5.4,9.1,5.3c0.3-0.6,0.6-1.2,0.8-1.7c0.2-0.5,0.2-0.9,0.2-1.1c0-0.5-0.4-1-1-1
			c-0.4,0-0.5,0.1-0.6,0.2C8.3,1.9,8.2,2.2,8.1,2.6c0,0,0,0,0,0C7.8,3.5,7.4,4.7,6,5.8L5.5,6.3C5.3,6.4,5,6.4,4.8,6.2
			C4.6,6,4.7,5.6,4.9,5.5l0.5-0.4c1.1-0.9,1.4-1.9,1.7-2.7l0,0c0,0,0,0,0,0C7.2,1.9,7.4,1.4,7.7,1.1z M3.2,7c0-0.3-0.2-0.5-0.5-0.5
			H1.5C1.2,6.5,1,6.8,1,7v7c0,0.3,0.2,0.5,0.5,0.5h1.2c0,0,0,0,0.1,0c0.2,0,0.4-0.1,0.4-0.5V7z"/>
	</g>
</g>
</svg>
