<svg width="16" height="16" viewBox="0 0 16 16" fill="none" xmlns="http://www.w3.org/2000/svg">
<rect x="0.5" y="0.5" width="3" height="3" rx="0.5" stroke="#000A16" stroke-opacity="0.7"/>
<path d="M6.5 2C6.5 1.72386 6.72386 1.5 7 1.5H15C15.2761 1.5 15.5 1.72386 15.5 2C15.5 2.27614 15.2761 2.5 15 2.5H11H7C6.72386 2.5 6.5 2.27614 6.5 2Z" stroke="#000A16" stroke-opacity="0.7"/>
<rect x="0.5" y="6.5" width="3" height="3" rx="0.5" stroke="#000A16" stroke-opacity="0.7"/>
<path d="M6.5 8C6.5 7.72386 6.72386 7.5 7 7.5H15C15.2761 7.5 15.5 7.72386 15.5 8C15.5 8.27614 15.2761 8.5 15 8.5H7C6.72386 8.5 6.5 8.27614 6.5 8Z" stroke="#000A16" stroke-opacity="0.7"/>
<rect x="0.5" y="12.5" width="3" height="3" rx="0.5" stroke="#000A16" stroke-opacity="0.7"/>
<path d="M6.5 14C6.5 13.7239 6.72386 13.5 7 13.5H15C15.2761 13.5 15.5 13.7239 15.5 14C15.5 14.2761 15.2761 14.5 15 14.5H7C6.72386 14.5 6.5 14.2761 6.5 14Z" stroke="#000A16" stroke-opacity="0.7"/>
</svg>
