<svg width="26" height="26" viewBox="0 0 26 26" fill="none" xmlns="http://www.w3.org/2000/svg">
<rect width="26" height="26" rx="13" fill="#F0F0F0"/>
<path d="M13 5.5C13.8284 5.5 14.5 6.17157 14.5 7C14.5 7.82843 13.8284 8.5 13 8.5C12.1716 8.5 11.5 7.82843 11.5 7C11.5 6.17157 12.1716 5.5 13 5.5ZM14.5 13C14.5 12.1716 13.8284 11.5 13 11.5C12.1716 11.5 11.5 12.1716 11.5 13C11.5 13.8284 12.1716 14.5 13 14.5C13.8284 14.5 14.5 13.8284 14.5 13ZM13 17.5C13.8284 17.5 14.5 18.1716 14.5 19C14.5 19.8284 13.8284 20.5 13 20.5C12.1716 20.5 11.5 19.8284 11.5 19C11.5 18.1716 12.1716 17.5 13 17.5Z" fill="#000A16" fill-opacity="0.7"/>
<path d="M13 5.5C13.8284 5.5 14.5 6.17157 14.5 7C14.5 7.82843 13.8284 8.5 13 8.5C12.1716 8.5 11.5 7.82843 11.5 7C11.5 6.17157 12.1716 5.5 13 5.5ZM14.5 13C14.5 12.1716 13.8284 11.5 13 11.5C12.1716 11.5 11.5 12.1716 11.5 13C11.5 13.8284 12.1716 14.5 13 14.5C13.8284 14.5 14.5 13.8284 14.5 13ZM13 17.5C13.8284 17.5 14.5 18.1716 14.5 19C14.5 19.8284 13.8284 20.5 13 20.5C12.1716 20.5 11.5 19.8284 11.5 19C11.5 18.1716 12.1716 17.5 13 17.5Z" stroke="#000A16"/>
</svg>
