<?xml version="1.0" encoding="utf-8"?>
<!-- Generator: Adobe Illustrator 27.2.0, SVG Export Plug-In . SVG Version: 6.00 Build 0)  -->
<svg version="1.1" id="Layer_1" xmlns="http://www.w3.org/2000/svg" xmlns:xlink="http://www.w3.org/1999/xlink" x="0px" y="0px"
	 viewBox="0 0 16 16" style="enable-background:new 0 0 16 16;" xml:space="preserve">
<style type="text/css">
	.st0{clip-path:url(#SVGID_00000010273013946640391480000003491020522375652282_);}
	.st1{fill-rule:evenodd;clip-rule:evenodd;fill:#E24C1C;}
	.st2{opacity:0.3;fill:#E24C1C;enable-background:new    ;}
	.st3{clip-path:url(#SVGID_00000176001294064233181410000011162803628560135343_);}
</style>
<g>
	<defs>
		<rect id="SVGID_1_" y="0" width="16" height="16"/>
	</defs>
	<clipPath id="SVGID_00000008119933129490049170000009914289455414069409_">
		<use xlink:href="#SVGID_1_"  style="overflow:visible;"/>
	</clipPath>
	<g style="clip-path:url(#SVGID_00000008119933129490049170000009914289455414069409_);">
		<path class="st1" d="M8,1C4.1,1,1,4.1,1,8c0,3.9,3.1,7,7,7c3.9,0,7-3.1,7-7C15,4.1,11.9,1,8,1z M0,8c0-4.4,3.6-8,8-8
			c4.4,0,8,3.6,8,8c0,4.4-3.6,8-8,8C3.6,16,0,12.4,0,8z"/>
		<circle class="st2" cx="8" cy="8" r="5.9"/>
	</g>
</g>
<g>
	<g>
		<defs>
			<rect id="SVGID_00000119104106934394249630000007570943348514421888_" x="0" width="16" height="16"/>
		</defs>
		<clipPath id="SVGID_00000141453347729186981030000008833318324802149034_">
			<use xlink:href="#SVGID_00000119104106934394249630000007570943348514421888_"  style="overflow:visible;"/>
		</clipPath>
		<g style="clip-path:url(#SVGID_00000141453347729186981030000008833318324802149034_);">
			<path class="st1" d="M11.5,9.1c0.6,0,1.1-0.5,1.1-1.1s-0.5-1.1-1.1-1.1S10.4,7.4,10.4,8S10.9,9.1,11.5,9.1z"/>
			<path class="st1" d="M8,9.1c0.6,0,1.1-0.5,1.1-1.1S8.6,6.9,8,6.9S6.9,7.4,6.9,8S7.4,9.1,8,9.1z"/>
			<path class="st1" d="M4.6,9.1c0.6,0,1.1-0.5,1.1-1.1S5.2,6.9,4.6,6.9S3.5,7.4,3.5,8S4,9.1,4.6,9.1z"/>
		</g>
	</g>
</g>
</svg>
