<svg width="24" height="24" viewBox="0 0 24 24" fill="none" xmlns="http://www.w3.org/2000/svg">
<rect width="24" height="24" rx="8" fill="#DEE7FF"/>
<path d="M20.1758 9.15234C20.3216 9.09766 20.4492 9.11589 20.5586 9.20703C20.6862 9.29818 20.75 9.41667 20.75 9.5625V15.6875C20.7318 16.0521 20.5586 16.362 20.2305 16.6172C19.9023 16.8542 19.4922 16.9818 19 17C18.5078 16.9818 18.0977 16.8542 17.7695 16.6172C17.4414 16.362 17.2682 16.0521 17.25 15.6875C17.2682 15.3229 17.4414 15.013 17.7695 14.7578C18.0977 14.5208 18.5078 14.3932 19 14.375C19.1458 14.375 19.2917 14.3932 19.4375 14.4297V12.1602L15.5 13.4727V17.4375C15.4818 17.8021 15.3086 18.112 14.9805 18.3672C14.6523 18.6042 14.2422 18.7318 13.75 18.75C13.2578 18.7318 12.8477 18.6042 12.5195 18.3672C12.1914 18.112 12.0182 17.8021 12 17.4375C12.0182 17.0729 12.1914 16.763 12.5195 16.5078C12.8477 16.2708 13.2578 16.1432 13.75 16.125C13.8958 16.125 14.0417 16.1432 14.1875 16.1797V11.4492C14.2057 11.2487 14.306 11.112 14.4883 11.0391L20.1758 9.15234ZM8.0625 15.4688H12.6016C11.8359 15.7786 11.362 16.2891 11.1797 17H4.34375C4.03385 17 3.77865 16.8906 3.57812 16.6719C3.35938 16.4714 3.25 16.2161 3.25 15.9062V8.46875C3.25 8.15885 3.35026 7.89453 3.55078 7.67578C3.76953 7.47526 4.03385 7.375 4.34375 7.375H7.625V15.0312C7.64323 15.3047 7.78906 15.4505 8.0625 15.4688ZM6.09375 15.25V14.375C6.07552 14.2474 6.0026 14.1745 5.875 14.1562H5C4.8724 14.1745 4.79948 14.2474 4.78125 14.375V15.25C4.79948 15.3776 4.8724 15.4505 5 15.4688H5.875C6.0026 15.4505 6.07552 15.3776 6.09375 15.25ZM6.09375 12.625V11.75C6.07552 11.6224 6.0026 11.5495 5.875 11.5312H5C4.8724 11.5495 4.79948 11.6224 4.78125 11.75V12.625C4.79948 12.7526 4.8724 12.8255 5 12.8438H5.875C6.0026 12.8255 6.07552 12.7526 6.09375 12.625ZM6.09375 10V9.125C6.07552 8.9974 6.0026 8.92448 5.875 8.90625H5C4.8724 8.92448 4.79948 8.9974 4.78125 9.125V10C4.79948 10.1276 4.8724 10.2005 5 10.2188H5.875C6.0026 10.2005 6.07552 10.1276 6.09375 10ZM9.70312 13.5C9.35677 13.5 9.07422 13.3815 8.85547 13.1445C8.61849 12.9076 8.5 12.6159 8.5 12.2695V5.98047C8.5 5.61589 8.61849 5.32422 8.85547 5.10547C9.07422 4.86849 9.35677 4.75 9.70312 4.75H18.6719C19.0182 4.75 19.3008 4.86849 19.5195 5.10547C19.7565 5.32422 19.875 5.61589 19.875 5.98047V8.33203L17.0586 9.26172L15.9102 7.53906C15.8372 7.42969 15.737 7.375 15.6094 7.375C15.4818 7.375 15.3815 7.42969 15.3086 7.53906L13.8867 9.67188L13.3672 8.98828C13.2943 8.87891 13.2031 8.82422 13.0938 8.82422C12.9661 8.82422 12.8659 8.87891 12.793 8.98828L11.207 11.1758C11.1159 11.2852 11.0977 11.4128 11.1523 11.5586C11.2253 11.6862 11.3346 11.75 11.4805 11.75L13.3125 11.7227V13.5H9.70312ZM11.125 6.5C10.8698 6.5 10.6602 6.58203 10.4961 6.74609C10.332 6.91016 10.25 7.11979 10.25 7.375C10.25 7.63021 10.332 7.83984 10.4961 8.00391C10.6602 8.16797 10.8698 8.25 11.125 8.25C11.3802 8.25 11.5898 8.16797 11.7539 8.00391C11.918 7.83984 12 7.63021 12 7.375C12 7.11979 11.918 6.91016 11.7539 6.74609C11.5898 6.58203 11.3802 6.5 11.125 6.5Z" fill="#5279E4"/>
</svg>
