<svg width="38" height="39" viewBox="0 0 38 39" fill="none" xmlns="http://www.w3.org/2000/svg">
<rect y="0.5" width="38" height="38" rx="19" fill="#EFF3FF"/>
<g clip-path="url(#clip0_18115_48502)">
<mask id="path-2-inside-1_18115_48502" fill="white">
<path d="M20.5304 27.2528C20.8159 26.779 21.0713 26.3571 21.3248 25.9338C22.0161 24.7798 22.7099 23.6272 23.3939 22.4689C23.5294 22.2389 23.6977 22.1538 23.9527 22.2332C24.6106 22.4381 25.2816 22.6093 25.9246 22.8542C26.6919 23.1462 27.1974 23.7205 27.4974 24.4835C27.8336 25.3383 28.0431 26.2258 28.1626 27.1297C28.3014 28.1836 28.3977 29.2438 28.4944 30.3026C28.5583 31.0025 28.1098 31.4855 27.3953 31.4922C26.269 31.5028 25.1423 31.4965 24.0161 31.4965C19.6146 31.4965 15.2137 31.4965 10.8122 31.4941C10.6289 31.4941 10.4392 31.4864 10.2627 31.4422C9.81082 31.3296 9.47797 30.9457 9.50168 30.5085C9.60424 28.5973 9.78808 26.6991 10.3623 24.8558C10.7247 23.6922 11.4886 22.9648 12.6424 22.6185C13.0962 22.4823 13.5538 22.3592 14.012 22.2389C14.3598 22.1475 14.4464 22.186 14.6264 22.4867C15.2475 23.5238 15.8668 24.5624 16.487 25.6C16.7744 26.081 17.0632 26.5611 17.3525 27.0412C17.3844 27.0941 17.4226 27.1431 17.4831 27.2302C17.6761 26.6356 17.8571 26.0772 18.0385 25.5187C18.2334 24.9178 18.4289 24.317 18.6224 23.7153C18.6834 23.5262 18.7791 23.3809 19.006 23.3824C19.2329 23.3838 19.3248 23.5286 19.3863 23.7186C19.7593 24.875 20.1347 26.031 20.5304 27.2528ZM19.0322 25.0525C19.0133 25.053 18.9944 25.0535 18.9756 25.0545C18.9494 25.1281 18.9223 25.2012 18.8982 25.2757C18.5798 26.2571 18.2692 27.2403 17.9359 28.2163C17.8948 28.3371 17.7424 28.49 17.6316 28.4992C17.5058 28.5093 17.3331 28.402 17.2436 28.2947C17.0917 28.1124 16.9882 27.8892 16.8648 27.6833C15.9684 26.1854 15.07 24.6889 14.1789 23.1885C14.0913 23.0413 14.0091 22.9879 13.8373 23.0466C13.5872 23.1322 13.3289 23.1952 13.072 23.2621C11.983 23.5459 11.2641 24.1987 11.0038 25.3094C10.9966 25.3407 10.9859 25.371 10.9772 25.4013C10.5297 26.9406 10.3788 28.5247 10.2641 30.1131C10.2191 30.7336 10.2515 30.7562 10.8906 30.7557C14.6564 30.7548 18.4221 30.7557 22.1879 30.7557C23.8777 30.7557 25.5676 30.7567 27.2574 30.7553C27.7034 30.7553 27.7779 30.6869 27.7417 30.2564C27.671 29.4199 27.6048 28.5819 27.4988 27.7492C27.3687 26.7251 27.1771 25.7125 26.793 24.7447C26.5922 24.2381 26.2763 23.8293 25.7717 23.6162C25.2637 23.4016 24.7306 23.2462 24.2125 23.0543C24.0059 22.9778 23.9048 23.0442 23.7964 23.2275C22.8139 24.8885 21.8207 26.5428 20.8318 28.2005C20.7302 28.3703 20.6286 28.5386 20.3945 28.5175C20.1482 28.4949 20.0781 28.3024 20.0157 28.1062C19.8391 27.5501 19.662 26.994 19.483 26.4384C19.3345 25.9761 19.1831 25.5153 19.0331 25.0535L19.0322 25.0525Z"/>
</mask>
<path d="M20.5304 27.2528C20.8159 26.779 21.0713 26.3571 21.3248 25.9338C22.0161 24.7798 22.7099 23.6272 23.3939 22.4689C23.5294 22.2389 23.6977 22.1538 23.9527 22.2332C24.6106 22.4381 25.2816 22.6093 25.9246 22.8542C26.6919 23.1462 27.1974 23.7205 27.4974 24.4835C27.8336 25.3383 28.0431 26.2258 28.1626 27.1297C28.3014 28.1836 28.3977 29.2438 28.4944 30.3026C28.5583 31.0025 28.1098 31.4855 27.3953 31.4922C26.269 31.5028 25.1423 31.4965 24.0161 31.4965C19.6146 31.4965 15.2137 31.4965 10.8122 31.4941C10.6289 31.4941 10.4392 31.4864 10.2627 31.4422C9.81082 31.3296 9.47797 30.9457 9.50168 30.5085C9.60424 28.5973 9.78808 26.6991 10.3623 24.8558C10.7247 23.6922 11.4886 22.9648 12.6424 22.6185C13.0962 22.4823 13.5538 22.3592 14.012 22.2389C14.3598 22.1475 14.4464 22.186 14.6264 22.4867C15.2475 23.5238 15.8668 24.5624 16.487 25.6C16.7744 26.081 17.0632 26.5611 17.3525 27.0412C17.3844 27.0941 17.4226 27.1431 17.4831 27.2302C17.6761 26.6356 17.8571 26.0772 18.0385 25.5187C18.2334 24.9178 18.4289 24.317 18.6224 23.7153C18.6834 23.5262 18.7791 23.3809 19.006 23.3824C19.2329 23.3838 19.3248 23.5286 19.3863 23.7186C19.7593 24.875 20.1347 26.031 20.5304 27.2528ZM19.0322 25.0525C19.0133 25.053 18.9944 25.0535 18.9756 25.0545C18.9494 25.1281 18.9223 25.2012 18.8982 25.2757C18.5798 26.2571 18.2692 27.2403 17.9359 28.2163C17.8948 28.3371 17.7424 28.49 17.6316 28.4992C17.5058 28.5093 17.3331 28.402 17.2436 28.2947C17.0917 28.1124 16.9882 27.8892 16.8648 27.6833C15.9684 26.1854 15.07 24.6889 14.1789 23.1885C14.0913 23.0413 14.0091 22.9879 13.8373 23.0466C13.5872 23.1322 13.3289 23.1952 13.072 23.2621C11.983 23.5459 11.2641 24.1987 11.0038 25.3094C10.9966 25.3407 10.9859 25.371 10.9772 25.4013C10.5297 26.9406 10.3788 28.5247 10.2641 30.1131C10.2191 30.7336 10.2515 30.7562 10.8906 30.7557C14.6564 30.7548 18.4221 30.7557 22.1879 30.7557C23.8777 30.7557 25.5676 30.7567 27.2574 30.7553C27.7034 30.7553 27.7779 30.6869 27.7417 30.2564C27.671 29.4199 27.6048 28.5819 27.4988 27.7492C27.3687 26.7251 27.1771 25.7125 26.793 24.7447C26.5922 24.2381 26.2763 23.8293 25.7717 23.6162C25.2637 23.4016 24.7306 23.2462 24.2125 23.0543C24.0059 22.9778 23.9048 23.0442 23.7964 23.2275C22.8139 24.8885 21.8207 26.5428 20.8318 28.2005C20.7302 28.3703 20.6286 28.5386 20.3945 28.5175C20.1482 28.4949 20.0781 28.3024 20.0157 28.1062C19.8391 27.5501 19.662 26.994 19.483 26.4384C19.3345 25.9761 19.1831 25.5153 19.0331 25.0535L19.0322 25.0525Z" fill="black"/>
<path d="M20.5304 27.2528L18.6277 27.8691L19.9796 32.0431L22.2436 28.2848L20.5304 27.2528ZM21.3248 25.9338L19.6091 24.906L19.6089 24.9063L21.3248 25.9338ZM23.3939 22.4689L25.116 23.4859L25.1171 23.484L23.3939 22.4689ZM23.9527 22.2332L24.5474 20.3236L24.5472 20.3236L23.9527 22.2332ZM25.9246 22.8542L25.2128 24.7232L25.2132 24.7234L25.9246 22.8542ZM27.4974 24.4835L25.636 25.2152L25.6362 25.2155L27.4974 24.4835ZM28.1626 27.1297L30.1454 26.8684L30.1453 26.8675L28.1626 27.1297ZM28.4944 30.3026L30.4862 30.1209L30.4861 30.1206L28.4944 30.3026ZM27.3953 31.4922L27.4141 33.4921H27.4141L27.3953 31.4922ZM10.8122 31.4941L10.8133 29.4941H10.8122V31.4941ZM10.2627 31.4422L10.7489 29.5022L10.7461 29.5015L10.2627 31.4422ZM9.50168 30.5085L11.4987 30.6167L11.4988 30.6157L9.50168 30.5085ZM10.3623 24.8558L12.2718 25.4506L12.2719 25.4504L10.3623 24.8558ZM12.6424 22.6185L12.0677 20.7028L12.0674 20.7029L12.6424 22.6185ZM14.012 22.2389L14.5198 24.1734L14.5202 24.1733L14.012 22.2389ZM14.6264 22.4867L12.9103 23.5139L12.9106 23.5143L14.6264 22.4867ZM16.487 25.6L18.204 24.5743L18.2037 24.5738L16.487 25.6ZM17.3525 27.0412L15.6395 28.0734L15.6401 28.0744L17.3525 27.0412ZM17.4831 27.2302L15.8404 28.3711L18.1404 31.6826L19.3854 27.8478L17.4831 27.2302ZM18.0385 25.5187L19.9406 26.1366L19.9408 26.136L18.0385 25.5187ZM18.6224 23.7153L16.7189 23.1015L16.7184 23.103L18.6224 23.7153ZM19.3863 23.7186L21.2897 23.1047L21.2893 23.1033L19.3863 23.7186ZM19.0322 25.0525L20.4418 23.6338L19.8355 23.0314L18.9812 23.0532L19.0322 25.0525ZM18.9756 25.0545L18.8737 23.0571L17.5381 23.1252L17.0908 24.3855L18.9756 25.0545ZM18.8982 25.2757L16.9958 24.6586L16.9957 24.6586L18.8982 25.2757ZM17.9359 28.2163L16.0432 27.57L16.0427 27.5716L17.9359 28.2163ZM17.6316 28.4992L17.7917 30.4928L17.7961 30.4924L17.6316 28.4992ZM17.2436 28.2947L15.7071 29.575L15.7079 29.576L17.2436 28.2947ZM16.8648 27.6833L15.1487 28.7104L15.1492 28.7113L16.8648 27.6833ZM14.1789 23.1885L15.8984 22.1672L15.8977 22.166L14.1789 23.1885ZM13.8373 23.0466L13.1906 21.1541L13.1895 21.1544L13.8373 23.0466ZM13.072 23.2621L12.5682 21.3266L12.5676 21.3268L13.072 23.2621ZM11.0038 25.3094L9.05656 24.8531L9.0556 24.8573L11.0038 25.3094ZM10.9772 25.4013L12.8977 25.9596L12.8994 25.9536L10.9772 25.4013ZM10.2641 30.1131L12.2589 30.2577L12.2589 30.2571L10.2641 30.1131ZM10.8906 30.7557L10.8901 28.7557L10.8891 28.7557L10.8906 30.7557ZM27.2574 30.7553V28.7553L27.2557 28.7553L27.2574 30.7553ZM27.7417 30.2564L29.7346 30.0885L29.7346 30.0881L27.7417 30.2564ZM27.4988 27.7492L25.5148 28.0014L25.5148 28.0017L27.4988 27.7492ZM26.793 24.7447L24.9337 25.4816L24.934 25.4825L26.793 24.7447ZM25.7717 23.6162L24.9936 25.4586L24.9936 25.4586L25.7717 23.6162ZM24.2125 23.0543L24.9072 21.1788L24.9069 21.1787L24.2125 23.0543ZM23.7964 23.2275L25.5178 24.2457L25.518 24.2454L23.7964 23.2275ZM20.8318 28.2005L22.5481 29.2273L22.5494 29.2251L20.8318 28.2005ZM20.3945 28.5175L20.2116 30.5091L20.2144 30.5093L20.3945 28.5175ZM20.0157 28.1062L18.1095 28.7115L18.1097 28.7122L20.0157 28.1062ZM19.483 26.4384L17.5789 27.0502L17.5794 27.0517L19.483 26.4384ZM19.0331 25.0535L20.9353 24.4357L20.7859 23.9757L20.4428 23.6347L19.0331 25.0535ZM22.2436 28.2848C22.5258 27.8163 22.7855 27.3875 23.0407 26.9613L19.6089 24.9063C19.3571 25.3268 19.1059 25.7417 18.8173 26.2208L22.2436 28.2848ZM23.0405 26.9616C23.7289 25.8125 24.4278 24.6513 25.116 23.4859L21.6718 21.4519C20.9919 22.6031 20.3033 23.7471 19.6091 24.906L23.0405 26.9616ZM25.1171 23.484C25.0686 23.5665 24.871 23.8728 24.4359 24.0648C23.9648 24.2727 23.5498 24.2024 23.3582 24.1428L24.5472 20.3236C24.1006 20.1845 23.474 20.1172 22.8211 20.4053C22.2042 20.6775 21.8548 21.1413 21.6707 21.4537L25.1171 23.484ZM23.358 24.1427C24.1539 24.3906 24.6424 24.506 25.2128 24.7232L26.6364 20.9851C25.9208 20.7126 25.0674 20.4856 24.5474 20.3236L23.358 24.1427ZM25.2132 24.7234C25.3632 24.7805 25.5037 24.8785 25.636 25.2152L29.3587 23.7517C28.8912 22.5625 28.0205 21.5119 26.6359 20.985L25.2132 24.7234ZM25.6362 25.2155C25.9031 25.8942 26.0778 26.6199 26.1798 27.3918L30.1453 26.8675C30.0084 25.8317 29.7641 24.7823 29.3586 23.7514L25.6362 25.2155ZM26.1797 27.3909C26.3124 28.3984 26.4053 29.418 26.5027 30.4846L30.4861 30.1206C30.3901 29.0696 30.2904 27.9689 30.1454 26.8684L26.1797 27.3909ZM26.5027 30.4843C26.4912 30.3583 26.5209 30.0669 26.7688 29.799C27.0119 29.5363 27.2823 29.4932 27.3764 29.4923L27.4141 33.4921C28.2228 33.4845 29.0747 33.1966 29.7047 32.5157C30.3395 31.8296 30.5615 30.9468 30.4862 30.1209L26.5027 30.4843ZM27.3765 29.4923C26.2627 29.5028 25.1572 29.4965 24.0161 29.4965V33.4965C25.1274 33.4965 26.2753 33.5028 27.4141 33.4921L27.3765 29.4923ZM24.0161 29.4965C19.6145 29.4965 15.2141 29.4965 10.8133 29.4941L10.8111 33.4941C15.2132 33.4965 19.6147 33.4965 24.0161 33.4965V29.4965ZM10.8122 29.4941C10.7799 29.4941 10.755 29.4938 10.7348 29.4932C10.7148 29.4926 10.7024 29.4918 10.6958 29.4912C10.6892 29.4907 10.6909 29.4906 10.6992 29.4919C10.7075 29.4932 10.7247 29.4961 10.7489 29.5022L9.77645 33.3822C10.2033 33.4892 10.598 33.4941 10.8122 33.4941V29.4941ZM10.7461 29.5015C11.0283 29.5718 11.5372 29.9077 11.4987 30.6167L7.50461 30.4002C7.41876 31.9838 8.59335 33.0875 9.77921 33.3829L10.7461 29.5015ZM11.4988 30.6157C11.5992 28.7443 11.7739 27.0489 12.2718 25.4506L8.45284 24.2609C7.80224 26.3494 7.60925 28.4503 7.50455 30.4013L11.4988 30.6157ZM12.2719 25.4504C12.4294 24.9446 12.6768 24.6963 13.2174 24.534L12.0674 20.7029C10.3003 21.2333 9.01997 22.4397 8.45277 24.2612L12.2719 25.4504ZM13.2171 24.5341C13.6366 24.4083 14.0672 24.2922 14.5198 24.1734L13.5042 20.3045C13.0404 20.4262 12.5557 20.5564 12.0677 20.7028L13.2171 24.5341ZM14.5202 24.1733C14.5757 24.1587 14.5057 24.1816 14.3809 24.1911C14.2324 24.2023 13.9508 24.2 13.6261 24.0674C13.3007 23.9345 13.0969 23.7382 12.9975 23.6245C12.9149 23.5299 12.8801 23.4634 12.9103 23.5139L16.3424 21.4595C16.2799 21.3551 15.9177 20.6825 15.1381 20.3642C14.3605 20.0467 13.6332 20.2706 13.5037 20.3046L14.5202 24.1733ZM12.9106 23.5143C13.5313 24.5507 14.1484 25.5857 14.7703 26.6261L18.2037 24.5738C17.5851 23.539 16.9638 22.4969 16.3422 21.459L12.9106 23.5143ZM14.77 26.6256C15.0594 27.11 15.3498 27.5927 15.6395 28.0734L19.0655 26.0089C18.7766 25.5294 18.4893 25.052 18.204 24.5743L14.77 26.6256ZM15.6401 28.0744C15.6958 28.1667 15.7485 28.2415 15.7756 28.2797C15.8114 28.3302 15.8169 28.3372 15.8404 28.3711L19.1258 26.0893C19.1045 26.0587 19.0858 26.0323 19.0707 26.0111C19.0635 26.0009 19.0563 25.991 19.0512 25.9838C19.0455 25.9759 19.0417 25.9705 19.0386 25.966C19.0319 25.9566 19.0329 25.9579 19.0372 25.9642C19.0421 25.9715 19.0522 25.9868 19.0649 26.0079L15.6401 28.0744ZM19.3854 27.8478C19.5792 27.2506 19.7589 26.6959 19.9406 26.1366L16.1363 24.9008C15.9552 25.4584 15.773 26.0207 15.5808 26.6126L19.3854 27.8478ZM19.9408 26.136C20.1352 25.5371 20.3318 24.9326 20.5264 24.3275L16.7184 23.103C16.526 23.7015 16.3317 24.2986 16.1361 24.9014L19.9408 26.136ZM20.5259 24.329C20.5217 24.342 20.44 24.6185 20.1643 24.8935C20.0122 25.0452 19.8182 25.1795 19.5877 25.2697C19.3614 25.3582 19.1536 25.3834 18.9933 25.3823L19.0188 21.3824C18.4182 21.3786 17.8095 21.5927 17.3397 22.0613C16.9441 22.4558 16.784 22.8994 16.7189 23.1015L20.5259 24.329ZM18.9933 25.3823C18.8357 25.3813 18.6291 25.3543 18.4039 25.2634C18.174 25.1706 17.9812 25.0339 17.8309 24.8808C17.6875 24.7347 17.6024 24.594 17.5555 24.5032C17.5097 24.4143 17.4881 24.3489 17.4833 24.334L21.2893 23.1033C21.2287 22.916 21.0736 22.4742 20.6855 22.0788C20.2201 21.6046 19.615 21.3862 19.0188 21.3824L18.9933 25.3823ZM17.4828 24.3326C17.8563 25.4905 18.2327 26.6493 18.6277 27.8691L22.4331 26.6366C22.0367 25.4127 21.6622 24.2596 21.2897 23.1047L17.4828 24.3326ZM18.9812 23.0532C18.9667 23.0536 18.9223 23.0546 18.8737 23.0571L19.0774 27.0519C19.0702 27.0522 19.0662 27.0523 19.0675 27.0523C19.0681 27.0523 19.0694 27.0522 19.0721 27.0522C19.075 27.0521 19.0781 27.052 19.0831 27.0519L18.9812 23.0532ZM17.0908 24.3855C17.0769 24.4246 17.0312 24.5493 16.9958 24.6586L20.8005 25.8929C20.8135 25.8531 20.822 25.8315 20.8603 25.7235L17.0908 24.3855ZM16.9957 24.6586C16.6711 25.6595 16.3699 26.6134 16.0432 27.57L19.8286 28.8627C20.1686 27.8672 20.4886 26.8546 20.8006 25.8929L16.9957 24.6586ZM16.0427 27.5716C16.1565 27.2374 16.3333 27.0441 16.4291 26.9527C16.4927 26.8921 16.5892 26.8112 16.7244 26.7336C16.8434 26.6653 17.1015 26.5361 17.4672 26.506L17.7961 30.4924C18.5469 30.4305 19.033 29.997 19.1907 29.8465C19.4006 29.6461 19.6742 29.316 19.8291 28.8611L16.0427 27.5716ZM17.4715 26.5056C17.7475 26.4834 17.9645 26.5297 18.0917 26.5669C18.2253 26.606 18.3269 26.6546 18.3958 26.6929C18.5189 26.7614 18.6511 26.8599 18.7793 27.0135L15.7079 29.576C15.9256 29.8369 16.1889 30.0426 16.4522 30.189C16.6748 30.3128 17.1622 30.5433 17.7917 30.4928L17.4715 26.5056ZM18.7802 27.0145C18.8124 27.0532 18.8151 27.0664 18.7751 26.9971C18.7547 26.9618 18.7359 26.9278 18.7011 26.8654C18.6706 26.8107 18.6282 26.7352 18.5804 26.6554L15.1492 28.7113C15.2195 28.8286 15.1822 28.7742 15.3119 28.9986C15.3925 29.1381 15.5229 29.354 15.7071 29.575L18.7802 27.0145ZM18.581 26.6563C17.6826 25.1552 16.7873 23.6638 15.8984 22.1672L12.4593 24.2098C13.3527 25.714 14.2541 27.2156 15.1487 28.7104L18.581 26.6563ZM15.8977 22.166C15.8055 22.0109 15.503 21.5126 14.8767 21.224C14.1702 20.8983 13.5243 21.04 13.1906 21.1541L14.484 24.9392C14.3221 24.9945 13.8032 25.1335 13.2026 24.8567C12.6823 24.617 12.4647 24.2189 12.46 24.211L15.8977 22.166ZM13.1895 21.1544C13.0303 21.2089 12.8695 21.2482 12.5682 21.3266L13.5758 25.1976C13.7883 25.1423 14.1442 25.0555 14.4851 24.9388L13.1895 21.1544ZM12.5676 21.3268C11.7647 21.536 10.9822 21.9127 10.3355 22.5392C9.68017 23.1741 9.26353 23.9699 9.05657 24.8531L12.9511 25.7657C13.0044 25.5382 13.0773 25.4523 13.1187 25.4121C13.1688 25.3636 13.2903 25.272 13.5764 25.1975L12.5676 21.3268ZM9.0556 24.8573C9.06195 24.8299 9.06775 24.8083 9.07158 24.7946C9.07352 24.7876 9.07512 24.7821 9.07619 24.7785C9.07724 24.7749 9.07792 24.7727 9.07799 24.7725C9.07801 24.7724 9.07778 24.7732 9.07677 24.7764C9.07653 24.7772 9.07629 24.778 9.07598 24.779C9.0757 24.7799 9.07535 24.781 9.075 24.7821C9.0743 24.7844 9.07342 24.7873 9.07246 24.7904C9.07056 24.7966 9.068 24.8049 9.06512 24.8145C9.06222 24.8242 9.05877 24.8358 9.05499 24.849L12.8994 25.9536C12.8965 25.9639 12.8945 25.9702 12.8956 25.9667C12.8962 25.9646 12.8966 25.9633 12.8983 25.9579C12.8997 25.9535 12.9018 25.9467 12.9041 25.939C12.9126 25.9111 12.9329 25.8442 12.952 25.7616L9.0556 24.8573ZM9.05672 24.843C8.54516 26.6027 8.38462 28.3716 8.26931 29.9691L12.2589 30.2571C12.3729 28.6778 12.5143 27.2786 12.8977 25.9596L9.05672 24.843ZM8.26935 29.9684C8.26007 30.0965 8.23914 30.3632 8.25875 30.6248C8.27832 30.886 8.35934 31.529 8.89984 32.0747C9.4206 32.6005 10.0389 32.6981 10.264 32.7267C10.5069 32.7577 10.7632 32.7558 10.8921 32.7557L10.8891 28.7557C10.6985 28.7559 10.7111 28.7514 10.7696 28.7588C10.8103 28.764 11.3034 28.8173 11.7418 29.2599C12.2 29.7225 12.2414 30.2435 12.2476 30.3259C12.2538 30.4088 12.2457 30.4399 12.2589 30.2577L8.26935 29.9684ZM10.8911 32.7557C14.6566 32.7548 18.4214 32.7557 22.1879 32.7557V28.7557C18.4228 28.7557 14.6561 28.7548 10.8901 28.7557L10.8911 32.7557ZM22.1879 32.7557C23.8762 32.7557 25.5681 32.7567 27.2591 32.7553L27.2557 28.7553C25.567 28.7567 23.8792 28.7557 22.1879 28.7557V32.7557ZM27.2574 32.7553C27.3893 32.7553 27.6353 32.7529 27.8995 32.7027C28.1732 32.6508 28.6717 32.5109 29.1051 32.0709C29.5524 31.617 29.6849 31.0951 29.7268 30.7782C29.7652 30.4874 29.7461 30.2244 29.7346 30.0885L25.7487 30.4244C25.7554 30.5037 25.7406 30.4106 25.7613 30.2538C25.7855 30.0708 25.8783 29.6467 26.2557 29.2636C26.6193 28.8946 27.0178 28.7987 27.1532 28.773C27.2791 28.7491 27.3485 28.7553 27.2574 28.7553V32.7553ZM29.7346 30.0881C29.6655 29.2697 29.5954 28.3816 29.4828 27.4968L25.5148 28.0017C25.6141 28.7823 25.6766 29.5701 25.7488 30.4247L29.7346 30.0881ZM29.4829 27.4971C29.3439 26.4037 29.1259 25.2011 28.6519 24.0069L24.934 25.4825C25.2283 26.2239 25.3934 27.0465 25.5148 28.0014L29.4829 27.4971ZM28.6522 24.0077C28.3204 23.1705 27.6931 22.2566 26.5498 21.7737L24.9936 25.4586C24.9759 25.4511 24.9539 25.4392 24.9316 25.4228C24.9096 25.4066 24.8949 25.3917 24.8872 25.3829C24.8801 25.3747 24.8823 25.3755 24.8913 25.391C24.9005 25.4068 24.9155 25.4357 24.9337 25.4816L28.6522 24.0077ZM26.5499 21.7737C26.0197 21.5498 25.2131 21.2921 24.9072 21.1788L23.5177 24.9298C24.2482 25.2003 24.5077 25.2534 24.9936 25.4586L26.5499 21.7737ZM24.9069 21.1787C24.5449 21.0447 23.8663 20.8862 23.127 21.2287C22.4848 21.5262 22.173 22.0436 22.0749 22.2095L25.518 24.2454C25.5084 24.2616 25.4567 24.3488 25.3593 24.4562C25.2558 24.5704 25.0766 24.734 24.8083 24.8582C24.1982 25.1408 23.6735 24.9874 23.518 24.9299L24.9069 21.1787ZM22.0751 22.2092C21.0949 23.8662 20.107 25.5116 19.1142 27.1758L22.5494 29.2251C23.5343 27.574 24.5328 25.9109 25.5178 24.2457L22.0751 22.2092ZM19.1155 27.1736C19.0843 27.2259 19.0943 27.2075 19.1139 27.1794C19.1364 27.1471 19.2054 27.0517 19.3244 26.9444C19.4516 26.8299 19.6375 26.7005 19.8848 26.6137C20.1351 26.5258 20.3747 26.5075 20.5745 26.5256L20.2144 30.5093C20.9319 30.5742 21.5557 30.318 22.0013 29.9167C22.3331 29.6178 22.5324 29.2535 22.5481 29.2273L19.1155 27.1736ZM20.5773 26.5258C20.7723 26.5437 21.0051 26.6038 21.2381 26.738C21.4696 26.8713 21.633 27.0382 21.741 27.1835C21.8423 27.3196 21.8935 27.4348 21.9122 27.4796C21.9297 27.5215 21.9362 27.5458 21.9216 27.5001L18.1097 28.7122C18.1291 28.7732 18.2464 29.1873 18.5313 29.5704C18.9072 30.0759 19.4912 30.4429 20.2116 30.5091L20.5773 26.5258ZM21.9219 27.5009C21.7451 26.944 21.567 26.3848 21.3867 25.8251L17.5794 27.0517C17.7571 27.6032 17.9331 28.1561 18.1095 28.7115L21.9219 27.5009ZM21.3872 25.8267C21.2376 25.3611 21.0822 24.8881 20.9353 24.4357L17.1309 25.6713C17.284 26.1425 17.4314 26.5912 17.5789 27.0502L21.3872 25.8267ZM20.4428 23.6347L20.4418 23.6338L17.6225 26.4713L17.6235 26.4723L20.4428 23.6347Z" fill="black" mask="url(#path-2-inside-1_18115_48502)"/>
<mask id="path-4-inside-2_18115_48502" fill="white">
<path d="M25.6467 15.2019C25.6118 18.6245 22.9428 21.4534 19.4983 21.719C15.6179 22.0177 12.2793 18.8837 12.3553 15.0133C12.4235 11.557 15.1564 8.74007 18.6289 8.54092C19.4281 8.49522 20.2007 8.61259 20.954 8.86995C21.2244 8.96231 21.3362 9.15857 21.2539 9.38033C21.1775 9.58622 20.9724 9.66511 20.7073 9.57082C17.7127 8.51109 14.0485 10.3559 13.2556 13.8309C12.5019 17.1347 14.6794 20.3422 18.0513 20.9257C21.3294 21.4929 24.5388 19.0497 24.8586 15.757C24.936 14.9609 24.8421 14.1941 24.5964 13.4389C24.4957 13.1286 24.609 12.8972 24.8712 12.8698C25.0889 12.8467 25.2156 12.9549 25.2867 13.1546C25.5228 13.817 25.638 14.4995 25.6457 15.2014L25.6467 15.2019Z"/>
</mask>
<path d="M25.6467 15.2019C25.6118 18.6245 22.9428 21.4534 19.4983 21.719C15.6179 22.0177 12.2793 18.8837 12.3553 15.0133C12.4235 11.557 15.1564 8.74007 18.6289 8.54092C19.4281 8.49522 20.2007 8.61259 20.954 8.86995C21.2244 8.96231 21.3362 9.15857 21.2539 9.38033C21.1775 9.58622 20.9724 9.66511 20.7073 9.57082C17.7127 8.51109 14.0485 10.3559 13.2556 13.8309C12.5019 17.1347 14.6794 20.3422 18.0513 20.9257C21.3294 21.4929 24.5388 19.0497 24.8586 15.757C24.936 14.9609 24.8421 14.1941 24.5964 13.4389C24.4957 13.1286 24.609 12.8972 24.8712 12.8698C25.0889 12.8467 25.2156 12.9549 25.2867 13.1546C25.5228 13.817 25.638 14.4995 25.6457 15.2014L25.6467 15.2019Z" fill="black"/>
<path d="M25.6467 15.2019L27.6466 15.2222L27.6593 13.969L26.537 13.411L25.6467 15.2019ZM19.4983 21.719L19.6518 23.7131L19.652 23.7131L19.4983 21.719ZM12.3553 15.0133L10.3557 14.9738L10.3557 14.9741L12.3553 15.0133ZM18.6289 8.54092L18.5148 6.54418L18.5144 6.5442L18.6289 8.54092ZM20.954 8.86995L20.3074 10.7625L20.3076 10.7626L20.954 8.86995ZM21.2539 9.38033L23.1289 10.0764L23.1291 10.0758L21.2539 9.38033ZM20.7073 9.57082L21.3774 7.68644L21.3745 7.6854L20.7073 9.57082ZM13.2556 13.8309L11.3057 13.386L11.3057 13.3861L13.2556 13.8309ZM18.0513 20.9257L17.7103 22.8965L17.7104 22.8965L18.0513 20.9257ZM24.8586 15.757L22.868 15.5634L22.868 15.5637L24.8586 15.757ZM24.5964 13.4389L22.6939 14.0559L22.6945 14.0577L24.5964 13.4389ZM24.8712 12.8698L25.0792 14.8589L25.0821 14.8586L24.8712 12.8698ZM25.2867 13.1546L23.4027 13.8257L23.4028 13.826L25.2867 13.1546ZM25.6457 15.2014L23.6458 15.2234L23.6593 16.4474L24.7553 16.9923L25.6457 15.2014ZM23.6468 15.1815C23.6226 17.5516 21.7705 19.5379 19.3446 19.7249L19.652 23.7131C24.1151 23.369 27.601 19.6973 27.6466 15.2222L23.6468 15.1815ZM19.3448 19.7249C16.6298 19.9339 14.3023 17.7307 14.3549 15.0525L10.3557 14.9741C10.2563 20.0367 14.606 24.1015 19.6518 23.7131L19.3448 19.7249ZM14.3549 15.0528C14.4022 12.6532 16.302 10.6777 18.7435 10.5376L18.5144 6.5442C14.0108 6.80248 10.4447 10.4608 10.3557 14.9738L14.3549 15.0528ZM18.7431 10.5377C19.2655 10.5078 19.7801 10.5824 20.3074 10.7625L21.6006 6.97737C20.6214 6.6428 19.5908 6.48266 18.5148 6.54418L18.7431 10.5377ZM20.3076 10.7626C20.1322 10.7027 19.7662 10.5263 19.5081 10.0834C19.2226 9.59336 19.238 9.06451 19.3787 8.68489L23.1291 10.0758C23.3522 9.47439 23.3528 8.73653 22.9643 8.06981C22.6033 7.45023 22.0463 7.12956 21.6004 6.97729L20.3076 10.7626ZM19.379 8.68423C19.5288 8.28057 19.8699 7.88698 20.3767 7.70536C20.8344 7.54137 21.2086 7.62639 21.3774 7.68644L20.0371 11.4552C20.4711 11.6095 21.0804 11.7023 21.726 11.4709C22.4208 11.222 22.9026 10.686 23.1289 10.0764L19.379 8.68423ZM21.3745 7.6854C17.2558 6.22788 12.3655 8.74115 11.3057 13.386L15.2055 14.2758C15.7315 11.9706 18.1695 10.7943 20.0401 11.4562L21.3745 7.6854ZM11.3057 13.3861C10.2906 17.8353 13.2375 22.1225 17.7103 22.8965L18.3923 18.955C16.1212 18.562 14.7131 16.434 15.2055 14.2758L11.3057 13.3861ZM17.7104 22.8965C22.1288 23.6609 26.4164 20.4067 26.8492 15.9503L22.868 15.5637C22.6612 17.6927 20.53 19.3249 18.3923 18.955L17.7104 22.8965ZM26.8492 15.9505C26.9548 14.8642 26.824 13.8211 26.4982 12.82L22.6945 14.0577C22.8603 14.5671 22.9172 15.0576 22.868 15.5634L26.8492 15.9505ZM26.4988 12.8219C26.5503 12.9805 26.6441 13.4118 26.3974 13.9206C26.1091 14.5155 25.552 14.8095 25.0792 14.8589L24.6632 10.8806C23.9281 10.9575 23.1833 11.3809 22.798 12.1759C22.4543 12.8848 22.5418 13.5869 22.6939 14.0559L26.4988 12.8219ZM25.0821 14.8586C24.8032 14.8882 24.3696 14.8447 23.9603 14.5481C23.5893 14.2793 23.4476 13.9518 23.4027 13.8257L27.1708 12.4834C27.0547 12.1577 26.8141 11.6763 26.3075 11.3092C25.7627 10.9144 25.1568 10.8283 24.6602 10.8809L25.0821 14.8586ZM23.4028 13.826C23.5603 14.268 23.6404 14.7301 23.6458 15.2234L27.6456 15.1793C27.6355 14.269 27.4853 13.3659 27.1707 12.4831L23.4028 13.826ZM24.7553 16.9923L24.7563 16.9927L26.537 13.411L26.5361 13.4105L24.7553 16.9923Z" fill="black" mask="url(#path-4-inside-2_18115_48502)"/>
<path d="M22.2846 14.706L22.2621 15.1545L22.2621 15.1551L22.2619 15.1597L22.2619 15.1599L22.2345 15.7047C22.3543 15.7107 22.4871 15.6794 22.6048 15.6076C22.6229 15.4688 22.6332 15.3274 22.6351 15.1839C22.6352 15.1836 22.6352 15.1832 22.6352 15.1829C22.6353 15.1763 22.6353 15.1696 22.6354 15.163C22.6378 14.8869 22.5077 14.7175 22.2846 14.706ZM22.2846 14.706L22.2614 15.1545L22.2614 15.155L22.2612 15.1597L22.2611 15.1599L22.2329 15.7046C22.1169 15.6986 21.9759 15.6525 21.8556 15.5526C21.8691 15.4488 21.8764 15.3439 21.8837 15.2393C21.8856 15.2118 21.8875 15.1843 21.8895 15.1568C21.8895 15.1567 21.8895 15.1566 21.8895 15.1564C21.8903 15.1464 21.891 15.1364 21.8918 15.1264C21.9121 14.859 22.064 14.6949 22.2846 14.706Z" fill="black" stroke="black" stroke-width="2"/>
<mask id="path-7-inside-3_18115_48502" fill="white">
<path d="M19.0563 15.5182C18.9295 15.4109 18.7984 15.3402 18.7287 15.2315C18.631 15.079 18.6949 14.9236 18.8202 14.7986C19.2174 14.4017 19.6155 14.0053 20.0132 13.6089C21.5758 12.0518 23.1369 10.4928 24.7044 8.94046C24.836 8.8101 24.8829 8.69802 24.8089 8.52244C24.7378 8.3536 24.6933 8.17369 24.6449 7.99618C24.5844 7.77539 24.685 7.58249 24.8873 7.51755C25.073 7.45742 25.2728 7.55507 25.3488 7.76047C25.4262 7.97021 25.4726 8.19197 25.5587 8.39785C25.595 8.4854 25.684 8.57584 25.7711 8.61384C25.9617 8.69609 26.1678 8.74227 26.3657 8.80818C26.6177 8.89236 26.7368 9.09343 26.6637 9.30124C26.5926 9.5028 26.3734 9.62402 26.1523 9.51049C25.5926 9.22187 25.238 9.42102 24.8234 9.84578C23.0484 11.666 21.2318 13.4464 19.4273 15.2387C19.3291 15.3364 19.2048 15.4071 19.0563 15.5182Z"/>
</mask>
<path d="M19.0563 15.5182C18.9295 15.4109 18.7984 15.3402 18.7287 15.2315C18.631 15.079 18.6949 14.9236 18.8202 14.7986C19.2174 14.4017 19.6155 14.0053 20.0132 13.6089C21.5758 12.0518 23.1369 10.4928 24.7044 8.94046C24.836 8.8101 24.8829 8.69802 24.8089 8.52244C24.7378 8.3536 24.6933 8.17369 24.6449 7.99618C24.5844 7.77539 24.685 7.58249 24.8873 7.51755C25.073 7.45742 25.2728 7.55507 25.3488 7.76047C25.4262 7.97021 25.4726 8.19197 25.5587 8.39785C25.595 8.4854 25.684 8.57584 25.7711 8.61384C25.9617 8.69609 26.1678 8.74227 26.3657 8.80818C26.6177 8.89236 26.7368 9.09343 26.6637 9.30124C26.5926 9.5028 26.3734 9.62402 26.1523 9.51049C25.5926 9.22187 25.238 9.42102 24.8234 9.84578C23.0484 11.666 21.2318 13.4464 19.4273 15.2387C19.3291 15.3364 19.2048 15.4071 19.0563 15.5182Z" fill="black"/>
<path d="M19.0563 15.5182L17.7642 17.0448L18.9795 18.0734L20.2544 17.1196L19.0563 15.5182ZM18.7287 15.2315L20.4127 14.1524L20.4126 14.1524L18.7287 15.2315ZM18.8202 14.7986L20.2331 16.2141L20.2338 16.2134L18.8202 14.7986ZM20.0132 13.6089L18.6014 12.1922L18.6013 12.1924L20.0132 13.6089ZM24.7044 8.94046L26.1117 10.3615L26.112 10.3613L24.7044 8.94046ZM24.8089 8.52244L22.9657 9.29877L22.966 9.29936L24.8089 8.52244ZM24.6449 7.99618L26.5745 7.47027L26.5738 7.46787L24.6449 7.99618ZM24.8873 7.51755L25.4988 9.42177L25.5032 9.42036L24.8873 7.51755ZM25.3488 7.76047L27.2251 7.068L27.2246 7.06682L25.3488 7.76047ZM25.5587 8.39785L27.4064 7.63213L27.4039 7.62612L25.5587 8.39785ZM25.7711 8.61384L24.9712 10.4469L24.9787 10.4501L25.7711 8.61384ZM26.3657 8.80818L26.9993 6.91118L26.9977 6.91066L26.3657 8.80818ZM26.6637 9.30124L28.5497 9.9667L28.5505 9.96451L26.6637 9.30124ZM26.1523 9.51049L25.2357 11.2881L25.2388 11.2896L26.1523 9.51049ZM24.8234 9.84578L23.3922 8.44878L23.3915 8.44948L24.8234 9.84578ZM19.4273 15.2387L18.0179 13.8197L18.0171 13.8205L19.4273 15.2387ZM20.3483 13.9915C20.2716 13.9267 20.2028 13.8745 20.1617 13.8437C20.1511 13.8357 20.1412 13.8283 20.1333 13.8224C20.1247 13.816 20.119 13.8118 20.1133 13.8075C20.1019 13.799 20.0994 13.797 20.1005 13.7978C20.1019 13.799 20.1117 13.8066 20.1263 13.8191C20.1411 13.8317 20.164 13.8518 20.1915 13.8788C20.2461 13.9323 20.3297 14.0229 20.4127 14.1524L17.0448 16.3106C17.2702 16.6623 17.5448 16.8774 17.6417 16.9529C17.6894 16.9901 17.7558 17.0393 17.7611 17.0432C17.7824 17.0592 17.7775 17.0561 17.7642 17.0448L20.3483 13.9915ZM20.4126 14.1524C20.6728 14.5583 20.7448 15.0596 20.6246 15.5152C20.5236 15.8979 20.3221 16.1252 20.2331 16.2141L17.4072 13.383C17.1929 13.597 16.8969 13.9645 16.7571 14.4943C16.598 15.0969 16.687 15.7522 17.0448 16.3106L20.4126 14.1524ZM20.2338 16.2134C20.6298 15.8176 21.0263 15.423 21.4251 15.0255L18.6013 12.1924C18.2047 12.5877 17.8049 12.9858 17.4065 13.3838L20.2338 16.2134ZM21.4249 15.0256C22.9896 13.4665 24.5472 11.911 26.1117 10.3615L23.2971 7.5194C21.7267 9.07459 20.162 10.6372 18.6014 12.1922L21.4249 15.0256ZM26.112 10.3613C26.269 10.2057 26.5984 9.85226 26.7568 9.29773C26.9339 8.67771 26.8128 8.12744 26.6518 7.74552L22.966 9.29936C22.879 9.09302 22.7714 8.68658 22.9107 8.19908C23.0312 7.77708 23.2713 7.54489 23.2968 7.51964L26.112 10.3613ZM26.6521 7.74611C26.656 7.75552 26.651 7.74547 26.6365 7.69619C26.6294 7.67217 26.6214 7.64359 26.6109 7.60494C26.6056 7.58557 26.6003 7.56593 26.5942 7.54296C26.5882 7.52092 26.5815 7.49587 26.5745 7.47027L22.7153 8.52209C22.7443 8.6285 22.8294 8.97503 22.9657 9.29877L26.6521 7.74611ZM26.5738 7.46787C26.659 7.77876 26.6593 8.19572 26.4487 8.60817C26.2345 9.02752 25.872 9.30192 25.4988 9.42177L24.2757 5.61333C23.7003 5.79811 23.1864 6.20143 22.8865 6.78867C22.59 7.369 22.5703 7.99281 22.7159 8.52449L26.5738 7.46787ZM25.5032 9.42036C24.5859 9.71724 23.7381 9.17128 23.4729 8.45412L27.2246 7.06682C26.8076 5.93886 25.5601 5.1976 24.2714 5.61474L25.5032 9.42036ZM23.4725 8.45295C23.4835 8.48272 23.4925 8.5135 23.534 8.65256C23.5667 8.7622 23.6257 8.95935 23.7136 9.16958L27.4039 7.62612C27.4057 7.63046 27.3984 7.6138 27.367 7.50865C27.3444 7.43293 27.2915 7.24796 27.2251 7.068L23.4725 8.45295ZM23.7111 9.16357C23.9466 9.73172 24.4127 10.2032 24.9712 10.4469L26.5711 6.78078C26.8092 6.8847 26.9705 7.01899 27.0718 7.12196C27.1728 7.22469 27.3058 7.38943 27.4064 7.63213L23.7111 9.16357ZM24.9787 10.4501C25.1826 10.5382 25.3708 10.5967 25.4903 10.6326C25.6456 10.6792 25.6714 10.685 25.7337 10.7057L26.9977 6.91066C26.9175 6.88396 26.8433 6.8615 26.7854 6.8443C26.7097 6.82182 26.6937 6.8175 26.6411 6.8017C26.5604 6.77745 26.5502 6.77177 26.5636 6.77753L24.9787 10.4501ZM25.7321 10.7052C25.5044 10.6291 25.1641 10.4409 24.9222 10.0383C24.6613 9.6041 24.6199 9.08444 24.7769 8.63797L28.5505 9.96451C28.7805 9.31023 28.7161 8.58613 28.351 7.97838C28.0049 7.40222 27.4791 7.07143 26.9993 6.91118L25.7321 10.7052ZM24.7777 8.63578C24.912 8.25511 25.2037 7.89916 25.6399 7.70181C26.1115 7.48847 26.6412 7.51326 27.0659 7.73134L25.2388 11.2896C26.7011 12.0405 28.1391 11.1307 28.5497 9.9667L24.7777 8.63578ZM27.069 7.7329C26.4375 7.40731 25.6575 7.24115 24.8283 7.50436C24.1246 7.72777 23.6444 8.19033 23.3922 8.44878L26.2546 11.2428C26.3194 11.1764 26.3347 11.1682 26.3136 11.1838C26.2886 11.2021 26.1948 11.2673 26.0386 11.3169C25.8691 11.3707 25.6851 11.3874 25.5109 11.3649C25.3497 11.3441 25.2531 11.2971 25.2357 11.2881L27.069 7.7329ZM23.3915 8.44948C21.6313 10.2545 19.8351 12.0147 18.0179 13.8197L20.8367 16.6577C22.6285 14.878 24.4655 13.0775 26.2553 11.2421L23.3915 8.44948ZM18.0171 13.8205C18.0565 13.7813 18.0883 13.755 18.1039 13.7426C18.1181 13.7313 18.123 13.7283 18.1062 13.7403C18.0981 13.7459 18.0882 13.7529 18.0728 13.7635C18.0594 13.7728 18.0384 13.7874 18.0185 13.8013C17.9763 13.8307 17.9205 13.8701 17.8581 13.9168L20.2544 17.1196C20.2663 17.1107 20.2817 17.0996 20.3077 17.0815C20.3209 17.0722 20.3802 17.0313 20.4151 17.0065C20.4993 16.947 20.6662 16.8273 20.8375 16.6569L18.0171 13.8205Z" fill="black" mask="url(#path-7-inside-3_18115_48502)"/>
</g>
<defs>
<clipPath id="clip0_18115_48502">
<rect width="19" height="24" fill="white" transform="translate(9.5 7.5)"/>
</clipPath>
</defs>
</svg>
