<svg width="16" height="16" viewBox="0 0 16 16" fill="none" xmlns="http://www.w3.org/2000/svg">
<g clip-path="url(#clip0_5956_42062)">
<path fill-rule="evenodd" clip-rule="evenodd" d="M8 15C11.866 15 15 11.866 15 8C15 4.13401 11.866 1 8 1C4.13401 1 1 4.13401 1 8C1 11.866 4.13401 15 8 15ZM8 16C12.4183 16 16 12.4183 16 8C16 3.58172 12.4183 0 8 0C3.58172 0 0 3.58172 0 8C0 12.4183 3.58172 16 8 16Z" fill="#D49F09"/>
<path d="M6.6665 5.66699C6.6665 6.21928 6.21879 6.66699 5.6665 6.66699C5.11422 6.66699 4.6665 6.21928 4.6665 5.66699C4.6665 5.11471 5.11422 4.66699 5.6665 4.66699C6.21879 4.66699 6.6665 5.11471 6.6665 5.66699Z" fill="#E68205"/>
<path fill-rule="evenodd" clip-rule="evenodd" d="M5.6665 6.66699C6.21879 6.66699 6.6665 6.21928 6.6665 5.66699C6.6665 5.11471 6.21879 4.66699 5.6665 4.66699C5.11422 4.66699 4.6665 5.11471 4.6665 5.66699C4.6665 6.21928 5.11422 6.66699 5.6665 6.66699Z" fill="#D49F09"/>
<path d="M11.3335 5.66699C11.3335 6.21928 10.8858 6.66699 10.3335 6.66699C9.78121 6.66699 9.3335 6.21928 9.3335 5.66699C9.3335 5.11471 9.78121 4.66699 10.3335 4.66699C10.8858 4.66699 11.3335 5.11471 11.3335 5.66699Z" fill="#E68205"/>
<path fill-rule="evenodd" clip-rule="evenodd" d="M10.3335 6.66699C10.8858 6.66699 11.3335 6.21928 11.3335 5.66699C11.3335 5.11471 10.8858 4.66699 10.3335 4.66699C9.78121 4.66699 9.3335 5.11471 9.3335 5.66699C9.3335 6.21928 9.78121 6.66699 10.3335 6.66699Z" fill="#D49F09"/>
<path fill-rule="evenodd" clip-rule="evenodd" d="M4.8335 10.6648C4.83365 10.3886 5.05764 10.1649 5.33378 10.165C6.1193 10.1655 7.52208 10.1653 9.05737 10.1652C9.47615 10.1651 9.90479 10.1651 10.3335 10.165C10.6096 10.165 10.8335 10.3889 10.8335 10.665C10.8335 10.9411 10.6097 11.165 10.3335 11.165C9.90503 11.1651 9.4765 11.1651 9.0578 11.1652C7.52242 11.1653 6.11911 11.1655 5.33321 11.165C5.05707 11.1649 4.83334 10.9409 4.8335 10.6648Z" fill="#D49F09"/>
</g>
<defs>
<clipPath id="clip0_5956_42062">
<rect width="16" height="16" fill="white"/>
</clipPath>
</defs>
</svg>
