<svg width="201" height="201" viewBox="0 0 201 201" fill="none" xmlns="http://www.w3.org/2000/svg">
<rect x="0.5" y="0.5" width="200" height="200" fill="white"/>
<rect opacity="0.5" x="199.25" y="158.25" width="197.5" height="124.5" rx="62.25" transform="rotate(-180 199.25 158.25)" stroke="#4D545C" stroke-width="0.5" stroke-dasharray="2 2"/>
<rect x="55.5" y="151.5" width="92" height="13" fill="white"/>
<path d="M57 39.043V16C57 13.7909 58.7909 12 61 12H139C141.209 12 143 13.7909 143 16V39.043C143 48.569 139.224 57.7066 132.5 64.4543L110.648 86.3835C106.189 90.8576 103.686 96.9165 103.686 103.233C103.686 109.549 106.189 115.608 110.648 120.082L132.5 142.011C139.224 148.759 143 157.897 143 167.423V188C143 190.209 141.209 192 139 192H61C58.7909 192 57 190.209 57 188V167.423C57 157.897 60.7756 148.759 67.4997 142.011L89.3523 120.082C93.8108 115.608 96.3143 109.549 96.3143 103.233C96.3143 96.9165 93.8108 90.8576 89.3523 86.3835L67.4997 64.4543C60.7756 57.7066 57 48.569 57 39.043Z" stroke="#4D545C" stroke-width="0.5"/>
<path d="M97.1417 137.288L60.9516 172.589C60.3431 173.182 60 173.996 60 174.846C60 176.588 61.4119 178 63.1536 178H136.401C137.836 178 139 176.836 139 175.401C139 174.721 138.734 174.068 138.258 173.583L102.793 137.353C101.25 135.777 98.7211 135.747 97.1417 137.288Z" fill="#FFC791"/>
<path d="M65.6664 56.2449L96.9837 88.4279C98.275 89.7549 98.988 91.5396 98.9664 93.3911L98.5147 132.236C98.5066 132.931 99.0685 133.5 99.7645 133.5C100.449 133.5 101.006 132.949 101.014 132.265L101.468 93.2591C101.489 91.4861 102.181 89.787 103.406 88.5049L133.461 57.0476C137.016 53.3265 139 48.3781 139 43.2316L139 42C139 39.7908 137.209 38 135 38L64 38C61.7909 38 60 39.7908 60 42L60 42.2968C60 47.5068 62.033 52.511 65.6664 56.2449Z" fill="#FFC791"/>
<rect x="54.25" y="2.25" width="92.5" height="17.5" rx="3.75" fill="white" stroke="#4D545C" stroke-width="0.5"/>
<rect x="54.25" y="181.25" width="92.5" height="17.5" rx="3.75" fill="white" stroke="#4D545C" stroke-width="0.5"/>
<path d="M41.3982 29.0491C41.3982 29.0491 57.6479 45.3094 55.5348 49.4779C55.5348 49.4779 61.5731 50.2673 48.7645 50.1414C48.0125 50.2352 50.5942 51.7417 49.8547 51.9123C49.8547 51.9123 41.7374 61.0555 39.4785 63.4672C39.2374 63.7297 38.765 64.5026 38.7709 64.3978C36.317 58.5371 50.5276 55.7822 52.289 47.855C52.3579 47.5627 38.142 33.3279 38.142 33.3279C38.142 33.3279 32.702 30.7106 33.1154 30.2245C33.7054 29.4995 34.0478 29.1125 34.0478 29.1125C34.3098 28.9468 34.5036 28.6936 34.593 28.4001C34.6589 28.1528 34.7871 27.9251 34.9654 27.7383C35.1437 27.5515 35.3663 27.4118 35.6122 27.3323C36.2113 27.0841 36.4912 26.4068 36.8367 26.2378C37.1823 26.0688 40.2602 27.9011 41.3982 29.0491Z" fill="white" stroke="#4D545C" stroke-width="0.5" stroke-linecap="round" stroke-linejoin="round"/>
<path d="M36.0923 27.1788C36.6694 27.6468 37.2095 28.1909 37.6977 28.7962C37.8062 28.9377 37.8952 29.096 37.9598 29.2622C37.9949 29.3446 38.0123 29.4309 38.0102 29.5119C38.0081 29.5929 37.9866 29.6655 37.9479 29.7222" stroke="#4D545C" stroke-width="0.5" stroke-linecap="round" stroke-linejoin="round"/>
<path d="M37.2272 26.5959C37.8043 27.0639 38.3444 27.6081 38.8326 28.2133C38.9411 28.3548 39.0301 28.5131 39.0947 28.6793C39.1298 28.7617 39.1472 28.848 39.1451 28.929C39.143 29.01 39.1215 29.0827 39.0828 29.1393" stroke="#4D545C" stroke-width="0.5" stroke-linecap="round" stroke-linejoin="round"/>
<path d="M35.0047 27.8456C35.5817 28.3136 36.1218 28.8577 36.61 29.463C36.7185 29.6045 36.8076 29.7628 36.8721 29.929C36.9072 30.0114 36.9247 30.0977 36.9226 30.1787C36.9205 30.2597 36.899 30.3324 36.8603 30.389" stroke="#4D545C" stroke-width="0.5" stroke-linecap="round" stroke-linejoin="round"/>
<path d="M38.5927 65.3634C38.5927 65.3634 35.1649 57.3841 37.6822 53.5357C39.6819 50.4907 50.6658 48.6665 50.6658 48.6665L39.6925 35.0424L44.9857 30.8146C44.9857 30.8146 62.6334 46.107 62.0261 50.2894C61.4188 54.4718 43.0105 64.7352 38.5927 65.3634Z" fill="white" stroke="#4D545C" stroke-width="0.5" stroke-linecap="round" stroke-linejoin="round"/>
<path d="M37.9709 32.6481C37.9709 32.6481 34.4688 31.7197 34.4601 31.1929C34.4514 30.666 34.9062 28.2832 35.7147 28.2273C36.5232 28.1714 36.2686 30.2555 36.2686 30.2555C36.2686 30.2555 38.0149 29.6987 38.4444 30.6669C38.8739 31.635 37.9709 32.6481 37.9709 32.6481Z" fill="white" stroke="#4D545C" stroke-width="0.5" stroke-linecap="round" stroke-linejoin="round"/>
<path d="M45.9453 46.0042C46.1012 44.7566 41.9921 29.8984 41.4019 28.7969C39.854 25.9084 31.8202 24.7905 28.7578 26.7573C23.7912 29.9268 23.0776 38.9291 18.6402 48.6567C18.6402 48.6567 23.8891 53.5451 32.0036 51.1009C40.1181 48.6567 45.9453 46.0042 45.9453 46.0042Z" fill="white" stroke="#4D545C" stroke-width="0.5" stroke-linecap="round" stroke-linejoin="round"/>
<path d="M31.1334 37.4089C31.1364 37.4474 31.1317 37.4862 31.1194 37.5228C31.1072 37.5594 31.0878 37.5929 31.0625 37.6213C31.0371 37.6497 31.0064 37.6724 30.9722 37.6878C30.938 37.7032 30.901 37.7112 30.8637 37.711C30.1948 37.711 28.7059 37.5656 28.447 39.3561C28.4026 40.0789 28.6369 40.7903 29.0982 41.3338C29.5595 41.8774 30.2101 42.2087 30.9069 42.2547C31.1982 42.2547 31.8671 42.333 32.0613 42.5568C32.6655 43.2395 32.0034 43.7977 32.0034 47.0435C32.0034 47.855 31.5677 49.2109 31.1919 50.2893C30.8161 51.3678 28.0612 52.9096 27.1347 53.5351C27.1347 53.5351 41.6959 57.8441 41.5988 52.5618C41.5988 52.5618 40.7788 42.8142 40.8327 42.7695C41.6419 41.9301 44.7815 41.572 42.8071 34.6222C41.9008 31.4439 40.3257 29.9443 38.826 29.2728" fill="white"/>
<path d="M31.1334 37.4089C31.1364 37.4474 31.1317 37.4862 31.1194 37.5228C31.1072 37.5594 31.0878 37.5929 31.0625 37.6213C31.0371 37.6497 31.0064 37.6724 30.9722 37.6878C30.938 37.7032 30.901 37.7112 30.8637 37.711C30.1948 37.711 28.7059 37.5656 28.447 39.3561C28.4026 40.0789 28.6369 40.7903 29.0982 41.3338C29.5595 41.8774 30.2101 42.2087 30.9069 42.2547C31.1982 42.2547 31.8671 42.333 32.0613 42.5568C32.6655 43.2395 32.0034 43.7977 32.0034 47.0435C32.0034 47.855 31.5677 49.2109 31.1919 50.2893C30.8161 51.3678 28.0612 52.9096 27.1347 53.5351C27.1347 53.5351 41.6959 57.8441 41.5988 52.5618C41.5988 52.5618 40.7788 42.8142 40.8327 42.7695C41.6419 41.9301 44.7815 41.572 42.8071 34.6222C41.9008 31.4439 40.3257 29.9443 38.826 29.2728" stroke="#4D545C" stroke-width="0.5" stroke-linecap="round" stroke-linejoin="round"/>
<path d="M37.1948 28.0223C37.1948 28.0223 35.2877 37.4833 32.9429 38.4648C30.348 39.606 29.4116 36.5981 29.3861 35.852" fill="white"/>
<path d="M37.1948 28.0223C37.1948 28.0223 35.2877 37.4833 32.9429 38.4648C30.348 39.606 29.4116 36.5981 29.3861 35.852" stroke="#4D545C" stroke-width="0.5" stroke-linecap="round" stroke-linejoin="round"/>
<path d="M40.2535 37.4015L40.9473 37.0158L39.6967 34.9003M38.7588 34.2751C38.4461 34.3793 37.8208 34.2751 37.1956 34.9003M40.1077 33.6947C40.1663 33.5411 40.3596 33.1862 40.6645 32.9953" stroke="#4D545C" stroke-width="0.5" stroke-linecap="round" stroke-linejoin="round"/>
<path d="M38.4002 36.2292C38.5155 36.4053 38.7146 36.5162 38.8403 36.4836C38.9661 36.451 38.9975 36.2814 38.8403 36.1118C38.6831 35.9422 38.5364 35.8248 38.4002 35.8574C38.2639 35.89 38.2954 36.0596 38.4002 36.2292Z" fill="#4D545C" stroke="#4D545C" stroke-width="0.5" stroke-linecap="round" stroke-linejoin="round"/>
<path d="M40.538 38.6683C40.0326 38.9809 39.7052 39.5348 39.7882 39.8921C39.8711 40.2494 40.1741 40.0241 40.6641 39.5928C41.1541 39.1614 41.6695 39.0821 41.5873 38.6952C41.5051 38.3084 41.0242 38.3848 40.538 38.6683Z" fill="#4D545C" stroke="#4D545C" stroke-width="0.5" stroke-linecap="round" stroke-linejoin="round"/>
<path d="M41.0533 35.1648C41.1611 35.3332 41.355 35.4478 41.4843 35.4141C41.6136 35.3804 41.6352 35.2187 41.4843 35.0436C41.3335 34.8685 41.1826 34.7674 41.0533 34.8011C40.924 34.8348 40.9456 34.9965 41.0533 35.1648Z" fill="#4D545C" stroke="#4D545C" stroke-width="0.5" stroke-linecap="round" stroke-linejoin="round"/>
<path d="M31.2545 43.6543C30.3912 43.6543 29.6913 42.9544 29.6913 42.091C29.6913 41.2277 30.3912 40.5278 31.2545 40.5278C32.1179 40.5278 32.8177 41.2277 32.8177 42.091C32.8177 42.9544 32.1179 43.6543 31.2545 43.6543Z" fill="white" stroke="#4D545C" stroke-width="0.5" stroke-linecap="round" stroke-linejoin="round"/>
<path d="M39.0703 183.932L40.2267 191.897C40.2267 191.897 42.077 197.174 43.7884 195.126C44.7912 193.936 45.9587 192.888 47.2576 192.01L47.8243 183.718L39.0703 183.932Z" fill="white" stroke="#4D545C" stroke-width="0.5" stroke-linecap="round" stroke-linejoin="round"/>
<path d="M12.1842 183.749L9.79041 190.994C9.79041 190.994 7.98152 192.513 7.32079 192.472C6.1293 192.4 5.48562 191.37 5.48562 191.37L5.50107 184.563L12.1842 183.749Z" fill="white" stroke="#4D545C" stroke-width="0.5" stroke-linecap="round" stroke-linejoin="round"/>
<g clip-path="url(#clip0_13691_2956)">
<mask id="path-27-inside-1_13691_2956" fill="white">
<path d="M12.5288 194.333V190.518C12.5406 190.338 12.5149 190.158 12.4535 189.988C12.392 189.818 12.2959 189.662 12.1711 189.53C12.0462 189.397 11.8951 189.291 11.727 189.217C11.5588 189.143 11.3771 189.103 11.1927 189.099H10.6118C10.2902 189.1 9.97991 189.216 9.74046 189.426L8.56416 190.447C8.32741 190.645 8.02614 190.753 7.71461 190.753C7.40308 190.753 7.10181 190.645 6.86507 190.447L5.49997 189.355C5.26137 189.225 4.98739 189.17 4.71576 189.199H4.30913C4.12475 189.202 3.94298 189.242 3.77483 189.316C3.60668 189.39 3.45562 189.497 3.33076 189.629C3.2059 189.762 3.10984 189.917 3.04836 190.087C2.98689 190.257 2.96126 190.437 2.97306 190.617V196.673"/>
</mask>
<path d="M12.5288 194.333V190.518C12.5406 190.338 12.5149 190.158 12.4535 189.988C12.392 189.818 12.2959 189.662 12.1711 189.53C12.0462 189.397 11.8951 189.291 11.727 189.217C11.5588 189.143 11.3771 189.103 11.1927 189.099H10.6118C10.2902 189.1 9.97991 189.216 9.74046 189.426L8.56416 190.447C8.32741 190.645 8.02614 190.753 7.71461 190.753C7.40308 190.753 7.10181 190.645 6.86507 190.447L5.49997 189.355C5.26137 189.225 4.98739 189.17 4.71576 189.199H4.30913C4.12475 189.202 3.94298 189.242 3.77483 189.316C3.60668 189.39 3.45562 189.497 3.33076 189.629C3.2059 189.762 3.10984 189.917 3.04836 190.087C2.98689 190.257 2.96126 190.437 2.97306 190.617V196.673" fill="white"/>
<path d="M13.0288 194.333C13.0288 194.609 12.8049 194.833 12.5288 194.833C12.2526 194.833 12.0288 194.609 12.0288 194.333H13.0288ZM12.5288 190.518H12.0288C12.0288 190.507 12.0291 190.496 12.0298 190.485L12.5288 190.518ZM11.1927 189.099V188.599L11.2021 188.6L11.1927 189.099ZM10.6118 189.099L10.6113 188.599H10.6118V189.099ZM9.74046 189.426L10.0699 189.802L10.0682 189.803L9.74046 189.426ZM8.56416 190.447L8.89198 190.824L8.88469 190.831L8.56416 190.447ZM7.71461 190.753V191.253V190.753ZM6.86507 190.447L7.17749 190.056L7.18561 190.063L6.86507 190.447ZM5.49997 189.355L5.73906 188.916C5.76486 188.93 5.78938 188.946 5.81232 188.964L5.49997 189.355ZM4.71576 189.199L4.76776 189.696C4.75048 189.698 4.73313 189.699 4.71576 189.699V189.199ZM4.30913 189.199L4.29975 188.699H4.30913V189.199ZM2.97306 190.617L3.47199 190.584C3.47271 190.595 3.47306 190.606 3.47306 190.617H2.97306ZM3.47306 196.673C3.47306 196.949 3.24921 197.173 2.97306 197.173C2.69692 197.173 2.47306 196.949 2.47306 196.673H3.47306ZM12.0288 194.333V190.518H13.0288V194.333H12.0288ZM12.0298 190.485C12.0371 190.374 12.0214 190.263 11.9833 190.158L12.9236 189.818C13.0085 190.052 13.044 190.302 13.0277 190.55L12.0298 190.485ZM11.9833 190.158C11.9453 190.053 11.8856 189.956 11.8071 189.873L12.535 189.187C12.7063 189.369 12.8387 189.583 12.9236 189.818L11.9833 190.158ZM11.8071 189.873C11.7286 189.789 11.633 189.722 11.5257 189.675L11.9283 188.759C12.1573 188.86 12.3638 189.005 12.535 189.187L11.8071 189.873ZM11.5257 189.675C11.4183 189.627 11.3018 189.602 11.1833 189.599L11.2021 188.6C11.4523 188.604 11.6993 188.658 11.9283 188.759L11.5257 189.675ZM11.1927 189.599H10.6118V188.599H11.1927V189.599ZM10.6123 189.599C10.4103 189.6 10.2173 189.673 10.0699 189.802L9.41102 189.05C9.74254 188.759 10.17 188.6 10.6113 188.599L10.6123 189.599ZM10.0682 189.803L8.89192 190.824L8.23639 190.069L9.41269 189.048L10.0682 189.803ZM8.88469 190.831C8.55707 191.104 8.14205 191.253 7.71461 191.253V190.253C7.91023 190.253 8.09776 190.185 8.24362 190.063L8.88469 190.831ZM7.71461 191.253C7.28718 191.253 6.87216 191.104 6.54453 190.831L7.18561 190.063C7.33147 190.185 7.51899 190.253 7.71461 190.253V191.253ZM6.55273 190.837L5.18763 189.745L5.81232 188.964L7.17742 190.056L6.55273 190.837ZM5.26089 189.794C5.11171 189.713 4.93931 189.678 4.76776 189.696L4.66376 188.701C5.03547 188.663 5.41102 188.737 5.73906 188.916L5.26089 189.794ZM4.71576 189.699H4.30913V188.699H4.71576V189.699ZM4.31852 189.699C4.20001 189.701 4.08349 189.727 3.97612 189.774L3.57354 188.858C3.80248 188.758 4.04949 188.704 4.29975 188.699L4.31852 189.699ZM3.97612 189.774C3.8688 189.821 3.77319 189.889 3.6947 189.972L2.96682 189.286C3.13805 189.104 3.34455 188.959 3.57354 188.858L3.97612 189.774ZM3.6947 189.972C3.61626 190.055 3.55654 190.152 3.5185 190.257L2.57823 189.917C2.66314 189.683 2.79554 189.468 2.96682 189.286L3.6947 189.972ZM3.5185 190.257C3.48046 190.363 3.46473 190.474 3.47199 190.584L2.47414 190.65C2.45779 190.401 2.49331 190.152 2.57823 189.917L3.5185 190.257ZM3.47306 190.617V196.673H2.47306V190.617H3.47306Z" fill="#4D545C" mask="url(#path-27-inside-1_13691_2956)"/>
<path d="M2.61234 196.639C2.61289 196.645 2.61316 196.652 2.61316 196.659V199.032H12.8596V196.659C12.8596 196.652 12.8599 196.646 12.8604 196.639C12.9481 195.513 12.5794 194.397 11.8322 193.532C11.0871 192.669 10.0248 192.124 8.87207 192.016H6.60035C5.44625 192.121 4.38185 192.665 3.63617 193.528C2.88833 194.394 2.52105 195.511 2.61234 196.639Z" fill="white" stroke="#4D545C" stroke-width="0.5" stroke-linecap="round" stroke-linejoin="round"/>
<path d="M12.5611 197.016H3.17359" stroke="#4D545C" stroke-width="0.5" stroke-linecap="round" stroke-linejoin="round"/>
</g>
<g clip-path="url(#clip1_13691_2956)">
<path d="M37.1821 199.363C37.1074 196.268 37.5438 193.292 37.9626 190.224C38.0048 190.101 38.0838 189.994 38.1895 189.915C38.2952 189.836 38.4227 189.79 38.5558 189.782C38.6868 189.757 38.822 189.761 38.9511 189.794C39.0802 189.828 39.1998 189.889 39.301 189.973C40.1983 190.828 41.6568 193.401 44.0461 192.644C45.0271 192.333 46.5212 191.61 47.3766 191.051C47.5379 190.937 47.7322 190.876 47.9317 190.876C48.1312 190.876 48.3255 190.937 48.4868 191.051L55.9541 194.558C56.5027 194.78 56.9646 195.165 57.2733 195.658C57.5821 196.151 57.7219 196.725 57.6726 197.3C57.5814 198.406 57.3228 199.363 56.9731 199.363H37.1821Z" fill="white"/>
<path d="M38.6023 190.027C38.5919 190.029 38.5814 190.031 38.5709 190.031C38.4858 190.036 38.4051 190.066 38.3389 190.115C38.2789 190.16 38.2335 190.219 38.2066 190.285C38.1855 190.44 38.1643 190.594 38.1431 190.749C37.7571 193.566 37.3834 196.293 37.4272 199.113H56.9592C56.9675 199.107 56.9855 199.091 57.0122 199.053C57.0662 198.975 57.125 198.849 57.1815 198.67C57.2935 198.317 57.3787 197.822 57.4235 197.279L57.4236 197.279C57.4681 196.759 57.3417 196.238 57.0615 195.791C56.7812 195.344 56.361 194.993 55.8602 194.79L55.8601 194.79L55.8478 194.784L48.3805 191.277C48.3673 191.271 48.3546 191.263 48.3426 191.255C48.224 191.171 48.0801 191.126 47.9317 191.126C47.7833 191.126 47.6394 191.171 47.5208 191.255L47.5209 191.255L47.5135 191.26C46.6403 191.831 45.1257 192.564 44.1217 192.882C42.8128 193.297 41.7627 192.789 40.9527 192.104C40.5491 191.763 40.1975 191.373 39.8953 191.021C39.8223 190.936 39.753 190.854 39.6867 190.776C39.4749 190.526 39.2954 190.314 39.1348 190.16C39.0637 190.102 38.9798 190.06 38.8889 190.036C38.7954 190.012 38.6974 190.009 38.6023 190.027Z" stroke="#4D545C" stroke-width="0.5" stroke-linecap="round" stroke-linejoin="round"/>
<path d="M37.552 196.828H48.9583" stroke="#4D545C" stroke-width="0.5" stroke-linecap="round" stroke-linejoin="round"/>
</g>
<path d="M25.802 80.033C22.8969 85.0218 20.7594 90.4198 19.4613 96.0455C17.4549 103.908 6.24787 170.342 5.30564 184.613C7.87223 185.015 10.4791 185.094 13.0652 184.846C18.0424 170.586 32.7967 124.5 34.9361 115.507C35.0033 115.224 35.1739 114.976 35.4144 114.813C35.6548 114.649 35.9477 114.582 36.2355 114.623C36.5232 114.665 36.7849 114.813 36.969 115.038C37.1532 115.263 37.2466 115.549 37.2307 115.839C36.0113 126.108 37.9069 167.802 38.8824 185.09C40.1793 185.755 46.387 185.633 47.8835 185.445C49.513 167.847 58.1705 101.169 45.1011 79.6005C39.1041 78.7799 31.8766 79.8556 25.802 80.033Z" fill="white" stroke="#4D545C" stroke-width="0.5" stroke-linecap="round" stroke-linejoin="round"/>
<path d="M30.3166 81.7965C30.3166 81.7965 30.1209 98.6843 22.1879 97.354L30.3166 81.7965Z" fill="white"/>
<path d="M30.3166 81.7965C30.3166 81.7965 30.1209 98.6843 22.1879 97.354" stroke="#4D545C" stroke-width="0.5" stroke-linecap="round" stroke-linejoin="round" stroke-dasharray="2 2"/>
<path d="M49.0755 97.9788C41.7166 99.3167 42.8915 82.4222 42.8915 82.4222L49.0755 97.9788Z" fill="white"/>
<path d="M49.0755 97.9788C41.7166 99.3167 42.8915 82.4222 42.8915 82.4222" stroke="#4D545C" stroke-width="0.5" stroke-linecap="round" stroke-linejoin="round" stroke-dasharray="2 2"/>
<path d="M38.4456 179.966H48.4502" stroke="#4D545C" stroke-width="0.5" stroke-linecap="round" stroke-linejoin="round"/>
<path d="M5.80379 179.897H14.7269" stroke="#4D545C" stroke-width="0.5" stroke-linecap="round" stroke-linejoin="round"/>
<path d="M41.4122 49.907C41.2319 50.3271 48.6598 64.832 48.4457 68.9668C48.2315 73.1016 45.3347 80.1109 45.5601 80.741C45.5601 80.741 42.2801 83.2838 24.1444 80.4757C18.5762 75.6997 23.4681 59.4701 25.3504 54.285C25.3504 54.285 29.1062 52.7879 31.1914 50.2893C30.0103 49.4887 40.4316 57.2258 41.4122 49.907Z" fill="white" stroke="#4D545C" stroke-width="0.5" stroke-linecap="round" stroke-linejoin="round"/>
<path d="M33.5876 85.0416C38.8589 83.9774 44.0459 82.5466 49.1088 80.7601C49.6853 80.5542 51.3816 79.7846 51.3261 79.5353C51.3261 78.9717 47.9004 80.4675 48.0002 80.3266C48.0999 80.1856 52.202 78.8633 52.202 78.3972C52.202 77.7143 47.6897 79.2752 47.6121 79.2969C46.4369 79.6329 51.9802 77.9636 52.1022 77.4975C52.2241 77.0315 49.641 77.6059 49.5412 77.6276C48.822 77.867 48.0786 78.0306 47.3239 78.1154C47.2463 77.9745 51.6033 75.4164 51.1377 75.1454C50.672 74.8745 47.346 76.4028 46.5589 76.6955C45.8315 76.9826 45.0355 77.0616 44.264 76.9231C44.009 76.7713 45.2501 75.4846 45.7823 74.9968C43.8498 74.3527 42.7445 76.1394 41.8914 76.9231C41.5413 77.3281 41.2191 77.7553 40.9269 78.2021L33.4434 79.6329L33.5876 85.0416Z" fill="white" stroke="#4D545C" stroke-width="0.5" stroke-linecap="round" stroke-linejoin="round"/>
<path d="M29.0289 59.3534C29.0289 59.3534 30.1304 52.5146 26.5835 53.0652C20.6683 54.0123 13.916 67.5026 16.5046 85.4199C17.3418 91.2455 40.9473 85.574 40.9473 85.574L39.4272 77.0504L27.1122 79.0987L29.0289 59.3534Z" fill="white" stroke="#4D545C" stroke-width="0.5" stroke-linecap="round" stroke-linejoin="round"/>
<path d="M40.5862 42.9682C39.5546 43.3442 38.1738 43.1152 37.0799 42.9682C35.986 42.8211 34.9494 42.4117 34.0679 41.7786" stroke="#4D545C" stroke-width="0.5" stroke-linecap="round" stroke-linejoin="round"/>
<g style="mix-blend-mode:multiply">
<path d="M46.1134 83.6544C46.1134 83.6544 56.2692 116.341 47.4667 177.985H39.3242C39.3242 177.985 38.3064 112.822 37.6017 111.948C36.8971 111.074 12.5812 177.985 12.5812 177.985H6.44075C6.44075 177.985 18.5987 93.7568 22.6811 88.8328C22.8824 88.5894 32.5909 86.4981 39.4584 85.0486L46.1134 83.6544Z" fill="#F1F7FF"/>
</g>
<path d="M186.791 73.2639C187.096 72.5218 187.74 70.3709 187.876 67.7041" stroke="#4D545C" stroke-width="0.5" stroke-linecap="round"/>
<path d="M139.903 190.712L140.255 184.492L146.803 184.719L147.201 192.386L143.888 195.735L138.946 192.147L139.903 190.712Z" fill="white" stroke="#4D545C" stroke-width="0.5" stroke-linejoin="round"/>
<path d="M139.089 191.428C139.089 191.428 141.034 191.389 143.295 193.066C144.638 194.061 146.67 192.005 147.294 191.475C147.422 191.368 147.592 191.475 147.615 191.656L148.399 198.604H128.716C128.486 198.604 128.298 198.367 128.298 198.078L128.363 197.647C128.43 197.177 128.621 196.73 128.919 196.347C129.217 195.964 129.612 195.657 130.069 195.453L139.089 191.428Z" fill="white" stroke="#4D545C" stroke-width="0.5" stroke-linejoin="round"/>
<path d="M135.956 192.865L138.827 195.736" stroke="#4D545C" stroke-width="0.5" stroke-linejoin="round"/>
<path d="M172.099 190.154C171.731 188.316 169.806 184.035 169.806 184.035L176.463 183.053L178.67 192.023L175.232 195.731L170.056 192.861C170.056 192.861 172.467 191.992 172.099 190.154Z" fill="white"/>
<path d="M172.099 190.154C171.731 188.316 169.806 184.035 169.806 184.035L176.463 183.053L178.67 192.023L175.232 195.731L170.056 192.861C170.056 192.861 172.467 191.992 172.099 190.154Z" stroke="#4D545C" stroke-width="0.5" stroke-linejoin="round"/>
<path d="M170.549 191.428C170.549 191.428 172.467 191.389 174.701 193.066C176.034 194.061 178.041 192.005 178.658 191.475C178.785 191.368 178.953 191.475 178.975 191.656L179.746 198.604H160.292C160.07 198.604 159.885 198.367 159.885 198.078L159.925 197.811C159.999 197.291 160.209 196.796 160.535 196.372C160.861 195.948 161.293 195.609 161.793 195.385L170.549 191.428Z" fill="white" stroke="#4D545C" stroke-width="0.5" stroke-linejoin="round"/>
<path d="M167.781 192.623L170.653 194.538" stroke="#4D545C" stroke-width="0.5" stroke-linejoin="round"/>
<path d="M141.017 103.158C141.017 103.158 138.579 134.087 138.367 142.636C138.155 151.185 139.754 185.61 139.754 185.61L147.944 185.925C147.944 185.925 156.978 125.552 166.824 104.94L141.017 103.158Z" fill="white" stroke="#4D545C" stroke-width="0.5" stroke-linejoin="round"/>
<path d="M141.22 103.158C141.22 103.158 146.932 129.125 152.729 147.5C157.413 162.348 170.058 185.925 170.058 185.925L178.31 185.566L169.306 147.941C168.775 145.725 168.438 143.465 168.3 141.189C167.785 132.556 169.467 115.126 170.17 103.931L141.22 103.158Z" fill="white" stroke="#4D545C" stroke-width="0.5" stroke-linejoin="round"/>
<path d="M124.71 64.5267C124.71 64.5267 138.335 83.468 141.936 83.7736C145.538 84.0792 170.483 58.3453 163.539 53.3841C163.539 53.3841 162.256 51.0056 160.007 52.1585C157.758 53.3115 151.325 55.8372 140.968 70.6643C140.968 70.6643 129.4 59.9276 128.599 58.8604C128.599 58.8604 125.986 52.7976 125.686 53.8067C125.387 54.8157 126.527 57.5354 126.044 57.5136C125.561 57.4919 121.175 52.4255 120.626 52.6774C120.077 52.9293 123.362 55.9823 123.134 56.0403C122.907 56.0983 119.563 53.2484 119.257 53.6132C118.95 53.978 122.289 56.8269 122.098 56.9436C121.907 57.0603 118.706 54.3128 118.526 54.5951C118.347 54.8775 120.839 57.1912 120.985 57.7241C120.985 57.7241 118.148 55.7165 117.87 56.1966C117.591 56.6768 124.71 64.5267 124.71 64.5267Z" fill="white" stroke="#4D545C" stroke-width="0.5" stroke-linejoin="round"/>
<path d="M141.479 69.5713C141.479 69.5713 159.663 41.06 167.706 51.9376C172.204 58.0154 146.794 86.1093 141.972 88.2287L130.849 75.8054L136.954 66.5264L141.479 69.5713Z" fill="white" stroke="#4D545C" stroke-width="0.5" stroke-linejoin="round"/>
<path d="M134.271 79.474L139.745 68.5523" stroke="#4D545C" stroke-width="0.5" stroke-linejoin="round"/>
<path d="M173.03 74.7773C174.45 67.7406 177.732 52.5679 177.732 52.5679L173.651 49.6522L173.39 49.5596L168.22 52.7116C166.791 53.5128 165.521 53.5437 165.389 51.8849L165.649 51.1482L165.977 49.7926L163.143 49.9569C162.255 49.8608 157.165 53.4506 155.354 55.247C153.381 57.2186 151.939 59.659 151.163 62.3399L140.483 102.132L168.598 110.913C168.598 110.913 170.847 85.5871 173.03 74.7773Z" fill="white" stroke="#4D545C" stroke-width="0.5" stroke-linejoin="round"/>
<path d="M173.854 48.9363C173.854 48.9363 171.82 55.6574 163.582 70.1894C158.284 79.5364 151.916 96.1182 148.79 104.582C148.539 105.264 148.431 105.991 148.473 106.718C148.516 107.445 148.708 108.157 149.038 108.811C149.367 109.465 149.828 110.047 150.392 110.523C150.956 110.998 151.611 111.356 152.318 111.576L170.649 117.318C170.649 117.318 178.029 93.2812 178.352 89.8563C178.674 86.4314 197.143 65.2501 183.78 56.1895L173.854 48.9363Z" fill="white" stroke="#4D545C" stroke-width="0.5" stroke-linejoin="round"/>
<path d="M162.544 55.8756L162.245 56.717L143.929 103.245C143.352 104.714 142.261 105.933 140.845 106.695C139.429 107.457 137.775 107.713 136.168 107.42L134.83 107.174C134.83 107.174 140.211 90.8072 141.944 87.5584C150.504 65.8762 150.45 59.9933 152.023 58.1267C154.459 55.2398 159.988 49.3145 164.975 49.7399L162.544 55.8756Z" fill="white" stroke="#4D545C" stroke-width="0.5" stroke-linejoin="round"/>
<path d="M153.197 86.4477C152.869 87.1794 152.854 87.8685 153.248 88.0013C153.643 88.1342 154.17 87.6003 154.466 86.8856C154.762 86.171 154.811 85.459 154.424 85.3342C154.037 85.2094 153.528 85.7101 153.197 86.4477Z" fill="white" stroke="#4D545C" stroke-width="0.5" stroke-linejoin="round"/>
<path d="M171.062 22.5999C169.109 22.5036 166.462 26.5486 166.556 28.8177C166.508 29.4836 166.681 30.1427 167.048 30.692C167.126 31.1431 167.322 31.5634 167.615 31.9103C168.274 32.5462 169.583 32.2539 170.774 31.8755C171.964 31.4972 173.141 33.3106 173.336 33.6113L171.104 41.2707L172.41 41.2897L172.419 41.4361L172.431 41.5789L174.918 41.2238L174.957 41.1773C178.516 36.609 179.044 33.8339 178.59 31.949C181.41 30.4628 173.495 25.3999 171.062 22.5999ZM173.682 41.1059L173.143 41.1845C173.491 41.0161 173.875 40.9371 174.258 40.9548L173.682 41.1059Z" fill="white" stroke="#4D545C" stroke-width="0.5" stroke-linejoin="round"/>
<path d="M173.912 41.0415L175.877 50.6067L171.724 54.5092C170.575 55.715 165.557 57.9324 164.549 54.3213L164.735 52.8184L167.116 42.6052L169.908 40.8401C170.327 41.084 170.479 40.9793 170.831 41.3095C170.973 41.5508 173.912 41.0415 173.912 41.0415Z" fill="white" stroke="#4D545C" stroke-width="0.5" stroke-linejoin="round"/>
<path d="M173.221 40.2057C173.218 40.2506 173.226 40.296 173.246 40.3374C173.265 40.3788 173.295 40.4148 173.332 40.4417C173.37 40.4686 173.413 40.4856 173.459 40.4908C173.504 40.4961 173.55 40.4895 173.591 40.4717C174.188 40.2136 176.07 40.1417 175.719 41.9891C175.241 44.4953 173.008 43.1252 172.691 43.3586C172.058 43.8379 170.162 44.5599 167.992 44.6382C166.672 44.6858 164.171 45.3626 163.403 43.6551C162.635 41.9475 163.002 40.5801 167.606 29.7973C167.606 29.7973 167.429 30.3523 168.13 30.9664C168.83 31.5806 169.415 30.4054 170.441 30.5196C171.26 30.6275 174.657 31.7308 174.528 34.7421C174.469 36.1301 173.239 39.0456 173.221 40.2057Z" fill="white" stroke="#4D545C" stroke-width="0.5" stroke-linejoin="round"/>
<path d="M165.119 40.0701C165.119 40.0701 165.702 40.0701 167.45 41.2359C167.45 41.2359 165.973 42.3596 165.335 41.7723C164.696 41.185 165.119 40.0701 165.119 40.0701Z" fill="#4D545C"/>
<path d="M168.112 36.1376C168.033 36.5819 168.212 37.0767 168.5 37.2395C168.788 37.4023 169.082 37.1679 169.161 36.7236C169.24 36.2793 169.06 35.7846 168.773 35.6217C168.485 35.4589 168.19 35.6933 168.112 36.1376Z" fill="#4D545C"/>
<path d="M166.361 35.6196C166.286 36.0686 166.461 36.5623 166.75 36.7242C167.039 36.8861 167.335 36.6529 167.407 36.2077C167.478 35.7625 167.313 35.2706 167.024 35.1088C166.735 34.9469 166.439 35.18 166.361 35.6196Z" fill="#4D545C"/>
<path d="M169.92 35.2568C169.73 34.7485 169.336 34.4438 168.784 34.3784" stroke="#4D545C" stroke-width="0.5" stroke-linejoin="round"/>
<path d="M144.316 51.8645L146.051 79.3253C146.136 80.6699 144.894 81.7122 143.585 81.3953L126.024 77.1466C125.208 76.9492 124.602 76.2634 124.507 75.4295L121.333 47.6205C121.175 46.2396 122.439 45.1229 123.79 45.4497L142.791 50.0467C143.643 50.2528 144.261 50.9897 144.316 51.8645Z" fill="white" stroke="#4D545C" stroke-width="0.5"/>
<path d="M142.257 53.1215L143.992 80.5823C144.077 81.9268 142.835 82.9691 141.526 82.6523L123.964 78.4035C123.149 78.2061 122.543 77.5204 122.448 76.6864L119.273 48.8774C119.116 47.4965 120.38 46.3799 121.731 46.7067L140.731 51.3037C141.583 51.5098 142.202 52.2467 142.257 53.1215Z" fill="white" stroke="#4D545C" stroke-width="0.5"/>
<path d="M166.698 33.8959C167.088 33.8951 167.441 33.977 167.74 34.1379" stroke="#4D545C" stroke-width="0.5" stroke-linejoin="round"/>
<path d="M146.18 71.6821C146.18 71.6821 145.193 68.4176 145.794 67.9685C146.395 67.5193 147.724 70.9981 147.837 72.4292C147.871 72.9852 147.866 73.5425 147.822 74.0973L156.163 84.007C157.289 85.166 158.046 85.4875 158.902 83.9031C161.502 79.0878 169.881 70.2591 169.992 70.1518L179.119 81.8494L163.408 97.4424C161.575 99.4001 157.336 98.3977 155.943 96.1536C150.782 87.8259 140.289 72.2379 139.676 71.3231C139.334 70.8015 138.438 69.1164 138.597 68.9055C138.955 68.4334 140.794 71.7782 140.762 71.5812C140.73 71.3841 138.272 67.7879 138.555 67.3946C138.978 66.8089 141.665 70.8715 141.717 70.9301C142.449 71.9338 138.995 67.1454 139.194 66.6718C139.393 66.1981 141.114 68.2677 141.176 68.3426C141.176 68.3426 142.548 70.2076 142.707 70.1307C142.866 70.0538 140.918 65.2418 141.455 65.2887C141.992 65.3355 143.386 68.2169 143.851 68.9483C144.316 69.6796 146.222 72.2049 146.18 71.6821Z" fill="white"/>
<path d="M146.18 71.6821C146.18 71.6821 145.193 68.4176 145.794 67.9685C146.395 67.5193 147.724 70.9981 147.837 72.4292C147.871 72.9852 147.866 73.5425 147.822 74.0973L156.163 84.007C157.289 85.166 158.046 85.4875 158.902 83.9031C161.502 79.0878 169.881 70.2591 169.992 70.1518L179.119 81.8494L163.408 97.4424C161.575 99.4001 157.336 98.3977 155.943 96.1536C150.782 87.8259 140.289 72.2379 139.676 71.3231C139.334 70.8015 138.438 69.1164 138.597 68.9055C138.955 68.4334 140.794 71.7782 140.762 71.5812C140.73 71.3841 138.272 67.7879 138.555 67.3946C138.978 66.8089 141.665 70.8715 141.717 70.9301C142.449 71.9338 138.995 67.1454 139.194 66.6718C139.393 66.1981 141.114 68.2677 141.176 68.3426C141.176 68.3426 142.548 70.2076 142.707 70.1307C142.866 70.0538 140.918 65.2418 141.455 65.2887C141.992 65.3355 143.386 68.2169 143.851 68.9483C144.316 69.6796 146.222 72.2049 146.18 71.6821Z" stroke="#4D545C" stroke-width="0.5" stroke-linejoin="round"/>
<path d="M174.538 61.6828C174.538 61.6828 180.013 53.1433 184.966 58.5914C190.166 64.3191 185.927 80.9564 168.155 97.7724C164.115 101.585 154.852 100.214 152.108 95.4334L148.798 92.187L154.973 81.9026L156.904 83.8125L174.538 61.6828Z" fill="white" stroke="#4D545C" stroke-width="0.5" stroke-linejoin="round"/>
<path d="M158.286 83.4978C158.208 83.8194 153.208 96.8547 153.208 96.8547L148.787 92.2324L155.22 81.098L158.286 83.4978Z" fill="white" stroke="#4D545C" stroke-width="0.5" stroke-linejoin="round"/>
<path d="M179.266 193.343C179.266 193.343 174.482 194.269 174.002 198.605" stroke="#4D545C" stroke-width="0.5" stroke-linejoin="round"/>
<path d="M162.517 195.019C162.517 195.019 167.192 195.24 166.801 198.607L162.517 195.019Z" fill="white"/>
<path d="M162.517 195.019C162.517 195.019 167.192 195.24 166.801 198.607" stroke="#4D545C" stroke-width="0.5" stroke-linejoin="round"/>
<path d="M147.68 193.582C147.68 193.582 143.112 194.466 142.655 198.605L147.68 193.582Z" fill="white"/>
<path d="M147.68 193.582C147.68 193.582 143.112 194.466 142.655 198.605" stroke="#4D545C" stroke-width="0.5" stroke-linejoin="round"/>
<path d="M131.647 194.777C131.647 194.777 135.798 195.014 135.456 198.605L131.647 194.777Z" fill="white"/>
<path d="M131.647 194.777C131.647 194.777 135.798 195.014 135.456 198.605" stroke="#4D545C" stroke-width="0.5" stroke-linejoin="round"/>
<path d="M167.276 37.3232L165.794 38.7368L166.776 39.2393" stroke="#4D545C" stroke-width="0.5" stroke-linejoin="round"/>
<g style="mix-blend-mode:multiply">
<path d="M151.446 94.2308L156.107 81.641L157.447 82.7723L170.003 57.5683L175.511 52.1252C179.271 54.3796 185.002 58.2925 187.147 60.1025C189.292 61.9126 187.615 71.5124 186.509 76.0861L177.021 92.0737L170.081 117.298C163.656 114.937 150.766 109.72 150.599 107.743C150.431 105.766 152.25 99.8047 153.181 97.0712L151.446 94.2308Z" fill="#EBF0FF"/>
</g>
<g style="mix-blend-mode:multiply">
<path d="M147.797 108.481L143.875 109.265L141.521 111.618C141.26 114.232 140.58 120.402 139.952 124.166C139.168 128.872 141.521 181.418 141.521 183.771C141.521 185.654 145.182 185.078 147.013 184.556L154.074 151.616L169.764 185.34L176.825 184.556C173.949 173.314 167.882 149.577 166.626 144.558C165.371 139.538 166.083 125.701 166.868 117.597C162.204 115.848 152.191 113.657 150.936 112.402C149.68 111.147 148.32 109.265 147.797 108.481Z" fill="#EBF0FF"/>
</g>
<g style="mix-blend-mode:multiply">
<path d="M146.466 64.5523C150.196 58.9564 159.29 52.8941 163.37 50.5625L152.878 79.1249L148.215 74.4617C148.681 70.7311 147.243 67.8554 146.466 66.8839V64.5523Z" fill="#EBF0FF"/>
<path d="M149.963 87.2856L145.3 82.0395C144.367 83.9048 139.86 83.2053 137.722 82.6224L142.385 88.4515L135.391 106.522C136.945 106.327 140.404 105.705 141.803 104.773C143.202 103.84 147.826 92.7261 149.963 87.2856Z" fill="#EBF0FF"/>
</g>
<defs>
<clipPath id="clip0_13691_2956">
<rect width="11.4726" height="10.8352" fill="white" transform="matrix(-1 0 0 1 13.4727 188.802)"/>
</clipPath>
<clipPath id="clip1_13691_2956">
<rect width="21.0331" height="10.8352" fill="white" transform="matrix(-1 0 0 1 58.0681 189.457)"/>
</clipPath>
</defs>
</svg>
