<svg width="60" height="60" viewBox="0 0 60 60" fill="none" xmlns="http://www.w3.org/2000/svg">
<path d="M60 30C60 37.7913 59.3296 45.2661 58.1084 52.1551C57.5693 55.1965 55.1965 57.5693 52.1551 58.1084C45.2661 59.3296 37.7913 60 30 60C22.2087 60 14.7339 59.3296 7.84494 58.1084C4.80346 57.5693 2.43074 55.1965 1.89159 52.1551C0.670413 45.2661 0 37.7913 0 30C0 22.2062 0.670829 14.7479 1.89273 7.84952C2.43186 4.80582 4.80544 2.43028 7.84909 1.89086C14.7369 0.670144 22.2102 0 30 0C37.7898 0 45.2631 0.670144 52.1509 1.89086C55.1946 2.43028 57.5681 4.80581 58.1073 7.84951C59.3292 14.7479 60 22.2062 60 30Z" fill="white"/>
<path d="M40.75 25.5L34.75 31.5L34 33.75L36.25 33L42.25 27L40.75 25.5Z" stroke="#E68205" stroke-width="1.5" stroke-linecap="round" stroke-linejoin="round"/>
<path d="M25 30L31 30" stroke="#E68205" stroke-width="1.5" stroke-linecap="round"/>
<path d="M25 25.5L34 25.5" stroke="#E68205" stroke-width="1.5" stroke-linecap="round"/>
<path d="M25 34.5L29.5 34.5" stroke="#E68205" stroke-width="1.5" stroke-linecap="round"/>
<path d="M38.5 34.5V39.25C38.5 40.3546 37.6046 41.25 36.5 41.25H21.75C20.6454 41.25 19.75 40.3546 19.75 39.25V20.75C19.75 19.6454 20.6454 18.75 21.75 18.75H36.5C37.6046 18.75 38.5 19.6454 38.5 20.75L38.5 24" stroke="#E68205" stroke-width="1.5" stroke-linecap="round"/>
</svg>
