<svg width="120" height="120" viewBox="0 0 120 120" fill="none" xmlns="http://www.w3.org/2000/svg">
<path opacity="0.3" d="M114.903 56.0682L81.4486 20.6789L80.8904 20.073L69.5468 8.09835C66.2202 4.52381 61.1246 3.14033 56.4206 4.53447C53.1801 5.41204 50.25 7.16423 47.9579 9.59518L4.13191 55.6227C-0.41789 60.2037 -1.31 67.2303 1.95322 72.7828C5.59247 79.4607 13.2626 82.9434 20.7512 81.3183C23.5161 80.6044 26.0159 79.1201 27.9535 77.0416L60.3639 43.0244L95.6191 80.3204C98.7959 84.0871 103.842 85.7677 108.673 84.6684C114.208 82.8574 118.333 78.2439 119.477 72.5868C120.943 66.6964 119.281 60.4723 115.065 56.0682" fill="url(#paint0_linear_8805_39499)"/>
<path d="M71.2031 118.938L82.092 70.2749L88.2027 71.1484L72.4058 118.938H71.2031Z" fill="white" stroke="#000A16" stroke-width="0.5"/>
<path d="M114.806 118.938L104 70.2749L97.9358 71.1484L113.612 118.938H114.806Z" fill="white" stroke="#000A16" stroke-width="0.5"/>
<path d="M115.983 64.1941C115.983 67.0868 115.34 69.3106 114.195 71.025C113.049 72.7393 111.388 73.9654 109.314 74.8384C105.151 76.5906 99.3773 76.9025 92.9399 76.9025C86.5024 76.9025 80.7282 76.5906 76.5659 74.8384C74.492 73.9654 72.8302 72.7393 71.6849 71.025C70.5395 69.3106 69.8965 67.0868 69.8965 64.1941C69.8965 61.3459 71.2004 58.7467 73.3858 56.4399C75.5727 54.1316 78.6309 52.129 82.1035 50.4846C89.0502 47.1952 97.6009 45.3643 103.995 45.3643C107.191 45.3643 109.521 45.8218 111.223 46.6709C112.917 47.5158 114.005 48.7561 114.709 50.3592C115.417 51.9711 115.739 53.9548 115.881 56.2831C115.997 58.1903 115.991 60.3108 115.986 62.6296C115.984 63.1415 115.983 63.6631 115.983 64.1941Z" fill="white" stroke="#000A16" stroke-width="0.5"/>
<path d="M80.0928 67.0308C83.7695 68.8475 94.0688 71.391 105.852 67.0308" stroke="#000A16" stroke-width="0.5"/>
<path d="M50.8498 119.748L50.8486 119.748C50.33 119.738 49.9597 119.321 50.0048 118.873L50.0048 118.873L54.3059 75.9653L57.5712 76.2567L51.3972 119.382L51.3971 119.382C51.3684 119.584 51.1762 119.754 50.9282 119.75C50.9281 119.75 50.9279 119.75 50.9278 119.75L50.8498 119.748Z" fill="white" stroke="black" stroke-width="0.5"/>
<path d="M71.3862 1.49538L71.3862 1.49537L71.3863 1.49535L71.3863 1.49535L71.4442 1.48503L71.4914 1.44993C73.2321 0.156571 76.1288 -0.450931 79.3999 1.50303C82.6707 3.45688 86.336 7.98609 89.5467 17.0058C86.845 20.7844 81.8634 22.3688 77.4799 22.9955C75.276 23.3105 73.2413 23.3809 71.7571 23.3724C71.0152 23.3682 70.4117 23.3442 69.9941 23.3214C69.7854 23.31 69.6232 23.2988 69.5135 23.2906C69.4587 23.2864 69.417 23.283 69.3892 23.2807L69.358 23.278L69.3504 23.2773L69.3486 23.2771L69.3482 23.2771L69.3249 23.526L69.3482 23.2771L69.2892 23.2716L69.2341 23.2931C68.3513 23.6373 67.6131 23.6653 66.9972 23.4689C66.3802 23.2722 65.8553 22.8406 65.4184 22.2093C64.5381 20.9372 64.049 18.9011 63.9094 16.585C63.7703 14.2775 63.9801 11.7293 64.4659 9.46284C64.9533 7.18892 65.7115 5.23106 66.6473 4.07952C67.4649 3.07369 68.6427 2.42556 69.6329 2.02789C70.1256 1.83 70.5662 1.69639 70.8832 1.61238C71.0415 1.57041 71.1686 1.54091 71.2556 1.52202C71.299 1.51258 71.3324 1.50579 71.3545 1.50142L71.3792 1.49667L71.385 1.4956L71.3862 1.49538Z" fill="white" stroke="black" stroke-width="0.5"/>
<path d="M86.6325 53.714L86.791 53.7162C86.8154 53.815 86.8488 53.952 86.8888 54.1224C86.9773 54.4997 87.0984 55.0406 87.2281 55.6936C87.4878 57.0003 87.7815 58.7519 87.9196 60.5376C88.0582 62.3277 88.0387 64.1319 87.6837 65.5529C87.3279 66.9778 86.6561 67.9465 85.541 68.2099C84.3244 68.4973 82.4298 68.5703 80.2504 68.5114C78.0779 68.4527 75.6457 68.2639 73.3663 68.0378C71.0875 67.8119 68.9643 67.5489 67.4108 67.3425C66.634 67.2393 65.9999 67.1502 65.56 67.087C65.3401 67.0553 65.1687 67.0302 65.0525 67.0129L64.9201 66.9932L64.8865 66.9881L64.878 66.9868L64.8759 66.9865L64.8754 66.9864C64.8753 66.9864 64.8753 66.9864 64.8376 67.2335L64.8753 66.9864L64.5348 66.9345L64.5909 67.2743L64.5909 67.2743L64.5909 67.2743L64.591 67.2748L64.5914 67.277L64.5929 67.2865L64.5989 67.3252C64.6042 67.3596 64.6118 67.411 64.6211 67.4779C64.6397 67.6115 64.6649 67.8071 64.6914 68.0526C64.7443 68.544 64.8018 69.2347 64.8201 70.0307C64.8568 71.6286 64.7346 73.6268 64.1169 75.289C63.7866 76.1781 63.57 77.673 63.426 79.3865C63.2812 81.1091 63.2077 83.0818 63.1739 84.9443C63.1402 86.8073 63.1461 88.5632 63.1605 89.8531C63.1677 90.4981 63.177 91.0268 63.1845 91.3943C63.1882 91.5781 63.1916 91.7215 63.1939 91.8192L63.1965 91.9222C63.169 91.987 63.1133 92.0628 63.0133 92.1472C62.8967 92.2456 62.7321 92.3452 62.5183 92.4434C62.0903 92.6398 61.5 92.8151 60.7924 92.9695C59.3798 93.2777 57.5475 93.4927 55.7253 93.642C53.9052 93.7911 52.1041 93.8739 50.7573 93.9193C50.0841 93.9421 49.5248 93.9555 49.134 93.9632C48.987 93.9661 48.8639 93.9682 48.7675 93.9697C48.7664 93.9235 48.7651 93.871 48.7637 93.8124C48.7574 93.5487 48.7487 93.1614 48.7392 92.6675C48.72 91.6796 48.6973 90.2652 48.683 88.5597C48.6544 85.1483 48.6595 80.5731 48.7944 75.9163C48.9294 71.258 49.194 66.5245 49.6832 62.7938C49.9279 60.9276 50.2277 59.3212 50.5926 58.1037C50.775 57.4949 50.9716 56.9907 51.1815 56.6026C51.3933 56.2111 51.6078 55.9582 51.816 55.826L51.816 55.826C52.2913 55.5239 53.1897 55.2492 54.4391 55.01C55.6773 54.7729 57.2261 54.5765 58.9746 54.4143C62.4709 54.0901 66.7476 53.9045 70.8989 53.8014C75.0493 53.6983 79.0704 53.6777 82.0542 53.6829C83.546 53.6854 84.7783 53.6945 85.6376 53.7028C86.0672 53.707 86.4036 53.711 86.6325 53.714Z" fill="white" stroke="black" stroke-width="0.5"/>
<g style="mix-blend-mode:multiply">
<path d="M86.4999 54C86.4999 54 56.6557 55.3588 52.4999 58C48.3441 60.6403 49.5 92.5 49.5 92.5C49.5 92.5 62.3888 92.7308 63.0291 90.6008C63.0291 90.6008 62.6646 77.4279 63.9327 74.015C65.2009 70.6022 64.419 65.8725 64.419 65.8725C64.419 65.8725 80.1762 68.2741 85.1799 67.0922C90.1836 65.9102 86.4999 54 86.4999 54Z" fill="#E5F9FF"/>
</g>
<path d="M60.518 94.9386L57.8229 98.3199C57.8313 98.343 57.8406 98.3689 57.8509 98.3974C57.899 98.5317 57.9673 98.7251 58.048 98.9626C58.2093 99.4375 58.4206 100.09 58.6203 100.798C58.8197 101.505 59.0087 102.273 59.1241 102.977C59.2382 103.674 59.2857 104.34 59.1811 104.828C59.0278 105.544 59.0445 106.553 59.0622 107.627C59.0654 107.819 59.0686 108.013 59.0709 108.208C59.0782 108.84 59.0751 109.475 59.0235 110.05C58.9723 110.622 58.8718 111.155 58.6726 111.576C58.5845 111.763 58.4897 111.956 58.393 112.154C58.0843 112.784 57.7562 113.453 57.5654 114.057C57.4403 114.453 57.3859 114.788 57.4202 115.044C57.4502 115.266 57.5447 115.423 57.7374 115.525C57.7403 115.524 57.7434 115.523 57.7467 115.522C57.7922 115.508 57.8601 115.481 57.9517 115.435C58.1332 115.344 58.3763 115.197 58.6641 115.007C59.2378 114.627 59.9668 114.084 60.6931 113.495C61.4195 112.905 62.1379 112.273 62.6921 111.713C62.9695 111.433 63.2022 111.175 63.3734 110.952C63.5501 110.721 63.6419 110.553 63.6677 110.45C63.7423 110.153 63.8144 109.702 63.8979 109.147C63.9116 109.056 63.9256 108.962 63.9399 108.866C64.012 108.383 64.0926 107.844 64.1892 107.288C64.4196 105.962 64.7462 104.508 65.2882 103.471L60.518 94.9386ZM60.518 94.9386C60.5674 95.0282 60.6261 95.1333 60.6928 95.2507C60.9152 95.6422 61.2278 96.1725 61.5885 96.7267C61.9487 97.28 62.3596 97.8614 62.7786 98.3532C63.1923 98.8387 63.6344 99.2617 64.0604 99.4691C64.7689 99.8142 65.3127 100.357 65.563 101.029C65.8115 101.697 65.7828 102.525 65.2882 103.471L60.518 94.9386ZM57.7777 115.544L57.7776 115.544L57.7777 115.544Z" fill="white" stroke="black" stroke-width="0.5"/>
<path fill-rule="evenodd" clip-rule="evenodd" d="M71.6844 18.6913C71.6074 19.1915 69.4762 33.0334 69.4762 33.6255L71.6866 26.9929L81.0122 27.8349L81.0132 27.8359C81.0132 27.8359 78.6861 34.3894 74.2999 39.0521C71.9836 41.5151 68.5138 42.7767 65.7707 43.7342C64.4326 44.2011 63.0766 44.3747 61.7348 44.1389C60.8793 43.9898 61.2514 38.9404 62.4402 35.103C63.7821 30.7755 67.555 20.9473 68.6133 18.2078C67.9935 17.449 66.988 16.1861 66.7486 15.6937C66.3964 14.9693 67.0555 11.847 67.8761 11.8668C68.1902 11.8748 68.5482 12.5747 68.9076 13.2773C69.1402 13.732 69.3734 14.1879 69.5956 14.458C69.7111 14.5985 69.9056 14.751 70.1332 14.9295C70.9775 15.5917 72.2768 16.6106 71.6844 18.6913Z" fill="white"/>
<path d="M71.6844 18.6913L71.444 18.6229L71.4397 18.6379L71.4373 18.6533L71.6844 18.6913ZM69.4762 33.6255H69.2262L69.7134 33.7045L69.4762 33.6255ZM71.6866 26.9929L71.709 26.7439L71.512 26.7261L71.4494 26.9139L71.6866 26.9929ZM81.0122 27.8349L81.1887 27.6578L81.1247 27.5941L81.0347 27.586L81.0122 27.8349ZM81.0132 27.8359L81.2488 27.9195L81.3017 27.7704L81.1896 27.6587L81.0132 27.8359ZM74.2999 39.0521L74.1178 38.8808L74.1178 38.8808L74.2999 39.0521ZM65.7707 43.7342L65.853 43.9702L65.8531 43.9702L65.7707 43.7342ZM61.7348 44.1389L61.7781 43.8926L61.7777 43.8926L61.7348 44.1389ZM62.4402 35.103L62.2014 35.029L62.2014 35.029L62.4402 35.103ZM68.6133 18.2078L68.8465 18.2979L68.8989 18.1622L68.8069 18.0496L68.6133 18.2078ZM66.7486 15.6937L66.9734 15.5844V15.5844L66.7486 15.6937ZM67.8761 11.8668L67.8824 11.6169L67.8821 11.6169L67.8761 11.8668ZM68.9076 13.2773L69.1302 13.1635V13.1635L68.9076 13.2773ZM69.5956 14.458L69.7887 14.2992L69.7887 14.2992L69.5956 14.458ZM70.1332 14.9295L70.2875 14.7328L70.1332 14.9295ZM71.4373 18.6533C71.3988 18.9034 70.8467 22.4892 70.3042 26.0867C70.033 27.8853 69.7641 29.6873 69.563 31.0768C69.4625 31.7714 69.3788 32.3637 69.3202 32.8011C69.2909 33.0197 69.2677 33.2006 69.2519 33.3367C69.2368 33.4656 69.2262 33.5707 69.2262 33.6255H69.7262C69.7262 33.6252 69.7262 33.6256 69.7262 33.6251C69.7263 33.6245 69.7263 33.6246 69.7263 33.6239C69.7263 33.6228 69.7263 33.6214 69.7264 33.6195C69.7266 33.6157 69.7268 33.6108 69.7273 33.6045C69.7281 33.5918 69.7294 33.5754 69.7313 33.555C69.7351 33.5142 69.7408 33.4607 69.7485 33.3946C69.7639 33.2627 69.7866 33.085 69.8158 32.8675C69.874 32.4327 69.9574 31.8425 70.0579 31.1484C70.2588 29.7604 70.5275 27.9596 70.7987 26.1612C71.341 22.5646 71.893 18.9794 71.9315 18.7294L71.4373 18.6533ZM69.7134 33.7045L71.9237 27.0719L71.4494 26.9139L69.2391 33.5464L69.7134 33.7045ZM71.6641 27.2419L80.9898 28.0839L81.0347 27.586L71.709 26.7439L71.6641 27.2419ZM80.8358 28.0121L80.8368 28.013L81.1896 27.6587L81.1887 27.6578L80.8358 28.0121ZM81.0132 27.8359C80.7776 27.7522 80.7776 27.7522 80.7776 27.7522C80.7776 27.7523 80.7776 27.7523 80.7775 27.7524C80.7775 27.7525 80.7774 27.7527 80.7773 27.7531C80.777 27.7538 80.7767 27.7548 80.7761 27.7563C80.7751 27.7592 80.7735 27.7637 80.7713 27.7698C80.7669 27.7819 80.7603 27.8001 80.7514 27.8241C80.7337 27.8723 80.7069 27.944 80.6712 28.0371C80.5998 28.2233 80.4927 28.4953 80.3503 28.8365C80.0656 29.519 79.6402 30.4781 79.0785 31.5821C77.954 33.7926 76.2883 36.5736 74.1178 38.8808L74.482 39.2234C76.6978 36.868 78.3887 34.0408 79.5242 31.8088C80.0925 30.6917 80.5231 29.7209 80.8118 29.029C80.9561 28.6829 81.0651 28.4065 81.1381 28.2161C81.1746 28.1209 81.2021 28.0472 81.2205 27.9971C81.2298 27.972 81.2368 27.9529 81.2415 27.9399C81.2438 27.9334 81.2456 27.9284 81.2468 27.925C81.2474 27.9233 81.2479 27.922 81.2482 27.9211C81.2484 27.9206 81.2485 27.9203 81.2486 27.92C81.2486 27.9199 81.2487 27.9198 81.2487 27.9197C81.2487 27.9196 81.2488 27.9195 81.0132 27.8359ZM74.1178 38.8808C71.8498 41.2924 68.4398 42.5378 65.6883 43.4982L65.8531 43.9702C68.5877 43.0157 72.1174 41.7377 74.482 39.2234L74.1178 38.8808ZM65.6883 43.4981C64.3817 43.9541 63.0695 44.1196 61.7781 43.8926L61.6916 44.3851C63.0838 44.6298 64.4835 44.4481 65.853 43.9702L65.6883 43.4981ZM61.7777 43.8926C61.7995 43.8964 61.7601 43.904 61.7001 43.7657C61.6447 43.6381 61.5974 43.4412 61.5651 43.1738C61.5011 42.6429 61.5034 41.8963 61.5702 41.0231C61.7035 39.2795 62.0906 37.0764 62.679 35.177L62.2014 35.029C61.601 36.967 61.2076 39.2073 61.0716 40.985C61.0037 41.8725 60.9991 42.656 61.0687 43.2337C61.1034 43.5207 61.158 43.7726 61.2414 43.9648C61.3201 44.146 61.4562 44.3441 61.6919 44.3852L61.7777 43.8926ZM62.679 35.1771C64.0177 30.8596 67.7869 21.041 68.8465 18.2979L68.3801 18.1177C67.3232 20.8536 63.5464 30.6913 62.2014 35.029L62.679 35.1771ZM68.8069 18.0496C68.4978 17.6712 68.0935 17.1683 67.7373 16.6996C67.375 16.2228 67.0803 15.8041 66.9734 15.5844L66.5238 15.8031C66.6563 16.0756 66.984 16.5347 67.3392 17.0021C67.7006 17.4776 68.109 17.9856 68.4197 18.3659L68.8069 18.0496ZM66.9734 15.5844C66.9487 15.5335 66.9242 15.4403 66.9112 15.2978C66.8986 15.1596 66.8983 14.9917 66.9103 14.8032C66.9343 14.4264 67.0064 13.9844 67.1147 13.5634C67.2234 13.1404 67.3649 12.7528 67.5214 12.4783C67.5999 12.3406 67.6756 12.243 67.7433 12.183C67.8107 12.1233 67.8519 12.1163 67.87 12.1167L67.8821 11.6169C67.6951 11.6124 67.5362 11.6986 67.4118 11.8087C67.2878 11.9185 67.1802 12.0672 67.087 12.2307C66.9001 12.5587 66.745 12.9933 66.6304 13.4389C66.5153 13.8866 66.4375 14.3598 66.4113 14.7715C66.3982 14.9773 66.3977 15.1721 66.4133 15.3432C66.4285 15.51 66.4605 15.6728 66.5238 15.8031L66.9734 15.5844ZM67.8697 12.1167C67.8576 12.1164 67.8822 12.1125 67.9488 12.1746C68.011 12.2327 68.0838 12.324 68.1661 12.4491C68.3306 12.699 68.5033 13.0359 68.6851 13.3912L69.1302 13.1635C68.9526 12.8162 68.7665 12.4518 68.5837 12.1741C68.4923 12.0354 68.3942 11.9063 68.2897 11.8089C68.1896 11.7156 68.0517 11.6212 67.8824 11.6169L67.8697 12.1167ZM68.6851 13.3912C68.9122 13.8353 69.159 14.3207 69.4025 14.6168L69.7887 14.2992C69.5878 14.055 69.3682 13.6288 69.1302 13.1635L68.6851 13.3912ZM69.4025 14.6168C69.5395 14.7834 69.7606 14.955 69.9789 15.1262L70.2875 14.7328C70.0507 14.5471 69.8827 14.4135 69.7887 14.2992L69.4025 14.6168ZM69.9789 15.1262C70.4051 15.4605 70.9038 15.8546 71.2328 16.4065C71.5537 16.9446 71.7214 17.6484 71.444 18.6229L71.9249 18.7598C72.2398 17.6536 72.0541 16.8075 71.6623 16.1504C71.2788 15.5072 70.7056 15.0607 70.2875 14.7328L69.9789 15.1262Z" fill="black"/>
<path d="M52.4859 105.718L52.4916 105.702L52.4951 105.686L56.3966 87.4666L65.9475 90.7453C65.8739 90.8783 65.7737 91.0597 65.6505 91.2834C65.3699 91.7928 64.9699 92.5223 64.492 93.4024C63.5364 95.1624 62.269 97.5255 61.0226 99.937C59.7767 102.348 58.5499 104.81 57.6766 106.768C57.2403 107.746 56.8897 108.603 56.6691 109.268C56.559 109.6 56.4788 109.89 56.4376 110.128C56.417 110.246 56.4051 110.357 56.4056 110.457C56.4061 110.554 56.4183 110.657 56.4592 110.749C56.7779 111.469 56.8429 112.234 56.5996 112.909C56.3581 113.58 55.8011 114.194 54.8122 114.598C53.7288 115.041 52.5404 115.942 51.5081 116.806C51.076 117.168 50.6665 117.528 50.3 117.85C50.2265 117.914 50.1547 117.977 50.0848 118.039C49.6626 118.409 49.3163 118.707 49.0669 118.886L49.0668 118.886C48.9806 118.948 48.802 119.017 48.5183 119.079C48.2434 119.139 47.8988 119.187 47.506 119.222C46.7211 119.292 45.7638 119.313 44.8281 119.295C43.8926 119.277 42.9855 119.222 42.3016 119.142C41.9586 119.103 41.6784 119.057 41.4809 119.01C41.3813 118.986 41.3115 118.964 41.268 118.945C41.2648 118.943 41.2619 118.942 41.2593 118.941C41.1773 118.739 41.2066 118.558 41.3274 118.369C41.4662 118.151 41.7243 117.93 42.0757 117.709C42.6121 117.37 43.2958 117.07 43.9391 116.787C44.14 116.699 44.337 116.612 44.5244 116.527C44.9482 116.334 45.3696 115.991 45.778 115.587C46.1887 115.181 46.6011 114.698 47.0041 114.21C47.1281 114.06 47.2508 113.909 47.3723 113.761C48.0527 112.929 48.6916 112.147 49.2713 111.699L49.2714 111.699C49.6666 111.393 50.0601 110.854 50.423 110.248C50.7901 109.635 51.1415 108.927 51.446 108.258C51.7509 107.588 52.0107 106.954 52.1941 106.487C52.2859 106.253 52.3587 106.062 52.4086 105.928C52.4336 105.861 52.4528 105.809 52.4659 105.773L52.4807 105.732L52.4846 105.722L52.4856 105.719L52.4858 105.718L52.4859 105.718C52.4859 105.718 52.4859 105.718 52.2506 105.634L52.4859 105.718ZM41.2775 118.982L41.2773 118.982L41.2775 118.982Z" fill="white" stroke="black" stroke-width="0.5"/>
<path d="M50.5049 90.3521L50.543 90.2693C50.6301 90.0801 50.7583 89.802 50.9224 89.447C51.2507 88.7369 51.723 87.7187 52.2985 86.4866C53.4497 84.0224 55.0141 80.7027 56.6674 77.2807C58.3208 73.8582 60.0623 70.335 61.5679 67.463C62.3207 66.0269 63.0136 64.7555 63.6063 63.7418C64.202 62.7229 64.6877 61.9799 65.0267 61.5887C65.1732 61.4198 65.4502 61.2223 65.8699 61.0034C66.2841 60.7874 66.8163 60.561 67.4525 60.3268C68.7246 59.8585 70.393 59.3656 72.3227 58.8646C76.1809 57.8628 81.0623 56.8336 85.8591 55.9063C90.655 54.9791 95.3624 54.1545 98.8711 53.5616C100.625 53.2652 102.08 53.0267 103.096 52.8623C103.603 52.7802 104.002 52.7165 104.273 52.6734L104.456 52.6445C104.472 52.7236 104.493 52.8222 104.516 52.9386C104.583 53.2742 104.674 53.7573 104.769 54.3462C104.961 55.5246 105.171 57.1235 105.247 58.809C105.323 60.4969 105.264 62.2593 104.924 63.7698C104.582 65.2858 103.967 66.5052 102.966 67.1667C101.179 68.348 98.6044 69.0907 95.7113 69.5341C92.8236 69.9766 89.6447 70.1172 86.668 70.1112C83.6923 70.1051 80.9244 69.9525 78.86 69.8101C78.1003 69.7577 77.4369 69.7067 76.8926 69.6649C76.697 69.6499 76.5167 69.6361 76.3529 69.6238C76.044 69.6006 75.7922 69.5827 75.6073 69.5729C75.515 69.5681 75.4367 69.565 75.3751 69.5645C75.3236 69.5641 75.256 69.5645 75.2033 69.5766C75.0971 69.6008 75.0309 69.6755 74.9995 69.7156C74.9617 69.7637 74.9293 69.8214 74.9009 69.8798C74.8435 69.9979 74.7844 70.1577 74.7234 70.3474C74.6006 70.7292 74.4586 71.2686 74.2988 71.9242C74.1089 72.703 73.8912 73.6575 73.6481 74.7234C73.482 75.4518 73.304 76.2321 73.115 77.044C72.181 81.0548 70.9725 85.8517 69.5517 89.1441L65.5111 97.3751C65.4825 97.3886 65.426 97.4055 65.3223 97.4088C65.1788 97.4134 64.9845 97.3906 64.7393 97.3371C64.2504 97.2302 63.6058 97.0114 62.8532 96.7092C61.3507 96.1061 59.4571 95.1871 57.5956 94.2271C55.7356 93.2679 53.9136 92.2706 52.5562 91.513C51.8776 91.1342 51.3153 90.8155 50.9229 90.5915C50.7485 90.4919 50.6076 90.4111 50.5049 90.3521Z" fill="white" stroke="black" stroke-width="0.5"/>
<g style="mix-blend-mode:multiply">
<path d="M66.5 62.5C69.3479 59.2145 98 55 98 55L104.231 53C104.231 53 107.004 63.1591 102.685 66.0144C95.3562 70.8592 75.465 68.317 74.8399 68.4595C74.2148 68.6019 72.224 81.2554 69.3599 87.8879L65.2899 96.1787C64.0506 97.3846 52 90 52 90C52 90 63.6521 65.7855 66.5 62.5Z" fill="#E5F9FF"/>
</g>
<path d="M91.8004 21.847L91.7336 21.7968C90.6865 21.0094 88.5429 20.1566 86.1364 19.733C83.7312 19.3096 81.1218 19.3257 79.1348 20.2186L91.8004 21.847ZM91.8004 21.847H91.801M91.8004 21.847H91.801M91.801 21.847C97.9918 26.5464 106.466 39.1025 106.4 61.4996C106.399 62.0548 106.211 62.4907 105.877 62.8372C105.538 63.1896 105.036 63.4619 104.39 63.6561C103.096 64.0453 101.299 64.0991 99.3247 63.9276C95.381 63.585 90.8435 62.3544 88.476 61.2729L88.4759 61.2729C88.0921 61.0976 87.6896 60.9289 87.2832 60.7584C87.2002 60.7236 87.117 60.6888 87.0338 60.6537C86.5411 60.4464 86.044 60.233 85.5561 59.9949C84.58 59.5187 83.6518 58.949 82.8911 58.1506C81.3855 56.5701 80.4794 54.0306 81.3293 49.3472L81.3295 49.3473L81.3308 49.3386C81.6361 47.2379 81.3309 45.6378 80.3796 44.3031C79.4375 42.9812 77.8833 41.9517 75.7647 40.9371L75.7177 40.9147L75.666 40.9128L75.6659 40.9128L75.6658 40.9128L75.6657 40.9128L75.6644 40.9127L75.6569 40.9124C75.6498 40.912 75.6387 40.9114 75.6239 40.9104C75.5942 40.9084 75.5494 40.9049 75.4916 40.8989C75.3758 40.887 75.2079 40.8653 75.0035 40.8264C74.594 40.7485 74.0422 40.6025 73.4706 40.3309C72.3368 39.7921 71.128 38.763 70.7814 36.7692L70.7814 36.7609L70.7813 36.6757C70.7813 36.6008 70.7815 36.4904 70.7825 36.3489C70.7844 36.0659 70.7893 35.6587 70.8011 35.1625C70.8247 34.1699 70.876 32.8226 70.9866 31.4025C71.0972 29.9813 71.2668 28.4929 71.5258 27.216C71.7876 25.9253 72.1323 24.8978 72.5669 24.3583C74.1166 22.4353 76.6091 21.3351 78.5278 20.4881C78.7377 20.3955 78.9406 20.3059 79.1347 20.2186L91.801 21.847Z" fill="white" stroke="black" stroke-width="0.5"/>
<path d="M74.4331 23.7355L74.547 23.5646L74.5197 23.5374C74.5286 23.5076 74.5364 23.4775 74.5431 23.4479C74.5672 23.3427 74.5849 23.2188 74.5972 23.0823C74.6218 22.8091 74.6264 22.4681 74.6103 22.0918C74.5783 21.3394 74.4632 20.425 74.249 19.5951C73.9993 18.6248 73.706 17.6351 73.4755 16.889C73.3602 16.5157 73.2604 16.2028 73.1894 15.9832C73.1731 15.9325 73.1582 15.8869 73.1451 15.8465L79.1375 12.9917L79.138 12.9915L79.2321 12.9469C79.8635 15.346 80.6602 17.0318 81.3522 18.2259C81.7117 18.8463 82.0419 19.3322 82.3019 19.7118L82.3193 19.7372C82.5771 20.1135 82.7441 20.3573 82.8183 20.5317L82.8184 20.5318C82.9586 20.8613 82.8849 21.3138 82.5829 21.8654C82.2857 22.4082 81.795 22.9944 81.2058 23.5515C80.6184 24.1071 79.9428 24.6247 79.286 25.0323C78.6258 25.442 77.9996 25.7315 77.5098 25.8444L77.5097 25.8444C75.9653 26.201 75.0966 25.7964 74.6695 25.2804C74.4503 25.0155 74.3346 24.708 74.3041 24.4228C74.2732 24.1334 74.3316 23.8876 74.4331 23.7355Z" fill="white" stroke="black" stroke-width="0.5"/>
<path d="M69.7687 17.5114L69.7669 17.5111C69.5917 17.4563 69.423 17.3094 69.2693 17.04C69.1138 16.7675 68.988 16.3935 68.893 15.9367C68.7032 15.0241 68.6466 13.8347 68.6799 12.6004C68.7132 11.3688 68.8356 10.1056 68.9979 9.05116C69.1619 7.9854 69.3621 7.16466 69.5393 6.79675C69.9269 5.99338 70.1981 5.71773 70.4479 5.60855C70.5745 5.55322 70.7153 5.5318 70.9022 5.52734C70.996 5.5251 71.0969 5.52715 71.2118 5.52998C71.2232 5.53026 71.2347 5.53055 71.2464 5.53084C71.2783 5.53164 71.3112 5.53247 71.3449 5.53322C71.4215 6.63453 72.0104 7.42961 72.8115 8.05924C73.5636 8.65043 74.5262 9.11344 75.4571 9.56117C75.5751 9.61797 75.6927 9.67453 75.8093 9.73107C76.8631 10.2422 77.8358 10.7522 78.483 11.4351C79.1119 12.0985 79.4376 12.9295 79.1805 14.1274C78.6673 16.5183 76.3999 17.3904 74.1234 17.641C72.9976 17.765 71.9022 17.7318 71.0862 17.667C70.6788 17.6347 70.3424 17.5946 70.1084 17.5626C69.9914 17.5467 69.9002 17.5328 69.8385 17.5229C69.8076 17.518 69.7842 17.5141 69.7687 17.5114Z" fill="white" stroke="black" stroke-width="0.5"/>
<path d="M47.878 44.5112C48.4172 44.5112 48.8687 44.8878 48.9826 45.3922H32.1631V44.5112H47.878Z" fill="white" stroke="black" stroke-width="0.5"/>
<path d="M5.74121 119.276L5.73922 119.276C5.26892 119.218 4.94651 118.802 5.00371 118.357L14.1445 47.7193L18.7688 47.8517L6.49431 118.776C6.43863 119.096 6.13222 119.325 5.79005 119.283C5.78984 119.283 5.78963 119.283 5.78942 119.283L5.74121 119.276Z" fill="white" stroke="black" stroke-width="0.5"/>
<path d="M95.2685 119.271L95.1861 119.282C94.8437 119.324 94.5369 119.095 94.4812 118.775L82.2067 47.8517L86.831 47.7193L95.9718 118.357C96.0277 118.792 95.7212 119.199 95.2685 119.271Z" fill="white" stroke="black" stroke-width="0.5"/>
<path d="M38.2176 45.392H11.7539L5.4919 27.0186H31.7855L38.2176 45.392Z" fill="white" stroke="black" stroke-width="0.5"/>
<path d="M20.8164 36.7854C20.2146 36.7854 19.592 36.2849 19.451 35.6737C19.3826 35.3771 19.4442 35.1294 19.5751 34.9593C19.7054 34.7901 19.9221 34.6743 20.213 34.6743C20.8146 34.6743 21.4366 35.1745 21.5785 35.7861C21.6469 36.0826 21.5853 36.3303 21.4544 36.5004C21.3241 36.6696 21.1074 36.7854 20.8164 36.7854Z" fill="white" stroke="black" stroke-width="0.5"/>
<path d="M4.61849 45.5908H94.8819C95.6374 45.5908 96.2504 46.2036 96.2504 46.9576V47.9707C96.2504 48.7248 95.6374 49.3375 94.8819 49.3375H4.61849C3.86303 49.3375 3.25 48.7248 3.25 47.9707V46.9576C3.25 46.2036 3.86303 45.5908 4.61849 45.5908Z" fill="white" stroke="black" stroke-width="0.5"/>
<mask id="path-25-inside-1_8805_39499" fill="white">
<path fill-rule="evenodd" clip-rule="evenodd" d="M91.1752 29.5935C90.2913 31.6979 89.2696 33.676 88.1856 35.4683C85.2158 40.3724 81.7724 43.8852 79.3865 44.771C79.272 44.8299 79.157 44.886 79.0418 44.9389C76.7706 45.9807 63.451 45.487 60.8131 45.378C60.2762 45.367 59.0321 45.3428 58.3582 45.3399C57.8547 45.3378 57.3739 45.1817 56.9347 45.039C56.3797 44.8588 55.8912 44.7001 55.5074 44.9013C54.7785 45.2843 53.3866 45.3408 52.5254 45.3493C52.2072 45.3522 52.0268 44.9871 52.2233 44.7381C52.8956 43.8835 54.1855 42.3912 55.1958 42.1035C56.3861 41.7646 60.4926 42.7979 61.8428 43.1557C64.9046 42.4094 72.0589 40.6726 77.0888 39.5094C78.0433 37.4558 79.1621 35.0317 80.2612 32.6403C82.8447 27.0249 85.3225 21.5962 85.3225 21.5962C86.111 21.5962 94.4093 21.8848 91.1742 29.5925L91.1752 29.5935Z"/>
</mask>
<path fill-rule="evenodd" clip-rule="evenodd" d="M91.1752 29.5935C90.2913 31.6979 89.2696 33.676 88.1856 35.4683C85.2158 40.3724 81.7724 43.8852 79.3865 44.771C79.272 44.8299 79.157 44.886 79.0418 44.9389C76.7706 45.9807 63.451 45.487 60.8131 45.378C60.2762 45.367 59.0321 45.3428 58.3582 45.3399C57.8547 45.3378 57.3739 45.1817 56.9347 45.039C56.3797 44.8588 55.8912 44.7001 55.5074 44.9013C54.7785 45.2843 53.3866 45.3408 52.5254 45.3493C52.2072 45.3522 52.0268 44.9871 52.2233 44.7381C52.8956 43.8835 54.1855 42.3912 55.1958 42.1035C56.3861 41.7646 60.4926 42.7979 61.8428 43.1557C64.9046 42.4094 72.0589 40.6726 77.0888 39.5094C78.0433 37.4558 79.1621 35.0317 80.2612 32.6403C82.8447 27.0249 85.3225 21.5962 85.3225 21.5962C86.111 21.5962 94.4093 21.8848 91.1742 29.5925L91.1752 29.5935Z" fill="white"/>
<path d="M88.1856 35.4683L88.6133 35.7273L88.6134 35.7271L88.1856 35.4683ZM91.1752 29.5935L91.6362 29.7871L91.7666 29.4765L91.5278 29.239L91.1752 29.5935ZM79.3865 44.771L79.2124 44.3023L79.1844 44.3127L79.1579 44.3264L79.3865 44.771ZM79.0418 44.9389L79.2502 45.3933L79.2503 45.3933L79.0418 44.9389ZM60.8131 45.378L60.8338 44.8783L60.8233 44.8781L60.8131 45.378ZM58.3582 45.3399L58.3604 44.8399L58.3603 44.8399L58.3582 45.3399ZM56.9347 45.039L56.7803 45.5146H56.7803L56.9347 45.039ZM55.5074 44.9013L55.2753 44.4584L55.2749 44.4586L55.5074 44.9013ZM52.5254 45.3493L52.5299 45.8493L52.5303 45.8493L52.5254 45.3493ZM52.2233 44.7381L52.6158 45.0477L52.6162 45.0472L52.2233 44.7381ZM55.1958 42.1035L55.0589 41.6226L55.0589 41.6226L55.1958 42.1035ZM61.8428 43.1557L61.7147 43.639L61.8376 43.6716L61.9612 43.6415L61.8428 43.1557ZM77.0888 39.5094L77.2015 39.9965L77.4393 39.9415L77.5422 39.7201L77.0888 39.5094ZM80.2612 32.6403L79.807 32.4313L79.8069 32.4315L80.2612 32.6403ZM85.3225 21.5962V21.0962H85.0011L84.8677 21.3886L85.3225 21.5962ZM91.1742 29.5925L90.7132 29.399L90.5829 29.7095L90.8216 29.947L91.1742 29.5925ZM88.6134 35.7271C89.7096 33.9148 90.7425 31.9149 91.6362 29.7871L90.7142 29.3998C89.8401 31.4809 88.8297 33.4373 87.7577 35.2095L88.6134 35.7271ZM79.5605 45.2398C80.8595 44.7574 82.38 43.593 83.9286 41.9719C85.4877 40.3399 87.1125 38.2057 88.6133 35.7273L87.7579 35.2093C86.2889 37.6351 84.7071 39.7093 83.2055 41.2811C81.6935 42.8639 80.2993 43.8988 79.2124 44.3023L79.5605 45.2398ZM79.2503 45.3933C79.3727 45.3371 79.4944 45.2778 79.6151 45.2157L79.1579 44.3264C79.0495 44.382 78.9413 44.4348 78.8332 44.4844L79.2503 45.3933ZM60.7925 45.8776C62.1135 45.9322 66.1106 46.0832 70.0641 46.09C72.04 46.0934 74.0123 46.0608 75.6369 45.9614C76.4488 45.9117 77.1811 45.8449 77.7871 45.756C78.38 45.6691 78.8972 45.5553 79.2502 45.3933L78.8333 44.4844C78.6186 44.5829 78.2227 44.6815 77.6421 44.7666C77.0747 44.8498 76.3732 44.9144 75.5758 44.9633C73.9818 45.0608 72.0334 45.0934 70.0658 45.09C66.1322 45.0832 62.1506 44.9328 60.8337 44.8784L60.7925 45.8776ZM58.3561 45.8399C59.0251 45.8428 60.2649 45.8669 60.8029 45.8779L60.8233 44.8781C60.2875 44.8671 59.0391 44.8428 58.3604 44.8399L58.3561 45.8399ZM56.7803 45.5146C57.2077 45.6534 57.762 45.8374 58.3562 45.8399L58.3603 44.8399C57.9475 44.8382 57.5402 44.7099 57.0892 44.5635L56.7803 45.5146ZM55.7396 45.3441C55.7992 45.3129 55.8953 45.2926 56.0804 45.3212C56.2722 45.3509 56.4922 45.421 56.7803 45.5146L57.0892 44.5635C56.8222 44.4768 56.5205 44.3774 56.2333 44.333C55.9395 44.2875 55.5994 44.2885 55.2753 44.4584L55.7396 45.3441ZM52.5303 45.8493C52.9671 45.845 53.5507 45.8285 54.1233 45.7624C54.6815 45.698 55.2894 45.5806 55.74 45.3439L55.2749 44.4586C54.9965 44.6049 54.5439 44.7073 54.0087 44.769C53.4878 44.8291 52.945 44.8452 52.5205 44.8494L52.5303 45.8493ZM51.8307 44.4284C51.3714 45.0108 51.7967 45.8558 52.5299 45.8493L52.521 44.8494C52.6177 44.8485 52.6823 44.9635 52.6158 45.0477L51.8307 44.4284ZM55.0589 41.6226C54.4245 41.8032 53.7727 42.3284 53.235 42.849C52.6793 43.3869 52.1731 43.9932 51.8303 44.4289L52.6162 45.0472C52.9457 44.6284 53.4206 44.0611 53.9306 43.5674C54.4585 43.0563 54.9568 42.6914 55.3328 42.5843L55.0589 41.6226ZM61.9709 42.6724C61.2918 42.4924 59.9151 42.1413 58.5546 41.8775C57.875 41.7457 57.1903 41.6338 56.5943 41.5769C56.0203 41.522 55.4559 41.5096 55.0589 41.6226L55.3327 42.5844C55.5309 42.5279 55.9262 42.5176 56.4991 42.5723C57.05 42.625 57.6996 42.7303 58.3642 42.8592C59.692 43.1167 61.0436 43.4612 61.7147 43.639L61.9709 42.6724ZM76.9762 39.0222C71.943 40.1862 64.786 41.9237 61.7244 42.6699L61.9612 43.6415C65.0233 42.8951 72.1748 41.159 77.2015 39.9965L76.9762 39.0222ZM79.8069 32.4315C78.7079 34.8225 77.5895 37.2459 76.6354 39.2986L77.5422 39.7201C78.4971 37.6657 79.6162 35.2409 80.7155 32.8491L79.8069 32.4315ZM85.3225 21.5962C84.8677 21.3886 84.8677 21.3886 84.8676 21.3886C84.8676 21.3887 84.8676 21.3887 84.8676 21.3888C84.8675 21.389 84.8674 21.3892 84.8672 21.3896C84.8669 21.3902 84.8665 21.3912 84.8659 21.3925C84.8647 21.3952 84.8629 21.3991 84.8605 21.4043C84.8557 21.4147 84.8486 21.4303 84.8392 21.4509C84.8205 21.492 84.7926 21.553 84.7562 21.6327C84.6834 21.7921 84.5765 22.026 84.4402 22.3244C84.1676 22.921 83.7772 23.7749 83.306 24.8044C82.3637 26.8633 81.0986 29.624 79.807 32.4313L80.7154 32.8493C82.0074 30.0412 83.2729 27.2798 84.2153 25.2205C84.6866 24.1909 85.0771 23.3367 85.3498 22.74C85.4861 22.4416 85.593 22.2076 85.6658 22.0481C85.7022 21.9684 85.7301 21.9073 85.7489 21.8662C85.7583 21.8456 85.7654 21.83 85.7702 21.8196C85.7726 21.8143 85.7744 21.8104 85.7756 21.8078C85.7762 21.8065 85.7766 21.8055 85.7769 21.8048C85.7771 21.8045 85.7772 21.8042 85.7773 21.8041C85.7773 21.804 85.7773 21.8039 85.7774 21.8039C85.7774 21.8038 85.7774 21.8038 85.3225 21.5962ZM91.6353 29.786C92.4724 27.7916 92.5938 26.2044 92.2142 24.9469C91.833 23.6838 90.971 22.8353 90.0098 22.2725C88.1195 21.1657 85.7325 21.0962 85.3225 21.0962V22.0962C85.701 22.0962 87.8574 22.171 89.5046 23.1355C90.3122 23.6083 90.9675 24.2771 91.2569 25.2359C91.548 26.2004 91.4936 27.5396 90.7132 29.399L91.6353 29.786ZM91.5278 29.239L91.5269 29.2381L90.8216 29.947L90.8225 29.9479L91.5278 29.239Z" fill="black" mask="url(#path-25-inside-1_8805_39499)"/>
<path d="M85.4491 21.8461C86.0949 21.8422 87.9897 21.8656 89.6348 22.7802C90.5366 23.2815 91.3591 24.0489 91.8603 25.2302C92.3627 26.4142 92.5521 28.0372 92.1438 30.2645C91.7283 32.531 91.2985 34.3592 90.2999 36.0689C88.6671 35.8305 86.5754 35.1407 84.6922 34.3992C82.9141 33.6989 81.3435 32.9613 80.5508 32.5348C81.8088 29.7999 83.0346 27.1251 83.9534 25.1176C84.4246 24.088 84.8151 23.2339 85.0877 22.6371L85.4038 21.9453L85.4491 21.8461Z" fill="white" stroke="black" stroke-width="0.5"/>
<path d="M69.4773 33.4751L68.7236 38.2988" stroke="black" stroke-width="0.5" stroke-linecap="round" stroke-linejoin="round"/>
<path d="M71.5936 13.7369L70.6641 13.4849L71.4641 10.5701M72.3635 9.53628C72.7607 9.5664 73.4577 9.2519 74.382 9.81179M71.1719 9.44591C71.0557 9.27957 70.7196 8.9128 70.3045 8.77647" stroke="#000A16" stroke-width="0.5" stroke-linecap="round" stroke-linejoin="round"/>
<path d="M73.4733 11.6209C73.3778 11.9039 73.1439 12.1273 72.9595 12.1274C72.7752 12.1275 72.6715 11.9058 72.8268 11.6168C72.9822 11.3277 73.1418 11.1141 73.3405 11.1102C73.5393 11.1064 73.5566 11.3506 73.4733 11.6209Z" fill="#000A16"/>
<path d="M70.2341 10.8255C70.1423 11.1075 69.9065 11.3442 69.7083 11.3441C69.5101 11.344 69.4189 11.12 69.5701 10.8123C69.7213 10.5045 69.9002 10.3032 70.0984 10.3033C70.2966 10.3034 70.326 10.5435 70.2341 10.8255Z" fill="#000A16"/>
<path d="M71.3509 15.6613C70.7621 15.7207 70.1902 15.5032 70.0935 15.1689C69.9968 14.8346 70.3842 14.5104 71.0517 14.5315C71.7191 14.5527 72.1949 14.7013 72.2916 15.0356C72.3883 15.3699 71.9396 15.602 71.3509 15.6613Z" fill="#000A16"/>
<defs>
<linearGradient id="paint0_linear_8805_39499" x1="60" y1="4" x2="60" y2="85" gradientUnits="userSpaceOnUse">
<stop stop-color="#F15B2B"/>
<stop offset="1" stop-color="#F15B2B" stop-opacity="0"/>
</linearGradient>
</defs>
</svg>
