<svg width="21" height="20" viewBox="0 0 21 20" fill="none" xmlns="http://www.w3.org/2000/svg">
<path d="M10.4923 0C10.1823 0 9.88233 0.16 9.73233 0.49L7.26233 5.84C7.14233 6.1 6.89233 6.29 6.60233 6.32L0.742328 7.01C0.0323276 7.09 -0.257672 7.97 0.272328 8.45L4.60233 12.45C4.81233 12.65 4.91233 12.94 4.85233 13.23L3.70233 19C3.56233 19.7 4.31233 20.24 4.93233 19.89L10.0823 17.01C10.2123 16.94 10.3523 16.9 10.4923 16.9V0Z" fill="#F7E09D"/>
<path fill-rule="evenodd" clip-rule="evenodd" d="M10.4923 15.91C10.1823 15.91 9.87233 15.99 9.59233 16.14L4.74233 18.85L5.82233 13.42C5.95233 12.79 5.73233 12.15 5.26233 11.71L1.20233 7.96L6.71233 7.31C7.34233 7.24 7.89233 6.84 8.16233 6.26L10.4923 1.23V0C10.1823 0 9.88233 0.16 9.73233 0.49L7.26233 5.84C7.14233 6.1 6.89233 6.29 6.60233 6.32L0.742328 7.01C0.0323276 7.09 -0.257672 7.97 0.272328 8.45L4.60233 12.45C4.81233 12.65 4.91233 12.94 4.85233 13.23L3.70233 19C3.56233 19.7 4.31233 20.24 4.93233 19.89L10.0823 17.01C10.2123 16.94 10.3523 16.9 10.4923 16.9V15.9V15.91Z" fill="#D49F09"/>
<path d="M10.4922 0C10.8022 0 11.1022 0.16 11.2522 0.49L13.7222 5.84C13.8422 6.1 14.0922 6.29 14.3822 6.32L20.2422 7.01C20.9522 7.09 21.2422 7.97 20.7122 8.45L16.3822 12.45C16.1722 12.65 16.0722 12.94 16.1322 13.23L17.2822 19C17.4222 19.7 16.6722 20.24 16.0522 19.89L10.9022 17.01C10.7722 16.94 10.6322 16.9 10.4922 16.9V0Z" fill="white"/>
<path fill-rule="evenodd" clip-rule="evenodd" d="M10.4922 15.91C10.8022 15.91 11.1122 15.99 11.3922 16.14L16.2422 18.85L15.1622 13.42C15.0322 12.79 15.2522 12.15 15.7222 11.71L19.7922 7.95L14.2822 7.3C13.6522 7.23 13.1022 6.83 12.8322 6.25L10.5022 1.22V0C10.8122 0 11.1122 0.16 11.2622 0.49L13.7322 5.84C13.8522 6.1 14.1022 6.29 14.3922 6.32L20.2522 7.01C20.9622 7.09 21.2522 7.97 20.7222 8.45L16.3922 12.45C16.1822 12.65 16.0822 12.94 16.1422 13.23L17.2922 19C17.4322 19.7 16.6822 20.24 16.0622 19.89L10.9122 17.01C10.7822 16.94 10.6422 16.9 10.5022 16.9V15.9L10.4922 15.91Z" fill="#3A4149"/>
</svg>
