<svg width="32" height="42" viewBox="0 0 32 42" fill="none" xmlns="http://www.w3.org/2000/svg">
<path d="M0.441895 5.376C0.441895 2.40692 2.84881 0 5.81789 0H19.8963L31.8915 12.432V36.624C31.8915 39.5931 29.4846 42 26.5155 42H5.81789C2.84881 42 0.441895 39.5931 0.441895 36.624V5.376Z" fill="#D33B35"/>
<path d="M19.8963 7.056V0L31.8915 12.432H25.2723C22.3032 12.432 19.8963 10.0251 19.8963 7.056Z" fill="#DD6F6E"/>
<path d="M7.92008 30.7493V33.4656H6.03485V25.339H8.90174C9.47437 25.339 9.9652 25.4078 10.3742 25.5454C10.787 25.6793 11.1253 25.8652 11.3894 26.1032C11.6571 26.3411 11.8542 26.6219 11.9806 26.9454C12.107 27.2689 12.1702 27.6184 12.1702 27.994C12.1702 28.3993 12.1051 28.7711 11.975 29.1095C11.8449 29.4479 11.6459 29.7379 11.3782 29.9796C11.1105 30.2213 10.7702 30.4109 10.3575 30.5485C9.94847 30.6824 9.46322 30.7493 8.90174 30.7493H7.92008ZM7.92008 29.327H8.90174C9.39257 29.327 9.74582 29.2099 9.96148 28.9756C10.1772 28.7414 10.285 28.4142 10.285 27.994C10.285 27.8081 10.2571 27.6389 10.2013 27.4864C10.1455 27.334 10.06 27.2038 9.94475 27.096C9.8332 26.9844 9.69004 26.8989 9.51528 26.8394C9.34423 26.7799 9.13972 26.7502 8.90174 26.7502H7.92008V29.327Z" fill="white"/>
<path d="M20.5221 29.3995C20.5221 29.987 20.4198 30.5299 20.2153 31.0282C20.0145 31.5227 19.73 31.9522 19.3619 32.3166C18.9938 32.6773 18.5494 32.9599 18.0289 33.1644C17.512 33.3652 16.9375 33.4656 16.3054 33.4656H13.1485V25.339H16.3054C16.9375 25.339 17.512 25.4413 18.0289 25.6458C18.5494 25.8503 18.9938 26.1329 19.3619 26.4936C19.73 26.8543 20.0145 27.2838 20.2153 27.782C20.4198 28.2766 20.5221 28.8157 20.5221 29.3995ZM18.5922 29.3995C18.5922 28.9979 18.5402 28.6354 18.436 28.3119C18.3319 27.9884 18.1813 27.7151 17.9843 27.492C17.7909 27.2652 17.5529 27.0923 17.2703 26.9733C16.9877 26.8506 16.6661 26.7892 16.3054 26.7892H15.0449V32.0154H16.3054C16.6661 32.0154 16.9877 31.9559 17.2703 31.8369C17.5529 31.7142 17.7909 31.5413 17.9843 31.3182C18.1813 31.0914 18.3319 30.8162 18.436 30.4927C18.5402 30.1692 18.5922 29.8048 18.5922 29.3995Z" fill="white"/>
<path d="M26.6595 25.339V26.7892H23.3241V28.8473H26.1018V30.3031H23.3241V33.4656H21.4277V25.339H26.6595Z" fill="white"/>
</svg>
