<svg width="16" height="16" viewBox="0 0 16 16" fill="none" xmlns="http://www.w3.org/2000/svg">
<g clip-path="url(#clip0_11404_43561)">
<rect width="16" height="16" fill="white"/>
<path fill-rule="evenodd" clip-rule="evenodd" d="M2.5 1C1.67157 1 1 1.67157 1 2.5V13.5C1 14.3284 1.67157 15 2.5 15H13.5C14.3284 15 15 14.3284 15 13.5V6H12C11.1716 6 10.5 5.32843 10.5 4.5V1H2.5ZM11.5 1.80298L14.3773 5H12C11.7239 5 11.5 4.77614 11.5 4.5V1.80298ZM0 2.5C0 1.11929 1.11929 0 2.5 0H10.7773C11.0608 0 11.331 0.120322 11.5206 0.331036L15.7433 5.0229C15.9086 5.20653 16 5.44483 16 5.69187V13.5C16 14.8807 14.8807 16 13.5 16H2.5C1.11929 16 0 14.8807 0 13.5V2.5Z" fill="#0067DD"/>
<path fill-rule="evenodd" clip-rule="evenodd" d="M7.55334 4.00319C7.54986 4.00384 7.54703 4.00449 7.54477 4.0051C7.54005 4.0136 7.53186 4.03172 7.52399 4.06505C7.48906 4.21284 7.49968 4.48816 7.602 4.90308C7.61475 4.95481 7.62866 5.00767 7.64368 5.06158C7.67711 4.676 7.66294 4.37565 7.61473 4.17277C7.59289 4.08088 7.56875 4.02921 7.55334 4.00319ZM8.32908 6.8107C8.43812 6.40661 8.52103 6.02061 8.57677 5.66281C8.67857 5.00928 8.69735 4.40328 8.58764 3.94158C8.5327 3.71037 8.4351 3.47021 8.2564 3.28578C8.06098 3.08409 7.79997 2.98284 7.51183 3.00238C7.27719 3.01829 7.05241 3.09819 6.87124 3.26376C6.69419 3.42557 6.59859 3.6328 6.55079 3.83508C6.45964 4.22082 6.51875 4.687 6.63108 5.14251C6.761 5.66937 6.98615 6.27278 7.26546 6.89371C7.00611 7.75447 6.62267 8.69791 6.12393 9.60906C5.7728 9.74543 5.43037 9.89042 5.11071 10.0408C4.46702 10.3438 3.86845 10.6902 3.48311 11.0617C3.29179 11.2461 3.11054 11.4766 3.03562 11.7517C2.95162 12.0601 3.01682 12.3699 3.22446 12.6287C3.37317 12.814 3.57048 12.9394 3.80293 12.9831C4.02413 13.0246 4.23559 12.9846 4.41465 12.9188C4.76208 12.7913 5.10035 12.5249 5.39252 12.2434C5.94238 11.7134 6.47801 10.9817 6.81513 10.4169C7.62763 10.1188 8.46453 9.87295 9.12786 9.72455C9.60774 10.1327 10.1291 10.4223 10.6182 10.599C11.0795 10.7657 11.5427 10.8432 11.9376 10.8029C12.3105 10.7649 12.7794 10.5944 12.9396 10.1116C13.055 9.76392 13.0078 9.40527 12.7708 9.11559C12.5583 8.85572 12.2375 8.70631 11.9091 8.62072C11.2948 8.46067 10.4389 8.46809 9.44038 8.64269C9.22598 8.41321 9.02946 8.14917 8.86414 7.84974C8.67264 7.50291 8.49216 7.15296 8.32908 6.8107ZM7.89149 8.15508C7.76838 8.47937 7.63111 8.80778 7.48013 9.13602C7.77773 9.04322 8.06868 8.95954 8.34435 8.88691C8.21668 8.71443 8.09737 8.52989 7.98871 8.3331C7.95608 8.274 7.92366 8.21465 7.89149 8.15508ZM10.613 9.51224C10.7296 9.569 10.8452 9.61773 10.958 9.65851C11.3251 9.79116 11.6333 9.82874 11.8362 9.80805C11.9298 9.7985 11.9767 9.78137 11.9977 9.77029C11.9995 9.76181 11.9999 9.75611 12 9.75288C11.9993 9.75187 11.9983 9.75051 11.9968 9.74875C11.9744 9.72138 11.887 9.64836 11.6569 9.58842C11.4046 9.52266 11.0533 9.49169 10.613 9.51224ZM12.0123 9.75977C12.0127 9.75999 12.011 9.762 12.0064 9.76515C12.0097 9.76111 12.012 9.75954 12.0123 9.75977ZM4.98401 11.2263C4.63175 11.4208 4.35561 11.6096 4.1771 11.7816C4.0655 11.8892 4.02169 11.9624 4.00641 11.998C4.02011 11.9957 4.04093 11.9908 4.06995 11.9801C4.21948 11.9252 4.43664 11.7758 4.69857 11.5233C4.79384 11.4315 4.88951 11.3315 4.98401 11.2263ZM7.5488 3.99886C7.54881 3.99888 7.54862 3.99914 7.54819 3.99962L7.5488 3.99886ZM7.53959 4.00673C7.53821 4.00757 7.53738 4.00788 7.53732 4.00783C7.53725 4.00777 7.53794 4.00736 7.53959 4.00673Z" fill="#0067DD"/>
</g>
<defs>
<clipPath id="clip0_11404_43561">
<rect width="16" height="16" fill="white"/>
</clipPath>
</defs>
</svg>
