<svg width="48" height="48" viewBox="0 0 48 48" fill="none" xmlns="http://www.w3.org/2000/svg">
<rect width="48" height="48" rx="24" fill="#33CDFF"/>
<path d="M21.1875 24.25C19.9219 24.25 18.9375 23.2656 18.9375 22C18.9375 20.7695 19.9219 19.75 21.1875 19.75C22.418 19.75 23.4375 20.7695 23.4375 22C23.4375 23.2656 22.418 24.25 21.1875 24.25ZM30.1875 23.4062C30.6445 23.4062 31.0312 23.793 31.0312 24.25C31.0312 24.7422 30.6445 25.0938 30.1875 25.0938H26.8125C26.3203 25.0938 25.9688 24.7422 25.9688 24.25C25.9688 23.793 26.3203 23.4062 26.8125 23.4062H30.1875ZM22.3125 25.375C23.8594 25.375 25.125 26.6406 25.125 28.1875C25.125 28.5039 24.8438 28.75 24.5625 28.75H17.8125C17.4961 28.75 17.25 28.5039 17.25 28.1875C17.25 26.6406 18.4805 25.375 20.0625 25.375H22.3125ZM30.1875 20.5938C30.6445 20.5938 31.0312 20.9805 31.0312 21.4375C31.0312 21.9297 30.6445 22.2812 30.1875 22.2812H26.8125C26.3203 22.2812 25.9688 21.9297 25.9688 21.4375C25.9688 20.9805 26.3203 20.5938 26.8125 20.5938H30.1875ZM31.875 16.375C33.1055 16.375 34.125 17.3945 34.125 18.625V29.875C34.125 31.1406 33.1055 32.125 31.875 32.125H16.125C14.8594 32.125 13.875 31.1406 13.875 29.875V18.625C13.875 17.3945 14.8594 16.375 16.125 16.375H31.875ZM32.4375 29.875V18.625C32.4375 18.3438 32.1562 18.0625 31.875 18.0625H16.125C15.8086 18.0625 15.5625 18.3438 15.5625 18.625V29.875C15.5625 30.1914 15.8086 30.4375 16.125 30.4375H31.875C32.1562 30.4375 32.4375 30.1914 32.4375 29.875Z" fill="white"/>
</svg>
