<svg width="48" height="48" viewBox="0 0 48 48" fill="none" xmlns="http://www.w3.org/2000/svg">
<rect width="48" height="48" rx="24" fill="#FFA738"/>
<path d="M21.0117 18.3789C20.6953 17.5352 19.8867 16.9375 18.9375 16.9375C17.6719 16.9375 16.6875 17.957 16.6875 19.1875C16.6875 20.1719 17.25 20.9805 18.0938 21.2969L19.4648 23.0898C19.2891 23.125 19.1133 23.125 18.9375 23.125C16.7578 23.125 15 21.3672 15 19.1875C15 17.043 16.7578 15.25 18.9375 15.25C21.082 15.25 22.875 17.043 22.875 19.1875C22.875 19.3984 22.8398 19.5742 22.8047 19.75L21.0117 18.3789ZM22.4883 20.875H25.4766L27.9375 19.0469C28.0078 18.5195 28.4648 18.0625 29.0625 18.0625C29.6602 18.0625 30.1875 18.5898 30.1875 19.1875C30.1875 19.7852 29.7305 20.2422 29.2031 20.3125L27.375 22.7734V25.7617L29.2031 28.2227C29.7305 28.293 30.1875 28.75 30.1875 29.3125C30.1875 29.9453 29.6602 30.4375 29.0625 30.4375C28.4648 30.4375 28.0078 30.0156 27.9375 29.4883L25.4766 27.625H22.4883L20.0273 29.4883C19.957 30.0156 19.5 30.4375 18.9375 30.4375C18.3047 30.4375 17.8125 29.9453 17.8125 29.3125C17.8125 28.75 18.2344 28.293 18.7617 28.2227L20.625 25.7617V22.7734L18.7617 20.3125C18.2344 20.2422 17.8125 19.7852 17.8125 19.1875C17.8125 18.5898 18.3047 18.0625 18.9375 18.0625C19.5 18.0625 19.957 18.5195 20.0273 19.0469L22.4883 20.875ZM18.9375 33.25C16.7578 33.25 15 31.4922 15 29.3125C15 27.168 16.7578 25.375 18.9375 25.375C19.1133 25.375 19.2891 25.4102 19.4648 25.4102L18.0938 27.2383C17.25 27.5547 16.6875 28.3633 16.6875 29.3125C16.6875 30.5781 17.6719 31.5625 18.9375 31.5625C19.8867 31.5625 20.6953 31 21.0117 30.1562L22.8047 28.7852C22.8398 28.9609 22.875 29.1367 22.875 29.3125C22.875 31.4922 21.082 33.25 18.9375 33.25ZM25.1602 19.75C25.125 19.5742 25.125 19.3984 25.125 19.1875C25.125 17.043 26.8828 15.25 29.0625 15.25C31.207 15.25 33 17.043 33 19.1875C33 21.3672 31.207 23.125 29.0625 23.125C28.8516 23.125 28.6758 23.125 28.5 23.0898L29.8711 21.2969C30.7148 20.9805 31.3125 20.1719 31.3125 19.1875C31.3125 17.957 30.293 16.9375 29.0625 16.9375C28.0781 16.9375 27.2695 17.5352 26.9531 18.3789L25.1602 19.75ZM25.125 29.3125C25.125 29.1367 25.125 28.9609 25.1602 28.7852L26.9531 30.1562C27.2695 31 28.0781 31.5625 29.0625 31.5625C30.293 31.5625 31.3125 30.5781 31.3125 29.3125C31.3125 28.3633 30.7148 27.5547 29.8711 27.2383L28.5 25.4102C28.6758 25.4102 28.8516 25.375 29.0625 25.375C31.207 25.375 33 27.168 33 29.3125C33 31.4922 31.207 33.25 29.0625 33.25C26.8828 33.25 25.125 31.4922 25.125 29.3125Z" fill="white"/>
</svg>
