<svg width="120" height="119" viewBox="0 0 120 119" fill="none" xmlns="http://www.w3.org/2000/svg">
<path opacity="0.3" d="M114.903 52.0682L81.4486 16.6789L80.8904 16.073L69.5468 4.09835C66.2202 0.523812 61.1246 -0.85967 56.4206 0.534467C53.1801 1.41204 50.25 3.16423 47.9579 5.59518L4.13191 51.6227C-0.41789 56.2037 -1.31 63.2303 1.95322 68.7828C5.59247 75.4607 13.2626 78.9434 20.7512 77.3183C23.5161 76.6044 26.0159 75.1201 27.9535 73.0417L60.3639 39.0244L95.6191 76.3204C98.7959 80.0871 103.842 81.7677 108.673 80.6684C114.208 78.8574 118.333 74.2439 119.477 68.5868C120.943 62.6964 119.281 56.4723 115.065 52.0682" fill="url(#paint0_linear_8768_39332)"/>
<path d="M46.4649 102.184L40.746 104.203C39.9386 108.509 43.213 111.155 44.9511 111.94L49.1562 110.258L46.4649 102.184Z" fill="white" stroke="#000A16" stroke-width="0.5" stroke-linecap="round"/>
<path d="M23.4225 110.762C24.6336 106.86 29.534 105.212 31.8328 104.875L42.4296 103.025C40.5457 108.811 44.3359 111.043 46.4665 111.435C46.2422 111.715 45.39 112.444 43.7752 113.117C41.7568 113.958 36.3743 116.649 30.1507 118.331C23.9272 120.014 21.9087 115.64 23.4225 110.762Z" fill="white" stroke="black" stroke-width="0.5" stroke-linecap="round"/>
<path d="M79.9385 114.295C78.5929 112.815 73.3225 109.08 70.8555 107.398L81.2841 102.184C83.5269 103.081 88.5842 105.38 90.8718 107.398C93.7313 109.921 92.8902 116.481 89.3579 117.659C85.8257 118.836 81.6205 116.145 79.9385 114.295Z" fill="white" stroke="black" stroke-width="0.5" stroke-linecap="round"/>
<mask id="path-5-inside-1_8768_39332" fill="white">
<path fill-rule="evenodd" clip-rule="evenodd" d="M68.9559 33.8968C73.1226 31.8881 74.2679 27.8534 71.4752 22.0604C68.6825 16.2675 63.0094 10.9099 58.8427 12.9186C58.4465 13.1096 58.078 13.3396 57.7378 13.6044C54.8298 14.0629 51.5701 16.4005 49.2706 20.0027C45.8836 25.3088 45.8626 31.3495 49.2237 33.495C51.8911 35.1977 58.5919 36.1277 62.9372 33.7871C64.9826 34.6807 67.1134 34.785 68.9559 33.8968Z"/>
</mask>
<path fill-rule="evenodd" clip-rule="evenodd" d="M68.9559 33.8968C73.1226 31.8881 74.2679 27.8534 71.4752 22.0604C68.6825 16.2675 63.0094 10.9099 58.8427 12.9186C58.4465 13.1096 58.078 13.3396 57.7378 13.6044C54.8298 14.0629 51.5701 16.4005 49.2706 20.0027C45.8836 25.3088 45.8626 31.3495 49.2237 33.495C51.8911 35.1977 58.5919 36.1277 62.9372 33.7871C64.9826 34.6807 67.1134 34.785 68.9559 33.8968Z" fill="white"/>
<path d="M71.4752 22.0604L71.0248 22.2776L71.4752 22.0604ZM68.9559 33.8968L68.7387 33.4464L68.9559 33.8968ZM58.8427 12.9186L58.6255 12.4682L58.6255 12.4682L58.8427 12.9186ZM57.7378 13.6044L57.8156 14.0983L57.9431 14.0782L58.0449 13.9989L57.7378 13.6044ZM49.2706 20.0027L48.8492 19.7337L49.2706 20.0027ZM49.2237 33.495L48.9547 33.9164L49.2237 33.495ZM62.9372 33.7871L63.1374 33.3289L62.9144 33.2315L62.7001 33.3469L62.9372 33.7871ZM71.0248 22.2776C72.3942 25.1181 72.761 27.4538 72.3381 29.2852C71.9204 31.0945 70.7124 32.495 68.7387 33.4464L69.173 34.3472C71.3661 33.2899 72.8141 31.6686 73.3125 29.5102C73.8058 27.3738 73.3489 24.7957 71.9256 21.8433L71.0248 22.2776ZM59.0598 13.369C60.877 12.493 63.1219 13.1802 65.3638 14.9558C67.583 16.7136 69.6554 19.437 71.0248 22.2776L71.9256 21.8433C70.5023 18.8909 68.3419 16.039 65.9847 14.172C63.6501 12.3228 60.975 11.3356 58.6255 12.4682L59.0598 13.369ZM58.0449 13.9989C58.3576 13.7556 58.696 13.5444 59.0598 13.369L58.6255 12.4682C58.197 12.6748 57.7984 12.9236 57.4307 13.2098L58.0449 13.9989ZM49.6921 20.2718C51.94 16.7502 55.09 14.528 57.8156 14.0983L57.6599 13.1105C54.5696 13.5977 51.2002 16.0507 48.8492 19.7337L49.6921 20.2718ZM49.4927 33.0735C48.0072 32.1253 47.2085 30.2763 47.2166 27.9358C47.2247 25.6027 48.0416 22.8574 49.6921 20.2718L48.8492 19.7337C47.1126 22.4542 46.2255 25.3822 46.2166 27.9323C46.2078 30.4751 47.0791 32.7192 48.9547 33.9164L49.4927 33.0735ZM62.7001 33.3469C60.6373 34.458 57.9782 34.8077 55.4811 34.6582C52.9771 34.5083 50.7286 33.8624 49.4927 33.0735L48.9547 33.9164C50.3862 34.8302 52.8218 35.5008 55.4213 35.6564C58.0278 35.8124 60.8918 35.4568 63.1743 34.2273L62.7001 33.3469ZM68.7387 33.4464C67.0558 34.2577 65.0808 34.178 63.1374 33.3289L62.737 34.2453C64.8843 35.1834 67.171 35.3123 69.173 34.3472L68.7387 33.4464Z" fill="black" mask="url(#path-5-inside-1_8768_39332)"/>
<path d="M91.0401 101.679C87.8106 102.89 62.5575 110.145 50.3347 113.621C46.1646 111.029 45.1647 105.975 45.1805 102.688L42.4291 103.697V103.025L37.7091 103.697C34.5132 101.847 22.6482 97.5074 23.5902 90.9138C24.7676 82.6718 30.3184 81.4944 33.346 80.9898C35.7682 80.5861 40.4106 81.4944 42.4291 81.999L58.4085 83.3446C62.3332 83.4568 72.3022 83.3446 80.7797 81.999C91.3765 80.3169 97.2637 83.1764 98.4411 90.0728C99.6186 96.9692 95.077 100.165 91.0401 101.679Z" fill="#F2F2F5"/>
<path d="M42.4291 81.999L58.4085 83.3446C62.3332 83.4568 72.3022 83.3446 80.7797 81.999C91.3765 80.3169 97.2637 83.1764 98.4411 90.0728C99.6186 96.9692 95.077 100.165 91.0401 101.679C87.8106 102.89 62.5575 110.145 50.3347 113.621C46.1646 111.029 45.1647 105.975 45.1805 102.688M42.4291 81.999C40.4106 81.4944 35.7682 80.5861 33.346 80.9898C30.3184 81.4944 24.7676 82.6718 23.5902 90.9138C22.6482 97.5074 34.5132 101.847 37.7091 103.697L42.4291 103.025V103.697L45.1805 102.688M42.4291 81.999L67.3233 91.7548M45.1805 102.688C45.1835 102.051 45.2248 101.48 45.2886 101.006C56.7265 96.1282 80.3087 86.0695 83.1345 84.8585" stroke="black" stroke-width="0.5" stroke-linecap="round"/>
<path fill-rule="evenodd" clip-rule="evenodd" d="M89.6982 74.5016C86.4831 73.4356 83.8792 71.8982 83.4971 71.1335C83.0584 70.2556 82.626 67.6805 82.0774 64.4128C80.7337 56.41 78.6925 44.2534 74.1539 42.7007C72.6474 42.1853 72.4318 41.3927 72.2438 40.7021C72.0785 40.0946 71.9347 39.5659 70.9524 39.3742C68.314 38.8593 66.4165 38.3933 65.6671 36.988C64.9293 35.6047 64.2158 33.3072 63.912 31.4929C63.7266 30.3856 62.8473 29.3553 61.7285 29.261C60.9668 29.1967 60.2773 29.5772 59.904 30.1782C59.4298 29.6325 58.6974 29.3224 57.9154 29.4296C56.6899 29.5977 55.7987 30.7414 55.6852 31.9731C55.5305 33.6527 55.0963 35.6708 54.3938 36.9878C53.5787 38.5162 51.4056 38.9336 48.398 39.5112C48.3173 39.5267 48.2359 39.5423 48.154 39.5581C47.248 39.7324 47.0719 40.3782 46.876 41.0965C46.6603 41.8879 46.4205 42.7672 45.1541 43.2005C40.6576 44.7388 38.985 56.4381 37.8617 64.2949C37.3883 67.6065 37.0124 70.2355 36.5639 71.1333C36.1817 71.898 33.5778 73.4354 30.3628 74.5013C28.5325 75.1081 27.5664 76.684 28.6147 78.3024C30.0893 80.579 32.3122 83.0714 33.5367 81.7301C34.9173 80.2179 37.2685 79.2092 39.4231 78.2849C41.5823 77.3586 43.544 76.5171 44.1334 75.3384C44.9383 73.7286 45.9003 66.4596 46.2137 60.8387C46.373 57.9803 49.2451 55.5089 52.039 56.1334L55.5766 56.9242C57.4441 57.3416 59.2411 56.3857 60.0304 54.8074C60.8197 56.3858 62.6168 57.3418 64.4843 56.9244L68.0219 56.1336C70.8158 55.5091 73.6879 57.9805 73.8473 60.8389C74.1606 66.4598 75.1227 73.7288 75.9275 75.3386C76.5169 76.5173 78.4786 77.3588 80.6378 78.2851C82.7924 79.2094 85.1436 80.2181 86.5242 81.7303C87.7487 83.0716 89.9717 80.5792 91.4463 78.3026C92.4945 76.6842 91.5284 75.1083 89.6982 74.5016Z" fill="white"/>
<path d="M83.4971 71.1335L83.7207 71.0217L83.4971 71.1335ZM89.6982 74.5016L89.6195 74.7388L89.6982 74.5016ZM82.0774 64.4128L81.8308 64.4542L82.0774 64.4128ZM74.1539 42.7007L74.2349 42.4642L74.1539 42.7007ZM72.2438 40.7021L72.0026 40.7677V40.7677L72.2438 40.7021ZM70.9524 39.3742L70.9046 39.6196L70.9524 39.3742ZM65.6671 36.988L65.8877 36.8703L65.6671 36.988ZM63.912 31.4929L64.1586 31.4516V31.4516L63.912 31.4929ZM61.7285 29.261L61.7075 29.5101L61.7285 29.261ZM59.904 30.1782L59.7153 30.3422L59.9376 30.598L60.1164 30.3101L59.904 30.1782ZM57.9154 29.4296L57.9493 29.6773L57.9154 29.4296ZM55.6852 31.9731L55.4363 31.9502V31.9502L55.6852 31.9731ZM54.3938 36.9878L54.6144 37.1054L54.3938 36.9878ZM48.398 39.5112L48.3509 39.2657H48.3508L48.398 39.5112ZM48.154 39.5581L48.2012 39.8036L48.154 39.5581ZM46.876 41.0965L47.1172 41.1623L46.876 41.0965ZM45.1541 43.2005L45.0731 42.9639L45.1541 43.2005ZM37.8617 64.2949L37.6143 64.2595L37.8617 64.2949ZM36.5639 71.1333L36.3402 71.0215L36.5639 71.1333ZM30.3628 74.5013L30.4414 74.7386H30.4414L30.3628 74.5013ZM28.6147 78.3024L28.8245 78.1665L28.6147 78.3024ZM33.5367 81.7301L33.352 81.5616L33.5367 81.7301ZM39.4231 78.2849L39.3246 78.0552L39.4231 78.2849ZM44.1334 75.3384L44.357 75.4502L44.1334 75.3384ZM46.2137 60.8387L45.9641 60.8248L46.2137 60.8387ZM52.039 56.1334L52.0936 55.8894L52.039 56.1334ZM55.5766 56.9242L55.5221 57.1681L55.5766 56.9242ZM60.0304 54.8074L60.254 54.6956L60.0304 54.2484L59.8068 54.6956L60.0304 54.8074ZM64.4843 56.9244L64.4298 56.6804L64.4843 56.9244ZM68.0219 56.1336L67.9674 55.8896L68.0219 56.1336ZM73.8473 60.8389L74.0969 60.825L73.8473 60.8389ZM75.9275 75.3386L76.1511 75.2268L75.9275 75.3386ZM80.6378 78.2851L80.7363 78.0554L80.6378 78.2851ZM86.5242 81.7303L86.7089 81.5618L86.5242 81.7303ZM91.4463 78.3026L91.6561 78.4385L91.4463 78.3026ZM83.2734 71.2452C83.3961 71.4908 83.6708 71.7594 84.0224 72.0305C84.3832 72.3086 84.8562 72.6125 85.4136 72.923C86.5289 73.5443 87.9981 74.2013 89.6195 74.7388L89.7768 74.2643C88.1831 73.7359 86.7429 73.0912 85.6569 72.4862C85.1137 72.1835 84.6631 71.893 84.3277 71.6345C83.9831 71.3688 83.789 71.1585 83.7207 71.0217L83.2734 71.2452ZM81.8308 64.4542C82.1049 66.0867 82.3509 67.5516 82.5833 68.7182C82.8134 69.873 83.0364 70.7709 83.2734 71.2452L83.7207 71.0217C83.5191 70.6182 83.3066 69.7896 83.0737 68.6205C82.8431 67.463 82.5985 66.0066 82.3239 64.3714L81.8308 64.4542ZM74.073 42.9372C75.1212 43.2958 76.0606 44.2821 76.9009 45.7472C77.7374 47.2059 78.4535 49.1 79.0739 51.2085C80.3145 55.4251 81.1584 60.4495 81.8308 64.4542L82.3239 64.3714C81.6526 60.3733 80.8041 55.318 79.5536 51.0674C78.9284 48.9424 78.1992 47.006 77.3346 45.4985C76.4737 43.9975 75.456 42.8819 74.2349 42.4642L74.073 42.9372ZM72.0026 40.7677C72.0957 41.11 72.2066 41.5261 72.5055 41.9186C72.8081 42.3158 73.2848 42.6676 74.073 42.9372L74.2349 42.4642C73.5166 42.2184 73.1322 41.9162 72.9033 41.6156C72.6708 41.3104 72.5798 40.9848 72.4851 40.6365L72.0026 40.7677ZM70.9046 39.6196C71.3524 39.707 71.5734 39.8627 71.7067 40.0351C71.8504 40.221 71.9173 40.4542 72.0026 40.7677L72.4851 40.6365C72.4051 40.3425 72.3174 40.0076 72.1023 39.7293C71.8768 39.4376 71.5347 39.2331 71.0003 39.1289L70.9046 39.6196ZM65.4465 37.1056C65.8602 37.8814 66.5832 38.3797 67.5091 38.7473C68.4318 39.1137 69.588 39.3627 70.9046 39.6196L71.0003 39.1289C69.6784 38.8709 68.5667 38.6293 67.6936 38.2826C66.8238 37.9372 66.2234 37.4999 65.8877 36.8703L65.4465 37.1056ZM63.6654 31.5342C63.9724 33.3677 64.6928 35.6925 65.4465 37.1056L65.8877 36.8703C65.1658 35.5168 64.4591 33.2467 64.1586 31.4516L63.6654 31.5342ZM61.7075 29.5101C62.6834 29.5924 63.4936 30.5081 63.6654 31.5342L64.1586 31.4516C63.9596 30.2632 63.0111 29.1183 61.7495 29.0118L61.7075 29.5101ZM60.1164 30.3101C60.4424 29.7852 61.0437 29.4541 61.7075 29.5101L61.7495 29.0118C60.8899 28.9393 60.1122 29.3692 59.6916 30.0463L60.1164 30.3101ZM60.0927 30.0143C59.566 29.4082 58.7514 29.0627 57.8814 29.182L57.9493 29.6773C58.6435 29.5821 59.2935 29.8568 59.7153 30.3422L60.0927 30.0143ZM57.8814 29.182C56.5161 29.3692 55.5579 30.6294 55.4363 31.9502L55.9342 31.996C56.0394 30.8534 56.8637 29.8262 57.9493 29.6773L57.8814 29.182ZM55.4363 31.9502C55.2829 33.6158 54.853 35.5957 54.1733 36.8701L54.6144 37.1054C55.3396 35.7458 55.7782 33.6897 55.9342 31.996L55.4363 31.9502ZM54.1733 36.8701C53.8081 37.5549 53.1296 38.0122 52.1334 38.3708C51.1347 38.7303 49.8613 38.9756 48.3509 39.2657L48.4452 39.7567C49.9423 39.4692 51.2592 39.2169 52.3028 38.8413C53.3488 38.4647 54.1645 37.9491 54.6144 37.1054L54.1733 36.8701ZM48.3508 39.2657C48.2701 39.2812 48.1887 39.2968 48.1068 39.3126L48.2012 39.8036C48.2831 39.7878 48.3644 39.7722 48.4452 39.7567L48.3508 39.2657ZM48.1068 39.3126C47.5904 39.4119 47.2608 39.6539 47.0406 39.9848C46.8322 40.2979 46.7301 40.6813 46.6348 41.0308L47.1172 41.1623C47.2178 40.7935 47.3018 40.4948 47.4568 40.2618C47.6001 40.0466 47.8116 39.8785 48.2012 39.8036L48.1068 39.3126ZM46.6348 41.0308C46.5255 41.4319 46.4201 41.8109 46.2002 42.1455C45.9868 42.4699 45.6563 42.7644 45.0731 42.9639L45.235 43.437C45.9182 43.2033 46.3409 42.8415 46.6179 42.4202C46.8884 42.0089 47.0108 41.5525 47.1172 41.1623L46.6348 41.0308ZM45.0731 42.9639C43.8627 43.378 42.8757 44.462 42.0577 45.9181C41.2366 47.3796 40.5645 49.254 40.0018 51.3123C38.8763 55.4294 38.1754 60.3347 37.6143 64.2595L38.1092 64.3303C38.6714 60.3983 39.3684 55.5255 40.4841 51.4442C41.042 49.4032 41.7013 47.5733 42.4936 46.163C43.2889 44.7473 44.1972 43.7921 45.235 43.437L45.0731 42.9639ZM37.6143 64.2595C37.3773 65.9168 37.1656 67.3973 36.9573 68.5758C36.7467 69.7668 36.5454 70.6109 36.3402 71.0215L36.7875 71.245C37.0309 70.7578 37.2418 69.8386 37.4497 68.6628C37.6598 67.4744 37.8727 65.9847 38.1092 64.3303L37.6143 64.2595ZM36.3402 71.0215C36.2719 71.1583 36.0778 71.3686 35.7332 71.6343C35.3978 71.8928 34.9473 72.1833 34.404 72.486C33.318 73.091 31.8778 73.7357 30.2841 74.264L30.4414 74.7386C32.0628 74.2011 33.532 73.5441 34.6473 72.9228C35.2047 72.6122 35.6777 72.3084 36.0385 72.0303C36.3901 71.7592 36.6648 71.4906 36.7875 71.245L36.3402 71.0215ZM30.2841 74.264C29.3243 74.5823 28.5628 75.1637 28.1861 75.9098C27.8034 76.6679 27.8366 77.5609 28.4048 78.4383L28.8245 78.1665C28.3445 77.4254 28.3366 76.7213 28.6325 76.1352C28.9343 75.5371 29.571 75.0272 30.4414 74.7386L30.2841 74.264ZM28.4048 78.4383C29.1471 79.5843 30.0878 80.8014 31.01 81.5654C31.4691 81.9459 31.9462 82.2332 32.4094 82.3257C32.8922 82.4221 33.3516 82.3036 33.7213 81.8987L33.352 81.5616C33.1095 81.8272 32.8319 81.9002 32.5074 81.8354C32.1634 81.7667 31.7629 81.54 31.329 81.1804C30.4649 80.4645 29.5568 79.2971 28.8245 78.1665L28.4048 78.4383ZM33.7213 81.8987C34.3846 81.1722 35.2899 80.5577 36.3086 80.007C37.3266 79.4566 38.4424 78.9777 39.5217 78.5147L39.3246 78.0552C38.2493 78.5165 37.1122 79.0041 36.0708 79.5671C35.03 80.1298 34.0694 80.7758 33.352 81.5616L33.7213 81.8987ZM39.5217 78.5147C40.5975 78.0531 41.6418 77.6055 42.4904 77.1237C43.3322 76.6457 44.0271 76.1099 44.357 75.4502L43.9098 75.2266C43.6503 75.7455 43.0697 76.2198 42.2435 76.6889C41.4241 77.1541 40.4079 77.5904 39.3246 78.0552L39.5217 78.5147ZM44.357 75.4502C44.5745 75.0152 44.7907 74.2293 44.9986 73.2353C45.2084 72.2323 45.4149 70.9911 45.6055 69.6273C45.9867 66.8996 46.3062 63.6702 46.4633 60.8526L45.9641 60.8248C45.8078 63.6282 45.4896 66.8437 45.1103 69.5581C44.9206 70.9154 44.716 72.1446 44.5092 73.1329C44.3006 74.1303 44.0947 74.8566 43.9098 75.2266L44.357 75.4502ZM46.4633 60.8526C46.5386 59.5019 47.2569 58.2314 48.2975 57.3728C49.3375 56.5146 50.6772 56.0852 51.9845 56.3774L52.0936 55.8894C50.607 55.5571 49.1136 56.0511 47.9793 56.9871C46.8455 57.9227 46.0481 59.3172 45.9641 60.8248L46.4633 60.8526ZM51.9845 56.3774L55.5221 57.1681L55.6312 56.6802L52.0936 55.8894L51.9845 56.3774ZM55.5221 57.1681C57.507 57.6118 59.4159 56.5951 60.254 54.9192L59.8068 54.6956C59.0663 56.1763 57.3811 57.0713 55.6312 56.6802L55.5221 57.1681ZM64.4298 56.6804C62.6797 57.0716 60.9944 56.1764 60.254 54.6956L59.8068 54.9192C60.6449 56.5953 62.5538 57.6121 64.5388 57.1683L64.4298 56.6804ZM67.9674 55.8896L64.4298 56.6804L64.5388 57.1683L68.0764 56.3776L67.9674 55.8896ZM74.0969 60.825C74.0128 59.3174 73.2155 57.9229 72.0817 56.9873C70.9473 56.0513 69.454 55.5573 67.9674 55.8896L68.0764 56.3776C69.3837 56.0854 70.7234 56.5148 71.7634 57.373C72.804 58.2316 73.5223 59.5021 73.5976 60.8528L74.0969 60.825ZM76.1511 75.2268C75.9662 74.8568 75.7603 74.1305 75.5517 73.1331C75.345 72.1449 75.1404 70.9156 74.9507 69.5583C74.5713 66.8439 74.2531 63.6284 74.0969 60.825L73.5976 60.8528C73.7547 63.6704 74.0742 66.8998 74.4555 69.6275C74.6461 70.9913 74.8525 72.2325 75.0623 73.2355C75.2702 74.2295 75.4865 75.0154 75.7039 75.4504L76.1511 75.2268ZM80.7363 78.0554C79.653 77.5906 78.6368 77.1543 77.8174 76.6891C76.9912 76.22 76.4106 75.7457 76.1511 75.2268L75.7039 75.4504C76.0338 76.1101 76.7287 76.6459 77.5705 77.1239C78.4191 77.6057 79.4634 78.0533 80.5392 78.5149L80.7363 78.0554ZM86.7089 81.5618C85.9915 80.776 85.0309 80.1301 83.9902 79.5674C82.9488 79.0043 81.8117 78.5167 80.7363 78.0554L80.5392 78.5149C81.6185 78.9779 82.7343 79.4568 83.7524 80.0072C84.771 80.558 85.6764 81.1724 86.3396 81.8989L86.7089 81.5618ZM91.2364 78.1667C90.5041 79.2973 89.5961 80.4647 88.732 81.1806C88.298 81.5402 87.8976 81.7669 87.5536 81.8356C87.2291 81.9004 86.9514 81.8274 86.7089 81.5618L86.3396 81.8989C86.7093 82.3038 87.1687 82.4223 87.6515 82.3259C88.1148 82.2334 88.5918 81.9461 89.051 81.5657C89.9731 80.8016 90.9138 79.5845 91.6561 78.4385L91.2364 78.1667ZM89.6195 74.7388C90.4899 75.0274 91.1266 75.5373 91.4285 76.1354C91.7243 76.7215 91.7164 77.4256 91.2364 78.1667L91.6561 78.4385C92.2244 77.5611 92.2575 76.6681 91.8748 75.9101C91.4981 75.1639 90.7366 74.5825 89.7768 74.2643L89.6195 74.7388Z" fill="black"/>
<path d="M25.1283 74.6657C28.3242 73.9929 33.2022 75.5067 34.0432 77.357C34.8842 79.2072 34.3796 82.5713 32.193 83.9169C30.0063 85.2625 20.5869 84.4215 19.9141 82.0667C19.5481 80.7859 20.6128 80.4692 21.5963 80.3976C21.0356 80.1129 19.7124 79.4427 18.905 79.039C18.5643 78.8686 18.2811 78.5449 18.1266 78.1584C17.4903 76.5667 19.9908 76.9929 21.6852 77.2531C22.1412 77.3231 22.6072 77.2716 23.0424 77.0205C23.1573 76.6001 23.3152 76.1962 23.5309 75.8431C23.8854 75.2629 24.396 74.8199 25.1283 74.6657Z" fill="white"/>
<path d="M21.5963 80.3976C20.6128 80.4692 19.5481 80.7859 19.9141 82.0667C20.5869 84.4215 30.0063 85.2625 32.193 83.9169C34.3796 82.5713 34.8842 79.2072 34.0432 77.357C33.2022 75.5067 28.3242 73.9929 25.1283 74.6657C24.396 74.8199 23.8854 75.2629 23.5309 75.8431C23.3152 76.1962 23.1573 76.6001 23.0424 77.0205M21.5963 80.3976C22.0594 80.3639 22.5045 80.3846 22.7737 80.3846C22.7435 79.7799 22.6871 78.321 23.0424 77.0205M21.5963 80.3976C21.0356 80.1129 19.7124 79.4427 18.905 79.039C18.5643 78.8686 18.2811 78.5449 18.1266 78.1584C17.4903 76.5667 19.9908 76.9929 21.6852 77.2531C22.1412 77.3231 22.6072 77.2716 23.0424 77.0205" stroke="black" stroke-width="0.5"/>
<path d="M23.2784 83.9171C20.8562 82.706 21.0918 80.553 22.7738 80.3848C23.0541 80.3848 23.4466 81.0576 24.7923 81.394" stroke="black" stroke-width="0.5" stroke-linecap="round"/>
<path d="M26.4151 84.4219C23.993 83.2109 24.2285 81.0579 25.9105 80.8896C26.1908 80.8896 26.6405 81.7307 27.9862 81.8989" stroke="black" stroke-width="0.5" stroke-linecap="round"/>
<path d="M29.7823 84.4219C27.3601 83.2109 27.5957 81.0579 29.2777 80.8896C29.558 80.8896 30.0077 81.8989 31.4644 82.0671" stroke="black" stroke-width="0.5" stroke-linecap="round"/>
<path d="M94.1412 74.6657C90.9453 73.9929 86.0673 75.5067 85.2263 77.357C84.3853 79.2072 84.8899 82.5713 87.0766 83.9169C89.2632 85.2625 98.6827 84.4215 99.3555 82.0667C99.7214 80.7859 98.6567 80.4692 97.6732 80.3976C98.2339 80.1129 99.5571 79.4427 100.365 79.039C100.705 78.8686 100.988 78.5449 101.143 78.1584C101.779 76.5667 99.2787 76.9929 97.5843 77.2531C97.1283 77.3231 96.6624 77.2716 96.2271 77.0205C96.1122 76.6001 95.9543 76.1962 95.7386 75.8431C95.3841 75.2629 94.8735 74.8199 94.1412 74.6657Z" fill="white"/>
<path d="M97.6732 80.3976C98.6567 80.4692 99.7214 80.7859 99.3555 82.0667C98.6827 84.4215 89.2632 85.2625 87.0766 83.9169C84.8899 82.5713 84.3853 79.2072 85.2263 77.357C86.0673 75.5067 90.9453 73.9929 94.1412 74.6657C94.8735 74.8199 95.3841 75.2629 95.7386 75.8431C95.9543 76.1962 96.1122 76.6001 96.2271 77.0205M97.6732 80.3976C97.2101 80.3639 96.765 80.3846 96.4958 80.3846C96.526 79.7799 96.5824 78.321 96.2271 77.0205M97.6732 80.3976C98.2339 80.1129 99.5571 79.4427 100.365 79.039C100.705 78.8686 100.988 78.5449 101.143 78.1584C101.779 76.5667 99.2787 76.9929 97.5843 77.2531C97.1283 77.3231 96.6624 77.2716 96.2271 77.0205" stroke="black" stroke-width="0.5"/>
<path d="M95.9912 83.9175C98.4133 82.7065 98.1778 80.5535 96.4958 80.3853C96.2154 80.3853 95.8229 81.0581 94.4773 81.3945" stroke="black" stroke-width="0.5" stroke-linecap="round"/>
<path d="M92.8535 84.4219C95.2756 83.2109 95.0401 81.0579 93.3581 80.8896C93.0777 80.8896 92.628 81.7307 91.2824 81.8989" stroke="black" stroke-width="0.5" stroke-linecap="round"/>
<path d="M89.4873 84.4219C91.9094 83.2109 91.6739 81.0579 89.9919 80.8896C89.7115 80.8896 89.2618 81.8989 87.8051 82.0671" stroke="black" stroke-width="0.5" stroke-linecap="round"/>
<path d="M67.8805 24.3963C67.8805 27.2875 66.9945 30.0644 65.6069 32.1128C64.2158 34.1664 62.3496 35.4507 60.3973 35.4507C58.44 35.4507 56.4391 34.1606 54.915 32.1042C53.3953 30.0538 52.3809 27.2794 52.3809 24.3963C52.3809 23.3814 52.5032 22.6393 52.7377 22.0709C52.9696 21.5087 53.3166 21.1031 53.792 20.7679C54.274 20.4281 54.8894 20.1594 55.6615 19.8792C56.0379 19.7425 56.4469 19.6048 56.892 19.4548L56.9218 19.4448C57.3203 19.3105 57.7466 19.1668 58.1997 19.0066C59.0743 20.4866 60.128 21.2469 61.2291 21.6185C62.3618 22.0007 63.5248 21.9636 64.5322 21.9204C64.5707 21.9188 64.6089 21.9171 64.6469 21.9155C65.1123 21.8953 65.5384 21.8768 65.9255 21.8964C66.3436 21.9174 66.6919 21.9823 66.9721 22.1223C67.4964 22.3845 67.8805 22.9652 67.8805 24.3963Z" fill="white" stroke="black" stroke-width="0.5"/>
<path d="M58.6484 30.5581C59.0168 31.256 60.3627 32.4076 61.6484 30.5581" stroke="black" stroke-width="0.5" stroke-linecap="round"/>
<path d="M55.7324 26.5962C56.0484 27.0151 57.2025 27.7065 58.3051 26.5962" stroke="black" stroke-width="0.5" stroke-linecap="round"/>
<path d="M62.0791 26.5962C62.395 27.0151 63.5492 27.7065 64.6518 26.5962" stroke="black" stroke-width="0.5" stroke-linecap="round"/>
<path d="M43.1551 42.7071C45.5893 40.0024 45.4829 40.0158 50.8654 38.502C51.5382 39.9037 54.2631 42.7071 59.7802 42.7071C61.9669 42.7631 66.7775 42.0006 68.5268 38.502C72.1152 39.0066 76.9431 42.6438 78.1542 45.2005C79.668 48.3964 83.497 56.1634 84.8427 65.4146C84.282 66.1996 81.344 68.005 74.0776 68.9469L72.1043 60.2001C72.0311 65.2384 72.4553 72.7913 74.0776 83.0761C61.9669 86.5747 52.3792 85.2628 45.4829 82.4033C47.581 74.4019 47.7154 66.535 47.1826 60.9102C47.0085 62.7708 46.4247 66.983 45.4829 68.9469C38.7547 68.5432 35.5027 66.4239 34.7178 65.4146C36.0073 58.0697 40.1274 46.0711 43.1551 42.7071Z" fill="white"/>
<path d="M46.155 53.7003C46.5725 55.1342 46.9282 58.224 47.1826 60.9102M72.783 53.1163C72.4734 54.2051 72.1575 56.5386 72.1043 60.2001M47.1826 60.9102C47.7154 66.535 47.581 74.4019 45.4829 82.4033C52.3792 85.2628 61.9669 86.5747 74.0776 83.0761C72.4553 72.7913 72.0311 65.2384 72.1043 60.2001M47.1826 60.9102C47.0085 62.7708 46.4247 66.983 45.4829 68.9469C38.7547 68.5432 35.5027 66.4239 34.7178 65.4146C36.0073 58.0697 40.1274 46.0711 43.1551 42.7071C45.5893 40.0024 45.4829 40.0158 50.8654 38.502C51.5382 39.9037 54.2631 42.7071 59.7802 42.7071C61.9669 42.7631 66.7775 42.0006 68.5268 38.502C72.1152 39.0066 76.9431 42.6438 78.1542 45.2005C79.668 48.3964 83.497 56.1634 84.8427 65.4146C84.282 66.1996 81.344 68.005 74.0776 68.9469L72.1043 60.2001" stroke="black" stroke-width="0.5" stroke-linecap="round"/>
<g style="mix-blend-mode:multiply">
<path d="M44.0796 44.0539C46.4107 41.4464 46.3087 41.4594 51.4631 40C52.1074 41.3513 54.7168 44.0539 60 44.0539C62.094 44.1079 66.7007 43.3728 68.3758 40C71.8121 40.4865 76.4353 43.9929 77.5951 46.4577C79.0447 49.5386 82.7114 57.0263 84 65.9449C83.4631 66.7016 80.6497 68.4421 73.6913 69.3501L71.8016 60.9179C71.7315 65.775 72.1378 73.0563 73.6913 82.9712C62.094 86.344 52.9128 85.0792 46.3087 82.3225C48.3179 74.6089 48.4466 67.0249 47.9364 61.6024C47.7697 63.3961 47.2107 67.4568 46.3087 69.3501C39.8658 68.9609 36.7517 66.9178 36 65.9449C37.2349 58.8641 41.1803 47.297 44.0796 44.0539Z" fill="#F1FAE8"/>
</g>
<defs>
<linearGradient id="paint0_linear_8768_39332" x1="60" y1="0" x2="60" y2="81" gradientUnits="userSpaceOnUse">
<stop stop-color="#F15B2B"/>
<stop offset="1" stop-color="#F15B2B" stop-opacity="0"/>
</linearGradient>
</defs>
</svg>
