<svg width="48" height="48" viewBox="0 0 48 48" fill="none" xmlns="http://www.w3.org/2000/svg">
<rect width="48" height="48" rx="24" fill="#A16CF6"/>
<path d="M38.2031 18.4219C38.6719 18.6094 39 19.0312 39 19.5C39 20.0156 38.6719 20.4375 38.2031 20.625L24.9844 25.3594C24.6562 25.4531 24.3281 25.5 24 25.5C23.625 25.5 23.2969 25.4531 22.9688 25.3594L14.0625 22.1719C13.5 22.7812 13.0781 23.5312 12.8906 24.375C13.2188 24.6094 13.5 25.0312 13.5 25.5C13.5 25.9688 13.2656 26.3906 12.9375 26.6719L14.0625 33.6562C14.1562 34.125 13.7812 34.5 13.3594 34.5H10.5938C10.1719 34.5 9.79688 34.125 9.89062 33.6562L11.0156 26.6719C10.6875 26.3906 10.5 25.9688 10.5 25.5C10.5 24.8906 10.875 24.375 11.3906 24.1406C11.5781 23.2031 12 22.3594 12.5625 21.6094L9.75 20.625C9.28125 20.4375 9 20.0156 9 19.5C9 19.0312 9.28125 18.6094 9.75 18.4219L22.9688 13.6875C23.2969 13.5938 23.625 13.5 24 13.5C24.3281 13.5 24.6562 13.5938 24.9375 13.6875L38.2031 18.4219ZM24.2344 23.25L34.5938 19.5L24.1875 15.7969C24.0938 15.7969 23.9062 15.75 23.7188 15.7969L13.3594 19.5L14.8594 20.0625L23.7656 17.2969C24.1406 17.1562 24.5625 17.3906 24.7031 17.8125C24.7969 18.1875 24.6094 18.6094 24.1875 18.75L17.2031 20.9062L23.7656 23.25C23.8125 23.25 24 23.2969 24.2344 23.25ZM30.1875 25.0781L32.3438 24.3281L32.9531 30.2344C33 33.0938 28.4531 34.5 24 34.5C19.5 34.5 15 33.0938 15 30.2344L15.6094 24.3281L17.7656 25.0781L17.25 30.3281C17.25 30.8438 19.5469 32.25 24 32.25C28.4062 32.25 30.75 30.8438 30.75 30.3281L30.1875 25.0781Z" fill="white"/>
</svg>
