<svg width="48" height="49" viewBox="0 0 48 49" fill="none" xmlns="http://www.w3.org/2000/svg">
<rect y="0.5" width="48" height="48" rx="24" fill="#7C9EFD"/>
<path d="M17.75 27.5C18.8177 27.474 19.7031 27.1094 20.4062 26.4062C21.1094 25.7031 21.474 24.8177 21.5 23.75C21.474 22.6823 21.1094 21.7969 20.4062 21.0938C19.7031 20.3906 18.8177 20.026 17.75 20C16.6823 20.026 15.7969 20.3906 15.0938 21.0938C14.3906 21.7969 14.026 22.6823 14 23.75C14.026 24.8177 14.3906 25.7031 15.0938 26.4062C15.7969 27.1094 16.6823 27.474 17.75 27.5ZM17.75 21.875C18.2708 21.901 18.7135 22.0833 19.0781 22.4219C19.4167 22.7865 19.599 23.2292 19.625 23.75C19.599 24.2708 19.4167 24.7135 19.0781 25.0781C18.7135 25.4167 18.2708 25.599 17.75 25.625C17.2292 25.599 16.7865 25.4167 16.4219 25.0781C16.0833 24.7135 15.901 24.2708 15.875 23.75C15.901 23.2292 16.0833 22.7865 16.4219 22.4219C16.7865 22.0833 17.2292 21.901 17.75 21.875ZM19 28.75H16.5C15.0938 28.776 13.9089 29.2578 12.9453 30.1953C12.0078 31.1589 11.526 32.3438 11.5 33.75C11.5 34.1146 11.6172 34.4141 11.8516 34.6484C12.0859 34.8828 12.3854 35 12.75 35H22.75C23.1146 35 23.4141 34.8828 23.6484 34.6484C23.8828 34.4141 24 34.1146 24 33.75C23.974 32.3438 23.4922 31.1589 22.5547 30.1953C21.5911 29.2578 20.4062 28.776 19 28.75ZM13.4531 33.125C13.6094 32.3958 13.9609 31.7969 14.5078 31.3281C15.0547 30.8854 15.7188 30.651 16.5 30.625H19C19.7812 30.651 20.4453 30.8854 20.9922 31.3281C21.5391 31.7969 21.8906 32.3958 22.0469 33.125H13.4531ZM34.3125 15H19.9375C19.3125 15.026 18.7917 15.2344 18.375 15.625C17.9844 16.0417 17.776 16.5625 17.75 17.1875V18.125C17.8021 18.6979 18.1146 19.0104 18.6875 19.0625C19.2604 19.0104 19.5729 18.6979 19.625 18.125V17.1875C19.651 17.0052 19.7552 16.901 19.9375 16.875H34.3125C34.4948 16.901 34.599 17.0052 34.625 17.1875V29.0625C34.599 29.2448 34.4948 29.349 34.3125 29.375H25.25C24.6771 29.4271 24.3646 29.7396 24.3125 30.3125C24.3646 30.8854 24.6771 31.1979 25.25 31.25H34.3125C34.9375 31.224 35.4583 31.0156 35.875 30.625C36.2656 30.2083 36.474 29.6875 36.5 29.0625V17.1875C36.474 16.5625 36.2656 16.0417 35.875 15.625C35.4583 15.2344 34.9375 15.026 34.3125 15ZM24.3125 21.5234C23.8698 21.1589 23.4271 21.1589 22.9844 21.5234C22.6198 21.9661 22.6198 22.4089 22.9844 22.8516L25.7969 25.6641C26.0312 25.8464 26.2656 25.9375 26.5 25.9375C26.7604 25.9375 26.9818 25.8464 27.1641 25.6641L30.875 21.9531V22.8125C30.9271 23.3854 31.2396 23.6979 31.8125 23.75C32.3854 23.6979 32.6979 23.3854 32.75 22.8125V19.6875C32.6979 19.1146 32.3854 18.8021 31.8125 18.75H28.6875C28.1146 18.8021 27.8021 19.1146 27.75 19.6875C27.8021 20.2604 28.1146 20.5729 28.6875 20.625H29.5469L26.5 23.6719L24.3125 21.5234Z" fill="white"/>
</svg>
