<svg width="48" height="48" viewBox="0 0 48 48" fill="none" xmlns="http://www.w3.org/2000/svg">
<rect width="48" height="48" rx="24" fill="#FFA738"/>
<path d="M27.375 17.5V24.25C27.375 25.5156 26.3555 26.5 25.125 26.5H20.625L16.793 28.6797C16.6875 28.75 16.6172 28.75 16.5469 28.75C16.3008 28.75 16.125 28.6094 16.125 28.3281V26.5H15C13.7344 26.5 12.75 25.5156 12.75 24.25V17.5C12.75 16.2695 13.7344 15.25 15 15.25H25.125C26.3555 15.25 27.375 16.2695 27.375 17.5ZM17.8125 26.1836L20.168 24.8125H25.125C25.4062 24.8125 25.6875 24.5664 25.6875 24.25V17.5C25.6875 17.2188 25.4062 16.9375 25.125 16.9375H15C14.6836 16.9375 14.4375 17.2188 14.4375 17.5V24.25C14.4375 24.5664 14.6836 24.8125 15 24.8125H17.8125V26.1836ZM21.75 28.75V27.625H23.4375V28.75C23.4375 29.0664 23.6836 29.3125 24 29.3125H27.7969L30.1875 30.6836V29.3125H33C33.2812 29.3125 33.5625 29.0664 33.5625 28.75V22C33.5625 21.7188 33.2812 21.4375 33 21.4375H28.5V19.75H33C34.2305 19.75 35.25 20.7695 35.25 22V28.75C35.25 30.0156 34.2305 31 33 31H31.875V32.8281C31.875 33.1094 31.6641 33.25 31.4531 33.25C31.3477 33.25 31.2773 33.25 31.1719 33.1797L27.375 31H24C22.7344 31 21.75 30.0156 21.75 28.75Z" fill="white"/>
</svg>
