<svg width="48" height="48" viewBox="0 0 48 48" fill="none" xmlns="http://www.w3.org/2000/svg">
<rect width="48" height="48" rx="24" fill="#F6695D"/>
<path d="M31.4609 14.5391C32.8672 14.5391 33.9609 15.6328 33.9609 17V28.2109C33.9609 29.5391 32.8281 30.6719 31.4609 30.6719H25.8359L20.9531 34.3047C20.6406 34.5391 20.2109 34.3438 20.2109 33.9531V30.6719H16.4609C15.0547 30.6719 13.9609 29.5781 13.9609 28.2109V17C13.9609 15.6328 15.0547 14.5391 16.4609 14.5391H31.4609ZM32.125 28.25V17C32.125 16.6875 31.8125 16.375 31.5 16.375H16.5C16.1484 16.375 15.875 16.6875 15.875 17V28.25C15.875 28.6016 16.1484 28.875 16.5 28.875H22.125V31.2188L25.25 28.875H31.5C31.8125 28.875 32.125 28.6016 32.125 28.25ZM26.5 21.375C25.7969 21.375 25.2891 20.8281 25.2891 20.125C25.2891 19.4609 25.875 18.875 26.5 18.875C27.1641 18.875 27.75 19.5 27.75 20.125C27.75 20.7891 27.1641 21.375 26.5 21.375ZM21.5 21.375C20.7969 21.375 20.2891 20.8281 20.2891 20.125C20.2891 19.4609 20.875 18.875 21.5 18.875C22.1641 18.875 22.75 19.5 22.75 20.125C22.75 20.7891 22.1641 21.375 21.5 21.375ZM26.6953 23.9141C27.0469 23.5234 27.6328 23.4453 28.0234 23.7969C28.4141 24.1484 28.4531 24.7344 28.1406 25.125C27.0859 26.3359 25.6016 27.0391 24 27.0391C22.3594 27.0391 20.875 26.3359 19.8203 25.125C19.5078 24.7344 19.5469 24.1484 19.9375 23.7969C20.3281 23.4453 20.9141 23.5234 21.2656 23.9141C21.9297 24.6953 22.9062 25.125 24 25.125C25.0547 25.125 26.0312 24.6953 26.6953 23.9141Z" fill="white"/>
</svg>
