<svg width="48" height="48" viewBox="0 0 48 48" fill="none" xmlns="http://www.w3.org/2000/svg">
<rect width="48" height="48" rx="24" fill="#F6695D"/>
<path d="M30.1875 17.5C31.7344 17.5 33 18.7656 32.9648 20.3125V28.1875C32.9648 29.7695 31.6992 31 30.1875 31C28.6406 31 27.375 29.7695 27.375 28.1875V20.3125C27.375 18.7656 28.6055 17.5 30.1875 17.5ZM31.3125 28.1875V20.3125C31.3125 19.7148 30.7852 19.1875 30.1875 19.1875C29.5547 19.1875 29.0625 19.7148 29.0625 20.3125V28.1875C29.0625 28.8203 29.5547 29.3125 30.1875 29.3125C30.7852 29.3125 31.3125 28.8203 31.3125 28.1875ZM23.4375 22C24.9844 22 26.25 23.2656 26.1797 24.8125V28.1875C26.1797 29.7695 24.9141 31 23.4023 31C21.8555 31 20.625 29.7695 20.625 28.1875V22.1758C20.625 20.207 21.8203 18.4492 23.7188 17.6055C24.1406 17.3945 24.668 17.6055 24.8438 18.0273C25.0195 18.4492 24.8438 18.9414 24.4219 19.1172C23.1211 19.7148 22.3125 20.875 22.3125 22.1758V22.2461C22.6289 22.1055 23.0156 22 23.4375 22ZM24.5625 28.1875V24.8125C24.5625 24.2148 24.0352 23.6875 23.4375 23.6875C22.8047 23.6875 22.3125 24.2148 22.3125 24.8125V28.1875C22.3125 28.8203 22.8047 29.3125 23.4375 29.3125C24.0352 29.3125 24.5625 28.8203 24.5625 28.1875ZM34.125 15.25C34.7227 15.25 35.25 15.7773 35.25 16.375C35.25 17.0078 34.6875 17.5 34.125 17.5C33.5273 17.5 33 17.0078 33 16.375C33 15.7773 33.4922 15.25 34.125 15.25ZM16.1953 22.5977C18.0234 22.6328 19.5 24.1445 19.5 25.9727V27.5898C19.5 29.4883 17.9531 31 16.0898 31C14.9297 31 13.875 30.4375 13.2422 29.4883L12.8906 28.9609C12.6094 28.5742 12.7148 28.0469 13.1016 27.8008C13.4883 27.5195 14.0156 27.625 14.2617 28.0117L14.6484 28.5742C14.9648 29.0312 15.4922 29.3125 16.0898 29.3125C17.0391 29.3125 17.8125 28.5391 17.8125 27.5898V25.9727C17.8125 25.0234 17.0391 24.25 16.0898 24.25H14.7188C14.4023 24.25 14.1211 24.1094 13.9805 23.8281C13.8047 23.582 13.8398 23.2305 13.9805 22.9844L16.3008 19.1875H13.5938C13.1016 19.1875 12.75 18.8359 12.75 18.3438C12.75 17.8867 13.1016 17.5 13.5938 17.5H17.8125C18.0938 17.5 18.375 17.6758 18.5156 17.957C18.6914 18.2031 18.6914 18.5547 18.5156 18.8008L16.1953 22.5977Z" fill="white"/>
</svg>
