<svg width="48" height="48" viewBox="0 0 48 48" fill="none" xmlns="http://www.w3.org/2000/svg">
<rect width="48" height="48" rx="24" fill="#7C9EFD"/>
<path d="M24.2812 21.1211L26.25 23.0547L28.1836 21.1211L27.3047 20.2773C26.918 19.8906 27.1992 19.1875 27.7617 19.1875H30.8906C31.1016 19.1875 31.3125 19.3984 31.3125 19.6094V22.7383C31.3125 23.3008 30.6094 23.582 30.2227 23.1953L29.3789 22.3164L26.8125 24.8477C26.4961 25.1992 25.9688 25.1992 25.6523 24.8477L23.7188 22.9141L22.8047 23.8281C22.8398 23.6172 22.875 23.3711 22.875 23.125C22.875 22.6328 22.7695 22.1406 22.5938 21.6484L23.0859 21.1211C23.4023 20.8047 23.9297 20.8047 24.2812 21.1211ZM18.375 26.5C16.4766 26.5 15 24.9883 15 23.125C15 21.2617 16.4766 19.75 18.375 19.75C20.2383 19.75 21.75 21.2617 21.75 23.125C21.75 25.0234 20.2383 26.5 18.375 26.5ZM33.5625 15.25C34.4766 15.25 35.25 16.0586 35.25 17.0078V28.1523C35.25 29.1016 34.4766 29.875 33.5273 29.875H24.6328C24.2109 28.9961 23.6133 28.2227 22.8398 27.625H33V17.5H20.625V19.2578C19.957 18.8711 19.1836 18.625 18.375 18.625V17.0078C18.375 16.0586 19.1133 15.25 20.0625 15.25H33.5625ZM19.5 27.625C21.9609 27.625 24 29.6641 24 32.125C24 32.7578 23.4727 33.25 22.875 33.25H13.875C13.2422 33.25 12.75 32.7578 12.75 32.125C12.75 29.6641 14.7539 27.625 17.25 27.625H19.5Z" fill="white"/>
</svg>
