<svg width="48" height="48" viewBox="0 0 48 48" fill="none" xmlns="http://www.w3.org/2000/svg">
<rect width="48" height="48" rx="24" fill="#F6695D"/>
<path d="M19.5 16.375V17.5H24V16.375C24 15.7773 24.4922 15.25 25.125 15.25C25.7227 15.25 26.25 15.7773 26.25 16.375V17.5H27.9375C28.8516 17.5 29.625 18.2734 29.625 19.1875V20.875H13.875V19.1875C13.875 18.2734 14.6133 17.5 15.5625 17.5H17.25V16.375C17.25 15.7773 17.7422 15.25 18.375 15.25C18.9727 15.25 19.5 15.7773 19.5 16.375ZM13.875 22H29.625V23.5469L24.0352 29.1367C23.7539 29.418 23.543 29.7695 23.4375 30.1914L22.9102 32.3008C22.8398 32.6172 22.8398 32.9688 22.9453 33.25H15.5625C14.6133 33.25 13.875 32.5117 13.875 31.5625V22ZM18.0938 24.8125C17.6016 24.8125 17.25 25.1992 17.25 25.6562C17.25 26.1484 17.6016 26.5 18.0938 26.5H23.1562C23.6133 26.5 24 26.1484 24 25.6562C24 25.1992 23.6133 24.8125 23.1562 24.8125H18.0938ZM18.0938 29.875H20.9062C21.3633 29.875 21.75 29.5234 21.75 29.0312C21.75 28.5742 21.3633 28.1875 20.9062 28.1875H18.0938C17.6016 28.1875 17.25 28.5742 17.25 29.0312C17.25 29.5234 17.6016 29.875 18.0938 29.875ZM33.7031 24.0742C34.2305 24.6016 34.2305 25.4805 33.7031 26.043L32.6484 27.0977L30.1523 24.6016L31.207 23.5469C31.7344 23.0195 32.6484 23.0195 33.1758 23.5469L33.7031 24.0742ZM24.8086 29.9102L29.3789 25.375L31.875 27.8711L27.3047 32.4062C27.1641 32.5469 26.9883 32.6523 26.8125 32.7227L24.668 33.25C24.4922 33.2852 24.2812 33.25 24.1406 33.1094C24 32.9688 23.9648 32.7578 24 32.5469L24.5273 30.4375C24.5625 30.2617 24.668 30.0859 24.8086 29.9102Z" fill="white"/>
</svg>
