<svg width="48" height="48" viewBox="0 0 48 48" fill="none" xmlns="http://www.w3.org/2000/svg">
<rect width="48" height="48" rx="24" fill="#F6695D"/>
<path d="M28.2969 22.8594L30.0938 23.1719C30.1719 23.6016 30.25 24.0312 30.25 24.5C30.25 27.9766 27.4375 30.75 24 30.75C20.5234 30.75 17.75 27.9766 17.75 24.5C17.75 21.0625 20.5234 18.25 24 18.25C24.4297 18.25 24.8984 18.3281 25.3281 18.4062L25.6406 20.2031L25.4453 20.3984C24.9766 20.2422 24.5078 20.125 24 20.125C21.5781 20.125 19.625 22.1172 19.625 24.5C19.625 26.9219 21.5781 28.875 24 28.875C26.3828 28.875 28.375 26.9219 28.375 24.5C28.375 23.9922 28.2578 23.5234 28.1016 23.0547L28.2969 22.8594ZM33.4141 21.2188C33.7656 22.2344 34 23.3672 34 24.5C34 30.0469 29.5078 34.5 24 34.5C18.4531 34.5 14 30.0469 14 24.5C14 18.9922 18.4531 14.5 24 14.5C25.1328 14.5 26.2656 14.7344 27.2812 15.0859L25.7578 16.6094C25.1719 16.4531 24.5859 16.375 24 16.375C19.5078 16.375 15.875 20.0469 15.875 24.5C15.875 28.9922 19.5078 32.625 24 32.625C28.4531 32.625 32.125 28.9922 32.125 24.5C32.125 23.9141 32.0469 23.2891 31.8906 22.7422L33.4141 21.2188ZM24.625 25.1641C24.2734 25.5547 23.6875 25.5547 23.3359 25.1641C22.9453 24.8125 22.9453 24.2266 23.3359 23.8359L26.9297 20.2422L26.5781 18.2891C26.5391 17.8984 26.6562 17.4688 26.9297 17.1953L28.9219 15.2031C29.2344 14.8906 29.7812 14.9688 29.9766 15.3984L30.875 17.625L33.1016 18.5234C33.5312 18.7188 33.6094 19.2266 33.2969 19.5781L31.3047 21.5703C31.0312 21.8438 30.6016 21.9609 30.2109 21.9219L28.2578 21.5703L24.625 25.1641Z" fill="white"/>
</svg>
