<svg width="48" height="49" viewBox="0 0 48 49" fill="none" xmlns="http://www.w3.org/2000/svg">
<rect y="0.5" width="48" height="48" rx="24" fill="#7C9EFD"/>
<path d="M17.75 27.5C19.8203 27.5 21.5 25.8594 21.5 23.75C21.5 21.6797 19.8203 20 17.75 20C15.6406 20 14 21.6797 14 23.75C14 25.8203 15.6406 27.5 17.75 27.5ZM17.75 21.875C18.7656 21.875 19.625 22.7344 19.625 23.75C19.625 24.8047 18.7656 25.625 17.75 25.625C16.6953 25.625 15.875 24.8047 15.875 23.75C15.875 22.7344 16.6953 21.875 17.75 21.875ZM19 28.75H16.5C13.7266 28.75 11.5 31.0156 11.5 33.75C11.5 34.4531 12.0469 35 12.75 35H22.75C23.4141 35 24 34.4531 24 33.75C24 31.0156 21.7344 28.75 19 28.75ZM13.4141 33.125C13.7266 31.7188 14.9766 30.625 16.5 30.625H19C20.4844 30.625 21.7344 31.7188 22.0469 33.125H13.4141ZM34.3125 15H19.9375C18.7266 15 17.75 16.0156 17.75 17.1875V18.125C17.75 18.6719 18.1406 19.0625 18.6875 19.0625C19.1953 19.0625 19.625 18.6719 19.625 18.125V17.1875C19.625 17.0312 19.7422 16.875 19.9375 16.875H34.3125C34.4688 16.875 34.625 17.0312 34.625 17.1875V29.0625C34.625 29.2578 34.4688 29.375 34.3125 29.375H25.25C24.7031 29.375 24.3125 29.8047 24.3125 30.3125C24.3125 30.8594 24.7031 31.25 25.25 31.25H34.3125C35.4844 31.25 36.5 30.2734 36.5 29.0625V17.1875C36.5 16.0156 35.4844 15 34.3125 15ZM24.3125 21.5234C23.9219 21.1719 23.3359 21.1719 22.9844 21.5234C22.5938 21.9141 22.5938 22.5 22.9844 22.8516L25.7969 25.6641C25.9922 25.8594 26.2266 25.9375 26.5 25.9375C26.7344 25.9375 26.9688 25.8594 27.125 25.6641L30.875 21.9531V22.8125C30.875 23.3594 31.2656 23.75 31.8125 23.75C32.3203 23.75 32.75 23.3594 32.75 22.8125V19.6875C32.75 19.1797 32.3203 18.75 31.8125 18.75H28.6875C28.1406 18.75 27.75 19.1797 27.75 19.6875C27.75 20.2344 28.1406 20.625 28.6875 20.625H29.5469L26.5 23.6719L24.3125 21.5234Z" fill="white"/>
</svg>
