<svg width="48" height="48" viewBox="0 0 48 48" fill="none" xmlns="http://www.w3.org/2000/svg">
<rect width="48" height="48" rx="24" fill="#A16CF6"/>
<path d="M20.25 28.25C20.5625 28.25 20.875 28.5625 20.875 28.875V30.125C20.875 30.4766 20.5625 30.75 20.25 30.75H19C18.6484 30.75 18.375 30.4766 18.375 30.125V28.875C18.375 28.5625 18.6484 28.25 19 28.25H20.25ZM19 20.75C18.6484 20.75 18.375 20.4766 18.375 20.125V18.875C18.375 18.5625 18.6484 18.25 19 18.25H20.25C20.5625 18.25 20.875 18.5625 20.875 18.875V20.125C20.875 20.4766 20.5625 20.75 20.25 20.75H19ZM28.6875 28.5625C29.1953 28.5625 29.625 28.9922 29.625 29.5C29.625 30.0469 29.1953 30.4375 28.6875 30.4375H23.0625C22.5156 30.4375 22.125 30.0469 22.125 29.5C22.125 28.9922 22.5156 28.5625 23.0625 28.5625H28.6875ZM21.9297 23.1328C22.1641 23.3672 22.1641 23.7969 21.9297 24.0312L20.0547 25.9062C19.9375 26.0234 19.7812 26.0625 19.625 26.0625C19.4297 26.0625 19.2734 26.0234 19.1562 25.9062L18.2188 24.9688C17.9844 24.7344 17.9844 24.3047 18.2188 24.0703C18.4531 23.8359 18.8828 23.8359 19.1172 24.0703L19.625 24.5781L21.0312 23.1328C21.2656 22.8984 21.6953 22.8984 21.9297 23.1328ZM28.6875 23.5625C29.1953 23.5625 29.625 23.9922 29.625 24.5C29.625 25.0469 29.1953 25.4375 28.6875 25.4375H24.3125C23.7656 25.4375 23.375 25.0469 23.375 24.5C23.375 23.9922 23.7656 23.5625 24.3125 23.5625H28.6875ZM30.25 14.5C31.6172 14.5 32.75 15.6328 32.75 17V32C32.75 33.4062 31.6172 34.5 30.25 34.5H17.75C16.3438 34.5 15.25 33.4062 15.25 32V17C15.25 15.6328 16.3438 14.5 17.75 14.5H30.25ZM30.875 32V17C30.875 16.6875 30.5625 16.375 30.25 16.375H17.75C17.3984 16.375 17.125 16.6875 17.125 17V32C17.125 32.3516 17.3984 32.625 17.75 32.625H30.25C30.5625 32.625 30.875 32.3516 30.875 32ZM28.6875 18.5625C29.1953 18.5625 29.625 18.9922 29.625 19.5C29.625 20.0469 29.1953 20.4375 28.6875 20.4375H23.0625C22.5156 20.4375 22.125 20.0469 22.125 19.5C22.125 18.9922 22.5156 18.5625 23.0625 18.5625H28.6875Z" fill="white"/>
</svg>
