<svg width="48" height="48" viewBox="0 0 48 48" fill="none" xmlns="http://www.w3.org/2000/svg">
<rect width="48" height="48" rx="24" fill="#33CDFF"/>
<path d="M24 19.5039C24.2109 19.5039 24.3867 19.6445 24.4922 19.8203L25.582 22.0703L28.043 22.4219C28.2539 22.457 28.4297 22.5977 28.5 22.8086C28.5703 23.0195 28.5 23.2305 28.3594 23.3711L26.5664 25.0938L26.9883 27.5547C27.0234 27.7656 26.9531 27.9766 26.7773 28.1172C26.6016 28.2227 26.3555 28.2578 26.1797 28.1523L24 26.9922L21.7852 28.1523C21.6094 28.2578 21.3633 28.2227 21.1875 28.1172C21.0117 27.9766 20.9414 27.7656 20.9766 27.5547L21.3984 25.0938L19.6055 23.3711C19.4648 23.2305 19.3945 23.0195 19.4648 22.8086C19.5352 22.5977 19.7109 22.457 19.9219 22.4219L22.3828 22.0703L23.4727 19.8203C23.5781 19.6445 23.7539 19.5039 24 19.5039ZM16.125 18.625C16.125 17.3945 17.1094 16.375 18.375 16.375H29.625C30.8555 16.375 31.875 17.3945 31.875 18.625V29.875C31.875 31.1406 30.8555 32.125 29.625 32.125H18.375C17.1094 32.125 16.125 31.1406 16.125 29.875V18.625ZM17.8125 18.625V29.875C17.8125 30.1914 18.0586 30.4375 18.375 30.4375H29.625C29.9062 30.4375 30.1875 30.1914 30.1875 29.875V18.625C30.1875 18.3438 29.9062 18.0625 29.625 18.0625H18.375C18.0586 18.0625 17.8125 18.3438 17.8125 18.625Z" fill="white"/>
</svg>
