<svg width="60" height="60" viewBox="0 0 60 60" fill="none" xmlns="http://www.w3.org/2000/svg">
<path d="M60 30C60 37.7913 59.3296 45.2661 58.1084 52.1551C57.5693 55.1965 55.1965 57.5693 52.1551 58.1084C45.2661 59.3296 37.7913 60 30 60C22.2087 60 14.7339 59.3296 7.84494 58.1084C4.80346 57.5693 2.43074 55.1965 1.89159 52.1551C0.670412 45.2661 0 37.7913 0 30C0 22.2062 0.670829 14.7479 1.89273 7.84952C2.43186 4.80582 4.80544 2.43028 7.84909 1.89086C14.7369 0.670144 22.2102 0 30 0C37.7898 0 45.2631 0.670144 52.1509 1.89086C55.1946 2.43028 57.5681 4.80581 58.1073 7.84951C59.3292 14.7479 60 22.2062 60 30Z" fill="white"/>
<path d="M19 22L19 38.0002C19 39.6571 20.3431 41.0002 22 41.0002L38 41.0002C39.6569 41.0002 41 39.6571 41 38.0002L41 22C41 20.3431 39.6569 19 38 19L22 19C20.3431 19 19 20.3431 19 22Z" stroke="#E68205" stroke-width="1.5"/>
<path d="M26.028 38.1057L23.5543 38.1057C23.2782 38.1057 23.0543 37.8819 23.0543 37.6057L23.0543 29.3424C23.0543 29.0663 23.2782 28.8424 23.5543 28.8424L26.028 28.8424C26.3042 28.8424 26.528 29.0663 26.528 29.3424L26.528 37.6057C26.528 37.8819 26.3042 38.1057 26.028 38.1057Z" stroke="#E68205" stroke-width="1.5"/>
<path d="M31.8176 38.1057L29.3439 38.1057C29.0677 38.1057 28.8439 37.8819 28.8439 37.6057L28.8439 24.7108C28.8439 24.4347 29.0677 24.2108 29.3439 24.2108L31.8176 24.2108C32.0937 24.2108 32.3176 24.4347 32.3176 24.7108L32.3176 37.6057C32.3176 37.8819 32.0937 38.1057 31.8176 38.1057Z" stroke="#E68205" stroke-width="1.5"/>
<path d="M37.6071 38.1057L35.1334 38.1057C34.8573 38.1057 34.6334 37.8819 34.6334 37.6057L34.6334 31.6583C34.6334 31.3821 34.8573 31.1583 35.1334 31.1583L37.6071 31.1583C37.8833 31.1583 38.1071 31.3821 38.1071 31.6583L38.1071 37.6057C38.1071 37.8819 37.8833 38.1057 37.6071 38.1057Z" stroke="#E68205" stroke-width="1.5"/>
</svg>
