<svg width="18" height="18" viewBox="0 0 18 18" fill="none" xmlns="http://www.w3.org/2000/svg">
<path d="M10.4741 2H3C1.89543 2 1 2.89543 1 4V15C1 16.1046 1.89543 17 3 17H14C15.1046 17 16 16.1046 16 15V7.25" stroke="#000A16" stroke-linecap="round"/>
<path d="M13.5 2L16 4.5M13.5 2L9.88636 5.61364M13.5 2L12.5 1M16 4.5L12.5 8.35M16 4.5L17 5.5M9.88636 5.61364L8 7.5H5L8 10.25M9.88636 5.61364L12.5 8.35M12.5 8.35L11 10V13L8 10.25M8 10.25L5 13.5" stroke="black" stroke-linecap="round" stroke-linejoin="round"/>
</svg>
