<svg width="16" height="16" viewBox="0 0 16 16" fill="none" xmlns="http://www.w3.org/2000/svg">
<g clip-path="url(#clip0_5956_41921)">
<path fill-rule="evenodd" clip-rule="evenodd" d="M8 15C11.866 15 15 11.866 15 8C15 4.13401 11.866 1 8 1C4.13401 1 1 4.13401 1 8C1 11.866 4.13401 15 8 15ZM8 16C12.4183 16 16 12.4183 16 8C16 3.58172 12.4183 0 8 0C3.58172 0 0 3.58172 0 8C0 12.4183 3.58172 16 8 16Z" fill="#E68205"/>
<path d="M14 8C14 11.3137 11.3137 14 8 14C4.68629 14 2 11.3137 2 8C2 4.68629 4.68629 2 8 2C11.3137 2 14 4.68629 14 8Z" fill="#FFF4E6"/>
<path d="M6.6665 5.66699C6.6665 6.21928 6.21879 6.66699 5.6665 6.66699C5.11422 6.66699 4.6665 6.21928 4.6665 5.66699C4.6665 5.11471 5.11422 4.66699 5.6665 4.66699C6.21879 4.66699 6.6665 5.11471 6.6665 5.66699Z" fill="#E68205"/>
<path d="M11.3335 5.66699C11.3335 6.21928 10.8858 6.66699 10.3335 6.66699C9.78121 6.66699 9.3335 6.21928 9.3335 5.66699C9.3335 5.11471 9.78121 4.66699 10.3335 4.66699C10.8858 4.66699 11.3335 5.11471 11.3335 5.66699Z" fill="#E68205"/>
<path fill-rule="evenodd" clip-rule="evenodd" d="M7.40107 10.835C6.63681 10.9524 6.0136 11.3594 5.68705 11.686C5.49179 11.8812 5.1752 11.8812 4.97994 11.686C4.78468 11.4907 4.78468 11.1741 4.97994 10.9789C5.43117 10.5276 6.24129 10.0014 7.24925 9.84655C8.28176 9.68796 9.48547 9.92601 10.6627 10.9561C10.8706 11.138 10.8916 11.4539 10.7098 11.6617C10.5279 11.8695 10.2121 11.8906 10.0042 11.7087C9.04819 10.8722 8.14079 10.7213 7.40107 10.835Z" fill="#E68205"/>
</g>
<defs>
<clipPath id="clip0_5956_41921">
<rect width="16" height="16" fill="white"/>
</clipPath>
</defs>
</svg>
