<svg width="200" height="200" viewBox="0 0 200 200" fill="none" xmlns="http://www.w3.org/2000/svg">
<path opacity="0.5" d="M196.954 94.5867C196.974 95.2519 196.988 95.9188 196.995 96.5874L196.745 96.5899C196.748 96.9234 196.75 97.2572 196.75 97.5914C196.75 97.9256 196.748 98.2594 196.745 98.5928L196.995 98.5954C196.988 99.2639 196.974 99.9309 196.954 100.596L196.704 100.588C196.683 101.252 196.656 101.914 196.622 102.574L196.872 102.587C196.838 103.256 196.796 103.923 196.748 104.588L196.499 104.57C196.451 105.233 196.397 105.895 196.335 106.555L196.584 106.578C196.522 107.243 196.454 107.906 196.378 108.566L196.13 108.538C196.055 109.2 195.972 109.86 195.883 110.518L196.131 110.551C196.042 111.211 195.946 111.869 195.843 112.525L195.596 112.487C195.493 113.146 195.383 113.802 195.267 114.457L195.513 114.501C195.396 115.157 195.273 115.811 195.143 116.462L194.897 116.413C194.767 117.066 194.63 117.717 194.486 118.366L194.73 118.42C194.586 119.071 194.435 119.72 194.278 120.367L194.035 120.307C193.877 120.953 193.713 121.597 193.543 122.238L193.784 122.302C193.613 122.947 193.434 123.59 193.25 124.23L193.01 124.161C192.825 124.799 192.635 125.435 192.437 126.067L192.676 126.142C192.477 126.779 192.272 127.414 192.061 128.046L191.824 127.967C191.613 128.597 191.395 129.225 191.171 129.85L191.407 129.934C191.182 130.562 190.951 131.187 190.713 131.809L190.479 131.72C190.242 132.341 189.998 132.96 189.748 133.575L189.98 133.669C189.729 134.286 189.472 134.901 189.209 135.512L188.979 135.413C188.716 136.024 188.446 136.632 188.171 137.236L188.398 137.34C188.122 137.946 187.839 138.549 187.551 139.149L187.325 139.04C187.037 139.64 186.742 140.236 186.441 140.829L186.664 140.942C186.363 141.536 186.055 142.127 185.741 142.714L185.521 142.597C185.208 143.183 184.889 143.766 184.564 144.346L184.782 144.468C184.456 145.049 184.124 145.627 183.786 146.201L183.57 146.074C183.233 146.647 182.89 147.216 182.542 147.781L182.754 147.913C182.404 148.48 182.048 149.044 181.687 149.604L181.477 149.468C181.116 150.026 180.75 150.58 180.378 151.131L180.585 151.271C180.212 151.823 179.833 152.372 179.449 152.916L179.245 152.772C178.861 153.314 178.472 153.853 178.078 154.388L178.279 154.536C177.884 155.073 177.483 155.605 177.076 156.133L176.878 155.98C176.472 156.507 176.062 157.029 175.645 157.547L175.84 157.704C175.423 158.223 175 158.738 174.572 159.249L174.381 159.088C173.954 159.598 173.522 160.103 173.085 160.603L173.273 160.768C172.834 161.27 172.391 161.767 171.942 162.26L171.758 162.091C171.31 162.583 170.858 163.069 170.4 163.552L170.582 163.724C170.123 164.207 169.659 164.686 169.191 165.16L169.013 164.984C168.546 165.456 168.074 165.924 167.597 166.387L167.771 166.566C167.293 167.03 166.81 167.49 166.323 167.944L166.152 167.761C165.666 168.214 165.175 168.662 164.679 169.105L164.846 169.291C164.349 169.735 163.848 170.174 163.342 170.608L163.18 170.418C162.675 170.851 162.166 171.279 161.653 171.701L161.811 171.894C161.297 172.317 160.778 172.735 160.255 173.148L160.101 172.952C159.579 173.363 159.053 173.769 158.522 174.17L158.673 174.37C158.142 174.772 157.606 175.168 157.067 175.559L156.92 175.356C156.382 175.746 155.84 176.13 155.293 176.509L155.436 176.715C154.888 177.094 154.337 177.468 153.781 177.837L153.643 177.629C153.09 177.996 152.532 178.357 151.971 178.713L152.105 178.924C151.542 179.281 150.975 179.632 150.405 179.978L150.275 179.764C149.707 180.108 149.136 180.446 148.56 180.779L148.686 180.995C148.109 181.329 147.528 181.656 146.944 181.978L146.823 181.759C146.242 182.079 145.656 182.394 145.068 182.702L145.184 182.924C144.594 183.233 144.001 183.536 143.404 183.833L143.292 183.61C142.698 183.906 142.1 184.196 141.498 184.48L141.605 184.707C141.003 184.991 140.398 185.269 139.79 185.541L139.688 185.313C139.081 185.585 138.471 185.85 137.858 186.11L137.955 186.34C137.343 186.599 136.727 186.852 136.108 187.099L136.016 186.867C135.399 187.113 134.779 187.353 134.156 187.586L134.243 187.82C133.62 188.054 132.994 188.282 132.365 188.503L132.282 188.267C131.656 188.487 131.027 188.701 130.395 188.909L130.473 189.146C129.84 189.354 129.204 189.556 128.566 189.751L128.493 189.512C127.859 189.706 127.222 189.894 126.583 190.075L126.651 190.315C126.01 190.497 125.366 190.672 124.72 190.841L124.657 190.599C124.015 190.767 123.371 190.928 122.725 191.083L122.783 191.326C122.136 191.481 121.486 191.629 120.834 191.771L120.781 191.527C120.132 191.668 119.481 191.802 118.827 191.93L118.875 192.176C118.223 192.304 117.569 192.425 116.912 192.54L116.869 192.293C116.214 192.408 115.557 192.516 114.898 192.617L114.936 192.864C114.28 192.965 113.622 193.059 112.961 193.147L112.928 192.899C112.27 192.986 111.61 193.067 110.948 193.141L110.976 193.39C110.315 193.464 109.652 193.531 108.987 193.592L108.964 193.343C108.304 193.403 107.643 193.457 106.979 193.504L106.997 193.753C106.331 193.8 105.664 193.841 104.995 193.874L104.983 193.625C104.323 193.658 103.661 193.685 102.997 193.705L103.005 193.955C102.34 193.975 101.673 193.988 101.004 193.995L101.002 193.745C100.668 193.748 100.334 193.75 100 193.75C99.6658 193.75 99.3319 193.748 98.9985 193.745L98.996 193.995C98.3274 193.988 97.6605 193.975 96.9952 193.955L97.0028 193.705C96.3392 193.685 95.6773 193.658 95.0171 193.625L95.0045 193.874C94.3356 193.841 93.6685 193.8 93.0032 193.753L93.0209 193.504C92.3573 193.457 91.6955 193.403 91.0357 193.343L91.013 193.592C90.3481 193.531 89.6852 193.464 89.0242 193.39L89.052 193.141C88.3898 193.067 87.7297 192.986 87.0716 192.899L87.0387 193.147C86.3784 193.059 85.7203 192.965 85.0643 192.864L85.1023 192.617C84.4429 192.516 83.7856 192.408 83.1307 192.293L83.0876 192.54C82.431 192.425 81.7766 192.304 81.1246 192.176L81.1727 191.93C80.5191 191.802 79.8679 191.668 79.2191 191.527L79.1659 191.771C78.5138 191.629 77.8641 191.481 77.2169 191.326L77.2751 191.083C76.6285 190.928 75.9845 190.767 75.343 190.599L75.2799 190.841C74.6335 190.672 73.9898 190.497 73.3489 190.315L73.417 190.075C72.7777 189.894 72.1411 189.706 71.5072 189.512L71.4341 189.751C70.7955 189.556 70.1596 189.354 69.5266 189.146L69.6047 188.909C68.9728 188.701 68.3439 188.487 67.7178 188.267L67.6349 188.503C67.0058 188.282 66.3796 188.054 65.7565 187.82L65.8443 187.586C65.2211 187.353 64.601 187.113 63.9841 186.867L63.8915 187.099C63.2726 186.852 62.657 186.599 62.0445 186.34L62.1419 186.11C61.5287 185.85 60.9187 185.585 60.312 185.313L60.2099 185.541C59.6016 185.269 58.9967 184.991 58.3952 184.706L58.502 184.48C57.9004 184.196 57.3022 183.906 56.7075 183.61L56.5961 183.833C55.9993 183.536 55.406 183.233 54.8163 182.924L54.9324 182.702C54.3435 182.394 53.7582 182.079 53.1765 181.759L53.0559 181.978C52.4717 181.656 51.8912 181.329 51.3144 180.995L51.4395 180.779C50.8642 180.446 50.2926 180.108 49.7248 179.764L49.5953 179.978C49.0247 179.632 48.458 179.281 47.8952 178.924L48.0291 178.713C47.4678 178.357 46.9104 177.996 46.3571 177.629L46.2189 177.837C45.6633 177.468 45.1117 177.094 44.5642 176.715L44.7067 176.509C44.1604 176.13 43.6181 175.746 43.0801 175.356L42.9335 175.559C42.3937 175.168 41.8582 174.772 41.3269 174.37L41.4777 174.17C40.9473 173.769 40.4212 173.363 39.8995 172.952L39.7446 173.148C39.2215 172.735 38.7028 172.317 38.1885 171.894L38.3474 171.701C37.8339 171.279 37.3248 170.851 36.8204 170.418L36.6576 170.608C36.1518 170.174 35.6506 169.735 35.154 169.291L35.3206 169.105C34.8251 168.662 34.3341 168.214 33.8479 167.761L33.6775 167.944C33.1899 167.49 32.707 167.03 32.229 166.566L32.4031 166.387C31.9262 165.924 31.4542 165.456 30.987 164.984L30.8092 165.159C30.3407 164.686 29.8771 164.207 29.4185 163.724L29.5998 163.552C29.1424 163.069 28.6899 162.583 28.2424 162.091L28.0576 162.26C27.609 161.767 27.1655 161.27 26.7272 160.768L26.9155 160.603C26.4782 160.103 26.0461 159.598 25.6192 159.088L25.4276 159.249C24.9997 158.738 24.5771 158.223 24.1598 157.704L24.3547 157.547C23.9385 157.029 23.5275 156.507 23.122 155.98L22.9239 156.133C22.5175 155.605 22.1164 155.073 21.7208 154.536L21.922 154.388C21.5276 153.853 21.1386 153.314 20.7552 152.772L20.551 152.916C20.1666 152.371 19.7878 151.823 19.4145 151.271L19.6217 151.131C19.2499 150.58 18.8836 150.026 18.5231 149.468L18.3131 149.604C17.9515 149.044 17.5957 148.48 17.2456 147.913L17.4584 147.781C17.1097 147.216 16.7668 146.647 16.4297 146.074L16.2143 146.201C15.8764 145.627 15.5443 145.049 15.2182 144.468L15.4362 144.346C15.1113 143.766 14.7922 143.183 14.479 142.597L14.2585 142.714C13.945 142.127 13.6374 141.536 13.3358 140.942L13.5587 140.829C13.258 140.236 12.9633 139.64 12.6747 139.04L12.4495 139.149C12.1609 138.549 11.8784 137.946 11.602 137.34L11.8294 137.236C11.5538 136.632 11.2842 136.024 11.0209 135.413L10.7913 135.511C10.528 134.901 10.2709 134.286 10.0201 133.669L10.2517 133.575C10.0017 132.96 9.758 132.341 9.52055 131.72L9.28701 131.809C9.04942 131.187 8.81811 130.562 8.59316 129.934L8.82852 129.85C8.60476 129.225 8.38731 128.597 8.17626 127.967L7.93919 128.046C7.72766 127.414 7.52252 126.779 7.32387 126.142L7.56256 126.067C7.36544 125.435 7.17472 124.799 6.99048 124.161L6.75029 124.23C6.56555 123.59 6.38731 122.947 6.21563 122.302L6.45723 122.238C6.28674 121.597 6.12275 120.953 5.96532 120.307L5.72242 120.366C5.5649 119.72 5.41393 119.071 5.26959 118.42L5.51367 118.366C5.37001 117.717 5.23293 117.066 5.10251 116.413L4.85735 116.462C4.72727 115.811 4.60379 115.157 4.48699 114.501L4.73312 114.457C4.61663 113.802 4.5068 113.146 4.4037 112.487L4.1567 112.525C4.05409 111.869 3.95812 111.211 3.86887 110.551L4.11662 110.518C4.0277 109.86 3.94548 109.2 3.87001 108.538L3.62162 108.566C3.54627 107.906 3.47765 107.243 3.41581 106.578L3.66474 106.555C3.60339 105.895 3.54875 105.233 3.50088 104.57L3.25153 104.588C3.20353 103.923 3.16232 103.256 3.12797 102.587L3.37765 102.574C3.34374 101.914 3.31654 101.252 3.29609 100.588L3.04621 100.596C3.02572 99.9309 3.01201 99.264 3.00515 98.5954L3.25514 98.5929C3.25172 98.2594 3.25 97.9256 3.25 97.5914C3.25 97.2572 3.25172 96.9234 3.25514 96.59L3.00515 96.5874C3.01201 95.9189 3.02572 95.2519 3.04621 94.5867L3.29609 94.5944C3.31654 93.9308 3.34374 93.2689 3.37765 92.6087L3.12797 92.5959C3.16232 91.9271 3.20353 91.26 3.25153 90.5949L3.50088 90.6129C3.54875 89.9494 3.60339 89.2879 3.66474 88.6282L3.41581 88.6051C3.47765 87.9402 3.54627 87.2773 3.62162 86.6164L3.87001 86.6447C3.94548 85.9828 4.0277 85.3229 4.11662 84.6652L3.86887 84.6317C3.95812 83.9715 4.05409 83.3134 4.15671 82.6576L4.4037 82.6962C4.5068 82.0373 4.61663 81.3805 4.73313 80.7261L4.487 80.6823C4.60379 80.0261 4.72727 79.3722 4.85735 78.7207L5.10251 78.7696C5.23293 78.1164 5.37001 77.4656 5.51367 76.8172L5.26959 76.7631C5.41394 76.1117 5.56491 75.4627 5.72243 74.8163L5.96532 74.8755C6.12276 74.2294 6.28675 73.5859 6.45724 72.9451L6.21564 72.8808C6.38732 72.2355 6.56556 71.5927 6.75029 70.9528L6.99049 71.0221C7.17473 70.3838 7.36545 69.7482 7.56257 69.1155L7.32388 69.0411C7.52253 68.4034 7.72766 67.7685 7.9392 67.1365L8.17627 67.2159C8.38732 66.5854 8.60477 65.9577 8.82853 65.3331L8.59317 65.2488C8.81811 64.6208 9.04942 63.9958 9.28702 63.3739L9.52056 63.4632C9.75801 62.8417 10.0018 62.2233 10.2517 61.608L10.0201 61.5139C10.2709 60.8965 10.528 60.2823 10.7913 59.6713L11.0209 59.7702C11.2842 59.159 11.5538 58.551 11.8295 57.9463L11.602 57.8426C11.8784 57.2364 12.1609 56.6335 12.4495 56.034L12.6747 56.1424C12.9633 55.5429 13.258 54.9467 13.5587 54.3541L13.3358 54.241C13.6374 53.6465 13.945 53.0556 14.2585 52.4683L14.479 52.586C14.7922 51.9995 15.1113 51.4165 15.4362 50.8372L15.2182 50.7149C15.5444 50.1334 15.8764 49.5555 16.2143 48.9815L16.4297 49.1083C16.7668 48.5356 17.1098 47.9666 17.4584 47.4014L17.2456 47.2702C17.5957 46.7026 17.9516 46.139 18.3131 45.5793L18.5231 45.7149C18.8836 45.1567 19.2499 44.6024 19.6217 44.0521L19.4145 43.9121C19.7878 43.3597 20.1666 42.8113 20.551 42.267L20.7552 42.4113C21.1386 41.8683 21.5276 41.3295 21.922 40.7948L21.7208 40.6464C22.1164 40.1101 22.5175 39.578 22.9239 39.0502L23.122 39.2027C23.5276 38.676 23.9385 38.1536 24.3547 37.6356L24.1598 37.479C24.5771 36.9596 24.9997 36.4445 25.4276 35.9339L25.6192 36.0945C26.0461 35.585 26.4782 35.08 26.9155 34.5794L26.7272 34.415C27.1656 33.9132 27.6091 33.4159 28.0576 32.9233L28.2425 33.0916C28.6899 32.6002 29.1424 32.1133 29.5998 31.6312L29.4185 31.4592C29.8771 30.9758 30.3407 30.4972 30.8092 30.0233L30.987 30.1991C31.4542 29.7265 31.9263 29.2587 32.4031 28.7958L32.229 28.6164C32.7071 28.1524 33.1899 27.6932 33.6775 27.2389L33.8479 27.4219C34.3341 26.9689 34.8251 26.5208 35.3207 26.0778L35.154 25.8914C35.6506 25.4474 36.1518 25.0085 36.6576 24.5747L36.8204 24.7644C37.3249 24.3317 37.8339 23.9041 38.3474 23.4817L38.1885 23.2886C38.7028 22.8655 39.2215 22.4476 39.7446 22.035L39.8995 22.2312C40.4212 21.8197 40.9473 21.4134 41.4777 21.0123L41.3269 20.8129C41.8582 20.4113 42.3937 20.0149 42.9335 19.624L43.0801 19.8265C43.6182 19.4368 44.1604 19.0525 44.7067 18.6737L44.5643 18.4682C45.1117 18.0886 45.6633 17.7145 46.2189 17.3459L46.3571 17.5542C46.9105 17.1871 47.4678 16.8256 48.0292 16.4696L47.8953 16.2585C48.458 15.9016 49.0247 15.5503 49.5953 15.2047L49.7248 15.4186C50.2926 15.0747 50.8642 14.7365 51.4396 14.404L51.3145 14.1875C51.8912 13.8543 52.4718 13.5267 53.056 13.205L53.1766 13.4239C53.7582 13.1036 54.3435 12.7891 54.9324 12.4804L54.8164 12.259C55.406 11.9499 55.9993 11.6467 56.5961 11.3494L56.7076 11.5732C57.3023 11.277 57.9005 10.9866 58.5021 10.7023L58.3953 10.4763C58.9968 10.192 59.6017 9.9137 60.2099 9.64144L60.3121 9.86962C60.9187 9.59807 61.5287 9.33255 62.142 9.07314L62.0446 8.8429C62.657 8.58382 63.2727 8.33083 63.8915 8.08399L63.9842 8.3162C64.6011 8.07012 65.2212 7.83017 65.8443 7.59643L65.7565 7.36235C66.3797 7.12863 67.0058 6.90109 67.635 6.67983L67.7179 6.91567C68.3439 6.69551 68.9729 6.48157 69.6048 6.27393L69.5267 6.03643C70.1597 5.82842 70.7955 5.62672 71.4342 5.4314L71.5073 5.67047C72.1412 5.47662 72.7778 5.28907 73.4171 5.10789L73.3489 4.86736C73.9899 4.68572 74.6336 4.51045 75.2799 4.34166L75.3431 4.58354C75.9846 4.41602 76.6286 4.25488 77.2751 4.1002L77.217 3.85706C77.8642 3.70223 78.5138 3.55385 79.166 3.41198L79.2191 3.65627C79.8679 3.51514 80.5191 3.38049 81.1727 3.25237L81.1246 3.00704C81.7767 2.87923 82.431 2.75791 83.0877 2.64316L83.1307 2.88943C83.7857 2.77497 84.4429 2.66707 85.1023 2.56577L85.0644 2.31867C85.7203 2.21791 86.3785 2.12369 87.0387 2.03606L87.0716 2.28389C87.7297 2.19655 88.3899 2.11578 89.0521 2.04166L89.0243 1.79321C89.6852 1.71924 90.3481 1.65186 91.013 1.59115L91.0357 1.84011C91.6956 1.77987 92.3573 1.72621 93.0209 1.6792L93.0032 1.42982C93.6685 1.38269 94.3356 1.34223 95.0045 1.3085L95.0171 1.55818C95.6773 1.5249 96.3392 1.49819 97.0028 1.47812L96.9952 1.22824C97.6605 1.20812 98.3274 1.19466 98.996 1.18792L98.9985 1.43791C99.3319 1.43455 99.6658 1.43286 100 1.43286C100.334 1.43286 100.668 1.43455 101.002 1.43791L101.004 1.18792C101.673 1.19466 102.34 1.20812 103.005 1.22824L102.997 1.47812C103.661 1.49819 104.323 1.5249 104.983 1.55818L104.995 1.3085C105.664 1.34223 106.332 1.38269 106.997 1.42982L106.979 1.6792C107.643 1.72621 108.304 1.77987 108.964 1.84012L108.987 1.59115C109.652 1.65186 110.315 1.71924 110.976 1.79322L110.948 2.04167C111.61 2.11579 112.27 2.19655 112.928 2.28389L112.961 2.03607C113.622 2.12369 114.28 2.21792 114.936 2.31868L114.898 2.56578C115.557 2.66707 116.214 2.77498 116.869 2.88944L116.912 2.64317C117.569 2.75792 118.223 2.87924 118.875 3.00705L118.827 3.25238C119.481 3.3805 120.132 3.51516 120.781 3.65629L120.834 3.412C121.486 3.55386 122.136 3.70224 122.783 3.85708L122.725 4.10022C123.371 4.2549 124.016 4.41604 124.657 4.58356L124.72 4.34168C125.366 4.51048 126.01 4.68574 126.651 4.86739L126.583 5.10792C127.222 5.28909 127.859 5.47665 128.493 5.6705L128.566 5.43143C129.205 5.62675 129.84 5.82845 130.473 6.03645L130.395 6.27396C131.027 6.4816 131.656 6.69554 132.282 6.9157L132.365 6.67986C132.994 6.90112 133.62 7.12865 134.244 7.36238L134.156 7.59645C134.779 7.83019 135.399 8.07014 136.016 8.31622L136.109 8.08401C136.727 8.33085 137.343 8.58385 137.955 8.84292L137.858 9.07317C138.471 9.33258 139.081 9.59809 139.688 9.86965L139.79 9.64146C140.398 9.91372 141.003 10.192 141.605 10.4763L141.498 10.7023C142.1 10.9867 142.698 11.277 143.292 11.5732L143.404 11.3495C144.001 11.6467 144.594 11.95 145.184 12.259L145.068 12.4805C145.657 12.7891 146.242 13.1037 146.823 13.424L146.944 13.205C147.528 13.5267 148.109 13.8543 148.686 14.1876L148.56 14.404C149.136 14.7365 149.707 15.0747 150.275 15.4186L150.405 15.2048C150.975 15.5504 151.542 15.9016 152.105 16.2585L151.971 16.4696C152.532 16.8256 153.09 17.1872 153.643 17.5543L153.781 17.3459C154.337 17.7145 154.888 18.0886 155.436 18.4682L155.293 18.6737C155.84 19.0525 156.382 19.4368 156.92 19.8265L157.067 19.624C157.606 20.015 158.142 20.4113 158.673 20.8129L158.522 21.0124C159.053 21.4134 159.579 21.8197 160.101 22.2313L160.255 22.035C160.778 22.4476 161.297 22.8655 161.811 23.2886L161.653 23.4817C162.166 23.9041 162.675 24.3318 163.18 24.7645L163.342 24.5747C163.848 25.0085 164.349 25.4474 164.846 25.8914L164.679 26.0778C165.175 26.5208 165.666 26.9689 166.152 27.4219L166.323 27.239C166.81 27.6932 167.293 28.1524 167.771 28.6164L167.597 28.7958C168.074 29.2587 168.546 29.7265 169.013 30.1991L169.191 30.0233C169.659 30.4972 170.123 30.9758 170.582 31.4592L170.4 31.6313C170.858 32.1134 171.31 32.6002 171.758 33.0916L171.942 32.9233C172.391 33.4159 172.834 33.9132 173.273 34.415L173.085 34.5795C173.522 35.08 173.954 35.585 174.381 36.0945L174.572 35.934C175 36.4446 175.423 36.9596 175.84 37.479L175.645 37.6356C176.062 38.1537 176.472 38.6761 176.878 39.2028L177.076 39.0502C177.483 39.578 177.884 40.1101 178.279 40.6465L178.078 40.7949C178.472 41.3295 178.861 41.8683 179.245 42.4113L179.449 42.2671C179.833 42.8113 180.212 43.3597 180.585 43.9121L180.378 44.0521C180.75 44.6024 181.116 45.1567 181.477 45.7149L181.687 45.5793C182.048 46.139 182.404 46.7027 182.754 47.2702L182.542 47.4015C182.89 47.9666 183.233 48.5356 183.57 49.1083L183.786 48.9815C184.124 49.5556 184.456 50.1334 184.782 50.7149L184.564 50.8372C184.889 51.4165 185.208 51.9995 185.521 52.5861L185.742 52.4683C186.055 53.0556 186.363 53.6465 186.664 54.241L186.441 54.3541C186.742 54.9467 187.037 55.5429 187.325 56.1425L187.551 56.034C187.839 56.6335 188.122 57.2364 188.398 57.8426L188.171 57.9463C188.446 58.551 188.716 59.159 188.979 59.7702L189.209 59.6713C189.472 60.2823 189.729 60.8965 189.98 61.5139L189.748 61.608C189.998 62.2233 190.242 62.8417 190.479 63.4632L190.713 63.374C190.951 63.9959 191.182 64.6208 191.407 65.2488L191.171 65.3331C191.395 65.9578 191.613 66.5854 191.824 67.2159L192.061 67.1366C192.272 67.7685 192.477 68.4034 192.676 69.0411L192.437 69.1155C192.635 69.7483 192.825 70.3838 193.01 71.0221L193.25 70.9528C193.434 71.5928 193.613 72.2355 193.784 72.8808L193.543 72.9451C193.713 73.586 193.877 74.2295 194.035 74.8755L194.278 74.8163C194.435 75.4627 194.586 76.1117 194.73 76.7632L194.486 76.8172C194.63 77.4656 194.767 78.1165 194.897 78.7697L195.143 78.7207C195.273 79.3722 195.396 80.0261 195.513 80.6823L195.267 80.7261C195.383 81.3805 195.493 82.0373 195.596 82.6962L195.843 82.6576C195.946 83.3135 196.042 83.9715 196.131 84.6317L195.883 84.6652C195.972 85.323 196.055 85.9828 196.13 86.6447L196.378 86.6164C196.454 87.2773 196.522 87.9402 196.584 88.6051L196.335 88.6282C196.397 89.2879 196.451 89.9494 196.499 90.6129L196.748 90.5949C196.796 91.26 196.838 91.927 196.872 92.5959L196.622 92.6087C196.656 93.2689 196.683 93.9308 196.704 94.5944L196.954 94.5867Z" stroke="#4D545C" stroke-width="0.5" stroke-dasharray="2 2"/>
<path d="M42.574 189L42.2067 182.311L35.3735 182.555L34.958 190.801L38.4157 194.403L43.5728 190.544L42.574 189Z" fill="white" stroke="#4D545C" stroke-width="0.5" stroke-linejoin="round"/>
<path d="M43.4238 189.772C43.4238 189.772 41.3947 189.731 39.0355 191.534C37.6333 192.605 35.5133 190.393 34.8625 189.823C34.7285 189.707 34.5514 189.823 34.5275 190.018L33.7092 197.49H54.2486C54.4879 197.49 54.6841 197.235 54.6841 196.925L54.6171 196.461C54.5467 195.955 54.347 195.475 54.0361 195.063C53.7252 194.651 53.313 194.32 52.8369 194.102L43.4238 189.772Z" fill="white" stroke="#4D545C" stroke-width="0.5" stroke-linejoin="round"/>
<path d="M46.6947 191.316L43.6983 194.403" stroke="#4D545C" stroke-width="0.5" stroke-linejoin="round"/>
<path d="M8.98002 188.405C9.36434 186.428 11.373 181.824 11.373 181.824L4.42616 180.768L2.12297 190.415L5.71034 194.403L11.1123 191.316C11.1123 191.316 8.5957 190.382 8.98002 188.405Z" fill="white"/>
<path d="M8.98002 188.405C9.36434 186.428 11.373 181.824 11.373 181.824L4.42616 180.768L2.12297 190.415L5.71034 194.403L11.1123 191.316C11.1123 191.316 8.5957 190.382 8.98002 188.405Z" stroke="#4D545C" stroke-width="0.5" stroke-linejoin="round"/>
<path d="M10.5964 189.772C10.5964 189.772 8.59579 189.731 6.26408 191.534C4.87357 192.605 2.77835 190.393 2.13512 189.823C2.00269 189.707 1.8277 189.823 1.80405 190.018L1.00002 197.49H21.2996C21.5313 197.49 21.7252 197.235 21.7252 196.925L21.6827 196.637C21.6055 196.078 21.3868 195.546 21.0465 195.09C20.7062 194.634 20.255 194.269 19.7341 194.028L10.5964 189.772Z" fill="white" stroke="#4D545C" stroke-width="0.5" stroke-linejoin="round"/>
<path d="M13.4842 191.058L10.4878 193.116" stroke="#4D545C" stroke-width="0.5" stroke-linejoin="round"/>
<path d="M41.4126 94.8403C41.4126 94.8403 43.9559 128.104 44.177 137.298C44.3982 146.492 42.7303 183.515 42.7303 183.515L34.1837 183.855C34.1837 183.855 24.7571 118.924 14.4828 96.7568L41.4126 94.8403Z" fill="white" stroke="#4D545C" stroke-width="0.5" stroke-linejoin="round"/>
<path d="M41.2017 94.8403C41.2017 94.8403 35.2412 122.767 29.192 142.529C24.305 158.498 11.1097 183.855 11.1097 183.855L2.49803 183.469L11.8939 143.003C12.4484 140.62 12.7999 138.19 12.9441 135.741C13.4809 126.457 11.7259 107.712 10.9931 95.6711L41.2017 94.8403Z" fill="white" stroke="#4D545C" stroke-width="0.5" stroke-linejoin="round"/>
<path d="M67.9247 63.626C67.9247 63.626 49.4571 79.9799 45.7297 79.3886C42.0023 78.7972 23.0164 45.588 31.277 42.1583C31.277 42.1583 33.162 39.9964 35.16 41.7704C37.158 43.5444 43.0625 47.8114 49.9284 65.9298C49.9284 65.9298 64.2962 57.6323 65.3706 56.7192C65.3706 56.7192 69.508 51.0425 69.5646 52.1731C69.6211 53.3037 67.7975 55.8583 68.2923 55.9576C68.7871 56.057 74.4795 51.8703 74.9743 52.2724C75.4691 52.6745 71.3882 55.0351 71.605 55.1534C71.8218 55.2717 75.9121 53.1381 76.1335 53.597C76.355 54.0559 72.2695 56.1894 72.4344 56.3597C72.5993 56.53 76.52 54.4675 76.6331 54.8081C76.7461 55.1487 73.6502 56.9369 73.3721 57.4572C73.3721 57.4572 76.7414 56.0759 76.9064 56.6483C77.0713 57.2207 67.9247 63.626 67.9247 63.626Z" fill="white" stroke="#4D545C" stroke-width="0.5" stroke-linejoin="round"/>
<path d="M49.6787 64.6567C49.6787 64.6567 38.2324 30.2543 27.4052 39.5908C21.3515 44.8064 40.23 80.6002 44.6003 84.0351L58.9304 73.8618L55.0149 62.6181L49.6787 64.6567Z" fill="white" stroke="#4D545C" stroke-width="0.5" stroke-linejoin="round"/>
<path d="M54.5598 76.8316L51.6882 64.0305" stroke="#4D545C" stroke-width="0.5" stroke-linejoin="round"/>
<path d="M4.0128 51.8503C4.29944 44.1355 17.0827 37.7153 17.0827 37.7153L21.937 35.6994L22.2245 35.6687L26.6943 40.271C27.9472 41.47 29.2279 41.8235 29.7688 40.1229L29.6856 39.2869V37.787L32.5196 38.6755C33.4443 38.7997 37.7254 43.8394 39.1216 46.1753C40.6387 48.7351 41.5025 51.6509 41.632 54.6496L42.7 98.9463L12.0295 101.015C12.0295 101.015 3.57359 63.7019 4.0128 51.8503Z" fill="white" stroke="#4D545C" stroke-width="0.5" stroke-linejoin="round"/>
<path d="M21.9073 34.897C21.9073 34.897 22.3207 42.437 27.1108 59.7114C30.1901 70.8218 32.5803 89.7658 33.6733 99.4038C33.7612 100.181 33.6923 100.968 33.4708 101.717C33.2493 102.466 32.8799 103.162 32.3849 103.762C31.8898 104.362 31.2796 104.854 30.5911 105.209C29.9026 105.563 29.1502 105.772 28.3795 105.823L8.3783 107.189C8.3783 107.189 7.14277 89.1306 7.65599 85.4689C8.16921 81.8071 -5.71619 46.0603 10.0605 39.9686L21.9073 34.897Z" fill="white" stroke="#4D545C" stroke-width="0.5" stroke-linejoin="round"/>
<path d="M31.6749 45.0129L31.771 45.9679L38.9307 99.2376C39.1562 100.919 39.9628 102.469 41.2121 103.624C42.4615 104.778 44.0758 105.464 45.7783 105.564L47.1948 105.646C47.1948 105.646 45.7542 87.176 44.7939 83.3417C41.4325 58.5118 42.9307 52.3759 41.7926 50.0266C40.0303 46.3929 35.8766 38.8007 30.7145 37.9841L31.6749 45.0129Z" fill="white" stroke="#4D545C" stroke-width="0.5" stroke-linejoin="round"/>
<path d="M33.6522 79.3358C33.806 80.1835 33.6522 80.9073 33.2196 80.9465C32.787 80.9856 32.3832 80.2944 32.2583 79.4727C32.1333 78.6511 32.2582 77.8946 32.6812 77.862C33.1042 77.8294 33.4984 78.4815 33.6522 79.3358Z" fill="white" stroke="#4D545C" stroke-width="0.5" stroke-linejoin="round"/>
<path d="M41.7185 12C43.3522 13.2601 42.7854 18.4254 41.1993 20.2406C40.7945 20.8251 40.2166 21.2524 39.5561 21.4556C39.1931 21.7759 38.7561 21.9898 38.2891 22.0757C37.3365 22.1507 36.4792 21.0106 35.7742 19.8805C35.0693 18.7504 32.9164 19.4455 32.5592 19.5605L29.2537 27.4361L28.1915 26.556L28.0868 26.671L27.982 26.781L26.2197 24.7809V24.7159C26.4007 18.4904 27.8248 15.8303 29.4442 14.5802C28.1677 11.4149 37.8985 12.65 41.7185 12ZM27.2913 25.5309L27.6724 25.966C27.5045 25.5875 27.2491 25.2591 26.9294 25.0109L27.2913 25.5309Z" fill="white" stroke="#4D545C" stroke-width="0.5" stroke-linejoin="round"/>
<path d="M26.2183 27.436L21.8485 34.8968L22.3479 38.7558C23.2172 40.3068 28.1123 46.4033 30.0209 42.8836L30.2006 41.2654L32.8354 33.8677L27.8938 27.436C27.4082 27.5848 27.2798 27.4369 26.8426 27.6933C26.6386 27.9094 26.2183 27.436 26.2183 27.436Z" fill="white" stroke="#4D545C" stroke-width="0.5" stroke-linejoin="round"/>
<path d="M28.2613 25.1038C28.2342 25.1434 28.1972 25.1752 28.154 25.1961C28.1107 25.2171 28.0627 25.2263 28.0147 25.223C27.9668 25.2196 27.9205 25.2038 27.8806 25.1771C27.8407 25.1504 27.8085 25.1137 27.7873 25.0707C27.4792 24.4473 26.0146 23.0967 25.0666 24.8676C23.7821 27.2714 26.4885 27.6681 26.5881 28.0789C26.7777 28.9101 27.8205 30.8085 29.5126 32.3622C30.5412 33.3067 32.1006 35.583 33.8544 34.6951C35.6081 33.8073 36.2243 32.4236 39.7034 20.334C39.7034 20.334 39.4759 20.9149 38.5042 20.9432C37.5325 20.9716 37.8454 19.5973 36.9448 18.9881C36.2149 18.5159 32.75 17.0991 30.8493 19.6823C29.9724 20.8724 29.0197 24.1309 28.2613 25.1038Z" fill="white" stroke="#4D545C" stroke-width="0.5" stroke-linejoin="round"/>
<path d="M35.2086 29.848C35.2086 29.848 34.2098 30.0423 32.2122 28.9797C32.2122 28.9797 32.6517 31.8576 33.5556 31.8091C34.4595 31.7605 35.2086 29.848 35.2086 29.848Z" fill="#4D545C"/>
<path d="M35.0763 25.2382C34.8439 25.6602 34.3701 25.9467 34.0305 25.8842C33.6908 25.8217 33.6104 25.4257 33.8428 25.0037C34.0752 24.5817 34.5489 24.2952 34.8885 24.3577C35.2282 24.4202 35.3086 24.8162 35.0763 25.2382Z" fill="white" stroke="#4D545C" stroke-width="0.5" stroke-linejoin="round"/>
<path d="M36.8278 26.0074C36.5888 26.4304 36.1199 26.7195 35.7798 26.6553C35.4396 26.591 35.3569 26.1948 35.5959 25.7772C35.8349 25.3596 36.2946 25.0652 36.6348 25.1294C36.9749 25.1937 37.0577 25.5898 36.8278 26.0074Z" fill="white" stroke="#4D545C" stroke-width="0.5" stroke-linejoin="round"/>
<g style="mix-blend-mode:multiply">
<path d="M41.7061 48.2695C39.7413 44.8956 33.7923 42.3652 31.0634 41.5217L35.1568 72.7304L41.7061 67.6695L42.5248 65.1391L44.9808 61.7652H45.7994L44.9808 65.1391L49.0741 61.7652C47.4368 58.6724 43.6709 51.6434 41.7061 48.2695Z" fill="#EBF0FF"/>
<path d="M52.3488 65.9825L53.9861 64.2956L58.0795 72.7304L44.1621 82.0086L47.4368 104.782C45.7994 103.377 42.1973 100.228 40.8874 98.8781C39.5776 97.5286 37.6128 85.9448 36.7941 80.3216L52.3488 65.9825Z" fill="#EBF0FF"/>
<path d="M34.3381 100.565L38.4314 101.409L40.8874 103.939C41.1603 106.751 41.8698 113.386 42.5248 117.435C43.3434 122.495 40.8874 179.008 40.8874 181.539C40.8874 183.563 37.067 182.945 35.1568 182.382L27.7887 146.956L11.4154 183.226L4.04737 182.382C7.04916 170.292 13.3802 144.763 14.6901 139.365C15.9999 133.967 14.6901 115.185 13.8714 106.469C19.0563 106.469 29.7536 106.132 31.0634 104.782C32.3733 103.433 33.7923 101.409 34.3381 100.565Z" fill="#EBF0FF"/>
</g>
<path d="M34.2095 23.2676C34.7011 22.9774 35.2207 22.9955 35.7077 23.3198" stroke="#4D545C" stroke-width="0.5" stroke-linejoin="round"/>
<path d="M37.7061 24.349C37.3927 24.0805 37.0549 23.9065 36.7072 23.8345" stroke="#4D545C" stroke-width="0.5" stroke-linejoin="round"/>
<path fill-rule="evenodd" clip-rule="evenodd" d="M85.6173 43.5144C93.8388 42.4961 101.329 48.3354 102.347 56.5569L105.795 84.3908C106.813 92.6123 100.974 100.103 92.7523 101.121L50.0326 106.412L40.7606 118.305C40.2128 119.008 39.089 118.698 38.9795 117.814L37.7443 107.841C30.2039 107.934 23.639 102.343 22.6904 94.6839L19.243 66.85C18.2247 58.6285 24.0641 51.1382 32.2855 50.1199L85.6173 43.5144Z" fill="white"/>
<path d="M92.7523 101.121L92.7216 100.873L92.7523 101.121ZM50.0326 106.412L49.8355 106.258L49.8991 106.177L50.0019 106.164L50.0326 106.412ZM40.7606 118.305L40.5634 118.152L40.5634 118.152L40.7606 118.305ZM37.7443 107.841L37.7412 107.591L37.9649 107.588L37.9924 107.81L37.7443 107.841ZM102.099 56.5876C101.098 48.5032 93.7325 42.7612 85.6481 43.7625L85.5866 43.2663C93.9451 42.2311 101.56 48.1677 102.595 56.5262L102.099 56.5876ZM105.547 84.4215L102.099 56.5876L102.595 56.5262L106.043 84.3601L105.547 84.4215ZM92.7216 100.873C100.806 99.8714 106.548 92.506 105.547 84.4215L106.043 84.3601C107.078 92.7186 101.141 100.334 92.783 101.369L92.7216 100.873ZM50.0019 106.164L92.7216 100.873L92.783 101.369L50.0634 106.66L50.0019 106.164ZM40.5634 118.152L49.8355 106.258L50.2298 106.566L40.9578 118.459L40.5634 118.152ZM39.2276 117.783C39.3098 118.446 40.1526 118.679 40.5634 118.152L40.9578 118.459C40.2731 119.337 38.8683 118.949 38.7314 117.844L39.2276 117.783ZM37.9924 107.81L39.2276 117.783L38.7314 117.844L37.4962 107.871L37.9924 107.81ZM22.9385 94.6531C23.8713 102.184 30.3267 107.683 37.7412 107.591L37.7474 108.09C30.0811 108.186 23.4068 102.501 22.4423 94.7146L22.9385 94.6531ZM19.4911 66.8192L22.9385 94.6531L22.4423 94.7146L18.9949 66.8807L19.4911 66.8192ZM32.3162 50.368C24.2318 51.3694 18.4898 58.7348 19.4911 66.8192L18.9949 66.8807C17.9597 58.5222 23.8963 50.9071 32.2548 49.8718L32.3162 50.368ZM85.6481 43.7625L32.3162 50.368L32.2548 49.8718L85.5866 43.2663L85.6481 43.7625Z" fill="#4D545C"/>
<path fill-rule="evenodd" clip-rule="evenodd" d="M84.4208 41.7612C92.6423 40.743 100.133 46.5823 101.151 54.8037L104.598 82.6376C105.617 90.8591 99.7772 98.3494 91.5558 99.3677L48.8358 104.659L39.5638 116.552C39.0161 117.255 37.8923 116.945 37.7828 116.06L36.5475 106.087C29.0072 106.181 22.4425 100.589 21.4939 92.9307L18.0465 65.0968C17.0282 56.8753 22.8675 49.3851 31.089 48.3668L84.4208 41.7612Z" fill="#CDF4D7"/>
<path d="M70.644 106.056C71.3733 105.305 70.231 102.041 69.2648 100.071C69.1697 99.8767 68.9815 99.7349 68.913 99.9398C68.6319 100.781 68.6011 104.07 68.1933 103.673C67.7033 103.197 65.2211 97.9082 64.7308 97.4316C64.3386 97.0503 64.9374 101.467 65.7761 104.199C64.9483 102.436 63.0025 98.8188 61.8352 98.4509C60.3761 97.991 65.3085 105.662 63.8384 104.233C62.3684 102.803 59.9183 100.422 59.9293 101.391C59.9364 102.025 61.6957 104.832 63.0554 106.882C63.5224 107.586 64.4457 107.816 65.1954 107.426C65.5886 107.222 66.0452 107.195 66.4835 107.261C66.9626 107.332 67.4991 107.33 67.7476 107.074C68.2768 106.53 69.233 106.648 69.9698 106.466C70.1914 106.411 70.421 106.285 70.644 106.056Z" fill="white"/>
<path d="M70.644 106.056C71.3733 105.305 70.231 102.041 69.2648 100.071C69.1697 99.8767 68.9815 99.7349 68.913 99.9398C68.6319 100.781 68.6011 104.07 68.1933 103.673C67.7033 103.197 65.2211 97.9082 64.7308 97.4316C64.3386 97.0503 64.9374 101.467 65.7761 104.199C64.9483 102.436 63.0025 98.8188 61.8352 98.4509C60.3761 97.991 65.3085 105.662 63.8384 104.233C62.3684 102.803 59.9183 100.422 59.9293 101.391C59.9364 102.025 61.6957 104.832 63.0554 106.882C63.5224 107.586 64.4457 107.816 65.1954 107.426C65.5886 107.222 66.0452 107.195 66.4835 107.261C66.9626 107.332 67.4991 107.33 67.7476 107.074C68.2768 106.53 69.233 106.648 69.9698 106.466C70.1914 106.411 70.421 106.285 70.644 106.056Z" stroke="#4D545C" stroke-width="0.5" stroke-linecap="round"/>
<path d="M29.7477 68.4807L88.2985 61.2288" stroke="#4D545C" stroke-width="0.5" stroke-linecap="round"/>
<path d="M30.4493 74.147L89.0001 66.895" stroke="#4D545C" stroke-width="0.5" stroke-linecap="round"/>
<path d="M31.2628 80.7119L89.8136 73.46" stroke="#4D545C" stroke-width="0.5" stroke-linecap="round"/>
<path d="M31.9646 86.3782L61.24 82.7522" stroke="#4D545C" stroke-width="0.5" stroke-linecap="round"/>
<path d="M44.3924 65.6726C44.3924 65.6726 46.1948 62.5098 45.6951 61.8882C45.1954 61.2666 42.9947 64.5672 42.5288 66.0346C42.3579 66.6072 42.2261 67.191 42.1342 67.782L31.2425 76.0312C29.8163 76.958 28.97 77.1028 28.4899 75.23C27.0351 69.539 20.7026 58.1908 20.617 58.0508L8.48927 67.9702L20.598 88.2435C21.9767 90.7535 26.5217 90.7776 28.4851 88.7841C35.7637 81.3844 50.2305 67.7433 51.0767 66.9421C51.5521 66.4835 52.8738 64.9485 52.7644 64.6879C52.5172 64.1038 49.8311 67.1351 49.912 66.9372C49.9928 66.7393 53.3682 63.6018 53.178 63.1191C52.8928 62.3999 49.1703 65.967 49.1038 66.0153C48.1149 66.8793 52.793 62.7474 52.7074 62.202C52.6218 61.6565 50.3684 63.3846 50.2875 63.4473C50.2875 63.4473 48.4382 65.0499 48.2956 64.9292C48.1529 64.8085 51.3097 60.2712 50.7534 60.1843C50.1972 60.0974 48.0769 62.7571 47.4256 63.4039C46.7742 64.0507 44.2213 66.2084 44.3924 65.6726Z" fill="white"/>
<path d="M44.3924 65.6726C44.3924 65.6726 46.1948 62.5098 45.6951 61.8882C45.1954 61.2666 42.9947 64.5672 42.5288 66.0346C42.3579 66.6072 42.2261 67.191 42.1342 67.782L31.2425 76.0312C29.8163 76.958 28.97 77.1028 28.4899 75.23C27.0351 69.539 20.7026 58.1908 20.617 58.0508L8.48927 67.9702L20.598 88.2435C21.9767 90.7535 26.5217 90.7776 28.4851 88.7841C35.7637 81.3844 50.2305 67.7433 51.0767 66.9421C51.5521 66.4835 52.8738 64.9485 52.7644 64.6879C52.5172 64.1038 49.8311 67.1351 49.912 66.9372C49.9928 66.7393 53.3682 63.6018 53.178 63.1191C52.8928 62.3999 49.1703 65.967 49.1038 66.0153C48.1149 66.8793 52.793 62.7474 52.7074 62.202C52.6218 61.6565 50.3684 63.3846 50.2875 63.4473C50.2875 63.4473 48.4382 65.0499 48.2956 64.9292C48.1529 64.8085 51.3097 60.2712 50.7534 60.1843C50.1972 60.0974 48.0769 62.7571 47.4256 63.4039C46.7742 64.0507 44.2213 66.2084 44.3924 65.6726Z" stroke="#4D545C" stroke-width="0.5" stroke-linejoin="round"/>
<path d="M18.0857 48.0514C18.0857 48.0514 14.6282 37.7402 8.26729 42.1825C1.58784 46.8547 1.80479 65.3182 15.7038 87.3912C18.8658 92.3984 28.5965 93.3079 32.5524 89.0044L36.7069 86.4481L32.9679 74.1359L30.5398 75.6438L18.0857 48.0514Z" fill="white" stroke="#4D545C" stroke-width="0.5" stroke-linejoin="round"/>
<g style="mix-blend-mode:multiply">
<path d="M33.5182 87.9128L31.8809 73.5737L30.2436 74.4172L19.4105 55.8351L23.6942 44.8955L22.0569 37.3042C17.6907 38.71 8.30327 41.859 5.68353 43.2085C3.0638 44.5581 2.40886 55.0172 2.40886 60.0781L7.32087 84.5389L8.9582 107.313C16.0533 106.469 25.1704 108.109 25.8254 106.085C26.4803 104.061 19.6834 94.7443 19.4105 91.6516L33.5182 87.9128Z" fill="#EBF0FF"/>
</g>
<path d="M29.2159 74.9628C29.2159 75.3187 31.0886 90.2094 31.0886 90.2094L36.7069 86.4958L32.9146 73.2297L29.2159 74.9628Z" fill="white" stroke="#4D545C" stroke-width="0.5" stroke-linejoin="round"/>
<path d="M1.49968 191.831C1.49968 191.831 6.4924 192.827 6.9931 197.49" stroke="#4D545C" stroke-width="0.5" stroke-linejoin="round"/>
<path d="M18.9772 193.631C18.9772 193.631 14.0982 193.869 14.5069 197.49Z" fill="white"/>
<path d="M18.9772 193.631C18.9772 193.631 14.0982 193.869 14.5069 197.49" stroke="#4D545C" stroke-width="0.5" stroke-linejoin="round"/>
<path d="M34.4597 192.087C34.4597 192.087 39.2259 193.039 39.7034 197.49Z" fill="white"/>
<path d="M34.4597 192.087C34.4597 192.087 39.2259 193.039 39.7034 197.49" stroke="#4D545C" stroke-width="0.5" stroke-linejoin="round"/>
<path d="M51.1895 193.374C51.1895 193.374 46.8578 193.628 47.2152 197.49Z" fill="white"/>
<path d="M51.1895 193.374C51.1895 193.374 46.8578 193.628 47.2152 197.49" stroke="#4D545C" stroke-width="0.5" stroke-linejoin="round"/>
<path d="M34.9589 26.793L35.2086 28.9797L34.085 28.7225" stroke="#4D545C" stroke-width="0.5" stroke-linejoin="round"/>
<path d="M126.257 128.447C126.257 111.815 130.588 94.5897 132.753 88.0559L149.641 95.7777C149.122 101.005 140.547 121.121 137.949 130.823C141.138 146.86 138.422 175.371 135.823 187.845L122.537 193.285L129.446 182.124C131.572 174.152 126.257 149.236 126.257 128.447Z" fill="white"/>
<path d="M126.257 128.447C126.257 111.815 130.588 94.5897 132.753 88.0559L149.641 95.7777C149.122 101.005 140.547 121.121 137.949 130.823C141.138 146.86 138.422 175.371 135.823 187.845L122.537 193.285L129.446 182.124C131.572 174.152 126.257 149.236 126.257 128.447Z" stroke="#4D545C" stroke-width="0.5"/>
<path d="M151.851 129.06C145.348 113.752 142.599 96.2046 142.037 89.3443L160.601 89.8483C162.166 94.8625 162.139 116.73 163.541 126.675C172.746 140.189 181.394 167.493 183.879 179.99L173.777 190.191L175.772 177.217C174.612 169.049 159.979 148.194 151.851 129.06Z" fill="white"/>
<path d="M151.851 129.06C145.348 113.752 142.599 96.2046 142.037 89.3443L160.601 89.8483C162.166 94.8625 162.139 116.73 163.541 126.675C172.746 140.189 181.394 167.493 183.879 179.99L173.777 190.191L175.772 177.217C174.612 169.049 159.979 148.194 151.851 129.06Z" stroke="#4D545C" stroke-width="0.5"/>
<path d="M135.13 36.2029C134.965 34.8839 139.31 19.1744 139.934 18.0098C141.57 14.9559 149.058 14.3498 152.296 16.4294C157.547 19.7804 165.636 35.0146 163.999 39.0073L135.13 36.2029Z" fill="white" stroke="#4D545C" stroke-width="0.5" stroke-linecap="round" stroke-linejoin="round"/>
<path d="M150.791 27.1148C150.787 27.1556 150.792 27.1966 150.805 27.2353C150.818 27.274 150.839 27.3094 150.866 27.3395C150.892 27.3695 150.925 27.3934 150.961 27.4098C150.997 27.4261 151.036 27.4344 151.076 27.4343C151.783 27.4343 153.357 27.2805 153.631 29.1737C153.678 29.9378 153.43 30.6899 152.942 31.2647C152.455 31.8394 151.767 32.1896 151.03 32.2382C150.722 32.2382 150.015 32.3211 149.809 32.5577C149.171 33.2795 148.874 34.8532 148.372 36.8174C148.027 37.9756 148.055 39.2192 148.452 40.3594C148.849 41.4997 149.594 42.4744 150.574 43.1358C150.574 43.1358 139.623 48.7207 139.726 43.1358C139.726 43.1358 140.593 32.8299 140.536 32.7825C139.68 31.8951 136.361 31.5165 138.448 24.1686C139.406 20.8082 141.072 19.2226 142.657 18.5127" fill="white"/>
<path d="M150.791 27.1148C150.787 27.1556 150.792 27.1966 150.805 27.2353C150.818 27.274 150.839 27.3094 150.866 27.3395C150.892 27.3695 150.925 27.3934 150.961 27.4098C150.997 27.4261 151.036 27.4344 151.076 27.4343C151.783 27.4343 153.357 27.2805 153.631 29.1737C153.678 29.9378 153.43 30.6899 152.942 31.2647C152.455 31.8394 151.767 32.1896 151.03 32.2382C150.722 32.2382 150.015 32.3211 149.809 32.5577C149.171 33.2795 148.874 34.8532 148.372 36.8174C148.027 37.9756 148.055 39.2192 148.452 40.3594C148.849 41.4997 149.594 42.4744 150.574 43.1358C150.574 43.1358 139.623 48.7207 139.726 43.1358C139.726 43.1358 140.593 32.8299 140.536 32.7825C139.68 31.8951 136.361 31.5165 138.448 24.1686C139.406 20.8082 141.072 19.2226 142.657 18.5127" stroke="#4D545C" stroke-width="0.5" stroke-linecap="round" stroke-linejoin="round"/>
<path d="M144.38 17.1907C144.38 17.1907 146.396 27.1936 148.876 28.2313C151.619 29.4379 152.609 26.2577 152.636 25.4689" fill="white"/>
<path d="M144.38 17.1907C144.38 17.1907 146.396 27.1936 148.876 28.2313C151.619 29.4379 152.609 26.2577 152.636 25.4689" stroke="#4D545C" stroke-width="0.5" stroke-linecap="round" stroke-linejoin="round"/>
<path d="M141.147 27.1072L140.414 26.6994L141.736 24.4628M142.728 23.8017C143.058 23.9118 143.719 23.8017 144.38 24.4628M141.736 23.4711C141.674 23.3087 141.469 22.9335 141.147 22.7317" stroke="#4D545C" stroke-width="0.5" stroke-linecap="round" stroke-linejoin="round"/>
<path d="M143.106 25.8676C142.984 26.0539 142.773 26.1711 142.64 26.1366C142.507 26.1021 142.474 25.9228 142.64 25.7435C142.807 25.5642 142.962 25.44 143.106 25.4745C143.25 25.509 143.217 25.6883 143.106 25.8676Z" fill="#4D545C" stroke="#4D545C" stroke-width="0.5" stroke-linecap="round" stroke-linejoin="round"/>
<path d="M140.981 24.8545C140.867 25.0326 140.662 25.1536 140.525 25.118C140.388 25.0824 140.365 24.9115 140.525 24.7263C140.684 24.5412 140.844 24.4343 140.981 24.4699C141.117 24.5056 141.094 24.6765 140.981 24.8545Z" fill="#4D545C" stroke="#4D545C" stroke-width="0.5" stroke-linecap="round" stroke-linejoin="round"/>
<path d="M139.2 27.1072C139.2 27.1072 138.822 28.7206 139.48 28.987C139.866 29.1063 140.274 29.1227 140.668 29.0349C141.062 28.9471 141.429 28.7578 141.736 28.4838L139.2 27.1072Z" fill="#4D545C"/>
<path d="M150.661 33.7184C151.574 33.7184 152.314 32.9784 152.314 32.0656C152.314 31.1528 151.574 30.4128 150.661 30.4128C149.749 30.4128 149.009 31.1528 149.009 32.0656C149.009 32.9784 149.749 33.7184 150.661 33.7184Z" fill="white" stroke="#4D545C" stroke-width="0.5" stroke-linecap="round" stroke-linejoin="round"/>
<path d="M127.32 105.151C127.32 90.4891 134.063 77.9025 135.909 73.3699C142.623 70.4139 155.749 69.2315 158.569 76.326C161.389 83.4205 165.64 98.2536 166.648 105.151L162.648 106.668C162.057 106.892 161.395 106.609 161.147 106.028C160.687 104.947 159.1 105.133 158.903 106.292L158.781 107.005C158.661 107.711 158.023 108.211 157.308 108.158L142.642 107.069L127.32 105.151Z" fill="white"/>
<path d="M137.42 72.7787L135.909 73.3699M135.909 73.3699C134.063 77.9025 127.32 90.4891 127.32 105.151L142.642 107.069L157.308 108.158C158.023 108.211 158.661 107.711 158.781 107.005L158.903 106.292C159.1 105.133 160.687 104.947 161.147 106.028V106.028C161.395 106.609 162.057 106.892 162.648 106.668L166.648 105.151C165.64 98.2536 161.389 83.4205 158.569 76.326C155.749 69.2315 142.623 70.4139 135.909 73.3699Z" stroke="#4D545C" stroke-width="0.5"/>
<g style="mix-blend-mode:multiply">
<path d="M129.446 103.202C129.446 89.3782 135.46 77.5109 137.107 73.2373C143.095 70.4502 154.802 69.3354 157.318 76.0244C159.833 82.7135 163.624 96.699 164.523 103.202L160.982 104.622C160.446 104.836 159.838 104.577 159.622 104.041C159.226 103.057 157.786 103.219 157.617 104.266L157.501 104.988C157.397 105.63 156.818 106.086 156.169 106.035L143.113 105.01L129.446 103.202Z" fill="#FDE8EC"/>
</g>
<path d="M107.866 61.7356C107.866 61.7356 131.998 78.1549 134.744 74.0471C134.744 74.0471 145.343 73.4739 138.589 61.7356C138.285 60.9939 138.815 56.5706 138.589 55.8007C138.589 55.8007 139.024 44.619 140.075 41.2874C140.192 40.9292 139.173 40.9337 139.079 40.9934C132.407 41.7696 132.348 57.58 125.956 63.3118C125.722 63.5268 110.121 56.5172 110.121 56.5172C110.121 56.5172 101.006 50.6182 100.772 51.2511C100.41 52.1705 104.115 54.929 104.115 54.929C104.098 55.2563 103.965 55.5662 103.741 55.8007C103.547 55.9896 103.404 56.2257 103.324 56.4868C103.244 56.7479 103.231 57.0255 103.285 57.2934C103.367 57.974 102.888 58.5831 102.911 58.9891C102.934 59.3951 106.218 61.2818 107.866 61.7356Z" fill="white" stroke="#4D545C" stroke-width="0.5" stroke-linecap="round" stroke-linejoin="round"/>
<path d="M103.391 57.8154C104.122 58.1046 104.903 58.3203 105.714 58.4566C105.9 58.4832 106.092 58.4832 106.279 58.4566C106.373 58.4462 106.462 58.4175 106.535 58.3736C106.609 58.3297 106.665 58.2722 106.697 58.2072" stroke="#4D545C" stroke-width="0.5" stroke-linecap="round" stroke-linejoin="round"/>
<path d="M103.443 59.1631C104.174 59.4523 104.955 59.668 105.766 59.8042C105.952 59.8309 106.144 59.8309 106.331 59.8042C106.425 59.7938 106.514 59.7652 106.587 59.7213C106.661 59.6774 106.717 59.6199 106.749 59.5549" stroke="#4D545C" stroke-width="0.5" stroke-linecap="round" stroke-linejoin="round"/>
<path d="M103.443 56.4673C104.174 56.7565 104.955 56.9722 105.766 57.1084C105.952 57.1351 106.144 57.1351 106.331 57.1084C106.425 57.098 106.514 57.0694 106.587 57.0255C106.661 56.9816 106.717 56.9241 106.749 56.8591" stroke="#4D545C" stroke-width="0.5" stroke-linecap="round" stroke-linejoin="round"/>
<path d="M139.922 40.3293C140.112 40.7735 132.259 56.1094 132.485 60.4811C132.712 64.8528 135.775 72.2635 135.536 72.9298C135.536 72.9298 139.004 75.6183 158.179 72.6493C164.066 67.5997 158.894 50.4403 156.904 44.9582C156.904 44.9582 151.684 44.2218 149.479 41.5801C149.551 41.5801 140.959 48.0674 139.922 40.3293Z" fill="white" stroke="#4D545C" stroke-width="0.5" stroke-linecap="round" stroke-linejoin="round"/>
<g style="mix-blend-mode:multiply">
<path d="M141.159 42.3503C141.323 42.7704 134.569 57.2745 134.764 61.409C134.959 65.5435 137.593 72.5523 137.388 73.1825C137.388 73.1825 140.37 75.7251 156.86 72.9172C161.923 68.1414 157.475 51.9128 155.763 46.7281C155.763 46.7281 151.274 46.0316 149.378 43.5332C149.44 43.5332 142.051 49.6687 141.159 42.3503Z" fill="#FDE8EC"/>
</g>
<path d="M136.447 67.4346V69.6551L139.092 70.7401L136.447 67.4346Z" fill="white" stroke="#4D545C" stroke-width="0.5" stroke-linecap="round" stroke-linejoin="round"/>
<path d="M140.795 32.9926C141.885 33.3902 143.345 33.1481 144.502 32.9926C145.658 32.8371 146.754 32.4043 147.686 31.7349" stroke="#4D545C" stroke-width="0.5" stroke-linecap="round" stroke-linejoin="round"/>
<path d="M109.406 56.7118C109.406 56.7118 106.735 53.9656 106.245 54.2307C105.755 54.4957 103.795 56.1498 104.162 56.9238C104.53 57.6979 106.319 56.3831 106.319 56.3831C106.319 56.3831 106.711 58.281 107.825 58.175C108.94 58.069 109.406 56.7118 109.406 56.7118Z" fill="white" stroke="#4D545C" stroke-width="0.5" stroke-linecap="round" stroke-linejoin="round"/>
<path d="M126.787 197.536H115.096C114.919 196.65 115.096 194.773 117.222 194.347C119.348 193.922 124.13 190.627 126.256 189.033L133.165 181.592L137.948 178.935L134.228 197.536C133.519 194.879 131.889 189.671 131.039 190.096C130.189 190.521 128.382 195.233 126.787 197.536Z" fill="white"/>
<path d="M126.787 197.536H115.096C114.919 196.65 115.096 194.773 117.222 194.347C119.348 193.922 124.13 190.627 126.256 189.033L133.165 181.592L137.948 178.935L134.228 197.536C133.519 194.879 131.889 189.671 131.039 190.096C130.189 190.521 128.382 195.233 126.787 197.536Z" stroke="#4D545C" stroke-width="0.5"/>
<path d="M179.351 192.442L168.591 197.013C168.081 196.267 167.51 194.47 169.301 193.247C171.091 192.025 174.205 187.122 175.537 184.824L178.987 175.274L182.351 170.958L186.199 189.533C184.508 187.364 180.972 183.208 180.355 183.932C179.739 184.656 179.918 189.699 179.351 192.442Z" fill="white"/>
<path d="M179.351 192.442L168.591 197.013C168.081 196.267 167.51 194.47 169.301 193.247C171.091 192.025 174.205 187.122 175.537 184.824L178.987 175.274L182.351 170.958L186.199 189.533C184.508 187.364 180.972 183.208 180.355 183.932C179.739 184.656 179.918 189.699 179.351 192.442Z" stroke="#4D545C" stroke-width="0.5"/>
<path fill-rule="evenodd" clip-rule="evenodd" d="M103.533 54.1028C96.2591 50.1378 87.1483 52.8201 83.1833 60.0939L69.9217 84.4224C65.9568 91.6962 68.6391 100.807 75.9129 104.772L113.412 125.213L117.642 139.582C117.894 140.436 119.053 140.56 119.479 139.778L124.259 131.01C131.222 133.816 139.338 131.02 143.018 124.268L156.28 99.9392C160.245 92.6655 157.563 83.5546 150.289 79.5897L103.533 54.1028Z" fill="white"/>
<path d="M75.9129 104.772L76.0325 104.553L75.9129 104.772ZM113.412 125.213L113.652 125.142L113.622 125.043L113.531 124.993L113.412 125.213ZM117.642 139.582L117.402 139.652L117.402 139.652L117.642 139.582ZM124.259 131.01L124.352 130.778L124.146 130.695L124.039 130.89L124.259 131.01ZM143.018 124.268L143.238 124.387L143.018 124.268ZM156.28 99.9392L156.06 99.8196L156.28 99.9392ZM83.4028 60.2136C87.3017 53.061 96.2607 50.4234 103.413 54.3223L103.653 53.8833C96.2575 49.8522 86.9949 52.5793 82.9638 59.9743L83.4028 60.2136ZM70.1413 84.5421L83.4028 60.2136L82.9638 59.9743L69.7022 84.3028L70.1413 84.5421ZM76.0325 104.553C68.88 100.654 66.2424 91.6947 70.1413 84.5421L69.7022 84.3028C65.6712 91.6978 68.3982 100.96 75.7932 104.992L76.0325 104.553ZM113.531 124.993L76.0325 104.553L75.7932 104.992L113.292 125.432L113.531 124.993ZM117.882 139.511L113.652 125.142L113.172 125.283L117.402 139.652L117.882 139.511ZM119.26 139.658C118.94 140.245 118.071 140.152 117.882 139.511L117.402 139.652C117.717 140.72 119.166 140.875 119.699 139.897L119.26 139.658ZM124.039 130.89L119.26 139.658L119.699 139.897L124.478 131.13L124.039 130.89ZM142.799 124.148C139.18 130.788 131.2 133.537 124.352 130.778L124.165 131.242C131.245 134.094 139.496 131.252 143.238 124.387L142.799 124.148ZM156.06 99.8196L142.799 124.148L143.238 124.387L156.499 100.059L156.06 99.8196ZM150.169 79.8092C157.322 83.7081 159.959 92.667 156.06 99.8196L156.499 100.059C160.53 92.6639 157.803 83.4012 150.408 79.3701L150.169 79.8092ZM103.413 54.3223L150.169 79.8092L150.408 79.3701L103.653 53.8833L103.413 54.3223Z" fill="#4D545C"/>
<path fill-rule="evenodd" clip-rule="evenodd" d="M103.001 49.5296C95.727 45.5646 86.6162 48.2469 82.6512 55.5207L69.3896 79.8492C65.4247 87.123 68.107 96.2338 75.3808 100.199L112.88 120.64L117.11 135.008C117.362 135.863 118.521 135.987 118.947 135.205L123.727 126.437C130.69 129.242 138.805 126.447 142.486 119.695L155.748 95.366C159.713 88.0922 157.03 78.9814 149.757 75.0164L103.001 49.5296Z" fill="#FFEBC2"/>
<path d="M92.2332 66.0759L143.733 94.1488" stroke="#4D545C" stroke-width="0.5" stroke-linecap="round"/>
<path d="M89.5162 71.0598L141.016 99.1326" stroke="#4D545C" stroke-width="0.5" stroke-linecap="round"/>
<path d="M86.2596 77L137.76 105.073" stroke="#4D545C" stroke-width="0.5" stroke-linecap="round"/>
<path d="M83.6533 81.8181L109.403 95.8545" stroke="#4D545C" stroke-width="0.5" stroke-linecap="round"/>
<path d="M164.523 75.3007C161.334 79.5524 137.137 75.3742 131.785 73.4853C131.175 73.2676 129.382 72.4539 129.44 72.1903C129.44 71.5944 133.062 73.1759 132.957 73.0269C132.851 72.8779 128.514 71.4798 128.514 70.987C128.514 70.265 133.285 71.9153 133.367 71.9382C134.609 72.2935 128.749 70.5286 128.62 70.0358C128.491 69.5431 131.222 70.1504 131.327 70.1734C132.088 70.4265 132.874 70.5994 133.672 70.6891C133.754 70.5401 129.147 67.8355 129.639 67.549C130.132 67.2625 133.648 68.8784 134.481 69.1878C135.25 69.4914 136.091 69.5749 136.907 69.4285C137.177 69.268 136.907 67.9501 136.344 67.4344C137.475 67.9257 138.513 68.5999 139.415 69.4285C139.786 69.8566 140.126 70.3084 140.435 70.7807L156.551 70.987L151.768 55.1053C151.768 55.1053 151.768 46.6019 157.082 45.0076C162.397 43.4132 164.523 75.3007 164.523 75.3007Z" fill="white" stroke="#4D545C" stroke-width="0.5" stroke-linecap="round" stroke-linejoin="round"/>
</svg>
