<svg width="60" height="60" viewBox="0 0 60 60" fill="none" xmlns="http://www.w3.org/2000/svg">
<path d="M60 30C60 37.7913 59.3296 45.2661 58.1084 52.1551C57.5693 55.1965 55.1965 57.5693 52.1551 58.1084C45.2661 59.3296 37.7913 60 30 60C22.2087 60 14.7339 59.3296 7.84494 58.1084C4.80346 57.5693 2.43074 55.1965 1.89159 52.1551C0.670412 45.2661 0 37.7913 0 30C0 22.2062 0.670829 14.7479 1.89273 7.84952C2.43186 4.80582 4.80544 2.43028 7.84909 1.89086C14.7369 0.670144 22.2102 0 30 0C37.7898 0 45.2631 0.670144 52.1509 1.89086C55.1946 2.43028 57.5681 4.80581 58.1073 7.84951C59.3292 14.7479 60 22.2062 60 30Z" fill="white"/>
<path d="M19 22.0002L19 38.0005C19 39.6573 20.3431 41.0005 22 41.0005L38 41.0005C39.6569 41.0005 41 39.6573 41 38.0005L41 22.0002C41 20.3434 39.6569 19.0002 38 19.0002L22 19.0002C20.3431 19.0002 19 20.3434 19 22.0002Z" stroke="#E68205" stroke-width="1.5"/>
<path d="M30.2257 23.2144L31.6816 26.2654C31.9367 26.8 32.445 27.1693 33.0323 27.2467L36.3839 27.6885C36.5924 27.716 36.6759 27.9729 36.5233 28.1177L34.0715 30.4452C33.6419 30.853 33.4478 31.4505 33.5556 32.033L34.1711 35.3571C34.2094 35.5638 33.9909 35.7226 33.8061 35.6223L30.8349 34.0097C30.3142 33.7271 29.686 33.7271 29.1653 34.0097L26.1941 35.6223C26.0093 35.7226 25.7908 35.5638 25.8291 35.3571L26.4446 32.033C26.5524 31.4505 26.3583 30.853 25.9287 30.4452L23.4768 28.1177C23.3243 27.9729 23.4078 27.716 23.6163 27.6885L26.9679 27.2467C27.5552 27.1693 28.0635 26.8 28.3186 26.2654L29.7745 23.2144C29.865 23.0246 30.1352 23.0246 30.2257 23.2144Z" stroke="#E68205" stroke-width="1.5"/>
</svg>
