<svg width="24" height="24" viewBox="0 0 24 24" fill="none" xmlns="http://www.w3.org/2000/svg">
<rect width="24" height="24" rx="8" fill="#E7DAFD"/>
<path d="M11.5625 16.125C11.8177 16.125 12.0273 16.207 12.1914 16.3711C12.3555 16.5352 12.4375 16.7448 12.4375 17C12.4375 17.2552 12.3555 17.4648 12.1914 17.6289C12.0273 17.793 11.8177 17.875 11.5625 17.875C11.3073 17.875 11.0977 17.793 10.9336 17.6289C10.7695 17.4648 10.6875 17.2552 10.6875 17C10.6875 16.7448 10.7695 16.5352 10.9336 16.3711C11.0977 16.207 11.3073 16.125 11.5625 16.125ZM13.3945 5.625C14.2331 5.64323 14.9349 5.9349 15.5 6.5C16.0651 7.0651 16.3568 7.76693 16.375 8.60547C16.375 9.17057 16.2292 9.68099 15.9375 10.1367C15.6641 10.5924 15.2812 10.957 14.7891 11.2305L12.793 12.2695C12.4284 12.4883 12.237 12.8164 12.2188 13.2539V13.7188C12.1823 14.1198 11.9635 14.3385 11.5625 14.375C11.1615 14.3385 10.9427 14.1198 10.9062 13.7188V13.2539C10.9245 12.306 11.3529 11.5951 12.1914 11.1211L14.1875 10.082C14.7526 9.75391 15.0443 9.26172 15.0625 8.60547C15.0443 8.13151 14.8802 7.73958 14.5703 7.42969C14.2604 7.11979 13.8685 6.95573 13.3945 6.9375H10.4688C10.0312 6.95573 9.66667 7.10156 9.375 7.375C9.10156 7.66667 8.95573 8.03125 8.9375 8.46875V8.90625C8.90104 9.30729 8.68229 9.52604 8.28125 9.5625C7.88021 9.52604 7.66146 9.30729 7.625 8.90625V8.46875C7.64323 7.66667 7.91667 6.99219 8.44531 6.44531C8.99219 5.91667 9.66667 5.64323 10.4688 5.625H13.3945Z" fill="#7B40DC"/>
</svg>
