<svg width="24" height="24" viewBox="0 0 24 24" fill="none" xmlns="http://www.w3.org/2000/svg">
<path d="M20 3.99976L4 3.99976" stroke="#10295E" stroke-width="1.5" stroke-linecap="round"/>
<path d="M20 6.99976H4" stroke="#10295E" stroke-width="1.5" stroke-linecap="round"/>
<path d="M20 9.99976H4" stroke="#10295E" stroke-width="1.5" stroke-linecap="round"/>
<path d="M1 14L7.15284 13.9998C7.6417 13.9998 8.0589 14.3532 8.13927 14.8354L8.36073 16.1642C8.4411 16.6463 8.85829 16.9998 9.34713 16.9998H14.6529C15.1417 16.9998 15.5589 16.6463 15.6393 16.1642L15.8607 14.8354C15.9411 14.3532 16.3583 13.9998 16.8471 13.9998H23M1 14L1.85796 2.84637C1.93811 1.80437 2.80699 0.999756 3.85207 0.999756L20.1479 0.999756C21.193 0.999756 22.0619 1.80437 22.142 2.84636L23 13.9998M1 14L1.70348 20.3313C1.87229 21.8506 3.15648 23 4.68513 23H19.3149C20.8435 23 22.1277 21.8506 22.2965 20.3313L23 13.9998" stroke="#10295E" stroke-width="1.5" stroke-linecap="round"/>
</svg>
