<svg width="60" height="60" viewBox="0 0 60 60" fill="none" xmlns="http://www.w3.org/2000/svg">
<path d="M60 30C60 37.7913 59.3296 45.2661 58.1084 52.1551C57.5693 55.1965 55.1965 57.5693 52.1551 58.1084C45.2661 59.3296 37.7913 60 30 60C22.2087 60 14.7339 59.3296 7.84494 58.1084C4.80346 57.5693 2.43074 55.1965 1.89159 52.1551C0.670413 45.2661 0 37.7913 0 30C0 22.2062 0.670829 14.7479 1.89273 7.84952C2.43186 4.80582 4.80544 2.43028 7.84909 1.89086C14.7369 0.670144 22.2102 0 30 0C37.7898 0 45.2631 0.670144 52.1509 1.89086C55.1946 2.43028 57.5681 4.80581 58.1073 7.84951C59.3292 14.7479 60 22.2062 60 30Z" fill="white"/>
<path d="M24 19L24.7085 27.213C24.8034 28.3122 25.348 29.3234 26.2135 30.0075L30 33L33.7865 30.0075C34.652 29.3234 35.1966 28.3122 35.2915 27.213L36 19L24 19Z" stroke="#E68205" stroke-width="1.5" stroke-linejoin="round"/>
<path d="M30 33L30 38" stroke="#E68205" stroke-width="1.5"/>
<path d="M36 21H41C41 24.1667 39.6 30.4 34 30" stroke="#E68205" stroke-width="1.5" stroke-linecap="round" stroke-linejoin="round"/>
<path d="M24 21H19C19 24.1667 20.4 30.4 26 30" stroke="#E68205" stroke-width="1.5" stroke-linecap="round" stroke-linejoin="round"/>
<path d="M27 38H33L34 41H26L27 38Z" stroke="#E68205" stroke-width="1.5" stroke-linecap="round" stroke-linejoin="round"/>
</svg>
