<svg width="24" height="24" viewBox="0 0 24 24" fill="none" xmlns="http://www.w3.org/2000/svg">
<rect width="24" height="24" rx="8" fill="#FFF0CC"/>
<path d="M17.625 8.75C18.2344 8.75 18.75 9.26562 18.75 9.875V14.375C18.75 15.0078 18.2344 15.5 17.625 15.5H8.625C7.99219 15.5 7.5 15.0078 7.5 14.375V8.375C7.5 7.76562 7.99219 7.25 8.625 7.25H11.625L13.125 8.75H17.625ZM15.9375 17.75C16.2422 17.75 16.5 17.5156 16.5 17.1875C16.5 16.8828 16.2422 16.625 15.9375 16.625H8.0625C7.125 16.625 6.375 15.875 6.375 14.9375V9.3125C6.375 9.00781 6.11719 8.75 5.8125 8.75C5.48438 8.75 5.25 9.00781 5.25 9.3125V14.9375C5.25 16.5078 6.49219 17.75 8.0625 17.75H15.9375Z" fill="#E6A200"/>
</svg>
