<svg width="205" height="205" viewBox="0 0 205 205" fill="none" xmlns="http://www.w3.org/2000/svg">
<g id="Group 1000001101">
<path id="Vector 172" opacity="0.5" d="M191.676 24.3438H195.519V20.5H198.082V24.3438H201.926V26.9062H198.082V30.75H195.519V26.9062H191.676V24.3438Z" stroke="#4D545C" stroke-width="0.5"/>
<path id="Vector 177" opacity="0.5" d="M191.676 5.89062H195.519V2.04688H198.082V5.89062H201.926V8.45312H198.082V12.2969H195.519V8.45312H191.676V5.89062Z" stroke="#4D545C" stroke-width="0.5"/>
<rect id="Rectangle 3463454" x="18.7007" y="63.8008" width="169.65" height="123.525" rx="3.75" fill="white" stroke="#4D545C" stroke-width="0.5"/>
<g id="Rectangle 3463456">
<path d="M1.02393 181.398C1.02393 180.846 1.47164 180.398 2.02393 180.398H203.999C204.551 180.398 204.999 180.846 204.999 181.398V185.673C204.999 188.987 202.313 191.673 198.999 191.673H7.02393C3.71022 191.673 1.02393 188.987 1.02393 185.673V181.398Z" fill="white"/>
<path d="M1.27393 181.398C1.27393 180.984 1.60971 180.648 2.02393 180.648H203.999C204.413 180.648 204.749 180.984 204.749 181.398V185.673C204.749 188.849 202.175 191.423 198.999 191.423H7.02393C3.84829 191.423 1.27393 188.849 1.27393 185.673V181.398Z" stroke="#4D545C" stroke-width="0.5"/>
</g>
<rect id="Rectangle 3463412" opacity="0.5" x="28.9502" y="14.0977" width="5.65" height="5.65" transform="rotate(-90 28.9502 14.0977)" stroke="#4D545C" stroke-width="0.5"/>
<rect id="Rectangle 3463463" opacity="0.5" x="17.6736" y="14.0977" width="5.65" height="5.65" transform="rotate(-90 17.6736 14.0977)" stroke="#4D545C" stroke-width="0.5"/>
<rect id="Rectangle 3463464" opacity="0.5" x="6.40015" y="14.0977" width="5.65" height="5.65" transform="rotate(-90 6.40015 14.0977)" stroke="#4D545C" stroke-width="0.5"/>
<path id="Vector 176" d="M80.9741 181.039C80.9741 182.534 81.7634 185.523 84.9204 185.523C88.0774 185.523 105.403 185.523 121.564 185.523C123.067 185.523 126.074 184.498 126.074 180.398" stroke="#4D545C" stroke-width="0.5"/>
<g id="Group 631690">
<path id="Vector 374" d="M13.487 88.9703L90.1594 54.3711" stroke="#47494B" stroke-width="0.5"/>
<path id="Vector 375" d="M10.2521 90.3625L67.6521 64.5781" stroke="#47494B" stroke-width="3"/>
<path id="Ellipse 397" d="M88.4019 45.6125C88.402 59.3437 99.5333 70.475 113.264 70.475C126.996 70.475 138.127 59.3437 138.127 45.6125C138.127 31.8813 126.996 20.75 113.264 20.75C99.5333 20.75 88.4019 31.8813 88.4019 45.6125Z" fill="white" stroke="#47494B" stroke-width="0.5"/>
<g id="Ellipse 398" style="mix-blend-mode:multiply">
<ellipse cx="23.0625" cy="23.0625" rx="23.0625" ry="23.0625" transform="matrix(-1 8.74228e-08 8.74228e-08 1 136.326 22.5547)" fill="#F1F7FF"/>
</g>
<g id="Group 1000002314">
<path id="Vector" d="M80.1009 57.1518C79.2708 62.7315 68.9576 83.3488 65.7657 83.8808C62.5737 84.4127 52.9462 65.9483 52.9462 65.9483C52.9462 65.9483 47.6793 48.4 52.9991 48.774C58.3188 49.1479 65.2337 75.37 65.2337 75.37L73.703 63.4919C73.4318 63.001 73.1935 62.4917 72.9895 61.9675C72.6812 60.7901 72.7645 59.6207 73.8014 58.4295C74.8382 57.2384 73.8897 59.9265 74.1559 59.7643C74.4115 58.9801 74.9642 57.3597 75.1307 57.1518C75.3388 56.8919 75.8513 56.3794 76.3638 56.8919C76.7055 56.7211 77.7754 56.663 78.0873 57.1518C78.0873 57.1518 79.2254 55.3617 80.1009 57.1518Z" fill="white" stroke="#4D545C" stroke-width="0.5" stroke-linecap="round" stroke-linejoin="round"/>
<g id="Group 631689">
<path id="Vector_2" d="M42.9417 183.685L44.1326 191.888C44.1326 191.888 46.038 197.322 47.8006 195.213C48.8332 193.988 50.0356 192.908 51.3732 192.004L51.9568 183.465L42.9417 183.685Z" fill="white" stroke="#4D545C" stroke-width="0.5" stroke-linecap="round" stroke-linejoin="round"/>
<g id="Vector_3">
<path d="M40.9778 198.892C40.9009 195.706 41.3685 193.323 41.7998 190.163C41.8432 190.037 41.9246 189.926 42.0334 189.845C42.1423 189.764 42.2736 189.716 42.4106 189.708C42.5456 189.682 42.6849 189.687 42.8178 189.721C42.9507 189.755 43.0739 189.818 43.1781 189.905C44.1021 190.786 45.6042 193.435 48.0648 192.656C49.0749 192.336 50.6136 191.591 51.4946 191.015C51.6606 190.897 51.8608 190.834 52.0662 190.834C52.2717 190.834 52.4718 190.897 52.6379 191.015L60.3279 194.627C60.8929 194.856 61.3685 195.252 61.6865 195.759C62.0045 196.267 62.1484 196.859 62.0977 197.45C62.0037 198.589 61.8548 198.892 61.4946 198.892H40.9778Z" fill="white"/>
<path d="M42.4572 189.953C42.4468 189.955 42.4363 189.957 42.4257 189.957C42.3367 189.963 42.2522 189.994 42.1829 190.045C42.1197 190.092 42.072 190.155 42.0438 190.224C41.9651 190.8 41.8855 191.348 41.8083 191.88C41.4729 194.191 41.1844 196.179 41.2229 198.642H61.4946C61.5482 198.642 61.5709 198.632 61.5842 198.622C61.6002 198.611 61.6309 198.582 61.6664 198.499C61.7422 198.324 61.8014 198.002 61.8486 197.43L61.8486 197.429C61.8947 196.892 61.7641 196.354 61.4747 195.892C61.1852 195.43 60.7512 195.068 60.234 194.858L60.2339 194.859L60.2216 194.853L52.5316 191.241C52.5183 191.235 52.5057 191.227 52.4937 191.219C52.3703 191.132 52.2206 191.084 52.0662 191.084C51.9118 191.084 51.7622 191.132 51.6388 191.219L51.6388 191.219L51.6314 191.224C50.7327 191.812 49.1736 192.567 48.1403 192.894C46.7958 193.32 45.7171 192.798 44.8838 192.094C44.4687 191.743 44.1069 191.341 43.7958 190.979C43.7208 190.892 43.6494 190.807 43.5812 190.727C43.3629 190.469 43.1776 190.251 43.0118 190.092C42.9378 190.032 42.8503 189.987 42.7555 189.963C42.6582 189.938 42.5561 189.935 42.4572 189.953Z" stroke="#4D545C" stroke-width="0.5" stroke-linecap="round" stroke-linejoin="round"/>
</g>
<path id="Vector_4" d="M41.3788 196.965H53.1252" stroke="#4D545C" stroke-width="0.5" stroke-linecap="round" stroke-linejoin="round"/>
<path id="Vector_5" d="M15.2554 183.496L12.7902 190.957C12.7902 190.957 10.9273 192.521 10.2469 192.479C9.01987 192.405 8.35699 191.344 8.35699 191.344L8.3729 184.334L15.2554 183.496Z" fill="white" stroke="#4D545C" stroke-width="0.5" stroke-linecap="round" stroke-linejoin="round"/>
<path id="Vector_6" d="M6.23783 193.018C6.23818 193.023 6.23835 193.028 6.23835 193.034V195.736H15.3807V193.034C15.3807 193.029 15.3809 193.023 15.3812 193.018C15.4614 191.726 15.1233 190.453 14.4484 189.472C13.7771 188.498 12.8324 187.898 11.8243 187.777H9.79427C8.7851 187.894 7.8386 188.493 7.16671 189.468C6.49121 190.449 6.15434 191.725 6.23783 193.018Z" fill="white" stroke="#4D545C" stroke-width="0.5" stroke-linecap="round" stroke-linejoin="round"/>
<path id="Vector_7" d="M5.38876 196.175C5.3893 196.182 5.38957 196.188 5.38957 196.195V198.647H15.9566V196.195C15.9566 196.189 15.9568 196.182 15.9573 196.176C16.0478 195.014 15.6675 193.862 14.8966 192.97C14.128 192.08 13.0321 191.518 11.843 191.406H9.50281C8.31226 191.515 7.21419 192.075 6.44491 192.966C5.67347 193.859 5.29458 195.012 5.38876 196.175Z" fill="white" stroke="#4D545C" stroke-width="0.5" stroke-linecap="round" stroke-linejoin="round"/>
<path id="Vector_8" d="M12.8433 196.551H5.80895" stroke="#4D545C" stroke-width="0.5" stroke-linecap="round" stroke-linejoin="round"/>
<path id="Vector_9" d="M26.517 59.3999C26.517 59.3999 29.5655 49.7695 25.9128 50.3366C19.8212 51.3119 14.7692 64.6328 17.435 83.0845C18.2971 89.0839 42.6067 83.2433 42.6067 83.2433L39.2056 81.756L24.1001 78.7349L26.517 59.3999Z" fill="white" stroke="#4D545C" stroke-width="0.5" stroke-linecap="round" stroke-linejoin="round"/>
<path id="Vector_10" d="M29.2786 76.6891C26.2869 81.8268 24.0856 87.3858 22.7488 93.1792C20.6826 101.276 9.1413 169.691 8.17097 184.389C10.8141 184.803 13.4988 184.883 16.162 184.628C21.2876 169.943 36.482 122.482 38.6852 113.221C38.7544 112.929 38.9301 112.675 39.1778 112.506C39.4254 112.338 39.727 112.268 40.0233 112.311C40.3196 112.354 40.5891 112.507 40.7788 112.738C40.9685 112.97 41.0646 113.264 41.0483 113.563C39.7925 124.138 41.7446 167.076 42.7492 184.88C44.0849 185.565 50.4777 185.439 52.0188 185.245C53.6969 167.122 62.6126 98.4551 49.1534 76.2438C42.9775 75.3987 35.5345 76.5064 29.2786 76.6891Z" fill="white" stroke="#4D545C" stroke-width="0.5" stroke-linecap="round" stroke-linejoin="round"/>
<path id="Vector_11" d="M42.2971 179.605H52.6001" stroke="#4D545C" stroke-width="0.5" stroke-linecap="round" stroke-linejoin="round"/>
<path id="Vector_12" d="M8.6818 179.531H17.8711" stroke="#4D545C" stroke-width="0.5" stroke-linecap="round" stroke-linejoin="round"/>
<g id="Vector_13" style="mix-blend-mode:multiply">
<path d="M50.1941 80.417C50.1941 80.417 60.6529 114.078 51.5879 177.561H43.2024C43.2024 177.561 42.1543 110.455 41.4286 109.555C40.7029 108.654 15.6618 177.561 15.6618 177.561H9.33821C9.33821 177.561 24.7296 84.4078 28.9339 79.3369C29.1412 79.0862 35.7586 82.6424 42.8309 81.1496L50.1941 80.417Z" fill="#F1F7FF"/>
</g>
<g id="Vector 329">
<path d="M25.3093 50.3384C28.6929 49.8551 32.3585 48.9286 33.7684 48.5258C35.702 47.0757 34.574 39.8653 33.7684 36.4414H44.0399C43.4357 39.4625 42.7106 45.9881 44.6441 47.9216C47.061 50.3384 52.9391 48.1975 53.1032 48.5258C54.3116 50.9427 51.8948 72.6945 50.6863 76.9241C49.4779 81.1536 25.3093 79.9452 26.5177 76.3199C27.7262 72.6945 21.0798 50.9427 25.3093 50.3384Z" fill="white"/>
<path d="M25.3093 50.3384C28.6929 49.8551 32.3585 48.9286 33.7684 48.5258C35.702 47.0757 34.574 39.8653 33.7684 36.4414H44.0399C43.4357 39.4625 42.7106 45.9881 44.6441 47.9216C47.061 50.3384 52.9391 48.1975 53.1032 48.5258C54.3116 50.9427 51.8948 72.6945 50.6863 76.9241C49.4779 81.1536 25.3093 79.9452 26.5177 76.3199C27.7262 72.6945 21.0798 50.9427 25.3093 50.3384Z" stroke="#4D545C" stroke-width="0.5" stroke-linecap="round"/>
</g>
<g id="Vector_14">
<path d="M46.4358 27.0265C46.4358 27.0265 50.4295 31.827 48.5023 36.7949C46.6707 38.9607 44.5232 40.4085 44.1878 39.8843" fill="white"/>
<path d="M46.4358 27.0265C46.4358 27.0265 50.4295 31.827 48.5023 36.7949C46.6707 38.9607 44.5232 40.4085 44.1878 39.8843" stroke="#4D545C" stroke-width="0.5" stroke-linecap="round" stroke-linejoin="round"/>
</g>
<path id="Vector_15" d="M50.8706 38.1381C48.27 33.8827 48.1675 22.2006 47.6442 21.202C46.2721 18.5833 39.1501 17.5697 36.4353 19.3529C32.0324 22.2264 31.3999 30.3879 27.4661 39.2069C27.4661 39.2069 28.3901 42.9254 38.9087 42.9254C49.4273 42.9254 50.8706 38.1381 50.8706 38.1381Z" fill="white" stroke="#4D545C" stroke-width="0.5" stroke-linecap="round" stroke-linejoin="round"/>
<path id="Vector 331" d="M25.9119 83.5703C30.3428 85.1816 41.0173 87.679 48.268 84.7788" stroke="#4D545C" stroke-width="0.5" stroke-linecap="round" stroke-linejoin="round" stroke-dasharray="2 2"/>
<path id="Vector 332" d="M25.9128 88.4023L24.1001 96.8614L33.1634 98.6741L34.3718 89.6108" stroke="#4D545C" stroke-width="0.5" stroke-linecap="round" stroke-linejoin="round" stroke-dasharray="2 2"/>
<path id="Vector 333" d="M49.4779 88.4023L51.2905 96.8614L42.2272 98.6741L41.0188 89.6108" stroke="#4D545C" stroke-width="0.5" stroke-linecap="round" stroke-linejoin="round" stroke-dasharray="2 2"/>
</g>
<path id="Vector 334" d="M29.5947 49.9185C31.8052 53.6015 38.5168 58.6349 47.68 49.3047" stroke="#4D545C" stroke-width="0.5" stroke-linecap="round"/>
<g id="Vector 336" style="mix-blend-mode:multiply">
<path d="M29.0621 51.4365C28.211 50.5854 25.8706 51.4365 24.8067 51.9684C23.5301 53.6706 24.984 63.3161 25.8706 67.926C27.4661 71.1176 26.7217 76.7559 27.9983 78.0325C29.2749 79.3091 43.424 77.8552 50.3389 76.9687L52.4666 56.7557C53.8851 52.1457 54.9135 44.6279 47.6793 51.4365C38.6367 59.9472 30.126 52.5003 29.0621 51.4365Z" fill="#FDF0E4"/>
</g>
</g>
</g>
<g id="Group 631668">
<g id="Group 631680">
<g id="Group 625775">
<g id="Group 625773">
<g id="Group 54108">
<path id="Vector_16" d="M155.552 67.817C158.4 62.0119 161.97 56.5991 166.177 51.7104C167.801 49.5846 170.115 51.2717 170.115 51.2717C176.067 52.3965 170.749 68.7843 165.509 79.9194C162.412 75.7041 159.088 71.6639 155.552 67.817Z" fill="white" stroke="#4D545C" stroke-width="0.5" stroke-linecap="round" stroke-linejoin="round"/>
<path id="Vector_17" d="M167.934 76.1005C170.446 75.6255 174.556 59.9512 173.063 57.1805C173.063 57.1805 165.329 52.7248 164.831 53.2224C159.817 58.2888 167.934 76.1005 167.934 76.1005Z" fill="white" stroke="#4D545C" stroke-width="0.5" stroke-linecap="round" stroke-linejoin="round"/>
<path id="Vector_18" d="M159.087 191.681L159.224 184.32L166.374 184.866L166.191 191.932L162.851 197.688L156.826 193.092L159.087 191.681Z" fill="white" stroke="#4D545C" stroke-width="0.5" stroke-linecap="round" stroke-linejoin="round"/>
<path id="Vector_19" d="M157.865 190.943C159.187 192.457 160.632 193.847 162.183 195.1C163.63 196.241 165.789 191.34 166.455 190.727C166.593 190.607 166.776 190.727 166.799 190.943L167.649 198.955H146.462C146.393 198.951 146.326 198.932 146.265 198.899C146.203 198.865 146.15 198.819 146.107 198.762C146.065 198.705 146.035 198.639 146.019 198.569C146.003 198.499 146.001 198.426 146.014 198.355C147.14 192.397 157.865 190.943 157.865 190.943Z" fill="white" stroke="#4D545C" stroke-width="0.5" stroke-linecap="round" stroke-linejoin="round"/>
<path id="Vector_20" d="M155.252 197.545C155.252 197.545 153.954 193.754 151.098 193.117M146.232 197.685H167.648" stroke="#4D545C" stroke-width="0.5" stroke-linecap="round" stroke-linejoin="round"/>
<path id="Vector_21" d="M167.012 193.234L162.556 197.69" stroke="#4D545C" stroke-width="0.5" stroke-linecap="round" stroke-linejoin="round"/>
<path id="Vector_22" d="M192.18 192.507L189.93 185.237L197.792 184.957L199.479 192.647L196.562 197.689L190.422 192.974L192.18 192.507Z" fill="white" stroke="#4D545C" stroke-width="0.5" stroke-linecap="round" stroke-linejoin="round"/>
<path id="Vector_23" d="M191.891 191.576C193.17 193.093 194.573 194.484 196.082 195.732C197.486 196.933 199.581 191.984 200.239 191.372C200.362 191.252 200.551 191.372 200.573 191.588L201.387 199.6H180.823C180.756 199.594 180.69 199.574 180.631 199.539C180.571 199.504 180.519 199.456 180.478 199.398C180.437 199.341 180.408 199.274 180.393 199.203C180.377 199.132 180.376 199.059 180.389 198.987C181.503 193.041 191.891 191.576 191.891 191.576Z" fill="white" stroke="#4D545C" stroke-width="0.5" stroke-linecap="round" stroke-linejoin="round"/>
<path id="Vector_24" d="M189.072 198.181C189.072 198.181 187.852 194.402 185.165 193.766M180.623 198.321H201.063" stroke="#4D545C" stroke-width="0.5" stroke-linecap="round" stroke-linejoin="round"/>
<path id="Vector_25" d="M200.753 193.863L196.297 198.319" stroke="#4D545C" stroke-width="0.5" stroke-linecap="round" stroke-linejoin="round"/>
<path id="Vector_26" d="M159.108 100.293C159.108 100.293 156.443 132.455 156.206 141.373C155.97 150.292 158.219 184.958 158.219 184.958H167.138C167.138 184.958 176.574 123.638 187.381 102.231L159.108 100.293Z" fill="white" stroke="#4D545C" stroke-width="0.5" stroke-linecap="round" stroke-linejoin="round"/>
<path id="Vector_27" d="M168.547 185.657L157.893 185.44L157.265 179.168H169.594L168.547 185.657Z" fill="white" stroke="#4D545C" stroke-width="0.5" stroke-linecap="round" stroke-linejoin="round"/>
<path id="Vector_28" d="M158.739 100.293C158.739 100.293 165.041 127.103 171.435 146.06C176.601 161.391 190.296 185.595 190.296 185.595L199.48 185.198L189.745 146.513C189.144 144.227 188.76 141.89 188.597 139.533C188.024 130.627 189.883 112.633 190.652 101.097L158.739 100.293Z" fill="white" stroke="#4D545C" stroke-width="0.5" stroke-linecap="round" stroke-linejoin="round"/>
<path id="Vector_29" d="M200.091 185.657L189.709 186.306L186.464 179.799L199.264 179.168L200.091 185.657Z" fill="white" stroke="#4D545C" stroke-width="0.5" stroke-linecap="round" stroke-linejoin="round"/>
<path id="Vector_30" d="M183.211 43.9231C183.211 43.9231 197.233 45.3508 198.115 56.988C198.998 68.6251 193.17 116.839 193.17 116.839L154.919 114.392L158.529 59.7301C158.666 56.7745 159.576 53.9068 161.166 51.413C162.637 49.1468 164.357 46.5293 165.33 46.4046L181.061 42.3594L183.211 43.9231Z" fill="white" stroke="#4D545C" stroke-width="0.5" stroke-linecap="round" stroke-linejoin="round"/>
<path id="Vector_31" d="M180.991 86.9478C179.842 86.7885 164.647 87.2762 154.579 85.0099C151.808 84.3798 151.076 80.0057 152.063 77.3777L159.685 54.3817L172.306 59.8747C168.844 64.4201 167.944 70.3403 166.429 75.3708C165.881 77.1727 165.697 76.7021 167.335 77.2594L181.181 80.1855C181.912 80.145 182.635 80.017 183.336 79.8042C184.758 79.5112 186.222 79.5005 187.645 79.7727L184.706 80.9606C184.203 81.1506 184.349 81.4003 185.367 81.702L191.888 83.5975C191.888 83.5975 193.184 84.2555 192.242 84.235C191.3 84.2144 188.396 83.8556 188.291 83.8427C186.521 83.5001 192.647 84.9875 192.296 85.4025C191.944 85.8175 188.202 85.1861 188.203 85.2744C188.204 85.3627 191.97 86.305 191.657 86.7078C191.344 87.1106 187.94 86.3308 187.854 86.2757C187.768 86.2205 190.683 86.763 190.529 86.9882C190.375 87.2135 181.669 87.0607 180.991 86.9478Z" fill="white" stroke="#4D545C" stroke-width="0.5" stroke-linecap="round" stroke-linejoin="round"/>
<path id="Vector_32" d="M178.805 34.1301L182.928 45.0696L179.819 46.5985C175.104 48.3198 170.857 47.2326 170.196 45.2961L170.822 38.7618L177.427 32.8164C177.844 33.0997 178.226 33.4303 178.566 33.8017C178.629 33.9224 178.709 34.0331 178.805 34.1301Z" fill="white" stroke="#4D545C" stroke-width="0.5" stroke-linecap="round" stroke-linejoin="round"/>
<path id="Vector_33" d="M166.191 22.7663C166.076 24.9219 167.908 24.0779 167.908 24.0779C171.589 26.5646 175.114 29.2688 178.466 32.1758C178.466 32.1758 180.621 31.788 180.644 31.252C180.748 27.1574 180.494 22.2074 180.494 22.2074C180.878 21.9512 181.188 21.5989 181.39 21.1862C181.592 20.7736 181.681 20.3153 181.646 19.8579C181.646 19.8579 181.209 18.1243 179.71 18.3752C179.797 18.0934 179.801 17.7934 179.724 17.5091C179.646 17.2248 179.49 16.9677 179.272 16.767C179.049 16.607 178.775 16.5316 178.5 16.5547C178.225 16.5777 177.967 16.6976 177.774 16.8925C177.735 16.3095 177.508 15.7543 177.126 15.3087C176.745 14.8631 176.228 14.5507 175.653 14.4175C175.073 14.2846 174.463 14.3538 173.928 14.6135C173.393 14.8732 172.964 15.3075 172.714 15.8432C172.714 15.8432 172.334 14.7939 171.712 14.8509C171.089 14.9079 170.836 15.9002 170.836 15.9002C170.816 15.6721 170.745 15.4513 170.629 15.2534C170.512 15.0556 170.353 14.8857 170.163 14.7559C169.972 14.6262 169.755 14.5398 169.526 14.503C169.298 14.4662 169.064 14.4798 168.842 14.5429C166.963 14.7939 166.848 16.9495 166.848 16.9495C166.828 16.8485 166.788 16.7527 166.728 16.6684C166.668 16.5842 166.591 16.5133 166.502 16.4606C166.413 16.4078 166.313 16.3743 166.21 16.3622C166.107 16.3502 166.002 16.3599 165.903 16.3906C164.75 16.5845 164.163 17.9418 165.223 19.242C164.964 19.4451 164.759 19.7088 164.629 20.0094C164.498 20.3101 164.445 20.6382 164.474 20.9642C164.508 22.139 166.191 22.7663 166.191 22.7663Z" fill="white" stroke="#4D545C" stroke-width="0.5" stroke-linecap="round" stroke-linejoin="round"/>
<path id="Vector_34" d="M178.471 30.0591C178.489 30.1064 178.518 30.1486 178.556 30.1819C178.595 30.2151 178.641 30.2384 178.69 30.2496C178.74 30.2608 178.791 30.2596 178.84 30.2461C178.889 30.2325 178.934 30.2071 178.971 30.1721C179.505 29.6524 180.572 28.9293 180.958 31.0194C181.469 33.8439 178.505 33.3581 178.267 33.7422C177.79 34.5105 176.245 37.1316 173.951 38.1145C173.138 38.494 172.231 38.6256 171.344 38.4929C170.457 38.3602 169.629 37.9691 168.965 37.3689C167.431 35.9114 166.591 37.6287 167.227 22.0375C167.349 22.4111 167.614 22.722 167.965 22.9036C168.315 23.0852 168.723 23.1231 169.101 23.0092C170.134 22.7945 170.963 21.8794 172.099 21.6082C172.553 21.4236 173.04 21.3384 173.53 21.3583C174.019 21.3783 174.499 21.5029 174.935 21.7238C175.372 21.9447 175.755 22.2566 176.06 22.6383C176.364 23.02 176.582 23.4625 176.699 23.9356C177.199 25.4495 178.005 28.9293 178.471 30.0591Z" fill="white" stroke="#4D545C" stroke-width="0.5" stroke-linecap="round" stroke-linejoin="round"/>
<path id="Vector_35" d="M170.632 34.4612C169.537 34.3265 169.329 34.5824 168.357 35.0708C168.357 35.0708 169.165 33.7424 170.121 33.8743C171.078 34.0062 170.632 34.4612 170.632 34.4612Z" fill="#4D545C"/>
<path id="Vector_36" d="M169.559 28.9901C169.559 29.3405 169.703 29.6325 169.872 29.6325C170.04 29.6325 170.196 29.3405 170.196 28.9901C170.196 28.6397 170.052 28.3594 169.872 28.3594C169.691 28.3594 169.559 28.6397 169.559 28.9901Z" fill="#4D545C"/>
<path id="Vector_37" d="M167.649 28.9901C167.649 29.3522 167.794 29.6325 167.974 29.6325C168.154 29.6325 168.286 29.3522 168.286 28.9901C168.286 28.628 168.142 28.3594 167.974 28.3594C167.806 28.3594 167.649 28.6397 167.649 28.9901Z" fill="#4D545C"/>
<path id="Vector_38" d="M168.77 30.2687L167.968 32.0277V32.1081L168.923 32.1784M169.241 26.7675C169.665 26.6614 170.578 26.4492 170.832 26.4492M168.286 26.7675L167.649 26.4492" stroke="#4D545C" stroke-width="0.5" stroke-linecap="round" stroke-linejoin="round"/>
<g id="Vector 95" style="mix-blend-mode:multiply">
<path d="M156.114 113.967L157.696 90.1131L165.607 89.4684H177.8C182.357 88.179 190.078 88.2865 191.239 83.3438L195.352 85.6002L192.188 116.546L156.114 113.967Z" fill="#E8F8EC"/>
</g>
</g>
<path id="Vector_39" d="M159.743 52.0254C159.743 52.0254 163.864 43.1182 170.732 47.3157C172.302 53.5952 171.908 72.5237 168.148 76.7327L153.005 68.2689L159.743 52.0254Z" fill="white" stroke="#4D545C" stroke-width="0.5" stroke-linecap="round" stroke-linejoin="round"/>
<path id="Vector_40" d="M165.917 48.1508C166.059 49.3016 165.579 77.2503 167.696 87.3512C168.286 90.1307 175.939 86.7293 178.581 85.7813L190.016 78.4262L195.089 54.5891C194.93 54.643 185.203 64.7176 180.151 66.1579C178.341 66.6797 176.759 70.1594 176.226 68.5127L172.681 48.0598C172.733 47.3302 172.871 46.609 173.094 45.9116C173.408 44.494 173.441 43.03 173.189 41.6026L171.958 44.5246C171.761 45.0246 171.513 44.8752 171.227 43.8524L169.427 37.3041C169.427 37.3041 168.789 35.999 168.795 36.941C168.802 37.883 169.118 40.7917 169.129 40.8976C169.446 42.672 168.049 36.5244 167.629 36.8698C167.209 37.2152 167.785 40.9666 167.696 40.9644C167.608 40.9622 166.721 37.1828 166.314 37.4894C165.907 37.796 166.636 41.2113 166.69 41.298C166.744 41.3847 166.245 38.4628 166.017 38.6133C165.79 38.7639 165.814 47.4711 165.917 48.1508Z" fill="white" stroke="#4D545C" stroke-width="0.5" stroke-linecap="round" stroke-linejoin="round"/>
<path id="Vector_41" d="M184.863 52.8124C184.863 52.8124 188.785 45.7478 195.85 48.1027C205.885 52.984 194.28 79.5001 188.785 81.8549L177.012 68.5112L184.863 52.8124Z" fill="white" stroke="#4D545C" stroke-width="0.5" stroke-linecap="round" stroke-linejoin="round"/>
</g>
<path id="Vector 299" d="M166.025 73.2195L155.036 67.725C159.431 52.0262 163.67 48.1016 165.24 48.1016L166.025 73.2195Z" fill="#E8F8EC"/>
<g id="Vector 300" style="mix-blend-mode:multiply">
<path d="M185.648 44.9648C183.136 48.1046 176.229 48.8895 173.089 48.8895L176.229 66.9431L177.799 69.2979L188.788 81.0719C195.852 73.2226 198.207 59.8786 198.207 54.3841C198.207 48.8895 192.713 48.1046 191.928 47.3197C191.3 46.6917 187.48 45.4881 185.648 44.9648Z" fill="#E8F8EC"/>
</g>
</g>
</g>
</g>
</g>
</svg>
