<svg width="41" height="40" viewBox="0 0 41 40" fill="none" xmlns="http://www.w3.org/2000/svg">
<rect x="0.5" width="40" height="40" rx="8" fill="#D1F7F0"/>
<path d="M27.2812 23.5391C27.2812 24.1851 26.8506 24.7388 26.2969 24.9541V26.9844H26.7891C27.0352 26.9844 27.2812 27.2305 27.2812 27.4766C27.2812 27.7534 27.0352 27.9688 26.7891 27.9688H15.4688C14.3613 27.9688 13.5 27.1074 13.5 26V14.6797C13.5 13.3262 14.5767 12.2188 15.9609 12.2188H25.8047C26.6045 12.2188 27.2812 12.8955 27.2812 13.6953V23.5391ZM14.4844 14.6797V24.3081C14.7612 24.1543 15.0996 24.0312 15.4688 24.0312H16.4531V13.2031H15.9609C15.1304 13.2031 14.4844 13.8799 14.4844 14.6797ZM25.3125 26.9844V25.0156H15.4688C14.915 25.0156 14.4844 25.4771 14.4844 26C14.4844 26.5537 14.915 26.9844 15.4688 26.9844H25.3125ZM25.8047 24.0312C26.0508 24.0312 26.2969 23.8159 26.2969 23.5391V13.6953C26.2969 13.4492 26.0508 13.2031 25.8047 13.2031H17.4375V24.0312H25.8047ZM24.3281 16.1562C24.5742 16.1562 24.8203 16.4023 24.8203 16.6484C24.8203 16.9253 24.5742 17.1406 24.3281 17.1406H19.4062C19.1294 17.1406 18.9141 16.9253 18.9141 16.6484C18.9141 16.4023 19.1294 16.1562 19.4062 16.1562H24.3281ZM24.3281 19.1094C24.5742 19.1094 24.8203 19.3555 24.8203 19.6016C24.8203 19.8784 24.5742 20.0938 24.3281 20.0938H19.4062C19.1294 20.0938 18.9141 19.8784 18.9141 19.6016C18.9141 19.3555 19.1294 19.1094 19.4062 19.1094H24.3281Z" fill="#15C2A0"/>
</svg>
