<svg width="41" height="40" viewBox="0 0 41 40" fill="none" xmlns="http://www.w3.org/2000/svg">
<rect x="0.5" width="40" height="40" rx="8" fill="#FFE9CD"/>
<path d="M14.1606 13.2646C14.3452 13.3569 14.4683 13.603 14.4067 13.8184C14.3452 14.0337 14.1606 14.1875 13.9453 14.1875C13.853 14.1875 13.7915 14.1875 13.6992 14.1567L11.7305 13.2031C11.4844 13.0801 11.3921 12.7725 11.5151 12.5264C11.6382 12.2803 11.9458 12.2188 12.1919 12.311L14.1606 13.2646ZM13.9453 21.0781C14.1606 21.0781 14.3452 21.2627 14.4067 21.478C14.4683 21.6626 14.3452 21.9087 14.1606 22.001L12.1919 22.9546C11.9458 23.0776 11.6382 22.9546 11.5151 22.7393C11.3921 22.4932 11.4844 22.1855 11.7305 22.0625L13.6992 21.1089C13.7915 21.0781 13.853 21.0781 13.9453 21.0781ZM26.7422 14.1875C26.4961 14.1875 26.3115 14.0337 26.25 13.8184C26.1885 13.603 26.3115 13.3569 26.4961 13.2646L28.4648 12.311C28.7109 12.188 29.0186 12.311 29.1416 12.5264C29.2646 12.7725 29.1724 13.0801 28.9263 13.2031L26.9575 14.1567C26.8652 14.1875 26.8037 14.1875 26.7422 14.1875ZM13.4531 17.6328C13.4531 17.9097 13.207 18.125 12.9609 18.125H10.9922C10.7153 18.125 10.5 17.8481 10.5 17.6021C10.5 17.356 10.7153 17.1406 10.9922 17.1406H12.9609C13.207 17.1406 13.4531 17.3867 13.4531 17.6328ZM29.6953 17.1406C29.9414 17.1406 30.1875 17.356 30.1875 17.6021C30.1875 17.8481 29.9414 18.0635 29.6953 18.0635H27.7266C27.4497 18.0635 27.2344 17.8481 27.2344 17.6021C27.2344 17.356 27.4497 17.1406 27.7266 17.1406H29.6953ZM28.9263 22.124C29.1724 22.2471 29.2646 22.5547 29.1416 22.8008C29.0186 23.0469 28.7109 23.1392 28.4648 23.0161L26.4961 22.0625C26.25 21.9395 26.1577 21.6318 26.2808 21.3857C26.4038 21.1396 26.7114 21.0781 26.9575 21.1704L28.9263 22.124ZM20.313 12.2495C21.728 12.188 23.1123 12.8032 24.1274 13.8184C25.1733 14.8335 25.7578 16.2178 25.7578 17.6943C25.7578 19.0171 25.2656 20.2783 24.4043 21.2935C24.0044 21.7549 23.2969 22.8008 23.0508 23.6621C23.02 23.9082 22.8047 24.062 22.5586 24.062C22.5586 24.062 22.5278 24.062 22.4971 24.062C22.2202 24.0312 22.0356 23.7544 22.0664 23.5083L22.0972 23.3853C22.4048 22.3086 23.2046 21.1396 23.666 20.6475C24.3735 19.8169 24.7734 18.771 24.7734 17.6943C24.7734 16.4946 24.2812 15.3564 23.4507 14.5259C22.6201 13.6646 21.5127 13.2339 20.3438 13.2339H20.313C17.8521 13.2339 15.9141 15.2026 15.9141 17.6943C15.9141 18.771 16.2832 19.8169 16.9907 20.6167C17.4521 21.1396 18.252 22.3086 18.5596 23.3853L18.5903 23.5083C18.5903 23.7544 18.4058 24.0005 18.1289 24.0312C17.8828 24.062 17.6367 23.8774 17.606 23.6313C17.3599 22.8008 16.6523 21.7549 16.2524 21.2627C15.3911 20.2783 14.9297 19.0171 14.9297 17.6943C14.9297 14.6797 17.3291 12.2495 20.313 12.2495ZM22.2817 25.0156C22.5586 25.0156 22.7739 25.2617 22.7739 25.5078V26.1846C22.7739 26.3384 22.7124 26.5845 22.6201 26.7383L22.0972 27.5073C21.9434 27.7534 21.5742 27.9688 21.2666 27.9688H19.3901C19.0825 27.9688 18.7134 27.7534 18.5596 27.5073L18.0366 26.7383C17.9136 26.5537 17.8828 26.3691 17.8828 26.1846V25.5078C17.8521 25.231 18.0981 25.0156 18.375 25.0156H22.2817ZM21.7896 26.2153C21.7896 26.2153 21.7896 26.1846 21.8203 26.1846V26H18.8672V26.2153L19.3901 26.9844C19.3901 26.9844 19.4209 26.9844 19.4209 27.0151L21.2666 26.9844C21.2666 26.9844 21.2974 26.9844 21.2974 26.9536L21.7896 26.2153ZM20.8359 14.7104C20.8359 14.9565 20.5898 15.2026 20.3438 15.2026C18.9595 15.2026 17.8828 16.2793 17.8828 17.6328C17.8828 17.8789 17.6367 18.125 17.3906 18.125C17.1138 18.125 16.8984 17.8789 16.8984 17.6328C16.8984 15.7563 18.4365 14.2183 20.3438 14.2183C20.5898 14.2183 20.8359 14.4336 20.8359 14.7104Z" fill="#E68205"/>
</svg>
