<?xml version="1.0" encoding="utf-8"?>
<!-- Generator: Adobe Illustrator 27.2.0, SVG Export Plug-In . SVG Version: 6.00 Build 0)  -->
<svg version="1.1" id="Layer_1" xmlns="http://www.w3.org/2000/svg" xmlns:xlink="http://www.w3.org/1999/xlink" x="0px" y="0px"
	 viewBox="0 0 16 16" style="enable-background:new 0 0 16 16;" xml:space="preserve">
<style type="text/css">
	.st0{clip-path:url(#SVGID_00000078014403322659049860000000945937347753397633_);}
	.st1{fill:#FFFFFF;}
	.st2{fill:#FBB4AE;}
	.st3{fill-rule:evenodd;clip-rule:evenodd;fill:#E24C1C;}
</style>
<g>
	<defs>
		<rect id="SVGID_1_" y="0" width="16" height="16"/>
	</defs>
	<clipPath id="SVGID_00000022522269704351257750000009078946036209673872_">
		<use xlink:href="#SVGID_1_"  style="overflow:visible;"/>
	</clipPath>
	<g style="clip-path:url(#SVGID_00000022522269704351257750000009078946036209673872_);">
		<rect y="0" class="st1" width="16" height="16"/>
		<path class="st2" d="M2,13V3c0-0.6,0.4-1,1-1h6c0.6,0,1,0.4,1,1v10c0,0.6-0.4,1-1,1H3C2.4,14,2,13.6,2,13z"/>
		<path class="st3" d="M13.5,15c-0.8,0-1.5-0.7-1.5-1.5v-11C12,1.1,10.9,0,9.5,0l-7,0C1.1,0,0,1.1,0,2.5l0,11C0,14.9,1.1,16,2.5,16
			h6v-1h-6C1.7,15,1,14.3,1,13.5l0-11C1,1.7,1.7,1,2.5,1h7C10.3,1,11,1.7,11,2.5v11c0,1.4,1.1,2.5,2.5,2.5V15z"/>
		<path class="st3" d="M2.5,3.5c0-0.6,0.4-1,1-1h5c0.6,0,1,0.4,1,1v3c0,0.6-0.4,1-1,1h-5c-0.6,0-1-0.4-1-1V3.5z M8.5,3.5h-5v3h5V3.5
			z"/>
		<path class="st3" d="M2.5,12c0-0.3,0.2-0.5,0.5-0.5h4c0.3,0,0.5,0.2,0.5,0.5S7.3,12.5,7,12.5H3C2.7,12.5,2.5,12.3,2.5,12z"/>
		<path class="st3" d="M2.5,10c0-0.3,0.2-0.5,0.5-0.5h6c0.3,0,0.5,0.2,0.5,0.5c0,0.3-0.2,0.5-0.5,0.5H3C2.7,10.5,2.5,10.3,2.5,10z"
			/>
		<path class="st3" d="M15,13.5c0,0.8-0.7,1.5-1.5,1.5h-11C2.2,15,2,15.2,2,15.5S2.2,16,2.5,16h11c1.4,0,2.5-1.1,2.5-2.5V7
			c0-0.8-0.7-1.5-1.5-1.5H14c-0.3,0-0.5,0.2-0.5,0.5s0.2,0.5,0.5,0.5h0.5C14.8,6.5,15,6.7,15,7V13.5z"/>
	</g>
</g>
</svg>
