<svg width="172" height="122" viewBox="0 0 172 122" fill="none" xmlns="http://www.w3.org/2000/svg">
<rect x="59.25" y="29.25" width="66.5" height="68.5" rx="3.75" fill="white" stroke="#000A16" stroke-width="0.5"/>
<rect x="37.25" y="6.25" width="66.5" height="68.5" rx="3.75" fill="white" stroke="#000A16" stroke-width="0.5"/>
<path opacity="0.15" d="M170.197 33.7771C168.122 29.7017 164.479 26.6866 160.121 25.4401C155.088 24.0928 148.67 25.5594 145.727 33.7734C136.007 61.0956 114.666 78.5395 88.6269 80.4156C82.829 80.8186 77.0135 80.2555 71.4117 78.7487C51.9898 73.5495 35.2577 57.3483 27.7668 36.455C26.3185 31.9674 22.7558 28.5259 18.2652 27.2763C12.945 25.9476 7.30805 27.6674 3.55365 31.7647C-0.0187955 35.8275 -0.989136 41.5911 1.05955 46.579C12.2958 77.6756 35.5924 100.058 65.0803 107.951C71.3816 109.592 77.8363 110.579 84.3453 110.897C120.661 112.878 157.069 86.1307 170.931 47.1777C172.58 42.7685 172.312 37.873 170.193 33.7098" fill="#2075BC"/>
<path d="M118.949 35.581C120.791 31.8262 123.1 28.3252 125.821 25.1632C126.872 23.7882 128.369 24.8795 128.369 24.8795C132.218 25.607 128.779 36.2066 125.39 43.4089C123.386 40.6824 121.236 38.0692 118.949 35.581Z" fill="white" stroke="#000A16" stroke-width="0.5" stroke-linecap="round" stroke-linejoin="round"/>
<path d="M126.956 40.9389C128.581 40.6317 131.24 30.4935 130.274 28.7014C130.274 28.7014 125.271 25.8194 124.949 26.1413C121.706 29.4183 126.956 40.9389 126.956 40.9389Z" fill="white" stroke="#000A16" stroke-width="0.5" stroke-linecap="round" stroke-linejoin="round"/>
<path d="M121.236 115.696L121.325 110.935L125.95 111.288L125.831 115.858L123.671 119.581L119.773 116.608L121.236 115.696Z" fill="white" stroke="#000A16" stroke-width="0.5" stroke-linecap="round" stroke-linejoin="round"/>
<path d="M120.444 115.223C121.299 116.202 122.234 117.101 123.237 117.911C124.173 118.649 125.569 115.479 126 115.083C126.089 115.005 126.208 115.083 126.223 115.223L126.773 120.405H113.069C113.024 120.402 112.981 120.39 112.941 120.368C112.902 120.347 112.867 120.317 112.839 120.28C112.812 120.243 112.792 120.2 112.782 120.155C112.772 120.109 112.771 120.062 112.779 120.016C113.507 116.163 120.444 115.223 120.444 115.223Z" fill="white" stroke="#000A16" stroke-width="0.5" stroke-linecap="round" stroke-linejoin="round"/>
<path d="M142.639 116.231L141.184 111.528L146.268 111.347L147.36 116.321L145.473 119.582L141.502 116.533L142.639 116.231Z" fill="white" stroke="#000A16" stroke-width="0.5" stroke-linecap="round" stroke-linejoin="round"/>
<path d="M142.453 115.627C143.281 116.608 144.188 117.508 145.164 118.315C146.072 119.092 147.427 115.891 147.853 115.495C147.932 115.417 148.055 115.495 148.069 115.635L148.595 120.817H135.295C135.251 120.813 135.209 120.8 135.17 120.778C135.132 120.755 135.098 120.724 135.072 120.687C135.045 120.649 135.026 120.606 135.016 120.56C135.006 120.515 135.005 120.467 135.013 120.421C135.734 116.575 142.453 115.627 142.453 115.627Z" fill="white" stroke="#000A16" stroke-width="0.5" stroke-linecap="round" stroke-linejoin="round"/>
<path d="M121.25 56.5854C121.25 56.5854 119.526 77.3877 119.374 83.1563C119.221 88.9249 120.676 111.347 120.676 111.347H126.444C126.444 111.347 132.547 71.685 139.538 57.8389L121.25 56.5854Z" fill="white" stroke="#000A16" stroke-width="0.5" stroke-linecap="round" stroke-linejoin="round"/>
<path d="M127.354 111.8L120.463 111.661L120.057 107.604H128.031L127.354 111.8Z" fill="white" stroke="#000A16" stroke-width="0.5" stroke-linecap="round" stroke-linejoin="round"/>
<path d="M121.009 56.5854C121.009 56.5854 125.085 73.9261 129.221 86.1876C132.562 96.1039 141.42 111.759 141.42 111.759L147.36 111.502L141.064 86.4808C140.675 85.0019 140.426 83.4904 140.321 81.9661C139.95 76.2054 141.153 64.5668 141.65 57.1058L121.009 56.5854Z" fill="white" stroke="#000A16" stroke-width="0.5" stroke-linecap="round" stroke-linejoin="round"/>
<path d="M147.756 111.8L141.041 112.22L138.942 108.012L147.221 107.604L147.756 111.8Z" fill="white" stroke="#000A16" stroke-width="0.5" stroke-linecap="round" stroke-linejoin="round"/>
<path d="M136.837 20.1286C136.837 20.1286 145.907 21.0521 146.478 28.579C147.049 36.1059 143.279 67.2909 143.279 67.2909L118.538 65.7079L120.873 30.3526C120.962 28.441 121.55 26.5861 122.579 24.9731C123.53 23.5073 124.643 21.8143 125.272 21.7337L135.447 19.1172L136.837 20.1286Z" fill="white" stroke="#000A16" stroke-width="0.5" stroke-linecap="round" stroke-linejoin="round"/>
<path d="M135.401 47.9576C134.658 47.8545 124.83 48.17 118.318 46.7041C116.526 46.2966 116.052 43.4674 116.69 41.7676L121.621 26.8937L129.784 30.4466C127.545 33.3866 126.962 37.2158 125.983 40.4695C125.628 41.635 125.509 41.3306 126.569 41.6911L135.525 43.5837C135.997 43.5575 136.465 43.4747 136.918 43.3371C137.838 43.1475 138.785 43.1406 139.705 43.3167L137.804 44.085C137.479 44.2079 137.573 44.3694 138.232 44.5646L142.45 45.7906C142.45 45.7906 143.288 46.2162 142.678 46.2029C142.069 46.1896 140.191 45.9575 140.123 45.9492C138.978 45.7276 142.941 46.6896 142.713 46.958C142.486 47.2265 140.065 46.8181 140.066 46.8752C140.066 46.9323 142.502 47.5418 142.3 47.8023C142.098 48.0629 139.896 47.5585 139.841 47.5228C139.785 47.4871 141.67 47.838 141.57 47.9837C141.471 48.1294 135.84 48.0306 135.401 47.9576Z" fill="white" stroke="#000A16" stroke-width="0.5" stroke-linecap="round" stroke-linejoin="round"/>
<path d="M133.989 13.7901L136.656 20.8658L134.645 21.8547C131.596 22.9681 128.848 22.2649 128.421 21.0123L128.826 16.7859L133.098 12.9404C133.368 13.1236 133.615 13.3375 133.835 13.5777C133.875 13.6558 133.927 13.7274 133.989 13.7901Z" fill="white" stroke="#000A16" stroke-width="0.5" stroke-linecap="round" stroke-linejoin="round"/>
<path d="M125.831 6.44267C125.756 7.83694 126.941 7.29103 126.941 7.29103C129.322 8.89942 131.602 10.6485 133.77 12.5288C133.77 12.5288 135.164 12.2779 135.179 11.9312C135.246 9.28284 135.082 6.08119 135.082 6.08119C135.33 5.91545 135.53 5.68758 135.661 5.42069C135.792 5.15379 135.849 4.85737 135.827 4.56151C135.827 4.56151 135.544 3.44019 134.575 3.60249C134.631 3.42024 134.634 3.22617 134.584 3.0423C134.534 2.85842 134.432 2.69214 134.292 2.56233C134.147 2.45882 133.97 2.41007 133.792 2.42497C133.614 2.43986 133.447 2.51739 133.322 2.64348C133.297 2.26641 133.151 1.90729 132.904 1.61908C132.657 1.33086 132.323 1.1288 131.951 1.04265C131.575 0.956708 131.181 1.00148 130.835 1.16943C130.489 1.33739 130.211 1.61827 130.05 1.96479C130.05 1.96479 129.804 1.28609 129.401 1.32297C128.999 1.35986 128.835 2.00166 128.835 2.00166C128.822 1.85414 128.776 1.71129 128.701 1.58333C128.626 1.45537 128.523 1.34547 128.399 1.26156C128.276 1.17764 128.136 1.12177 127.988 1.09796C127.84 1.07414 127.689 1.08295 127.545 1.12379C126.33 1.28608 126.256 2.68035 126.256 2.68035C126.243 2.61501 126.216 2.55306 126.178 2.49856C126.139 2.44406 126.089 2.39823 126.032 2.3641C125.974 2.32997 125.91 2.30829 125.843 2.3005C125.776 2.29271 125.708 2.29898 125.644 2.31888C124.899 2.44429 124.519 3.32217 125.204 4.16315C125.037 4.29449 124.905 4.46506 124.82 4.65952C124.735 4.85398 124.701 5.06621 124.72 5.27709C124.742 6.03693 125.831 6.44267 125.831 6.44267Z" fill="white" stroke="#000A16" stroke-width="0.5" stroke-linecap="round" stroke-linejoin="round"/>
<path d="M133.773 11.1593C133.784 11.1899 133.803 11.2172 133.828 11.2387C133.853 11.2602 133.882 11.2753 133.914 11.2826C133.946 11.2898 133.98 11.289 134.011 11.2802C134.043 11.2715 134.072 11.255 134.096 11.2324C134.441 10.8962 135.132 10.4286 135.381 11.7805C135.712 13.6073 133.795 13.2931 133.64 13.5416C133.332 14.0385 132.333 15.7338 130.849 16.3696C130.323 16.615 129.737 16.7001 129.163 16.6143C128.589 16.5285 128.053 16.2755 127.624 15.8873C126.632 14.9446 126.088 16.0554 126.5 5.97095C126.579 6.21256 126.75 6.41365 126.977 6.53112C127.204 6.6486 127.467 6.67311 127.712 6.5994C128.38 6.46056 128.917 5.86865 129.651 5.69327C129.945 5.57386 130.26 5.51872 130.577 5.53162C130.893 5.54453 131.203 5.62516 131.486 5.76803C131.768 5.9109 132.016 6.11265 132.213 6.35953C132.41 6.60641 132.551 6.8926 132.627 7.19862C132.95 8.17783 133.471 10.4286 133.773 11.1593Z" fill="white" stroke="#000A16" stroke-width="0.5" stroke-linecap="round" stroke-linejoin="round"/>
<path d="M128.701 14.0036C127.993 13.9164 127.858 14.0819 127.23 14.3978C127.23 14.3978 127.752 13.5386 128.371 13.6239C128.99 13.7093 128.701 14.0036 128.701 14.0036Z" fill="#000A16"/>
<path d="M128.008 10.4651C128.008 10.6917 128.101 10.8806 128.21 10.8806C128.319 10.8806 128.42 10.6917 128.42 10.4651C128.42 10.2384 128.326 10.0571 128.21 10.0571C128.093 10.0571 128.008 10.2384 128.008 10.4651Z" fill="#000A16"/>
<path d="M126.773 10.4651C126.773 10.6993 126.867 10.8806 126.983 10.8806C127.1 10.8806 127.185 10.6993 127.185 10.4651C127.185 10.2309 127.092 10.0571 126.983 10.0571C126.874 10.0571 126.773 10.2385 126.773 10.4651Z" fill="#000A16"/>
<path d="M127.498 11.2927L126.979 12.4304V12.4824L127.597 12.5279M127.803 9.02814C128.077 8.95951 128.667 8.82227 128.832 8.82227M127.185 9.02814L126.773 8.82227" stroke="#000A16" stroke-width="0.5" stroke-linecap="round" stroke-linejoin="round"/>
<g style="mix-blend-mode:multiply">
<path d="M119.312 65.4298L120.335 50.001L125.452 49.584H133.339C136.286 48.75 141.28 48.8195 142.031 45.6226L144.691 47.082L142.645 67.0978L119.312 65.4298Z" fill="#E8F8EC"/>
</g>
<path d="M121.661 25.3686C121.661 25.3686 124.326 19.6075 128.769 22.3224C129.784 26.384 129.529 38.627 127.097 41.3494L117.303 35.875L121.661 25.3686Z" fill="white" stroke="#000A16" stroke-width="0.5" stroke-linecap="round" stroke-linejoin="round"/>
<path d="M125.653 22.8619C125.746 23.6063 125.435 41.6836 126.804 48.2168C127.185 50.0146 132.136 47.8146 133.845 47.2014L141.241 42.4441L144.522 27.0262C144.419 27.0611 138.128 33.5774 134.86 34.5089C133.689 34.8464 132.666 37.0972 132.322 36.032L130.029 22.8031C130.062 22.3312 130.151 21.8647 130.296 21.4136C130.499 20.4967 130.52 19.5497 130.357 18.6265L129.561 20.5165C129.433 20.8399 129.273 20.7432 129.088 20.0817L127.924 15.8462C127.924 15.8462 127.511 15.0021 127.515 15.6114C127.519 16.2207 127.724 18.102 127.731 18.1705C127.936 19.3182 127.032 15.342 126.761 15.5654C126.489 15.7887 126.861 18.2152 126.804 18.2138C126.747 18.2123 126.174 15.7678 125.91 15.9661C125.647 16.1644 126.119 18.3734 126.154 18.4295C126.188 18.4856 125.865 16.5957 125.718 16.693C125.571 16.7904 125.587 22.4223 125.653 22.8619Z" fill="white" stroke="#000A16" stroke-width="0.5" stroke-linecap="round" stroke-linejoin="round"/>
<path d="M137.907 25.8768C137.907 25.8768 140.444 21.3074 145.014 22.8306C151.504 25.9878 143.998 43.1385 140.444 44.6616L132.829 36.0308L137.907 25.8768Z" fill="white" stroke="#000A16" stroke-width="0.5" stroke-linecap="round" stroke-linejoin="round"/>
<path d="M125.721 39.0769L118.613 35.523C121.456 25.3691 124.198 22.8306 125.213 22.8306L125.721 39.0769Z" fill="#E8F8EC"/>
<g style="mix-blend-mode:multiply">
<path d="M138.414 20.8003C136.79 22.8311 132.322 23.3388 130.291 23.3388L132.322 35.0159L133.337 36.539L140.445 44.1544C145.014 39.0775 146.537 30.4466 146.537 26.8927C146.537 23.3388 142.983 22.8311 142.476 22.3234C142.07 21.9172 139.599 21.1388 138.414 20.8003Z" fill="#E8F8EC"/>
</g>
<path d="M57.8032 21.3276C57.3415 21.3752 49.5182 13.3699 47.9592 12.8606C46.7698 12.4721 45.6956 12.178 45.3473 11.8367C44.3025 10.8127 44.8249 9.27686 44.8249 8.25293C44.8249 7.229 47.9592 8.25293 49.004 8.25293C49.8398 8.25293 50.7453 10.3008 51.0935 11.3247C54.4019 14.7378 63.6608 21.0005 63.2212 22.0993C62.4481 24.0319 52.7849 28.6702 49.6927 32.922L48.5332 25.578C53.03 22.3728 57.6059 21.3698 57.8032 21.3276Z" fill="white"/>
<path d="M57.8032 21.3276C57.3415 21.3752 49.5182 13.3699 47.9592 12.8606C46.7698 12.4721 45.6956 12.178 45.3473 11.8367C44.3025 10.8127 44.8249 9.27686 44.8249 8.25293C44.8249 7.229 47.9592 8.25293 49.004 8.25293C49.8398 8.25293 50.7453 10.3008 51.0935 11.3247C54.4019 14.7378 63.6608 21.0005 63.2212 22.0993C62.4481 24.0319 52.7849 28.6702 49.6927 32.922L48.5332 25.578C53.03 22.3728 57.6059 21.3698 57.8032 21.3276Z" stroke="#000A16" stroke-width="0.5" stroke-linecap="round"/>
<path d="M43.1919 111.27L43.9538 116.518C43.9538 116.518 45.1727 119.994 46.3002 118.645C46.9608 117.861 47.73 117.17 48.5857 116.592L48.959 111.129L43.1919 111.27Z" fill="white" stroke="#000A16" stroke-width="0.5" stroke-linecap="round" stroke-linejoin="round"/>
<path d="M41.9361 121C41.887 118.961 42.186 117.437 42.462 115.416C42.4898 115.335 42.5418 115.264 42.6114 115.212C42.681 115.16 42.7651 115.13 42.8527 115.124C42.9391 115.108 43.0281 115.111 43.1132 115.133C43.1982 115.154 43.277 115.195 43.3437 115.25C43.9348 115.814 44.8957 117.509 46.4697 117.01C47.116 116.805 48.1003 116.329 48.6638 115.96C48.7701 115.885 48.8981 115.845 49.0295 115.845C49.1609 115.845 49.289 115.885 49.3952 115.96L54.3146 118.271C54.676 118.417 54.9803 118.671 55.1837 118.996C55.3871 119.32 55.4792 119.699 55.4468 120.077C55.3866 120.806 55.2914 121 55.0609 121H41.9361Z" fill="white"/>
<path d="M42.8993 115.37C42.8889 115.372 42.8784 115.373 42.8678 115.374C42.8281 115.376 42.7909 115.39 42.7609 115.412C42.7364 115.431 42.7177 115.454 42.7056 115.479C42.6556 115.844 42.6051 116.192 42.5562 116.529C42.3459 117.979 42.1654 119.222 42.1818 120.75H55.0609C55.064 120.75 55.0666 120.75 55.0687 120.75C55.0729 120.744 55.0797 120.732 55.0881 120.713C55.13 120.615 55.1673 120.424 55.1976 120.057L55.1977 120.056C55.2254 119.732 55.1467 119.407 54.9719 119.128C54.7969 118.849 54.5343 118.63 54.2207 118.503L54.2206 118.503L54.2083 118.497L49.2889 116.187C49.2757 116.18 49.263 116.173 49.251 116.165C49.1874 116.12 49.1099 116.095 49.0295 116.095C48.9491 116.095 48.8716 116.12 48.808 116.165L48.8081 116.165L48.8007 116.17C48.2194 116.55 47.2146 117.036 46.5453 117.248C45.644 117.534 44.9222 117.181 44.3767 116.719C44.1055 116.49 43.8702 116.229 43.6705 115.996C43.621 115.938 43.5744 115.883 43.5303 115.831C43.3928 115.669 43.2793 115.536 43.1777 115.438C43.1411 115.408 43.0979 115.387 43.0509 115.375C43.0015 115.362 42.9496 115.36 42.8993 115.37ZM55.064 120.755C55.064 120.755 55.0642 120.755 55.0644 120.755C55.0641 120.755 55.064 120.755 55.064 120.755Z" stroke="#000A16" stroke-width="0.5" stroke-linecap="round" stroke-linejoin="round"/>
<path d="M25.4795 111.149L23.9025 115.922C23.9025 115.922 22.7108 116.923 22.2755 116.896C21.4906 116.848 21.0665 116.17 21.0665 116.17L21.0767 111.686L25.4795 111.149Z" fill="white" stroke="#000A16" stroke-width="0.5" stroke-linecap="round" stroke-linejoin="round"/>
<path d="M19.259 118.543L19.2594 118.543V118.557V120.75H25.7413V118.557H25.7409L25.7416 118.543C25.7996 117.475 25.5547 116.426 25.0701 115.621C24.5889 114.823 23.9226 114.347 23.2289 114.25H21.7713C21.077 114.344 20.4093 114.819 19.9277 115.618C19.4427 116.423 19.1987 117.474 19.259 118.543Z" fill="white" stroke="#000A16" stroke-width="0.5" stroke-linecap="round" stroke-linejoin="round"/>
<path d="M32.6848 31.762C32.6848 31.762 34.6349 25.6014 32.2983 25.9641C28.4014 26.5881 25.1696 35.1096 26.8749 46.9133C27.4264 50.7512 42.9775 47.0149 42.9775 47.0149L40.8018 46.0635L31.1387 44.1308L32.6848 31.762Z" fill="white" stroke="#000A16" stroke-width="0.5" stroke-linecap="round" stroke-linejoin="round"/>
<path d="M34.4517 42.8223C32.5378 46.1089 31.1296 49.665 30.2745 53.3711C28.9527 58.5506 21.5696 102.317 20.9489 111.719C22.6397 111.984 24.3571 112.035 26.0608 111.872C29.3397 102.478 39.0597 72.1166 40.4692 66.192C40.5134 66.0056 40.6258 65.8425 40.7842 65.7348C40.9427 65.6271 41.1356 65.5827 41.3252 65.6102C41.5147 65.6376 41.6871 65.7351 41.8084 65.8833C41.9298 66.0316 41.9913 66.2198 41.9808 66.4111C41.1775 73.1759 42.4263 100.644 43.0689 112.033C43.9234 112.471 48.0129 112.391 48.9988 112.267C50.0723 100.673 55.7757 56.7462 47.1658 42.5373C43.215 41.9967 38.4536 42.7054 34.4517 42.8223Z" fill="white" stroke="#000A16" stroke-width="0.5" stroke-linecap="round" stroke-linejoin="round"/>
<g style="mix-blend-mode:multiply">
<path d="M47.8324 45.2084C47.8324 45.2084 54.523 66.7419 48.724 107.352H43.3597C43.3597 107.352 42.6892 64.4238 42.225 63.8479C41.7608 63.272 25.7417 107.352 25.7417 107.352H21.6964C21.6964 107.352 31.5425 47.7613 34.232 44.5174C34.3646 44.357 38.5978 46.6319 43.1221 45.677L47.8324 45.2084Z" fill="#F1F7FF"/>
</g>
<path d="M31.913 25.9643C34.0776 25.6551 36.4225 25.0624 37.3244 24.8047C38.5614 23.8771 37.8398 19.2645 37.3244 17.0742H43.8952C43.5087 19.0068 43.0449 23.1813 44.2817 24.4182C45.8278 25.9643 49.5881 24.5947 49.6931 24.8047C50.4661 26.3508 48.92 40.2657 48.147 42.9714C47.3739 45.6771 31.913 44.904 32.6861 42.5849C33.4591 40.2657 29.2074 26.3508 31.913 25.9643Z" fill="white"/>
<path d="M31.913 25.9643C34.0776 25.6551 36.4225 25.0624 37.3244 24.8047C38.5614 23.8771 37.8398 19.2645 37.3244 17.0742H43.8952C43.5087 19.0068 43.0449 23.1813 44.2817 24.4182C45.8278 25.9643 49.5881 24.5947 49.6931 24.8047C50.4661 26.3508 48.92 40.2657 48.147 42.9714C47.3739 45.6771 31.913 44.904 32.6861 42.5849C33.4591 40.2657 29.2074 26.3508 31.913 25.9643Z" stroke="#000A16" stroke-width="0.5" stroke-linecap="round"/>
<path d="M45.7881 11.6631C45.7881 11.6631 49.0194 17.1389 48.3025 18.6523C47.5335 20.3542 45.7502 19.2925 45.4092 18.9381" fill="white"/>
<path d="M45.7881 11.6631C45.7881 11.6631 49.0194 17.1389 48.3025 18.6523C47.5335 20.3542 45.7502 19.2925 45.4092 18.9381" stroke="#000A16" stroke-width="0.5" stroke-linecap="round" stroke-linejoin="round"/>
<path d="M48.5332 20.5524C46.6006 17.4602 46.5244 8.97125 46.1356 8.24563C45.1158 6.34272 39.8232 5.60622 37.8058 6.90198C34.5338 8.98999 34.0637 14.9206 31.1404 21.3291C31.1404 21.3291 31.827 24.0311 39.6438 24.0311C47.4606 24.0311 48.5332 20.5524 48.5332 20.5524Z" fill="white" stroke="#000A16" stroke-width="0.5" stroke-linecap="round" stroke-linejoin="round"/>
<path d="M32.2979 47.2231C35.1324 48.2539 41.961 49.8515 46.5993 47.9962" stroke="#000A16" stroke-width="0.5" stroke-linecap="round" stroke-linejoin="round" stroke-dasharray="2 2"/>
<path d="M32.2982 50.3159L31.1387 55.7273L36.9366 56.8868L37.7096 51.089" stroke="#000A16" stroke-width="0.5" stroke-linecap="round" stroke-linejoin="round" stroke-dasharray="2 2"/>
<path d="M47.3736 50.3159L48.5332 55.7273L42.7353 56.8868L41.9623 51.089" stroke="#000A16" stroke-width="0.5" stroke-linecap="round" stroke-linejoin="round" stroke-dasharray="2 2"/>
<path d="M35.0029 25.5779C36.4202 27.8971 40.7235 31.0666 46.5987 25.1914" stroke="#000A16" stroke-width="0.5" stroke-linecap="round"/>
</svg>
