<svg width="11" height="14" viewBox="0 0 11 14" fill="none" xmlns="http://www.w3.org/2000/svg">
<path d="M0 1.792C0 0.802306 0.802306 0 1.792 0H6.4848L10.4832 4.144V12.208C10.4832 13.1977 9.68089 14 8.6912 14H1.792C0.802306 14 0 13.1977 0 12.208V1.792Z" fill="#317041"/>
<path d="M6.4848 2.352V0L10.4832 4.144H8.2768C7.28711 4.144 6.4848 3.34169 6.4848 2.352Z" fill="#629A79"/>
<path d="M2.848 9.76266L2.0095 8.44635H2.63791C2.67881 8.44635 2.70856 8.45192 2.72715 8.46308C2.74698 8.47299 2.76433 8.49035 2.77921 8.51514L3.31838 9.428C3.32457 9.41189 3.33139 9.3964 3.33883 9.38152C3.3475 9.36665 3.3568 9.35116 3.36671 9.33504L3.83895 8.52443C3.86994 8.47237 3.91208 8.44635 3.96538 8.44635H4.56776L3.7181 9.73477L4.58635 11.1552H3.95794C3.91704 11.1552 3.88357 11.1453 3.85754 11.1255C3.83275 11.1056 3.81292 11.0821 3.79805 11.0548L3.25516 10.1066C3.24525 10.1339 3.23409 10.1574 3.2217 10.1773L2.71599 11.0548C2.70112 11.0808 2.68129 11.1044 2.6565 11.1255C2.63171 11.1453 2.60072 11.1552 2.56354 11.1552H1.97603L2.848 9.76266Z" fill="white"/>
<path d="M5.45614 10.6532H6.4601V11.1552H4.82773V8.44635H5.45614V10.6532Z" fill="white"/>
<path d="M8.26559 8.99667C8.247 9.02642 8.22717 9.04873 8.2061 9.0636C8.18626 9.07847 8.16024 9.08591 8.12801 9.08591C8.0995 9.08591 8.06851 9.07723 8.03505 9.05988C8.00282 9.04129 7.96564 9.02084 7.9235 8.99853C7.8826 8.97622 7.8355 8.95639 7.7822 8.93903C7.7289 8.92044 7.66817 8.91115 7.6 8.91115C7.48225 8.91115 7.39425 8.93655 7.33599 8.98737C7.27897 9.03695 7.25047 9.1045 7.25047 9.19003C7.25047 9.24456 7.26782 9.2898 7.30252 9.32575C7.33723 9.36169 7.38247 9.39268 7.43825 9.41871C7.49526 9.44474 7.55971 9.46891 7.6316 9.49122C7.70473 9.51229 7.7791 9.53646 7.85471 9.56372C7.93031 9.58975 8.00406 9.62074 8.07595 9.65668C8.14908 9.69263 8.21353 9.73849 8.26931 9.79426C8.32632 9.85004 8.37218 9.91821 8.40689 9.99878C8.4416 10.0781 8.45895 10.1742 8.45895 10.287C8.45895 10.4121 8.43726 10.5293 8.39388 10.6383C8.35049 10.7474 8.28728 10.8429 8.20424 10.9247C8.12243 11.0052 8.0208 11.0691 7.89933 11.1162C7.7791 11.162 7.64214 11.1849 7.48844 11.1849C7.40416 11.1849 7.31802 11.1763 7.23002 11.1589C7.14325 11.1416 7.05897 11.1174 6.97716 11.0864C6.89536 11.0542 6.81851 11.0164 6.74662 10.973C6.67474 10.9296 6.61214 10.8813 6.55884 10.828L6.74476 10.5342C6.7584 10.5119 6.77761 10.4939 6.8024 10.4803C6.82719 10.4667 6.85384 10.4599 6.88235 10.4599C6.91953 10.4599 6.95671 10.4716 6.9939 10.4952C7.03232 10.5187 7.07508 10.5448 7.12218 10.5733C7.17052 10.6018 7.22568 10.6278 7.28765 10.6514C7.34962 10.6749 7.42275 10.6867 7.50704 10.6867C7.62107 10.6867 7.70969 10.6619 7.7729 10.6123C7.83611 10.5615 7.86772 10.4815 7.86772 10.3725C7.86772 10.3093 7.85037 10.2578 7.81566 10.2182C7.78096 10.1785 7.7351 10.1457 7.67808 10.1196C7.62231 10.0936 7.55848 10.0707 7.48659 10.0508C7.4147 10.031 7.34095 10.0093 7.26534 9.98576C7.18973 9.96097 7.11599 9.93123 7.0441 9.89652C6.97221 9.86058 6.90775 9.8141 6.85074 9.75708C6.79496 9.69883 6.74972 9.62694 6.71502 9.54141C6.68031 9.45465 6.66296 9.34806 6.66296 9.22163C6.66296 9.12 6.68341 9.02084 6.72431 8.92416C6.76522 8.82748 6.82533 8.74134 6.90466 8.66573C6.98398 8.59012 7.08128 8.53001 7.19655 8.48539C7.31182 8.43953 7.44382 8.4166 7.59256 8.4166C7.6756 8.4166 7.75617 8.42342 7.83426 8.43705C7.91358 8.44944 7.98857 8.46866 8.05922 8.49468C8.12987 8.51947 8.19556 8.54984 8.25629 8.58579C8.31827 8.62049 8.37342 8.66015 8.42176 8.70477L8.26559 8.99667Z" fill="white"/>
</svg>
