<svg width="16" height="15" viewBox="0 0 16 15" fill="none" xmlns="http://www.w3.org/2000/svg">
<path d="M10.418 4.85156L14.3555 5.45312C14.7018 5.50781 14.9388 5.69922 15.0664 6.02734C15.1576 6.3737 15.0846 6.67448 14.8477 6.92969L12.0039 9.71875L12.6602 13.7383C12.7148 14.0846 12.5964 14.3672 12.3047 14.5859C12.013 14.7865 11.7122 14.8047 11.4023 14.6406L7.875 12.7812L4.375 14.6406C4.04688 14.8047 3.73698 14.7865 3.44531 14.5859C3.17188 14.3672 3.05339 14.0846 3.08984 13.7383L3.77344 9.71875L0.929688 6.92969C0.674479 6.67448 0.601562 6.3737 0.710938 6.02734C0.820312 5.69922 1.04818 5.50781 1.39453 5.45312L5.33203 4.85156L7.08203 1.24219C7.26432 0.932292 7.52865 0.768229 7.875 0.75C8.23958 0.768229 8.50391 0.932292 8.66797 1.24219L10.418 4.85156Z" fill="#FFA738"/>
</svg>
