<svg width="16" height="16" viewBox="0 0 16 16" fill="none" xmlns="http://www.w3.org/2000/svg">
<g clip-path="url(#clip0_5956_42059)">
<path fill-rule="evenodd" clip-rule="evenodd" d="M7.04793 0.891633C7.43738 0.102525 8.56262 0.102531 8.95207 0.891635L10.8487 4.7347L15.0898 5.35097C15.9606 5.4775 16.3084 6.54767 15.6782 7.1619L12.6093 10.1533L13.3338 14.3773C13.4826 15.2446 12.5722 15.906 11.7933 15.4965L8 13.5022L4.20667 15.4965C3.42777 15.906 2.51744 15.2446 2.66619 14.3772L3.39065 10.1533L0.321782 7.1619C-0.308359 6.54767 0.0393655 5.4775 0.910193 5.35097L5.15127 4.7347L7.04793 0.891633Z" fill="#F7E09D"/>
<path fill-rule="evenodd" clip-rule="evenodd" d="M10.1847 5.64871L8.05533 1.3342C8.04928 1.32193 8.04433 1.31608 8.04214 1.31372C8.03978 1.31119 8.03756 1.30944 8.03496 1.30791C8.02911 1.30443 8.01707 1.2998 8 1.2998C7.98292 1.2998 7.97089 1.30443 7.96504 1.30791C7.96244 1.30944 7.96022 1.31119 7.95786 1.31372C7.95567 1.31607 7.95072 1.32193 7.94467 1.3342L5.81533 5.64871L1.05399 6.34057C1.04046 6.34254 1.03335 6.34544 1.03044 6.34679C1.0273 6.34825 1.02495 6.34983 1.02269 6.35182C1.01757 6.35632 1.00946 6.36633 1.00418 6.38257C0.998904 6.39881 0.999587 6.41168 1.00108 6.41832C1.00174 6.42126 1.00271 6.42391 1.00439 6.42694C1.00596 6.42975 1.01 6.43627 1.01979 6.44582L4.46513 9.80419L3.6518 14.5463C3.64949 14.5598 3.65005 14.5674 3.65044 14.5706C3.65085 14.5741 3.65163 14.5768 3.65282 14.5795C3.65552 14.5858 3.66253 14.5966 3.67635 14.6066C3.69016 14.6167 3.70261 14.62 3.7094 14.6206C3.71239 14.6209 3.71522 14.6208 3.71862 14.6202C3.72177 14.6195 3.72922 14.6177 3.74133 14.6113L8 12.3724L12.2587 14.6113C12.2708 14.6177 12.2782 14.6195 12.2814 14.6202C12.2848 14.6208 12.2876 14.6209 12.2906 14.6206C12.2974 14.62 12.3098 14.6167 12.3237 14.6066C12.3375 14.5966 12.3445 14.5858 12.3472 14.5795C12.3484 14.5768 12.3491 14.5741 12.3496 14.5706C12.35 14.5674 12.3505 14.5598 12.3482 14.5463L11.5349 9.80419L14.9802 6.44582C14.99 6.43627 14.994 6.42975 14.9956 6.42694C14.997 6.42451 14.9979 6.42232 14.9985 6.42003C14.9986 6.41947 14.9988 6.4189 14.9989 6.41832C15.0004 6.41168 15.0011 6.3988 14.9958 6.38257C14.9905 6.36633 14.9824 6.35632 14.9773 6.35182C14.9751 6.34983 14.9727 6.34825 14.9696 6.34679C14.9667 6.34544 14.9595 6.34254 14.946 6.34057L10.1847 5.64871ZM10.8487 4.7347L8.95207 0.891635C8.56262 0.102531 7.43738 0.102525 7.04793 0.891633L5.15127 4.7347L0.910193 5.35097C0.0393655 5.4775 -0.308359 6.54767 0.321782 7.1619L3.39065 10.1533L2.66619 14.3772C2.51744 15.2446 3.42777 15.906 4.20667 15.4965L8 13.5022L11.7933 15.4965C12.5722 15.906 13.4826 15.2446 13.3338 14.3773L12.6093 10.1533L15.6782 7.1619C16.3084 6.54767 15.9606 5.4775 15.0898 5.35097L10.8487 4.7347Z" fill="#D49F09"/>
</g>
<defs>
<clipPath id="clip0_5956_42059">
<rect width="16" height="16" fill="white"/>
</clipPath>
</defs>
</svg>
