<svg width="41" height="40" viewBox="0 0 41 40" fill="none" xmlns="http://www.w3.org/2000/svg">
<rect x="0.5" width="40" height="40" rx="8" fill="#66D9FF"/>
<path d="M29.2188 13.6953V26.4922C29.2188 26.769 28.9727 26.9844 28.7266 26.9844C28.4497 26.9844 28.2344 26.769 28.2344 26.4922V26.1538L22.2358 24.6465C21.959 26 20.79 26.9844 19.375 26.9844C17.7139 26.9844 16.4219 25.6616 16.4219 24.0312C16.4219 23.7544 16.4526 23.4775 16.5142 23.2314L12.4844 22.2163V22.5547C12.4844 22.8315 12.2383 23.0469 11.9922 23.0469C11.7153 23.0469 11.5 22.8315 11.5 22.5547V17.6328C11.5 17.3867 11.7153 17.1406 11.9922 17.1406C12.2383 17.1406 12.4844 17.3867 12.4844 17.6328V18.002L28.2344 14.0645V13.6953C28.2344 13.4492 28.4497 13.2031 28.7266 13.2031C28.9727 13.2031 29.2188 13.4492 29.2188 13.6953ZM28.2344 25.1387V15.0796L12.4844 19.0171V21.2012L28.2344 25.1387ZM19.375 26C20.3286 26 21.1284 25.3232 21.2822 24.4312L17.4678 23.4775C17.4062 23.6621 17.4062 23.8467 17.4062 24.0312C17.4062 25.1387 18.2676 26 19.375 26Z" fill="white"/>
</svg>
