<svg width="60" height="60" viewBox="0 0 60 60" fill="none" xmlns="http://www.w3.org/2000/svg">
<path d="M60 30C60 37.7913 59.3296 45.2661 58.1084 52.1551C57.5693 55.1965 55.1965 57.5693 52.1551 58.1084C45.2661 59.3296 37.7913 60 30 60C22.2087 60 14.7339 59.3296 7.84494 58.1084C4.80346 57.5693 2.43074 55.1965 1.89159 52.1551C0.670413 45.2661 0 37.7913 0 30C0 22.2062 0.670829 14.7479 1.89273 7.84952C2.43186 4.80582 4.80544 2.43028 7.84909 1.89086C14.7369 0.670144 22.2102 0 30 0C37.7898 0 45.2631 0.670144 52.1509 1.89086C55.1946 2.43028 57.5681 4.80581 58.1073 7.84951C59.3292 14.7479 60 22.2062 60 30Z" fill="white"/>
<path d="M30.7322 40.998L21 40.998C19.8954 40.998 19 40.1026 19 38.998L19 21.0002C19 19.8956 19.8954 19.0002 21 19.0002L34.4984 19.0002C35.603 19.0002 36.4984 19.8956 36.4984 21.0002L36.4984 38.998C36.4984 40.1026 37.3939 40.998 38.4984 40.998L39.4984 40.998" stroke="#E68205" stroke-width="1.5"/>
<path d="M22.6692 35.8652H28.5353" stroke="#E68205" stroke-width="1.5" stroke-linecap="round"/>
<path d="M22.6692 32.9321H31.4683" stroke="#E68205" stroke-width="1.5" stroke-linecap="round"/>
<path d="M29.5 26.5C29.5 28.433 27.933 30 26 30C24.067 30 22.5 28.433 22.5 26.5C22.5 24.567 24.067 23 26 23C26.5686 23 27.1054 23.1356 27.5801 23.3761" stroke="#E68205" stroke-width="1.5" stroke-linecap="round"/>
<path d="M24.9612 25.7222L26.4997 27.5L29.5 24" stroke="#E68205" stroke-width="1.5" stroke-linecap="round" stroke-linejoin="round"/>
<path d="M21.9359 40.998L39.0007 40.998C40.1053 40.998 41.0007 40.1026 41.0007 38.998L41.0007 28.0661C41.0007 27.5138 40.553 27.0661 40.0007 27.0661L38.801 27.0661" stroke="#E68205" stroke-width="1.5" stroke-linecap="round"/>
</svg>
