<svg xmlns="http://www.w3.org/2000/svg" width="200" height="200" viewBox="0 0 200 200" fill="none">
<rect x="36.7656" y="94.0373" width="121.57" height="85.8705" rx="3.75" fill="white" stroke="#4D545C" stroke-width="0.5"/>
<rect x="39.9707" y="97.2427" width="115.161" height="74.8544" rx="2" fill="#EBF0FF"/>
<mask id="path-3-inside-1_10810_65257" fill="white">
<path d="M25 176.539C25 175.994 25.4419 175.552 25.9871 175.552H167.964C168.509 175.552 168.951 175.994 168.951 176.539V176.539C168.951 179.81 166.299 182.462 163.028 182.462H30.9225C27.6516 182.462 25 179.81 25 176.539V176.539Z"/>
</mask>
<path d="M25 176.539C25 175.994 25.4419 175.552 25.9871 175.552H167.964C168.509 175.552 168.951 175.994 168.951 176.539V176.539C168.951 179.81 166.299 182.462 163.028 182.462H30.9225C27.6516 182.462 25 179.81 25 176.539V176.539Z" fill="white"/>
<path d="M25.9871 176.052H167.964V175.052H25.9871V176.052ZM163.028 181.962H30.9225V182.962H163.028V181.962ZM30.9225 181.962C27.9278 181.962 25.5 179.534 25.5 176.539H24.5C24.5 180.086 27.3755 182.962 30.9225 182.962V181.962ZM168.451 176.539C168.451 179.534 166.023 181.962 163.028 181.962V182.962C166.575 182.962 169.451 180.086 169.451 176.539H168.451ZM167.964 176.052C168.233 176.052 168.451 176.27 168.451 176.539H169.451C169.451 175.718 168.785 175.052 167.964 175.052V176.052ZM25.9871 175.052C25.1658 175.052 24.5 175.718 24.5 176.539H25.5C25.5 176.27 25.7181 176.052 25.9871 176.052V175.052Z" fill="#4D545C" mask="url(#path-3-inside-1_10810_65257)"/>
<path opacity="0.3" d="M120.582 116.821H137.856" stroke="#4D545C" stroke-width="0.5" stroke-linecap="round"/>
<path opacity="0.3" d="M120.582 120.274H137.856" stroke="#4D545C" stroke-width="0.5" stroke-linecap="round"/>
<rect x="76.25" y="70.2686" width="74.1714" height="56.9395" rx="3.75" fill="white" stroke="#4D545C" stroke-width="0.5"/>
<rect x="29.0918" y="96.8237" width="79.458" height="68.9274" rx="4" fill="#FDF5E4"/>
<rect x="66.6777" y="48.25" width="56.9395" height="98.1045" rx="3.75" fill="white" stroke="#4D545C" stroke-width="0.5"/>
<rect opacity="0.5" x="192.248" y="106.372" width="6.86369" height="6.64055" stroke="#4D545C" stroke-width="0.5"/>
<rect opacity="0.5" x="192.248" y="94.2512" width="6.86369" height="6.64055" stroke="#4D545C" stroke-width="0.5"/>
<g opacity="0.5">
<path d="M2.81855 28.7486C1.95967 28.7486 1.25038 29.4688 1.25038 30.3735C1.25038 31.2783 1.95967 31.9985 2.81855 31.9985C3.67743 31.9985 4.38672 31.2783 4.38672 30.3735C4.38672 29.4688 3.67743 28.7486 2.81855 28.7486Z" stroke="#4D545C" stroke-width="0.5"/>
<path d="M16.1525 14.9985C15.2937 14.9985 14.5844 15.7187 14.5844 16.6235C14.5844 17.5282 15.2937 18.2485 16.1525 18.2485C17.0114 18.2485 17.7207 17.5282 17.7207 16.6235C17.7207 15.7187 17.0114 14.9985 16.1525 14.9985Z" stroke="#4D545C" stroke-width="0.5"/>
<path d="M2.81855 14.9985C1.95967 14.9985 1.25038 15.7187 1.25038 16.6235C1.25038 17.5282 1.95967 18.2485 2.81855 18.2485C3.67743 18.2485 4.38672 17.5282 4.38672 16.6235C4.38672 15.7187 3.67743 14.9985 2.81855 14.9985Z" stroke="#4D545C" stroke-width="0.5"/>
<path d="M42.8185 1.24893C41.9597 1.24893 41.2504 1.96915 41.2504 2.87391C41.2504 3.77868 41.9597 4.4989 42.8185 4.4989C43.6774 4.4989 44.3867 3.77868 44.3867 2.87391C44.3867 1.96915 43.6774 1.24893 42.8185 1.24893Z" stroke="#4D545C" stroke-width="0.5"/>
<path d="M29.4865 1.24893C28.6276 1.24893 27.9183 1.96915 27.9183 2.87391C27.9183 3.77868 28.6276 4.4989 29.4865 4.4989C30.3454 4.4989 31.0547 3.77868 31.0547 2.87391C31.0547 1.96915 30.3454 1.24893 29.4865 1.24893Z" stroke="#4D545C" stroke-width="0.5"/>
<path d="M16.1525 1.24893C15.2937 1.24893 14.5844 1.96915 14.5844 2.87391C14.5844 3.77868 15.2937 4.4989 16.1525 4.4989C17.0114 4.4989 17.7207 3.77868 17.7207 2.87391C17.7207 1.96915 17.0114 1.24893 16.1525 1.24893Z" stroke="#4D545C" stroke-width="0.5"/>
<path d="M2.81855 1.24893C1.95967 1.24893 1.25038 1.96915 1.25038 2.87391C1.25038 3.77868 1.95967 4.4989 2.81855 4.4989C3.67743 4.4989 4.38672 3.77868 4.38672 2.87391C4.38672 1.96915 3.67743 1.24893 2.81855 1.24893Z" stroke="#4D545C" stroke-width="0.5"/>
</g>
<path d="M146.597 91.5179C135.717 96.3309 119.001 97.7086 117.737 98.1453C117.034 99.0952 115.046 101.032 112.718 101.178C109.809 101.362 110.482 101.607 108.737 97.9923C107.65 95.741 108.988 95.652 110.931 94.6321M142.5 73C143.543 74.9201 133.5 84.5 130.325 85.5775L115.319 91.9803C114.482 92.0971 113.632 92.1133 112.788 92.0283C111.108 92.0132 109.029 93.0765 109.013 94.1945L111.507 93.6444C112.121 93.7476 112.014 94.0631 110.931 94.6321M110.931 94.6321C111.62 94.5881 112.8 94.8 112 96C112.667 96 113.8 96.4 113 98C113.5 97.8333 114.5 97.8 114.5 99C114.409 99.2739 113.781 99.9574 112 100.5" stroke="#4D545C" stroke-width="0.5" stroke-linecap="round" stroke-linejoin="round"/>
<path d="M143.771 73.6127C146.493 68.0643 149.906 62.8908 153.926 58.2183C155.479 56.1865 157.691 57.799 157.691 57.799C163.38 58.874 158.297 74.5373 153.288 85.1801C150.328 81.1511 147.151 77.2895 143.771 73.6127V73.6127Z" fill="white" stroke="#4D545C" stroke-width="0.5" stroke-linecap="round" stroke-linejoin="round"/>
<path d="M147.887 60.3422C147.887 60.3422 154.347 51.9889 160.911 56.0009C167.475 60.0128 159.405 78.1142 155.811 82.1371L141.338 74.0475L147.887 60.3422Z" fill="white" stroke="#4D545C" stroke-width="0.5" stroke-linecap="round" stroke-linejoin="round"/>
<path d="M155.601 81.5294C158.002 81.0754 161.931 66.0941 160.503 63.4459C160.503 63.4459 153.111 59.1872 152.635 59.6628C147.843 64.5052 155.601 81.5294 155.601 81.5294Z" fill="white" stroke="#4D545C" stroke-width="0.5" stroke-linecap="round" stroke-linejoin="round"/>
<path d="M147.149 191.998L147.281 184.962L154.115 185.484L153.939 192.237L150.747 197.739L144.988 193.346L147.149 191.998Z" fill="white" stroke="#4D545C" stroke-width="0.5" stroke-linecap="round" stroke-linejoin="round"/>
<path d="M145.98 191.264C147.243 192.71 148.624 194.039 150.107 195.236C151.49 196.327 153.553 191.643 154.19 191.057C154.322 190.942 154.497 191.057 154.519 191.264L155.331 198.921H135.081C135.015 198.918 134.951 198.899 134.892 198.867C134.834 198.836 134.783 198.791 134.742 198.736C134.701 198.682 134.673 198.619 134.657 198.552C134.642 198.485 134.64 198.415 134.653 198.347C135.729 192.653 145.98 191.264 145.98 191.264Z" fill="white" stroke="#4D545C" stroke-width="0.5" stroke-linecap="round" stroke-linejoin="round"/>
<path d="M143.48 197.606C143.48 197.606 142.24 193.982 139.511 193.373M134.859 197.74H155.329" stroke="#4D545C" stroke-width="0.5" stroke-linecap="round" stroke-linejoin="round"/>
<path d="M154.724 193.482L150.465 197.741" stroke="#4D545C" stroke-width="0.5" stroke-linecap="round" stroke-linejoin="round"/>
<path d="M178.777 192.788L176.627 185.84L184.141 185.572L185.753 192.922L182.965 197.741L177.097 193.234L178.777 192.788Z" fill="white" stroke="#4D545C" stroke-width="0.5" stroke-linecap="round" stroke-linejoin="round"/>
<path d="M178.502 191.897C179.725 193.347 181.065 194.676 182.508 195.869C183.85 197.017 185.853 192.287 186.481 191.702C186.598 191.587 186.779 191.702 186.801 191.908L187.578 199.566H167.924C167.859 199.561 167.797 199.541 167.74 199.508C167.683 199.474 167.633 199.429 167.594 199.373C167.555 199.318 167.527 199.255 167.512 199.187C167.497 199.119 167.496 199.049 167.508 198.98C168.574 193.297 178.502 191.897 178.502 191.897Z" fill="white" stroke="#4D545C" stroke-width="0.5" stroke-linecap="round" stroke-linejoin="round"/>
<path d="M175.808 198.214C175.808 198.214 174.642 194.602 172.074 193.994M167.732 198.348H187.268" stroke="#4D545C" stroke-width="0.5" stroke-linecap="round" stroke-linejoin="round"/>
<path d="M186.97 194.09L182.711 198.349" stroke="#4D545C" stroke-width="0.5" stroke-linecap="round" stroke-linejoin="round"/>
<path d="M147.169 104.65C147.169 104.65 144.621 135.389 144.396 143.914C144.17 152.438 146.32 185.571 146.32 185.571H154.844C154.844 185.571 163.862 126.962 174.192 106.502L147.169 104.65Z" fill="white" stroke="#4D545C" stroke-width="0.5" stroke-linecap="round" stroke-linejoin="round"/>
<path d="M156.187 186.241L146.005 186.034L145.404 180.039H157.188L156.187 186.241Z" fill="white" stroke="#4D545C" stroke-width="0.5" stroke-linecap="round" stroke-linejoin="round"/>
<path d="M146.814 104.65C146.814 104.65 152.838 130.274 158.95 148.393C163.887 163.046 176.977 186.18 176.977 186.18L185.754 185.801L176.45 148.826C175.875 146.641 175.508 144.407 175.353 142.155C174.804 133.642 176.582 116.444 177.317 105.419L146.814 104.65Z" fill="white" stroke="#4D545C" stroke-width="0.5" stroke-linecap="round" stroke-linejoin="round"/>
<path d="M186.338 186.241L176.415 186.861L173.314 180.642L185.548 180.039L186.338 186.241Z" fill="white" stroke="#4D545C" stroke-width="0.5" stroke-linecap="round" stroke-linejoin="round"/>
<path d="M170.203 50.776C170.203 50.776 183.605 52.1406 184.449 63.2632C185.292 74.3858 179.722 120.468 179.722 120.468L143.162 118.129L146.613 65.8841C146.744 63.0593 147.613 60.3183 149.133 57.9348C150.539 55.7687 152.183 53.267 153.113 53.1478L168.148 49.2814L170.203 50.776Z" fill="white" stroke="#4D545C" stroke-width="0.5" stroke-linecap="round" stroke-linejoin="round"/>
<path d="M165.994 41.4112L169.934 51.8671L166.963 53.3283C162.457 54.9736 158.397 53.9345 157.766 52.0836L158.364 45.8382L164.677 40.1556C165.076 40.4264 165.441 40.7424 165.766 41.0973C165.826 41.2127 165.903 41.3185 165.994 41.4112V41.4112Z" fill="white" stroke="#4D545C" stroke-width="0.5" stroke-linecap="round" stroke-linejoin="round"/>
<path d="M153.938 30.5532C153.828 32.6135 155.579 31.8068 155.579 31.8068C159.097 34.1835 162.467 36.7682 165.67 39.5467C165.67 39.5467 167.729 39.176 167.752 38.6637C167.851 34.7501 167.608 30.019 167.608 30.019C167.976 29.7741 168.271 29.4374 168.465 29.043C168.658 28.6486 168.743 28.2106 168.71 27.7734C168.71 27.7734 168.291 26.1164 166.859 26.3562C166.942 26.0869 166.946 25.8001 166.872 25.5284C166.798 25.2567 166.649 25.011 166.441 24.8192C166.227 24.6662 165.965 24.5942 165.702 24.6162C165.439 24.6382 165.193 24.7528 165.009 24.9391C164.972 24.3819 164.755 23.8512 164.39 23.4253C164.025 22.9994 163.531 22.7008 162.982 22.5735C162.427 22.4465 161.844 22.5127 161.333 22.7609C160.821 23.0091 160.411 23.4241 160.173 23.9362C160.173 23.9362 159.809 22.9333 159.214 22.9878C158.62 23.0423 158.377 23.9907 158.377 23.9907C158.358 23.7727 158.291 23.5616 158.179 23.3725C158.068 23.1834 157.916 23.021 157.734 22.897C157.552 22.773 157.344 22.6904 157.126 22.6552C156.907 22.62 156.684 22.6331 156.471 22.6934C154.676 22.9332 154.566 24.9936 154.566 24.9936C154.547 24.897 154.508 24.8055 154.451 24.7249C154.394 24.6444 154.32 24.5767 154.235 24.5262C154.15 24.4758 154.055 24.4438 153.956 24.4323C153.857 24.4207 153.757 24.43 153.662 24.4594C152.561 24.6447 151.999 25.942 153.013 27.1847C152.765 27.3788 152.569 27.6309 152.444 27.9182C152.319 28.2056 152.269 28.5192 152.297 28.8308C152.33 29.9536 153.938 30.5532 153.938 30.5532Z" fill="white" stroke="#4D545C" stroke-width="0.5" stroke-linecap="round" stroke-linejoin="round"/>
<path d="M165.674 37.5219C165.691 37.5672 165.719 37.6075 165.756 37.6393C165.793 37.6711 165.837 37.6933 165.884 37.704C165.931 37.7148 165.981 37.7136 166.027 37.7006C166.074 37.6877 166.117 37.6634 166.152 37.6299C166.662 37.1332 167.683 36.4421 168.052 38.4398C168.54 41.1394 165.707 40.6751 165.479 41.0422C165.023 41.7765 163.547 44.2817 161.354 45.2212C160.577 45.5839 159.711 45.7097 158.862 45.5828C158.014 45.456 157.223 45.0822 156.588 44.5085C155.123 43.1155 154.319 44.7569 154.927 29.855C155.044 30.2121 155.298 30.5092 155.632 30.6828C155.967 30.8564 156.357 30.8926 156.718 30.7837C157.706 30.5785 158.499 29.7039 159.584 29.4447C160.018 29.2683 160.484 29.1868 160.952 29.2058C161.419 29.2249 161.878 29.3441 162.295 29.5552C162.712 29.7663 163.079 30.0644 163.37 30.4292C163.661 30.7941 163.869 31.217 163.981 31.6692C164.459 33.1162 165.229 36.4421 165.674 37.5219Z" fill="white" stroke="#4D545C" stroke-width="0.5" stroke-linecap="round" stroke-linejoin="round"/>
<path d="M155.541 41.3595C156.518 41.7547 157.15 39.7505 158.759 41.3595C158.759 41.3595 157.21 42.2932 156.359 41.9348C155.509 41.5763 155.541 41.3595 155.541 41.3595Z" fill="#4D545C"/>
<path d="M157.156 36.4986C157.156 36.8335 157.294 37.1126 157.455 37.1126C157.615 37.1126 157.765 36.8335 157.765 36.4986C157.765 36.1637 157.627 35.8958 157.455 35.8958C157.283 35.8958 157.156 36.1637 157.156 36.4986Z" fill="#4D545C"/>
<path d="M155.33 36.4986C155.33 36.8447 155.468 37.1126 155.64 37.1126C155.812 37.1126 155.939 36.8447 155.939 36.4986C155.939 36.1525 155.801 35.8958 155.64 35.8958C155.479 35.8958 155.33 36.1637 155.33 36.4986Z" fill="#4D545C"/>
<path d="M156.401 37.722L155.634 39.4031V39.48L156.547 39.5473M156.851 34.3756C157.257 34.2742 158.129 34.0714 158.372 34.0714M155.939 34.3756L155.33 34.0714" stroke="#4D545C" stroke-width="0.5" stroke-linecap="round" stroke-linejoin="round"/>
<path d="M172.868 22.9109C173.911 23.2843 188.224 25.7942 197.202 29.8801C199.671 31.0104 199.502 35.246 198.066 37.5122L186.445 57.5402L172.777 51.4641C172.86 51.3266 181.833 40.9965 184.232 36.5855C185.097 35.0065 185.178 35.4828 183.753 34.6415L171.369 29.2008C170.678 29.0962 169.977 29.0748 169.28 29.1371C167.892 29.1337 166.52 28.8578 165.241 28.3252L168.223 27.7876C168.731 27.7081 168.643 27.446 167.749 26.9648L162.018 23.9184C162.018 23.9184 160.934 23.0498 161.811 23.2529C162.689 23.456 165.335 24.3585 165.432 24.3912C167.021 25.0572 161.579 22.4696 161.989 22.15C162.399 21.8303 165.777 23.1517 165.794 23.0689C165.81 22.9861 162.47 21.3693 162.841 21.0534C163.213 20.7375 166.245 22.1317 166.315 22.2C166.385 22.2684 163.764 21.192 163.952 21.0112C164.14 20.8305 172.255 22.673 172.868 22.9109Z" fill="white"/>
<path d="M172.868 22.9109L172.777 23.144L172.784 23.1463L172.868 22.9109ZM197.202 29.8801L197.306 29.6528L197.305 29.6525L197.202 29.8801ZM198.066 37.5122L197.855 37.3783L197.85 37.3868L198.066 37.5122ZM186.445 57.5402L186.344 57.7687C186.46 57.8205 186.597 57.7761 186.661 57.6657L186.445 57.5402ZM172.777 51.4641L172.563 51.3342C172.526 51.3956 172.516 51.4701 172.538 51.5387C172.559 51.6073 172.609 51.6633 172.675 51.6925L172.777 51.4641ZM184.232 36.5855L184.013 36.4654L184.013 36.466L184.232 36.5855ZM183.753 34.6415L183.88 34.4262C183.872 34.4211 183.863 34.4166 183.854 34.4126L183.753 34.6415ZM171.369 29.2008L171.47 28.9719C171.45 28.9631 171.429 28.9569 171.407 28.9536L171.369 29.2008ZM169.28 29.1371L169.279 29.3871C169.287 29.3871 169.294 29.3868 169.302 29.3861L169.28 29.1371ZM165.241 28.3252L165.197 28.0792C165.087 28.0989 165.004 28.188 164.992 28.2982C164.98 28.4084 165.042 28.5134 165.145 28.556L165.241 28.3252ZM168.223 27.7876L168.185 27.5406L168.179 27.5416L168.223 27.7876ZM167.749 26.9648L167.868 26.7447L167.867 26.7441L167.749 26.9648ZM162.018 23.9184L161.862 24.1135C161.874 24.1232 161.887 24.1318 161.901 24.1391L162.018 23.9184ZM165.432 24.3912L165.528 24.1607C165.523 24.1584 165.518 24.1564 165.512 24.1545L165.432 24.3912ZM172.784 23.1463C172.933 23.1997 173.29 23.2836 173.791 23.3941C174.3 23.5066 174.982 23.6516 175.795 23.8271C177.423 24.1786 179.588 24.6545 182 25.2461C186.828 26.4303 192.632 28.0748 197.098 30.1076L197.305 29.6525C192.794 27.5994 186.953 25.9461 182.119 24.7605C179.7 24.1672 177.53 23.6902 175.901 23.3384C175.085 23.1623 174.407 23.018 173.899 22.9059C173.382 22.7917 173.064 22.7155 172.952 22.6755L172.784 23.1463ZM197.098 30.1074C198.211 30.6168 198.765 31.8432 198.849 33.2848C198.933 34.7208 198.542 36.2934 197.855 37.3784L198.277 37.6461C199.026 36.4648 199.438 34.7865 199.348 33.2556C199.259 31.7302 198.662 30.2737 197.306 29.6528L197.098 30.1074ZM197.85 37.3868L186.229 57.4147L186.661 57.6657L198.282 37.6377L197.85 37.3868ZM186.547 57.3118L172.878 51.2356L172.675 51.6925L186.344 57.7687L186.547 57.3118ZM172.99 51.594C172.982 51.6077 172.974 51.6162 172.983 51.6053C172.987 51.6001 172.994 51.592 173.003 51.5806C173.022 51.558 173.049 51.5257 173.084 51.4837C173.154 51.3999 173.256 51.2802 173.385 51.1279C173.643 50.8238 174.01 50.3914 174.456 49.8627C175.347 48.8053 176.552 47.362 177.83 45.7848C180.381 42.6378 183.239 38.9343 184.452 36.7049L184.013 36.466C182.826 38.6477 179.999 42.3148 177.442 45.47C176.166 47.0438 174.963 48.4845 174.073 49.5405C173.628 50.0685 173.262 50.5002 173.004 50.8045C172.875 50.9565 172.773 51.0771 172.701 51.1619C172.666 51.2042 172.637 51.2382 172.617 51.263C172.607 51.2753 172.598 51.2862 172.591 51.2951C172.588 51.2984 172.574 51.3161 172.563 51.3342L172.99 51.594ZM184.452 36.7056C184.673 36.3005 184.82 36.0719 184.941 35.8563C184.995 35.7593 185.043 35.6662 185.073 35.5793C185.103 35.4909 185.123 35.3844 185.093 35.2714C185.061 35.157 184.99 35.0762 184.918 35.0171C184.849 34.96 184.762 34.9087 184.671 34.8589C184.479 34.7535 184.233 34.6346 183.88 34.4262L183.626 34.8567C183.985 35.069 184.264 35.2061 184.43 35.2973C184.519 35.3459 184.57 35.3781 184.6 35.4029C184.627 35.4257 184.616 35.425 184.61 35.4024C184.604 35.3811 184.613 35.3779 184.6 35.4174C184.586 35.4584 184.557 35.5181 184.505 35.6116C184.412 35.777 184.224 36.081 184.013 36.4654L184.452 36.7056ZM183.854 34.4126L171.47 28.9719L171.269 29.4297L183.653 34.8704L183.854 34.4126ZM171.407 28.9536C170.696 28.846 169.974 28.824 169.257 28.8881L169.302 29.3861C169.979 29.3256 170.661 29.3464 171.332 29.448L171.407 28.9536ZM169.28 28.8871C167.925 28.8838 166.585 28.6144 165.337 28.0944L165.145 28.556C166.454 29.1012 167.859 29.3836 169.279 29.3871L169.28 28.8871ZM165.285 28.5713L168.268 28.0337L168.179 27.5416L165.197 28.0792L165.285 28.5713ZM168.262 28.0346C168.397 28.0136 168.548 27.9742 168.654 27.8809C168.715 27.8278 168.766 27.752 168.78 27.6543C168.793 27.5603 168.767 27.4765 168.734 27.4119C168.671 27.2911 168.553 27.1827 168.421 27.0844C168.281 26.981 168.097 26.868 167.868 26.7447L167.631 27.185C167.849 27.3023 168.01 27.4024 168.123 27.486C168.243 27.5746 168.282 27.6269 168.29 27.6418C168.292 27.6449 168.279 27.6227 168.285 27.5841C168.291 27.5418 168.313 27.5153 168.324 27.5055C168.332 27.4987 168.304 27.5219 168.185 27.5407L168.262 28.0346ZM167.867 26.7441L162.135 23.6976L161.901 24.1391L167.632 27.1856L167.867 26.7441ZM162.018 23.9184C162.174 23.7233 162.174 23.7233 162.174 23.7233C162.174 23.7233 162.174 23.7234 162.174 23.7234C162.174 23.7234 162.174 23.7233 162.174 23.7233C162.174 23.7233 162.174 23.7232 162.174 23.723C162.174 23.7227 162.173 23.7222 162.172 23.7215C162.17 23.7202 162.168 23.718 162.164 23.7151C162.157 23.7093 162.147 23.7007 162.133 23.6897C162.107 23.6676 162.07 23.6362 162.029 23.5991C161.943 23.5232 161.846 23.4305 161.777 23.3486C161.742 23.3066 161.722 23.2774 161.715 23.2616C161.699 23.2312 161.738 23.2847 161.705 23.3663C161.661 23.4735 161.564 23.4743 161.588 23.4724C161.604 23.4711 161.654 23.473 161.755 23.4964L161.868 23.0093C161.75 22.982 161.641 22.9666 161.549 22.974C161.464 22.9807 161.308 23.016 161.242 23.1761C161.187 23.3105 161.242 23.4353 161.268 23.4868C161.301 23.553 161.349 23.6165 161.394 23.6704C161.487 23.7802 161.606 23.8919 161.696 23.9726C161.742 24.0137 161.783 24.0486 161.813 24.0732C161.827 24.0856 161.839 24.0954 161.848 24.1022C161.852 24.1057 161.855 24.1084 161.858 24.1103C161.859 24.1112 161.86 24.1119 161.86 24.1125C161.861 24.1127 161.861 24.113 161.861 24.1131C161.861 24.1132 161.861 24.1133 161.861 24.1133C161.861 24.1134 161.862 24.1134 161.862 24.1134C161.862 24.1134 161.862 24.1135 162.018 23.9184ZM161.755 23.4964C162.617 23.6959 165.247 24.5924 165.351 24.628L165.512 24.1545C165.424 24.1247 162.761 23.2161 161.868 23.0093L161.755 23.4964ZM165.335 24.6218C165.435 24.6637 165.511 24.6943 165.564 24.7138C165.589 24.7232 165.615 24.7323 165.638 24.7385C165.648 24.7412 165.669 24.7466 165.693 24.749C165.704 24.7501 165.731 24.7524 165.765 24.7464C165.789 24.7422 165.888 24.7213 165.944 24.6165C166.002 24.5071 165.959 24.4096 165.946 24.3838C165.929 24.3512 165.909 24.3297 165.902 24.3218C165.884 24.3035 165.867 24.2904 165.859 24.2848C165.84 24.2711 165.818 24.2573 165.798 24.2452C165.756 24.2198 165.697 24.1865 165.627 24.1478C165.35 23.9961 164.817 23.7169 164.272 23.4206C163.717 23.1189 163.132 22.7903 162.713 22.5189C162.501 22.3816 162.345 22.2669 162.255 22.1832C162.207 22.1379 162.2 22.1208 162.204 22.1295C162.207 22.1358 162.221 22.1684 162.215 22.2173C162.208 22.2751 162.177 22.3204 162.143 22.3471L161.835 21.9528C161.775 21.9995 161.73 22.0693 161.719 22.1555C161.709 22.2329 161.731 22.2982 161.751 22.3408C161.789 22.4221 161.855 22.4928 161.913 22.5476C162.037 22.6639 162.226 22.7987 162.441 22.9385C162.878 23.2213 163.477 23.5579 164.033 23.8599C164.598 24.1672 165.102 24.43 165.386 24.5861C165.456 24.6243 165.507 24.6534 165.539 24.673C165.557 24.6834 165.563 24.6877 165.563 24.6876C165.562 24.6872 165.56 24.6857 165.557 24.6831C165.554 24.6808 165.548 24.6754 165.54 24.6673C165.535 24.6616 165.516 24.642 165.5 24.6109C165.488 24.5867 165.445 24.4905 165.502 24.382C165.558 24.2782 165.656 24.2579 165.678 24.254C165.71 24.2484 165.735 24.2507 165.742 24.2514C165.753 24.2525 165.76 24.254 165.763 24.2547C165.767 24.2554 165.769 24.256 165.77 24.2561C165.77 24.2562 165.768 24.2555 165.761 24.2534C165.755 24.2514 165.747 24.2486 165.737 24.2448C165.695 24.2292 165.627 24.202 165.528 24.1607L165.335 24.6218ZM162.143 22.3471C162.122 22.3633 162.113 22.3597 162.14 22.3551C162.164 22.351 162.203 22.3486 162.259 22.3509C162.371 22.3554 162.521 22.3774 162.703 22.4151C163.065 22.4902 163.517 22.6198 163.964 22.7593C164.411 22.8985 164.844 23.0447 165.172 23.1527C165.334 23.2062 165.473 23.2511 165.572 23.2801C165.621 23.2942 165.667 23.3067 165.705 23.314C165.721 23.3172 165.749 23.3223 165.78 23.3226C165.793 23.3227 165.828 23.3225 165.869 23.3091C165.908 23.2961 166.013 23.2477 166.039 23.1174L165.548 23.0203C165.574 22.8926 165.676 22.8461 165.712 22.8344C165.749 22.8222 165.778 22.8226 165.785 22.8226C165.802 22.8228 165.81 22.8252 165.801 22.8234C165.787 22.8206 165.758 22.8134 165.712 22.8C165.622 22.7738 165.491 22.7316 165.328 22.6778C165.005 22.5713 164.565 22.4227 164.113 22.2819C163.663 22.1414 163.192 22.0058 162.805 21.9255C162.612 21.8856 162.431 21.8575 162.28 21.8513C162.204 21.8482 162.128 21.8502 162.058 21.8619C161.991 21.8731 161.907 21.8967 161.835 21.9528L162.143 22.3471ZM166.039 23.1174C166.059 23.0135 166.009 22.9387 166 22.9251C165.983 22.9004 165.966 22.8831 165.957 22.8748C165.938 22.8568 165.917 22.8417 165.903 22.8314C165.871 22.8092 165.829 22.7834 165.784 22.7564C165.691 22.7013 165.56 22.6283 165.408 22.5445C165.101 22.3754 164.7 22.1574 164.309 21.932C163.917 21.7054 163.547 21.4777 163.299 21.2906C163.172 21.1944 163.096 21.1225 163.063 21.0776C163.045 21.0535 163.057 21.0605 163.061 21.0927C163.068 21.1448 163.048 21.2059 163.003 21.2438L162.679 20.863C162.589 20.9403 162.551 21.0512 162.566 21.1617C162.579 21.2523 162.624 21.3264 162.662 21.377C162.74 21.4813 162.864 21.5881 162.998 21.6893C163.272 21.8967 163.665 22.1376 164.059 22.365C164.455 22.5937 164.863 22.8152 165.166 22.9824C165.319 23.0667 165.444 23.1361 165.529 23.1865C165.572 23.2122 165.6 23.23 165.615 23.2407C165.624 23.2469 165.621 23.2456 165.614 23.2385C165.611 23.2357 165.598 23.2232 165.584 23.2026C165.578 23.1931 165.528 23.1216 165.548 23.0203L166.039 23.1174ZM163.003 21.2438C162.979 21.2647 162.963 21.2632 162.982 21.26C162.999 21.2572 163.029 21.2553 163.077 21.2586C163.174 21.2651 163.306 21.2896 163.468 21.3317C163.792 21.4153 164.197 21.5579 164.6 21.7155C165.002 21.8724 165.395 22.0415 165.692 22.1755C165.841 22.2425 165.964 22.3002 166.051 22.3429C166.095 22.3643 166.129 22.3812 166.151 22.3932C166.163 22.3993 166.169 22.403 166.172 22.4047C166.185 22.4121 166.163 22.4009 166.14 22.3784L166.49 22.0217C166.463 21.9949 166.431 21.9768 166.428 21.975C166.415 21.9674 166.401 21.9595 166.386 21.9517C166.356 21.9358 166.317 21.9161 166.271 21.8935C166.177 21.848 166.049 21.7881 165.898 21.7197C165.595 21.583 165.194 21.4104 164.782 21.2497C164.372 21.0897 163.946 20.9387 163.594 20.8476C163.419 20.8024 163.252 20.7693 163.111 20.7597C163.041 20.755 162.968 20.7554 162.9 20.7669C162.833 20.7779 162.75 20.8026 162.679 20.863L163.003 21.2438ZM166.14 22.3784C166.133 22.3717 166.114 22.3525 166.097 22.3221C166.083 22.2966 166.043 22.2126 166.084 22.1103C166.125 22.006 166.214 21.9723 166.244 21.9633C166.279 21.9531 166.307 21.9531 166.317 21.9532C166.351 21.9536 166.375 21.9618 166.363 21.9587C166.358 21.9574 166.342 21.9522 166.31 21.9408C166.25 21.9191 166.158 21.8834 166.042 21.8368C165.812 21.7439 165.5 21.6115 165.192 21.4715C164.883 21.3307 164.584 21.1853 164.376 21.066C164.269 21.0049 164.2 20.9582 164.166 20.9284C164.146 20.9106 164.158 20.9162 164.172 20.9438C164.18 20.9599 164.195 20.9976 164.191 21.0496C164.187 21.1082 164.16 21.1578 164.125 21.1914L163.778 20.831C163.732 20.8759 163.698 20.9386 163.693 21.0119C163.688 21.0785 163.707 21.1325 163.724 21.1665C163.756 21.2297 163.805 21.2768 163.838 21.3056C163.911 21.369 164.015 21.4356 164.127 21.4997C164.356 21.631 164.672 21.7842 164.986 21.9267C165.3 22.0698 165.619 22.205 165.855 22.3004C165.973 22.3479 166.072 22.3864 166.141 22.4113C166.174 22.4231 166.207 22.4342 166.232 22.4412C166.236 22.4422 166.271 22.4526 166.311 22.4531C166.322 22.4533 166.351 22.4532 166.386 22.4427C166.418 22.4335 166.507 22.3994 166.549 22.2945C166.589 22.1918 166.55 22.1071 166.535 22.0808C166.518 22.0496 166.498 22.0294 166.49 22.0217L166.14 22.3784ZM164.125 21.1914C164.083 21.2317 164.04 21.2433 164.032 21.2453C164.019 21.249 164.011 21.2494 164.014 21.2492C164.018 21.2488 164.033 21.2483 164.063 21.2498C164.122 21.2529 164.211 21.2624 164.329 21.2788C164.564 21.3115 164.894 21.3687 165.291 21.444C166.085 21.5944 167.133 21.8146 168.197 22.0483C169.26 22.2819 170.336 22.5285 171.185 22.7314C171.609 22.8329 171.975 22.9233 172.254 22.9956C172.54 23.0697 172.717 23.1207 172.777 23.144L172.958 22.6779C172.865 22.6417 172.655 22.5831 172.379 22.5116C172.096 22.4382 171.727 22.347 171.301 22.2452C170.449 22.0414 169.37 21.7941 168.304 21.5599C167.239 21.3258 166.185 21.1044 165.385 20.9527C164.985 20.877 164.645 20.818 164.398 20.7836C164.275 20.7665 164.17 20.7547 164.089 20.7505C164.049 20.7485 164.008 20.7478 163.971 20.751C163.952 20.7526 163.927 20.7558 163.9 20.7631C163.879 20.7689 163.826 20.7851 163.778 20.831L164.125 21.1914Z" fill="#4D545C"/>
<path d="M171.633 51.818C171.633 51.818 174.85 67.9107 183.7 71.9334C188.528 59.0601 190.943 51.8177 194.161 47.7948L182.093 37.3352L171.633 51.818Z" fill="white"/>
<path d="M171.633 51.818L171.43 51.6716C171.389 51.728 171.374 51.7988 171.388 51.867L171.633 51.818ZM183.7 71.9334L183.597 72.161C183.66 72.1897 183.732 72.1909 183.796 72.1644C183.86 72.1379 183.91 72.086 183.935 72.0212L183.7 71.9334ZM194.161 47.7948L194.357 47.9509C194.441 47.8461 194.427 47.6938 194.325 47.6058L194.161 47.7948ZM182.093 37.3352L182.256 37.1463C182.203 37.1003 182.134 37.0788 182.064 37.0869C181.994 37.095 181.931 37.132 181.89 37.1888L182.093 37.3352ZM171.633 51.818C171.388 51.867 171.388 51.8671 171.388 51.8673C171.388 51.8674 171.388 51.8677 171.388 51.868C171.388 51.8685 171.388 51.8693 171.388 51.8704C171.389 51.8725 171.389 51.8756 171.39 51.8796C171.392 51.8877 171.394 51.8996 171.398 51.9152C171.404 51.9464 171.414 51.9925 171.427 52.0526C171.453 52.1728 171.492 52.3491 171.545 52.5745C171.651 53.0254 171.812 53.6732 172.033 54.4627C172.475 56.0413 173.157 58.1891 174.117 60.4644C176.031 64.9978 179.079 70.1075 183.597 72.161L183.804 71.7058C179.471 69.7366 176.486 64.7885 174.578 60.2699C173.628 58.0192 172.952 55.8924 172.515 54.3279C172.296 53.5459 172.136 52.905 172.032 52.4601C171.979 52.2377 171.941 52.0643 171.915 51.9468C171.903 51.8881 171.893 51.8433 171.887 51.8134C171.884 51.7984 171.882 51.7872 171.88 51.7797C171.879 51.776 171.879 51.7732 171.878 51.7714C171.878 51.7705 171.878 51.7699 171.878 51.7695C171.878 51.7693 171.878 51.7691 171.878 51.769C171.878 51.769 171.878 51.769 171.633 51.818ZM183.935 72.0212C186.35 65.5794 188.158 60.558 189.766 56.6401C191.374 52.7207 192.771 49.9328 194.357 47.9509L193.966 47.6386C192.333 49.6797 190.914 52.5244 189.303 56.4503C187.692 60.3776 185.878 65.4141 183.466 71.8456L183.935 72.0212ZM194.325 47.6058L182.256 37.1463L181.929 37.5241L193.998 47.9837L194.325 47.6058ZM181.89 37.1888L171.43 51.6716L171.835 51.9644L182.295 37.4816L181.89 37.1888Z" fill="#4D545C"/>
<path d="M41.9316 29.5165C41.9316 29.5165 57.9808 45.5761 55.8938 49.6932C55.8938 49.6932 61.8575 50.4728 49.207 50.3485C48.4643 50.4411 51.0141 51.929 50.2837 52.0975C50.2837 52.0975 42.2667 61.1279 40.0356 63.5099C39.7975 63.7691 39.3309 64.5324 39.3367 64.429C36.9131 58.6406 50.9483 55.9197 52.688 48.0903C52.756 47.8016 38.7156 33.7425 38.7156 33.7425C38.7156 33.7425 33.3428 31.1575 33.751 30.6774C34.3338 29.9613 34.6719 29.5791 34.6719 29.5791C34.9307 29.4155 35.1221 29.1653 35.2104 28.8755C35.2755 28.6313 35.4021 28.4064 35.5782 28.2219C35.7543 28.0374 35.9741 27.8994 36.2171 27.8209C36.8087 27.5758 37.0852 26.9068 37.4264 26.7399C37.7677 26.573 40.8076 28.3827 41.9316 29.5165Z" fill="white" stroke="#4D545C" stroke-width="0.5" stroke-linecap="round" stroke-linejoin="round"/>
<path d="M36.6914 27.6692C37.2613 28.1314 37.7947 28.6688 38.2769 29.2666C38.3841 29.4063 38.472 29.5627 38.5358 29.7268C38.5704 29.8083 38.5877 29.8935 38.5856 29.9735C38.5836 30.0534 38.5623 30.1252 38.5241 30.1811" stroke="#4D545C" stroke-width="0.5" stroke-linecap="round" stroke-linejoin="round"/>
<path d="M37.8125 27.0934C38.3824 27.5557 38.9158 28.0931 39.398 28.6908C39.5052 28.8306 39.5931 28.9869 39.6569 29.1511C39.6915 29.2325 39.7088 29.3177 39.7067 29.3977C39.7047 29.4777 39.6834 29.5495 39.6452 29.6054" stroke="#4D545C" stroke-width="0.5" stroke-linecap="round" stroke-linejoin="round"/>
<path d="M35.6191 28.3279C36.1891 28.7901 36.7225 29.3275 37.2047 29.9253C37.3118 30.065 37.3997 30.2213 37.4635 30.3855C37.4982 30.467 37.5154 30.5522 37.5134 30.6322C37.5113 30.7121 37.49 30.7839 37.4518 30.8398" stroke="#4D545C" stroke-width="0.5" stroke-linecap="round" stroke-linejoin="round"/>
<path d="M39.1617 65.3827C39.1617 65.3827 35.7762 57.5019 38.2625 53.701C40.2375 50.6935 51.0858 48.8918 51.0858 48.8918L40.248 35.4359L45.4758 31.2603C45.4758 31.2603 62.9058 46.3639 62.3059 50.4947C61.7061 54.6255 43.5249 64.7622 39.1617 65.3827Z" fill="white" stroke="#4D545C" stroke-width="0.5" stroke-linecap="round" stroke-linejoin="round"/>
<path d="M38.5485 33.0712C38.5485 33.0712 35.0896 32.1543 35.081 31.634C35.0725 31.1136 35.5216 28.7602 36.3201 28.705C37.1187 28.6498 36.8672 30.7082 36.8672 30.7082C36.8672 30.7082 38.592 30.1582 39.0162 31.1144C39.4403 32.0707 38.5485 33.0712 38.5485 33.0712Z" fill="white" stroke="#4D545C" stroke-width="0.5" stroke-linecap="round" stroke-linejoin="round"/>
<path d="M46.4235 46.2623C46.5774 45.0301 42.519 30.3552 41.9361 29.2674C40.4073 26.4145 32.4726 25.3104 29.4481 27.253C24.5428 30.3833 23.838 39.2745 19.4553 48.882C19.4553 48.882 24.6394 53.7101 32.6538 51.2961C40.6682 48.882 46.4235 46.2623 46.4235 46.2623Z" fill="white"/>
<path d="M46.4235 46.2623L46.6715 46.2933C46.6608 46.3794 46.6061 46.4538 46.527 46.4898L46.4235 46.2623ZM41.9361 29.2674L42.1565 29.1493L42.1565 29.1493L41.9361 29.2674ZM29.4481 27.253L29.5832 27.4633L29.5826 27.4637L29.4481 27.253ZM19.4553 48.882L19.285 49.065C19.2062 48.9916 19.1832 48.8761 19.2279 48.7783L19.4553 48.882ZM46.1754 46.2313C46.1808 46.1881 46.1781 46.0863 46.1567 45.9106C46.1362 45.7425 46.1012 45.5269 46.053 45.2688C45.9567 44.753 45.8095 44.0787 45.6259 43.2972C45.2588 41.7348 44.7485 39.7538 44.2148 37.7758C43.6811 35.798 43.1245 33.8253 42.6652 32.2797C42.4355 31.5067 42.2305 30.8419 42.065 30.3373C41.8962 29.8222 41.776 29.4978 41.7158 29.3854L42.1565 29.1493C42.242 29.3089 42.3761 29.681 42.5402 30.1815C42.7076 30.6924 42.9141 31.3622 43.1445 32.1373C43.6052 33.6877 44.163 35.6646 44.6975 37.6456C45.232 39.6263 45.7438 41.6131 46.1126 43.1828C46.2969 43.9674 46.4461 44.6502 46.5445 45.177C46.5937 45.4402 46.6307 45.6673 46.653 45.85C46.6744 46.0252 46.6854 46.1824 46.6715 46.2933L46.1754 46.2313ZM41.7158 29.3854C41.3703 28.7408 40.644 28.1666 39.6586 27.702C38.6792 27.2403 37.4738 26.9012 36.2153 26.709C34.9573 26.5169 33.6557 26.473 32.4864 26.5956C31.3129 26.7187 30.2933 27.0072 29.5832 27.4633L29.313 27.0426C30.1151 26.5274 31.2216 26.2255 32.4343 26.0984C33.6511 25.9708 34.9959 26.017 36.2907 26.2147C37.585 26.4124 38.839 26.7628 39.8718 27.2498C40.8987 27.7339 41.7375 28.3674 42.1565 29.1493L41.7158 29.3854ZM29.5826 27.4637C27.2111 28.9771 25.8307 31.9008 24.4917 35.7212C23.1617 39.5157 21.8803 44.1685 19.6828 48.9858L19.2279 48.7783C21.4131 43.988 22.6754 39.3915 24.0198 35.5559C25.3551 31.7463 26.7798 28.6592 29.3136 27.0422L29.5826 27.4637ZM19.4553 48.882C19.6257 48.6991 19.6257 48.699 19.6256 48.6989C19.6256 48.699 19.6256 48.6989 19.6256 48.6989C19.6256 48.699 19.6258 48.6991 19.6259 48.6993C19.6263 48.6996 19.627 48.7003 19.628 48.7012C19.6301 48.703 19.6333 48.706 19.6378 48.7101C19.6469 48.7182 19.6608 48.7307 19.6797 48.7471C19.7175 48.78 19.7747 48.8287 19.851 48.8904C20.0035 49.0137 20.2317 49.1886 20.531 49.3918C21.1299 49.7983 22.012 50.317 23.1408 50.7617C25.3962 51.6502 28.6376 52.2447 32.5817 51.0567L32.7259 51.5354C28.6557 52.7615 25.2978 52.1489 22.9576 51.2269C21.7885 50.7663 20.8738 50.2288 20.2502 49.8055C19.9383 49.5938 19.6989 49.4104 19.5365 49.2791C19.4554 49.2135 19.3934 49.1608 19.3513 49.1242C19.3303 49.1058 19.3142 49.0915 19.3031 49.0815C19.2975 49.0765 19.2933 49.0726 19.2902 49.0698C19.2887 49.0684 19.2875 49.0673 19.2866 49.0665C19.2862 49.0661 19.2859 49.0658 19.2856 49.0655C19.2854 49.0654 19.2853 49.0652 19.2852 49.0652C19.2851 49.0651 19.285 49.065 19.4553 48.882ZM32.5817 51.0567C36.5811 49.852 40.017 48.596 42.4528 47.6411C43.6706 47.1638 44.6382 46.7618 45.301 46.4794C45.6323 46.3381 45.8875 46.2268 46.0596 46.1508C46.1456 46.1129 46.2109 46.0838 46.2546 46.0642C46.2764 46.0544 46.2929 46.047 46.3038 46.042C46.3092 46.0396 46.3133 46.0377 46.316 46.0365C46.3174 46.0359 46.3184 46.0354 46.319 46.0352C46.3193 46.035 46.3196 46.0349 46.3197 46.0348C46.3198 46.0348 46.3198 46.0348 46.3199 46.0348C46.3199 46.0347 46.3199 46.0347 46.4235 46.2623C46.527 46.4898 46.527 46.4898 46.5269 46.4899C46.5269 46.4899 46.5268 46.4899 46.5267 46.49C46.5265 46.4901 46.5262 46.4902 46.5258 46.4904C46.5251 46.4907 46.524 46.4912 46.5225 46.4919C46.5196 46.4932 46.5153 46.4951 46.5096 46.4977C46.4983 46.5028 46.4814 46.5104 46.4592 46.5204C46.4146 46.5404 46.3484 46.5699 46.2614 46.6083C46.0875 46.685 45.8304 46.7972 45.497 46.9393C44.8302 47.2235 43.8581 47.6273 42.6353 48.1067C40.1899 49.0652 36.7409 50.326 32.7259 51.5354L32.5817 51.0567Z" fill="#4D545C"/>
<path d="M31.794 37.7732C31.7969 37.8113 31.7922 37.8496 31.7802 37.8857C31.7681 37.9218 31.7489 37.955 31.7239 37.983C31.6989 38.0111 31.6685 38.0334 31.6347 38.0487C31.6009 38.0639 31.5644 38.0717 31.5276 38.0716C30.8669 38.0716 29.3964 37.9279 29.1407 39.6964C29.0969 40.4102 29.3283 41.1128 29.7839 41.6497C30.2395 42.1866 30.882 42.5137 31.5702 42.5592C31.8579 42.5592 32.5186 42.6366 32.7104 42.8576C33.3071 43.5319 32.6532 44.0832 32.6532 47.2889C32.6532 48.0904 32.2229 49.4295 31.8517 50.4947C31.4806 51.5599 28.7597 53.0826 27.8445 53.7004C27.8445 53.7004 42.226 57.9562 42.1301 52.7391C42.1301 52.7391 41.3203 43.1118 41.3736 43.0676C42.1728 42.2386 45.2736 41.8849 43.3236 35.0209C42.4285 31.8819 40.8727 30.4007 39.3916 29.7375" fill="white"/>
<path d="M31.5447 37.7925C31.5341 37.6548 31.637 37.5346 31.7747 37.5239C31.9123 37.5133 32.0326 37.6162 32.0432 37.7539L31.5447 37.7925ZM31.5276 38.0716L31.5276 37.8216L31.5284 37.8216L31.5276 38.0716ZM29.1407 39.6964L28.8911 39.6811C28.8916 39.6743 28.8923 39.6674 28.8932 39.6606L29.1407 39.6964ZM31.5702 42.5592V42.8092C31.5647 42.8092 31.5592 42.809 31.5537 42.8086L31.5702 42.5592ZM32.7104 42.8576L32.5232 43.0233L32.5215 43.0215L32.7104 42.8576ZM27.8445 53.7004L27.7736 53.9402C27.6808 53.9127 27.6122 53.8342 27.5975 53.7386C27.5827 53.6429 27.6245 53.5474 27.7047 53.4932L27.8445 53.7004ZM42.1301 52.7391L42.3792 52.7181C42.3797 52.7236 42.38 52.729 42.3801 52.7345L42.1301 52.7391ZM41.3736 43.0676L41.5536 43.2411C41.5471 43.2478 41.5403 43.2541 41.5332 43.26L41.3736 43.0676ZM43.3236 35.0209L43.564 34.9524L43.5641 34.9526L43.3236 35.0209ZM39.2894 29.9657C39.1634 29.9093 39.107 29.7614 39.1634 29.6354C39.2198 29.5094 39.3677 29.453 39.4938 29.5094L39.2894 29.9657ZM32.0432 37.7539C32.0487 37.8252 32.04 37.897 32.0173 37.9649L31.543 37.8065C31.5445 37.8022 31.5451 37.7974 31.5447 37.7925L32.0432 37.7539ZM32.0173 37.9649C31.9946 38.0329 31.9584 38.0958 31.9104 38.1495L31.5374 37.8165C31.5395 37.8142 31.5416 37.8108 31.543 37.8065L32.0173 37.9649ZM31.9104 38.1495C31.8624 38.2032 31.8037 38.2467 31.7375 38.2766L31.5319 37.8208C31.5333 37.8202 31.5353 37.8189 31.5374 37.8165L31.9104 38.1495ZM31.7375 38.2766C31.6714 38.3064 31.5996 38.3219 31.5267 38.3216L31.5284 37.8216C31.5293 37.8216 31.5304 37.8214 31.5319 37.8208L31.7375 38.2766ZM31.5276 38.3216C31.1724 38.3216 30.6995 38.29 30.2719 38.4542C30.0659 38.5333 29.8773 38.6566 29.7255 38.8506C29.5731 39.0452 29.447 39.3246 29.3881 39.7322L28.8932 39.6606C28.9622 39.184 29.1158 38.8182 29.3318 38.5424C29.5482 38.2659 29.8165 38.0935 30.0927 37.9874C30.6294 37.7814 31.222 37.8216 31.5276 37.8216L31.5276 38.3216ZM29.3902 39.7117C29.3503 40.3622 29.5613 41.0011 29.9745 41.488L29.5933 41.8115C29.0952 41.2246 28.8435 40.4582 28.8911 39.6811L29.3902 39.7117ZM29.9745 41.488C30.3874 41.9744 30.9676 42.2688 31.5867 42.3097L31.5537 42.8086C30.7965 42.7586 30.0916 42.3987 29.5933 41.8115L29.9745 41.488ZM31.5702 42.3092C31.7307 42.3092 31.9849 42.3302 32.2273 42.3808C32.3489 42.4061 32.4744 42.4404 32.5867 42.4865C32.6944 42.5307 32.8137 42.5952 32.8992 42.6938L32.5215 43.0215C32.5112 43.0095 32.476 42.9815 32.3968 42.949C32.3223 42.9184 32.2287 42.8918 32.1252 42.8702C31.9174 42.8269 31.6974 42.8092 31.5702 42.8092V42.3092ZM32.8976 42.6919C33.0786 42.8965 33.1727 43.1045 33.2015 43.3551C33.2284 43.5886 33.1969 43.8521 33.153 44.1593C33.0641 44.7825 32.9032 45.7058 32.9032 47.2889H32.4032C32.4032 45.6663 32.5692 44.7111 32.6581 44.0886C32.7031 43.773 32.7232 43.5719 32.7048 43.4122C32.6884 43.2696 32.6405 43.1559 32.5232 43.0233L32.8976 42.6919ZM32.9032 47.2889C32.9032 47.7247 32.7878 48.2867 32.6329 48.8583C32.4766 49.4351 32.2739 50.0428 32.0878 50.5769L31.6157 50.4124C31.8007 49.8814 31.9987 49.2869 32.1503 48.7275C32.3034 48.1629 32.4032 47.6546 32.4032 47.2889H32.9032ZM32.0878 50.5769C31.9741 50.9032 31.6962 51.2327 31.3689 51.5402C31.035 51.8541 30.6206 52.1713 30.1959 52.4698C29.7702 52.769 29.3286 53.0531 28.9381 53.3C28.5443 53.549 28.2091 53.756 27.9844 53.9076L27.7047 53.4932C27.9376 53.336 28.2856 53.1209 28.6709 52.8774C29.0596 52.6316 29.493 52.3527 29.9084 52.0608C30.3246 51.7682 30.7173 51.4664 31.0265 51.1759C31.3424 50.879 31.5438 50.6187 31.6157 50.4124L32.0878 50.5769ZM27.8445 53.7004C27.9155 53.4607 27.9155 53.4607 27.9156 53.4607C27.9157 53.4608 27.9158 53.4608 27.916 53.4609C27.9164 53.461 27.917 53.4611 27.9178 53.4614C27.9194 53.4619 27.9219 53.4626 27.9253 53.4636C27.932 53.4656 27.9421 53.4685 27.9555 53.4724C27.9822 53.4801 28.0221 53.4916 28.0743 53.5065C28.1787 53.5361 28.3321 53.579 28.5275 53.6318C28.9184 53.7374 29.4772 53.8825 30.1475 54.0405C31.4892 54.3568 33.2735 54.7234 35.0518 54.9278C36.8368 55.1329 38.5884 55.171 39.8777 54.8478C40.5209 54.6865 41.027 54.4405 41.3673 54.1012C41.7005 53.7691 41.891 53.3318 41.8802 52.7437L42.3801 52.7345C42.3933 53.4507 42.1553 54.0216 41.7203 54.4553C41.2925 54.8819 40.6908 55.1594 39.9993 55.3328C38.619 55.6788 36.7932 55.6312 34.9948 55.4245C33.1897 55.2171 31.3846 54.8459 30.0328 54.5272C29.3564 54.3678 28.7923 54.2212 28.3971 54.1145C28.1995 54.0611 28.044 54.0176 27.9378 53.9875C27.8846 53.9724 27.8438 53.9606 27.8161 53.9526C27.8023 53.9486 27.7918 53.9455 27.7847 53.9434C27.7811 53.9424 27.7784 53.9416 27.7765 53.941C27.7756 53.9408 27.7749 53.9405 27.7744 53.9404C27.7742 53.9403 27.774 53.9403 27.7739 53.9402C27.7737 53.9402 27.7736 53.9402 27.8445 53.7004ZM42.1301 52.7391C41.881 52.7601 41.881 52.76 41.881 52.7599C41.881 52.7599 41.881 52.7598 41.881 52.7596C41.8809 52.7593 41.8809 52.7589 41.8809 52.7583C41.8808 52.7571 41.8806 52.7554 41.8804 52.7531C41.88 52.7484 41.8795 52.7415 41.8787 52.7324C41.8772 52.7142 41.8749 52.6872 41.8719 52.6519C41.866 52.5813 41.8573 52.4779 41.8463 52.3462C41.8243 52.0828 41.7928 51.7065 41.7553 51.2549C41.6802 50.3515 41.5806 49.1466 41.4827 47.9402C41.3848 46.7339 41.2885 45.5257 41.22 44.6162C41.1858 44.1616 41.1584 43.7807 41.1413 43.5118C41.1327 43.3776 41.1266 43.2696 41.1235 43.1938C41.122 43.1564 41.121 43.1238 41.1211 43.0989C41.1211 43.0872 41.1213 43.072 41.1225 43.057C41.123 43.0503 41.1242 43.0363 41.1277 43.0197C41.1293 43.0118 41.1329 42.996 41.1402 42.9773C41.1448 42.9657 41.1639 42.9167 41.2139 42.8752L41.5332 43.26C41.5828 43.2188 41.6016 43.1705 41.6057 43.1598C41.6127 43.142 41.616 43.1275 41.6173 43.1211C41.6201 43.1075 41.6208 43.0976 41.6209 43.0963C41.6213 43.0919 41.6211 43.0918 41.6211 43.0996C41.621 43.1137 41.6216 43.1377 41.6231 43.1732C41.626 43.2433 41.6318 43.3467 41.6403 43.48C41.6572 43.746 41.6844 44.1245 41.7186 44.5787C41.787 45.4867 41.8832 46.6937 41.9811 47.8997C42.0789 49.1057 42.1785 50.3103 42.2536 51.2134C42.2911 51.665 42.3225 52.0412 42.3446 52.3045C42.3556 52.4361 42.3643 52.5396 42.3702 52.6101C42.3731 52.6453 42.3754 52.6723 42.3769 52.6906C42.3777 52.6997 42.3783 52.7066 42.3787 52.7112C42.3789 52.7135 42.379 52.7152 42.3791 52.7164C42.3792 52.717 42.3792 52.7174 42.3792 52.7177C42.3792 52.7179 42.3792 52.718 42.3792 52.718C42.3792 52.7181 42.3792 52.7181 42.1301 52.7391ZM41.1936 42.8941C41.315 42.7682 41.4722 42.6588 41.6305 42.5558C41.7972 42.4474 41.9644 42.3465 42.1477 42.22C42.5045 41.974 42.8748 41.6616 43.1653 41.1786C43.7439 40.2162 44.0507 38.4952 43.0831 35.0893L43.5641 34.9526C44.5465 38.4107 44.2778 40.2986 43.5938 41.4362C43.2529 42.0032 42.82 42.3637 42.4316 42.6316C42.2423 42.7622 42.0514 42.8785 41.9031 42.975C41.7465 43.0768 41.6319 43.1598 41.5536 43.2411L41.1936 42.8941ZM43.0832 35.0895C42.205 32.0096 40.6927 30.5941 39.2894 29.9657L39.4938 29.5094C41.0528 30.2074 42.652 31.7541 43.564 34.9524L43.0832 35.0895Z" fill="#4D545C"/>
<path d="M37.7812 28.5023C37.7812 28.5023 35.8977 37.8465 33.5818 38.8159C31.0189 39.943 30.0941 36.9722 30.0689 36.2353" fill="white"/>
<path d="M37.7812 28.5023C37.7812 28.5023 35.8977 37.8465 33.5818 38.8159C31.0189 39.943 30.0941 36.9722 30.0689 36.2353" stroke="#4D545C" stroke-width="0.5" stroke-linecap="round" stroke-linejoin="round"/>
<path d="M40.8011 37.7659L41.4863 37.385L40.2512 35.2957M39.3248 34.6781C39.0161 34.781 38.3985 34.6781 37.7809 35.2957M40.6571 34.1049C40.715 33.9531 40.9059 33.6026 41.2071 33.4141" stroke="#4D545C" stroke-width="0.5" stroke-linecap="round" stroke-linejoin="round"/>
<path d="M38.9699 36.6082C39.0838 36.7821 39.2804 36.8916 39.4046 36.8594C39.5289 36.8272 39.5599 36.6597 39.4046 36.4922C39.2494 36.3247 39.1045 36.2087 38.9699 36.2409C38.8354 36.2731 38.8664 36.4406 38.9699 36.6082Z" fill="#4D545C" stroke="#4D545C" stroke-width="0.5" stroke-linecap="round" stroke-linejoin="round"/>
<path d="M41.0825 39.0171C40.5834 39.3258 40.26 39.8729 40.342 40.2258C40.4239 40.5786 40.7231 40.3562 41.2071 39.9301C41.691 39.5041 42.2001 39.4257 42.1189 39.0436C42.0377 38.6616 41.5627 38.7371 41.0825 39.0171Z" fill="#4D545C" stroke="#4D545C" stroke-width="0.5" stroke-linecap="round" stroke-linejoin="round"/>
<path d="M41.5915 35.5569C41.6979 35.7233 41.8895 35.8364 42.0172 35.8031C42.1449 35.7698 42.1662 35.6102 42.0172 35.4372C41.8682 35.2642 41.7192 35.1644 41.5915 35.1977C41.4638 35.231 41.4851 35.3906 41.5915 35.5569Z" fill="#4D545C" stroke="#4D545C" stroke-width="0.5" stroke-linecap="round" stroke-linejoin="round"/>
<path d="M31.9131 43.9416C31.0604 43.9416 30.3692 43.2504 30.3692 42.3977C30.3692 41.545 31.0604 40.8538 31.9131 40.8538C32.7658 40.8538 33.457 41.545 33.457 42.3977C33.457 43.2504 32.7658 43.9416 31.9131 43.9416Z" fill="white" stroke="#4D545C" stroke-width="0.5" stroke-linecap="round" stroke-linejoin="round"/>
<path d="M39.6334 182.488L40.7755 190.355C40.7755 190.355 42.6029 195.567 44.2933 193.544C45.2836 192.369 46.4367 191.333 47.7196 190.466L48.2793 182.277L39.6334 182.488Z" fill="white" stroke="#4D545C" stroke-width="0.5" stroke-linecap="round" stroke-linejoin="round"/>
<path d="M13.0781 182.307L10.7139 189.462C10.7139 189.462 8.92731 190.962 8.27473 190.922C7.09795 190.851 6.46222 189.834 6.46222 189.834L6.47747 183.111L13.0781 182.307Z" fill="white" stroke="#4D545C" stroke-width="0.5" stroke-linecap="round" stroke-linejoin="round"/>
<g clip-path="url(#clip0_10810_65257)">
<mask id="path-66-inside-2_10810_65257" fill="white">
<path d="M13.3976 194.037V190.269C13.4093 190.092 13.384 189.914 13.3233 189.746C13.2625 189.579 13.1677 189.425 13.0443 189.294C12.921 189.163 12.7718 189.058 12.6058 188.985C12.4397 188.912 12.2602 188.872 12.078 188.869H11.5043C11.1867 188.869 10.8802 188.984 10.6437 189.191L9.48195 190.199C9.24814 190.395 8.95058 190.502 8.6429 190.502C8.33521 190.502 8.03766 190.395 7.80384 190.199L6.45559 189.121C6.21993 188.993 5.94933 188.939 5.68105 188.967H5.27945C5.09734 188.97 4.91782 189.01 4.75174 189.083C4.58566 189.156 4.43647 189.261 4.31315 189.392C4.18983 189.523 4.09495 189.677 4.03424 189.844C3.97352 190.012 3.94821 190.19 3.95987 190.368V196.349"/>
</mask>
<path d="M13.3976 194.037V190.269C13.4093 190.092 13.384 189.914 13.3233 189.746C13.2625 189.579 13.1677 189.425 13.0443 189.294C12.921 189.163 12.7718 189.058 12.6058 188.985C12.4397 188.912 12.2602 188.872 12.078 188.869H11.5043C11.1867 188.869 10.8802 188.984 10.6437 189.191L9.48195 190.199C9.24814 190.395 8.95058 190.502 8.6429 190.502C8.33521 190.502 8.03766 190.395 7.80384 190.199L6.45559 189.121C6.21993 188.993 5.94933 188.939 5.68105 188.967H5.27945C5.09734 188.97 4.91782 189.01 4.75174 189.083C4.58566 189.156 4.43647 189.261 4.31315 189.392C4.18983 189.523 4.09495 189.677 4.03424 189.844C3.97352 190.012 3.94821 190.19 3.95987 190.368V196.349" fill="white"/>
<path d="M13.8976 194.037C13.8976 194.314 13.6738 194.537 13.3976 194.537C13.1215 194.537 12.8976 194.314 12.8976 194.037H13.8976ZM13.3976 190.269H12.8976C12.8976 190.259 12.898 190.248 12.8987 190.237L13.3976 190.269ZM12.078 188.869L12.078 188.369L12.0874 188.369L12.078 188.869ZM11.5043 188.869L11.5038 188.369H11.5043V188.869ZM10.6437 189.191L10.9732 189.567L10.9715 189.569L10.6437 189.191ZM9.48195 190.199L9.80978 190.577L9.80249 190.583L9.48195 190.199ZM8.6429 190.502L8.6429 191.002L8.6429 190.502ZM7.80384 190.199L8.11626 189.809L8.12438 189.816L7.80384 190.199ZM6.45559 189.121L6.69467 188.682C6.72048 188.696 6.74499 188.712 6.76793 188.73L6.45559 189.121ZM5.68105 188.967L5.73305 189.464C5.71578 189.466 5.69842 189.467 5.68105 189.467V188.967ZM5.27945 188.967L5.27006 188.467H5.27945V188.967ZM3.95987 190.368L4.45879 190.335C4.45951 190.346 4.45987 190.357 4.45987 190.368H3.95987ZM4.45987 196.349C4.45987 196.625 4.23601 196.849 3.95987 196.849C3.68372 196.849 3.45987 196.625 3.45987 196.349H4.45987ZM12.8976 194.037V190.269H13.8976V194.037H12.8976ZM12.8987 190.237C12.9058 190.128 12.8904 190.02 12.8531 189.917L13.7934 189.576C13.8775 189.809 13.9128 190.056 13.8966 190.302L12.8987 190.237ZM12.8531 189.917C12.8158 189.814 12.7573 189.718 12.6804 189.637L13.4083 188.951C13.578 189.131 13.7092 189.344 13.7934 189.576L12.8531 189.917ZM12.6804 189.637C12.6035 189.555 12.5097 189.489 12.4045 189.442L12.807 188.527C13.034 188.627 13.2386 188.771 13.4083 188.951L12.6804 189.637ZM12.4045 189.442C12.2992 189.396 12.1849 189.371 12.0687 189.369L12.0874 188.369C12.3354 188.374 12.5802 188.427 12.807 188.527L12.4045 189.442ZM12.078 189.369H11.5043V188.369H12.078V189.369ZM11.5048 189.369C11.3068 189.369 11.1176 189.441 10.9732 189.567L10.3143 188.815C10.6429 188.527 11.0665 188.369 11.5038 188.369L11.5048 189.369ZM10.9715 189.569L9.80972 190.577L9.15418 189.822L10.316 188.813L10.9715 189.569ZM9.80249 190.583C9.47779 190.854 9.06649 191.002 8.6429 191.002L8.6429 190.002C8.83467 190.002 9.01848 189.935 9.16142 189.816L9.80249 190.583ZM8.6429 191.002C8.21931 191.002 7.80801 190.854 7.4833 190.583L8.12438 189.816C8.26731 189.935 8.45112 190.002 8.6429 190.002L8.6429 191.002ZM7.4915 190.59L6.14325 189.511L6.76793 188.73L8.11619 189.809L7.4915 190.59ZM6.21651 189.56C6.07027 189.48 5.90125 189.447 5.73305 189.464L5.62905 188.47C5.99741 188.431 6.36958 188.505 6.69467 188.682L6.21651 189.56ZM5.68105 189.467H5.27945V188.467H5.68105V189.467ZM5.28884 189.467C5.1726 189.469 5.05832 189.494 4.95303 189.54L4.55045 188.625C4.77731 188.525 5.02208 188.472 5.27006 188.467L5.28884 189.467ZM4.95303 189.54C4.84778 189.587 4.75404 189.653 4.67709 189.735L3.94921 189.049C4.11889 188.869 4.32354 188.725 4.55045 188.625L4.95303 189.54ZM4.67709 189.735C4.60018 189.816 4.54165 189.912 4.50437 190.015L3.5641 189.674C3.64825 189.442 3.77947 189.229 3.94921 189.049L4.67709 189.735ZM4.50437 190.015C4.46709 190.118 4.45167 190.226 4.45879 190.335L3.46094 190.4C3.44474 190.154 3.47995 189.907 3.5641 189.674L4.50437 190.015ZM4.45987 190.368V196.349H3.45987V190.368H4.45987Z" fill="#4D545C" mask="url(#path-66-inside-2_10810_65257)"/>
<path d="M3.6064 196.314C3.60695 196.321 3.60722 196.328 3.60722 196.335V198.676H13.7211V196.335C13.7211 196.328 13.7213 196.322 13.7218 196.315C13.8084 195.203 13.4445 194.102 12.707 193.248C11.9717 192.397 10.9233 191.859 9.78566 191.752H7.54226C6.40324 191.856 5.35277 192.392 4.61685 193.244C3.87878 194.099 3.51631 195.202 3.6064 196.314Z" fill="white" stroke="#4D545C" stroke-width="0.5" stroke-linecap="round" stroke-linejoin="round"/>
<path d="M13.0703 196.758L5.5163 196.758" stroke="#4D545C" stroke-width="0.5" stroke-linecap="round" stroke-linejoin="round"/>
</g>
<path d="M26.5274 79.8712C23.6582 84.7984 21.547 90.1298 20.265 95.686C18.2833 103.451 7.21462 169.065 6.28401 183.161C8.81893 183.558 11.3937 183.635 13.9478 183.391C18.8636 169.306 33.4358 123.789 35.5488 114.907C35.6152 114.628 35.7837 114.383 36.0212 114.222C36.2587 114.06 36.5479 113.994 36.8321 114.035C37.1163 114.076 37.3747 114.222 37.5566 114.444C37.7385 114.667 37.8307 114.949 37.8151 115.236C36.6108 125.377 38.4829 166.557 39.4464 183.632C40.7273 184.289 46.8584 184.168 48.3364 183.982C49.9458 166.601 58.4964 100.746 45.5884 79.444C39.6653 78.6336 32.5271 79.6959 26.5274 79.8712Z" fill="white" stroke="#4D545C" stroke-width="0.5" stroke-linecap="round" stroke-linejoin="round"/>
<path d="M30.9863 81.6128C30.9863 81.6128 30.793 98.2922 22.958 96.9782Z" fill="white"/>
<path d="M30.9863 81.6128C30.9863 81.6128 30.793 98.2922 22.958 96.9782" stroke="#4D545C" stroke-width="0.5" stroke-linecap="round" stroke-linejoin="round" stroke-dasharray="2 2"/>
<path d="M49.5137 97.5955C42.2456 98.9168 43.406 82.2308 43.406 82.2308Z" fill="white"/>
<path d="M49.5137 97.5955C42.2456 98.9168 43.406 82.2308 43.406 82.2308" stroke="#4D545C" stroke-width="0.5" stroke-linecap="round" stroke-linejoin="round" stroke-dasharray="2 2"/>
<path d="M39.0154 178.571H48.8965" stroke="#4D545C" stroke-width="0.5" stroke-linecap="round" stroke-linejoin="round"/>
<path d="M6.77683 178.503H15.5898" stroke="#4D545C" stroke-width="0.5" stroke-linecap="round" stroke-linejoin="round"/>
<path d="M41.9454 50.1168C41.7673 50.5317 49.1035 64.8577 48.892 68.9414C48.6805 73.0252 45.8195 79.948 46.0421 80.5703C46.0421 80.5703 42.8026 83.0818 24.8906 80.3083C19.3912 75.5912 24.2227 59.5619 26.0818 54.4408C26.0818 54.4408 29.7912 52.9622 31.8507 50.4945C30.6841 49.7037 40.9769 57.3453 41.9454 50.1168Z" fill="white" stroke="#4D545C" stroke-width="0.5" stroke-linecap="round" stroke-linejoin="round"/>
<path d="M39.0156 82.8483L49.7836 69.8794L61.248 69.9775L52.459 81.9656L47.274 82.6957L39.0156 82.8483Z" fill="white" stroke="#4D545C" stroke-width="0.5" stroke-linecap="round" stroke-linejoin="round"/>
<path d="M45.1914 75.4373V77.5116L42.7211 78.5252L45.1914 75.4373Z" fill="white" stroke="#4D545C" stroke-width="0.5" stroke-linecap="round" stroke-linejoin="round"/>
<path d="M34.2169 85.3184C39.4232 84.2673 44.5461 82.8542 49.5466 81.0898C50.116 80.8864 51.7913 80.1263 51.7365 79.8801C51.7365 79.3234 48.3531 80.8007 48.4516 80.6615C48.5502 80.5224 52.6016 79.2163 52.6016 78.756C52.6016 78.0816 48.145 79.6231 48.0684 79.6446C46.9077 79.9764 52.3826 78.3278 52.503 77.8675C52.6235 77.4071 50.0722 77.9745 49.9736 77.9959C49.2633 78.2324 48.5291 78.3939 47.7837 78.4777C47.707 78.3385 52.0103 75.812 51.5504 75.5444C51.0905 75.2767 47.8056 76.7862 47.0281 77.0753C46.3097 77.3589 45.5236 77.4368 44.7615 77.3001C44.5097 77.1502 44.7615 75.9191 45.2871 75.4373C44.2306 75.8963 43.2608 76.526 42.4183 77.3001C42.0725 77.7001 41.7542 78.1221 41.4656 78.5633L34.0745 79.9764L34.2169 85.3184Z" fill="white" stroke="#4D545C" stroke-width="0.5" stroke-linecap="round" stroke-linejoin="round"/>
<path d="M29.715 59.4469C29.715 59.4469 30.8029 52.6925 27.2998 53.2364C21.4577 54.1717 14.7887 67.4955 17.3453 85.1917C18.1722 90.9454 41.4863 85.3439 41.4863 85.3439L39.985 76.9255L27.822 78.9486L29.715 59.4469Z" fill="white" stroke="#4D545C" stroke-width="0.5" stroke-linecap="round" stroke-linejoin="round"/>
<path d="M41.1309 43.2639C40.112 43.6352 38.7483 43.4091 37.6678 43.2639C36.5874 43.1186 35.5637 42.7143 34.693 42.0889" stroke="#4D545C" stroke-width="0.5" stroke-linecap="round" stroke-linejoin="round"/>
<g style="mix-blend-mode:multiply">
<path d="M46.5886 83.448C46.5886 83.448 56.6191 115.731 47.9253 176.614H39.8832C39.8832 176.614 38.878 112.256 38.182 111.392C37.4861 110.529 13.4703 176.614 13.4703 176.614H7.40563C7.40563 176.614 19.4135 93.4258 23.4456 88.5626C23.6444 88.3221 33.233 86.2567 40.0158 84.825L46.5886 83.448Z" fill="#F1F7FF"/>
</g>
<mask id="path-84-inside-3_10810_65257" fill="white">
<path d="M39.0167 198.958C38.943 196.127 39.1137 192.226 39.5273 189.418C39.5689 189.306 39.6469 189.207 39.7513 189.135C39.8556 189.063 39.9816 189.021 40.113 189.013C40.2424 188.991 40.3759 188.995 40.5034 189.025C40.6309 189.055 40.749 189.111 40.8489 189.189C41.7349 189.971 43.1752 192.326 45.5346 191.633C46.5032 191.348 47.9786 190.687 48.8234 190.175C48.9826 190.07 49.1745 190.014 49.3715 190.014C49.5685 190.014 49.7604 190.07 49.9197 190.175L57.2934 193.384C57.8352 193.588 58.2913 193.94 58.5962 194.391C58.901 194.842 59.0391 195.368 58.9905 195.893C58.9003 196.905 58.645 198.958 58.2996 198.958L39.0167 198.999"/>
</mask>
<path d="M39.0167 198.958C38.943 196.127 39.1137 192.226 39.5273 189.418C39.5689 189.306 39.6469 189.207 39.7513 189.135C39.8556 189.063 39.9816 189.021 40.113 189.013C40.2424 188.991 40.3759 188.995 40.5034 189.025C40.6309 189.055 40.749 189.111 40.8489 189.189C41.7349 189.971 43.1752 192.326 45.5346 191.633C46.5032 191.348 47.9786 190.687 48.8234 190.175C48.9826 190.07 49.1745 190.014 49.3715 190.014C49.5685 190.014 49.7604 190.07 49.9197 190.175L57.2934 193.384C57.8352 193.588 58.2913 193.94 58.5962 194.391C58.901 194.842 59.0391 195.368 58.9905 195.893C58.9003 196.905 58.645 198.958 58.2996 198.958L39.0167 198.999" fill="white"/>
<path d="M39.5165 198.945C39.5237 199.221 39.3057 199.451 39.0297 199.458C38.7537 199.465 38.524 199.247 38.5169 198.971L39.5165 198.945ZM39.5273 189.418L39.0326 189.345C39.0377 189.311 39.0464 189.277 39.0585 189.244L39.5273 189.418ZM40.113 189.013L40.1994 189.506C40.1801 189.509 40.1606 189.511 40.141 189.513L40.113 189.013ZM40.8489 189.189L41.1551 188.793C41.1635 188.8 41.1718 188.807 41.1798 188.814L40.8489 189.189ZM45.5346 191.633L45.3937 191.153L45.5346 191.633ZM48.8234 190.175L49.0971 190.593C49.0923 190.596 49.0874 190.599 49.0825 190.602L48.8234 190.175ZM49.9197 190.175L49.7201 190.633C49.6943 190.622 49.6695 190.608 49.6459 190.593L49.9197 190.175ZM57.2934 193.384L57.1176 193.852C57.1096 193.849 57.1017 193.846 57.0939 193.843L57.2934 193.384ZM58.9905 195.893L58.4924 195.849L58.4926 195.847L58.9905 195.893ZM58.2996 198.958L58.2986 198.458H58.2996V198.958ZM39.0177 199.499C38.7416 199.499 38.5173 199.276 38.5167 199C38.5161 198.724 38.7395 198.499 39.0156 198.499L39.0177 199.499ZM38.5169 198.971C38.4425 196.118 38.6139 192.187 39.0326 189.345L40.0219 189.491C39.6134 192.264 39.4434 196.136 39.5165 198.945L38.5169 198.971ZM39.0585 189.244C39.138 189.03 39.2836 188.851 39.467 188.724L40.0355 189.547C40.0102 189.564 39.9998 189.582 39.9961 189.592L39.0585 189.244ZM39.467 188.724C39.6501 188.597 39.8654 188.526 40.085 188.514L40.141 189.513C40.0977 189.515 40.0612 189.529 40.0355 189.547L39.467 188.724ZM40.0265 188.521C40.2229 188.486 40.4252 188.492 40.6193 188.539L40.3875 189.511C40.3266 189.497 40.262 189.495 40.1994 189.506L40.0265 188.521ZM40.6193 188.539C40.8133 188.585 40.9969 188.671 41.1551 188.793L40.5427 189.584C40.5011 189.552 40.4484 189.526 40.3875 189.511L40.6193 188.539ZM41.1798 188.814C41.4263 189.032 41.7126 189.359 41.9898 189.658C42.282 189.974 42.597 190.296 42.9476 190.57C43.6408 191.113 44.4251 191.438 45.3937 191.153L45.6755 192.113C44.2847 192.521 43.1692 192.014 42.3309 191.358C41.9157 191.032 41.557 190.662 41.2563 190.338C40.9405 189.997 40.7145 189.737 40.5179 189.563L41.1798 188.814ZM45.3937 191.153C46.3187 190.881 47.7545 190.238 48.5642 189.747L49.0825 190.602C48.2027 191.136 46.6878 191.815 45.6755 192.113L45.3937 191.153ZM48.5496 189.756C48.7932 189.597 49.0809 189.514 49.3715 189.514V190.514C49.2682 190.514 49.172 190.544 49.0971 190.593L48.5496 189.756ZM49.3715 189.514C49.6622 189.514 49.9498 189.597 50.1934 189.756L49.6459 190.593C49.571 190.544 49.4749 190.514 49.3715 190.514V189.514ZM50.1192 189.716L57.493 192.926L57.0939 193.843L49.7201 190.633L50.1192 189.716ZM57.4692 192.916C58.1015 193.154 58.6436 193.569 59.0103 194.111L58.182 194.671C57.9389 194.312 57.5689 194.022 57.1176 193.852L57.4692 192.916ZM59.0103 194.111C59.3778 194.654 59.548 195.295 59.4883 195.939L58.4926 195.847C58.5302 195.441 58.4243 195.029 58.182 194.671L59.0103 194.111ZM59.4885 195.938C59.4428 196.451 59.3547 197.235 59.2324 197.896C59.172 198.223 59.0992 198.543 59.0118 198.789C58.9693 198.909 58.9132 199.041 58.836 199.153C58.7752 199.24 58.603 199.458 58.2996 199.458V198.458C58.1903 198.458 58.1104 198.5 58.0678 198.532C58.0471 198.547 58.0333 198.561 58.0257 198.569C58.018 198.577 58.0141 198.583 58.0136 198.584C58.0132 198.584 58.0196 198.575 58.0309 198.55C58.0419 198.527 58.0549 198.495 58.0694 198.454C58.1299 198.284 58.1913 198.027 58.2491 197.714C58.3634 197.096 58.448 196.347 58.4924 195.849L59.4885 195.938ZM58.3007 199.458L39.0177 199.499L39.0156 198.499L58.2986 198.458L58.3007 199.458Z" fill="#4D545C" mask="url(#path-84-inside-3_10810_65257)"/>
<path d="M39.0002 195.225H50.2656" stroke="#4D545C" stroke-width="0.5" stroke-linecap="round" stroke-linejoin="round"/>
<path d="M109.5 95L108 92" stroke="#000A16" stroke-opacity="0.7"/>
<circle cx="105.5" cy="86.5" r="6" stroke="#000A16" stroke-opacity="0.7"/>
<defs>
<clipPath id="clip0_10810_65257">
<rect width="11.331" height="10.7015" fill="white" transform="matrix(-1 0 0 1 14.3301 188.575)"/>
</clipPath>
</defs>
</svg>