<svg width="129" height="108" viewBox="0 0 129 108" fill="none" xmlns="http://www.w3.org/2000/svg">
<path opacity="0.3" d="M114.903 57.0682L81.4486 21.6789L80.8904 21.073L69.5468 9.09835C66.2202 5.52381 61.1246 4.14033 56.4206 5.53447C53.1801 6.41204 50.25 8.16423 47.9579 10.5952L4.13191 56.6227C-0.41789 61.2037 -1.31 68.2303 1.95322 73.7828C5.59247 80.4607 13.2626 83.9434 20.7512 82.3183C23.5161 81.6044 26.0159 80.1201 27.9535 78.0416L60.3639 44.0244L95.6191 81.3204C98.7959 85.0871 103.842 86.7677 108.673 85.6684C114.208 83.8574 118.333 79.2439 119.477 73.5868C120.943 67.6964 119.281 61.4723 115.065 57.0682" fill="url(#paint0_linear_8916_39048)"/>
<path d="M62.7285 75.5414C66.6985 67.448 71.6765 59.9015 77.5413 53.0858C79.8059 50.122 83.0321 52.4742 83.0321 52.4742C91.3304 54.0423 83.9163 76.89 76.6107 92.4144C72.2922 86.5375 67.6578 80.9047 62.7285 75.5414Z" fill="white" stroke="#000A16" stroke-width="0.5" stroke-linecap="round" stroke-linejoin="round"/>
<path d="M79.9853 87.0896C83.4882 86.4274 89.2187 64.5745 87.1364 60.7116C87.1364 60.7116 76.3534 54.4995 75.6593 55.1932C68.6697 62.2568 79.9853 87.0896 79.9853 87.0896Z" fill="white" stroke="#000A16" stroke-width="0.5" stroke-linecap="round" stroke-linejoin="round"/>
<path d="M101.285 42.2304C101.285 42.2304 120.833 44.2209 122.064 60.4453C123.295 76.6696 117.542 107.502 117.542 107.502L64.2129 106.777L66.8733 64.2683C67.0649 60.1478 68.3325 56.1496 70.5495 52.6727C72.6006 49.5132 74.9989 45.8639 76.3558 45.6901L98.2869 40.0503L101.285 42.2304Z" fill="white" stroke="#000A16" stroke-width="0.5" stroke-linecap="round" stroke-linejoin="round"/>
<path d="M98.1895 104.403C96.5881 104.181 74.3138 108.846 60.2764 105.687C56.4137 104.808 56.4824 94.7247 57.8582 91.0608L68.4853 59L86.0808 66.6583C81.2543 72.9955 79.9994 81.2493 77.8878 88.2628C77.1232 90.7751 76.8664 90.1189 79.1511 90.8959L98.4552 94.9755C99.4733 94.9189 100.482 94.7404 101.458 94.4439C103.441 94.0353 105.483 94.0203 107.467 94.3999L103.369 96.0561C102.667 96.3209 102.871 96.6691 104.291 97.0897L113.382 99.7324C113.382 99.7324 115.189 100.65 113.875 100.621C112.562 100.592 108.514 100.092 108.367 100.074C105.9 99.5967 114.441 101.67 113.951 102.249C113.461 102.827 108.243 101.947 108.244 102.07C108.245 102.193 113.496 103.507 113.06 104.069C112.624 104.63 107.878 103.543 107.758 103.466C107.639 103.389 111.702 104.146 111.487 104.46C111.273 104.774 99.1348 104.561 98.1895 104.403Z" fill="white" stroke="#000A16" stroke-width="0.5" stroke-linecap="round" stroke-linejoin="round"/>
<path d="M95.1454 28.5693L100.893 43.8211L96.5585 45.9526C89.9855 48.3524 84.0634 46.8367 83.1426 44.1369L84.0158 35.0268L93.2243 26.7378C93.8055 27.1327 94.3383 27.5937 94.812 28.1114C94.8995 28.2798 95.0119 28.4341 95.1454 28.5693Z" fill="white" stroke="#000A16" stroke-width="0.5" stroke-linecap="round" stroke-linejoin="round"/>
<path d="M77.5584 12.7317C77.3977 15.7371 79.9526 14.5604 79.9526 14.5604C85.0839 18.0273 89.999 21.7975 94.6712 25.8503C94.6712 25.8503 97.676 25.3097 97.7081 24.5623C97.8528 18.8538 97.4992 11.9525 97.4992 11.9525C98.0352 11.5953 98.4662 11.1041 98.7484 10.5288C99.0306 9.95354 99.154 9.3146 99.1061 8.67687C99.1061 8.67687 98.4955 6.25986 96.4066 6.60969C96.5269 6.21686 96.5335 5.79852 96.4255 5.40219C96.3176 5.00585 96.0995 4.64742 95.796 4.36761C95.4843 4.14449 95.1021 4.03943 94.7188 4.07153C94.3355 4.10362 93.9765 4.27075 93.7071 4.54253C93.653 3.72976 93.3365 2.95568 92.8042 2.33443C92.2719 1.71317 91.552 1.27762 90.7506 1.09194C89.9408 0.906684 89.0912 1.00319 88.3449 1.36522C87.5986 1.72725 87.0011 2.33269 86.6531 3.07961C86.6531 3.07961 86.1229 1.61667 85.2552 1.69617C84.3875 1.77568 84.034 3.15909 84.034 3.15909C84.0061 2.84111 83.9076 2.53318 83.7453 2.25736C83.583 1.98155 83.361 1.74467 83.0953 1.56379C82.8296 1.38291 82.5267 1.26249 82.2084 1.21114C81.89 1.1598 81.5642 1.17881 81.2542 1.26683C78.635 1.61666 78.4743 4.62202 78.4743 4.62202C78.447 4.48116 78.3899 4.34764 78.3068 4.23016C78.2236 4.11268 78.1163 4.0139 77.9919 3.94033C77.8675 3.86676 77.7288 3.82004 77.5848 3.80324C77.4409 3.78645 77.295 3.79995 77.1567 3.84287C75.5499 4.11319 74.7304 6.00545 76.2087 7.81821C75.847 8.1013 75.5622 8.46898 75.3798 8.88813C75.1975 9.30729 75.1234 9.76475 75.1642 10.2193C75.2124 11.8571 77.5584 12.7317 77.5584 12.7317Z" fill="white" stroke="#000A16" stroke-width="0.5" stroke-linecap="round" stroke-linejoin="round"/>
<path d="M94.6772 22.8957C94.702 22.9617 94.7429 23.0206 94.7963 23.0669C94.8496 23.1133 94.9137 23.1458 94.9828 23.1614C95.0519 23.177 95.1238 23.1753 95.1921 23.1564C95.2604 23.1375 95.3228 23.1021 95.3739 23.0532C96.1181 22.3287 97.6066 21.3206 98.145 24.2346C98.8576 28.1725 94.7247 27.4951 94.3921 28.0307C93.7271 29.1018 91.5735 32.7562 88.3748 34.1265C87.2425 34.6555 85.978 34.8391 84.7408 34.654C83.5037 34.469 82.3493 33.9237 81.4234 33.0869C79.2856 31.055 78.1139 33.4492 79.0006 11.7122C79.1716 12.233 79.5408 12.6664 80.0292 12.9196C80.5176 13.1728 81.0863 13.2257 81.6134 13.0668C83.0543 12.7675 84.2103 11.4917 85.7938 11.1136C86.4257 10.8562 87.106 10.7374 87.7883 10.7652C88.4706 10.793 89.1389 10.9668 89.7475 11.2748C90.3562 11.5827 90.891 12.0176 91.3154 12.5498C91.7398 13.0819 92.0439 13.6988 92.2069 14.3584C92.9037 16.4691 94.0279 21.3206 94.6772 22.8957Z" fill="white" stroke="#000A16" stroke-width="0.5" stroke-linecap="round" stroke-linejoin="round"/>
<path d="M81.738 28.2011C83.1636 28.7776 83.3584 27.6534 83.872 28.541C83.872 28.541 83.4545 29.6986 82.2139 29.1758C80.9733 28.653 81.738 28.2011 81.738 28.2011Z" fill="#000A16"/>
<path d="M82.2539 21.4043C82.2539 21.8928 82.4549 22.2999 82.6893 22.2999C82.9237 22.2999 83.1414 21.8928 83.1414 21.4043C83.1414 20.9157 82.9405 20.5249 82.6893 20.5249C82.4381 20.5249 82.2539 20.9157 82.2539 21.4043Z" fill="#000A16"/>
<path d="M79.5898 21.4043C79.5898 21.9091 79.7908 22.2999 80.042 22.2999C80.2931 22.2999 80.4774 21.9091 80.4774 21.4043C80.4774 20.8995 80.2764 20.5249 80.042 20.5249C79.8075 20.5249 79.5898 20.9157 79.5898 21.4043Z" fill="#000A16"/>
<path d="M81.1519 23.1884L80.0336 25.6407V25.7528L81.3649 25.8509M81.8086 18.307C82.4003 18.1591 83.6724 17.8633 84.0274 17.8633M80.4774 18.307L79.5898 17.8633" stroke="#000A16" stroke-width="0.5" stroke-linecap="round" stroke-linejoin="round"/>
<path d="M68.5716 53.5291C68.5716 53.5291 74.3175 41.1109 83.8925 46.963C86.0812 55.7178 85.5325 82.1077 80.2898 87.9758L59.1777 76.1757L68.5716 53.5291Z" fill="white" stroke="#000A16" stroke-width="0.5" stroke-linecap="round" stroke-linejoin="round"/>
<path d="M77.1804 48.1219C77.379 49.7264 76.7089 88.6922 79.6614 102.775C80.4828 106.65 91.1529 101.908 94.8366 100.586L110.779 90.3315L117.852 57.0981C117.63 57.1733 104.069 71.2192 97.0253 73.2272C94.5021 73.9547 92.2969 78.8061 91.5536 76.5103L86.6113 47.9951C86.6828 46.9779 86.8761 45.9724 87.187 45.0001C87.6248 43.0237 87.6698 40.9825 87.3195 38.9925L85.6031 43.0664C85.328 43.7634 84.9829 43.5551 84.5832 42.1291L82.0747 32.9995C82.0747 32.9995 81.184 31.18 81.1933 32.4933C81.2027 33.8067 81.6432 37.8619 81.659 38.0096C82.1002 40.4835 80.1526 31.9126 79.5669 32.3941C78.9811 32.8756 79.7845 38.1059 79.6614 38.1028C79.5383 38.0997 78.3021 32.8304 77.7341 33.2579C77.1661 33.6854 78.1833 38.4469 78.2584 38.5678C78.3336 38.6887 77.6372 34.615 77.32 34.8249C77.0028 35.0348 77.037 47.1743 77.1804 48.1219Z" fill="white" stroke="#000A16" stroke-width="0.5" stroke-linecap="round" stroke-linejoin="round"/>
<path d="M103.593 54.6232C103.593 54.6232 109.062 44.7739 118.912 48.057C132.903 54.8624 116.723 91.8309 109.062 95.114L92.6483 76.5103L103.593 54.6232Z" fill="white" stroke="#000A16" stroke-width="0.5" stroke-linecap="round" stroke-linejoin="round"/>
<path d="M77.3287 83.0763L62.0078 75.4159C68.1362 53.5289 74.0457 48.0571 76.2344 48.0571L77.3287 83.0763Z" fill="#E8F8EC"/>
<g style="mix-blend-mode:multiply">
<path d="M104.686 43.6797C101.184 48.0571 91.5542 49.1514 87.1768 49.1514L91.5542 74.3215L93.7429 77.6045L109.064 94.0198C118.913 83.0763 122.196 64.4723 122.196 56.8119C122.196 49.1514 114.536 48.0571 113.441 46.9627C112.566 46.0873 107.24 44.4093 104.686 43.6797Z" fill="#E8F8EC"/>
</g>
<path d="M88.7523 105.75H47.25V103.25H87.5C87.9354 103.25 88.2044 103.33 88.3748 103.444C88.5387 103.553 88.6402 103.713 88.7011 103.942C88.7639 104.179 88.7791 104.474 88.7754 104.829C88.7738 104.982 88.769 105.14 88.7639 105.308C88.7631 105.334 88.7622 105.361 88.7614 105.388C88.7579 105.505 88.7545 105.626 88.7523 105.75Z" fill="white" stroke="black" stroke-width="0.5"/>
<path d="M56.6768 105.75H13.5924L2.33606 68.25H45.1419L56.6768 105.75Z" fill="white" stroke="black" stroke-width="0.5"/>
<path d="M28.4497 86.75C27.4985 86.75 26.5194 85.9437 26.2954 84.9453C26.1854 84.455 26.2827 84.0319 26.5044 83.7358C26.7249 83.4414 27.0849 83.25 27.5503 83.25C28.5013 83.25 29.4792 84.0561 29.7046 85.0549C29.8146 85.5451 29.7173 85.9681 29.4956 86.2642C29.2751 86.5586 28.9151 86.75 28.4497 86.75Z" fill="white" stroke="black" stroke-width="0.5"/>
<path d="M3.71582 105.25H124.284C124.975 105.25 125.534 105.81 125.534 106.5C125.534 107.19 124.975 107.75 124.284 107.75H3.71582C3.02547 107.75 2.46582 107.19 2.46582 106.5C2.46582 105.81 3.02546 105.25 3.71582 105.25Z" fill="white" stroke="black" stroke-width="0.5"/>
<defs>
<linearGradient id="paint0_linear_8916_39048" x1="60" y1="5" x2="60" y2="86" gradientUnits="userSpaceOnUse">
<stop stop-color="#F15B2B"/>
<stop offset="1" stop-color="#F15B2B" stop-opacity="0"/>
</linearGradient>
</defs>
</svg>
