<svg width="200" height="200" viewBox="0 0 200 200" fill="none" xmlns="http://www.w3.org/2000/svg">
<rect x="-0.25" y="0.25" width="93.25" height="130.75" rx="3.75" transform="matrix(-1 0 0 1 195.5 4)" fill="white" stroke="#4D545C" stroke-width="0.5"/>
<rect x="-0.25" y="0.25" width="93.25" height="104.5" rx="3.75" transform="matrix(-1 0 0 1 183 30.25)" fill="white" stroke="#4D545C" stroke-width="0.5"/>
<path d="M101.653 45.2165C101.808 43.9755 97.7205 29.1959 97.1334 28.1003C95.5938 25.2271 88.5489 24.657 85.5027 26.6134C80.5624 29.7661 72.9526 44.0985 74.4923 47.8549L101.653 45.2165Z" fill="white" stroke="#4D545C" stroke-width="0.5" stroke-linecap="round" stroke-linejoin="round"/>
<path d="M86.9196 36.6663C86.9226 36.7047 86.9178 36.7433 86.9057 36.7797C86.8935 36.816 86.8743 36.8494 86.849 36.8777C86.8238 36.9059 86.7932 36.9284 86.7592 36.9438C86.7252 36.9591 86.6884 36.967 86.6513 36.9669C85.9859 36.9669 84.5049 36.8222 84.2474 38.6033C84.2033 39.3222 84.4363 40.0298 84.8952 40.5705C85.354 41.1112 86.0012 41.4407 86.6942 41.4865C86.984 41.4865 87.6494 41.5644 87.8426 41.787C88.4435 42.4661 88.7226 43.9466 89.1948 45.7945C89.5199 46.8842 89.4936 48.0542 89.1198 49.1269C88.746 50.1997 88.0452 51.1167 87.1235 51.739C87.1235 51.739 97.4261 56.9933 97.3295 51.739C97.3295 51.739 96.5139 42.043 96.5675 41.9985C97.3724 41.1636 100.495 40.8074 98.5315 33.8944C97.63 30.733 96.0632 29.2413 94.5714 28.5734" fill="white"/>
<path d="M86.9196 36.6663C86.9226 36.7047 86.9178 36.7433 86.9057 36.7797C86.8935 36.816 86.8743 36.8494 86.849 36.8777C86.8238 36.9059 86.7932 36.9284 86.7592 36.9438C86.7252 36.9591 86.6884 36.967 86.6513 36.9669C85.9859 36.9669 84.5049 36.8222 84.2474 38.6033C84.2033 39.3222 84.4363 40.0298 84.8952 40.5705C85.354 41.1112 86.0012 41.4407 86.6942 41.4865C86.984 41.4865 87.6494 41.5644 87.8426 41.787C88.4435 42.4661 88.7226 43.9466 89.1948 45.7945C89.5199 46.8842 89.4936 48.0542 89.1198 49.1269C88.746 50.1997 88.0452 51.1167 87.1235 51.739C87.1235 51.739 97.4261 56.9933 97.3295 51.739C97.3295 51.739 96.5139 42.043 96.5675 41.9985C97.3724 41.1636 100.495 40.8074 98.5315 33.8944C97.63 30.733 96.0632 29.2413 94.5714 28.5734" stroke="#4D545C" stroke-width="0.5" stroke-linecap="round" stroke-linejoin="round"/>
<path d="M92.9503 27.3296C92.9503 27.3296 91.0532 36.7404 88.7208 37.7167C86.1397 38.8519 85.2083 35.8599 85.1829 35.1178" fill="white"/>
<path d="M92.9503 27.3296C92.9503 27.3296 91.0532 36.7404 88.7208 37.7167C86.1397 38.8519 85.2083 35.8599 85.1829 35.1178" stroke="#4D545C" stroke-width="0.5" stroke-linecap="round" stroke-linejoin="round"/>
<path d="M95.9917 36.6591L96.6818 36.2755L95.4378 34.1712M94.5049 33.5492C94.1939 33.6529 93.5719 33.5492 92.9499 34.1712M95.4378 33.2383C95.4961 33.0855 95.6884 32.7324 95.9917 32.5426" stroke="#4D545C" stroke-width="0.5" stroke-linecap="round" stroke-linejoin="round"/>
<path d="M94.1486 35.493C94.2632 35.6682 94.4613 35.7785 94.5864 35.746C94.7115 35.7136 94.7428 35.5449 94.5864 35.3762C94.43 35.2075 94.2841 35.0907 94.1486 35.1231C94.013 35.1555 94.0443 35.3242 94.1486 35.493Z" fill="#4D545C" stroke="#4D545C" stroke-width="0.5" stroke-linecap="round" stroke-linejoin="round"/>
<path d="M96.1484 34.5397C96.2556 34.7072 96.4485 34.8211 96.5771 34.7876C96.7057 34.7541 96.7272 34.5933 96.5771 34.4191C96.4271 34.2449 96.277 34.1444 96.1484 34.1779C96.0198 34.2114 96.0412 34.3722 96.1484 34.5397Z" fill="#4D545C" stroke="#4D545C" stroke-width="0.5" stroke-linecap="round" stroke-linejoin="round"/>
<path d="M97.8238 36.6592C97.8238 36.6592 98.1798 38.1771 97.5602 38.4278C97.1969 38.5399 96.813 38.5554 96.4426 38.4728C96.0723 38.3902 95.727 38.2121 95.4377 37.9543L97.8238 36.6592Z" fill="#4D545C"/>
<path d="M87.0411 42.879C86.1823 42.879 85.4861 42.1829 85.4861 41.3241C85.4861 40.4653 86.1823 39.7692 87.0411 39.7692C87.8998 39.7692 88.596 40.4653 88.596 41.3241C88.596 42.1829 87.8998 42.879 87.0411 42.879Z" fill="white" stroke="#4D545C" stroke-width="0.5" stroke-linecap="round" stroke-linejoin="round"/>
<path d="M94.8152 182.413L95.9655 190.337C95.9655 190.337 97.8059 195.585 99.5083 193.549C100.506 192.365 101.667 191.322 102.959 190.449L103.523 182.201L94.8152 182.413Z" fill="white" stroke="#4D545C" stroke-width="0.5" stroke-linecap="round" stroke-linejoin="round"/>
<path d="M68.0712 182.231L65.6901 189.438C65.6901 189.438 63.8907 190.948 63.2335 190.908C62.0483 190.836 61.4081 189.812 61.4081 189.812L61.4234 183.041L68.0712 182.231Z" fill="white" stroke="#4D545C" stroke-width="0.5" stroke-linecap="round" stroke-linejoin="round"/>
<g clip-path="url(#clip0_2023_4121)">
<mask id="path-15-inside-1_2023_4121" fill="white">
<path d="M68.3934 194.045V190.251C68.4051 190.072 68.3796 189.893 68.3185 189.724C68.2573 189.555 68.1618 189.4 68.0376 189.268C67.9134 189.136 67.7631 189.03 67.5959 188.957C67.4286 188.883 67.2478 188.843 67.0644 188.84H66.4866C66.1666 188.84 65.858 188.956 65.6199 189.164L64.4498 190.18C64.2143 190.377 63.9146 190.485 63.6048 190.485C63.2949 190.485 62.9952 190.377 62.7597 190.18L61.4018 189.094C61.1645 188.965 60.892 188.91 60.6218 188.939H60.2173C60.0339 188.942 59.8531 188.982 59.6858 189.055C59.5186 189.129 59.3683 189.235 59.2441 189.367C59.1199 189.498 59.0244 189.654 58.9632 189.822C58.9021 189.991 58.8766 190.171 58.8883 190.349V196.373"/>
</mask>
<path d="M68.3934 194.045V190.251C68.4051 190.072 68.3796 189.893 68.3185 189.724C68.2573 189.555 68.1618 189.4 68.0376 189.268C67.9134 189.136 67.7631 189.03 67.5959 188.957C67.4286 188.883 67.2478 188.843 67.0644 188.84H66.4866C66.1666 188.84 65.858 188.956 65.6199 189.164L64.4498 190.18C64.2143 190.377 63.9146 190.485 63.6048 190.485C63.2949 190.485 62.9952 190.377 62.7597 190.18L61.4018 189.094C61.1645 188.965 60.892 188.91 60.6218 188.939H60.2173C60.0339 188.942 59.8531 188.982 59.6858 189.055C59.5186 189.129 59.3683 189.235 59.2441 189.367C59.1199 189.498 59.0244 189.654 58.9632 189.822C58.9021 189.991 58.8766 190.171 58.8883 190.349V196.373" fill="white"/>
<path d="M68.8934 194.045C68.8934 194.322 68.6695 194.545 68.3934 194.545C68.1173 194.545 67.8934 194.322 67.8934 194.045H68.8934ZM68.3934 190.251H67.8934C67.8934 190.24 67.8938 190.229 67.8945 190.218L68.3934 190.251ZM67.0644 188.84V188.34L67.0738 188.34L67.0644 188.84ZM66.4866 188.84L66.4861 188.34H66.4866V188.84ZM65.6199 189.164L65.9493 189.54L65.9476 189.542L65.6199 189.164ZM64.4498 190.18L64.7776 190.558L64.7703 190.564L64.4498 190.18ZM63.6048 190.485L63.6048 190.985L63.6048 190.485ZM62.7597 190.18L63.0721 189.79L63.0802 189.796L62.7597 190.18ZM61.4018 189.094L61.6409 188.655C61.6667 188.669 61.6912 188.685 61.7142 188.703L61.4018 189.094ZM60.6218 188.939L60.6738 189.436C60.6565 189.438 60.6391 189.439 60.6218 189.439V188.939ZM60.2173 188.939L60.2079 188.439H60.2173V188.939ZM58.8883 190.349L59.3872 190.317C59.388 190.327 59.3883 190.338 59.3883 190.349H58.8883ZM59.3883 196.373C59.3883 196.649 59.1645 196.873 58.8883 196.873C58.6122 196.873 58.3883 196.649 58.3883 196.373H59.3883ZM67.8934 194.045V190.251H68.8934V194.045H67.8934ZM67.8945 190.218C67.9017 190.108 67.8861 189.998 67.8484 189.894L68.7886 189.553C68.8732 189.787 68.9086 190.035 68.8923 190.283L67.8945 190.218ZM67.8484 189.894C67.8106 189.79 67.7514 189.693 67.6737 189.611L68.4015 188.925C68.5722 189.106 68.704 189.32 68.7886 189.553L67.8484 189.894ZM67.6737 189.611C67.5958 189.528 67.501 189.461 67.3946 189.414L67.7972 188.499C68.0253 188.599 68.231 188.744 68.4015 188.925L67.6737 189.611ZM67.3946 189.414C67.2881 189.367 67.1725 189.342 67.055 189.34L67.0738 188.34C67.3231 188.345 67.5691 188.399 67.7972 188.499L67.3946 189.414ZM67.0644 189.34H66.4866V188.34H67.0644V189.34ZM66.4871 189.34C66.2868 189.34 66.0954 189.412 65.9493 189.54L65.2904 188.788C65.6207 188.499 66.0465 188.34 66.4861 188.34L66.4871 189.34ZM65.9476 189.542L64.7776 190.558L64.122 189.802L65.2921 188.787L65.9476 189.542ZM64.7703 190.564C64.444 190.836 64.0305 190.985 63.6048 190.985L63.6048 189.985C63.7987 189.985 63.9847 189.917 64.1293 189.796L64.7703 190.564ZM63.6048 190.985C63.179 190.985 62.7655 190.836 62.4392 190.564L63.0802 189.796C63.2248 189.917 63.4108 189.985 63.6048 189.985L63.6048 190.985ZM62.4474 190.57L61.0895 189.484L61.7142 188.703L63.0721 189.79L62.4474 190.57ZM61.1628 189.533C61.0148 189.452 60.8439 189.418 60.6738 189.436L60.5698 188.441C60.94 188.403 61.3141 188.477 61.6409 188.655L61.1628 189.533ZM60.6218 189.439H60.2173V188.439H60.6218V189.439ZM60.2267 189.439C60.1092 189.441 59.9936 189.466 59.8871 189.513L59.4845 188.598C59.7126 188.497 59.9586 188.443 60.2079 188.439L60.2267 189.439ZM59.8871 189.513C59.7807 189.56 59.6859 189.627 59.6081 189.709L58.8802 189.024C59.0507 188.843 59.2564 188.698 59.4845 188.598L59.8871 189.513ZM59.6081 189.709C59.5303 189.792 59.4711 189.888 59.4334 189.993L58.4931 189.652C58.5777 189.419 58.7096 189.205 58.8802 189.024L59.6081 189.709ZM59.4334 189.993C59.3956 190.097 59.38 190.207 59.3872 190.317L58.3894 190.382C58.3731 190.134 58.4085 189.886 58.4931 189.652L59.4334 189.993ZM59.3883 190.349V196.373H58.3883V190.349H59.3883Z" fill="#4D545C" mask="url(#path-15-inside-1_2023_4121)"/>
<path d="M58.5308 196.339C58.5314 196.345 58.5317 196.352 58.5317 196.359V198.719H68.7212V196.359C68.7212 196.352 68.7215 196.346 68.722 196.34C68.8092 195.219 68.4426 194.11 67.6995 193.249C66.9587 192.391 65.9023 191.85 64.756 191.742H62.4965C61.3488 191.846 60.2904 192.387 59.5489 193.246C58.8053 194.107 58.4401 195.218 58.5308 196.339Z" fill="white" stroke="#4D545C" stroke-width="0.5" stroke-linecap="round" stroke-linejoin="round"/>
<path d="M68.0643 196.786L60.4564 196.786" stroke="#4D545C" stroke-width="0.5" stroke-linecap="round" stroke-linejoin="round"/>
</g>
<g clip-path="url(#clip1_2023_4121)">
<mask id="path-19-inside-2_2023_4121" fill="white">
<path d="M93.1991 197.881C93.1248 194.803 93.2968 191.724 93.7134 188.672C93.7554 188.55 93.834 188.443 93.9391 188.365C94.0442 188.287 94.1711 188.24 94.3034 188.232C94.4338 188.208 94.5683 188.212 94.6967 188.245C94.8251 188.278 94.9441 188.339 95.0447 188.423C95.9372 189.274 97.388 191.833 99.7647 191.08C100.74 190.771 102.227 190.051 103.078 189.495C103.238 189.382 103.431 189.321 103.63 189.321C103.828 189.321 104.021 189.382 104.182 189.495L111.61 192.984C112.155 193.205 112.615 193.588 112.922 194.078C113.229 194.568 113.368 195.14 113.319 195.711C113.228 196.811 112.971 198.306 112.623 198.306L93.1991 197.925"/>
</mask>
<path d="M93.1991 197.881C93.1248 194.803 93.2968 191.724 93.7134 188.672C93.7554 188.55 93.834 188.443 93.9391 188.365C94.0442 188.287 94.1711 188.24 94.3034 188.232C94.4338 188.208 94.5683 188.212 94.6967 188.245C94.8251 188.278 94.9441 188.339 95.0447 188.423C95.9372 189.274 97.388 191.833 99.7647 191.08C100.74 190.771 102.227 190.051 103.078 189.495C103.238 189.382 103.431 189.321 103.63 189.321C103.828 189.321 104.021 189.382 104.182 189.495L111.61 192.984C112.155 193.205 112.615 193.588 112.922 194.078C113.229 194.568 113.368 195.14 113.319 195.711C113.228 196.811 112.971 198.306 112.623 198.306L93.1991 197.925" fill="white"/>
<path d="M93.699 197.869C93.7056 198.145 93.4872 198.374 93.2112 198.381C92.9351 198.388 92.7059 198.169 92.6993 197.893L93.699 197.869ZM93.7134 188.672L93.218 188.605C93.2225 188.572 93.23 188.541 93.2406 188.51L93.7134 188.672ZM94.3034 188.232L94.3965 188.724C94.3757 188.728 94.3547 188.73 94.3336 188.732L94.3034 188.232ZM95.0447 188.423L95.3654 188.039C95.3737 188.046 95.3818 188.054 95.3896 188.061L95.0447 188.423ZM99.7647 191.08L99.9158 191.556L99.7647 191.08ZM103.078 189.495L103.366 189.903C103.361 189.907 103.356 189.91 103.351 189.913L103.078 189.495ZM104.182 189.495L103.969 189.947C103.943 189.935 103.917 189.92 103.894 189.903L104.182 189.495ZM111.61 192.984L111.422 193.447C111.413 193.444 111.405 193.44 111.397 193.436L111.61 192.984ZM113.319 195.711L112.821 195.67L112.821 195.668L113.319 195.711ZM112.623 198.306V198.807L112.613 198.806L112.623 198.306ZM93.1893 198.425C92.9132 198.42 92.6938 198.191 92.6992 197.915C92.7046 197.639 92.9328 197.42 93.2089 197.425L93.1893 198.425ZM92.6993 197.893C92.6243 194.789 92.7978 191.683 93.218 188.605L94.2089 188.74C93.7958 191.766 93.6253 194.818 93.699 197.869L92.6993 197.893ZM93.2406 188.51C93.3158 188.291 93.4559 188.102 93.6402 187.964L94.238 188.766C94.212 188.785 94.1949 188.81 94.1863 188.835L93.2406 188.51ZM93.6402 187.964C93.8244 187.827 94.0449 187.747 94.2732 187.733L94.3336 188.732C94.2972 188.734 94.264 188.746 94.238 188.766L93.6402 187.964ZM94.2104 187.741C94.4128 187.703 94.6215 187.709 94.8212 187.761L94.5722 188.729C94.515 188.715 94.4549 188.713 94.3965 188.724L94.2104 187.741ZM94.8212 187.761C95.0209 187.812 95.207 187.907 95.3654 188.039L94.724 188.807C94.6812 188.771 94.6293 188.744 94.5722 188.729L94.8212 187.761ZM95.3896 188.061C95.6368 188.297 95.9237 188.651 96.2038 188.977C96.4987 189.32 96.8169 189.672 97.1709 189.971C97.873 190.564 98.6537 190.907 99.6137 190.603L99.9158 191.556C98.499 192.005 97.366 191.445 96.5254 190.735C96.1081 190.382 95.7477 189.981 95.4452 189.629C95.1281 189.259 94.8988 188.975 94.6998 188.785L95.3896 188.061ZM99.6137 190.603C100.543 190.309 101.988 189.61 102.804 189.076L103.351 189.913C102.465 190.493 100.938 191.233 99.9158 191.556L99.6137 190.603ZM102.789 189.086C103.035 188.913 103.329 188.821 103.63 188.821V189.821C103.533 189.821 103.441 189.85 103.366 189.903L102.789 189.086ZM103.63 188.821C103.93 188.821 104.225 188.913 104.47 189.086L103.894 189.903C103.818 189.85 103.726 189.821 103.63 189.821V188.821ZM104.394 189.042L111.822 192.531L111.397 193.436L103.969 189.947L104.394 189.042ZM111.797 192.52C112.439 192.78 112.981 193.231 113.346 193.812L112.498 194.343C112.248 193.944 111.872 193.629 111.422 193.447L111.797 192.52ZM113.346 193.812C113.71 194.393 113.876 195.073 113.817 195.754L112.821 195.668C112.861 195.206 112.748 194.742 112.498 194.343L113.346 193.812ZM113.817 195.752C113.771 196.317 113.681 196.992 113.555 197.535C113.492 197.802 113.415 198.064 113.318 198.269C113.27 198.37 113.205 198.486 113.113 198.583C113.023 198.678 112.859 198.806 112.623 198.806V197.806C112.475 197.806 112.394 197.888 112.385 197.897C112.375 197.908 112.387 197.898 112.414 197.842C112.466 197.732 112.524 197.552 112.581 197.308C112.692 196.828 112.777 196.205 112.821 195.67L113.817 195.752ZM112.613 198.806L93.1893 198.425L93.2089 197.425L112.633 197.807L112.613 198.806Z" fill="#4D545C" mask="url(#path-19-inside-2_2023_4121)"/>
<path d="M93.305 195.242H104.651" stroke="#4D545C" stroke-width="0.5" stroke-linecap="round" stroke-linejoin="round"/>
</g>
<path d="M81.6169 79.0647C78.7272 84.0271 76.601 89.3965 75.3098 94.9924C73.314 102.813 62.1664 168.895 61.2291 183.091C63.7821 183.491 66.3752 183.569 68.9476 183.323C73.8984 169.138 88.5746 123.296 90.7027 114.351C90.7695 114.069 90.9392 113.823 91.1784 113.66C91.4176 113.498 91.7089 113.431 91.9951 113.472C92.2813 113.513 92.5416 113.661 92.7248 113.884C92.908 114.108 93.0009 114.393 92.9851 114.681C91.7722 124.895 93.6577 166.369 94.628 183.565C95.9181 184.227 102.093 184.106 103.581 183.918C105.202 166.413 113.814 100.088 100.814 78.6345C94.8486 77.8183 87.6594 78.8882 81.6169 79.0647Z" fill="white" stroke="#4D545C" stroke-width="0.5" stroke-linecap="round" stroke-linejoin="round"/>
<path d="M86.1075 80.8192C86.1075 80.8192 85.9128 97.6176 78.0219 96.2943Z" fill="white"/>
<path d="M86.1075 80.8192C86.1075 80.8192 85.9128 97.6176 78.0219 96.2943" stroke="#4D545C" stroke-width="0.5" stroke-linecap="round" stroke-linejoin="round" stroke-dasharray="2 2"/>
<path d="M104.767 96.9154C97.4467 98.2462 98.6154 81.4412 98.6154 81.4412Z" fill="white"/>
<path d="M104.767 96.9154C97.4467 98.2462 98.6154 81.4412 98.6154 81.4412" stroke="#4D545C" stroke-width="0.5" stroke-linecap="round" stroke-linejoin="round" stroke-dasharray="2 2"/>
<path d="M94.194 178.469H104.146" stroke="#4D545C" stroke-width="0.5" stroke-linecap="round" stroke-linejoin="round"/>
<path d="M61.7247 178.4H70.6006" stroke="#4D545C" stroke-width="0.5" stroke-linecap="round" stroke-linejoin="round"/>
<path d="M127.303 69.2378C127.303 69.2378 104.6 84.6852 102.016 80.8205C102.016 80.8205 99.0696 76.3829 105.424 65.3394C105.71 64.6417 105.959 63.9292 106.172 63.2048C106.172 63.2048 99.3884 53.9251 98.3989 50.7907C98.289 50.4537 97.8492 49.6673 97.9371 49.7234C104.215 50.4537 104.27 65.3282 110.284 70.7207C110.504 70.923 125.181 64.3283 125.181 64.3283C125.181 64.3283 133.757 58.7784 133.977 59.3739C134.317 60.2389 130.832 62.8341 130.832 62.8341C130.848 63.1421 130.973 63.4336 131.184 63.6542C131.366 63.8319 131.501 64.054 131.576 64.2997C131.651 64.5454 131.664 64.8065 131.613 65.0585C131.536 65.6989 131.987 66.2719 131.965 66.6538C131.943 67.0358 128.853 68.8109 127.303 69.2378Z" fill="white" stroke="#4D545C" stroke-width="0.5" stroke-linecap="round" stroke-linejoin="round"/>
<path d="M131.512 65.5496C130.825 65.8217 130.09 66.0246 129.327 66.1527C129.152 66.1778 128.971 66.1778 128.796 66.1527C128.707 66.1429 128.624 66.116 128.554 66.0747C128.485 66.0334 128.433 65.9793 128.402 65.9182" stroke="#4D545C" stroke-width="0.5" stroke-linecap="round" stroke-linejoin="round"/>
<path d="M131.464 66.8174C130.777 67.0895 130.042 67.2924 129.279 67.4206C129.104 67.4456 128.923 67.4456 128.747 67.4206C128.659 67.4108 128.576 67.3838 128.506 67.3425C128.437 67.3012 128.385 67.2471 128.354 67.186" stroke="#4D545C" stroke-width="0.5" stroke-linecap="round" stroke-linejoin="round"/>
<path d="M131.464 64.2812C130.777 64.5533 130.042 64.7563 129.279 64.8844C129.104 64.9095 128.923 64.9095 128.747 64.8844C128.659 64.8746 128.576 64.8477 128.506 64.8064C128.437 64.7651 128.385 64.711 128.354 64.6499" stroke="#4D545C" stroke-width="0.5" stroke-linecap="round" stroke-linejoin="round"/>
<path d="M97.1868 49.0986C97.1868 49.0986 100.284 49.5521 102.393 53.6111C104.058 56.8296 110.396 70.2012 110.396 70.2012L122.939 64.8371L124.049 72.6566C124.049 72.6566 104.701 84.2586 101.371 81.6927C98.0415 79.1267 95.5773 53.2351 97.1868 49.0986Z" fill="white" stroke="#4D545C" stroke-width="0.5" stroke-linecap="round" stroke-linejoin="round"/>
<path d="M97.1449 49.0986C96.9655 49.5165 104.354 63.9446 104.141 68.0575C103.928 72.1704 101.047 79.1426 101.271 79.7694C101.271 79.7694 98.0082 82.2987 79.9685 79.5055C74.4298 74.7547 79.2958 58.6111 81.1681 53.4535C81.1681 53.4535 86.0789 52.7606 88.1531 50.2753C88.0858 50.2753 96.1695 56.3787 97.1449 49.0986Z" fill="white" stroke="#4D545C" stroke-width="0.5" stroke-linecap="round" stroke-linejoin="round"/>
<path d="M94.1937 82.063L105.038 69.0016L116.585 69.1004L107.733 81.174L102.511 81.9093L94.1937 82.063Z" fill="white" stroke="#4D545C" stroke-width="0.5" stroke-linecap="round" stroke-linejoin="round"/>
<path d="M100.413 74.5992V76.6883L97.9254 77.7091L100.413 74.5992Z" fill="white" stroke="#4D545C" stroke-width="0.5" stroke-linecap="round" stroke-linejoin="round"/>
<path d="M89.3613 84.5508C94.6047 83.4923 99.7642 82.0691 104.8 80.292C105.374 80.0872 107.061 79.3217 107.006 79.0737C107.006 78.513 103.598 80.0009 103.698 79.8607C103.797 79.7206 107.877 78.4052 107.877 77.9416C107.877 77.2623 103.389 78.8149 103.312 78.8365C102.143 79.1707 107.657 77.5103 107.778 77.0467C107.899 76.5831 105.33 77.1545 105.23 77.1761C104.515 77.4142 103.776 77.5769 103.025 77.6613C102.948 77.5211 107.282 74.9766 106.818 74.7071C106.355 74.4375 103.047 75.9578 102.264 76.2489C101.54 76.5345 100.749 76.613 99.9811 76.4753C99.7275 76.3243 99.9811 75.0844 100.51 74.5992C99.4464 75.0615 98.4697 75.6957 97.6212 76.4753C97.2729 76.8781 96.9524 77.3031 96.6617 77.7475L89.2179 79.1707L89.3613 84.5508Z" fill="white" stroke="#4D545C" stroke-width="0.5" stroke-linecap="round" stroke-linejoin="round"/>
<path d="M84.8265 58.4948C84.8265 58.4948 85.9222 51.6923 82.3941 52.24C76.5102 53.1821 69.7937 66.6009 72.3686 84.4233C73.2013 90.218 96.6818 84.5766 96.6818 84.5766L95.1697 76.0981L82.92 78.1356L84.8265 58.4948Z" fill="white" stroke="#4D545C" stroke-width="0.5" stroke-linecap="round" stroke-linejoin="round"/>
<path d="M96.3231 42.1963C95.297 42.5702 93.9235 42.3425 92.8354 42.1963C91.7473 42.05 90.7162 41.6428 89.8394 41.0129" stroke="#4D545C" stroke-width="0.5" stroke-linecap="round" stroke-linejoin="round"/>
<g style="mix-blend-mode:multiply">
<path d="M101.821 82.6672C101.821 82.6672 111.923 115.181 103.167 176.498H95.0679C95.0679 176.498 94.0555 111.68 93.3545 110.811C92.6536 109.941 68.4666 176.498 68.4666 176.498H62.3586C62.3586 176.498 74.4521 92.7162 78.513 87.8183C78.7132 87.5761 88.3703 85.4959 95.2014 84.0541L101.821 82.6672Z" fill="#F1F7FF"/>
</g>
<path d="M74.8935 67.8437C75.1935 67.9536 71.8487 72.6465 67.5705 75.0973C67.5705 75.0973 47.8906 93.2751 44.2902 91.9453C40.6898 90.6154 24.4991 55.6776 33.3779 54.073C33.3779 54.073 35.6892 52.4245 37.3116 54.5016C38.934 56.5788 43.7901 59.1944 51.3687 76.482L63.5923 70.2176C63.5923 70.2176 66.1259 64.228 66.5481 65.1951C66.9704 66.1622 65.9814 68.8218 65.9814 68.8218C65.9814 68.8218 72.3266 64.0851 73.1711 64.5027C74.0157 64.9203 74.8935 67.8437 74.8935 67.8437Z" fill="white" stroke="#4D545C" stroke-width="0.5" stroke-linecap="round" stroke-linejoin="round"/>
<path d="M47.5455 70.2385C44.7633 64.5667 41.2747 59.2781 37.1646 54.5015C35.5776 52.4245 33.3166 54.0729 33.3166 54.0729C27.5012 55.1719 32.697 71.1836 37.8168 82.0633C40.8432 77.9447 44.091 73.9972 47.5455 70.2385V70.2385Z" fill="white" stroke="#4D545C" stroke-width="0.5" stroke-linecap="round" stroke-linejoin="round"/>
<path d="M43.3393 56.6736C43.3393 56.6736 36.7356 48.1345 30.0254 52.2357C23.3152 56.3369 31.5644 74.8411 35.2385 78.9535L50.0339 70.6839L43.3393 56.6736Z" fill="white" stroke="#4D545C" stroke-width="0.5" stroke-linecap="round" stroke-linejoin="round"/>
<path d="M35.4525 78.3312C32.9977 77.8671 28.9818 62.5525 30.4411 59.8454C30.4411 59.8454 37.9978 55.4919 38.4843 55.9781C43.3826 60.9282 35.4525 78.3312 35.4525 78.3312Z" fill="white" stroke="#4D545C" stroke-width="0.5" stroke-linecap="round" stroke-linejoin="round"/>
<path d="M44.0926 191.259L43.958 184.067L36.972 184.6L37.1515 191.503L40.4146 197.128L46.3016 192.637L44.0926 191.259Z" fill="white" stroke="#4D545C" stroke-width="0.5" stroke-linecap="round" stroke-linejoin="round"/>
<path d="M45.2881 190.544C43.9967 192.023 42.5852 193.381 41.0694 194.605C39.6557 195.72 37.5464 190.931 36.8956 190.333C36.761 190.216 36.5814 190.333 36.559 190.544L35.7287 198.372H56.4295C56.4968 198.368 56.5626 198.349 56.6224 198.317C56.6822 198.284 56.7347 198.239 56.7761 198.183C56.8176 198.127 56.8472 198.063 56.8629 197.994C56.8786 197.926 56.88 197.854 56.867 197.785C55.7675 191.964 45.2881 190.544 45.2881 190.544Z" fill="white" stroke="#4D545C" stroke-width="0.5" stroke-linecap="round" stroke-linejoin="round"/>
<path d="M47.7139 197.26C47.7139 197.26 48.5317 193.072 51.2917 192.348M56.6528 197.42H35.8827" stroke="#4D545C" stroke-width="0.5" stroke-linecap="round" stroke-linejoin="round"/>
<path d="M36.365 192.982L40.8029 197.42" stroke="#4D545C" stroke-width="0.5" stroke-linecap="round" stroke-linejoin="round"/>
<path d="M11.7616 192.066L13.9595 184.962L6.27833 184.689L4.62994 192.203L7.48033 197.128L13.4787 192.522L11.7616 192.066Z" fill="white" stroke="#4D545C" stroke-width="0.5" stroke-linecap="round" stroke-linejoin="round"/>
<path d="M12.0414 191.154C10.7913 192.636 9.42099 193.995 7.9468 195.215C6.57467 196.389 4.52735 191.553 3.88484 190.955C3.76505 190.837 3.57993 190.955 3.55815 191.166L2.76317 198.994H22.8551C22.921 198.989 22.985 198.968 23.0431 198.934C23.1011 198.901 23.1519 198.854 23.192 198.797C23.2321 198.741 23.2606 198.676 23.2758 198.606C23.2909 198.537 23.2923 198.465 23.2798 198.395C22.1908 192.586 12.0414 191.154 12.0414 191.154Z" fill="white" stroke="#4D545C" stroke-width="0.5" stroke-linecap="round" stroke-linejoin="round"/>
<path d="M14.7964 197.613C14.7964 197.613 15.9882 193.921 18.6139 193.299M23.0518 197.75H3.08109" stroke="#4D545C" stroke-width="0.5" stroke-linecap="round" stroke-linejoin="round"/>
<path d="M3.38575 193.396L7.73956 197.75" stroke="#4D545C" stroke-width="0.5" stroke-linecap="round" stroke-linejoin="round"/>
<path d="M44.0716 101.966C44.0716 101.966 46.6759 133.39 46.9066 142.104C47.1374 150.818 44.9397 184.689 44.9397 184.689H36.2259C36.2259 184.689 27.0067 124.776 16.4469 103.86L44.0716 101.966Z" fill="white" stroke="#4D545C" stroke-width="0.5" stroke-linecap="round" stroke-linejoin="round"/>
<path d="M34.8513 185.374L45.2607 185.163L45.8744 179.034H33.8286L34.8513 185.374Z" fill="white" stroke="#4D545C" stroke-width="0.5" stroke-linecap="round" stroke-linejoin="round"/>
<path d="M44.4351 101.966C44.4351 101.966 38.2774 128.161 32.03 146.683C26.9827 161.663 13.6018 185.311 13.6018 185.311L4.62881 184.923L14.1401 147.126C14.7275 144.892 15.1029 142.609 15.2617 140.306C15.8225 131.604 14.0055 114.023 13.2541 102.752L44.4351 101.966Z" fill="white" stroke="#4D545C" stroke-width="0.5" stroke-linecap="round" stroke-linejoin="round"/>
<path d="M4.03194 185.374L14.1758 186.008L17.3458 179.65L4.8402 179.034L4.03194 185.374Z" fill="white" stroke="#4D545C" stroke-width="0.5" stroke-linecap="round" stroke-linejoin="round"/>
<path d="M20.5244 46.8946C20.5244 46.8946 6.82461 48.2896 5.96215 59.6597C5.09969 71.0298 10.7942 118.138 10.7942 118.138L48.1674 115.746L44.6401 62.3389C44.5058 59.4512 43.6175 56.6493 42.0638 54.2127C40.6264 51.9985 38.9457 49.441 37.9948 49.3192L22.6253 45.3668L20.5244 46.8946Z" fill="white" stroke="#4D545C" stroke-width="0.5" stroke-linecap="round" stroke-linejoin="round"/>
<g style="mix-blend-mode:multiply">
<path d="M46.8258 115.109L45.2408 91.6511L37.3159 91.0171L20.8322 101.161C16.2674 99.8929 12.8016 89.8547 11.6393 84.9941L7.51833 87.2131L10.6883 117.645L46.8258 115.109Z" fill="#FDE8EC"/>
</g>
<path d="M24.8289 37.3207L20.8011 48.0093L23.8386 49.503C28.445 51.1849 32.5952 50.1227 33.2405 48.2306L32.6286 41.8462L26.1752 36.0372C25.7679 36.314 25.3945 36.6371 25.0626 36.9999C25.0012 37.1179 24.9225 37.226 24.8289 37.3207V37.3207Z" fill="white" stroke="#4D545C" stroke-width="0.5" stroke-linecap="round" stroke-linejoin="round"/>
<path d="M37.0572 90.5008L49.5724 67.7132C49.8956 67.1123 50.343 66.588 50.8846 66.1755C51.4261 65.7629 52.0493 65.4717 52.7123 65.3215L81.0478 63.417C81.1601 63.3928 81.277 63.4024 81.3838 63.4446C81.4907 63.4868 81.5828 63.5597 81.6486 63.6543C81.7144 63.7488 81.7511 63.8607 81.754 63.9761C81.7568 64.0914 81.7258 64.205 81.6648 64.3028L69.6453 85.9056C69.3312 86.4758 68.9043 86.9753 68.3909 87.3733C67.8774 87.7713 67.2882 88.0594 66.6597 88.2198L37.6962 91.3755C37.5839 91.4034 37.4659 91.3972 37.3571 91.3576C37.2484 91.318 37.1538 91.2469 37.0853 91.1532C37.0169 91.0594 36.9777 90.9474 36.9727 90.8313C36.9677 90.7151 36.9971 90.6001 37.0572 90.5008V90.5008Z" fill="white" stroke="#4D545C" stroke-width="0.5" stroke-linecap="round" stroke-linejoin="round"/>
<path d="M38.298 92.3571L49.7686 70.4915C50.7041 69.1465 52.1047 68.19 53.704 67.8041L84.1469 65.9052C84.2609 65.8809 84.3795 65.8905 84.4879 65.9329C84.5963 65.9752 84.6898 66.0483 84.7566 66.1431C84.8234 66.2379 84.8606 66.3502 84.8635 66.4659C84.8664 66.5816 84.835 66.6955 84.773 66.7936L72.5757 88.4593C72.257 89.0311 71.8238 89.5321 71.3027 89.9312C70.7816 90.3304 70.1837 90.6193 69.5459 90.7802L38.9464 93.2455C38.832 93.2699 38.7129 93.2608 38.6035 93.2192C38.4942 93.1776 38.3994 93.1053 38.3307 93.0112C38.262 92.9171 38.2223 92.8051 38.2165 92.689C38.2107 92.5728 38.239 92.4575 38.298 92.3571V92.3571Z" fill="white" stroke="#4D545C" stroke-width="0.5" stroke-linecap="round" stroke-linejoin="round"/>
<path d="M45.0546 76.4655L50.655 78.2495L43.1914 79.5753L45.0546 76.4655Z" fill="white" stroke="#4D545C" stroke-width="0.5" stroke-linecap="round" stroke-linejoin="round"/>
<path d="M44.5796 85.0089C43.6103 85.5955 32.3858 95.3245 23.3533 99.8072C20.8638 101.036 17.6144 98.1691 16.7442 95.568L8.36155 73.4316L21.9984 66.5139C22.0535 66.6689 24.4548 80.4488 26.4045 85.1971C27.0985 86.9016 26.6689 86.6581 28.255 86.0715L40.5591 79.7626C41.088 79.282 41.5576 78.7395 41.958 78.1466C42.856 77.0485 43.9601 76.1384 45.2075 75.4681L43.7094 78.1798C43.445 78.6336 43.7094 78.7332 44.6677 78.3348L50.7812 75.7559C50.7812 75.7559 52.1691 75.457 51.4421 76.0215C50.7151 76.586 48.2918 78.1023 48.2036 78.1577C46.6505 78.9878 52.2132 76.3425 52.2022 76.8738C52.1911 77.4051 48.9637 79.2313 49.0187 79.2977C49.0738 79.3642 52.5106 77.7593 52.5216 78.2573C52.5326 78.7554 49.4704 80.2607 49.3712 80.2717C49.2721 80.2828 51.8166 78.8993 51.8386 79.1649C51.8607 79.4305 45.1634 84.6769 44.5796 85.0089Z" fill="white" stroke="#4D545C" stroke-width="0.5" stroke-linecap="round" stroke-linejoin="round"/>
<path d="M20.8915 56.6675C20.8915 56.6675 19.6788 47.7542 11.9085 49.2728C1.20749 51.3635 4.66594 82.3512 7.55173 87.039L28.8864 77.0032L20.8915 56.6675Z" fill="white"/>
<path d="M20.8915 56.6675C20.8915 56.6675 19.6788 47.7542 11.9085 49.2728C1.20749 51.3635 4.66594 82.3512 7.55173 87.039L28.8864 77.0032L20.8915 56.6675Z" stroke="#4D545C" stroke-width="0.5" stroke-linecap="round" stroke-linejoin="round"/>
<path d="M37.1523 26.2216C37.2649 28.3278 35.4745 27.5032 35.4745 27.5032C31.8785 29.9328 28.4339 32.5749 25.1596 35.4152C25.1596 35.4152 23.0538 35.0363 23.0313 34.5126C22.93 30.512 23.1777 25.6756 23.1777 25.6756C22.8021 25.4252 22.5001 25.081 22.3023 24.6778C22.1046 24.2747 22.0181 23.8269 22.0516 23.38C22.0516 23.38 22.4795 21.6861 23.9434 21.9313C23.8591 21.656 23.8545 21.3628 23.9302 21.0851C24.0058 20.8073 24.1587 20.5561 24.3713 20.36C24.5898 20.2037 24.8577 20.13 25.1263 20.1525C25.3949 20.175 25.6465 20.2922 25.8352 20.4826C25.8731 19.913 26.095 19.3705 26.468 18.9352C26.8411 18.4998 27.3456 18.1946 27.9072 18.0644C28.4747 17.9346 29.0701 18.0022 29.5931 18.2559C30.1161 18.5097 30.5348 18.934 30.7787 19.4574C30.7787 19.4574 31.1503 18.4322 31.7584 18.4879C32.3665 18.5436 32.6142 19.5131 32.6142 19.5131C32.6337 19.2903 32.7028 19.0745 32.8166 18.8812C32.9303 18.6879 33.0858 18.5219 33.2721 18.3951C33.4583 18.2683 33.6705 18.184 33.8936 18.148C34.1167 18.112 34.3451 18.1253 34.5623 18.187C36.3978 18.4322 36.5105 20.5383 36.5105 20.5383C36.5296 20.4396 36.5696 20.346 36.6279 20.2637C36.6862 20.1814 36.7614 20.1122 36.8486 20.0606C36.9357 20.009 37.0329 19.9763 37.1338 19.9645C37.2347 19.9528 37.3369 19.9622 37.4339 19.9923C38.5599 20.1817 39.1342 21.5078 38.0982 22.7782C38.3517 22.9766 38.5513 23.2343 38.6791 23.528C38.8069 23.8218 38.8588 24.1424 38.8302 24.4609C38.7964 25.6087 37.1523 26.2216 37.1523 26.2216Z" fill="white"/>
<path d="M37.1523 26.2216C37.2649 28.3278 35.4745 27.5032 35.4745 27.5032C31.8785 29.9328 28.4339 32.5749 25.1596 35.4152C25.1596 35.4152 23.0538 35.0363 23.0313 34.5126C22.93 30.512 23.1777 25.6756 23.1777 25.6756C22.8021 25.4252 22.5001 25.081 22.3023 24.6778C22.1046 24.2747 22.0181 23.8269 22.0516 23.38C22.0516 23.38 22.4795 21.6861 23.9434 21.9313C23.8591 21.656 23.8545 21.3628 23.9302 21.0851C24.0058 20.8073 24.1587 20.5561 24.3713 20.36C24.5898 20.2037 24.8577 20.13 25.1263 20.1525C25.3949 20.175 25.6465 20.2922 25.8352 20.4826C25.8731 19.913 26.095 19.3705 26.468 18.9352C26.8411 18.4998 27.3456 18.1946 27.9072 18.0644C28.4747 17.9346 29.0701 18.0022 29.5931 18.2559C30.1161 18.5097 30.5348 18.934 30.7787 19.4574C30.7787 19.4574 31.1503 18.4322 31.7584 18.4879C32.3665 18.5436 32.6142 19.5131 32.6142 19.5131C32.6337 19.2903 32.7028 19.0745 32.8166 18.8812C32.9303 18.6879 33.0858 18.5219 33.2721 18.3951C33.4583 18.2683 33.6705 18.184 33.8936 18.148C34.1167 18.112 34.3451 18.1253 34.5623 18.187C36.3978 18.4322 36.5105 20.5383 36.5105 20.5383C36.5296 20.4396 36.5696 20.346 36.6279 20.2637C36.6862 20.1814 36.7614 20.1122 36.8486 20.0606C36.9357 20.009 37.0329 19.9763 37.1338 19.9645C37.2347 19.9528 37.3369 19.9622 37.4339 19.9923C38.5599 20.1817 39.1342 21.5078 38.0982 22.7782C38.3517 22.9766 38.5513 23.2343 38.6791 23.528C38.8069 23.8218 38.8588 24.1424 38.8302 24.4609C38.7964 25.6087 37.1523 26.2216 37.1523 26.2216Z" stroke="#4D545C" stroke-width="0.5" stroke-linecap="round" stroke-linejoin="round"/>
<g style="mix-blend-mode:multiply">
<path d="M18.6136 49.1736C23.4319 51.9631 30.5538 50.9699 33.5124 50.1246C34.6747 50.1246 37.3798 50.4416 38.9013 51.7095C40.4229 52.9775 45.4526 63.6497 47.7772 68.8273L43.9733 72.3143V74.8502L40.1693 78.9712L26.5385 85.6281L24.0025 78.0202L7.51876 85.6281C3.46121 73.2019 4.77146 61.6421 5.93378 57.4155C5.93378 55.5135 12.5907 45.6866 18.6136 49.1736Z" fill="#FDE8EC"/>
</g>
<path d="M25.1548 33.3458C25.1374 33.3921 25.1087 33.4333 25.0713 33.4658C25.0339 33.4983 24.989 33.521 24.9406 33.532C24.8922 33.5429 24.8418 33.5417 24.7939 33.5285C24.7461 33.5153 24.7023 33.4904 24.6665 33.4562C24.145 32.9484 23.1018 32.242 22.7245 34.2841C22.2251 37.0438 25.1215 36.5691 25.3545 36.9444C25.8206 37.6951 27.3299 40.2561 29.5715 41.2164C30.3651 41.5871 31.2512 41.7158 32.1182 41.5861C32.9852 41.4564 33.7942 41.0743 34.4431 40.4879C35.9412 39.0639 36.7624 40.7417 36.141 25.5083C36.0212 25.8733 35.7624 26.1771 35.4202 26.3545C35.0779 26.532 34.6793 26.569 34.31 26.4577C33.3001 26.2479 32.49 25.3538 31.3803 25.0889C30.9374 24.9085 30.4607 24.8252 29.9825 24.8447C29.5044 24.8642 29.036 24.986 28.6095 25.2018C28.1829 25.4176 27.8082 25.7224 27.5107 26.0953C27.2133 26.4683 27.0002 26.9006 26.886 27.3628C26.3977 28.842 25.6098 32.242 25.1548 33.3458Z" fill="white" stroke="#4D545C" stroke-width="0.5" stroke-linecap="round" stroke-linejoin="round"/>
<path d="M35.729 36.0372C34.7299 36.4412 33.6598 36.5403 32.6191 36.3251C32.6191 36.3251 33.8118 38.2226 34.6812 37.8562C35.5507 37.4898 35.729 36.0372 35.729 36.0372Z" fill="#4D545C"/>
<path d="M33.8625 32.2996C33.8625 32.642 33.7217 32.9273 33.5574 32.9273C33.3931 32.9273 33.2405 32.642 33.2405 32.2996C33.2405 31.9572 33.3813 31.6833 33.5574 31.6833C33.7334 31.6833 33.8625 31.9572 33.8625 32.2996Z" fill="#4D545C"/>
<path d="M35.729 32.2996C35.729 32.6534 35.5882 32.9273 35.4122 32.9273C35.2361 32.9273 35.107 32.6534 35.107 32.2996C35.107 31.9458 35.2479 31.6833 35.4122 31.6833C35.5765 31.6833 35.729 31.9573 35.729 32.2996Z" fill="#4D545C"/>
<path d="M34.6343 33.5495L35.418 35.2681V35.3466L34.4851 35.4154M34.1741 30.1286C33.7594 30.025 32.8679 29.8176 32.6191 29.8176M35.107 30.1286L35.729 29.8176" stroke="#4D545C" stroke-width="0.5" stroke-linecap="round" stroke-linejoin="round"/>
<path d="M125.854 64.5114C125.854 64.5114 128.366 61.9277 128.827 62.1771C129.289 62.4265 131.133 63.9827 130.787 64.7109C130.441 65.4391 128.758 64.2021 128.758 64.2021C128.758 64.2021 128.39 65.9877 127.341 65.888C126.292 65.7882 125.854 64.5114 125.854 64.5114Z" fill="white" stroke="#4D545C" stroke-width="0.5" stroke-linecap="round" stroke-linejoin="round"/>
<defs>
<clipPath id="clip0_2023_4121">
<rect width="11.4118" height="10.7779" fill="white" transform="matrix(-1 0 0 1 69.3323 188.544)"/>
</clipPath>
<clipPath id="clip1_2023_4121">
<rect width="20.9217" height="10.7779" fill="white" transform="matrix(-1 0 0 1 113.712 187.91)"/>
</clipPath>
</defs>
</svg>
