<svg width="24" height="24" viewBox="0 0 24 24" fill="none" preserveAspectRatio="none" xmlns="http://www.w3.org/2000/svg">
<rect width="24" height="24" rx="8" fill="#CCEECC"/>
<path d="M17.25 8.02344V9.52344C17.25 9.92188 16.8984 10.2734 16.5 10.2734C16.0781 10.2734 15.75 9.92188 15.75 9.52344V8.77344H12.75V16.2734H13.875C14.2734 16.2734 14.625 16.6016 14.625 17.0234C14.625 17.4219 14.2734 17.75 13.875 17.75H10.125C9.70312 17.75 9.375 17.3984 9.375 17.0234C9.375 16.625 9.70312 16.2734 10.125 16.2734H11.25V8.77344H8.25V9.52344C8.25 9.92188 7.89844 10.2734 7.5 10.2734C7.07812 10.2734 6.75 9.92188 6.75 9.52344V8.02344C6.75 7.60156 7.07812 7.27344 7.5 7.27344H16.5C16.8984 7.27344 17.25 7.60156 17.25 8.02344Z" fill="#009700"/>
</svg>
