<svg width="24" height="24" viewBox="0 0 24 24" fill="none" xmlns="http://www.w3.org/2000/svg">
<rect width="24" height="24" rx="8" fill="#FDD9D7"/>
<path d="M7.625 8.5V11.6445C7.13672 11.6445 6.70703 11.8203 6.375 12.1328V8.22656C6.375 7.69922 6.78516 7.25 7.3125 7.25H16.6875C17.1953 7.25 17.625 7.69922 17.625 8.22656V12.1133C17.293 11.8203 16.8438 11.625 16.375 11.625V8.5H7.625ZM10.75 13.5C10.75 12.8164 11.2969 12.2695 12 12.25C12.6836 12.2695 13.2305 12.8164 13.2305 13.5C13.2305 14.2031 12.6836 14.75 11.9805 14.75C11.2969 14.75 10.75 14.2031 10.75 13.5ZM12.4492 15.375C13.2305 15.375 13.875 16.0391 13.875 16.8398C13.875 17.0742 13.6797 17.25 13.4648 17.25H10.5156C10.3008 17.25 10.125 17.0742 10.125 16.8398C10.125 16.0391 10.75 15.375 11.5312 15.375H12.4492ZM16.8242 15.375C17.6055 15.375 18.25 16.0391 18.25 16.8398C18.25 17.0742 18.0547 17.25 17.8398 17.25H14.8906C14.6758 17.25 14.5 17.0742 14.5 16.8398C14.5 16.0391 15.125 15.375 15.9062 15.375H16.8242ZM15.125 13.5C15.125 12.8164 15.6719 12.2695 16.375 12.25C17.0586 12.2695 17.6055 12.8164 17.6055 13.5C17.6055 14.2031 17.0586 14.75 16.3555 14.75C15.6719 14.75 15.125 14.2031 15.125 13.5ZM6.375 13.5C6.375 12.8164 6.92188 12.2695 7.625 12.25C8.30859 12.2695 8.85547 12.8164 8.85547 13.5C8.85547 14.2031 8.30859 14.75 7.625 14.75C6.92188 14.75 6.375 14.2031 6.375 13.5ZM8.07422 15.375C8.85547 15.375 9.5 16.0391 9.5 16.8398C9.5 17.0742 9.30469 17.25 9.08984 17.25H6.14062C5.92578 17.25 5.75 17.0742 5.75 16.8398C5.75 16.0391 6.375 15.375 7.15625 15.375H8.07422Z" fill="#DC3C30"/>
</svg>
