<svg width="17" height="17" viewBox="0 0 17 17" fill="none" xmlns="http://www.w3.org/2000/svg">
<path d="M8.5 1C12.6309 1 16 4.36914 16 8.5C16 12.6602 12.6309 16 8.5 16C4.33984 16 1 12.6602 1 8.5C1 4.36914 4.33984 1 8.5 1ZM12.1914 8.23633C12.2793 8.06055 12.2207 7.85547 12.1035 7.70898L8.82227 4.42773C8.64648 4.25195 8.32422 4.25195 8.14844 4.42773L4.86719 7.70898C4.75 7.85547 4.69141 8.06055 4.7793 8.23633C4.83789 8.41211 5.01367 8.5 5.21875 8.5H7.09375V11.3125C7.09375 11.8398 7.50391 12.25 8.03125 12.25L8.96875 12.25C9.4668 12.25 9.90625 11.8398 9.90625 11.3125V8.5H11.7813C11.957 8.5 12.1328 8.41211 12.1914 8.23633Z" stroke="#001022" stroke-opacity="0.6"/>
</svg>
