<svg width="32" height="43" viewBox="0 0 32 43" fill="none" xmlns="http://www.w3.org/2000/svg">
<path d="M19.5 7.932V0.5L31.4497 12.932H24.5C21.7386 12.932 19.5 10.6934 19.5 7.932Z" fill="#F2F2F5"/>
<path fill-rule="evenodd" clip-rule="evenodd" d="M5.376 0.5H19.4544V7.556C19.4544 10.5251 21.8613 12.932 24.8304 12.932H31.4496V37.124C31.4496 40.0931 29.0427 42.5 26.0736 42.5H5.376C2.40692 42.5 0 40.0931 0 37.124V5.876C0 2.90692 2.40692 0.5 5.376 0.5ZM25 27C25 31.9706 20.9706 36 16 36C11.0294 36 7 31.9706 7 27C7 22.0294 11.0294 18 16 18C20.9706 18 25 22.0294 25 27ZM13 23.7064V31.1387C13 31.9359 13.8873 32.4126 14.552 31.9725L20.633 27.9467C21.2571 27.5335 21.2227 26.6062 20.5697 26.2404L14.4887 22.834C13.8221 22.4606 13 22.9424 13 23.7064Z" fill="#71758D"/>
</svg>
