<svg width="48" height="48" viewBox="0 0 48 48" fill="none" xmlns="http://www.w3.org/2000/svg">
<rect width="48" height="48" rx="24" fill="#7C9EFD"/>
<path d="M31.5 18.25C32.8672 18.25 34 19.3828 34 20.75V30.75C34 32.1562 32.8672 33.25 31.5 33.25H16.5C15.0938 33.25 14 32.1562 14 30.75V20.75C14 19.3828 15.0938 18.25 16.5 18.25H19V17C19 15.6328 20.0938 14.5 21.5 14.5H26.5C27.8672 14.5 29 15.6328 29 17V18.25H31.5ZM21.5 16.375C21.1484 16.375 20.875 16.6875 20.875 17V18.25H27.125V17C27.125 16.6875 26.8125 16.375 26.5 16.375H21.5ZM16.5 20.125C16.1484 20.125 15.875 20.4375 15.875 20.75V24.5H32.125V20.75C32.125 20.4375 31.8125 20.125 31.5 20.125H16.5ZM31.5 31.375C31.8125 31.375 32.125 31.1016 32.125 30.75V26.375H26.5V27C26.5 27.7031 25.9141 28.25 25.25 28.25H22.75C22.0469 28.25 21.5 27.7031 21.5 27V26.375H15.875V30.75C15.875 31.1016 16.1484 31.375 16.5 31.375H31.5Z" fill="white"/>
</svg>
