<svg width="32" height="42" viewBox="0 0 32 42" fill="none" xmlns="http://www.w3.org/2000/svg">
<path d="M0.108398 5.376C0.108398 2.40692 2.51532 0 5.4844 0H19.5628L31.558 12.432V36.624C31.558 39.5931 29.1511 42 26.182 42H5.4844C2.51532 42 0.108398 39.5931 0.108398 36.624V5.376Z" fill="#317041"/>
<path d="M19.5628 7.056V0L31.558 12.432H24.9388C21.9697 12.432 19.5628 10.0251 19.5628 7.056Z" fill="#629A79"/>
<path d="M8.65239 29.288L6.13689 25.339H8.02212C8.14483 25.339 8.23407 25.3558 8.28985 25.3892C8.34934 25.419 8.4014 25.471 8.44602 25.5454L10.0635 28.284C10.0821 28.2357 10.1026 28.1892 10.1249 28.1446C10.1509 28.0999 10.1788 28.0535 10.2085 28.0051L11.6253 25.5733C11.7182 25.4171 11.8446 25.339 12.0045 25.339H13.8117L11.2627 29.2043L13.8674 33.4656H11.9822C11.8595 33.4656 11.7591 33.4359 11.681 33.3764C11.6067 33.3169 11.5472 33.2462 11.5025 33.1644L9.87389 30.3198C9.84414 30.4016 9.81067 30.4723 9.77349 30.5318L8.25638 33.1644C8.21176 33.2425 8.15227 33.3131 8.0779 33.3764C8.00353 33.4359 7.91057 33.4656 7.79902 33.4656H6.0365L8.65239 29.288Z" fill="white"/>
<path d="M16.4768 31.9596H19.4887V33.4656H14.5916V25.339H16.4768V31.9596Z" fill="white"/>
<path d="M24.9052 26.99C24.8494 27.0792 24.7899 27.1462 24.7267 27.1908C24.6672 27.2354 24.5891 27.2577 24.4924 27.2577C24.4069 27.2577 24.3139 27.2317 24.2135 27.1796C24.1169 27.1239 24.0053 27.0625 23.8789 26.9956C23.7562 26.9287 23.6149 26.8692 23.455 26.8171C23.2951 26.7613 23.1129 26.7334 22.9084 26.7334C22.5551 26.7334 22.2911 26.8097 22.1164 26.9621C21.9453 27.1109 21.8598 27.3135 21.8598 27.5701C21.8598 27.7337 21.9119 27.8694 22.016 27.9772C22.1201 28.0851 22.2558 28.178 22.4231 28.2561C22.5942 28.3342 22.7875 28.4067 23.0032 28.4736C23.2226 28.5369 23.4457 28.6094 23.6725 28.6912C23.8993 28.7693 24.1206 28.8622 24.3363 28.9701C24.5556 29.0779 24.749 29.2155 24.9163 29.3828C25.0874 29.5501 25.225 29.7546 25.3291 29.9963C25.4332 30.2343 25.4852 30.5225 25.4852 30.8609C25.4852 31.2364 25.4202 31.5878 25.29 31.915C25.1599 32.2422 24.9702 32.5286 24.7211 32.774C24.4757 33.0157 24.1708 33.2072 23.8064 33.3485C23.4457 33.486 23.0348 33.5548 22.5737 33.5548C22.3209 33.5548 22.0625 33.5288 21.7984 33.4768C21.5382 33.4247 21.2853 33.3522 21.0399 33.2592C20.7945 33.1625 20.5639 33.0491 20.3483 32.919C20.1326 32.7888 19.9448 32.6438 19.7849 32.4839L20.3427 31.6027C20.3836 31.5357 20.4412 31.4818 20.5156 31.4409C20.59 31.4 20.6699 31.3796 20.7554 31.3796C20.867 31.3796 20.9785 31.4149 21.0901 31.4856C21.2054 31.5562 21.3336 31.6343 21.4749 31.7198C21.62 31.8053 21.7854 31.8834 21.9714 31.9541C22.1573 32.0247 22.3767 32.06 22.6295 32.06C22.9716 32.06 23.2375 31.9857 23.4271 31.8369C23.6167 31.6845 23.7116 31.4446 23.7116 31.1174C23.7116 30.9278 23.6595 30.7735 23.5554 30.6545C23.4513 30.5355 23.3137 30.437 23.1426 30.3589C22.9753 30.2808 22.7838 30.212 22.5682 30.1525C22.3525 30.093 22.1312 30.0279 21.9044 29.9573C21.6776 29.8829 21.4564 29.7937 21.2407 29.6896C21.025 29.5817 20.8317 29.4423 20.6606 29.2712C20.4933 29.0965 20.3576 28.8808 20.2535 28.6242C20.1493 28.364 20.0973 28.0442 20.0973 27.6649C20.0973 27.36 20.1586 27.0625 20.2813 26.7725C20.404 26.4824 20.5844 26.224 20.8224 25.9972C21.0603 25.7704 21.3522 25.59 21.6981 25.4562C22.0439 25.3186 22.4399 25.2498 22.8861 25.2498C23.1352 25.2498 23.3769 25.2702 23.6112 25.3111C23.8491 25.3483 24.0741 25.406 24.2861 25.4841C24.498 25.5584 24.6951 25.6495 24.8773 25.7574C25.0632 25.8615 25.2287 25.9805 25.3737 26.1143L24.9052 26.99Z" fill="white"/>
</svg>
